G75*
G70*
%OFA0B0*%
%FSLAX24Y24*%
%IPPOS*%
%LPD*%
%AMOC8*
5,1,8,0,0,1.08239X$1,22.5*
%
%ADD10C,0.0080*%
%ADD11R,0.0591X0.0160*%
%ADD12R,0.0160X0.0591*%
%ADD13R,0.0256X0.0413*%
%ADD14R,0.0394X0.0315*%
%ADD15R,0.0453X0.0591*%
%ADD16R,0.0555X0.0555*%
%ADD17C,0.0555*%
%ADD18R,0.0315X0.0394*%
%ADD19C,0.0440*%
%ADD20R,0.0236X0.0276*%
%ADD21R,0.0555X0.0555*%
%ADD22R,0.0945X0.0787*%
%ADD23C,0.1200*%
%ADD24R,0.0276X0.0236*%
%ADD25R,0.0110X0.0551*%
%ADD26R,0.0165X0.0165*%
%ADD27R,0.0394X0.0307*%
%ADD28R,0.0866X0.0157*%
%ADD29R,0.0433X0.0551*%
%ADD30C,0.0120*%
%ADD31C,0.0100*%
%ADD32C,0.0160*%
%ADD33C,0.0436*%
%ADD34C,0.0400*%
D10*
X002393Y008412D02*
X002393Y020148D01*
X002688Y020672D01*
X003008Y021181D01*
X003352Y021674D01*
X003719Y022150D01*
X004108Y022608D01*
X004519Y023047D01*
X004951Y023465D01*
X005403Y023862D01*
X005873Y024237D01*
X006360Y024588D01*
X006864Y024916D01*
X007383Y025220D01*
X007916Y025498D01*
X008461Y025750D01*
X009018Y025976D01*
X009586Y026174D01*
X010162Y026345D01*
X010746Y026488D01*
X011336Y026603D01*
X011931Y026690D01*
X012529Y026747D01*
X013129Y026776D01*
X013731Y026776D01*
X014331Y026747D01*
X014929Y026690D01*
X015524Y026603D01*
X016114Y026488D01*
X016698Y026345D01*
X017274Y026174D01*
X017842Y025976D01*
X018399Y025750D01*
X018944Y025498D01*
X019477Y025220D01*
X019996Y024916D01*
X020500Y024588D01*
X020987Y024237D01*
X021457Y023862D01*
X021909Y023465D01*
X022341Y023047D01*
X022752Y022608D01*
X023141Y022150D01*
X023508Y021674D01*
X023852Y021181D01*
X024172Y020672D01*
X024467Y020148D01*
X024467Y008412D01*
X018780Y010980D02*
X018180Y010980D01*
X017775Y011385D01*
X017840Y011070D02*
X018130Y010780D01*
X018680Y010780D01*
X017294Y010755D02*
X017280Y010741D01*
X024467Y008412D02*
X024172Y007888D01*
X023852Y007379D01*
X023508Y006886D01*
X023141Y006410D01*
X022752Y005952D01*
X022341Y005513D01*
X021909Y005095D01*
X021457Y004698D01*
X020987Y004323D01*
X020500Y003972D01*
X019996Y003644D01*
X019477Y003340D01*
X018944Y003062D01*
X018399Y002810D01*
X017842Y002584D01*
X017274Y002386D01*
X016698Y002215D01*
X016114Y002072D01*
X015524Y001957D01*
X014929Y001870D01*
X014331Y001813D01*
X013731Y001784D01*
X013129Y001784D01*
X012529Y001813D01*
X011931Y001870D01*
X011336Y001957D01*
X010746Y002072D01*
X010162Y002215D01*
X009586Y002386D01*
X009018Y002584D01*
X008461Y002810D01*
X007916Y003062D01*
X007383Y003340D01*
X006864Y003644D01*
X006360Y003972D01*
X005873Y004323D01*
X005403Y004698D01*
X004951Y005095D01*
X004519Y005513D01*
X004108Y005952D01*
X003719Y006410D01*
X003352Y006886D01*
X003008Y007379D01*
X002688Y007888D01*
X002393Y008412D01*
D11*
X012766Y010755D03*
X012766Y011070D03*
X012766Y011385D03*
X012766Y011700D03*
X012766Y012015D03*
X012766Y012330D03*
X012766Y012645D03*
X012766Y012960D03*
X012766Y013275D03*
X012766Y013590D03*
X012766Y013905D03*
X017294Y013905D03*
X017294Y013590D03*
X017294Y013275D03*
X017294Y012960D03*
X017294Y012645D03*
X017294Y012330D03*
X017294Y012015D03*
X017294Y011700D03*
X017294Y011385D03*
X017294Y011070D03*
X017294Y010755D03*
D12*
X016605Y010066D03*
X016290Y010066D03*
X015975Y010066D03*
X015660Y010066D03*
X015345Y010066D03*
X015030Y010066D03*
X014715Y010066D03*
X014400Y010066D03*
X014085Y010066D03*
X013770Y010066D03*
X013455Y010066D03*
X013455Y014594D03*
X013770Y014594D03*
X014085Y014594D03*
X014400Y014594D03*
X014715Y014594D03*
X015030Y014594D03*
X015345Y014594D03*
X015660Y014594D03*
X015975Y014594D03*
X016290Y014594D03*
X016605Y014594D03*
D13*
X009204Y011977D03*
X008456Y011977D03*
X008830Y012883D03*
D14*
X008180Y013135D03*
X008180Y013725D03*
X007430Y013725D03*
X007430Y013135D03*
X006680Y013135D03*
X006680Y013725D03*
X005930Y013725D03*
X005930Y013135D03*
X005180Y013135D03*
X005180Y013725D03*
G36*
X004299Y010679D02*
X004102Y011020D01*
X004373Y011177D01*
X004570Y010836D01*
X004299Y010679D01*
G37*
G36*
X003787Y010383D02*
X003590Y010724D01*
X003861Y010881D01*
X004058Y010540D01*
X003787Y010383D01*
G37*
G36*
X005181Y010499D02*
X004840Y010302D01*
X004683Y010573D01*
X005024Y010770D01*
X005181Y010499D01*
G37*
G36*
X005477Y009987D02*
X005136Y009790D01*
X004979Y010061D01*
X005320Y010258D01*
X005477Y009987D01*
G37*
G36*
X005383Y009323D02*
X005724Y009520D01*
X005881Y009249D01*
X005540Y009052D01*
X005383Y009323D01*
G37*
G36*
X005679Y008811D02*
X006020Y009008D01*
X006177Y008737D01*
X005836Y008540D01*
X005679Y008811D01*
G37*
X010730Y010435D03*
X010730Y011025D03*
X011780Y012035D03*
X011780Y012625D03*
X006780Y016785D03*
X006780Y017375D03*
X006030Y017375D03*
X006030Y016785D03*
X005280Y016785D03*
X005280Y017375D03*
G36*
X004840Y018258D02*
X005181Y018061D01*
X005024Y017790D01*
X004683Y017987D01*
X004840Y018258D01*
G37*
G36*
X005136Y018770D02*
X005477Y018573D01*
X005320Y018302D01*
X004979Y018499D01*
X005136Y018770D01*
G37*
G36*
X005724Y019040D02*
X005383Y019237D01*
X005540Y019508D01*
X005881Y019311D01*
X005724Y019040D01*
G37*
G36*
X006020Y019552D02*
X005679Y019749D01*
X005836Y020020D01*
X006177Y019823D01*
X006020Y019552D01*
G37*
G36*
X005952Y020490D02*
X006149Y020831D01*
X006420Y020674D01*
X006223Y020333D01*
X005952Y020490D01*
G37*
G36*
X005440Y020786D02*
X005637Y021127D01*
X005908Y020970D01*
X005711Y020629D01*
X005440Y020786D01*
G37*
X013030Y023335D03*
X013030Y023925D03*
X016380Y024135D03*
X016380Y024725D03*
X017580Y022875D03*
X017580Y022285D03*
G36*
X021212Y019743D02*
X020871Y019546D01*
X020714Y019817D01*
X021055Y020014D01*
X021212Y019743D01*
G37*
G36*
X021507Y019232D02*
X021166Y019035D01*
X021009Y019306D01*
X021350Y019503D01*
X021507Y019232D01*
G37*
G36*
X021414Y018605D02*
X021755Y018802D01*
X021912Y018531D01*
X021571Y018334D01*
X021414Y018605D01*
G37*
G36*
X021709Y018093D02*
X022050Y018290D01*
X022207Y018019D01*
X021866Y017822D01*
X021709Y018093D01*
G37*
G36*
X022585Y017830D02*
X022782Y017489D01*
X022511Y017332D01*
X022314Y017673D01*
X022585Y017830D01*
G37*
G36*
X023096Y018126D02*
X023293Y017785D01*
X023022Y017628D01*
X022825Y017969D01*
X023096Y018126D01*
G37*
X020180Y018225D03*
X020180Y017635D03*
X021880Y014775D03*
X021880Y014185D03*
X021880Y013625D03*
X021880Y013035D03*
G36*
X022020Y010252D02*
X021679Y010449D01*
X021836Y010720D01*
X022177Y010523D01*
X022020Y010252D01*
G37*
G36*
X021724Y009740D02*
X021383Y009937D01*
X021540Y010208D01*
X021881Y010011D01*
X021724Y009740D01*
G37*
G36*
X021136Y009520D02*
X021477Y009323D01*
X021320Y009052D01*
X020979Y009249D01*
X021136Y009520D01*
G37*
G36*
X020840Y009008D02*
X021181Y008811D01*
X021024Y008540D01*
X020683Y008737D01*
X020840Y009008D01*
G37*
G36*
X021258Y008020D02*
X021061Y007679D01*
X020790Y007836D01*
X020987Y008177D01*
X021258Y008020D01*
G37*
G36*
X021770Y007724D02*
X021573Y007383D01*
X021302Y007540D01*
X021499Y007881D01*
X021770Y007724D01*
G37*
X017330Y009235D03*
X017330Y009825D03*
X011830Y004775D03*
X011830Y004185D03*
D15*
X009224Y011180D03*
X008436Y011180D03*
X019386Y022380D03*
X020174Y022380D03*
X010524Y025280D03*
X009736Y025280D03*
D16*
X011430Y024280D03*
X012430Y022780D03*
X014430Y024280D03*
X015430Y022780D03*
X018380Y009380D03*
X013930Y004280D03*
X012930Y005780D03*
D17*
X013930Y005780D03*
X012930Y004280D03*
X015730Y005730D03*
X017730Y005730D03*
X019380Y009380D03*
X019380Y010380D03*
X018380Y010380D03*
X018380Y011380D03*
X019380Y011380D03*
X021040Y010463D03*
X021780Y008847D03*
X019380Y013630D03*
X019380Y014630D03*
X019380Y015630D03*
X020566Y018968D03*
X022317Y018835D03*
X018380Y021780D03*
X015399Y019674D03*
X015399Y018886D03*
X014611Y018886D03*
X013824Y018886D03*
X013824Y019674D03*
X014611Y019674D03*
X013036Y019674D03*
X012249Y019674D03*
X011461Y019674D03*
X011461Y018886D03*
X012249Y018886D03*
X013036Y018886D03*
X013430Y021780D03*
X014430Y022780D03*
X015430Y024280D03*
X012430Y024280D03*
X011430Y022780D03*
X008430Y021780D03*
X005080Y019713D03*
X005820Y018097D03*
X009430Y017680D03*
X009430Y016680D03*
X009430Y015680D03*
X006320Y009597D03*
X004580Y009713D03*
D18*
X009185Y008630D03*
X009775Y008630D03*
X009775Y007930D03*
X009185Y007930D03*
X009185Y007230D03*
X009775Y007230D03*
X012435Y005030D03*
X013025Y005030D03*
X013835Y005030D03*
X014425Y005030D03*
X016535Y004980D03*
X017125Y004980D03*
X017075Y007730D03*
X016485Y007730D03*
X006925Y014330D03*
X006335Y014330D03*
X006485Y016180D03*
X007075Y016180D03*
X011835Y017780D03*
X012425Y017780D03*
X013035Y017780D03*
X013625Y017780D03*
X014235Y017780D03*
X014825Y017780D03*
X013075Y020630D03*
X012485Y020630D03*
X011375Y023480D03*
X010785Y023480D03*
X009325Y022830D03*
X008735Y022830D03*
X013935Y023530D03*
X014525Y023530D03*
X015335Y023530D03*
X015925Y023530D03*
X015685Y021180D03*
X016275Y021180D03*
X018685Y020430D03*
X019275Y020430D03*
D19*
X011397Y010380D03*
X010060Y010380D03*
D20*
X016456Y006974D03*
X017204Y006974D03*
X016830Y006186D03*
X014730Y020486D03*
X014356Y021274D03*
X015104Y021274D03*
X018656Y023136D03*
X019404Y023136D03*
X019030Y023924D03*
X009954Y024274D03*
X009206Y024274D03*
X009580Y023486D03*
D21*
G36*
X005942Y018862D02*
X006219Y019341D01*
X006698Y019064D01*
X006421Y018585D01*
X005942Y018862D01*
G37*
G36*
X004958Y018948D02*
X004681Y018469D01*
X004202Y018746D01*
X004479Y019225D01*
X004958Y018948D01*
G37*
G36*
X005719Y010085D02*
X005442Y010564D01*
X005921Y010841D01*
X006198Y010362D01*
X005719Y010085D01*
G37*
G36*
X005181Y009225D02*
X005458Y008746D01*
X004979Y008469D01*
X004702Y008948D01*
X005181Y009225D01*
G37*
G36*
X020918Y009698D02*
X020641Y009219D01*
X020162Y009496D01*
X020439Y009975D01*
X020918Y009698D01*
G37*
G36*
X021902Y009612D02*
X022179Y010091D01*
X022658Y009814D01*
X022381Y009335D01*
X021902Y009612D01*
G37*
G36*
X021167Y018480D02*
X021444Y018001D01*
X020965Y017724D01*
X020688Y018203D01*
X021167Y018480D01*
G37*
G36*
X021716Y019323D02*
X021439Y019802D01*
X021918Y020079D01*
X022195Y019600D01*
X021716Y019323D01*
G37*
D22*
X020780Y014717D03*
X020780Y013143D03*
D23*
X023430Y014280D03*
X003430Y014280D03*
D24*
G36*
X004424Y011940D02*
X004662Y012078D01*
X004780Y011874D01*
X004542Y011736D01*
X004424Y011940D01*
G37*
G36*
X004798Y011292D02*
X005036Y011430D01*
X005154Y011226D01*
X004916Y011088D01*
X004798Y011292D01*
G37*
G36*
X005293Y012010D02*
X005531Y012148D01*
X005649Y011944D01*
X005411Y011806D01*
X005293Y012010D01*
G37*
X011074Y005054D03*
X011074Y004306D03*
X010286Y004680D03*
G36*
X020704Y006549D02*
X020566Y006311D01*
X020362Y006429D01*
X020500Y006667D01*
X020704Y006549D01*
G37*
G36*
X021422Y007044D02*
X021284Y006806D01*
X021080Y006924D01*
X021218Y007162D01*
X021422Y007044D01*
G37*
G36*
X020774Y007418D02*
X020636Y007180D01*
X020432Y007298D01*
X020570Y007536D01*
X020774Y007418D01*
G37*
G36*
X021911Y016020D02*
X021673Y015882D01*
X021555Y016086D01*
X021793Y016224D01*
X021911Y016020D01*
G37*
G36*
X022406Y016737D02*
X022168Y016599D01*
X022050Y016803D01*
X022288Y016941D01*
X022406Y016737D01*
G37*
G36*
X022780Y016090D02*
X022542Y015952D01*
X022424Y016156D01*
X022662Y016294D01*
X022780Y016090D01*
G37*
X017186Y023656D03*
X017186Y024404D03*
X017974Y024030D03*
G36*
X006656Y022061D02*
X006794Y022299D01*
X006998Y022181D01*
X006860Y021943D01*
X006656Y022061D01*
G37*
G36*
X005938Y021566D02*
X006076Y021804D01*
X006280Y021686D01*
X006142Y021448D01*
X005938Y021566D01*
G37*
G36*
X006586Y021192D02*
X006724Y021430D01*
X006928Y021312D01*
X006790Y021074D01*
X006586Y021192D01*
G37*
D25*
X005924Y016196D03*
X005727Y016196D03*
X005530Y016196D03*
X005333Y016196D03*
X005136Y016196D03*
X005136Y014464D03*
X005333Y014464D03*
X005530Y014464D03*
X005727Y014464D03*
X005924Y014464D03*
D26*
X006570Y014974D03*
X006570Y015230D03*
X006570Y015486D03*
X007290Y015486D03*
X007290Y015230D03*
X007290Y014974D03*
D27*
X006930Y015033D03*
X006930Y015427D03*
D28*
X016550Y017023D03*
X016550Y017278D03*
X016550Y017534D03*
X016550Y017790D03*
X016550Y018046D03*
X016550Y018302D03*
X016550Y018558D03*
X016550Y018814D03*
X016550Y019070D03*
X016550Y019326D03*
X016550Y019582D03*
X016550Y019837D03*
X019210Y019837D03*
X019210Y019582D03*
X019210Y019326D03*
X019210Y019070D03*
X019210Y018814D03*
X019210Y018558D03*
X019210Y018302D03*
X019210Y018046D03*
X019210Y017790D03*
X019210Y017534D03*
X019210Y017278D03*
X019210Y017023D03*
D29*
X007795Y008971D03*
X007165Y008971D03*
X007165Y007789D03*
X007795Y007789D03*
D30*
X009630Y010380D02*
X010060Y010380D01*
X009630Y010380D02*
X009224Y010786D01*
X009224Y011180D01*
X011130Y012130D02*
X011677Y012677D01*
X011780Y012625D02*
X012062Y012645D01*
X012766Y012645D01*
X013245Y012645D01*
X013280Y012680D01*
X013530Y012680D01*
X013730Y012480D01*
X014680Y011530D01*
X016130Y011530D01*
X016130Y012015D01*
X016130Y013880D01*
X016130Y012015D02*
X017294Y012015D01*
X016130Y011530D02*
X016130Y010830D01*
X014715Y010495D02*
X014715Y010066D01*
X014715Y010495D02*
X014680Y010530D01*
X014680Y011530D01*
X013730Y012180D02*
X013730Y012480D01*
X013730Y012180D02*
X013530Y011980D01*
X013280Y011980D01*
X013245Y012015D01*
X012766Y012015D01*
X017880Y014680D02*
X017880Y014880D01*
X019130Y016130D01*
X019480Y016130D01*
X020530Y017180D01*
X020530Y017880D01*
X020185Y018225D01*
X020180Y018225D01*
X020180Y018480D01*
X019846Y018814D01*
X019210Y018814D01*
X019210Y018302D02*
X019708Y018302D01*
X019830Y018180D01*
X019830Y017930D01*
X020125Y017635D01*
X020180Y017635D01*
X020180Y017330D01*
X020030Y017180D01*
X020283Y018177D02*
X020180Y018225D01*
D31*
X006930Y007230D02*
X006680Y007480D01*
X006680Y008130D01*
X007030Y008480D01*
X007530Y008480D01*
X007795Y008745D01*
X007795Y008971D01*
X007165Y008971D02*
X007165Y009365D01*
X007480Y009680D01*
X006980Y010430D02*
X006180Y011230D01*
X005471Y011230D01*
X005471Y011074D01*
X004932Y010536D01*
X005228Y010024D02*
X004930Y009080D01*
X005080Y008847D01*
X005632Y009286D02*
X006320Y009597D01*
X005928Y008774D02*
X005830Y008680D01*
X007165Y008115D02*
X007165Y007789D01*
X007165Y008115D02*
X007330Y008280D01*
X008130Y008280D01*
X008480Y008630D01*
X009185Y008630D01*
X008980Y009030D02*
X005430Y012580D01*
X004830Y012580D01*
X004580Y012830D01*
X004580Y014180D01*
X004730Y014330D01*
X004730Y014930D01*
X005333Y015533D01*
X005333Y016196D01*
X005136Y016196D02*
X004680Y016652D01*
X004680Y016980D01*
X005077Y017377D01*
X005280Y017375D01*
X006030Y017375D01*
X006030Y016785D02*
X005280Y016785D01*
X005730Y016430D02*
X005955Y016430D01*
X005955Y016160D01*
X005950Y016155D01*
X005950Y015960D01*
X005730Y015960D01*
X005730Y016430D01*
X005730Y016358D02*
X005955Y016358D01*
X005955Y016260D02*
X005730Y016260D01*
X005727Y016196D02*
X005924Y016196D01*
X005880Y016152D01*
X005955Y016161D02*
X005730Y016161D01*
X005730Y016063D02*
X005950Y016063D01*
X005950Y015964D02*
X005730Y015964D01*
X005580Y015780D02*
X006080Y015780D01*
X006130Y015830D01*
X006130Y016080D01*
X006230Y016180D01*
X006485Y016180D01*
X007075Y016180D02*
X007075Y016488D01*
X006780Y016785D01*
X006727Y017330D02*
X006780Y017375D01*
X006777Y017377D01*
X005820Y018097D02*
X005228Y018536D01*
X005080Y019713D02*
X005674Y020878D01*
X006109Y021626D01*
X006230Y022230D02*
X006757Y021252D01*
X006186Y020582D01*
X005980Y019830D02*
X007180Y019830D01*
X007430Y019830D01*
X007180Y019830D02*
X007180Y021768D01*
X006827Y022121D01*
X008735Y022830D02*
X008733Y023283D01*
X009724Y024274D01*
X009954Y024274D01*
X009736Y023480D02*
X009580Y023486D01*
X009325Y022830D02*
X009430Y022627D01*
X009430Y021980D01*
X010430Y022280D02*
X012780Y022280D01*
X013030Y022530D01*
X013030Y023335D01*
X013027Y023430D01*
X012780Y023430D01*
X012430Y023780D01*
X012430Y024280D01*
X013030Y024130D02*
X013280Y024380D01*
X013030Y024130D02*
X013030Y023925D01*
X013930Y023630D02*
X014030Y023530D01*
X013935Y023530D01*
X014430Y023530D02*
X014430Y022780D01*
X014430Y023530D02*
X014525Y023530D01*
X014430Y024280D02*
X014683Y024280D01*
X015335Y023530D01*
X015430Y023530D01*
X015430Y022780D01*
X016027Y023330D02*
X016680Y023330D01*
X016680Y022330D01*
X016830Y022180D01*
X017330Y021780D02*
X017580Y022030D01*
X017580Y022285D01*
X017580Y022875D02*
X017939Y023136D01*
X018656Y023136D01*
X019386Y023119D02*
X019404Y023136D01*
X019030Y023924D02*
X019030Y023930D01*
X017974Y024030D02*
X017974Y023774D01*
X017530Y023330D01*
X016680Y023330D01*
X016957Y023656D02*
X017186Y023656D01*
X017186Y023836D01*
X017630Y024280D01*
X017630Y024380D01*
X017186Y024404D02*
X016863Y024727D01*
X016380Y024725D01*
X015877Y024727D01*
X015430Y024280D01*
X015925Y023530D02*
X016027Y023330D01*
X016380Y024135D02*
X016957Y023656D01*
X018380Y021780D02*
X019030Y021130D01*
X020280Y021130D01*
X021030Y020380D01*
X021012Y019812D02*
X020963Y019780D01*
X021204Y019336D02*
X021258Y019269D01*
X021204Y019336D02*
X020566Y018968D01*
X021069Y018111D02*
X021066Y018102D01*
X021069Y018111D02*
X021663Y018568D01*
X021969Y019439D01*
X021817Y019701D01*
X022317Y018835D02*
X022974Y018178D01*
X023059Y017877D01*
X022974Y016495D01*
X022602Y016123D01*
X022156Y015672D02*
X022166Y016714D01*
X022228Y016770D01*
X022228Y017226D01*
X022548Y017581D01*
X021958Y018056D02*
X021733Y017966D01*
X021733Y016053D01*
X021253Y016053D01*
X020830Y015630D01*
X020838Y014775D02*
X020780Y014717D01*
X020143Y014080D01*
X019130Y014080D01*
X018010Y012960D01*
X017294Y012960D01*
X017294Y013275D02*
X018025Y013275D01*
X019380Y014630D01*
X018830Y014380D02*
X018830Y015080D01*
X019380Y015630D01*
X020380Y016630D01*
X020480Y016630D01*
X020680Y016630D01*
X019595Y016995D02*
X019595Y017312D01*
X018825Y017310D01*
X018825Y016995D01*
X019595Y016995D01*
X019595Y017048D02*
X018825Y017048D01*
X018825Y017146D02*
X019595Y017146D01*
X019595Y017245D02*
X018825Y017245D01*
X018634Y017534D02*
X018530Y017430D01*
X018530Y016380D01*
X017380Y015230D01*
X017280Y015230D01*
X017430Y015580D02*
X016930Y015580D01*
X016830Y015480D01*
X016830Y015130D01*
X017294Y014666D01*
X017294Y013905D01*
X017294Y013590D02*
X018040Y013590D01*
X018830Y014380D01*
X017430Y015580D02*
X018330Y016480D01*
X018330Y017530D01*
X018590Y017790D01*
X019210Y017790D01*
X019210Y017534D02*
X018634Y017534D01*
X018130Y017630D02*
X018546Y018046D01*
X019210Y018046D01*
X019210Y018558D02*
X018458Y018558D01*
X017930Y018030D01*
X017930Y016680D01*
X017230Y015980D01*
X016730Y015980D01*
X016290Y015540D01*
X016290Y014594D01*
X016605Y014594D02*
X016605Y015555D01*
X016830Y015780D01*
X017330Y015780D01*
X018130Y016580D01*
X018130Y017630D01*
X017730Y016780D02*
X017130Y016180D01*
X016630Y016180D01*
X015975Y015525D01*
X015975Y014594D01*
X015660Y014594D02*
X015660Y015860D01*
X015730Y015930D01*
X015345Y016345D02*
X015345Y014594D01*
X015030Y014594D02*
X015030Y014130D01*
X015280Y013880D01*
X016130Y013880D01*
X014830Y013230D02*
X014830Y012880D01*
X014830Y013230D02*
X014085Y013975D01*
X014085Y014594D01*
X013770Y014594D02*
X013770Y013640D01*
X014230Y013180D01*
X013455Y013055D02*
X014280Y012230D01*
X015680Y012230D01*
X016530Y011580D02*
X016530Y010775D01*
X017330Y009975D01*
X017330Y009825D01*
X017330Y009235D02*
X018235Y009235D01*
X018380Y009380D01*
X018880Y009880D02*
X019380Y009380D01*
X018630Y008630D01*
X016980Y008630D01*
X016230Y008630D02*
X016030Y008430D01*
X011530Y008430D01*
X010330Y007230D01*
X009775Y007230D01*
X009185Y007230D02*
X006930Y007230D01*
X007795Y007789D02*
X007936Y007930D01*
X009185Y007930D01*
X009775Y007930D02*
X010730Y007930D01*
X011430Y008630D01*
X015380Y008630D01*
X016290Y009540D01*
X016290Y010066D01*
X016605Y010066D02*
X016605Y007850D01*
X016485Y007730D01*
X017075Y007730D02*
X017204Y007601D01*
X017204Y006974D01*
X016456Y006974D02*
X016074Y006974D01*
X015680Y006980D01*
X014780Y006680D02*
X015730Y005730D01*
X015785Y005730D01*
X016535Y004980D01*
X016477Y004983D01*
X017125Y004980D02*
X017183Y004980D01*
X017730Y005527D01*
X017730Y005730D01*
X017274Y006186D01*
X016830Y006186D01*
X018330Y007230D02*
X017830Y007730D01*
X018330Y007230D02*
X020030Y007230D01*
X020533Y006489D01*
X021030Y006480D02*
X020603Y007358D01*
X021024Y007928D01*
X021536Y007632D02*
X021251Y006984D01*
X021536Y007632D02*
X021780Y008847D01*
X021228Y009286D02*
X022180Y009530D01*
X022280Y009713D01*
X021632Y009974D02*
X021040Y010463D01*
X020540Y009597D02*
X021228Y009286D01*
X020932Y008774D02*
X020030Y007230D01*
X018880Y009880D02*
X018880Y010580D01*
X018680Y010780D01*
X018780Y010980D02*
X019380Y010380D01*
X018380Y010380D02*
X018130Y010380D01*
X017755Y010755D01*
X017294Y010755D01*
X017294Y011070D02*
X017840Y011070D01*
X017775Y011385D02*
X017294Y011385D01*
X017294Y011700D02*
X016650Y011700D01*
X016530Y011580D01*
X017294Y012330D02*
X017830Y012330D01*
X018380Y011780D01*
X018380Y011380D01*
X018380Y010380D02*
X018280Y010380D01*
X015975Y010066D02*
X015975Y009525D01*
X015280Y008830D01*
X011330Y008830D01*
X011130Y008630D01*
X009775Y008630D01*
X009080Y009230D02*
X005530Y012780D01*
X004930Y012780D01*
X004780Y012930D01*
X004780Y014080D01*
X004930Y014230D01*
X004930Y014830D01*
X004980Y014880D01*
X005280Y014880D01*
X005333Y014827D01*
X005333Y014464D01*
X005136Y014464D02*
X005136Y013833D01*
X005180Y013725D01*
X005530Y014127D02*
X005930Y013725D01*
X005955Y014230D02*
X005730Y014230D01*
X005730Y014705D01*
X005955Y014705D01*
X005955Y014230D01*
X005955Y014290D02*
X005730Y014290D01*
X005730Y014388D02*
X005955Y014388D01*
X005924Y014464D02*
X005727Y014464D01*
X005730Y014487D02*
X005955Y014487D01*
X005955Y014585D02*
X005730Y014585D01*
X005730Y014684D02*
X005955Y014684D01*
X005530Y014464D02*
X005530Y014127D01*
X006335Y014330D02*
X006680Y013985D01*
X006680Y013725D01*
X006855Y014230D02*
X006925Y014330D01*
X007330Y014330D01*
X007430Y014230D01*
X007430Y013725D01*
X007430Y013135D02*
X008180Y013135D01*
X007430Y013135D02*
X006680Y013135D01*
X005930Y013135D01*
X005180Y013135D01*
X004980Y012230D02*
X004980Y011263D01*
X004976Y011259D01*
X004295Y010878D01*
X004336Y010928D01*
X003824Y011129D02*
X003824Y010632D01*
X003824Y010469D01*
X004580Y009713D01*
X005228Y010024D02*
X005820Y010463D01*
X005471Y011230D02*
X005471Y011977D01*
X004602Y011907D02*
X003824Y011129D01*
X006530Y012080D02*
X006530Y012530D01*
X006530Y012080D02*
X009180Y009430D01*
X014130Y009430D01*
X014400Y009700D01*
X014400Y010066D01*
X014085Y010066D02*
X014085Y010535D01*
X014280Y010730D01*
X013880Y011130D02*
X013770Y011020D01*
X013770Y010066D01*
X013455Y010066D02*
X013455Y011555D01*
X013480Y011580D01*
X013380Y012330D02*
X012766Y012330D01*
X012077Y012330D01*
X011780Y012035D01*
X011780Y012625D02*
X011677Y012677D01*
X011435Y013275D02*
X012766Y013275D01*
X012766Y013590D02*
X011770Y013590D01*
X011380Y013980D01*
X011380Y014430D01*
X011330Y015080D02*
X011330Y017780D01*
X010230Y018880D01*
X009430Y019080D02*
X009430Y019180D01*
X009430Y019080D02*
X011080Y017430D01*
X011080Y015180D01*
X009580Y013680D01*
X009580Y011930D01*
X010125Y011385D01*
X012766Y011385D01*
X012766Y011070D02*
X010873Y011070D01*
X010730Y011025D01*
X010850Y010927D01*
X011397Y010380D01*
X010730Y010435D02*
X010730Y009930D01*
X009080Y010130D02*
X008830Y010380D01*
X008830Y012883D01*
X009880Y013630D02*
X009880Y011980D01*
X010160Y011700D01*
X012766Y011700D01*
X012766Y010755D02*
X012766Y010066D01*
X012730Y010030D01*
X012080Y008080D02*
X012080Y005380D01*
X010680Y005380D01*
X010286Y004986D01*
X010286Y004680D01*
X010630Y004610D02*
X010630Y004330D01*
X010630Y004610D02*
X011074Y005054D01*
X011453Y005054D01*
X011830Y004775D01*
X011903Y004704D01*
X011933Y004280D02*
X012930Y004280D01*
X013677Y004280D02*
X013025Y005030D01*
X012930Y005780D01*
X012435Y005030D02*
X012430Y005030D01*
X012080Y005380D01*
X011933Y004280D02*
X011830Y004185D01*
X011195Y004185D01*
X011074Y004306D01*
X013677Y004280D02*
X013930Y004280D01*
X013835Y005030D02*
X013930Y005780D01*
X014425Y005030D02*
X014580Y004777D01*
X014780Y006680D02*
X013480Y006680D01*
X015180Y009030D02*
X015660Y009510D01*
X015660Y010066D01*
X015345Y010066D02*
X015345Y009495D01*
X015080Y009230D01*
X009080Y009230D01*
X008980Y009030D02*
X015180Y009030D01*
X015030Y010066D02*
X015030Y011030D01*
X013455Y013055D02*
X013455Y014594D01*
X014400Y014594D02*
X014400Y015850D01*
X014930Y016380D01*
X015345Y016345D02*
X015780Y016780D01*
X017130Y016780D01*
X017330Y016980D01*
X017330Y018930D01*
X017982Y019582D01*
X019210Y019582D01*
X019210Y019326D02*
X018026Y019326D01*
X017530Y018830D01*
X017530Y016880D01*
X017030Y016380D01*
X016080Y016380D01*
X016165Y016995D02*
X016165Y017310D01*
X016940Y017307D01*
X016940Y016995D01*
X016165Y016995D01*
X016165Y017048D02*
X016940Y017048D01*
X016940Y017146D02*
X016165Y017146D01*
X016165Y017245D02*
X016940Y017245D01*
X016940Y017505D02*
X016940Y017817D01*
X016165Y017820D01*
X016165Y017505D01*
X016940Y017505D01*
X016940Y017540D02*
X016165Y017540D01*
X016165Y017639D02*
X016940Y017639D01*
X016940Y017737D02*
X016165Y017737D01*
X015970Y017790D02*
X015730Y018030D01*
X015970Y017790D02*
X016550Y017790D01*
X017040Y017790D01*
X017130Y017880D01*
X017130Y018980D01*
X017040Y019070D01*
X016550Y019070D01*
X016550Y018814D02*
X016046Y018814D01*
X015880Y018980D01*
X015880Y019192D01*
X015399Y019674D01*
X015680Y020130D02*
X015973Y019837D01*
X016550Y019837D01*
X016165Y019806D02*
X016940Y019806D01*
X016940Y019867D02*
X016940Y019555D01*
X016165Y019555D01*
X016165Y019870D01*
X016940Y019867D01*
X016940Y019707D02*
X016165Y019707D01*
X016165Y019609D02*
X016940Y019609D01*
X016940Y019352D02*
X016940Y019040D01*
X016165Y019040D01*
X016165Y019355D01*
X016940Y019352D01*
X016940Y019313D02*
X016165Y019313D01*
X016165Y019215D02*
X016940Y019215D01*
X016940Y019116D02*
X016165Y019116D01*
X016165Y018845D02*
X016940Y018842D01*
X016940Y018530D01*
X016165Y018530D01*
X016165Y018845D01*
X016165Y018821D02*
X016940Y018821D01*
X016940Y018722D02*
X016165Y018722D01*
X016165Y018624D02*
X016940Y018624D01*
X016940Y018327D02*
X016940Y018015D01*
X016165Y018015D01*
X016165Y018330D01*
X016940Y018327D01*
X016940Y018230D02*
X016165Y018230D01*
X016165Y018328D02*
X016768Y018328D01*
X016550Y018302D02*
X015983Y018302D01*
X015399Y018886D01*
X014611Y018886D02*
X014611Y018599D01*
X015932Y017278D01*
X016550Y017278D01*
X016165Y018033D02*
X016940Y018033D01*
X016940Y018131D02*
X016165Y018131D01*
X014825Y017780D02*
X014677Y017630D01*
X014630Y017583D01*
X014630Y017230D01*
X014235Y017780D02*
X014235Y018475D01*
X013824Y018886D01*
X013625Y018297D02*
X013036Y018886D01*
X012425Y018710D02*
X012249Y018886D01*
X012425Y018710D02*
X012425Y017780D01*
X012433Y016127D01*
X013080Y015480D01*
X013530Y015980D02*
X013530Y017777D01*
X013625Y017780D01*
X013625Y018297D01*
X013035Y017780D02*
X012830Y017577D01*
X012830Y017180D01*
X011880Y017230D02*
X011833Y017283D01*
X011835Y017780D01*
X013824Y019674D02*
X014624Y020480D01*
X014730Y020486D01*
X015067Y020130D02*
X015680Y020130D01*
X015880Y020480D02*
X016180Y020780D01*
X016275Y021180D01*
X015698Y021280D02*
X015104Y021274D01*
X015685Y021180D02*
X015698Y021280D01*
X015067Y020130D02*
X014611Y019674D01*
X013653Y020571D02*
X014356Y021274D01*
X013653Y020571D02*
X013036Y020571D01*
X014235Y017780D02*
X014030Y017583D01*
X014030Y015480D01*
X014715Y014594D02*
X014715Y014015D01*
X014680Y013980D01*
X012766Y013905D02*
X012105Y013905D01*
X011930Y014080D01*
X011280Y013430D02*
X011435Y013275D01*
X011280Y013430D02*
X010480Y013430D01*
X010280Y013230D01*
X010280Y012330D01*
X010880Y012980D02*
X010910Y012960D01*
X012766Y012960D01*
X011330Y015080D02*
X009880Y013630D01*
X009230Y014480D02*
X008830Y014880D01*
X008830Y018430D01*
X008430Y018830D01*
X005980Y019830D02*
X005928Y019778D01*
X005928Y019786D01*
X005530Y016196D02*
X005530Y015830D01*
X005580Y015780D01*
X006930Y015427D02*
X007039Y015486D01*
X011375Y023480D02*
X011430Y023477D01*
X009606Y025110D02*
X009736Y025280D01*
X017730Y018730D02*
X017730Y016780D01*
X017730Y018730D02*
X018070Y019070D01*
X019210Y019070D01*
X020838Y014775D02*
X021880Y014775D01*
X021880Y014185D02*
X021880Y013625D01*
X021583Y013627D01*
X021280Y013930D01*
X020930Y013930D01*
X020780Y013143D02*
X020888Y013035D01*
X021880Y013035D01*
X020780Y013143D02*
X020282Y012645D01*
X017294Y012645D01*
X023374Y010486D02*
X023380Y010480D01*
D32*
X023380Y008130D01*
X019030Y003780D01*
X014580Y003780D01*
X014580Y004777D01*
X014580Y003780D02*
X008280Y003780D01*
X004555Y007505D01*
X004655Y007505D01*
X005830Y008680D01*
X004555Y007505D02*
X003180Y008880D01*
X003180Y012780D01*
X004230Y013830D01*
X004230Y017680D01*
X004574Y018024D01*
X004932Y018024D01*
X004580Y018847D02*
X005632Y019274D01*
X006320Y018963D01*
X006780Y018330D02*
X006780Y017375D01*
X006883Y017377D01*
X007430Y016830D01*
X007430Y016130D01*
X007430Y015880D01*
X007330Y015780D01*
X006680Y015780D01*
X006570Y015670D01*
X006570Y015486D01*
X007039Y015486D02*
X007290Y015486D01*
X007936Y015486D01*
X008130Y015680D01*
X008380Y015230D02*
X008580Y015430D01*
X008580Y015880D01*
X008330Y016130D01*
X007430Y016130D01*
X008130Y016580D02*
X008130Y016630D01*
X007080Y017680D01*
X007080Y018130D01*
X010230Y021280D01*
X013680Y021280D01*
X014130Y021730D01*
X016480Y021730D01*
X018373Y019837D01*
X019210Y019837D01*
X019275Y019903D01*
X019275Y020430D01*
X019780Y020430D01*
X018685Y020430D02*
X018480Y020430D01*
X018080Y020830D01*
X019386Y022380D02*
X019386Y023119D01*
X019404Y023136D02*
X019010Y023530D01*
X018830Y023530D01*
X018580Y023780D01*
X018580Y024130D01*
X018230Y024480D01*
X017730Y024480D01*
X017630Y024380D01*
X018280Y025380D02*
X019380Y024280D01*
X019030Y023930D01*
X019380Y024280D02*
X022430Y021230D01*
X023630Y020030D01*
X023630Y016130D01*
X022430Y014930D01*
X022430Y013530D01*
X023380Y012580D01*
X023380Y010480D01*
X023374Y010486D02*
X021928Y010486D01*
X019180Y016580D02*
X019210Y016610D01*
X019210Y017023D01*
X021012Y019812D02*
X022430Y021230D01*
X020174Y021924D02*
X019780Y021530D01*
X020174Y021924D02*
X020174Y022380D01*
X018280Y025380D02*
X014380Y025380D01*
X013930Y024930D01*
X013930Y023630D01*
X012430Y023130D02*
X012430Y022780D01*
X012430Y023130D02*
X011430Y024130D01*
X011430Y024280D01*
X010580Y025130D01*
X010524Y025280D01*
X009736Y025280D02*
X008980Y025280D01*
X009606Y025110D02*
X009606Y024674D01*
X009206Y024274D01*
X009736Y023480D02*
X010785Y023480D01*
X011430Y023477D02*
X011430Y022780D01*
X010230Y021780D02*
X006780Y018330D01*
X006727Y017330D02*
X006680Y017330D01*
X006233Y016883D01*
X006030Y016785D01*
X005924Y016777D01*
X005924Y016196D01*
X005730Y015230D02*
X005986Y014974D01*
X005924Y014912D01*
X005924Y014464D01*
X006199Y014464D01*
X006335Y014330D01*
X006570Y014974D02*
X005986Y014974D01*
X006570Y014974D02*
X006871Y014974D01*
X006930Y015033D01*
X007290Y014974D02*
X007939Y014974D01*
X008131Y014781D01*
X008130Y013783D01*
X008180Y013725D01*
X008830Y013075D01*
X008830Y012883D01*
X008180Y013135D02*
X008180Y012253D01*
X007805Y012255D01*
X008180Y012253D02*
X008456Y011977D01*
X008456Y011200D01*
X008436Y011180D01*
X009224Y011180D02*
X009224Y011958D01*
X009204Y011977D01*
X009204Y013754D01*
X010730Y015280D01*
X010730Y017180D01*
X009980Y017930D02*
X009980Y016230D01*
X009430Y015680D01*
X008380Y015230D02*
X007290Y015230D01*
X009980Y017930D02*
X008930Y018980D01*
X008930Y019430D01*
X009174Y019674D01*
X011461Y019674D01*
X012249Y019674D02*
X012249Y020296D01*
X012485Y020630D01*
X013027Y020533D02*
X013075Y020630D01*
X013036Y020571D01*
X013036Y019674D01*
X013430Y021780D02*
X010230Y021780D01*
D33*
X010430Y022280D03*
X009430Y021980D03*
X009430Y019180D03*
X010230Y018880D03*
X013530Y015980D03*
X013080Y015480D03*
X014030Y015480D03*
X014630Y017230D03*
X011930Y014080D03*
X011380Y014430D03*
X010880Y012980D03*
X010280Y012330D03*
X011130Y012130D03*
X009080Y010130D03*
X007480Y009680D03*
X006980Y010430D03*
X004980Y012230D03*
X010730Y009930D03*
X012730Y010030D03*
X013880Y011130D03*
X014280Y010730D03*
X013480Y011580D03*
X014230Y013180D03*
X014830Y012880D03*
X016130Y010830D03*
X016230Y008630D03*
X016980Y008630D03*
X017830Y007730D03*
X015680Y006980D03*
X012080Y008080D03*
X010630Y004330D03*
X021030Y006480D03*
X020830Y015630D03*
X020680Y016630D03*
X022156Y015672D03*
X017330Y021780D03*
X016830Y022180D03*
X017730Y024480D03*
X013280Y024380D03*
X008980Y025280D03*
X006230Y022230D03*
D34*
X007430Y019830D03*
X008430Y018830D03*
X007480Y017880D03*
X008130Y016580D03*
X008130Y015680D03*
X008131Y014781D03*
X007430Y014230D03*
X009230Y014480D03*
X007805Y012255D03*
X006530Y012530D03*
X005730Y015230D03*
X004680Y016980D03*
X010730Y017180D03*
X011880Y017230D03*
X012830Y017180D03*
X014930Y016380D03*
X015730Y015930D03*
X016080Y016380D03*
X017280Y015230D03*
X017880Y014680D03*
X016130Y013880D03*
X014680Y013980D03*
X015680Y012230D03*
X016530Y011580D03*
X015030Y011030D03*
X013380Y012330D03*
X013480Y006680D03*
X020930Y013930D03*
X019180Y016580D03*
X020030Y017180D03*
X019780Y020430D03*
X019780Y021530D03*
X021030Y020380D03*
X018080Y020830D03*
X015880Y020480D03*
X015730Y018030D03*
M02*
