G75*
G70*
%OFA0B0*%
%FSLAX24Y24*%
%IPPOS*%
%LPD*%
%AMOC8*
5,1,8,0,0,1.08239X$1,22.5*
%
%ADD10R,0.0555X0.0555*%
%ADD11C,0.0555*%
%ADD12C,0.0440*%
%ADD13R,0.0555X0.0555*%
%ADD14C,0.1200*%
%ADD15C,0.0160*%
%ADD16C,0.0120*%
%ADD17C,0.0436*%
%ADD18C,0.0100*%
%ADD19C,0.0400*%
D10*
X012930Y005780D03*
X013930Y004280D03*
X018380Y009380D03*
X015430Y022780D03*
X014430Y024280D03*
X012430Y022780D03*
X011430Y024280D03*
D11*
X012430Y024280D03*
X011430Y022780D03*
X013430Y021780D03*
X014430Y022780D03*
X015430Y024280D03*
X018380Y021780D03*
X020566Y018968D03*
X022317Y018835D03*
X019380Y015630D03*
X019380Y014630D03*
X019380Y013630D03*
X019380Y011380D03*
X018380Y011380D03*
X018380Y010380D03*
X019380Y010380D03*
X019380Y009380D03*
X021040Y010463D03*
X021780Y008847D03*
X017730Y005730D03*
X015730Y005730D03*
X013930Y005780D03*
X012930Y004280D03*
X006320Y009597D03*
X004580Y009713D03*
X009430Y015680D03*
X009430Y016680D03*
X009430Y017680D03*
X011461Y018886D03*
X011461Y019674D03*
X012249Y019674D03*
X013036Y019674D03*
X013036Y018886D03*
X012249Y018886D03*
X013824Y018886D03*
X014611Y018886D03*
X015399Y018886D03*
X015399Y019674D03*
X014611Y019674D03*
X013824Y019674D03*
X008430Y021780D03*
X005080Y019713D03*
X005820Y018097D03*
D12*
X010060Y010380D03*
X011397Y010380D03*
D13*
G36*
X005719Y010085D02*
X005442Y010564D01*
X005921Y010841D01*
X006198Y010362D01*
X005719Y010085D01*
G37*
G36*
X005181Y009225D02*
X005458Y008746D01*
X004979Y008469D01*
X004702Y008948D01*
X005181Y009225D01*
G37*
G36*
X004958Y018948D02*
X004681Y018469D01*
X004202Y018746D01*
X004479Y019225D01*
X004958Y018948D01*
G37*
G36*
X005942Y018862D02*
X006219Y019341D01*
X006698Y019064D01*
X006421Y018585D01*
X005942Y018862D01*
G37*
G36*
X020918Y009698D02*
X020641Y009219D01*
X020162Y009496D01*
X020439Y009975D01*
X020918Y009698D01*
G37*
G36*
X021902Y009612D02*
X022179Y010091D01*
X022658Y009814D01*
X022381Y009335D01*
X021902Y009612D01*
G37*
G36*
X021167Y018480D02*
X021444Y018001D01*
X020965Y017724D01*
X020688Y018203D01*
X021167Y018480D01*
G37*
G36*
X021716Y019323D02*
X021439Y019802D01*
X021918Y020079D01*
X022195Y019600D01*
X021716Y019323D01*
G37*
D14*
X023430Y014280D03*
X003430Y014280D03*
D15*
X005813Y005743D02*
X012453Y005743D01*
X012453Y005901D02*
X005655Y005901D01*
X005496Y006060D02*
X012453Y006060D01*
X012453Y006140D02*
X012453Y005420D01*
X012570Y005303D01*
X013290Y005303D01*
X013407Y005420D01*
X013407Y006140D01*
X013290Y006257D01*
X012570Y006257D01*
X012453Y006140D01*
X012530Y006218D02*
X005338Y006218D01*
X005179Y006377D02*
X013218Y006377D01*
X013253Y006341D02*
X013400Y006280D01*
X013560Y006280D01*
X013707Y006341D01*
X013819Y006453D01*
X013880Y006600D01*
X013880Y006760D01*
X013819Y006907D01*
X013707Y007019D01*
X013560Y007080D01*
X013400Y007080D01*
X013253Y007019D01*
X013164Y006930D01*
X011034Y006930D01*
X010310Y007654D01*
X010310Y010036D01*
X010416Y010142D01*
X010480Y010296D01*
X010480Y010464D01*
X010416Y010618D01*
X010320Y010714D01*
X010320Y010952D01*
X011080Y011712D01*
X011213Y011712D01*
X011367Y011776D01*
X011484Y011893D01*
X011548Y012047D01*
X011548Y012213D01*
X011484Y012367D01*
X011367Y012484D01*
X011213Y012548D01*
X011047Y012548D01*
X010893Y012484D01*
X010776Y012367D01*
X010712Y012213D01*
X010712Y012080D01*
X009913Y011280D01*
X009840Y011207D01*
X009800Y011112D01*
X009800Y010714D01*
X009704Y010618D01*
X009640Y010464D01*
X009640Y010296D01*
X009704Y010142D01*
X009810Y010036D01*
X009810Y007500D01*
X009848Y007408D01*
X009918Y007338D01*
X010788Y006468D01*
X010880Y006430D01*
X013164Y006430D01*
X013253Y006341D01*
X013330Y006218D02*
X013740Y006218D01*
X013660Y006185D02*
X013835Y006257D01*
X014025Y006257D01*
X014200Y006185D01*
X014335Y006050D01*
X014407Y005875D01*
X014407Y005685D01*
X014335Y005510D01*
X014200Y005375D01*
X014025Y005303D01*
X013835Y005303D01*
X013660Y005375D01*
X013525Y005510D01*
X013453Y005685D01*
X013453Y005875D01*
X013525Y006050D01*
X013660Y006185D01*
X013534Y006060D02*
X013407Y006060D01*
X013407Y005901D02*
X013463Y005901D01*
X013453Y005743D02*
X013407Y005743D01*
X013407Y005584D02*
X013494Y005584D01*
X013407Y005426D02*
X013609Y005426D01*
X014251Y005426D02*
X015359Y005426D01*
X015325Y005460D02*
X015253Y005635D01*
X015253Y005825D01*
X015325Y006000D01*
X015460Y006135D01*
X015635Y006207D01*
X015825Y006207D01*
X016000Y006135D01*
X016135Y006000D01*
X016207Y005825D01*
X016207Y005635D01*
X016135Y005460D01*
X016000Y005325D01*
X015825Y005253D01*
X015635Y005253D01*
X015460Y005325D01*
X015325Y005460D01*
X015274Y005584D02*
X014366Y005584D01*
X014407Y005743D02*
X015253Y005743D01*
X015284Y005901D02*
X014397Y005901D01*
X014326Y006060D02*
X015384Y006060D01*
X016076Y006060D02*
X017384Y006060D01*
X017325Y006000D02*
X017253Y005825D01*
X017253Y005635D01*
X017325Y005460D01*
X017460Y005325D01*
X017635Y005253D01*
X017825Y005253D01*
X018000Y005325D01*
X018135Y005460D01*
X018207Y005635D01*
X018207Y005825D01*
X018135Y006000D01*
X018000Y006135D01*
X017825Y006207D01*
X017635Y006207D01*
X017460Y006135D01*
X017325Y006000D01*
X017284Y005901D02*
X016176Y005901D01*
X016207Y005743D02*
X017253Y005743D01*
X017274Y005584D02*
X016186Y005584D01*
X016101Y005426D02*
X017359Y005426D01*
X017600Y005267D02*
X015860Y005267D01*
X015600Y005267D02*
X006289Y005267D01*
X006447Y005109D02*
X020463Y005109D01*
X020621Y005267D02*
X017860Y005267D01*
X018101Y005426D02*
X020780Y005426D01*
X020938Y005584D02*
X018186Y005584D01*
X018207Y005743D02*
X021097Y005743D01*
X021255Y005901D02*
X018176Y005901D01*
X018076Y006060D02*
X021414Y006060D01*
X021572Y006218D02*
X014120Y006218D01*
X013742Y006377D02*
X021731Y006377D01*
X021889Y006535D02*
X013853Y006535D01*
X013880Y006694D02*
X022048Y006694D01*
X022206Y006852D02*
X013842Y006852D01*
X013715Y007011D02*
X022365Y007011D01*
X022523Y007169D02*
X010795Y007169D01*
X010953Y007011D02*
X013245Y007011D01*
X014053Y007803D02*
X012394Y007803D01*
X012434Y007843D02*
X012498Y007997D01*
X012498Y008163D01*
X012434Y008317D01*
X012330Y008421D01*
X012330Y009526D01*
X014268Y007588D01*
X014338Y007518D01*
X014430Y007480D01*
X017489Y007480D01*
X017593Y007376D01*
X017747Y007312D01*
X017913Y007312D01*
X018067Y007376D01*
X018184Y007493D01*
X018248Y007647D01*
X018248Y007813D01*
X018184Y007967D01*
X018067Y008084D01*
X017913Y008148D01*
X017747Y008148D01*
X017593Y008084D01*
X017489Y007980D01*
X014584Y007980D01*
X012911Y009652D01*
X012967Y009676D01*
X013084Y009793D01*
X013148Y009947D01*
X013148Y010113D01*
X013084Y010267D01*
X012967Y010384D01*
X012880Y010420D01*
X012880Y013026D01*
X013530Y012376D01*
X013530Y011998D01*
X013397Y011998D01*
X013243Y011934D01*
X013126Y011817D01*
X013062Y011663D01*
X013062Y011497D01*
X013126Y011343D01*
X013243Y011226D01*
X013397Y011162D01*
X013462Y011162D01*
X013462Y011047D01*
X013526Y010893D01*
X013643Y010776D01*
X013797Y010712D01*
X013862Y010712D01*
X013862Y010647D01*
X013926Y010493D01*
X014043Y010376D01*
X014197Y010312D01*
X014363Y010312D01*
X014517Y010376D01*
X014634Y010493D01*
X014698Y010647D01*
X014698Y010813D01*
X014634Y010967D01*
X014530Y011071D01*
X014530Y012589D01*
X014593Y012526D01*
X014747Y012462D01*
X014913Y012462D01*
X015067Y012526D01*
X015171Y012630D01*
X017280Y012630D01*
X017372Y012668D01*
X018842Y014138D01*
X018880Y014230D01*
X018880Y015880D01*
X018842Y015972D01*
X018772Y016042D01*
X018630Y016184D01*
X018630Y019380D01*
X018592Y019472D01*
X018522Y019542D01*
X017580Y020484D01*
X017580Y021439D01*
X017684Y021543D01*
X017748Y021697D01*
X017748Y021863D01*
X017684Y022017D01*
X017567Y022134D01*
X017413Y022198D01*
X017248Y022198D01*
X017248Y022263D01*
X017184Y022417D01*
X017067Y022534D01*
X016913Y022598D01*
X016747Y022598D01*
X016593Y022534D01*
X016476Y022417D01*
X016412Y022263D01*
X016412Y022097D01*
X016476Y021943D01*
X016580Y021839D01*
X016580Y021580D01*
X016618Y021488D01*
X016830Y021276D01*
X016830Y020280D01*
X016868Y020188D01*
X016938Y020118D01*
X017880Y019176D01*
X017880Y015930D01*
X017918Y015838D01*
X018130Y015626D01*
X018130Y014996D01*
X018107Y015019D01*
X017960Y015080D01*
X017800Y015080D01*
X017653Y015019D01*
X017541Y014907D01*
X017480Y014760D01*
X017480Y014600D01*
X017541Y014453D01*
X017620Y014374D01*
X017620Y014288D01*
X017472Y014140D01*
X016436Y014140D01*
X016357Y014219D01*
X016210Y014280D01*
X016050Y014280D01*
X015903Y014219D01*
X015791Y014107D01*
X015730Y013960D01*
X015730Y013800D01*
X015791Y013653D01*
X015903Y013541D01*
X016050Y013480D01*
X016210Y013480D01*
X016357Y013541D01*
X016436Y013620D01*
X017266Y013620D01*
X017076Y013430D01*
X015184Y013430D01*
X015172Y013442D01*
X015080Y013480D01*
X014580Y013480D01*
X014539Y013463D01*
X014467Y013534D01*
X014313Y013598D01*
X014147Y013598D01*
X013993Y013534D01*
X013876Y013417D01*
X013852Y013361D01*
X013580Y013634D01*
X013580Y014526D01*
X014117Y015063D01*
X014267Y015126D01*
X014384Y015243D01*
X014448Y015397D01*
X014448Y015563D01*
X014384Y015717D01*
X014267Y015834D01*
X014113Y015898D01*
X013948Y015898D01*
X013948Y016063D01*
X013884Y016217D01*
X013767Y016334D01*
X013613Y016398D01*
X013447Y016398D01*
X013293Y016334D01*
X013176Y016217D01*
X013112Y016063D01*
X013112Y015898D01*
X012997Y015898D01*
X012880Y015850D01*
X012880Y016326D01*
X014734Y018180D01*
X015680Y018180D01*
X015772Y018218D01*
X016092Y018538D01*
X016130Y018630D01*
X016130Y020164D01*
X016219Y020253D01*
X016280Y020400D01*
X016280Y020560D01*
X016219Y020707D01*
X016107Y020819D01*
X015960Y020880D01*
X015800Y020880D01*
X015653Y020819D01*
X015541Y020707D01*
X015480Y020560D01*
X015480Y020400D01*
X015541Y020253D01*
X015630Y020164D01*
X015630Y020095D01*
X015493Y020151D01*
X015304Y020151D01*
X015128Y020078D01*
X015005Y019955D01*
X014882Y020078D01*
X014706Y020151D01*
X014516Y020151D01*
X014341Y020078D01*
X014217Y019955D01*
X014094Y020078D01*
X013919Y020151D01*
X013729Y020151D01*
X013553Y020078D01*
X013419Y019944D01*
X013346Y019769D01*
X013346Y019579D01*
X013419Y019403D01*
X013542Y019280D01*
X013430Y019168D01*
X013307Y019291D01*
X013131Y019364D01*
X012941Y019364D01*
X012766Y019291D01*
X012643Y019168D01*
X012530Y019280D01*
X012654Y019403D01*
X012726Y019579D01*
X012726Y019769D01*
X012654Y019944D01*
X012527Y020070D01*
X012486Y020170D01*
X012217Y020439D01*
X012139Y020517D01*
X012036Y020560D01*
X011906Y020560D01*
X012486Y021140D01*
X012529Y021243D01*
X012529Y022303D01*
X012790Y022303D01*
X012907Y022420D01*
X012907Y023140D01*
X012790Y023257D01*
X012070Y023257D01*
X011953Y023140D01*
X011953Y022420D01*
X011969Y022403D01*
X011969Y021415D01*
X011071Y020517D01*
X010693Y020139D01*
X010650Y020036D01*
X010650Y017580D01*
X010503Y017519D01*
X010391Y017407D01*
X010330Y017260D01*
X010330Y017100D01*
X010391Y016953D01*
X010503Y016841D01*
X010650Y016780D01*
X010810Y016780D01*
X010957Y016841D01*
X011069Y016953D01*
X011130Y017100D01*
X011130Y017184D01*
X011167Y017221D01*
X011210Y017324D01*
X011210Y019261D01*
X011367Y019196D01*
X011556Y019196D01*
X011732Y019269D01*
X011855Y019392D01*
X011967Y019280D01*
X011844Y019157D01*
X011771Y018981D01*
X011771Y018791D01*
X011844Y018616D01*
X011978Y018482D01*
X012154Y018409D01*
X012344Y018409D01*
X012519Y018482D01*
X012643Y018605D01*
X012766Y018482D01*
X012941Y018409D01*
X013131Y018409D01*
X013307Y018482D01*
X013430Y018605D01*
X013553Y018482D01*
X013729Y018409D01*
X013919Y018409D01*
X014094Y018482D01*
X014217Y018605D01*
X014334Y018488D01*
X012418Y016572D01*
X012380Y016480D01*
X012380Y013984D01*
X012348Y014015D01*
X012348Y014163D01*
X012284Y014317D01*
X012167Y014434D01*
X012013Y014498D01*
X011847Y014498D01*
X011798Y014478D01*
X011798Y014513D01*
X011734Y014667D01*
X011617Y014784D01*
X011463Y014848D01*
X011297Y014848D01*
X011143Y014784D01*
X011026Y014667D01*
X010962Y014513D01*
X010962Y014347D01*
X011026Y014193D01*
X011130Y014089D01*
X011130Y013930D01*
X011168Y013838D01*
X011238Y013768D01*
X011880Y013126D01*
X011880Y010484D01*
X011868Y010472D01*
X011830Y010380D01*
X011830Y008421D01*
X011726Y008317D01*
X011662Y008163D01*
X011662Y007997D01*
X011726Y007843D01*
X011843Y007726D01*
X011997Y007662D01*
X012163Y007662D01*
X012317Y007726D01*
X012434Y007843D01*
X012483Y007962D02*
X013895Y007962D01*
X013736Y008120D02*
X012498Y008120D01*
X012450Y008279D02*
X013578Y008279D01*
X013419Y008437D02*
X012330Y008437D01*
X012330Y008596D02*
X013261Y008596D01*
X013102Y008754D02*
X012330Y008754D01*
X012330Y008913D02*
X012944Y008913D01*
X012785Y009071D02*
X012330Y009071D01*
X012330Y009230D02*
X012627Y009230D01*
X012468Y009388D02*
X012330Y009388D01*
X011830Y009388D02*
X010310Y009388D01*
X010310Y009230D02*
X011830Y009230D01*
X011830Y009071D02*
X010310Y009071D01*
X010310Y008913D02*
X011830Y008913D01*
X011830Y008754D02*
X010310Y008754D01*
X010310Y008596D02*
X011830Y008596D01*
X011830Y008437D02*
X010310Y008437D01*
X010310Y008279D02*
X011710Y008279D01*
X011662Y008120D02*
X010310Y008120D01*
X010310Y007962D02*
X011677Y007962D01*
X011766Y007803D02*
X010310Y007803D01*
X010319Y007645D02*
X014212Y007645D01*
X014416Y007486D02*
X010478Y007486D01*
X010636Y007328D02*
X017709Y007328D01*
X017951Y007328D02*
X022682Y007328D01*
X022840Y007486D02*
X018177Y007486D01*
X018247Y007645D02*
X022999Y007645D01*
X023157Y007803D02*
X018248Y007803D01*
X018187Y007962D02*
X023316Y007962D01*
X023474Y008120D02*
X017981Y008120D01*
X017679Y008120D02*
X014444Y008120D01*
X014285Y008279D02*
X015990Y008279D01*
X015993Y008276D02*
X016147Y008212D01*
X016313Y008212D01*
X016467Y008276D01*
X016571Y008380D01*
X016639Y008380D01*
X016743Y008276D01*
X016897Y008212D01*
X017063Y008212D01*
X017217Y008276D01*
X017334Y008393D01*
X017398Y008547D01*
X017398Y008713D01*
X017334Y008867D01*
X017217Y008984D01*
X017063Y009048D01*
X016897Y009048D01*
X016743Y008984D01*
X016639Y008880D01*
X016571Y008880D01*
X016467Y008984D01*
X016313Y009048D01*
X016147Y009048D01*
X015993Y008984D01*
X015876Y008867D01*
X015812Y008713D01*
X015812Y008547D01*
X015876Y008393D01*
X015993Y008276D01*
X015857Y008437D02*
X014127Y008437D01*
X013968Y008596D02*
X015812Y008596D01*
X015829Y008754D02*
X013810Y008754D01*
X013651Y008913D02*
X015921Y008913D01*
X016539Y008913D02*
X016671Y008913D01*
X017113Y009230D02*
X013334Y009230D01*
X013176Y009388D02*
X016954Y009388D01*
X016796Y009547D02*
X013017Y009547D01*
X012996Y009705D02*
X016637Y009705D01*
X016479Y009864D02*
X013114Y009864D01*
X013148Y010022D02*
X016320Y010022D01*
X016162Y010181D02*
X013120Y010181D01*
X013012Y010339D02*
X014131Y010339D01*
X013924Y010498D02*
X012880Y010498D01*
X012880Y010656D02*
X013862Y010656D01*
X013604Y010815D02*
X012880Y010815D01*
X012880Y010973D02*
X013492Y010973D01*
X013462Y011132D02*
X012880Y011132D01*
X012880Y011290D02*
X013179Y011290D01*
X013082Y011449D02*
X012880Y011449D01*
X012880Y011607D02*
X013062Y011607D01*
X013104Y011766D02*
X012880Y011766D01*
X012880Y011924D02*
X013233Y011924D01*
X013530Y012083D02*
X012880Y012083D01*
X012880Y012241D02*
X013530Y012241D01*
X013507Y012400D02*
X012880Y012400D01*
X012880Y012558D02*
X013348Y012558D01*
X013190Y012717D02*
X012880Y012717D01*
X012880Y012875D02*
X013031Y012875D01*
X013705Y013509D02*
X013968Y013509D01*
X013580Y013668D02*
X015785Y013668D01*
X015730Y013826D02*
X013580Y013826D01*
X013580Y013985D02*
X015740Y013985D01*
X015827Y014143D02*
X013580Y014143D01*
X013580Y014302D02*
X017620Y014302D01*
X017538Y014460D02*
X013580Y014460D01*
X013672Y014619D02*
X017480Y014619D01*
X017487Y014777D02*
X013831Y014777D01*
X013989Y014936D02*
X017009Y014936D01*
X017053Y014891D02*
X017200Y014830D01*
X017360Y014830D01*
X017507Y014891D01*
X017619Y015003D01*
X017680Y015150D01*
X017680Y015310D01*
X017619Y015457D01*
X017507Y015569D01*
X017360Y015630D01*
X017200Y015630D01*
X017082Y015581D01*
X016522Y016142D01*
X016430Y016180D01*
X016480Y016300D01*
X016480Y016460D01*
X016419Y016607D01*
X016307Y016719D01*
X016160Y016780D01*
X016000Y016780D01*
X015853Y016719D01*
X015764Y016630D01*
X015246Y016630D01*
X015157Y016719D01*
X015010Y016780D01*
X014850Y016780D01*
X014703Y016719D01*
X014591Y016607D01*
X014530Y016460D01*
X014530Y016300D01*
X014591Y016153D01*
X014703Y016041D01*
X014850Y015980D01*
X015010Y015980D01*
X015157Y016041D01*
X015246Y016130D01*
X015380Y016130D01*
X015330Y016010D01*
X015330Y015850D01*
X015391Y015703D01*
X015503Y015591D01*
X015650Y015530D01*
X015810Y015530D01*
X015957Y015591D01*
X016046Y015680D01*
X016276Y015680D01*
X016932Y015024D01*
X016941Y015003D01*
X017053Y014891D01*
X016862Y015094D02*
X014191Y015094D01*
X014388Y015253D02*
X016704Y015253D01*
X016545Y015411D02*
X014448Y015411D01*
X014445Y015570D02*
X015555Y015570D01*
X015381Y015728D02*
X014373Y015728D01*
X014141Y015887D02*
X015330Y015887D01*
X015345Y016045D02*
X015161Y016045D01*
X014699Y016045D02*
X013948Y016045D01*
X013890Y016204D02*
X014570Y016204D01*
X014530Y016362D02*
X013700Y016362D01*
X013360Y016362D02*
X012916Y016362D01*
X012880Y016204D02*
X013170Y016204D01*
X013112Y016045D02*
X012880Y016045D01*
X012880Y015887D02*
X012969Y015887D01*
X012380Y015887D02*
X009861Y015887D01*
X009835Y015950D02*
X009700Y016085D01*
X009525Y016157D01*
X009335Y016157D01*
X009160Y016085D01*
X009025Y015950D01*
X008953Y015775D01*
X008953Y015585D01*
X009025Y015410D01*
X009160Y015275D01*
X009335Y015203D01*
X009525Y015203D01*
X009700Y015275D01*
X009835Y015410D01*
X009907Y015585D01*
X009907Y015775D01*
X009835Y015950D01*
X009740Y016045D02*
X012380Y016045D01*
X012380Y016204D02*
X009527Y016204D01*
X009525Y016203D02*
X009700Y016275D01*
X009835Y016410D01*
X009907Y016585D01*
X009907Y016775D01*
X009835Y016950D01*
X009700Y017085D01*
X009525Y017157D01*
X009335Y017157D01*
X009168Y017088D01*
X008217Y018039D01*
X008139Y018117D01*
X008036Y018160D01*
X007766Y018160D01*
X007707Y018219D01*
X007560Y018280D01*
X007400Y018280D01*
X007253Y018219D01*
X007141Y018107D01*
X007080Y017960D01*
X007080Y017876D01*
X005493Y016289D01*
X005450Y016186D01*
X005450Y015516D01*
X005391Y015457D01*
X005330Y015310D01*
X005330Y015150D01*
X005391Y015003D01*
X005503Y014891D01*
X005650Y014830D01*
X005810Y014830D01*
X005957Y014891D01*
X006069Y015003D01*
X006130Y015150D01*
X006130Y015310D01*
X006069Y015457D01*
X006010Y015516D01*
X006010Y016014D01*
X007476Y017480D01*
X007560Y017480D01*
X007707Y017541D01*
X007766Y017600D01*
X007864Y017600D01*
X008943Y016521D01*
X009005Y016460D01*
X009025Y016410D01*
X009160Y016275D01*
X009335Y016203D01*
X009525Y016203D01*
X009333Y016204D02*
X008410Y016204D01*
X008410Y016294D02*
X008410Y015966D01*
X008469Y015907D01*
X008530Y015760D01*
X008530Y015600D01*
X008469Y015453D01*
X008411Y015395D01*
X008411Y015385D01*
X008411Y015384D01*
X008411Y015329D01*
X008412Y015274D01*
X008411Y015273D01*
X008411Y015067D01*
X008470Y015008D01*
X008531Y014861D01*
X008531Y014702D01*
X008470Y014555D01*
X008358Y014442D01*
X008211Y014381D01*
X008052Y014381D01*
X007905Y014442D01*
X007792Y014555D01*
X007731Y014702D01*
X007731Y014861D01*
X007792Y015008D01*
X007851Y015067D01*
X007851Y015328D01*
X007851Y015393D01*
X007791Y015453D01*
X007730Y015600D01*
X007730Y015760D01*
X007791Y015907D01*
X007850Y015966D01*
X007850Y016294D01*
X007791Y016353D01*
X007730Y016500D01*
X007730Y016660D01*
X007791Y016807D01*
X007903Y016919D01*
X008050Y016980D01*
X008210Y016980D01*
X008357Y016919D01*
X008469Y016807D01*
X008530Y016660D01*
X008530Y016500D01*
X008469Y016353D01*
X008410Y016294D01*
X008473Y016362D02*
X009073Y016362D01*
X008943Y016521D02*
X008530Y016521D01*
X008522Y016679D02*
X008785Y016679D01*
X008626Y016838D02*
X008438Y016838D01*
X008468Y016996D02*
X006992Y016996D01*
X006834Y016838D02*
X007822Y016838D01*
X007738Y016679D02*
X006675Y016679D01*
X006517Y016521D02*
X007730Y016521D01*
X007787Y016362D02*
X006358Y016362D01*
X006200Y016204D02*
X007850Y016204D01*
X007850Y016045D02*
X006041Y016045D01*
X006010Y015887D02*
X007783Y015887D01*
X007730Y015728D02*
X006010Y015728D01*
X006010Y015570D02*
X007743Y015570D01*
X007833Y015411D02*
X006088Y015411D01*
X006130Y015253D02*
X007851Y015253D01*
X007851Y015094D02*
X006107Y015094D01*
X006001Y014936D02*
X007762Y014936D01*
X007731Y014777D02*
X004710Y014777D01*
X004710Y014886D02*
X004667Y014989D01*
X003360Y016296D01*
X003360Y017264D01*
X004461Y018365D01*
X004653Y018253D01*
X004813Y018296D01*
X005174Y018920D01*
X005131Y019080D01*
X004507Y019441D01*
X004347Y019398D01*
X003986Y018774D01*
X004006Y018702D01*
X002843Y017539D01*
X002800Y017436D01*
X002800Y016124D01*
X002843Y016021D01*
X002921Y015943D01*
X004150Y014714D01*
X004150Y014632D01*
X004108Y014733D01*
X003883Y014958D01*
X003589Y015080D01*
X003271Y015080D01*
X002977Y014958D01*
X002752Y014733D01*
X002633Y014447D01*
X002633Y020085D01*
X002932Y020613D01*
X003678Y021709D01*
X004537Y022719D01*
X005500Y023630D01*
X006557Y024432D01*
X007693Y025115D01*
X008897Y025671D01*
X010154Y026094D01*
X011449Y026379D01*
X012767Y026522D01*
X014093Y026522D01*
X015411Y026379D01*
X016706Y026094D01*
X017963Y025671D01*
X018528Y025410D01*
X012224Y025410D01*
X012121Y025367D01*
X012043Y025289D01*
X011511Y024757D01*
X011070Y024757D01*
X010953Y024640D01*
X010953Y023920D01*
X011070Y023803D01*
X011790Y023803D01*
X011907Y023920D01*
X011907Y024361D01*
X011975Y024429D01*
X011953Y024375D01*
X011953Y024185D01*
X012025Y024010D01*
X012160Y023875D01*
X012335Y023803D01*
X012525Y023803D01*
X012700Y023875D01*
X012835Y024010D01*
X012907Y024185D01*
X012907Y024375D01*
X012835Y024550D01*
X012700Y024685D01*
X012525Y024757D01*
X012335Y024757D01*
X012281Y024735D01*
X012396Y024850D01*
X014604Y024850D01*
X014511Y024757D01*
X014070Y024757D01*
X013953Y024640D01*
X013953Y023920D01*
X014070Y023803D01*
X014790Y023803D01*
X014907Y023920D01*
X014907Y024361D01*
X014975Y024429D01*
X014953Y024375D01*
X014953Y024185D01*
X015025Y024010D01*
X015160Y023875D01*
X015335Y023803D01*
X015525Y023803D01*
X015700Y023875D01*
X015835Y024010D01*
X015907Y024185D01*
X015907Y024375D01*
X015835Y024550D01*
X015700Y024685D01*
X015525Y024757D01*
X015335Y024757D01*
X015281Y024735D01*
X015396Y024850D01*
X019014Y024850D01*
X020393Y023471D01*
X020394Y023469D01*
X020433Y023431D01*
X020471Y023393D01*
X020472Y023392D01*
X020584Y023283D01*
X020861Y023007D01*
X019784Y021930D01*
X019700Y021930D01*
X019553Y021869D01*
X019441Y021757D01*
X019380Y021610D01*
X019380Y021450D01*
X019441Y021303D01*
X019553Y021191D01*
X019700Y021130D01*
X019860Y021130D01*
X020007Y021191D01*
X020119Y021303D01*
X020180Y021450D01*
X020180Y021534D01*
X021259Y022613D01*
X023500Y020413D01*
X023500Y020006D01*
X022203Y019987D01*
X022050Y020252D01*
X021890Y020295D01*
X021266Y019935D01*
X021223Y019775D01*
X021584Y019151D01*
X021744Y019108D01*
X022299Y019428D01*
X023500Y019446D01*
X023500Y016196D01*
X022321Y015017D01*
X022243Y014939D01*
X022200Y014836D01*
X022200Y013724D01*
X022243Y013621D01*
X023500Y012364D01*
X023500Y009966D01*
X022768Y009982D01*
X022207Y010307D01*
X022047Y010264D01*
X021686Y009640D01*
X021729Y009480D01*
X022353Y009119D01*
X022513Y009162D01*
X022665Y009424D01*
X023500Y009406D01*
X023500Y008146D01*
X019164Y003810D01*
X014298Y003810D01*
X014407Y003920D01*
X014407Y004640D01*
X014290Y004757D01*
X013570Y004757D01*
X013453Y004640D01*
X013453Y003920D01*
X013562Y003810D01*
X013043Y003810D01*
X013200Y003875D01*
X013335Y004010D01*
X013407Y004185D01*
X013407Y004375D01*
X013335Y004550D01*
X013200Y004685D01*
X013025Y004757D01*
X012835Y004757D01*
X012660Y004685D01*
X012525Y004550D01*
X012453Y004375D01*
X012453Y004185D01*
X012525Y004010D01*
X012660Y003875D01*
X012817Y003810D01*
X007746Y003810D01*
X003683Y007873D01*
X004788Y008398D01*
X004847Y008296D01*
X005007Y008253D01*
X005631Y008614D01*
X005674Y008774D01*
X005313Y009398D01*
X005153Y009441D01*
X004529Y009080D01*
X004486Y008920D01*
X004507Y008884D01*
X003360Y008339D01*
X003360Y012264D01*
X004589Y013493D01*
X004667Y013571D01*
X004710Y013674D01*
X004710Y014886D01*
X004689Y014936D02*
X005459Y014936D01*
X005353Y015094D02*
X004562Y015094D01*
X004403Y015253D02*
X005330Y015253D01*
X005372Y015411D02*
X004245Y015411D01*
X004086Y015570D02*
X005450Y015570D01*
X005450Y015728D02*
X003928Y015728D01*
X003769Y015887D02*
X005450Y015887D01*
X005450Y016045D02*
X003611Y016045D01*
X003452Y016204D02*
X005457Y016204D01*
X005566Y016362D02*
X003360Y016362D01*
X003360Y016521D02*
X005725Y016521D01*
X005883Y016679D02*
X003360Y016679D01*
X003360Y016838D02*
X006042Y016838D01*
X006200Y016996D02*
X003360Y016996D01*
X003360Y017155D02*
X006359Y017155D01*
X006517Y017313D02*
X003409Y017313D01*
X003568Y017472D02*
X006676Y017472D01*
X006834Y017630D02*
X005940Y017630D01*
X005915Y017620D02*
X006090Y017692D01*
X006225Y017827D01*
X006297Y018002D01*
X006297Y018192D01*
X006225Y018367D01*
X006090Y018502D01*
X005915Y018574D01*
X005725Y018574D01*
X005550Y018502D01*
X005415Y018367D01*
X005343Y018192D01*
X005343Y018002D01*
X005415Y017827D01*
X005550Y017692D01*
X005725Y017620D01*
X005915Y017620D01*
X005700Y017630D02*
X003726Y017630D01*
X003885Y017789D02*
X005453Y017789D01*
X005365Y017947D02*
X004043Y017947D01*
X004202Y018106D02*
X005343Y018106D01*
X005372Y018264D02*
X004693Y018264D01*
X004635Y018264D02*
X004360Y018264D01*
X003885Y018581D02*
X002633Y018581D01*
X002633Y018423D02*
X003727Y018423D01*
X003568Y018264D02*
X002633Y018264D01*
X002633Y018106D02*
X003410Y018106D01*
X003251Y017947D02*
X002633Y017947D01*
X002633Y017789D02*
X003093Y017789D01*
X002934Y017630D02*
X002633Y017630D01*
X002633Y017472D02*
X002815Y017472D01*
X002800Y017313D02*
X002633Y017313D01*
X002633Y017155D02*
X002800Y017155D01*
X002800Y016996D02*
X002633Y016996D01*
X002633Y016838D02*
X002800Y016838D01*
X002800Y016679D02*
X002633Y016679D01*
X002633Y016521D02*
X002800Y016521D01*
X002800Y016362D02*
X002633Y016362D01*
X002633Y016204D02*
X002800Y016204D01*
X002833Y016045D02*
X002633Y016045D01*
X002633Y015887D02*
X002977Y015887D01*
X003136Y015728D02*
X002633Y015728D01*
X002633Y015570D02*
X003294Y015570D01*
X003453Y015411D02*
X002633Y015411D01*
X002633Y015253D02*
X003611Y015253D01*
X003770Y015094D02*
X002633Y015094D01*
X002633Y014936D02*
X002954Y014936D01*
X002796Y014777D02*
X002633Y014777D01*
X002633Y014619D02*
X002704Y014619D01*
X002639Y014460D02*
X002633Y014460D01*
X003906Y014936D02*
X003928Y014936D01*
X004064Y014777D02*
X004087Y014777D01*
X004430Y014830D02*
X003080Y016180D01*
X003080Y017380D01*
X004547Y018847D01*
X004150Y019057D02*
X002633Y019057D01*
X002633Y019215D02*
X004241Y019215D01*
X004333Y019374D02*
X002633Y019374D01*
X002633Y019532D02*
X004638Y019532D01*
X004603Y019618D02*
X004675Y019443D01*
X004810Y019308D01*
X004985Y019236D01*
X005175Y019236D01*
X005350Y019308D01*
X005485Y019443D01*
X005557Y019618D01*
X005557Y019808D01*
X005485Y019983D01*
X005350Y020118D01*
X005175Y020190D01*
X004985Y020190D01*
X004810Y020118D01*
X004675Y019983D01*
X004603Y019808D01*
X004603Y019618D01*
X004603Y019691D02*
X002633Y019691D01*
X002633Y019849D02*
X004620Y019849D01*
X004699Y020008D02*
X002633Y020008D01*
X002679Y020166D02*
X004926Y020166D01*
X005234Y020166D02*
X007200Y020166D01*
X007203Y020169D02*
X007091Y020057D01*
X007030Y019910D01*
X007030Y019750D01*
X007091Y019603D01*
X007203Y019491D01*
X007350Y019430D01*
X007476Y019430D01*
X008030Y018876D01*
X008030Y018750D01*
X008091Y018603D01*
X008203Y018491D01*
X008350Y018430D01*
X008510Y018430D01*
X008657Y018491D01*
X008769Y018603D01*
X008830Y018750D01*
X008830Y018910D01*
X008769Y019057D01*
X008657Y019169D01*
X008510Y019230D01*
X008384Y019230D01*
X007830Y019784D01*
X007830Y019910D01*
X007769Y020057D01*
X007657Y020169D01*
X007510Y020230D01*
X007350Y020230D01*
X007203Y020169D01*
X007071Y020008D02*
X005461Y020008D01*
X005540Y019849D02*
X007030Y019849D01*
X007055Y019691D02*
X005557Y019691D01*
X005522Y019532D02*
X006155Y019532D01*
X006087Y019514D02*
X005726Y018890D01*
X005769Y018730D01*
X006393Y018369D01*
X006553Y018412D01*
X006914Y019036D01*
X006871Y019196D01*
X006247Y019557D01*
X006087Y019514D01*
X006006Y019374D02*
X005416Y019374D01*
X005137Y019057D02*
X005823Y019057D01*
X005914Y019215D02*
X004897Y019215D01*
X004744Y019374D02*
X004623Y019374D01*
X005161Y018898D02*
X005731Y018898D01*
X005767Y018740D02*
X005069Y018740D01*
X004978Y018581D02*
X006027Y018581D01*
X006170Y018423D02*
X006301Y018423D01*
X006268Y018264D02*
X007362Y018264D01*
X007598Y018264D02*
X010650Y018264D01*
X010650Y018106D02*
X009650Y018106D01*
X009700Y018085D02*
X009525Y018157D01*
X009335Y018157D01*
X009160Y018085D01*
X009025Y017950D01*
X008953Y017775D01*
X008953Y017585D01*
X009025Y017410D01*
X009160Y017275D01*
X009335Y017203D01*
X009525Y017203D01*
X009700Y017275D01*
X009835Y017410D01*
X009907Y017585D01*
X009907Y017775D01*
X009835Y017950D01*
X009700Y018085D01*
X009836Y017947D02*
X010650Y017947D01*
X010650Y017789D02*
X009902Y017789D01*
X009907Y017630D02*
X010650Y017630D01*
X010456Y017472D02*
X009860Y017472D01*
X009738Y017313D02*
X010352Y017313D01*
X010330Y017155D02*
X009532Y017155D01*
X009328Y017155D02*
X009101Y017155D01*
X009122Y017313D02*
X008943Y017313D01*
X009000Y017472D02*
X008784Y017472D01*
X008626Y017630D02*
X008953Y017630D01*
X008958Y017789D02*
X008467Y017789D01*
X008309Y017947D02*
X009024Y017947D01*
X009210Y018106D02*
X008150Y018106D01*
X007980Y017880D02*
X007480Y017880D01*
X005730Y016130D01*
X005730Y015230D01*
X004710Y014619D02*
X007323Y014619D01*
X007350Y014630D02*
X007203Y014569D01*
X007091Y014457D01*
X007030Y014310D01*
X007030Y014184D01*
X006318Y013472D01*
X006280Y013380D01*
X006280Y012846D01*
X006191Y012757D01*
X006130Y012610D01*
X006130Y012450D01*
X006191Y012303D01*
X006303Y012191D01*
X006450Y012130D01*
X006610Y012130D01*
X006757Y012191D01*
X006869Y012303D01*
X006930Y012450D01*
X006930Y012610D01*
X006869Y012757D01*
X006780Y012846D01*
X006780Y013226D01*
X007384Y013830D01*
X007510Y013830D01*
X007657Y013891D01*
X007769Y014003D01*
X007830Y014150D01*
X007830Y014310D01*
X007769Y014457D01*
X007657Y014569D01*
X007510Y014630D01*
X007350Y014630D01*
X007537Y014619D02*
X007766Y014619D01*
X007766Y014460D02*
X007887Y014460D01*
X007830Y014302D02*
X008871Y014302D01*
X008891Y014253D02*
X009003Y014141D01*
X009150Y014080D01*
X009276Y014080D01*
X010463Y012893D01*
X010526Y012743D01*
X010643Y012626D01*
X010797Y012562D01*
X010963Y012562D01*
X011117Y012626D01*
X011234Y012743D01*
X011298Y012897D01*
X011298Y013063D01*
X011234Y013217D01*
X011117Y013334D01*
X010963Y013398D01*
X010797Y013398D01*
X010704Y013360D01*
X009630Y014434D01*
X009630Y014560D01*
X009569Y014707D01*
X009457Y014819D01*
X009310Y014880D01*
X009150Y014880D01*
X009003Y014819D01*
X008891Y014707D01*
X008830Y014560D01*
X008830Y014400D01*
X008891Y014253D01*
X009001Y014143D02*
X007827Y014143D01*
X007750Y013985D02*
X009372Y013985D01*
X009530Y013826D02*
X007380Y013826D01*
X007221Y013668D02*
X009689Y013668D01*
X009847Y013509D02*
X007063Y013509D01*
X006904Y013351D02*
X010006Y013351D01*
X010164Y013192D02*
X006780Y013192D01*
X006780Y013034D02*
X010323Y013034D01*
X010471Y012875D02*
X006780Y012875D01*
X006886Y012717D02*
X010121Y012717D01*
X010197Y012748D02*
X010043Y012684D01*
X009926Y012567D01*
X009862Y012413D01*
X009862Y012265D01*
X008276Y010680D01*
X007321Y010680D01*
X007217Y010784D01*
X007063Y010848D01*
X006897Y010848D01*
X006743Y010784D01*
X006626Y010667D01*
X006562Y010513D01*
X006562Y010347D01*
X006626Y010193D01*
X006743Y010076D01*
X006897Y010012D01*
X007063Y010012D01*
X007217Y010076D01*
X007321Y010180D01*
X008430Y010180D01*
X008522Y010218D01*
X008592Y010288D01*
X010215Y011912D01*
X010363Y011912D01*
X010517Y011976D01*
X010634Y012093D01*
X010698Y012247D01*
X010698Y012413D01*
X010634Y012567D01*
X010517Y012684D01*
X010363Y012748D01*
X010197Y012748D01*
X010439Y012717D02*
X010552Y012717D01*
X010638Y012558D02*
X011880Y012558D01*
X011880Y012400D02*
X011452Y012400D01*
X011537Y012241D02*
X011880Y012241D01*
X011880Y012083D02*
X011548Y012083D01*
X011497Y011924D02*
X011880Y011924D01*
X011880Y011766D02*
X011343Y011766D01*
X010975Y011607D02*
X011880Y011607D01*
X011880Y011449D02*
X010816Y011449D01*
X010658Y011290D02*
X011880Y011290D01*
X011880Y011132D02*
X010499Y011132D01*
X010341Y010973D02*
X011880Y010973D01*
X011880Y010815D02*
X010320Y010815D01*
X010378Y010656D02*
X011079Y010656D01*
X011041Y010618D02*
X010977Y010464D01*
X010977Y010296D01*
X011041Y010142D01*
X011159Y010024D01*
X011313Y009960D01*
X011481Y009960D01*
X011635Y010024D01*
X011753Y010142D01*
X011817Y010296D01*
X011817Y010464D01*
X011753Y010618D01*
X011635Y010736D01*
X011481Y010800D01*
X011313Y010800D01*
X011159Y010736D01*
X011041Y010618D01*
X010991Y010498D02*
X010466Y010498D01*
X010480Y010339D02*
X010977Y010339D01*
X011025Y010181D02*
X010432Y010181D01*
X010310Y010022D02*
X011164Y010022D01*
X011630Y010022D02*
X011830Y010022D01*
X011830Y009864D02*
X010310Y009864D01*
X010310Y009705D02*
X011830Y009705D01*
X011830Y009547D02*
X010310Y009547D01*
X009810Y009547D02*
X008850Y009547D01*
X008772Y009468D02*
X009015Y009712D01*
X009163Y009712D01*
X009317Y009776D01*
X009434Y009893D01*
X009498Y010047D01*
X009498Y010213D01*
X009434Y010367D01*
X009317Y010484D01*
X009163Y010548D01*
X008997Y010548D01*
X008843Y010484D01*
X008726Y010367D01*
X008662Y010213D01*
X008662Y010065D01*
X008526Y009930D01*
X007821Y009930D01*
X007717Y010034D01*
X007563Y010098D01*
X007397Y010098D01*
X007243Y010034D01*
X007126Y009917D01*
X007062Y009763D01*
X007062Y009597D01*
X007126Y009443D01*
X007243Y009326D01*
X007397Y009262D01*
X007563Y009262D01*
X007717Y009326D01*
X007821Y009430D01*
X008680Y009430D01*
X008772Y009468D01*
X009009Y009705D02*
X009810Y009705D01*
X009810Y009864D02*
X009405Y009864D01*
X009488Y010022D02*
X009810Y010022D01*
X009688Y010181D02*
X009498Y010181D01*
X009446Y010339D02*
X009640Y010339D01*
X009654Y010498D02*
X009285Y010498D01*
X009118Y010815D02*
X009800Y010815D01*
X009800Y010973D02*
X009277Y010973D01*
X009435Y011132D02*
X009808Y011132D01*
X009922Y011290D02*
X009594Y011290D01*
X009752Y011449D02*
X010081Y011449D01*
X010239Y011607D02*
X009911Y011607D01*
X010069Y011766D02*
X010398Y011766D01*
X010392Y011924D02*
X010556Y011924D01*
X010624Y012083D02*
X010712Y012083D01*
X010696Y012241D02*
X010723Y012241D01*
X010698Y012400D02*
X010808Y012400D01*
X011208Y012717D02*
X011880Y012717D01*
X011880Y012875D02*
X011289Y012875D01*
X011298Y013034D02*
X011880Y013034D01*
X011814Y013192D02*
X011245Y013192D01*
X011078Y013351D02*
X011656Y013351D01*
X011497Y013509D02*
X010555Y013509D01*
X010396Y013668D02*
X011339Y013668D01*
X011180Y013826D02*
X010238Y013826D01*
X010079Y013985D02*
X011130Y013985D01*
X011076Y014143D02*
X009921Y014143D01*
X009762Y014302D02*
X010981Y014302D01*
X010962Y014460D02*
X009630Y014460D01*
X009606Y014619D02*
X011006Y014619D01*
X011136Y014777D02*
X009499Y014777D01*
X009646Y015253D02*
X012380Y015253D01*
X012380Y015411D02*
X009835Y015411D01*
X009901Y015570D02*
X012380Y015570D01*
X012380Y015728D02*
X009907Y015728D01*
X009787Y016362D02*
X012380Y016362D01*
X012397Y016521D02*
X009881Y016521D01*
X009907Y016679D02*
X012525Y016679D01*
X012684Y016838D02*
X010948Y016838D01*
X011087Y016996D02*
X012842Y016996D01*
X013001Y017155D02*
X011130Y017155D01*
X011205Y017313D02*
X013159Y017313D01*
X013318Y017472D02*
X011210Y017472D01*
X011210Y017630D02*
X013476Y017630D01*
X013635Y017789D02*
X011210Y017789D01*
X011210Y017947D02*
X013793Y017947D01*
X013952Y018106D02*
X011210Y018106D01*
X011210Y018264D02*
X014110Y018264D01*
X013952Y018423D02*
X014269Y018423D01*
X014241Y018581D02*
X014194Y018581D01*
X013696Y018423D02*
X013164Y018423D01*
X012908Y018423D02*
X012377Y018423D01*
X012121Y018423D02*
X011210Y018423D01*
X011210Y018581D02*
X011879Y018581D01*
X011793Y018740D02*
X011210Y018740D01*
X011210Y018898D02*
X011771Y018898D01*
X011803Y019057D02*
X011210Y019057D01*
X011210Y019215D02*
X011321Y019215D01*
X011602Y019215D02*
X011902Y019215D01*
X011874Y019374D02*
X011837Y019374D01*
X012249Y019674D02*
X012249Y020011D01*
X011980Y020280D01*
X011230Y020280D01*
X012249Y021299D01*
X012249Y022599D01*
X012430Y022780D01*
X012870Y023178D02*
X014152Y023178D01*
X014160Y023185D02*
X014025Y023050D01*
X013953Y022875D01*
X013953Y022685D01*
X014025Y022510D01*
X014160Y022375D01*
X014335Y022303D01*
X014525Y022303D01*
X014700Y022375D01*
X014835Y022510D01*
X014907Y022685D01*
X014907Y022875D01*
X014835Y023050D01*
X014700Y023185D01*
X014525Y023257D01*
X014335Y023257D01*
X014160Y023185D01*
X014012Y023019D02*
X012907Y023019D01*
X012907Y022861D02*
X013953Y022861D01*
X013953Y022702D02*
X012907Y022702D01*
X012907Y022544D02*
X014011Y022544D01*
X014150Y022385D02*
X012873Y022385D01*
X013160Y022185D02*
X013025Y022050D01*
X012953Y021875D01*
X012953Y021685D01*
X013025Y021510D01*
X013160Y021375D01*
X013335Y021303D01*
X013525Y021303D01*
X013700Y021375D01*
X013835Y021510D01*
X013907Y021685D01*
X013907Y021875D01*
X013835Y022050D01*
X013700Y022185D01*
X013525Y022257D01*
X013335Y022257D01*
X013160Y022185D01*
X013260Y022227D02*
X012529Y022227D01*
X012529Y022068D02*
X013043Y022068D01*
X012967Y021910D02*
X012529Y021910D01*
X012529Y021751D02*
X012953Y021751D01*
X012991Y021593D02*
X012529Y021593D01*
X012529Y021434D02*
X013101Y021434D01*
X012529Y021276D02*
X016830Y021276D01*
X016830Y021117D02*
X012463Y021117D01*
X012305Y020959D02*
X016830Y020959D01*
X016830Y020800D02*
X016126Y020800D01*
X016246Y020642D02*
X016830Y020642D01*
X016830Y020483D02*
X016280Y020483D01*
X016249Y020325D02*
X016830Y020325D01*
X016890Y020166D02*
X016132Y020166D01*
X016130Y020008D02*
X017049Y020008D01*
X017207Y019849D02*
X016130Y019849D01*
X016130Y019691D02*
X017366Y019691D01*
X017524Y019532D02*
X016130Y019532D01*
X016130Y019374D02*
X017683Y019374D01*
X017841Y019215D02*
X016130Y019215D01*
X016130Y019057D02*
X017880Y019057D01*
X017880Y018898D02*
X016130Y018898D01*
X016130Y018740D02*
X017880Y018740D01*
X017880Y018581D02*
X016110Y018581D01*
X015976Y018423D02*
X017880Y018423D01*
X017880Y018264D02*
X015818Y018264D01*
X014659Y018106D02*
X017880Y018106D01*
X017880Y017947D02*
X014501Y017947D01*
X014342Y017789D02*
X017880Y017789D01*
X017880Y017630D02*
X014184Y017630D01*
X014025Y017472D02*
X017880Y017472D01*
X017880Y017313D02*
X013867Y017313D01*
X013708Y017155D02*
X017880Y017155D01*
X017880Y016996D02*
X013550Y016996D01*
X013391Y016838D02*
X017880Y016838D01*
X017880Y016679D02*
X016347Y016679D01*
X016455Y016521D02*
X017880Y016521D01*
X017880Y016362D02*
X016480Y016362D01*
X016440Y016204D02*
X017880Y016204D01*
X017880Y016045D02*
X016619Y016045D01*
X016777Y015887D02*
X017898Y015887D01*
X018028Y015728D02*
X016936Y015728D01*
X016387Y015570D02*
X015905Y015570D01*
X015813Y016679D02*
X015197Y016679D01*
X014663Y016679D02*
X013233Y016679D01*
X013074Y016521D02*
X014555Y016521D01*
X013454Y018581D02*
X013406Y018581D01*
X013383Y019215D02*
X013477Y019215D01*
X013449Y019374D02*
X012624Y019374D01*
X012595Y019215D02*
X012690Y019215D01*
X012707Y019532D02*
X013366Y019532D01*
X013346Y019691D02*
X012726Y019691D01*
X012693Y019849D02*
X013380Y019849D01*
X013482Y020008D02*
X012590Y020008D01*
X012488Y020166D02*
X015628Y020166D01*
X015511Y020325D02*
X012331Y020325D01*
X012173Y020483D02*
X015480Y020483D01*
X015514Y020642D02*
X011988Y020642D01*
X012146Y020800D02*
X015634Y020800D01*
X015057Y020008D02*
X014953Y020008D01*
X014270Y020008D02*
X014165Y020008D01*
X013759Y021434D02*
X016672Y021434D01*
X016580Y021593D02*
X013869Y021593D01*
X013907Y021751D02*
X016580Y021751D01*
X016509Y021910D02*
X013893Y021910D01*
X013817Y022068D02*
X016424Y022068D01*
X016412Y022227D02*
X013600Y022227D01*
X014710Y022385D02*
X014987Y022385D01*
X014953Y022420D02*
X015070Y022303D01*
X015790Y022303D01*
X015907Y022420D01*
X015907Y023140D01*
X015790Y023257D01*
X015070Y023257D01*
X014953Y023140D01*
X014953Y022420D01*
X014953Y022544D02*
X014849Y022544D01*
X014907Y022702D02*
X014953Y022702D01*
X014953Y022861D02*
X014907Y022861D01*
X014953Y023019D02*
X014848Y023019D01*
X014708Y023178D02*
X014990Y023178D01*
X014799Y023812D02*
X015313Y023812D01*
X015547Y023812D02*
X020052Y023812D01*
X019894Y023970D02*
X015795Y023970D01*
X015884Y024129D02*
X019735Y024129D01*
X019577Y024287D02*
X015907Y024287D01*
X015878Y024446D02*
X019418Y024446D01*
X019260Y024604D02*
X015781Y024604D01*
X015309Y024763D02*
X019101Y024763D01*
X019130Y025130D02*
X020630Y023630D01*
X020781Y023482D01*
X021283Y022983D01*
X023780Y020530D01*
X023780Y019730D01*
X021817Y019701D01*
X022192Y020008D02*
X023500Y020008D01*
X023500Y020166D02*
X022100Y020166D01*
X021667Y020166D02*
X021374Y020166D01*
X021369Y020153D02*
X021430Y020300D01*
X021430Y020460D01*
X021369Y020607D01*
X021257Y020719D01*
X021110Y020780D01*
X020950Y020780D01*
X020803Y020719D01*
X020691Y020607D01*
X020630Y020460D01*
X020630Y020334D01*
X019768Y019472D01*
X019730Y019380D01*
X019730Y017980D01*
X019768Y017888D01*
X020430Y017226D01*
X020430Y016971D01*
X020326Y016867D01*
X020262Y016713D01*
X020262Y016547D01*
X020326Y016393D01*
X020443Y016276D01*
X020597Y016212D01*
X020763Y016212D01*
X020917Y016276D01*
X021034Y016393D01*
X021098Y016547D01*
X021098Y016713D01*
X021034Y016867D01*
X020930Y016971D01*
X020930Y017280D01*
X020930Y017380D01*
X020892Y017472D01*
X020230Y018134D01*
X020230Y018629D01*
X020296Y018563D01*
X020471Y018490D01*
X020661Y018490D01*
X020837Y018563D01*
X020971Y018697D01*
X021044Y018873D01*
X021044Y019063D01*
X020971Y019238D01*
X020837Y019372D01*
X020661Y019445D01*
X020471Y019445D01*
X020433Y019429D01*
X020984Y019980D01*
X021110Y019980D01*
X021257Y020041D01*
X021369Y020153D01*
X021392Y020008D02*
X021176Y020008D01*
X021243Y019849D02*
X020853Y019849D01*
X020694Y019691D02*
X021272Y019691D01*
X021363Y019532D02*
X020536Y019532D01*
X020145Y019849D02*
X019595Y019849D01*
X019460Y019714D02*
X019776Y020030D01*
X019860Y020030D01*
X020007Y020091D01*
X020119Y020203D01*
X020180Y020350D01*
X020180Y020510D01*
X020119Y020657D01*
X020007Y020769D01*
X019860Y020830D01*
X019700Y020830D01*
X019553Y020769D01*
X019441Y020657D01*
X019380Y020510D01*
X019380Y020426D01*
X019021Y020067D01*
X018943Y019989D01*
X018900Y019886D01*
X018900Y016866D01*
X018841Y016807D01*
X018780Y016660D01*
X018780Y016500D01*
X018841Y016353D01*
X018953Y016241D01*
X019100Y016180D01*
X019260Y016180D01*
X019407Y016241D01*
X019519Y016353D01*
X019580Y016500D01*
X019580Y016660D01*
X019519Y016807D01*
X019460Y016866D01*
X019460Y019714D01*
X019460Y019691D02*
X019987Y019691D01*
X019828Y019532D02*
X019460Y019532D01*
X019460Y019374D02*
X019730Y019374D01*
X019730Y019215D02*
X019460Y019215D01*
X019460Y019057D02*
X019730Y019057D01*
X019730Y018898D02*
X019460Y018898D01*
X019460Y018740D02*
X019730Y018740D01*
X019730Y018581D02*
X019460Y018581D01*
X019460Y018423D02*
X019730Y018423D01*
X019730Y018264D02*
X019460Y018264D01*
X019460Y018106D02*
X019730Y018106D01*
X019744Y017947D02*
X019460Y017947D01*
X019460Y017789D02*
X019868Y017789D01*
X020026Y017630D02*
X019460Y017630D01*
X019460Y017472D02*
X020185Y017472D01*
X020343Y017313D02*
X019460Y017313D01*
X019460Y017155D02*
X020430Y017155D01*
X020430Y016996D02*
X019460Y016996D01*
X019488Y016838D02*
X020313Y016838D01*
X020262Y016679D02*
X019572Y016679D01*
X019580Y016521D02*
X020273Y016521D01*
X020357Y016362D02*
X019523Y016362D01*
X019475Y016107D02*
X019285Y016107D01*
X019110Y016035D01*
X018975Y015900D01*
X018903Y015725D01*
X018903Y015535D01*
X018975Y015360D01*
X019110Y015225D01*
X019285Y015153D01*
X019475Y015153D01*
X019650Y015225D01*
X019785Y015360D01*
X019857Y015535D01*
X019857Y015725D01*
X019785Y015900D01*
X019650Y016035D01*
X019475Y016107D01*
X019626Y016045D02*
X020739Y016045D01*
X020747Y016048D02*
X020593Y015984D01*
X020476Y015867D01*
X020412Y015713D01*
X020412Y015565D01*
X019968Y015122D01*
X019930Y015030D01*
X019930Y013384D01*
X019026Y012480D01*
X015996Y012480D01*
X015907Y012569D01*
X015760Y012630D01*
X015600Y012630D01*
X015453Y012569D01*
X015341Y012457D01*
X015280Y012310D01*
X015280Y012150D01*
X015341Y012003D01*
X015453Y011891D01*
X015600Y011830D01*
X015760Y011830D01*
X015907Y011891D01*
X015996Y011980D01*
X019180Y011980D01*
X019272Y012018D01*
X019342Y012088D01*
X019342Y012088D01*
X020322Y013068D01*
X020392Y013138D01*
X020430Y013230D01*
X020430Y014876D01*
X020765Y015212D01*
X020913Y015212D01*
X021067Y015276D01*
X021184Y015393D01*
X021248Y015547D01*
X021248Y015713D01*
X021184Y015867D01*
X021067Y015984D01*
X020913Y016048D01*
X020747Y016048D01*
X020921Y016045D02*
X023349Y016045D01*
X023500Y016204D02*
X019316Y016204D01*
X019134Y016045D02*
X018769Y016045D01*
X018877Y015887D02*
X018969Y015887D01*
X018904Y015728D02*
X018880Y015728D01*
X018880Y015570D02*
X018903Y015570D01*
X018880Y015411D02*
X018954Y015411D01*
X018880Y015253D02*
X019082Y015253D01*
X019110Y015035D02*
X018975Y014900D01*
X018903Y014725D01*
X018903Y014535D01*
X018975Y014360D01*
X019110Y014225D01*
X019285Y014153D01*
X019475Y014153D01*
X019650Y014225D01*
X019785Y014360D01*
X019857Y014535D01*
X019857Y014725D01*
X019785Y014900D01*
X019650Y015035D01*
X019475Y015107D01*
X019285Y015107D01*
X019110Y015035D01*
X019010Y014936D02*
X018880Y014936D01*
X018880Y015094D02*
X019253Y015094D01*
X019507Y015094D02*
X019957Y015094D01*
X019930Y014936D02*
X019750Y014936D01*
X019836Y014777D02*
X019930Y014777D01*
X019930Y014619D02*
X019857Y014619D01*
X019826Y014460D02*
X019930Y014460D01*
X019930Y014302D02*
X019727Y014302D01*
X019930Y014143D02*
X018844Y014143D01*
X018880Y014302D02*
X019033Y014302D01*
X018934Y014460D02*
X018880Y014460D01*
X018880Y014619D02*
X018903Y014619D01*
X018880Y014777D02*
X018924Y014777D01*
X019678Y015253D02*
X020099Y015253D01*
X020257Y015411D02*
X019806Y015411D01*
X019857Y015570D02*
X020412Y015570D01*
X020418Y015728D02*
X019856Y015728D01*
X019791Y015887D02*
X020495Y015887D01*
X021003Y016362D02*
X023500Y016362D01*
X023500Y016521D02*
X021087Y016521D01*
X021098Y016679D02*
X023500Y016679D01*
X023500Y016838D02*
X021047Y016838D01*
X020930Y016996D02*
X023500Y016996D01*
X023500Y017155D02*
X020930Y017155D01*
X020930Y017313D02*
X023500Y017313D01*
X023500Y017472D02*
X020892Y017472D01*
X020833Y017551D02*
X020993Y017508D01*
X021617Y017868D01*
X021660Y018028D01*
X021300Y018652D01*
X021140Y018695D01*
X020515Y018335D01*
X020473Y018175D01*
X020833Y017551D01*
X020787Y017630D02*
X020734Y017630D01*
X020696Y017789D02*
X020575Y017789D01*
X020604Y017947D02*
X020417Y017947D01*
X020513Y018106D02*
X020258Y018106D01*
X020230Y018264D02*
X020496Y018264D01*
X020667Y018423D02*
X020230Y018423D01*
X020230Y018581D02*
X020278Y018581D01*
X020855Y018581D02*
X020942Y018581D01*
X020989Y018740D02*
X021840Y018740D01*
X021912Y018565D01*
X022047Y018431D01*
X022222Y018358D01*
X022412Y018358D01*
X022587Y018431D01*
X022722Y018565D01*
X022794Y018740D01*
X023500Y018740D01*
X023500Y018898D02*
X022794Y018898D01*
X022794Y018930D02*
X022722Y019106D01*
X022587Y019240D01*
X022412Y019313D01*
X022222Y019313D01*
X022047Y019240D01*
X021912Y019106D01*
X021840Y018930D01*
X021840Y018740D01*
X021840Y018898D02*
X021044Y018898D01*
X021044Y019057D02*
X021892Y019057D01*
X021930Y019215D02*
X022021Y019215D01*
X022204Y019374D02*
X023500Y019374D01*
X023500Y019215D02*
X022613Y019215D01*
X022742Y019057D02*
X023500Y019057D01*
X023500Y018581D02*
X022728Y018581D01*
X022794Y018740D02*
X022794Y018930D01*
X022568Y018423D02*
X023500Y018423D01*
X023500Y018264D02*
X021524Y018264D01*
X021615Y018106D02*
X023500Y018106D01*
X023500Y017947D02*
X021638Y017947D01*
X021479Y017789D02*
X023500Y017789D01*
X023500Y017630D02*
X021204Y017630D01*
X021432Y018423D02*
X022066Y018423D01*
X021905Y018581D02*
X021341Y018581D01*
X021546Y019215D02*
X020981Y019215D01*
X020834Y019374D02*
X021455Y019374D01*
X021430Y020325D02*
X023500Y020325D01*
X023428Y020483D02*
X021420Y020483D01*
X021334Y020642D02*
X023267Y020642D01*
X023106Y020800D02*
X019932Y020800D01*
X020125Y020642D02*
X020726Y020642D01*
X020640Y020483D02*
X020180Y020483D01*
X020169Y020325D02*
X020621Y020325D01*
X020462Y020166D02*
X020082Y020166D01*
X020304Y020008D02*
X019754Y020008D01*
X019780Y020430D02*
X019180Y019830D01*
X019180Y016580D01*
X018872Y016838D02*
X018630Y016838D01*
X018630Y016996D02*
X018900Y016996D01*
X018900Y017155D02*
X018630Y017155D01*
X018630Y017313D02*
X018900Y017313D01*
X018900Y017472D02*
X018630Y017472D01*
X018630Y017630D02*
X018900Y017630D01*
X018900Y017789D02*
X018630Y017789D01*
X018630Y017947D02*
X018900Y017947D01*
X018900Y018106D02*
X018630Y018106D01*
X018630Y018264D02*
X018900Y018264D01*
X018900Y018423D02*
X018630Y018423D01*
X018630Y018581D02*
X018900Y018581D01*
X018900Y018740D02*
X018630Y018740D01*
X018630Y018898D02*
X018900Y018898D01*
X018900Y019057D02*
X018630Y019057D01*
X018630Y019215D02*
X018900Y019215D01*
X018900Y019374D02*
X018630Y019374D01*
X018532Y019532D02*
X018900Y019532D01*
X018900Y019691D02*
X018373Y019691D01*
X018215Y019849D02*
X018900Y019849D01*
X018962Y020008D02*
X018056Y020008D01*
X017898Y020166D02*
X019120Y020166D01*
X019279Y020325D02*
X017739Y020325D01*
X017581Y020483D02*
X019380Y020483D01*
X019435Y020642D02*
X017580Y020642D01*
X017580Y020800D02*
X019628Y020800D01*
X019469Y021276D02*
X017580Y021276D01*
X017580Y021434D02*
X018051Y021434D01*
X018110Y021375D02*
X017975Y021510D01*
X017903Y021685D01*
X017903Y021875D01*
X017975Y022050D01*
X018110Y022185D01*
X018285Y022257D01*
X018475Y022257D01*
X018650Y022185D01*
X018785Y022050D01*
X018857Y021875D01*
X018857Y021685D01*
X018785Y021510D01*
X018650Y021375D01*
X018475Y021303D01*
X018285Y021303D01*
X018110Y021375D01*
X017941Y021593D02*
X017705Y021593D01*
X017748Y021751D02*
X017903Y021751D01*
X017917Y021910D02*
X017729Y021910D01*
X017633Y022068D02*
X017993Y022068D01*
X018210Y022227D02*
X017248Y022227D01*
X017198Y022385D02*
X020239Y022385D01*
X020081Y022227D02*
X018550Y022227D01*
X018767Y022068D02*
X019922Y022068D01*
X019651Y021910D02*
X018843Y021910D01*
X018857Y021751D02*
X019439Y021751D01*
X019380Y021593D02*
X018819Y021593D01*
X018709Y021434D02*
X019387Y021434D01*
X019780Y021530D02*
X021233Y022983D01*
X020849Y023019D02*
X015907Y023019D01*
X015907Y022861D02*
X020715Y022861D01*
X020556Y022702D02*
X015907Y022702D01*
X015907Y022544D02*
X016615Y022544D01*
X016462Y022385D02*
X015873Y022385D01*
X015870Y023178D02*
X020690Y023178D01*
X020530Y023336D02*
X005189Y023336D01*
X005022Y023178D02*
X011152Y023178D01*
X011160Y023185D02*
X011025Y023050D01*
X010953Y022875D01*
X010953Y022685D01*
X011025Y022510D01*
X011160Y022375D01*
X011335Y022303D01*
X011525Y022303D01*
X011700Y022375D01*
X011835Y022510D01*
X011907Y022685D01*
X011907Y022875D01*
X011835Y023050D01*
X011700Y023185D01*
X011525Y023257D01*
X011335Y023257D01*
X011160Y023185D01*
X011012Y023019D02*
X004854Y023019D01*
X004686Y022861D02*
X010953Y022861D01*
X010953Y022702D02*
X004522Y022702D01*
X004387Y022544D02*
X010102Y022544D01*
X010076Y022517D02*
X010012Y022363D01*
X010012Y022197D01*
X010030Y022153D01*
X010030Y022132D01*
X009985Y019227D01*
X009876Y019117D01*
X009812Y018963D01*
X009812Y018797D01*
X009876Y018643D01*
X009993Y018526D01*
X010147Y018462D01*
X010313Y018462D01*
X010467Y018526D01*
X010584Y018643D01*
X010648Y018797D01*
X010648Y018963D01*
X010584Y019117D01*
X010485Y019216D01*
X010526Y021867D01*
X010667Y021926D01*
X010784Y022043D01*
X010848Y022197D01*
X010848Y022363D01*
X010784Y022517D01*
X010667Y022634D01*
X010513Y022698D01*
X010347Y022698D01*
X010193Y022634D01*
X010076Y022517D01*
X010021Y022385D02*
X009545Y022385D01*
X009513Y022398D02*
X009347Y022398D01*
X009193Y022334D01*
X009076Y022217D01*
X009012Y022063D01*
X009012Y021897D01*
X009076Y021743D01*
X009180Y021639D01*
X009180Y019521D01*
X009076Y019417D01*
X009012Y019263D01*
X009012Y019097D01*
X009076Y018943D01*
X009193Y018826D01*
X009347Y018762D01*
X009513Y018762D01*
X009667Y018826D01*
X009784Y018943D01*
X009848Y019097D01*
X009848Y019263D01*
X009784Y019417D01*
X009680Y019521D01*
X009680Y021639D01*
X009784Y021743D01*
X009848Y021897D01*
X009848Y022063D01*
X009784Y022217D01*
X009667Y022334D01*
X009513Y022398D01*
X009315Y022385D02*
X004253Y022385D01*
X004118Y022227D02*
X009085Y022227D01*
X009014Y022068D02*
X003983Y022068D01*
X003848Y021910D02*
X009012Y021910D01*
X009072Y021751D02*
X003713Y021751D01*
X003598Y021593D02*
X009180Y021593D01*
X009180Y021434D02*
X003490Y021434D01*
X003383Y021276D02*
X009180Y021276D01*
X009180Y021117D02*
X003275Y021117D01*
X003167Y020959D02*
X009180Y020959D01*
X009180Y020800D02*
X003060Y020800D01*
X002952Y020642D02*
X009180Y020642D01*
X009180Y020483D02*
X002859Y020483D01*
X002769Y020325D02*
X009180Y020325D01*
X009180Y020166D02*
X007660Y020166D01*
X007789Y020008D02*
X009180Y020008D01*
X009180Y019849D02*
X007830Y019849D01*
X007923Y019691D02*
X009180Y019691D01*
X009180Y019532D02*
X008082Y019532D01*
X008240Y019374D02*
X009058Y019374D01*
X009012Y019215D02*
X008546Y019215D01*
X008769Y019057D02*
X009029Y019057D01*
X009121Y018898D02*
X008830Y018898D01*
X008825Y018740D02*
X009836Y018740D01*
X009812Y018898D02*
X009739Y018898D01*
X009831Y019057D02*
X009851Y019057D01*
X009848Y019215D02*
X009974Y019215D01*
X009988Y019374D02*
X009802Y019374D01*
X009680Y019532D02*
X009990Y019532D01*
X009992Y019691D02*
X009680Y019691D01*
X009680Y019849D02*
X009995Y019849D01*
X009997Y020008D02*
X009680Y020008D01*
X009680Y020166D02*
X010000Y020166D01*
X010002Y020325D02*
X009680Y020325D01*
X009680Y020483D02*
X010005Y020483D01*
X010007Y020642D02*
X009680Y020642D01*
X009680Y020800D02*
X010010Y020800D01*
X010012Y020959D02*
X009680Y020959D01*
X009680Y021117D02*
X010014Y021117D01*
X010017Y021276D02*
X009680Y021276D01*
X009680Y021434D02*
X010019Y021434D01*
X010022Y021593D02*
X009680Y021593D01*
X009788Y021751D02*
X010024Y021751D01*
X010027Y021910D02*
X009848Y021910D01*
X009846Y022068D02*
X010029Y022068D01*
X010012Y022227D02*
X009775Y022227D01*
X010524Y021751D02*
X011969Y021751D01*
X011969Y021593D02*
X010522Y021593D01*
X010519Y021434D02*
X011969Y021434D01*
X011830Y021276D02*
X010517Y021276D01*
X010514Y021117D02*
X011671Y021117D01*
X011513Y020959D02*
X010512Y020959D01*
X010510Y020800D02*
X011354Y020800D01*
X011196Y020642D02*
X010507Y020642D01*
X010505Y020483D02*
X011037Y020483D01*
X011071Y020517D02*
X011071Y020517D01*
X010879Y020325D02*
X010502Y020325D01*
X010500Y020166D02*
X010720Y020166D01*
X010650Y020008D02*
X010497Y020008D01*
X010495Y019849D02*
X010650Y019849D01*
X010650Y019691D02*
X010492Y019691D01*
X010490Y019532D02*
X010650Y019532D01*
X010650Y019374D02*
X010488Y019374D01*
X010486Y019215D02*
X010650Y019215D01*
X010650Y019057D02*
X010609Y019057D01*
X010648Y018898D02*
X010650Y018898D01*
X010650Y018740D02*
X010624Y018740D01*
X010650Y018581D02*
X010522Y018581D01*
X010650Y018423D02*
X006559Y018423D01*
X006651Y018581D02*
X008113Y018581D01*
X008035Y018740D02*
X006742Y018740D01*
X006834Y018898D02*
X008008Y018898D01*
X007850Y019057D02*
X006908Y019057D01*
X006838Y019215D02*
X007691Y019215D01*
X007533Y019374D02*
X006564Y019374D01*
X006289Y019532D02*
X007162Y019532D01*
X007140Y018106D02*
X006297Y018106D01*
X006275Y017947D02*
X007080Y017947D01*
X006993Y017789D02*
X006187Y017789D01*
X005470Y018423D02*
X004886Y018423D01*
X003995Y018740D02*
X002633Y018740D01*
X002633Y018898D02*
X004058Y018898D01*
X007151Y017155D02*
X008309Y017155D01*
X008151Y017313D02*
X007309Y017313D01*
X007468Y017472D02*
X007992Y017472D01*
X007980Y017880D02*
X009180Y016680D01*
X009430Y016680D01*
X009789Y016996D02*
X010373Y016996D01*
X010512Y016838D02*
X009882Y016838D01*
X010730Y017180D02*
X010930Y017380D01*
X010930Y019980D01*
X011230Y020280D01*
X010628Y021910D02*
X011969Y021910D01*
X011969Y022068D02*
X010795Y022068D01*
X010848Y022227D02*
X011969Y022227D01*
X011969Y022385D02*
X011710Y022385D01*
X011849Y022544D02*
X011953Y022544D01*
X011953Y022702D02*
X011907Y022702D01*
X011907Y022861D02*
X011953Y022861D01*
X011953Y023019D02*
X011848Y023019D01*
X011708Y023178D02*
X011990Y023178D01*
X011799Y023812D02*
X012313Y023812D01*
X012547Y023812D02*
X014061Y023812D01*
X013953Y023970D02*
X012795Y023970D01*
X012884Y024129D02*
X013953Y024129D01*
X013953Y024287D02*
X012907Y024287D01*
X012878Y024446D02*
X013953Y024446D01*
X013953Y024604D02*
X012781Y024604D01*
X012309Y024763D02*
X014517Y024763D01*
X014430Y024280D02*
X015280Y025130D01*
X012280Y025130D01*
X011430Y024280D01*
X011907Y024287D02*
X011953Y024287D01*
X011976Y024129D02*
X011907Y024129D01*
X011907Y023970D02*
X012065Y023970D01*
X011517Y024763D02*
X007107Y024763D01*
X007370Y024921D02*
X011675Y024921D01*
X011834Y025080D02*
X007634Y025080D01*
X007960Y025238D02*
X011992Y025238D01*
X012192Y025397D02*
X008303Y025397D01*
X008646Y025555D02*
X018214Y025555D01*
X017837Y025714D02*
X009023Y025714D01*
X009494Y025872D02*
X017366Y025872D01*
X016895Y026031D02*
X009965Y026031D01*
X010586Y026189D02*
X016274Y026189D01*
X015554Y026348D02*
X011306Y026348D01*
X012620Y026506D02*
X014240Y026506D01*
X015280Y025130D02*
X019130Y025130D01*
X020211Y023653D02*
X005530Y023653D01*
X005357Y023495D02*
X020369Y023495D01*
X020398Y022544D02*
X017045Y022544D01*
X017580Y021117D02*
X022783Y021117D01*
X022944Y020959D02*
X017580Y020959D01*
X020091Y021276D02*
X022621Y021276D01*
X022460Y021434D02*
X020173Y021434D01*
X020239Y021593D02*
X022299Y021593D01*
X022137Y021751D02*
X020397Y021751D01*
X020556Y021910D02*
X021976Y021910D01*
X021815Y022068D02*
X020714Y022068D01*
X020873Y022227D02*
X021653Y022227D01*
X021492Y022385D02*
X021031Y022385D01*
X021190Y022544D02*
X021330Y022544D01*
X023780Y019730D02*
X023780Y016080D01*
X022480Y014780D01*
X022480Y013780D01*
X023780Y012480D01*
X023780Y009680D01*
X022280Y009713D01*
X022644Y009388D02*
X023500Y009388D01*
X023500Y009230D02*
X022552Y009230D01*
X022204Y009071D02*
X023500Y009071D01*
X023500Y008913D02*
X022257Y008913D01*
X022257Y008942D02*
X022185Y009117D01*
X022050Y009252D01*
X021875Y009324D01*
X021685Y009324D01*
X021510Y009252D01*
X021375Y009117D01*
X021303Y008942D01*
X021303Y008752D01*
X021375Y008577D01*
X021510Y008442D01*
X021685Y008370D01*
X021875Y008370D01*
X022050Y008442D01*
X022185Y008577D01*
X022257Y008752D01*
X022257Y008942D01*
X022257Y008754D02*
X023500Y008754D01*
X023500Y008596D02*
X022193Y008596D01*
X022038Y008437D02*
X023500Y008437D01*
X023500Y008279D02*
X017220Y008279D01*
X017353Y008437D02*
X021522Y008437D01*
X021367Y008596D02*
X017398Y008596D01*
X017381Y008754D02*
X021303Y008754D01*
X021303Y008913D02*
X019499Y008913D01*
X019475Y008903D02*
X019650Y008975D01*
X019785Y009110D01*
X019857Y009285D01*
X019857Y009475D01*
X019785Y009650D01*
X019650Y009785D01*
X019475Y009857D01*
X019285Y009857D01*
X019110Y009785D01*
X018975Y009650D01*
X018903Y009475D01*
X018903Y009285D01*
X018975Y009110D01*
X019110Y008975D01*
X019285Y008903D01*
X019475Y008903D01*
X019261Y008913D02*
X018750Y008913D01*
X018740Y008903D02*
X018857Y009020D01*
X018857Y009740D01*
X018740Y009857D01*
X018020Y009857D01*
X017903Y009740D01*
X017903Y009640D01*
X017438Y009640D01*
X016484Y010593D01*
X016548Y010747D01*
X016548Y010913D01*
X016484Y011067D01*
X016367Y011184D01*
X016213Y011248D01*
X016047Y011248D01*
X015893Y011184D01*
X015776Y011067D01*
X015712Y010913D01*
X015712Y010747D01*
X015776Y010593D01*
X015891Y010478D01*
X015910Y010433D01*
X017183Y009160D01*
X017278Y009120D01*
X017903Y009120D01*
X017903Y009020D01*
X018020Y008903D01*
X018740Y008903D01*
X018857Y009071D02*
X019014Y009071D01*
X018926Y009230D02*
X018857Y009230D01*
X018857Y009388D02*
X018903Y009388D01*
X018932Y009547D02*
X018857Y009547D01*
X018857Y009705D02*
X019030Y009705D01*
X019110Y009975D02*
X019285Y009903D01*
X019475Y009903D01*
X019650Y009975D01*
X019785Y010110D01*
X019857Y010285D01*
X019857Y010475D01*
X019785Y010650D01*
X019650Y010785D01*
X019475Y010857D01*
X019285Y010857D01*
X019159Y010805D01*
X019265Y010911D01*
X019285Y010903D01*
X019475Y010903D01*
X019650Y010975D01*
X019785Y011110D01*
X019857Y011285D01*
X019857Y011475D01*
X019785Y011650D01*
X019650Y011785D01*
X019475Y011857D01*
X019285Y011857D01*
X019110Y011785D01*
X018975Y011650D01*
X018903Y011475D01*
X018903Y011285D01*
X018911Y011265D01*
X018776Y011130D01*
X017334Y011130D01*
X016930Y011534D01*
X016930Y011660D01*
X016869Y011807D01*
X016757Y011919D01*
X016610Y011980D01*
X016450Y011980D01*
X016303Y011919D01*
X016191Y011807D01*
X016130Y011660D01*
X016130Y011500D01*
X016191Y011353D01*
X016303Y011241D01*
X016450Y011180D01*
X016576Y011180D01*
X017018Y010738D01*
X017088Y010668D01*
X017180Y010630D01*
X017967Y010630D01*
X017903Y010475D01*
X017903Y010285D01*
X017975Y010110D01*
X018110Y009975D01*
X018285Y009903D01*
X018475Y009903D01*
X018650Y009975D01*
X018785Y010110D01*
X018857Y010285D01*
X018857Y010475D01*
X018793Y010630D01*
X018930Y010630D01*
X018974Y010649D01*
X018903Y010475D01*
X018903Y010285D01*
X018975Y010110D01*
X019110Y009975D01*
X019063Y010022D02*
X018697Y010022D01*
X018814Y010181D02*
X018946Y010181D01*
X018903Y010339D02*
X018857Y010339D01*
X018848Y010498D02*
X018912Y010498D01*
X019168Y010815D02*
X019181Y010815D01*
X018778Y011132D02*
X017332Y011132D01*
X017174Y011290D02*
X018903Y011290D01*
X018903Y011449D02*
X017015Y011449D01*
X016930Y011607D02*
X018957Y011607D01*
X019090Y011766D02*
X016886Y011766D01*
X016745Y011924D02*
X023500Y011924D01*
X023500Y011766D02*
X019670Y011766D01*
X019803Y011607D02*
X023500Y011607D01*
X023500Y011449D02*
X019857Y011449D01*
X019857Y011290D02*
X023500Y011290D01*
X023500Y011132D02*
X019794Y011132D01*
X019645Y010973D02*
X023500Y010973D01*
X023500Y010815D02*
X021364Y010815D01*
X021310Y010868D02*
X021135Y010940D01*
X020945Y010940D01*
X020770Y010868D01*
X020635Y010733D01*
X020563Y010558D01*
X020563Y010368D01*
X020635Y010193D01*
X020770Y010058D01*
X020945Y009986D01*
X021135Y009986D01*
X021310Y010058D01*
X021445Y010193D01*
X021517Y010368D01*
X021517Y010558D01*
X021445Y010733D01*
X021310Y010868D01*
X021477Y010656D02*
X023500Y010656D01*
X023500Y010498D02*
X021517Y010498D01*
X021505Y010339D02*
X023500Y010339D01*
X023500Y010181D02*
X022425Y010181D01*
X022700Y010022D02*
X023500Y010022D01*
X023780Y009680D02*
X023780Y008030D01*
X019280Y003530D01*
X013930Y003530D01*
X013930Y004280D01*
X013453Y004316D02*
X013407Y004316D01*
X013396Y004158D02*
X013453Y004158D01*
X013453Y003999D02*
X013324Y003999D01*
X013117Y003841D02*
X013532Y003841D01*
X013930Y003530D02*
X007630Y003530D01*
X003205Y007955D01*
X005080Y008847D01*
X005325Y008437D02*
X009810Y008437D01*
X009810Y008279D02*
X005050Y008279D01*
X004913Y008279D02*
X004537Y008279D01*
X004204Y008120D02*
X009810Y008120D01*
X009810Y007962D02*
X003870Y007962D01*
X003753Y007803D02*
X009810Y007803D01*
X009810Y007645D02*
X003911Y007645D01*
X004070Y007486D02*
X009816Y007486D01*
X009929Y007328D02*
X004228Y007328D01*
X004387Y007169D02*
X010087Y007169D01*
X010246Y007011D02*
X004545Y007011D01*
X004704Y006852D02*
X010404Y006852D01*
X010563Y006694D02*
X004862Y006694D01*
X005021Y006535D02*
X010721Y006535D01*
X012453Y005584D02*
X005972Y005584D01*
X006130Y005426D02*
X012453Y005426D01*
X012608Y004633D02*
X006923Y004633D01*
X007081Y004475D02*
X012494Y004475D01*
X012453Y004316D02*
X007240Y004316D01*
X007398Y004158D02*
X012464Y004158D01*
X012536Y003999D02*
X007557Y003999D01*
X007715Y003841D02*
X012743Y003841D01*
X013366Y004475D02*
X013453Y004475D01*
X013453Y004633D02*
X013252Y004633D01*
X014407Y004633D02*
X019987Y004633D01*
X019829Y004475D02*
X014407Y004475D01*
X014407Y004316D02*
X019670Y004316D01*
X019512Y004158D02*
X014407Y004158D01*
X014407Y003999D02*
X019353Y003999D01*
X019195Y003841D02*
X014328Y003841D01*
X016470Y008279D02*
X016740Y008279D01*
X017289Y008913D02*
X018010Y008913D01*
X017903Y009071D02*
X013493Y009071D01*
X014429Y010339D02*
X016003Y010339D01*
X015871Y010498D02*
X014636Y010498D01*
X014698Y010656D02*
X015750Y010656D01*
X015712Y010815D02*
X014698Y010815D01*
X014628Y010973D02*
X015737Y010973D01*
X015840Y011132D02*
X014530Y011132D01*
X014530Y011290D02*
X016254Y011290D01*
X016152Y011449D02*
X014530Y011449D01*
X014530Y011607D02*
X016130Y011607D01*
X016174Y011766D02*
X014530Y011766D01*
X014530Y011924D02*
X015420Y011924D01*
X015308Y012083D02*
X014530Y012083D01*
X014530Y012241D02*
X015280Y012241D01*
X015317Y012400D02*
X014530Y012400D01*
X014530Y012558D02*
X014561Y012558D01*
X015099Y012558D02*
X015442Y012558D01*
X015918Y012558D02*
X019104Y012558D01*
X019263Y012717D02*
X017420Y012717D01*
X017579Y012875D02*
X019421Y012875D01*
X019580Y013034D02*
X017737Y013034D01*
X017896Y013192D02*
X019738Y013192D01*
X019897Y013351D02*
X018054Y013351D01*
X018213Y013509D02*
X019930Y013509D01*
X019930Y013668D02*
X018371Y013668D01*
X018530Y013826D02*
X019930Y013826D01*
X019930Y013985D02*
X018688Y013985D01*
X018130Y015094D02*
X017657Y015094D01*
X017680Y015253D02*
X018130Y015253D01*
X018130Y015411D02*
X017638Y015411D01*
X017506Y015570D02*
X018130Y015570D01*
X018630Y016204D02*
X019044Y016204D01*
X018837Y016362D02*
X018630Y016362D01*
X018630Y016521D02*
X018780Y016521D01*
X018788Y016679D02*
X018630Y016679D01*
X017570Y014936D02*
X017551Y014936D01*
X017475Y014143D02*
X016433Y014143D01*
X016280Y013509D02*
X017155Y013509D01*
X015980Y013509D02*
X014492Y013509D01*
X015940Y011924D02*
X016315Y011924D01*
X016420Y011132D02*
X016625Y011132D01*
X016523Y010973D02*
X016783Y010973D01*
X016942Y010815D02*
X016548Y010815D01*
X016510Y010656D02*
X017117Y010656D01*
X016739Y010339D02*
X017903Y010339D01*
X017912Y010498D02*
X016580Y010498D01*
X016897Y010181D02*
X017946Y010181D01*
X018063Y010022D02*
X017056Y010022D01*
X017214Y009864D02*
X020143Y009864D01*
X020234Y010022D02*
X019697Y010022D01*
X019814Y010181D02*
X020429Y010181D01*
X020467Y010191D02*
X020307Y010148D01*
X019946Y009524D01*
X019989Y009364D01*
X020613Y009003D01*
X020773Y009046D01*
X021134Y009670D01*
X021091Y009830D01*
X020467Y010191D01*
X020484Y010181D02*
X020647Y010181D01*
X020575Y010339D02*
X019857Y010339D01*
X019848Y010498D02*
X020563Y010498D01*
X020603Y010656D02*
X019779Y010656D01*
X019579Y010815D02*
X020716Y010815D01*
X020759Y010022D02*
X020857Y010022D01*
X021033Y009864D02*
X021816Y009864D01*
X021907Y010022D02*
X021223Y010022D01*
X021433Y010181D02*
X021999Y010181D01*
X021724Y009705D02*
X021124Y009705D01*
X021062Y009547D02*
X021711Y009547D01*
X021888Y009388D02*
X020971Y009388D01*
X020879Y009230D02*
X021487Y009230D01*
X021356Y009071D02*
X020788Y009071D01*
X020496Y009071D02*
X019746Y009071D01*
X019834Y009230D02*
X020222Y009230D01*
X019983Y009388D02*
X019857Y009388D01*
X019828Y009547D02*
X019960Y009547D01*
X020051Y009705D02*
X019730Y009705D01*
X017903Y009705D02*
X017373Y009705D01*
X019336Y012083D02*
X023500Y012083D01*
X023500Y012241D02*
X019495Y012241D01*
X019653Y012400D02*
X023465Y012400D01*
X023306Y012558D02*
X019812Y012558D01*
X019970Y012717D02*
X023148Y012717D01*
X022989Y012875D02*
X020129Y012875D01*
X020287Y013034D02*
X022831Y013034D01*
X022672Y013192D02*
X020414Y013192D01*
X020322Y013068D02*
X020322Y013068D01*
X020430Y013351D02*
X022514Y013351D01*
X022355Y013509D02*
X020430Y013509D01*
X020430Y013668D02*
X022224Y013668D01*
X022200Y013826D02*
X020430Y013826D01*
X020430Y013985D02*
X022200Y013985D01*
X022200Y014143D02*
X020430Y014143D01*
X020430Y014302D02*
X022200Y014302D01*
X022200Y014460D02*
X020430Y014460D01*
X020430Y014619D02*
X022200Y014619D01*
X022200Y014777D02*
X020430Y014777D01*
X020489Y014936D02*
X022241Y014936D01*
X022321Y015017D02*
X022321Y015017D01*
X022398Y015094D02*
X020648Y015094D01*
X021011Y015253D02*
X022557Y015253D01*
X022715Y015411D02*
X021192Y015411D01*
X021248Y015570D02*
X022874Y015570D01*
X023032Y015728D02*
X021242Y015728D01*
X021165Y015887D02*
X023191Y015887D01*
X022162Y009230D02*
X022073Y009230D01*
X020304Y004950D02*
X006606Y004950D01*
X006764Y004792D02*
X020146Y004792D01*
X011830Y010181D02*
X011769Y010181D01*
X011817Y010339D02*
X011830Y010339D01*
X011803Y010498D02*
X011880Y010498D01*
X011880Y010656D02*
X011715Y010656D01*
X009742Y010656D02*
X008960Y010656D01*
X008875Y010498D02*
X008801Y010498D01*
X008714Y010339D02*
X008643Y010339D01*
X008662Y010181D02*
X008431Y010181D01*
X008618Y010022D02*
X007729Y010022D01*
X007231Y010022D02*
X007088Y010022D01*
X007103Y009864D02*
X006726Y009864D01*
X006725Y009867D02*
X006590Y010002D01*
X006415Y010074D01*
X006225Y010074D01*
X006050Y010002D01*
X005915Y009867D01*
X005843Y009692D01*
X005843Y009502D01*
X005915Y009327D01*
X006050Y009192D01*
X006225Y009120D01*
X006415Y009120D01*
X006590Y009192D01*
X006725Y009327D01*
X006797Y009502D01*
X006797Y009692D01*
X006725Y009867D01*
X006792Y009705D02*
X007062Y009705D01*
X007083Y009547D02*
X006797Y009547D01*
X006750Y009388D02*
X007181Y009388D01*
X006628Y009230D02*
X009810Y009230D01*
X009810Y009388D02*
X007779Y009388D01*
X006872Y010022D02*
X006542Y010022D01*
X006638Y010181D02*
X006286Y010181D01*
X006371Y010230D02*
X006414Y010390D01*
X006053Y011014D01*
X005893Y011057D01*
X005269Y010696D01*
X005226Y010536D01*
X005587Y009912D01*
X005747Y009869D01*
X006371Y010230D01*
X006400Y010339D02*
X006565Y010339D01*
X006562Y010498D02*
X006351Y010498D01*
X006260Y010656D02*
X006621Y010656D01*
X006816Y010815D02*
X006168Y010815D01*
X006077Y010973D02*
X008569Y010973D01*
X008411Y010815D02*
X007144Y010815D01*
X006098Y010022D02*
X006011Y010022D01*
X005914Y009864D02*
X005034Y009864D01*
X005057Y009808D02*
X004985Y009983D01*
X004850Y010118D01*
X004675Y010190D01*
X004485Y010190D01*
X004310Y010118D01*
X004175Y009983D01*
X004103Y009808D01*
X004103Y009618D01*
X004175Y009443D01*
X004310Y009308D01*
X004485Y009236D01*
X004675Y009236D01*
X004850Y009308D01*
X004985Y009443D01*
X005057Y009618D01*
X005057Y009808D01*
X005057Y009705D02*
X005848Y009705D01*
X005843Y009547D02*
X005028Y009547D01*
X005062Y009388D02*
X004930Y009388D01*
X004788Y009230D02*
X003360Y009230D01*
X003360Y009388D02*
X004230Y009388D01*
X004132Y009547D02*
X003360Y009547D01*
X003360Y009705D02*
X004103Y009705D01*
X004126Y009864D02*
X003360Y009864D01*
X003360Y010022D02*
X004214Y010022D01*
X004461Y010181D02*
X003360Y010181D01*
X003360Y010339D02*
X005340Y010339D01*
X005249Y010498D02*
X003360Y010498D01*
X003360Y010656D02*
X005258Y010656D01*
X005474Y010815D02*
X003360Y010815D01*
X003360Y010973D02*
X005748Y010973D01*
X005432Y010181D02*
X004699Y010181D01*
X004946Y010022D02*
X005523Y010022D01*
X005319Y009388D02*
X005890Y009388D01*
X006012Y009230D02*
X005410Y009230D01*
X005502Y009071D02*
X009810Y009071D01*
X009810Y008913D02*
X005594Y008913D01*
X005668Y008754D02*
X009810Y008754D01*
X009810Y008596D02*
X005599Y008596D01*
X004491Y008913D02*
X003360Y008913D01*
X003360Y009071D02*
X004527Y009071D01*
X004233Y008754D02*
X003360Y008754D01*
X003360Y008596D02*
X003900Y008596D01*
X003566Y008437D02*
X003360Y008437D01*
X003080Y008130D02*
X003080Y012380D01*
X004430Y013730D01*
X004430Y014830D01*
X004710Y014460D02*
X007094Y014460D01*
X007030Y014302D02*
X004710Y014302D01*
X004710Y014143D02*
X006989Y014143D01*
X006831Y013985D02*
X004710Y013985D01*
X004710Y013826D02*
X006672Y013826D01*
X006514Y013668D02*
X004707Y013668D01*
X004605Y013509D02*
X006355Y013509D01*
X006280Y013351D02*
X004446Y013351D01*
X004288Y013192D02*
X006280Y013192D01*
X006280Y013034D02*
X004129Y013034D01*
X003971Y012875D02*
X006280Y012875D01*
X006174Y012717D02*
X003812Y012717D01*
X003654Y012558D02*
X006130Y012558D01*
X006151Y012400D02*
X003495Y012400D01*
X003360Y012241D02*
X006253Y012241D01*
X006807Y012241D02*
X009837Y012241D01*
X009862Y012400D02*
X006909Y012400D01*
X006930Y012558D02*
X009922Y012558D01*
X009679Y012083D02*
X003360Y012083D01*
X003360Y011924D02*
X009520Y011924D01*
X009362Y011766D02*
X003360Y011766D01*
X003360Y011607D02*
X009203Y011607D01*
X009045Y011449D02*
X003360Y011449D01*
X003360Y011290D02*
X008886Y011290D01*
X008728Y011132D02*
X003360Y011132D01*
X003080Y008130D02*
X003205Y007955D01*
X008376Y014460D02*
X008830Y014460D01*
X008854Y014619D02*
X008497Y014619D01*
X008531Y014777D02*
X008961Y014777D01*
X008500Y014936D02*
X012380Y014936D01*
X012380Y015094D02*
X008411Y015094D01*
X008411Y015253D02*
X009214Y015253D01*
X009025Y015411D02*
X008427Y015411D01*
X008517Y015570D02*
X008959Y015570D01*
X008953Y015728D02*
X008530Y015728D01*
X008477Y015887D02*
X008999Y015887D01*
X009120Y016045D02*
X008410Y016045D01*
X008130Y015680D02*
X008130Y016580D01*
X008130Y015680D02*
X008131Y015329D01*
X008131Y014781D01*
X011624Y014777D02*
X012380Y014777D01*
X012380Y014619D02*
X011754Y014619D01*
X012105Y014460D02*
X012380Y014460D01*
X012380Y014302D02*
X012291Y014302D01*
X012348Y014143D02*
X012380Y014143D01*
X012379Y013985D02*
X012380Y013985D01*
X012619Y018581D02*
X012666Y018581D01*
X009938Y018581D02*
X008747Y018581D01*
X010839Y022385D02*
X011150Y022385D01*
X011011Y022544D02*
X010758Y022544D01*
X011061Y023812D02*
X005739Y023812D01*
X005948Y023970D02*
X010953Y023970D01*
X010953Y024129D02*
X006157Y024129D01*
X006366Y024287D02*
X010953Y024287D01*
X010953Y024446D02*
X006579Y024446D01*
X006843Y024604D02*
X010953Y024604D01*
X014907Y024287D02*
X014953Y024287D01*
X014976Y024129D02*
X014907Y024129D01*
X014907Y023970D02*
X015065Y023970D01*
D16*
X017880Y014680D02*
X017880Y014180D01*
X017580Y013880D01*
X016130Y013880D01*
X016130Y010830D02*
X016130Y010580D01*
X017330Y009380D01*
X018380Y009380D01*
X011130Y012130D02*
X010060Y011060D01*
X010060Y010380D01*
X004580Y018847D02*
X004547Y018847D01*
D17*
X006230Y022230D03*
X008980Y025280D03*
X010430Y022280D03*
X009430Y021980D03*
X009430Y019180D03*
X010230Y018880D03*
X013530Y015980D03*
X013080Y015480D03*
X014030Y015480D03*
X014630Y017230D03*
X011930Y014080D03*
X011380Y014430D03*
X010880Y012980D03*
X010280Y012330D03*
X011130Y012130D03*
X009080Y010130D03*
X007480Y009680D03*
X006980Y010430D03*
X004980Y012230D03*
X010730Y009930D03*
X012730Y010030D03*
X013880Y011130D03*
X014280Y010730D03*
X013480Y011580D03*
X014230Y013180D03*
X014830Y012880D03*
X016130Y010830D03*
X016230Y008630D03*
X016980Y008630D03*
X017830Y007730D03*
X015680Y006980D03*
X012080Y008080D03*
X010630Y004330D03*
X021030Y006480D03*
X020830Y015630D03*
X020680Y016630D03*
X022156Y015672D03*
X017330Y021780D03*
X016830Y022180D03*
X017730Y024480D03*
X013280Y024380D03*
D18*
X010430Y022280D02*
X010280Y022130D01*
X010230Y018880D01*
X009430Y019180D02*
X009430Y021980D01*
X007430Y019830D02*
X008430Y018830D01*
X009230Y014480D02*
X010730Y012980D01*
X010880Y012980D01*
X010280Y012330D02*
X008380Y010430D01*
X006980Y010430D01*
X007480Y009680D02*
X008630Y009680D01*
X009080Y010130D01*
X010060Y010380D02*
X010060Y007550D01*
X010930Y006680D01*
X013480Y006680D01*
X014480Y007730D02*
X017830Y007730D01*
X016980Y008630D02*
X016230Y008630D01*
X014480Y007730D02*
X012330Y009880D01*
X012330Y010230D01*
X012380Y010280D01*
X012380Y013630D01*
X011930Y014080D01*
X011380Y013980D02*
X011380Y014430D01*
X011380Y013980D02*
X012130Y013230D01*
X012130Y010380D01*
X012080Y010330D01*
X012080Y008080D01*
X012730Y010030D02*
X012630Y010130D01*
X012630Y016430D01*
X014630Y018430D01*
X015630Y018430D01*
X015880Y018680D01*
X015880Y020480D01*
X017080Y020330D02*
X017080Y021380D01*
X016830Y021630D01*
X016830Y022180D01*
X017330Y021780D02*
X017330Y020380D01*
X018380Y019330D01*
X018380Y016080D01*
X018630Y015830D01*
X018630Y014280D01*
X017230Y012880D01*
X014830Y012880D01*
X014580Y013180D02*
X014630Y013230D01*
X015030Y013230D01*
X015080Y013180D01*
X017180Y013180D01*
X018380Y014380D01*
X018380Y015730D01*
X018130Y015980D01*
X018130Y019280D01*
X017080Y020330D01*
X015730Y018030D02*
X015630Y018030D01*
X016080Y016380D02*
X014930Y016380D01*
X015730Y015930D02*
X016380Y015930D01*
X017080Y015230D01*
X017280Y015230D01*
X020180Y014980D02*
X020180Y013280D01*
X019130Y012230D01*
X015680Y012230D01*
X016530Y011580D02*
X017230Y010880D01*
X018880Y010880D01*
X019380Y011380D01*
X020180Y014980D02*
X020830Y015630D01*
X020680Y016630D02*
X020680Y017330D01*
X019980Y018030D01*
X019980Y019330D01*
X021030Y020380D01*
X021233Y022983D02*
X021283Y022983D01*
X014030Y015480D02*
X014030Y015330D01*
X013330Y014630D01*
X013330Y013530D01*
X014280Y012580D01*
X014280Y010730D01*
X013880Y011130D02*
X014030Y011280D01*
X014030Y012530D01*
X013130Y013430D01*
X013130Y014930D01*
X013530Y015330D01*
X013530Y015980D01*
X013080Y015480D02*
X012930Y015330D01*
X012930Y013330D01*
X013780Y012480D01*
X013780Y011880D01*
X013480Y011580D01*
X014230Y013180D02*
X014580Y013180D01*
X007430Y014230D02*
X006530Y013330D01*
X006530Y012530D01*
D19*
X006530Y012530D03*
X007805Y012255D03*
X007430Y014230D03*
X008131Y014781D03*
X008130Y015680D03*
X008130Y016580D03*
X007480Y017880D03*
X008430Y018830D03*
X007430Y019830D03*
X004680Y016980D03*
X005730Y015230D03*
X009230Y014480D03*
X010730Y017180D03*
X011880Y017230D03*
X012830Y017180D03*
X014930Y016380D03*
X015730Y015930D03*
X016080Y016380D03*
X017280Y015230D03*
X017880Y014680D03*
X016130Y013880D03*
X014680Y013980D03*
X015680Y012230D03*
X016530Y011580D03*
X015030Y011030D03*
X013380Y012330D03*
X013480Y006680D03*
X020930Y013930D03*
X019180Y016580D03*
X020030Y017180D03*
X019780Y020430D03*
X019780Y021530D03*
X021030Y020380D03*
X018080Y020830D03*
X015880Y020480D03*
X015730Y018030D03*
M02*
