G75*
G70*
%OFA0B0*%
%FSLAX24Y24*%
%IPPOS*%
%LPD*%
%AMOC8*
5,1,8,0,0,1.08239X$1,22.5*
%
%ADD10R,0.0591X0.0160*%
%ADD11R,0.0160X0.0591*%
%ADD12R,0.0256X0.0413*%
%ADD13R,0.0394X0.0315*%
%ADD14R,0.0453X0.0591*%
%ADD15R,0.0315X0.0394*%
%ADD16R,0.0236X0.0276*%
%ADD17R,0.0945X0.0787*%
%ADD18R,0.0276X0.0236*%
%ADD19R,0.0110X0.0551*%
%ADD20R,0.0165X0.0165*%
%ADD21R,0.0394X0.0307*%
%ADD22R,0.0866X0.0157*%
%ADD23R,0.0433X0.0551*%
D10*
X012766Y010755D03*
X012766Y011070D03*
X012766Y011385D03*
X012766Y011700D03*
X012766Y012015D03*
X012766Y012330D03*
X012766Y012645D03*
X012766Y012960D03*
X012766Y013275D03*
X012766Y013590D03*
X012766Y013905D03*
X017294Y013905D03*
X017294Y013590D03*
X017294Y013275D03*
X017294Y012960D03*
X017294Y012645D03*
X017294Y012330D03*
X017294Y012015D03*
X017294Y011700D03*
X017294Y011385D03*
X017294Y011070D03*
X017294Y010755D03*
D11*
X016605Y010066D03*
X016290Y010066D03*
X015975Y010066D03*
X015660Y010066D03*
X015345Y010066D03*
X015030Y010066D03*
X014715Y010066D03*
X014400Y010066D03*
X014085Y010066D03*
X013770Y010066D03*
X013455Y010066D03*
X013455Y014594D03*
X013770Y014594D03*
X014085Y014594D03*
X014400Y014594D03*
X014715Y014594D03*
X015030Y014594D03*
X015345Y014594D03*
X015660Y014594D03*
X015975Y014594D03*
X016290Y014594D03*
X016605Y014594D03*
D12*
X009204Y011977D03*
X008456Y011977D03*
X008830Y012883D03*
D13*
X008180Y013135D03*
X008180Y013725D03*
X007430Y013725D03*
X007430Y013135D03*
X006680Y013135D03*
X006680Y013725D03*
X005930Y013725D03*
X005930Y013135D03*
X005180Y013135D03*
X005180Y013725D03*
G36*
X004299Y010679D02*
X004102Y011020D01*
X004373Y011177D01*
X004570Y010836D01*
X004299Y010679D01*
G37*
G36*
X003787Y010383D02*
X003590Y010724D01*
X003861Y010881D01*
X004058Y010540D01*
X003787Y010383D01*
G37*
G36*
X005181Y010499D02*
X004840Y010302D01*
X004683Y010573D01*
X005024Y010770D01*
X005181Y010499D01*
G37*
G36*
X005477Y009987D02*
X005136Y009790D01*
X004979Y010061D01*
X005320Y010258D01*
X005477Y009987D01*
G37*
G36*
X005383Y009323D02*
X005724Y009520D01*
X005881Y009249D01*
X005540Y009052D01*
X005383Y009323D01*
G37*
G36*
X005679Y008811D02*
X006020Y009008D01*
X006177Y008737D01*
X005836Y008540D01*
X005679Y008811D01*
G37*
X010730Y010435D03*
X010730Y011025D03*
X011780Y012035D03*
X011780Y012625D03*
X006780Y016785D03*
X006780Y017375D03*
X006030Y017375D03*
X006030Y016785D03*
X005280Y016785D03*
X005280Y017375D03*
G36*
X004840Y018258D02*
X005181Y018061D01*
X005024Y017790D01*
X004683Y017987D01*
X004840Y018258D01*
G37*
G36*
X005136Y018770D02*
X005477Y018573D01*
X005320Y018302D01*
X004979Y018499D01*
X005136Y018770D01*
G37*
G36*
X005724Y019040D02*
X005383Y019237D01*
X005540Y019508D01*
X005881Y019311D01*
X005724Y019040D01*
G37*
G36*
X006020Y019552D02*
X005679Y019749D01*
X005836Y020020D01*
X006177Y019823D01*
X006020Y019552D01*
G37*
G36*
X005952Y020490D02*
X006149Y020831D01*
X006420Y020674D01*
X006223Y020333D01*
X005952Y020490D01*
G37*
G36*
X005440Y020786D02*
X005637Y021127D01*
X005908Y020970D01*
X005711Y020629D01*
X005440Y020786D01*
G37*
X013030Y023335D03*
X013030Y023925D03*
X016380Y024135D03*
X016380Y024725D03*
X017580Y022875D03*
X017580Y022285D03*
G36*
X021212Y019743D02*
X020871Y019546D01*
X020714Y019817D01*
X021055Y020014D01*
X021212Y019743D01*
G37*
G36*
X021507Y019232D02*
X021166Y019035D01*
X021009Y019306D01*
X021350Y019503D01*
X021507Y019232D01*
G37*
G36*
X021414Y018605D02*
X021755Y018802D01*
X021912Y018531D01*
X021571Y018334D01*
X021414Y018605D01*
G37*
G36*
X021709Y018093D02*
X022050Y018290D01*
X022207Y018019D01*
X021866Y017822D01*
X021709Y018093D01*
G37*
G36*
X022585Y017830D02*
X022782Y017489D01*
X022511Y017332D01*
X022314Y017673D01*
X022585Y017830D01*
G37*
G36*
X023096Y018126D02*
X023293Y017785D01*
X023022Y017628D01*
X022825Y017969D01*
X023096Y018126D01*
G37*
X020180Y018225D03*
X020180Y017635D03*
X021880Y014775D03*
X021880Y014185D03*
X021880Y013625D03*
X021880Y013035D03*
G36*
X022020Y010252D02*
X021679Y010449D01*
X021836Y010720D01*
X022177Y010523D01*
X022020Y010252D01*
G37*
G36*
X021724Y009740D02*
X021383Y009937D01*
X021540Y010208D01*
X021881Y010011D01*
X021724Y009740D01*
G37*
G36*
X021136Y009520D02*
X021477Y009323D01*
X021320Y009052D01*
X020979Y009249D01*
X021136Y009520D01*
G37*
G36*
X020840Y009008D02*
X021181Y008811D01*
X021024Y008540D01*
X020683Y008737D01*
X020840Y009008D01*
G37*
G36*
X021258Y008020D02*
X021061Y007679D01*
X020790Y007836D01*
X020987Y008177D01*
X021258Y008020D01*
G37*
G36*
X021770Y007724D02*
X021573Y007383D01*
X021302Y007540D01*
X021499Y007881D01*
X021770Y007724D01*
G37*
X017330Y009235D03*
X017330Y009825D03*
X011830Y004775D03*
X011830Y004185D03*
D14*
X009224Y011180D03*
X008436Y011180D03*
X019386Y022380D03*
X020174Y022380D03*
X010524Y025280D03*
X009736Y025280D03*
D15*
X010785Y023480D03*
X011375Y023480D03*
X009325Y022830D03*
X008735Y022830D03*
X012485Y020630D03*
X013075Y020630D03*
X015685Y021180D03*
X016275Y021180D03*
X015925Y023530D03*
X015335Y023530D03*
X014525Y023530D03*
X013935Y023530D03*
X018685Y020430D03*
X019275Y020430D03*
X014825Y017780D03*
X014235Y017780D03*
X013625Y017780D03*
X013035Y017780D03*
X012425Y017780D03*
X011835Y017780D03*
X007075Y016180D03*
X006485Y016180D03*
X006335Y014330D03*
X006925Y014330D03*
X009185Y008630D03*
X009775Y008630D03*
X009775Y007930D03*
X009185Y007930D03*
X009185Y007230D03*
X009775Y007230D03*
X012435Y005030D03*
X013025Y005030D03*
X013835Y005030D03*
X014425Y005030D03*
X016535Y004980D03*
X017125Y004980D03*
X017075Y007730D03*
X016485Y007730D03*
D16*
X016456Y006974D03*
X017204Y006974D03*
X016830Y006186D03*
X014730Y020486D03*
X014356Y021274D03*
X015104Y021274D03*
X018656Y023136D03*
X019404Y023136D03*
X019030Y023924D03*
X009954Y024274D03*
X009206Y024274D03*
X009580Y023486D03*
D17*
X020780Y014717D03*
X020780Y013143D03*
D18*
G36*
X021911Y016020D02*
X021673Y015882D01*
X021555Y016086D01*
X021793Y016224D01*
X021911Y016020D01*
G37*
G36*
X022406Y016737D02*
X022168Y016599D01*
X022050Y016803D01*
X022288Y016941D01*
X022406Y016737D01*
G37*
G36*
X022780Y016090D02*
X022542Y015952D01*
X022424Y016156D01*
X022662Y016294D01*
X022780Y016090D01*
G37*
X017186Y023656D03*
X017186Y024404D03*
X017974Y024030D03*
G36*
X006656Y022061D02*
X006794Y022299D01*
X006998Y022181D01*
X006860Y021943D01*
X006656Y022061D01*
G37*
G36*
X005938Y021566D02*
X006076Y021804D01*
X006280Y021686D01*
X006142Y021448D01*
X005938Y021566D01*
G37*
G36*
X006586Y021192D02*
X006724Y021430D01*
X006928Y021312D01*
X006790Y021074D01*
X006586Y021192D01*
G37*
G36*
X005293Y012010D02*
X005531Y012148D01*
X005649Y011944D01*
X005411Y011806D01*
X005293Y012010D01*
G37*
G36*
X004798Y011292D02*
X005036Y011430D01*
X005154Y011226D01*
X004916Y011088D01*
X004798Y011292D01*
G37*
G36*
X004424Y011940D02*
X004662Y012078D01*
X004780Y011874D01*
X004542Y011736D01*
X004424Y011940D01*
G37*
X011074Y005054D03*
X011074Y004306D03*
X010286Y004680D03*
G36*
X020704Y006549D02*
X020566Y006311D01*
X020362Y006429D01*
X020500Y006667D01*
X020704Y006549D01*
G37*
G36*
X021422Y007044D02*
X021284Y006806D01*
X021080Y006924D01*
X021218Y007162D01*
X021422Y007044D01*
G37*
G36*
X020774Y007418D02*
X020636Y007180D01*
X020432Y007298D01*
X020570Y007536D01*
X020774Y007418D01*
G37*
D19*
X005924Y014464D03*
X005727Y014464D03*
X005530Y014464D03*
X005333Y014464D03*
X005136Y014464D03*
X005136Y016196D03*
X005333Y016196D03*
X005530Y016196D03*
X005727Y016196D03*
X005924Y016196D03*
D20*
X006570Y015486D03*
X006570Y015230D03*
X006570Y014974D03*
X007290Y014974D03*
X007290Y015230D03*
X007290Y015486D03*
D21*
X006930Y015427D03*
X006930Y015033D03*
D22*
X016550Y017023D03*
X016550Y017278D03*
X016550Y017534D03*
X016550Y017790D03*
X016550Y018046D03*
X016550Y018302D03*
X016550Y018558D03*
X016550Y018814D03*
X016550Y019070D03*
X016550Y019326D03*
X016550Y019582D03*
X016550Y019837D03*
X019210Y019837D03*
X019210Y019582D03*
X019210Y019326D03*
X019210Y019070D03*
X019210Y018814D03*
X019210Y018558D03*
X019210Y018302D03*
X019210Y018046D03*
X019210Y017790D03*
X019210Y017534D03*
X019210Y017278D03*
X019210Y017023D03*
D23*
X007165Y007789D03*
X007795Y007789D03*
X007795Y008971D03*
X007165Y008971D03*
M02*
