G75*
G70*
%OFA0B0*%
%FSLAX24Y24*%
%IPPOS*%
%LPD*%
%AMOC8*
5,1,8,0,0,1.08239X$1,22.5*
%
%ADD10C,0.0030*%
%ADD11C,0.0020*%
%ADD12C,0.0040*%
%ADD13C,0.0050*%
D10*
X007656Y014595D02*
X007903Y014595D01*
X007965Y014657D01*
X007965Y014780D01*
X007903Y014842D01*
X007965Y014963D02*
X007595Y014963D01*
X007656Y014842D02*
X007595Y014780D01*
X007595Y014657D01*
X007656Y014595D01*
X007780Y014963D02*
X007780Y015210D01*
X007903Y015332D02*
X007965Y015393D01*
X007965Y015517D01*
X007903Y015579D01*
X007780Y015579D01*
X007780Y015455D01*
X007903Y015332D02*
X007656Y015332D01*
X007595Y015393D01*
X007595Y015517D01*
X007656Y015579D01*
X007656Y015700D02*
X007718Y015700D01*
X007780Y015762D01*
X007780Y015885D01*
X007842Y015947D01*
X007903Y015947D01*
X007965Y015885D01*
X007965Y015762D01*
X007903Y015700D01*
X007656Y015700D02*
X007595Y015762D01*
X007595Y015885D01*
X007656Y015947D01*
X007595Y016068D02*
X007595Y016315D01*
X007595Y016192D02*
X007965Y016192D01*
X007965Y016437D02*
X007718Y016437D01*
X007595Y016560D01*
X007718Y016683D01*
X007965Y016683D01*
X007780Y016683D02*
X007780Y016437D01*
X007595Y016805D02*
X007595Y017052D01*
X007595Y017173D02*
X007903Y017173D01*
X007965Y017235D01*
X007965Y017358D01*
X007903Y017420D01*
X007595Y017420D01*
X007656Y017542D02*
X007718Y017542D01*
X007780Y017603D01*
X007780Y017727D01*
X007842Y017788D01*
X007903Y017788D01*
X007965Y017727D01*
X007965Y017603D01*
X007903Y017542D01*
X007656Y017542D02*
X007595Y017603D01*
X007595Y017727D01*
X007656Y017788D01*
X007595Y016928D02*
X007965Y016928D01*
X007965Y015210D02*
X007595Y015210D01*
X017395Y017677D02*
X017395Y017871D01*
X017395Y017774D02*
X017685Y017774D01*
X017685Y017972D02*
X017395Y017972D01*
X017395Y018117D01*
X017443Y018165D01*
X017492Y018165D01*
X017540Y018117D01*
X017540Y017972D01*
X017540Y018117D02*
X017588Y018165D01*
X017637Y018165D01*
X017685Y018117D01*
X017685Y017972D01*
X017637Y018266D02*
X017540Y018266D01*
X017540Y018412D01*
X017588Y018460D01*
X017637Y018460D01*
X017685Y018412D01*
X017685Y018315D01*
X017637Y018266D01*
X017540Y018266D02*
X017443Y018363D01*
X017395Y018460D01*
X017540Y018561D02*
X017540Y018706D01*
X017588Y018755D01*
X017637Y018755D01*
X017685Y018706D01*
X017685Y018609D01*
X017637Y018561D01*
X017540Y018561D01*
X017443Y018658D01*
X017395Y018755D01*
X017492Y018856D02*
X017395Y018952D01*
X017685Y018952D01*
X017685Y018856D02*
X017685Y019049D01*
X017685Y019150D02*
X017492Y019344D01*
X017443Y019344D01*
X017395Y019295D01*
X017395Y019199D01*
X017443Y019150D01*
X017685Y019150D02*
X017685Y019344D01*
X018346Y018952D02*
X018733Y018952D01*
X018685Y018904D02*
X018685Y019001D01*
X018637Y019049D01*
X018588Y019049D01*
X018540Y019001D01*
X018540Y018904D01*
X018492Y018856D01*
X018443Y018856D01*
X018395Y018904D01*
X018395Y019001D01*
X018443Y019049D01*
X018492Y019150D02*
X018395Y019247D01*
X018685Y019247D01*
X018685Y019150D02*
X018685Y019344D01*
X018685Y018904D02*
X018637Y018856D01*
X018637Y018755D02*
X018395Y018755D01*
X018395Y018561D02*
X018637Y018561D01*
X018685Y018609D01*
X018685Y018706D01*
X018637Y018755D01*
X018633Y015485D02*
X018584Y015437D01*
X018584Y015243D01*
X018633Y015195D01*
X018729Y015195D01*
X018778Y015243D01*
X018778Y015437D01*
X018729Y015485D01*
X018633Y015485D01*
X018483Y015485D02*
X018290Y015195D01*
X018483Y015195D02*
X018290Y015485D01*
X018188Y015485D02*
X017995Y015485D01*
X018092Y015485D02*
X018092Y015195D01*
X018045Y014485D02*
X018190Y014485D01*
X018238Y014437D01*
X018238Y014340D01*
X018190Y014292D01*
X018045Y014292D01*
X018142Y014292D02*
X018238Y014195D01*
X018340Y014195D02*
X018533Y014485D01*
X018634Y014485D02*
X018731Y014485D01*
X018683Y014485D02*
X018683Y014195D01*
X018731Y014195D02*
X018634Y014195D01*
X018533Y014195D02*
X018340Y014485D01*
X018045Y014485D02*
X018045Y014195D01*
D11*
X017990Y021090D02*
X018100Y021090D01*
X018137Y021127D01*
X018137Y021273D01*
X018100Y021310D01*
X017990Y021310D01*
X017990Y021090D01*
X018211Y021090D02*
X018211Y021237D01*
X018284Y021310D01*
X018358Y021237D01*
X018358Y021090D01*
X018358Y021200D02*
X018211Y021200D01*
X018432Y021310D02*
X018579Y021310D01*
X018505Y021310D02*
X018505Y021090D01*
X018653Y021090D02*
X018653Y021237D01*
X018726Y021310D01*
X018800Y021237D01*
X018800Y021090D01*
X018800Y021200D02*
X018653Y021200D01*
X013729Y021200D02*
X013692Y021163D01*
X013582Y021163D01*
X013582Y021090D02*
X013582Y021310D01*
X013692Y021310D01*
X013729Y021273D01*
X013729Y021200D01*
X013655Y021163D02*
X013729Y021090D01*
X013508Y021090D02*
X013508Y021310D01*
X013361Y021310D02*
X013361Y021090D01*
X013434Y021163D01*
X013508Y021090D01*
X013287Y021200D02*
X013250Y021163D01*
X013140Y021163D01*
X013140Y021090D02*
X013140Y021310D01*
X013250Y021310D01*
X013287Y021273D01*
X013287Y021200D01*
X008729Y021127D02*
X008729Y021273D01*
X008692Y021310D01*
X008582Y021310D01*
X008582Y021090D01*
X008692Y021090D01*
X008729Y021127D01*
X008508Y021090D02*
X008508Y021310D01*
X008361Y021310D02*
X008508Y021090D01*
X008361Y021090D02*
X008361Y021310D01*
X008287Y021273D02*
X008250Y021310D01*
X008177Y021310D01*
X008140Y021273D01*
X008140Y021127D01*
X008177Y021090D01*
X008250Y021090D01*
X008287Y021127D01*
X008287Y021200D01*
X008213Y021200D01*
D12*
X005100Y006477D02*
X005177Y006400D01*
X005330Y006400D01*
X005407Y006477D01*
X005407Y006553D01*
X005330Y006630D01*
X005177Y006630D01*
X005100Y006707D01*
X005100Y006784D01*
X005177Y006860D01*
X005330Y006860D01*
X005407Y006784D01*
X005560Y006707D02*
X005560Y006477D01*
X005637Y006400D01*
X005714Y006477D01*
X005791Y006400D01*
X005867Y006477D01*
X005867Y006707D01*
X006098Y006707D02*
X006251Y006707D01*
X006328Y006630D01*
X006328Y006400D01*
X006098Y006400D01*
X006021Y006477D01*
X006098Y006553D01*
X006328Y006553D01*
X006481Y006553D02*
X006635Y006707D01*
X006711Y006707D01*
X006865Y006707D02*
X006865Y006400D01*
X007018Y006400D02*
X007018Y006630D01*
X007095Y006707D01*
X007172Y006630D01*
X007172Y006400D01*
X007325Y006400D02*
X007555Y006400D01*
X007632Y006477D01*
X007632Y006553D01*
X007555Y006630D01*
X007325Y006630D01*
X007325Y006400D02*
X007325Y006860D01*
X007555Y006860D01*
X007632Y006784D01*
X007632Y006707D01*
X007555Y006630D01*
X007786Y006630D02*
X007786Y006477D01*
X007862Y006400D01*
X008016Y006400D01*
X008093Y006477D01*
X008093Y006630D01*
X008016Y006707D01*
X007862Y006707D01*
X007786Y006630D01*
X008246Y006477D02*
X008323Y006400D01*
X008553Y006400D01*
X008553Y006630D01*
X008476Y006707D01*
X008323Y006707D01*
X008323Y006553D02*
X008553Y006553D01*
X008706Y006553D02*
X008860Y006707D01*
X008937Y006707D01*
X009090Y006630D02*
X009167Y006707D01*
X009397Y006707D01*
X009397Y006860D02*
X009397Y006400D01*
X009167Y006400D01*
X009090Y006477D01*
X009090Y006630D01*
X008706Y006707D02*
X008706Y006400D01*
X008323Y006553D02*
X008246Y006477D01*
X008111Y005860D02*
X007958Y005860D01*
X007881Y005784D01*
X007728Y005630D02*
X007421Y005630D01*
X007267Y005400D02*
X006960Y005400D01*
X006807Y005400D02*
X006500Y005400D01*
X006653Y005400D02*
X006653Y005860D01*
X006500Y005707D01*
X006960Y005707D02*
X007114Y005860D01*
X007114Y005400D01*
X007881Y005400D02*
X008188Y005707D01*
X008188Y005784D01*
X008111Y005860D01*
X008342Y005630D02*
X008342Y005477D01*
X008418Y005400D01*
X008572Y005400D01*
X008648Y005477D01*
X008648Y005553D01*
X008572Y005630D01*
X008342Y005630D01*
X008495Y005784D01*
X008648Y005860D01*
X008802Y005630D02*
X009109Y005630D01*
X009262Y005707D02*
X009416Y005860D01*
X009416Y005400D01*
X009569Y005400D02*
X009262Y005400D01*
X009723Y005400D02*
X010030Y005707D01*
X010030Y005784D01*
X009953Y005860D01*
X009799Y005860D01*
X009723Y005784D01*
X009723Y005400D02*
X010030Y005400D01*
X009511Y004910D02*
X009358Y004910D01*
X009281Y004834D01*
X009281Y004527D01*
X009358Y004450D01*
X009511Y004450D01*
X009588Y004527D01*
X009588Y004834D02*
X009511Y004910D01*
X009128Y004834D02*
X009128Y004680D01*
X009051Y004603D01*
X008821Y004603D01*
X008821Y004450D02*
X008821Y004910D01*
X009051Y004910D01*
X009128Y004834D01*
X008974Y004603D02*
X009128Y004450D01*
X008667Y004680D02*
X008667Y004834D01*
X008591Y004910D01*
X008360Y004910D01*
X008360Y004450D01*
X008360Y004603D02*
X008591Y004603D01*
X008667Y004680D01*
X008207Y004527D02*
X008130Y004450D01*
X007977Y004450D01*
X007900Y004527D01*
X007900Y004834D01*
X007977Y004910D01*
X008130Y004910D01*
X008207Y004834D01*
X008188Y005400D02*
X007881Y005400D01*
X007018Y006630D02*
X006942Y006707D01*
X006865Y006707D01*
X006481Y006707D02*
X006481Y006400D01*
X010011Y006553D02*
X010164Y006400D01*
X010318Y006553D01*
X010318Y006860D01*
X010471Y006784D02*
X010548Y006860D01*
X010701Y006860D01*
X010778Y006784D01*
X010778Y006707D01*
X010471Y006400D01*
X010778Y006400D01*
X010011Y006553D02*
X010011Y006860D01*
D13*
X009992Y006980D02*
X009992Y007480D01*
X008968Y007480D01*
X008968Y006980D01*
X009992Y006980D01*
X009992Y007680D02*
X009992Y008180D01*
X008968Y008180D01*
X008968Y007680D01*
X009992Y007680D01*
X009992Y008380D02*
X009992Y008880D01*
X008968Y008880D01*
X008968Y008380D01*
X009992Y008380D01*
X008158Y009211D02*
X008160Y009230D01*
X008165Y009249D01*
X008175Y009265D01*
X008187Y009280D01*
X008202Y009292D01*
X008218Y009302D01*
X008237Y009307D01*
X008256Y009309D01*
X008275Y009307D01*
X008294Y009302D01*
X008310Y009292D01*
X008325Y009280D01*
X008337Y009265D01*
X008347Y009249D01*
X008352Y009230D01*
X008354Y009211D01*
X008352Y009192D01*
X008347Y009173D01*
X008337Y009157D01*
X008325Y009142D01*
X008310Y009130D01*
X008294Y009120D01*
X008275Y009115D01*
X008256Y009113D01*
X008237Y009115D01*
X008218Y009120D01*
X008202Y009130D01*
X008187Y009142D01*
X008175Y009157D01*
X008165Y009173D01*
X008160Y009192D01*
X008158Y009211D01*
X008031Y009010D02*
X008031Y007750D01*
X006929Y007750D01*
X006929Y009010D01*
X008031Y009010D01*
X008106Y010798D02*
X008106Y011562D01*
X009554Y011562D01*
X009554Y010798D01*
X008106Y010798D01*
X008291Y012273D02*
X008291Y012576D01*
X009369Y012576D01*
X009369Y012273D01*
X008291Y012273D01*
X008430Y012918D02*
X007930Y012918D01*
X007930Y013942D01*
X008430Y013942D01*
X008430Y012918D01*
X007680Y012918D02*
X007180Y012918D01*
X007180Y013942D01*
X007680Y013942D01*
X007680Y012918D01*
X006930Y012918D02*
X006930Y013942D01*
X006430Y013942D01*
X006430Y012918D01*
X006930Y012918D01*
X006180Y012918D02*
X006180Y013942D01*
X005680Y013942D01*
X005680Y012918D01*
X006180Y012918D01*
X005430Y012918D02*
X005430Y013942D01*
X004930Y013942D01*
X004930Y012918D01*
X005430Y012918D01*
X005102Y012537D02*
X005299Y012196D01*
X005102Y012537D02*
X004488Y012182D01*
X004744Y011739D02*
X004902Y011466D01*
X005158Y011023D02*
X005772Y011378D01*
X005575Y011718D01*
X005041Y010848D02*
X004608Y010598D01*
X005119Y009712D01*
X005552Y009962D01*
X005041Y010848D01*
X004648Y010819D02*
X004398Y011252D01*
X003512Y010741D01*
X003762Y010308D01*
X004648Y010819D01*
X005308Y009348D02*
X005741Y009598D01*
X006252Y008712D01*
X005819Y008462D01*
X005308Y009348D01*
X006118Y014080D02*
X006118Y014580D01*
X007142Y014580D01*
X007142Y014080D01*
X006118Y014080D01*
X006022Y014838D02*
X006022Y015822D01*
X005038Y015822D01*
X005038Y014838D01*
X006022Y014838D01*
X006536Y014836D02*
X007324Y014836D01*
X007324Y015624D01*
X006536Y015624D01*
X006536Y014836D01*
X005821Y015665D02*
X005823Y015678D01*
X005829Y015690D01*
X005838Y015699D01*
X005849Y015706D01*
X005862Y015709D01*
X005875Y015708D01*
X005887Y015703D01*
X005897Y015695D01*
X005905Y015684D01*
X005909Y015672D01*
X005909Y015658D01*
X005905Y015646D01*
X005897Y015635D01*
X005887Y015627D01*
X005875Y015622D01*
X005862Y015621D01*
X005849Y015624D01*
X005838Y015631D01*
X005829Y015640D01*
X005823Y015652D01*
X005821Y015665D01*
X006268Y015930D02*
X006268Y016430D01*
X007292Y016430D01*
X007292Y015930D01*
X006268Y015930D01*
X006308Y015742D02*
X006310Y015757D01*
X006315Y015770D01*
X006324Y015782D01*
X006335Y015792D01*
X006349Y015798D01*
X006363Y015801D01*
X006378Y015800D01*
X006392Y015795D01*
X006405Y015787D01*
X006415Y015777D01*
X006422Y015764D01*
X006426Y015749D01*
X006426Y015735D01*
X006422Y015720D01*
X006415Y015707D01*
X006405Y015697D01*
X006392Y015689D01*
X006378Y015684D01*
X006363Y015683D01*
X006349Y015686D01*
X006335Y015692D01*
X006324Y015702D01*
X006315Y015714D01*
X006310Y015727D01*
X006308Y015742D01*
X006368Y016541D02*
X006370Y016551D01*
X006375Y016560D01*
X006383Y016567D01*
X006393Y016571D01*
X006403Y016571D01*
X006413Y016567D01*
X006421Y016560D01*
X006426Y016551D01*
X006428Y016541D01*
X006426Y016531D01*
X006421Y016522D01*
X006413Y016515D01*
X006403Y016511D01*
X006393Y016511D01*
X006383Y016515D01*
X006375Y016522D01*
X006370Y016531D01*
X006368Y016541D01*
X006280Y016568D02*
X005780Y016568D01*
X005780Y017592D01*
X006280Y017592D01*
X006280Y016568D01*
X006530Y016568D02*
X007030Y016568D01*
X007030Y017592D01*
X006530Y017592D01*
X006530Y016568D01*
X005530Y016568D02*
X005530Y017592D01*
X005030Y017592D01*
X005030Y016568D01*
X005530Y016568D01*
X005041Y017712D02*
X004608Y017962D01*
X005119Y018848D01*
X005552Y018598D01*
X005041Y017712D01*
X005741Y018962D02*
X005308Y019212D01*
X005819Y020098D01*
X006252Y019848D01*
X005741Y018962D01*
X006248Y020258D02*
X006498Y020691D01*
X005612Y021202D01*
X005362Y020769D01*
X006248Y020258D01*
X007032Y021138D02*
X007387Y021752D01*
X007046Y021949D01*
X006568Y022225D02*
X006228Y022422D01*
X005873Y021808D01*
X006316Y021552D02*
X006589Y021394D01*
X008518Y022580D02*
X008518Y023080D01*
X009542Y023080D01*
X009542Y022580D01*
X008518Y022580D01*
X008911Y023526D02*
X009304Y023526D01*
X008911Y023526D02*
X008911Y024234D01*
X009423Y024234D02*
X009737Y024234D01*
X010249Y024234D02*
X010249Y023526D01*
X009856Y023526D01*
X010568Y023730D02*
X010568Y023230D01*
X011592Y023230D01*
X011592Y023730D01*
X010568Y023730D01*
X010854Y024898D02*
X009406Y024898D01*
X009406Y025662D01*
X010854Y025662D01*
X010854Y024898D01*
X012780Y024142D02*
X012780Y023118D01*
X013280Y023118D01*
X013280Y024142D01*
X012780Y024142D01*
X013718Y023780D02*
X013718Y023280D01*
X014742Y023280D01*
X014742Y023780D01*
X013718Y023780D01*
X015118Y023780D02*
X015118Y023280D01*
X016142Y023280D01*
X016142Y023780D01*
X015118Y023780D01*
X016130Y023918D02*
X016630Y023918D01*
X016630Y024942D01*
X016130Y024942D01*
X016130Y023918D01*
X017226Y023873D02*
X017226Y024187D01*
X017226Y024699D02*
X017934Y024699D01*
X017934Y024306D01*
X018361Y023884D02*
X018754Y023884D01*
X018361Y023884D02*
X018361Y023176D01*
X017934Y023361D02*
X017934Y023754D01*
X017934Y023361D02*
X017226Y023361D01*
X017330Y023092D02*
X017830Y023092D01*
X017830Y022068D01*
X017330Y022068D01*
X017330Y023092D01*
X018873Y023176D02*
X019187Y023176D01*
X019056Y022762D02*
X020504Y022762D01*
X020504Y021998D01*
X019056Y021998D01*
X019056Y022762D01*
X019699Y023176D02*
X019699Y023884D01*
X019306Y023884D01*
X016492Y021430D02*
X016492Y020930D01*
X015468Y020930D01*
X015468Y021430D01*
X016492Y021430D01*
X015399Y021234D02*
X015399Y020526D01*
X015006Y020526D01*
X014454Y020526D02*
X014061Y020526D01*
X014061Y021234D01*
X014573Y021234D02*
X014887Y021234D01*
X013292Y020880D02*
X013292Y020380D01*
X012268Y020380D01*
X012268Y020880D01*
X013292Y020880D01*
X012818Y018030D02*
X012818Y017530D01*
X013842Y017530D01*
X013842Y018030D01*
X012818Y018030D01*
X012642Y018030D02*
X012642Y017530D01*
X011618Y017530D01*
X011618Y018030D01*
X012642Y018030D01*
X014018Y018030D02*
X014018Y017530D01*
X015042Y017530D01*
X015042Y018030D01*
X014018Y018030D01*
X016837Y016816D02*
X018923Y016816D01*
X018880Y016130D02*
X018880Y013130D01*
X019880Y013130D01*
X019880Y016130D01*
X018880Y016130D01*
X019930Y017418D02*
X019930Y018442D01*
X020430Y018442D01*
X020430Y017418D01*
X019930Y017418D01*
X021338Y018630D02*
X021771Y018880D01*
X022283Y017994D01*
X021850Y017744D01*
X021338Y018630D01*
X021150Y018956D02*
X020638Y019843D01*
X021071Y020093D01*
X021583Y019206D01*
X021150Y018956D01*
X022235Y017690D02*
X022485Y017257D01*
X023372Y017768D01*
X023122Y018201D01*
X022235Y017690D01*
X022046Y017006D02*
X021433Y016652D01*
X021630Y016311D01*
X021905Y015834D02*
X022102Y015493D01*
X022716Y015847D01*
X022460Y016290D02*
X022302Y016563D01*
X022130Y014992D02*
X021630Y014992D01*
X021630Y013968D01*
X022130Y013968D01*
X022130Y014992D01*
X021410Y014914D02*
X021410Y012946D01*
X021630Y012818D02*
X022130Y012818D01*
X022130Y013842D01*
X021630Y013842D01*
X021630Y012818D01*
X020150Y012946D02*
X020150Y014914D01*
X017235Y014535D02*
X017235Y014220D01*
X017235Y014535D02*
X016920Y014535D01*
X017880Y011880D02*
X019880Y011880D01*
X019880Y011380D01*
X020130Y011380D01*
X020130Y009380D01*
X019880Y009380D01*
X019880Y008880D01*
X017880Y008880D01*
X017880Y011880D01*
X017235Y010440D02*
X017235Y010125D01*
X016920Y010125D01*
X017080Y010042D02*
X017580Y010042D01*
X017580Y009018D01*
X017080Y009018D01*
X017080Y010042D01*
X016535Y010755D02*
X016537Y010771D01*
X016542Y010786D01*
X016551Y010800D01*
X016563Y010811D01*
X016577Y010819D01*
X016593Y010824D01*
X016609Y010825D01*
X016625Y010822D01*
X016640Y010816D01*
X016653Y010806D01*
X016663Y010793D01*
X016671Y010779D01*
X016675Y010763D01*
X016675Y010747D01*
X016671Y010731D01*
X016663Y010717D01*
X016653Y010704D01*
X016640Y010694D01*
X016625Y010688D01*
X016609Y010685D01*
X016593Y010686D01*
X016577Y010691D01*
X016563Y010699D01*
X016551Y010710D01*
X016542Y010724D01*
X016537Y010739D01*
X016535Y010755D01*
X016268Y007980D02*
X016268Y007480D01*
X017292Y007480D01*
X017292Y007980D01*
X016268Y007980D01*
X016161Y006934D02*
X016161Y006226D01*
X016554Y006226D01*
X014328Y005730D02*
X014331Y005848D01*
X014340Y005965D01*
X014354Y006082D01*
X014374Y006199D01*
X014400Y006314D01*
X014431Y006427D01*
X014468Y006539D01*
X014511Y006649D01*
X014559Y006757D01*
X014612Y006862D01*
X014670Y006965D01*
X014733Y007064D01*
X014801Y007161D01*
X014873Y007254D01*
X014950Y007343D01*
X015032Y007428D01*
X015117Y007510D01*
X015206Y007587D01*
X015299Y007659D01*
X015396Y007727D01*
X015495Y007790D01*
X015598Y007848D01*
X015703Y007901D01*
X015811Y007949D01*
X015921Y007992D01*
X016033Y008029D01*
X016146Y008060D01*
X016261Y008086D01*
X016378Y008106D01*
X016495Y008120D01*
X016612Y008129D01*
X016730Y008132D01*
X016848Y008129D01*
X016965Y008120D01*
X017082Y008106D01*
X017199Y008086D01*
X017314Y008060D01*
X017427Y008029D01*
X017539Y007992D01*
X017649Y007949D01*
X017757Y007901D01*
X017862Y007848D01*
X017965Y007790D01*
X018064Y007727D01*
X018161Y007659D01*
X018254Y007587D01*
X018343Y007510D01*
X018428Y007428D01*
X018510Y007343D01*
X018587Y007254D01*
X018659Y007161D01*
X018727Y007064D01*
X018790Y006965D01*
X018848Y006862D01*
X018901Y006757D01*
X018949Y006649D01*
X018992Y006539D01*
X019029Y006427D01*
X019060Y006314D01*
X019086Y006199D01*
X019106Y006082D01*
X019120Y005965D01*
X019129Y005848D01*
X019132Y005730D01*
X019129Y005612D01*
X019120Y005495D01*
X019106Y005378D01*
X019086Y005261D01*
X019060Y005146D01*
X019029Y005033D01*
X018992Y004921D01*
X018949Y004811D01*
X018901Y004703D01*
X018848Y004598D01*
X018790Y004495D01*
X018727Y004396D01*
X018659Y004299D01*
X018587Y004206D01*
X018510Y004117D01*
X018428Y004032D01*
X018343Y003950D01*
X018254Y003873D01*
X018161Y003801D01*
X018064Y003733D01*
X017965Y003670D01*
X017862Y003612D01*
X017757Y003559D01*
X017649Y003511D01*
X017539Y003468D01*
X017427Y003431D01*
X017314Y003400D01*
X017199Y003374D01*
X017082Y003354D01*
X016965Y003340D01*
X016848Y003331D01*
X016730Y003328D01*
X016612Y003331D01*
X016495Y003340D01*
X016378Y003354D01*
X016261Y003374D01*
X016146Y003400D01*
X016033Y003431D01*
X015921Y003468D01*
X015811Y003511D01*
X015703Y003559D01*
X015598Y003612D01*
X015495Y003670D01*
X015396Y003733D01*
X015299Y003801D01*
X015206Y003873D01*
X015117Y003950D01*
X015032Y004032D01*
X014950Y004117D01*
X014873Y004206D01*
X014801Y004299D01*
X014733Y004396D01*
X014670Y004495D01*
X014612Y004598D01*
X014559Y004703D01*
X014511Y004811D01*
X014468Y004921D01*
X014431Y005033D01*
X014400Y005146D01*
X014374Y005261D01*
X014354Y005378D01*
X014340Y005495D01*
X014331Y005612D01*
X014328Y005730D01*
X014642Y005280D02*
X014642Y004780D01*
X013618Y004780D01*
X013618Y005280D01*
X014642Y005280D01*
X013242Y005280D02*
X013242Y004780D01*
X012218Y004780D01*
X012218Y005280D01*
X013242Y005280D01*
X012080Y004992D02*
X012080Y003968D01*
X011580Y003968D01*
X011580Y004992D01*
X012080Y004992D01*
X011034Y004837D02*
X011034Y004523D01*
X011034Y004011D02*
X010326Y004011D01*
X010326Y004404D01*
X010326Y004956D02*
X010326Y005349D01*
X011034Y005349D01*
X010980Y010218D02*
X010480Y010218D01*
X010480Y011242D01*
X010980Y011242D01*
X010980Y010218D01*
X009880Y010380D02*
X009882Y010438D01*
X009888Y010496D01*
X009898Y010553D01*
X009912Y010609D01*
X009929Y010665D01*
X009950Y010719D01*
X009975Y010771D01*
X010004Y010822D01*
X010036Y010870D01*
X010071Y010916D01*
X010109Y010960D01*
X010150Y011001D01*
X010194Y011039D01*
X010240Y011074D01*
X010288Y011106D01*
X010339Y011135D01*
X010391Y011160D01*
X010445Y011181D01*
X010501Y011198D01*
X010557Y011212D01*
X010614Y011222D01*
X010672Y011228D01*
X010730Y011230D01*
X010788Y011228D01*
X010846Y011222D01*
X010903Y011212D01*
X010959Y011198D01*
X011015Y011181D01*
X011069Y011160D01*
X011121Y011135D01*
X011172Y011106D01*
X011220Y011074D01*
X011266Y011039D01*
X011310Y011001D01*
X011351Y010960D01*
X011389Y010916D01*
X011424Y010870D01*
X011456Y010822D01*
X011485Y010771D01*
X011510Y010719D01*
X011531Y010665D01*
X011548Y010609D01*
X011562Y010553D01*
X011572Y010496D01*
X011578Y010438D01*
X011580Y010380D01*
X011578Y010322D01*
X011572Y010264D01*
X011562Y010207D01*
X011548Y010151D01*
X011531Y010095D01*
X011510Y010041D01*
X011485Y009989D01*
X011456Y009938D01*
X011424Y009890D01*
X011389Y009844D01*
X011351Y009800D01*
X011310Y009759D01*
X011266Y009721D01*
X011220Y009686D01*
X011172Y009654D01*
X011121Y009625D01*
X011069Y009600D01*
X011015Y009579D01*
X010959Y009562D01*
X010903Y009548D01*
X010846Y009538D01*
X010788Y009532D01*
X010730Y009530D01*
X010672Y009532D01*
X010614Y009538D01*
X010557Y009548D01*
X010501Y009562D01*
X010445Y009579D01*
X010391Y009600D01*
X010339Y009625D01*
X010288Y009654D01*
X010240Y009686D01*
X010194Y009721D01*
X010150Y009759D01*
X010109Y009800D01*
X010071Y009844D01*
X010036Y009890D01*
X010004Y009938D01*
X009975Y009989D01*
X009950Y010041D01*
X009929Y010095D01*
X009912Y010151D01*
X009898Y010207D01*
X009888Y010264D01*
X009882Y010322D01*
X009880Y010380D01*
X011530Y011818D02*
X011530Y012842D01*
X012030Y012842D01*
X012030Y011818D01*
X011530Y011818D01*
X012825Y010440D02*
X012825Y010125D01*
X013140Y010125D01*
X016673Y006934D02*
X016987Y006934D01*
X017499Y006934D02*
X017499Y006226D01*
X017106Y006226D01*
X017342Y005230D02*
X016318Y005230D01*
X016318Y004730D01*
X017342Y004730D01*
X017342Y005230D01*
X019973Y006858D02*
X020314Y006661D01*
X020792Y006385D02*
X021132Y006188D01*
X021487Y006802D01*
X021044Y007058D02*
X020771Y007216D01*
X020328Y007472D02*
X019973Y006858D01*
X020712Y007819D02*
X020962Y008252D01*
X021848Y007741D01*
X021598Y007308D01*
X020712Y007819D01*
X021041Y008462D02*
X020608Y008712D01*
X021119Y009598D01*
X021552Y009348D01*
X021041Y008462D01*
X021741Y009662D02*
X021308Y009912D01*
X021819Y010798D01*
X022252Y010548D01*
X021741Y009662D01*
X019880Y009380D02*
X019880Y011380D01*
X013140Y014535D02*
X012825Y014535D01*
X012825Y014220D01*
X009930Y015180D02*
X009930Y018180D01*
X008930Y018180D01*
X008930Y015180D01*
X009930Y015180D01*
X016837Y020044D02*
X018923Y020044D01*
X018468Y020180D02*
X018468Y020680D01*
X019492Y020680D01*
X019492Y020180D01*
X018468Y020180D01*
X017033Y019965D02*
X017035Y019983D01*
X017041Y019999D01*
X017050Y020014D01*
X017063Y020027D01*
X017078Y020036D01*
X017094Y020042D01*
X017112Y020044D01*
X017130Y020042D01*
X017146Y020036D01*
X017161Y020027D01*
X017174Y020014D01*
X017183Y019999D01*
X017189Y019983D01*
X017191Y019965D01*
X017189Y019947D01*
X017183Y019931D01*
X017174Y019916D01*
X017161Y019903D01*
X017146Y019894D01*
X017130Y019888D01*
X017112Y019886D01*
X017094Y019888D01*
X017078Y019894D01*
X017063Y019903D01*
X017050Y019916D01*
X017041Y019931D01*
X017035Y019947D01*
X017033Y019965D01*
M02*
