G75*
G70*
%OFA0B0*%
%FSLAX24Y24*%
%IPPOS*%
%LPD*%
%AMOC8*
5,1,8,0,0,1.08239X$1,22.5*
%
%ADD10R,0.0635X0.0635*%
%ADD11C,0.0635*%
%ADD12C,0.0520*%
%ADD13R,0.0635X0.0635*%
%ADD14C,0.1280*%
D10*
X012930Y005780D03*
X013930Y004280D03*
X018380Y009380D03*
X015430Y022780D03*
X014430Y024280D03*
X012430Y022780D03*
X011430Y024280D03*
D11*
X012430Y024280D03*
X011430Y022780D03*
X013430Y021780D03*
X014430Y022780D03*
X015430Y024280D03*
X018380Y021780D03*
X020566Y018968D03*
X022317Y018835D03*
X019380Y015630D03*
X019380Y014630D03*
X019380Y013630D03*
X019380Y011380D03*
X018380Y011380D03*
X018380Y010380D03*
X019380Y010380D03*
X019380Y009380D03*
X021040Y010463D03*
X021780Y008847D03*
X017730Y005730D03*
X015730Y005730D03*
X013930Y005780D03*
X012930Y004280D03*
X006320Y009597D03*
X004580Y009713D03*
X009430Y015680D03*
X009430Y016680D03*
X009430Y017680D03*
X011461Y018886D03*
X011461Y019674D03*
X012249Y019674D03*
X013036Y019674D03*
X013036Y018886D03*
X012249Y018886D03*
X013824Y018886D03*
X014611Y018886D03*
X015399Y018886D03*
X015399Y019674D03*
X014611Y019674D03*
X013824Y019674D03*
X008430Y021780D03*
X005080Y019713D03*
X005820Y018097D03*
D12*
X010060Y010380D03*
X011397Y010380D03*
D13*
G36*
X005196Y009280D02*
X005513Y008731D01*
X004964Y008414D01*
X004647Y008963D01*
X005196Y009280D01*
G37*
G36*
X005704Y010030D02*
X005387Y010579D01*
X005936Y010896D01*
X006253Y010347D01*
X005704Y010030D01*
G37*
G36*
X005013Y018963D02*
X004696Y018414D01*
X004147Y018731D01*
X004464Y019280D01*
X005013Y018963D01*
G37*
G36*
X005887Y018847D02*
X006204Y019396D01*
X006753Y019079D01*
X006436Y018530D01*
X005887Y018847D01*
G37*
G36*
X020973Y009713D02*
X020656Y009164D01*
X020107Y009481D01*
X020424Y010030D01*
X020973Y009713D01*
G37*
G36*
X021847Y009597D02*
X022164Y010146D01*
X022713Y009829D01*
X022396Y009280D01*
X021847Y009597D01*
G37*
G36*
X021182Y018535D02*
X021499Y017986D01*
X020950Y017669D01*
X020633Y018218D01*
X021182Y018535D01*
G37*
G36*
X021701Y019268D02*
X021384Y019817D01*
X021933Y020134D01*
X022250Y019585D01*
X021701Y019268D01*
G37*
D14*
X023430Y014280D03*
X003430Y014280D03*
M02*
