%
M48
M72
T01C0.0200
T02C0.0236
T03C0.0315
T04C0.0800
%
T01
X10060Y10380
X11397Y10380
X13380Y12330
X14680Y13980
X16130Y13880
X17280Y15230
X17880Y14680
X19180Y16580
X20030Y17180
X19780Y20430
X19780Y21530
X21030Y20380
X18080Y20830
X15880Y20480
X15730Y18030
X16080Y16380
X15730Y15930
X14930Y16380
X12830Y17180
X11880Y17230
X10730Y17180
X8430Y18830
X7430Y19830
X7480Y17880
X8130Y16580
X8130Y15680
X8131Y14781
X7430Y14230
X9230Y14480
X7805Y12255
X6530Y12530
X5730Y15230
X4680Y16980
X15030Y11030
X15680Y12230
X16530Y11580
X20930Y13930
X13480Y6680
T02
X12080Y8080
X12730Y10030
X13880Y11130
X14280Y10730
X13480Y11580
X14230Y13180
X14830Y12880
X16130Y10830
X16230Y8630
X16980Y8630
X17830Y7730
X15680Y6980
X10730Y9930
X9080Y10130
X7480Y9680
X6980Y10430
X4980Y12230
X10280Y12330
X11130Y12130
X10880Y12980
X11930Y14080
X11380Y14430
X13080Y15480
X13530Y15980
X14030Y15480
X14630Y17230
X10230Y18880
X9430Y19180
X9430Y21980
X10430Y22280
X13280Y24380
X16830Y22180
X17330Y21780
X17730Y24480
X20680Y16630
X20830Y15630
X22156Y15672
X21030Y6480
X10630Y4330
X6230Y22230
X8980Y25280
T03
X5080Y8847
X4580Y9713
X5820Y10463
X6320Y9597
X9430Y15680
X9430Y16680
X9430Y17680
X11461Y18886
X11461Y19674
X12249Y19674
X13036Y19674
X13036Y18886
X12249Y18886
X13824Y18886
X14611Y18886
X15399Y18886
X15399Y19674
X14611Y19674
X13824Y19674
X13430Y21780
X12430Y22780
X11430Y22780
X11430Y24280
X12430Y24280
X14430Y24280
X15430Y24280
X15430Y22780
X14430Y22780
X18380Y21780
X20566Y18968
X21066Y18102
X22317Y18835
X21817Y19701
X19380Y15630
X19380Y14630
X19380Y13630
X19380Y11380
X18380Y11380
X18380Y10380
X18380Y9380
X19380Y9380
X19380Y10380
X20540Y9597
X21040Y10463
X22280Y9713
X21780Y8847
X17730Y5730
X15730Y5730
X13930Y5780
X12930Y5780
X12930Y4280
X13930Y4280
X5820Y18097
X6320Y18963
X5080Y19713
X4580Y18847
X8430Y21780
T04
X3430Y14280
X23430Y14280
M30
