G75*
G70*
%OFA0B0*%
%FSLAX24Y24*%
%IPPOS*%
%LPD*%
%AMOC8*
5,1,8,0,0,1.08239X$1,22.5*
%
%ADD10R,0.0635X0.0635*%
%ADD11C,0.0635*%
%ADD12R,0.0635X0.0635*%
%ADD13C,0.1280*%
%ADD14C,0.0674*%
%ADD15C,0.0980*%
%ADD16C,0.0780*%
%ADD17C,0.0720*%
D10*
X005150Y013474D03*
D11*
X004150Y013474D03*
X004150Y012474D03*
X005150Y012474D03*
X005150Y011474D03*
X004150Y011474D03*
X003650Y006974D03*
X002650Y006974D03*
X001650Y006974D03*
X001650Y004974D03*
X002650Y004974D03*
X003650Y004974D03*
X005650Y005124D03*
X006650Y005124D03*
X006650Y004124D03*
X005650Y004124D03*
X005650Y003124D03*
X006650Y003124D03*
X007650Y003124D03*
X008650Y003124D03*
X009650Y003124D03*
X010650Y003124D03*
X011650Y003124D03*
X012650Y003124D03*
X013650Y003124D03*
X014650Y003124D03*
X014650Y004124D03*
X013650Y004124D03*
X012650Y004124D03*
X011650Y004124D03*
X010650Y004124D03*
X009650Y004124D03*
X008650Y004124D03*
X007650Y004124D03*
X007650Y005124D03*
X008650Y005124D03*
X009650Y005124D03*
X010650Y005124D03*
X011650Y005124D03*
X012650Y005124D03*
X013650Y005124D03*
X014650Y005124D03*
X010400Y001774D03*
X009400Y001774D03*
X008400Y001774D03*
X007400Y001774D03*
X021100Y010574D03*
X021100Y011574D03*
X021100Y012574D03*
X021100Y013574D03*
X023950Y017899D03*
X024950Y017899D03*
X025950Y017899D03*
X030783Y017745D03*
X034056Y015923D03*
X035429Y012441D03*
X035171Y008541D03*
X033349Y005318D03*
X029867Y003945D03*
X030025Y009974D03*
X030025Y010974D03*
X030025Y011974D03*
X007250Y023024D03*
X007250Y025024D03*
D12*
G36*
X030041Y017616D02*
X029429Y017780D01*
X029593Y018392D01*
X030205Y018228D01*
X030041Y017616D01*
G37*
G36*
X033349Y016182D02*
X032901Y016630D01*
X033349Y017078D01*
X033797Y016630D01*
X033349Y016182D01*
G37*
G36*
X034947Y013019D02*
X034783Y013631D01*
X035395Y013795D01*
X035559Y013183D01*
X034947Y013019D01*
G37*
G36*
X035041Y009283D02*
X035205Y009895D01*
X035817Y009731D01*
X035653Y009119D01*
X035041Y009283D01*
G37*
G36*
X033608Y006025D02*
X034056Y006473D01*
X034504Y006025D01*
X034056Y005577D01*
X033608Y006025D01*
G37*
G36*
X030445Y004428D02*
X031057Y004592D01*
X031221Y003980D01*
X030609Y003816D01*
X030445Y004428D01*
G37*
D13*
X001650Y002474D03*
X026150Y002474D03*
X029900Y006974D03*
X034900Y010974D03*
X029900Y014974D03*
X026150Y026974D03*
X001650Y026974D03*
D14*
X025700Y014608D03*
X025700Y012640D03*
D15*
X020250Y019249D03*
X020250Y024499D03*
X014250Y024499D03*
X014250Y019249D03*
D16*
X016000Y018874D03*
X016000Y016874D03*
X018500Y016874D03*
X018500Y018874D03*
X021250Y020874D03*
X021250Y021874D03*
X021250Y022874D03*
X018250Y025874D03*
X017250Y025874D03*
X016250Y025874D03*
D17*
X004140Y022924D02*
X004140Y022284D01*
X002360Y022284D02*
X002360Y022924D01*
X002360Y020364D02*
X002360Y019724D01*
X004140Y019724D02*
X004140Y020364D01*
M02*
