G75*
G70*
%OFA0B0*%
%FSLAX24Y24*%
%IPPOS*%
%LPD*%
%AMOC8*
5,1,8,0,0,1.08239X$1,22.5*
%
%ADD10R,0.0591X0.0160*%
%ADD11R,0.0160X0.0591*%
%ADD12R,0.0394X0.0315*%
%ADD13R,0.0236X0.0276*%
%ADD14R,0.0276X0.0236*%
%ADD15R,0.0315X0.0394*%
%ADD16R,0.0453X0.0591*%
%ADD17R,0.0689X0.0256*%
%ADD18R,0.2283X0.2441*%
%ADD19R,0.0630X0.1181*%
%ADD20R,0.0591X0.0453*%
%ADD21R,0.0283X0.0701*%
%ADD22R,0.1100X0.1500*%
%ADD23R,0.0945X0.0787*%
%ADD24R,0.0433X0.0551*%
%ADD25R,0.0866X0.0236*%
D10*
X007386Y009399D03*
X007386Y009714D03*
X007386Y010029D03*
X007386Y010344D03*
X007386Y010659D03*
X007386Y010974D03*
X007386Y011289D03*
X007386Y011604D03*
X007386Y011919D03*
X007386Y012234D03*
X007386Y012549D03*
X011914Y012549D03*
X011914Y012234D03*
X011914Y011919D03*
X011914Y011604D03*
X011914Y011289D03*
X011914Y010974D03*
X011914Y010659D03*
X011914Y010344D03*
X011914Y010029D03*
X011914Y009714D03*
X011914Y009399D03*
D11*
X011225Y008710D03*
X010910Y008710D03*
X010595Y008710D03*
X010280Y008710D03*
X009965Y008710D03*
X009650Y008710D03*
X009335Y008710D03*
X009020Y008710D03*
X008705Y008710D03*
X008390Y008710D03*
X008075Y008710D03*
X008075Y013238D03*
X008390Y013238D03*
X008705Y013238D03*
X009020Y013238D03*
X009335Y013238D03*
X009650Y013238D03*
X009965Y013238D03*
X010280Y013238D03*
X010595Y013238D03*
X010910Y013238D03*
X011225Y013238D03*
D12*
X005650Y006079D03*
X005650Y006669D03*
X006650Y006669D03*
X006650Y006079D03*
X007650Y006079D03*
X007650Y006669D03*
X008650Y006669D03*
X008650Y006079D03*
X009650Y006079D03*
X009650Y006669D03*
X010650Y006669D03*
X010650Y006079D03*
X011650Y006079D03*
X011650Y006669D03*
X012650Y006669D03*
X012650Y006079D03*
X013650Y006079D03*
X013650Y006669D03*
X014650Y006669D03*
X014650Y006079D03*
X016425Y007954D03*
X016425Y008544D03*
X015200Y009979D03*
X015200Y010569D03*
X016550Y012179D03*
X016550Y012769D03*
X013000Y011119D03*
X013000Y010529D03*
X006700Y016529D03*
X006700Y017119D03*
X005100Y020929D03*
X005100Y021519D03*
X010475Y023704D03*
X010475Y024294D03*
X020975Y016969D03*
X020975Y016379D03*
X021775Y016379D03*
X021775Y016969D03*
X031400Y011894D03*
X031400Y011304D03*
X032150Y011304D03*
X032150Y011894D03*
X032900Y011894D03*
X032900Y011304D03*
X033650Y011304D03*
X033650Y011894D03*
X032275Y017804D03*
X032275Y018394D03*
X029775Y005519D03*
X029775Y004929D03*
X032400Y004644D03*
X032400Y004054D03*
X020275Y003979D03*
X020275Y004569D03*
X020275Y003344D03*
X020275Y002754D03*
X002650Y011679D03*
X002650Y012269D03*
X001550Y010369D03*
X001550Y009779D03*
X001550Y009169D03*
X001550Y008579D03*
D13*
X010101Y022105D03*
X010849Y022105D03*
X010475Y022893D03*
D14*
X020144Y014698D03*
X020144Y013950D03*
X019356Y014324D03*
X020144Y012898D03*
X020144Y012150D03*
X019356Y012524D03*
X020144Y011148D03*
X020144Y010400D03*
X019356Y010774D03*
X032631Y009973D03*
X033419Y009599D03*
X032631Y009225D03*
D15*
X031695Y009974D03*
X031105Y009974D03*
X035230Y007099D03*
X035820Y007099D03*
X035980Y011474D03*
X036570Y011474D03*
X035445Y015099D03*
X034855Y015099D03*
X024745Y021024D03*
X024155Y021024D03*
X024155Y021774D03*
X024745Y021774D03*
X024745Y022524D03*
X024155Y022524D03*
X024155Y023274D03*
X024745Y023274D03*
X018745Y013924D03*
X018155Y013924D03*
X018155Y012124D03*
X018745Y012124D03*
X018745Y010374D03*
X018155Y010374D03*
X015895Y011874D03*
X015305Y011874D03*
X007245Y015574D03*
X006655Y015574D03*
X010180Y021499D03*
X010770Y021499D03*
X023255Y002824D03*
X023845Y002824D03*
D16*
X024506Y005724D03*
X025294Y005724D03*
X031381Y013224D03*
X032169Y013224D03*
X032169Y014224D03*
X031381Y014224D03*
X024844Y019149D03*
X024056Y019149D03*
X024056Y020149D03*
X024844Y020149D03*
D17*
X020127Y008999D03*
X020127Y008499D03*
X020127Y007999D03*
X020127Y007499D03*
X017923Y007499D03*
X017923Y007999D03*
X017923Y008499D03*
X017923Y008999D03*
D18*
X024950Y009524D03*
D19*
X024052Y007166D03*
X025848Y007166D03*
D20*
X022350Y007630D03*
X022350Y008418D03*
D21*
X022525Y004670D03*
X022025Y004670D03*
X021525Y004670D03*
X021025Y004670D03*
X021025Y002828D03*
X021525Y002828D03*
X022025Y002828D03*
X022525Y002828D03*
D22*
X019055Y002624D03*
X016245Y002624D03*
X016245Y005624D03*
X019055Y005624D03*
D23*
X002650Y008687D03*
X002650Y010262D03*
D24*
X015935Y009984D03*
X016565Y009984D03*
X016565Y011165D03*
X015935Y011165D03*
D25*
X005580Y015074D03*
X005580Y015574D03*
X005580Y016074D03*
X005580Y016574D03*
X005580Y017074D03*
X005580Y017574D03*
X005580Y018074D03*
X005580Y018574D03*
X001810Y018574D03*
X001810Y018074D03*
X001810Y017574D03*
X001810Y017074D03*
X001810Y016574D03*
X001810Y016074D03*
X001810Y015574D03*
X001810Y015074D03*
M02*
