G75*
G70*
%OFA0B0*%
%FSLAX24Y24*%
%IPPOS*%
%LPD*%
%AMOC8*
5,1,8,0,0,1.08239X$1,22.5*
%
%ADD10R,0.0555X0.0555*%
%ADD11C,0.0555*%
%ADD12R,0.0555X0.0555*%
%ADD13C,0.1200*%
%ADD14C,0.0594*%
%ADD15C,0.0900*%
%ADD16C,0.0700*%
%ADD17C,0.0640*%
%ADD18C,0.0100*%
%ADD19C,0.0400*%
%ADD20C,0.0160*%
%ADD21C,0.0240*%
%ADD22C,0.0080*%
%ADD23C,0.0120*%
D10*
X005150Y013474D03*
D11*
X004150Y013474D03*
X004150Y012474D03*
X005150Y012474D03*
X005150Y011474D03*
X004150Y011474D03*
X003650Y006974D03*
X002650Y006974D03*
X001650Y006974D03*
X001650Y004974D03*
X002650Y004974D03*
X003650Y004974D03*
X005650Y005124D03*
X006650Y005124D03*
X006650Y004124D03*
X005650Y004124D03*
X005650Y003124D03*
X006650Y003124D03*
X007650Y003124D03*
X008650Y003124D03*
X009650Y003124D03*
X010650Y003124D03*
X011650Y003124D03*
X012650Y003124D03*
X013650Y003124D03*
X014650Y003124D03*
X014650Y004124D03*
X013650Y004124D03*
X012650Y004124D03*
X011650Y004124D03*
X010650Y004124D03*
X009650Y004124D03*
X008650Y004124D03*
X007650Y004124D03*
X007650Y005124D03*
X008650Y005124D03*
X009650Y005124D03*
X010650Y005124D03*
X011650Y005124D03*
X012650Y005124D03*
X013650Y005124D03*
X014650Y005124D03*
X010400Y001774D03*
X009400Y001774D03*
X008400Y001774D03*
X007400Y001774D03*
X021100Y010574D03*
X021100Y011574D03*
X021100Y012574D03*
X021100Y013574D03*
X023950Y017899D03*
X024950Y017899D03*
X025950Y017899D03*
X030783Y017745D03*
X034056Y015923D03*
X035429Y012441D03*
X035171Y008541D03*
X033349Y005318D03*
X029867Y003945D03*
X030025Y009974D03*
X030025Y010974D03*
X030025Y011974D03*
X007250Y023024D03*
X007250Y025024D03*
D12*
G36*
X030012Y017665D02*
X029478Y017809D01*
X029622Y018343D01*
X030156Y018199D01*
X030012Y017665D01*
G37*
G36*
X033349Y016239D02*
X032958Y016630D01*
X033349Y017021D01*
X033740Y016630D01*
X033349Y016239D01*
G37*
G36*
X034976Y013068D02*
X034832Y013602D01*
X035366Y013746D01*
X035510Y013212D01*
X034976Y013068D01*
G37*
G36*
X035090Y009312D02*
X035234Y009846D01*
X035768Y009702D01*
X035624Y009168D01*
X035090Y009312D01*
G37*
G36*
X033665Y006025D02*
X034056Y006416D01*
X034447Y006025D01*
X034056Y005634D01*
X033665Y006025D01*
G37*
G36*
X030494Y004399D02*
X031028Y004543D01*
X031172Y004009D01*
X030638Y003865D01*
X030494Y004399D01*
G37*
D13*
X029900Y006974D03*
X034900Y010974D03*
X029900Y014974D03*
X026150Y026974D03*
X001650Y026974D03*
X001650Y002474D03*
X026150Y002474D03*
D14*
X025700Y012640D03*
X025700Y014608D03*
D15*
X020250Y019249D03*
X020250Y024499D03*
X014250Y024499D03*
X014250Y019249D03*
D16*
X016000Y018874D03*
X016000Y016874D03*
X018500Y016874D03*
X018500Y018874D03*
X021250Y020874D03*
X021250Y021874D03*
X021250Y022874D03*
X018250Y025874D03*
X017250Y025874D03*
X016250Y025874D03*
D17*
X004140Y022924D02*
X004140Y022284D01*
X002360Y022284D02*
X002360Y022924D01*
X002360Y020364D02*
X002360Y019724D01*
X004140Y019724D02*
X004140Y020364D01*
D18*
X000340Y028284D02*
X000340Y001164D01*
X027700Y001164D01*
X027700Y002384D01*
X027571Y002384D01*
X027460Y002495D01*
X027460Y028284D01*
X000340Y028284D01*
X000340Y028259D02*
X027460Y028259D01*
X027460Y028160D02*
X000340Y028160D01*
X000340Y028062D02*
X027460Y028062D01*
X027460Y027963D02*
X000340Y027963D01*
X000340Y027865D02*
X027460Y027865D01*
X027460Y027766D02*
X000340Y027766D01*
X000340Y027668D02*
X001417Y027668D01*
X001505Y027704D02*
X001236Y027593D01*
X001031Y027388D01*
X000920Y027119D01*
X000920Y026829D01*
X001031Y026561D01*
X001236Y026355D01*
X001505Y026244D01*
X001795Y026244D01*
X002064Y026355D01*
X002269Y026561D01*
X002380Y026829D01*
X002380Y027119D01*
X002269Y027388D01*
X002064Y027593D01*
X001795Y027704D01*
X001505Y027704D01*
X001213Y027569D02*
X000340Y027569D01*
X000340Y027471D02*
X001114Y027471D01*
X001025Y027372D02*
X000340Y027372D01*
X000340Y027274D02*
X000984Y027274D01*
X000943Y027175D02*
X000340Y027175D01*
X000340Y027077D02*
X000920Y027077D01*
X000920Y026978D02*
X000340Y026978D01*
X000340Y026880D02*
X000920Y026880D01*
X000940Y026781D02*
X000340Y026781D01*
X000340Y026683D02*
X000981Y026683D01*
X001021Y026584D02*
X000340Y026584D01*
X000340Y026486D02*
X001106Y026486D01*
X001205Y026387D02*
X000340Y026387D01*
X000340Y026289D02*
X001397Y026289D01*
X001903Y026289D02*
X016997Y026289D01*
X016978Y026281D02*
X016843Y026146D01*
X016770Y025970D01*
X016770Y025779D01*
X016843Y025602D01*
X016978Y025467D01*
X017155Y025394D01*
X017345Y025394D01*
X017522Y025467D01*
X017657Y025602D01*
X017730Y025779D01*
X017730Y025970D01*
X017657Y026146D01*
X017522Y026281D01*
X017345Y026354D01*
X017155Y026354D01*
X016978Y026281D01*
X016887Y026190D02*
X000340Y026190D01*
X000340Y026092D02*
X016821Y026092D01*
X016780Y025993D02*
X000340Y025993D01*
X000340Y025895D02*
X016770Y025895D01*
X016770Y025796D02*
X000340Y025796D01*
X000340Y025698D02*
X016804Y025698D01*
X016846Y025599D02*
X000340Y025599D01*
X000340Y025501D02*
X016945Y025501D01*
X017135Y025402D02*
X007402Y025402D01*
X007331Y025432D02*
X007169Y025432D01*
X007019Y025370D01*
X006905Y025255D01*
X006843Y025105D01*
X006843Y024943D01*
X006905Y024793D01*
X007019Y024679D01*
X007169Y024617D01*
X007331Y024617D01*
X007481Y024679D01*
X007595Y024793D01*
X007657Y024943D01*
X007657Y025105D01*
X007595Y025255D01*
X007481Y025370D01*
X007331Y025432D01*
X007098Y025402D02*
X000340Y025402D01*
X000340Y025304D02*
X006953Y025304D01*
X006884Y025205D02*
X000340Y025205D01*
X000340Y025107D02*
X006843Y025107D01*
X006843Y025008D02*
X000340Y025008D01*
X000340Y024910D02*
X006856Y024910D01*
X006897Y024811D02*
X000340Y024811D01*
X000340Y024713D02*
X006985Y024713D01*
X007515Y024713D02*
X013711Y024713D01*
X013751Y024811D02*
X007603Y024811D01*
X007644Y024910D02*
X013840Y024910D01*
X013921Y024991D02*
X013758Y024828D01*
X013670Y024615D01*
X013670Y024384D01*
X013758Y024171D01*
X013921Y024007D01*
X014135Y023919D01*
X014365Y023919D01*
X014579Y024007D01*
X014742Y024171D01*
X014830Y024384D01*
X014830Y024615D01*
X014742Y024828D01*
X014579Y024991D01*
X014365Y025079D01*
X014135Y025079D01*
X013921Y024991D01*
X013963Y025008D02*
X007657Y025008D01*
X007657Y025107D02*
X027460Y025107D01*
X027460Y025205D02*
X007616Y025205D01*
X007547Y025304D02*
X027460Y025304D01*
X027460Y025402D02*
X018365Y025402D01*
X018345Y025394D02*
X018522Y025467D01*
X018657Y025602D01*
X018730Y025779D01*
X018730Y025970D01*
X018657Y026146D01*
X018522Y026281D01*
X018345Y026354D01*
X018155Y026354D01*
X017978Y026281D01*
X017843Y026146D01*
X017770Y025970D01*
X017770Y025779D01*
X017843Y025602D01*
X017978Y025467D01*
X018155Y025394D01*
X018345Y025394D01*
X018135Y025402D02*
X017365Y025402D01*
X017555Y025501D02*
X017945Y025501D01*
X017846Y025599D02*
X017654Y025599D01*
X017696Y025698D02*
X017804Y025698D01*
X017770Y025796D02*
X017730Y025796D01*
X017730Y025895D02*
X017770Y025895D01*
X017780Y025993D02*
X017720Y025993D01*
X017679Y026092D02*
X017821Y026092D01*
X017887Y026190D02*
X017613Y026190D01*
X017503Y026289D02*
X017997Y026289D01*
X018503Y026289D02*
X025897Y026289D01*
X026005Y026244D02*
X026295Y026244D01*
X026564Y026355D01*
X026769Y026561D01*
X026880Y026829D01*
X026880Y027119D01*
X026769Y027388D01*
X026564Y027593D01*
X026295Y027704D01*
X026005Y027704D01*
X025736Y027593D01*
X025531Y027388D01*
X025420Y027119D01*
X025420Y026829D01*
X025531Y026561D01*
X025736Y026355D01*
X026005Y026244D01*
X025705Y026387D02*
X002095Y026387D01*
X002194Y026486D02*
X025606Y026486D01*
X025521Y026584D02*
X002279Y026584D01*
X002319Y026683D02*
X025481Y026683D01*
X025440Y026781D02*
X002360Y026781D01*
X002380Y026880D02*
X025420Y026880D01*
X025420Y026978D02*
X002380Y026978D01*
X002380Y027077D02*
X025420Y027077D01*
X025443Y027175D02*
X002357Y027175D01*
X002316Y027274D02*
X025484Y027274D01*
X025525Y027372D02*
X002275Y027372D01*
X002186Y027471D02*
X025614Y027471D01*
X025713Y027569D02*
X002087Y027569D01*
X001883Y027668D02*
X025917Y027668D01*
X026383Y027668D02*
X027460Y027668D01*
X027460Y027569D02*
X026587Y027569D01*
X026686Y027471D02*
X027460Y027471D01*
X027460Y027372D02*
X026775Y027372D01*
X026816Y027274D02*
X027460Y027274D01*
X027460Y027175D02*
X026857Y027175D01*
X026880Y027077D02*
X027460Y027077D01*
X027460Y026978D02*
X026880Y026978D01*
X026880Y026880D02*
X027460Y026880D01*
X027460Y026781D02*
X026860Y026781D01*
X026819Y026683D02*
X027460Y026683D01*
X027460Y026584D02*
X026779Y026584D01*
X026694Y026486D02*
X027460Y026486D01*
X027460Y026387D02*
X026595Y026387D01*
X026403Y026289D02*
X027460Y026289D01*
X027460Y026190D02*
X018613Y026190D01*
X018679Y026092D02*
X027460Y026092D01*
X027460Y025993D02*
X018720Y025993D01*
X018730Y025895D02*
X027460Y025895D01*
X027460Y025796D02*
X018730Y025796D01*
X018696Y025698D02*
X027460Y025698D01*
X027460Y025599D02*
X018654Y025599D01*
X018555Y025501D02*
X027460Y025501D01*
X027460Y025008D02*
X020537Y025008D01*
X020579Y024991D02*
X020365Y025079D01*
X020135Y025079D01*
X019921Y024991D01*
X019758Y024828D01*
X019670Y024615D01*
X019670Y024384D01*
X019758Y024171D01*
X019921Y024007D01*
X020135Y023919D01*
X020365Y023919D01*
X020579Y024007D01*
X020742Y024171D01*
X020830Y024384D01*
X020830Y024615D01*
X020742Y024828D01*
X020579Y024991D01*
X020660Y024910D02*
X027460Y024910D01*
X027460Y024811D02*
X020749Y024811D01*
X020789Y024713D02*
X027460Y024713D01*
X027460Y024614D02*
X020830Y024614D01*
X020830Y024516D02*
X027460Y024516D01*
X027460Y024417D02*
X020830Y024417D01*
X020803Y024319D02*
X027460Y024319D01*
X027460Y024220D02*
X020762Y024220D01*
X020693Y024122D02*
X027460Y024122D01*
X027460Y024023D02*
X020594Y024023D01*
X020379Y023925D02*
X027460Y023925D01*
X027460Y023826D02*
X000340Y023826D01*
X000340Y023728D02*
X027460Y023728D01*
X027460Y023629D02*
X000340Y023629D01*
X000340Y023531D02*
X027460Y023531D01*
X027460Y023432D02*
X000340Y023432D01*
X000340Y023334D02*
X002173Y023334D01*
X002105Y023306D02*
X001979Y023179D01*
X001910Y023014D01*
X001910Y022195D01*
X001979Y022029D01*
X002105Y021903D01*
X002270Y021834D01*
X002450Y021834D01*
X002615Y021903D01*
X002741Y022029D01*
X002810Y022195D01*
X002810Y023014D01*
X002741Y023179D01*
X002615Y023306D01*
X002450Y023374D01*
X002270Y023374D01*
X002105Y023306D01*
X002035Y023235D02*
X000340Y023235D01*
X000340Y023137D02*
X001961Y023137D01*
X001920Y023038D02*
X000340Y023038D01*
X000340Y022940D02*
X001910Y022940D01*
X001910Y022841D02*
X000340Y022841D01*
X000340Y022743D02*
X001910Y022743D01*
X001910Y022644D02*
X000340Y022644D01*
X000340Y022546D02*
X001910Y022546D01*
X001910Y022447D02*
X000340Y022447D01*
X000340Y022349D02*
X001910Y022349D01*
X001910Y022250D02*
X000340Y022250D01*
X000340Y022152D02*
X001928Y022152D01*
X001969Y022053D02*
X000340Y022053D01*
X000340Y021955D02*
X002053Y021955D01*
X002217Y021856D02*
X000340Y021856D01*
X000340Y021758D02*
X017120Y021758D01*
X017120Y021856D02*
X002503Y021856D01*
X002667Y021955D02*
X017120Y021955D01*
X017120Y022053D02*
X002751Y022053D01*
X002792Y022152D02*
X017120Y022152D01*
X017120Y022242D02*
X017120Y020407D01*
X017113Y020404D01*
X017020Y020311D01*
X016970Y020190D01*
X016970Y020058D01*
X017020Y019937D01*
X017113Y019844D01*
X017234Y019794D01*
X017366Y019794D01*
X017487Y019844D01*
X017580Y019937D01*
X017630Y020058D01*
X017630Y020190D01*
X017580Y020311D01*
X017487Y020404D01*
X017480Y020407D01*
X017480Y022242D01*
X017487Y022244D01*
X017580Y022337D01*
X017630Y022458D01*
X017630Y022590D01*
X017580Y022711D01*
X017487Y022804D01*
X017366Y022854D01*
X017234Y022854D01*
X017113Y022804D01*
X017020Y022711D01*
X016970Y022590D01*
X016970Y022458D01*
X017020Y022337D01*
X017113Y022244D01*
X017120Y022242D01*
X017107Y022250D02*
X002810Y022250D01*
X002810Y022349D02*
X017015Y022349D01*
X016975Y022447D02*
X002810Y022447D01*
X002810Y022546D02*
X016970Y022546D01*
X016993Y022644D02*
X007398Y022644D01*
X007331Y022617D02*
X007481Y022679D01*
X007595Y022793D01*
X007657Y022943D01*
X007657Y023105D01*
X007595Y023255D01*
X007481Y023370D01*
X007331Y023432D01*
X007169Y023432D01*
X007019Y023370D01*
X006905Y023255D01*
X006843Y023105D01*
X006843Y022943D01*
X006905Y022793D01*
X007019Y022679D01*
X007169Y022617D01*
X007331Y022617D01*
X007102Y022644D02*
X002810Y022644D01*
X002810Y022743D02*
X006955Y022743D01*
X006885Y022841D02*
X002810Y022841D01*
X002810Y022940D02*
X006844Y022940D01*
X006843Y023038D02*
X002800Y023038D01*
X002759Y023137D02*
X006856Y023137D01*
X006896Y023235D02*
X002685Y023235D01*
X002547Y023334D02*
X006983Y023334D01*
X007517Y023334D02*
X027460Y023334D01*
X027460Y023235D02*
X007604Y023235D01*
X007644Y023137D02*
X027460Y023137D01*
X027460Y023038D02*
X007657Y023038D01*
X007656Y022940D02*
X027460Y022940D01*
X027460Y022841D02*
X017397Y022841D01*
X017548Y022743D02*
X027460Y022743D01*
X027460Y022644D02*
X017607Y022644D01*
X017630Y022546D02*
X027460Y022546D01*
X027460Y022447D02*
X017625Y022447D01*
X017585Y022349D02*
X021141Y022349D01*
X021155Y022354D02*
X020978Y022281D01*
X020843Y022146D01*
X020770Y021970D01*
X020770Y021779D01*
X020843Y021602D01*
X020978Y021467D01*
X021155Y021394D01*
X021345Y021394D01*
X021522Y021467D01*
X021657Y021602D01*
X021730Y021779D01*
X021730Y021970D01*
X021657Y022146D01*
X021522Y022281D01*
X021345Y022354D01*
X021155Y022354D01*
X021359Y022349D02*
X027460Y022349D01*
X027460Y022250D02*
X021553Y022250D01*
X021651Y022152D02*
X027460Y022152D01*
X027460Y022053D02*
X021695Y022053D01*
X021730Y021955D02*
X027460Y021955D01*
X027460Y021856D02*
X021730Y021856D01*
X021721Y021758D02*
X027460Y021758D01*
X027460Y021659D02*
X021681Y021659D01*
X021615Y021561D02*
X027460Y021561D01*
X027460Y021462D02*
X021510Y021462D01*
X021522Y021281D02*
X021345Y021354D01*
X021155Y021354D01*
X020978Y021281D01*
X020843Y021146D01*
X020805Y021054D01*
X020525Y021054D01*
X019275Y019804D01*
X019170Y019699D01*
X019170Y017799D01*
X018687Y017316D01*
X018595Y017354D01*
X018405Y017354D01*
X018228Y017281D01*
X018093Y017146D01*
X018020Y016970D01*
X018020Y016779D01*
X018093Y016602D01*
X018228Y016467D01*
X018270Y016450D01*
X018270Y008934D01*
X016837Y008934D01*
X016460Y009311D01*
X016460Y009311D01*
X016337Y009434D01*
X014757Y009434D01*
X014687Y009504D01*
X014566Y009554D01*
X014434Y009554D01*
X014313Y009504D01*
X014220Y009411D01*
X014170Y009290D01*
X014170Y009158D01*
X014220Y009037D01*
X014313Y008944D01*
X014434Y008894D01*
X014566Y008894D01*
X014687Y008944D01*
X014757Y009014D01*
X016163Y009014D01*
X016663Y008514D01*
X021043Y008514D01*
X021113Y008444D01*
X021234Y008394D01*
X021366Y008394D01*
X021487Y008444D01*
X021580Y008537D01*
X021630Y008658D01*
X021630Y008790D01*
X021580Y008911D01*
X021487Y009004D01*
X021366Y009054D01*
X021234Y009054D01*
X021113Y009004D01*
X021043Y008934D01*
X018630Y008934D01*
X018630Y016408D01*
X018772Y016467D01*
X018907Y016602D01*
X018980Y016779D01*
X018980Y016970D01*
X018942Y017062D01*
X019530Y017650D01*
X019530Y019550D01*
X020675Y020694D01*
X020805Y020694D01*
X020843Y020602D01*
X020978Y020467D01*
X021155Y020394D01*
X021345Y020394D01*
X021522Y020467D01*
X021657Y020602D01*
X021730Y020779D01*
X021730Y020970D01*
X027460Y020970D01*
X027460Y021068D02*
X021689Y021068D01*
X021657Y021146D02*
X021522Y021281D01*
X021538Y021265D02*
X027460Y021265D01*
X027460Y021167D02*
X021636Y021167D01*
X021657Y021146D02*
X021730Y020970D01*
X021730Y020871D02*
X027460Y020871D01*
X027460Y020773D02*
X021728Y020773D01*
X021687Y020674D02*
X027460Y020674D01*
X027460Y020576D02*
X021630Y020576D01*
X021532Y020477D02*
X027460Y020477D01*
X027460Y020379D02*
X020359Y020379D01*
X020458Y020477D02*
X020968Y020477D01*
X020870Y020576D02*
X020556Y020576D01*
X020655Y020674D02*
X020813Y020674D01*
X020600Y020874D02*
X019350Y019624D01*
X019350Y017724D01*
X018500Y016874D01*
X018450Y016824D01*
X018450Y008724D01*
X018630Y008953D02*
X021062Y008953D01*
X021227Y009051D02*
X018630Y009051D01*
X018630Y009150D02*
X027460Y009150D01*
X027460Y009248D02*
X018630Y009248D01*
X018630Y009347D02*
X027460Y009347D01*
X027460Y009445D02*
X018630Y009445D01*
X018630Y009544D02*
X027460Y009544D01*
X027460Y009642D02*
X018630Y009642D01*
X018630Y009741D02*
X027460Y009741D01*
X027460Y009839D02*
X018630Y009839D01*
X018630Y009938D02*
X027460Y009938D01*
X027460Y010036D02*
X018630Y010036D01*
X018630Y010135D02*
X027460Y010135D01*
X027460Y010233D02*
X021335Y010233D01*
X021331Y010229D02*
X021445Y010343D01*
X021507Y010493D01*
X021507Y010655D01*
X021445Y010805D01*
X021331Y010920D01*
X021181Y010982D01*
X021019Y010982D01*
X020869Y010920D01*
X020755Y010805D01*
X020693Y010655D01*
X020693Y010493D01*
X020755Y010343D01*
X020869Y010229D01*
X021019Y010167D01*
X021181Y010167D01*
X021331Y010229D01*
X021434Y010332D02*
X027460Y010332D01*
X027460Y010430D02*
X021481Y010430D01*
X021507Y010529D02*
X027460Y010529D01*
X027460Y010627D02*
X021507Y010627D01*
X021478Y010726D02*
X027460Y010726D01*
X027460Y010824D02*
X021426Y010824D01*
X021323Y010923D02*
X027460Y010923D01*
X027460Y011021D02*
X018630Y011021D01*
X018630Y010923D02*
X020877Y010923D01*
X020774Y010824D02*
X018630Y010824D01*
X018630Y010726D02*
X020722Y010726D01*
X020693Y010627D02*
X018630Y010627D01*
X018630Y010529D02*
X020693Y010529D01*
X020719Y010430D02*
X018630Y010430D01*
X018630Y010332D02*
X020766Y010332D01*
X020865Y010233D02*
X018630Y010233D01*
X018270Y010233D02*
X012180Y010233D01*
X012180Y010135D02*
X018270Y010135D01*
X018270Y010036D02*
X012180Y010036D01*
X012180Y009949D02*
X012180Y011599D01*
X012075Y011704D01*
X011124Y012655D01*
X011080Y012761D01*
X010987Y012854D01*
X010866Y012904D01*
X010734Y012904D01*
X010613Y012854D01*
X010520Y012761D01*
X010476Y012653D01*
X008749Y014379D01*
X008834Y014344D01*
X008966Y014344D01*
X008973Y014347D01*
X010220Y013100D01*
X010325Y012994D01*
X011025Y012994D01*
X012475Y011544D01*
X012617Y011544D01*
X012620Y011537D01*
X012713Y011444D01*
X012834Y011394D01*
X012966Y011394D01*
X013087Y011444D01*
X013180Y011537D01*
X013230Y011658D01*
X013230Y011790D01*
X013180Y011911D01*
X013097Y011994D01*
X013767Y011994D01*
X013770Y011987D01*
X013863Y011894D01*
X013984Y011844D01*
X014116Y011844D01*
X014237Y011894D01*
X014330Y011987D01*
X014380Y012108D01*
X014380Y012240D01*
X014330Y012361D01*
X014237Y012454D01*
X014116Y012504D01*
X013984Y012504D01*
X013863Y012454D01*
X013770Y012361D01*
X013767Y012354D01*
X012775Y012354D01*
X011499Y013629D01*
X011584Y013594D01*
X011716Y013594D01*
X011837Y013644D01*
X011930Y013737D01*
X011980Y013858D01*
X011980Y013990D01*
X011930Y014111D01*
X011837Y014204D01*
X011716Y014254D01*
X011584Y014254D01*
X011463Y014204D01*
X011370Y014111D01*
X011367Y014104D01*
X010925Y014104D01*
X010427Y014602D01*
X010430Y014608D01*
X010430Y014740D01*
X010380Y014861D01*
X010287Y014954D01*
X010166Y015004D01*
X010034Y015004D01*
X009913Y014954D01*
X009820Y014861D01*
X009800Y014812D01*
X009780Y014861D01*
X009687Y014954D01*
X009566Y015004D01*
X009434Y015004D01*
X009313Y014954D01*
X009220Y014861D01*
X009200Y014812D01*
X009180Y014861D01*
X009087Y014954D01*
X008966Y015004D01*
X008834Y015004D01*
X008713Y014954D01*
X008630Y014871D01*
X008630Y016142D01*
X008637Y016144D01*
X008730Y016237D01*
X008780Y016358D01*
X008780Y016490D01*
X008730Y016611D01*
X008637Y016704D01*
X008516Y016754D01*
X008384Y016754D01*
X008263Y016704D01*
X008170Y016611D01*
X008120Y016490D01*
X008120Y016358D01*
X008170Y016237D01*
X008263Y016144D01*
X008270Y016142D01*
X008270Y014350D01*
X008375Y014244D01*
X008375Y014244D01*
X010221Y012399D01*
X010157Y012372D01*
X003980Y018549D01*
X003980Y018640D01*
X003930Y018761D01*
X003837Y018854D01*
X003716Y018904D01*
X003584Y018904D01*
X003463Y018854D01*
X003370Y018761D01*
X003320Y018640D01*
X003320Y018508D01*
X003370Y018387D01*
X003463Y018294D01*
X003584Y018244D01*
X003716Y018244D01*
X003758Y018262D01*
X009970Y012050D01*
X009970Y012008D01*
X010020Y011887D01*
X010103Y011804D01*
X009325Y011804D01*
X007827Y013302D01*
X007830Y013308D01*
X007830Y013440D01*
X007780Y013561D01*
X007687Y013654D01*
X007566Y013704D01*
X007434Y013704D01*
X007313Y013654D01*
X007220Y013561D01*
X007170Y013440D01*
X007170Y013308D01*
X007220Y013187D01*
X007313Y013094D01*
X007434Y013044D01*
X007566Y013044D01*
X007573Y013047D01*
X008651Y011969D01*
X008566Y012004D01*
X008434Y012004D01*
X008313Y011954D01*
X008220Y011861D01*
X008170Y011740D01*
X008170Y011608D01*
X008220Y011487D01*
X008313Y011394D01*
X008434Y011344D01*
X008566Y011344D01*
X008573Y011347D01*
X012870Y007050D01*
X012975Y006944D01*
X019475Y006944D01*
X022670Y003750D01*
X022775Y003644D01*
X022967Y003644D01*
X022970Y003637D01*
X023063Y003544D01*
X023184Y003494D01*
X023316Y003494D01*
X023437Y003544D01*
X023530Y003637D01*
X023580Y003758D01*
X023580Y003890D01*
X023530Y004011D01*
X023437Y004104D01*
X023316Y004154D01*
X023184Y004154D01*
X023063Y004104D01*
X022970Y004011D01*
X022967Y004004D01*
X022925Y004004D01*
X019625Y007304D01*
X013125Y007304D01*
X008827Y011602D01*
X008830Y011608D01*
X008830Y011740D01*
X008795Y011825D01*
X009175Y011444D01*
X010317Y011444D01*
X010320Y011437D01*
X010413Y011344D01*
X010534Y011294D01*
X010666Y011294D01*
X010787Y011344D01*
X010880Y011437D01*
X010925Y011546D01*
X010970Y011437D01*
X011063Y011344D01*
X011184Y011294D01*
X011316Y011294D01*
X011437Y011344D01*
X011530Y011437D01*
X011580Y011558D01*
X011580Y011690D01*
X011820Y011450D01*
X011820Y009800D01*
X013670Y007950D01*
X013775Y007844D01*
X016767Y007844D01*
X016770Y007837D01*
X016863Y007744D01*
X016984Y007694D01*
X017116Y007694D01*
X017237Y007744D01*
X017330Y007837D01*
X017380Y007958D01*
X017380Y008090D01*
X017330Y008211D01*
X017237Y008304D01*
X017116Y008354D01*
X016984Y008354D01*
X016863Y008304D01*
X016770Y008211D01*
X016767Y008204D01*
X013925Y008204D01*
X012180Y009949D01*
X012191Y009938D02*
X018270Y009938D01*
X018270Y009839D02*
X012290Y009839D01*
X012388Y009741D02*
X018270Y009741D01*
X018270Y009642D02*
X012487Y009642D01*
X012585Y009544D02*
X014409Y009544D01*
X014591Y009544D02*
X018270Y009544D01*
X018270Y009445D02*
X014746Y009445D01*
X014254Y009445D02*
X012684Y009445D01*
X012782Y009347D02*
X014194Y009347D01*
X014170Y009248D02*
X012881Y009248D01*
X012979Y009150D02*
X014174Y009150D01*
X014214Y009051D02*
X013078Y009051D01*
X013176Y008953D02*
X014305Y008953D01*
X014695Y008953D02*
X016224Y008953D01*
X016323Y008854D02*
X013275Y008854D01*
X013373Y008756D02*
X016421Y008756D01*
X016520Y008657D02*
X013472Y008657D01*
X013570Y008559D02*
X016618Y008559D01*
X016822Y008263D02*
X013866Y008263D01*
X013767Y008362D02*
X027460Y008362D01*
X027460Y008460D02*
X021503Y008460D01*
X021589Y008559D02*
X027460Y008559D01*
X027460Y008657D02*
X021629Y008657D01*
X021630Y008756D02*
X027460Y008756D01*
X027460Y008854D02*
X021603Y008854D01*
X021538Y008953D02*
X027460Y008953D01*
X027460Y009051D02*
X021373Y009051D01*
X021097Y008460D02*
X013669Y008460D01*
X013455Y008165D02*
X012264Y008165D01*
X012166Y008263D02*
X013356Y008263D01*
X013258Y008362D02*
X012067Y008362D01*
X011969Y008460D02*
X013159Y008460D01*
X013061Y008559D02*
X011870Y008559D01*
X011772Y008657D02*
X012962Y008657D01*
X012864Y008756D02*
X011673Y008756D01*
X011575Y008854D02*
X012765Y008854D01*
X012667Y008953D02*
X011476Y008953D01*
X011378Y009051D02*
X012568Y009051D01*
X012470Y009150D02*
X011279Y009150D01*
X011181Y009248D02*
X012371Y009248D01*
X012273Y009347D02*
X011082Y009347D01*
X010984Y009445D02*
X012174Y009445D01*
X012076Y009544D02*
X010885Y009544D01*
X010787Y009642D02*
X011977Y009642D01*
X011879Y009741D02*
X010688Y009741D01*
X010590Y009839D02*
X011820Y009839D01*
X011820Y009938D02*
X010491Y009938D01*
X010393Y010036D02*
X011820Y010036D01*
X011820Y010135D02*
X010294Y010135D01*
X010196Y010233D02*
X011820Y010233D01*
X011820Y010332D02*
X010097Y010332D01*
X009999Y010430D02*
X011820Y010430D01*
X011820Y010529D02*
X009900Y010529D01*
X009802Y010627D02*
X011820Y010627D01*
X011820Y010726D02*
X009703Y010726D01*
X009605Y010824D02*
X011820Y010824D01*
X011820Y010923D02*
X009506Y010923D01*
X009408Y011021D02*
X011820Y011021D01*
X011820Y011120D02*
X009309Y011120D01*
X009211Y011218D02*
X011820Y011218D01*
X011820Y011317D02*
X011370Y011317D01*
X011508Y011415D02*
X011820Y011415D01*
X011756Y011514D02*
X011561Y011514D01*
X011580Y011612D02*
X011657Y011612D01*
X012000Y011524D02*
X012000Y009874D01*
X013850Y008024D01*
X017050Y008024D01*
X017278Y008263D02*
X027460Y008263D01*
X027460Y008165D02*
X017349Y008165D01*
X017380Y008066D02*
X027460Y008066D01*
X027460Y007968D02*
X017380Y007968D01*
X017343Y007869D02*
X027460Y007869D01*
X027460Y007771D02*
X017263Y007771D01*
X016837Y007771D02*
X012658Y007771D01*
X012560Y007869D02*
X013750Y007869D01*
X013652Y007968D02*
X012461Y007968D01*
X012363Y008066D02*
X013553Y008066D01*
X012954Y007475D02*
X027460Y007475D01*
X027460Y007377D02*
X013052Y007377D01*
X013050Y007124D02*
X019550Y007124D01*
X022850Y003824D01*
X023250Y003824D01*
X023580Y003831D02*
X027460Y003831D01*
X027460Y003929D02*
X023564Y003929D01*
X023513Y004028D02*
X027460Y004028D01*
X027460Y004126D02*
X023383Y004126D01*
X023117Y004126D02*
X022803Y004126D01*
X022901Y004028D02*
X022987Y004028D01*
X022704Y004225D02*
X027460Y004225D01*
X027460Y004323D02*
X022606Y004323D01*
X022507Y004422D02*
X027460Y004422D01*
X027460Y004520D02*
X022409Y004520D01*
X022310Y004619D02*
X027460Y004619D01*
X027460Y004717D02*
X022212Y004717D01*
X022113Y004816D02*
X027460Y004816D01*
X027460Y004914D02*
X022015Y004914D01*
X021916Y005013D02*
X027460Y005013D01*
X027460Y005111D02*
X021818Y005111D01*
X021719Y005210D02*
X027460Y005210D01*
X027460Y005308D02*
X021621Y005308D01*
X021522Y005407D02*
X027460Y005407D01*
X027460Y005505D02*
X021424Y005505D01*
X021325Y005604D02*
X027460Y005604D01*
X027460Y005702D02*
X021227Y005702D01*
X021128Y005801D02*
X027460Y005801D01*
X027460Y005899D02*
X021030Y005899D01*
X020931Y005998D02*
X027460Y005998D01*
X027460Y006096D02*
X020833Y006096D01*
X020734Y006195D02*
X027460Y006195D01*
X027460Y006293D02*
X020636Y006293D01*
X020537Y006392D02*
X027460Y006392D01*
X027460Y006490D02*
X020439Y006490D01*
X020340Y006589D02*
X027460Y006589D01*
X027460Y006687D02*
X020242Y006687D01*
X020143Y006786D02*
X027460Y006786D01*
X027460Y006884D02*
X020045Y006884D01*
X019946Y006983D02*
X027460Y006983D01*
X027460Y007081D02*
X019848Y007081D01*
X019749Y007180D02*
X027460Y007180D01*
X027460Y007278D02*
X019651Y007278D01*
X019535Y006884D02*
X009550Y006884D01*
X009452Y006786D02*
X019634Y006786D01*
X019732Y006687D02*
X009420Y006687D01*
X009420Y006754D02*
X009767Y007101D01*
X009784Y007094D01*
X009916Y007094D01*
X010037Y007144D01*
X010130Y007237D01*
X010180Y007358D01*
X010180Y007490D01*
X010130Y007611D01*
X010037Y007704D01*
X009916Y007754D01*
X009807Y007754D01*
X009830Y007808D01*
X009830Y007940D01*
X009780Y008061D01*
X009687Y008154D01*
X009566Y008204D01*
X009434Y008204D01*
X009313Y008154D01*
X009220Y008061D01*
X009170Y007940D01*
X009170Y007808D01*
X009177Y007792D01*
X008980Y007594D01*
X008880Y007495D01*
X008880Y005470D01*
X008731Y005532D01*
X008569Y005532D01*
X008419Y005470D01*
X008305Y005355D01*
X008243Y005205D01*
X008243Y005043D01*
X008305Y004893D01*
X008419Y004779D01*
X008569Y004717D01*
X008731Y004717D01*
X008880Y004778D01*
X008880Y004470D01*
X008731Y004532D01*
X008569Y004532D01*
X008419Y004470D01*
X008305Y004355D01*
X008243Y004205D01*
X008243Y004043D01*
X008305Y003893D01*
X008419Y003779D01*
X008569Y003717D01*
X008731Y003717D01*
X008880Y003778D01*
X008880Y002495D01*
X008542Y002156D01*
X008481Y002182D01*
X008319Y002182D01*
X008169Y002120D01*
X008055Y002005D01*
X007993Y001855D01*
X007993Y001693D01*
X008055Y001543D01*
X008169Y001429D01*
X008319Y001367D01*
X008481Y001367D01*
X008631Y001429D01*
X008745Y001543D01*
X008807Y001693D01*
X008807Y001855D01*
X008782Y001916D01*
X009080Y002214D01*
X009080Y002030D01*
X009055Y002005D01*
X008993Y001855D01*
X008993Y001693D01*
X009055Y001543D01*
X009169Y001429D01*
X009319Y001367D01*
X009481Y001367D01*
X009631Y001429D01*
X009745Y001543D01*
X009807Y001693D01*
X009807Y001855D01*
X009745Y002005D01*
X009631Y002120D01*
X009481Y002182D01*
X009420Y002182D01*
X009420Y003778D01*
X009569Y003717D01*
X009731Y003717D01*
X009881Y003779D01*
X009995Y003893D01*
X010057Y004043D01*
X010057Y004205D01*
X009995Y004355D01*
X009881Y004470D01*
X009731Y004532D01*
X009569Y004532D01*
X009420Y004470D01*
X009420Y004778D01*
X009569Y004717D01*
X009731Y004717D01*
X009881Y004779D01*
X009995Y004893D01*
X010057Y005043D01*
X010057Y005205D01*
X009995Y005355D01*
X009881Y005470D01*
X009731Y005532D01*
X009569Y005532D01*
X009420Y005470D01*
X009420Y006754D01*
X009420Y006589D02*
X019831Y006589D01*
X019929Y006490D02*
X009420Y006490D01*
X009420Y006392D02*
X020028Y006392D01*
X020126Y006293D02*
X009420Y006293D01*
X009420Y006195D02*
X020225Y006195D01*
X020323Y006096D02*
X009420Y006096D01*
X009420Y005998D02*
X020422Y005998D01*
X020520Y005899D02*
X009420Y005899D01*
X009420Y005801D02*
X020619Y005801D01*
X020717Y005702D02*
X009420Y005702D01*
X009420Y005604D02*
X020816Y005604D01*
X020914Y005505D02*
X014795Y005505D01*
X014731Y005532D02*
X014569Y005532D01*
X014419Y005470D01*
X014305Y005355D01*
X014243Y005205D01*
X014243Y005043D01*
X014305Y004893D01*
X014419Y004779D01*
X014569Y004717D01*
X014731Y004717D01*
X014881Y004779D01*
X014995Y004893D01*
X015057Y005043D01*
X015057Y005205D01*
X014995Y005355D01*
X014881Y005470D01*
X014731Y005532D01*
X014505Y005505D02*
X013795Y005505D01*
X013731Y005532D02*
X013569Y005532D01*
X013419Y005470D01*
X013305Y005355D01*
X013243Y005205D01*
X013243Y005043D01*
X013305Y004893D01*
X013419Y004779D01*
X013569Y004717D01*
X013731Y004717D01*
X013881Y004779D01*
X013995Y004893D01*
X014057Y005043D01*
X014057Y005205D01*
X013995Y005355D01*
X013881Y005470D01*
X013731Y005532D01*
X013505Y005505D02*
X012795Y005505D01*
X012731Y005532D02*
X012569Y005532D01*
X012419Y005470D01*
X012305Y005355D01*
X012243Y005205D01*
X012243Y005043D01*
X012305Y004893D01*
X012419Y004779D01*
X012569Y004717D01*
X012731Y004717D01*
X012881Y004779D01*
X012995Y004893D01*
X013057Y005043D01*
X013057Y005205D01*
X012995Y005355D01*
X012881Y005470D01*
X012731Y005532D01*
X012505Y005505D02*
X011795Y005505D01*
X011731Y005532D02*
X011569Y005532D01*
X011419Y005470D01*
X011305Y005355D01*
X011243Y005205D01*
X011243Y005043D01*
X011305Y004893D01*
X011419Y004779D01*
X011569Y004717D01*
X011731Y004717D01*
X011881Y004779D01*
X011995Y004893D01*
X012057Y005043D01*
X012057Y005205D01*
X011995Y005355D01*
X011881Y005470D01*
X011731Y005532D01*
X011505Y005505D02*
X010795Y005505D01*
X010731Y005532D02*
X010569Y005532D01*
X010419Y005470D01*
X010305Y005355D01*
X010243Y005205D01*
X010243Y005043D01*
X010305Y004893D01*
X010419Y004779D01*
X010569Y004717D01*
X010731Y004717D01*
X010881Y004779D01*
X010995Y004893D01*
X011057Y005043D01*
X011057Y005205D01*
X010995Y005355D01*
X010881Y005470D01*
X010731Y005532D01*
X010505Y005505D02*
X009795Y005505D01*
X009944Y005407D02*
X010356Y005407D01*
X010285Y005308D02*
X010015Y005308D01*
X010056Y005210D02*
X010244Y005210D01*
X010243Y005111D02*
X010057Y005111D01*
X010045Y005013D02*
X010255Y005013D01*
X010296Y004914D02*
X010004Y004914D01*
X009918Y004816D02*
X010382Y004816D01*
X010568Y004717D02*
X009732Y004717D01*
X009568Y004717D02*
X009420Y004717D01*
X009420Y004619D02*
X021801Y004619D01*
X021702Y004717D02*
X014732Y004717D01*
X014568Y004717D02*
X013732Y004717D01*
X013568Y004717D02*
X012732Y004717D01*
X012568Y004717D02*
X011732Y004717D01*
X011568Y004717D02*
X010732Y004717D01*
X010731Y004532D02*
X010569Y004532D01*
X010419Y004470D01*
X010305Y004355D01*
X010243Y004205D01*
X010243Y004043D01*
X010305Y003893D01*
X010419Y003779D01*
X010569Y003717D01*
X010731Y003717D01*
X010881Y003779D01*
X010995Y003893D01*
X011057Y004043D01*
X011057Y004205D01*
X010995Y004355D01*
X010881Y004470D01*
X010731Y004532D01*
X010759Y004520D02*
X011541Y004520D01*
X011569Y004532D02*
X011419Y004470D01*
X011305Y004355D01*
X011243Y004205D01*
X011243Y004043D01*
X011305Y003893D01*
X011419Y003779D01*
X011569Y003717D01*
X011731Y003717D01*
X011881Y003779D01*
X011995Y003893D01*
X012057Y004043D01*
X012057Y004205D01*
X011995Y004355D01*
X011881Y004470D01*
X011731Y004532D01*
X011569Y004532D01*
X011759Y004520D02*
X012541Y004520D01*
X012569Y004532D02*
X012419Y004470D01*
X012305Y004355D01*
X012243Y004205D01*
X012243Y004043D01*
X012305Y003893D01*
X012419Y003779D01*
X012569Y003717D01*
X012731Y003717D01*
X012881Y003779D01*
X012995Y003893D01*
X013057Y004043D01*
X013057Y004205D01*
X012995Y004355D01*
X012881Y004470D01*
X012731Y004532D01*
X012569Y004532D01*
X012759Y004520D02*
X013541Y004520D01*
X013569Y004532D02*
X013419Y004470D01*
X013305Y004355D01*
X013243Y004205D01*
X013243Y004043D01*
X013305Y003893D01*
X013419Y003779D01*
X013569Y003717D01*
X013731Y003717D01*
X013881Y003779D01*
X013995Y003893D01*
X014057Y004043D01*
X014057Y004205D01*
X013995Y004355D01*
X013881Y004470D01*
X013731Y004532D01*
X013569Y004532D01*
X013759Y004520D02*
X014541Y004520D01*
X014569Y004532D02*
X014419Y004470D01*
X014305Y004355D01*
X014243Y004205D01*
X014243Y004043D01*
X014305Y003893D01*
X014419Y003779D01*
X014569Y003717D01*
X014731Y003717D01*
X014881Y003779D01*
X014995Y003893D01*
X015057Y004043D01*
X015057Y004205D01*
X014995Y004355D01*
X014881Y004470D01*
X014731Y004532D01*
X014569Y004532D01*
X014759Y004520D02*
X021899Y004520D01*
X021998Y004422D02*
X014929Y004422D01*
X015009Y004323D02*
X022096Y004323D01*
X022195Y004225D02*
X015049Y004225D01*
X015057Y004126D02*
X022293Y004126D01*
X022392Y004028D02*
X015051Y004028D01*
X015010Y003929D02*
X022490Y003929D01*
X022589Y003831D02*
X014933Y003831D01*
X014768Y003732D02*
X022687Y003732D01*
X022974Y003634D02*
X009420Y003634D01*
X009420Y003732D02*
X009532Y003732D01*
X009420Y003535D02*
X023085Y003535D01*
X023415Y003535D02*
X027460Y003535D01*
X027460Y003437D02*
X009420Y003437D01*
X009420Y003338D02*
X027460Y003338D01*
X027460Y003240D02*
X009420Y003240D01*
X009420Y003141D02*
X025853Y003141D01*
X025736Y003093D02*
X026005Y003204D01*
X026295Y003204D01*
X026564Y003093D01*
X026769Y002888D01*
X026880Y002619D01*
X026880Y002329D01*
X026769Y002061D01*
X026564Y001855D01*
X026295Y001744D01*
X026005Y001744D01*
X025736Y001855D01*
X025531Y002061D01*
X025420Y002329D01*
X025420Y002619D01*
X025531Y002888D01*
X025736Y003093D01*
X025686Y003043D02*
X009420Y003043D01*
X009420Y002944D02*
X025588Y002944D01*
X025514Y002846D02*
X009420Y002846D01*
X009420Y002747D02*
X025473Y002747D01*
X025432Y002649D02*
X009420Y002649D01*
X009420Y002550D02*
X025420Y002550D01*
X025420Y002452D02*
X009420Y002452D01*
X009420Y002353D02*
X025420Y002353D01*
X025451Y002255D02*
X009420Y002255D01*
X009543Y002156D02*
X025492Y002156D01*
X025534Y002058D02*
X009693Y002058D01*
X009764Y001959D02*
X025633Y001959D01*
X025731Y001861D02*
X009805Y001861D01*
X009807Y001762D02*
X025961Y001762D01*
X026339Y001762D02*
X027700Y001762D01*
X027700Y001664D02*
X009795Y001664D01*
X009754Y001565D02*
X027700Y001565D01*
X027700Y001467D02*
X009669Y001467D01*
X009485Y001368D02*
X027700Y001368D01*
X027700Y001270D02*
X000340Y001270D01*
X000340Y001368D02*
X007315Y001368D01*
X007319Y001367D02*
X007481Y001367D01*
X007631Y001429D01*
X007745Y001543D01*
X007807Y001693D01*
X007807Y001855D01*
X007745Y002005D01*
X007631Y002120D01*
X007481Y002182D01*
X007319Y002182D01*
X007169Y002120D01*
X007055Y002005D01*
X006993Y001855D01*
X006993Y001693D01*
X007055Y001543D01*
X007169Y001429D01*
X007319Y001367D01*
X007485Y001368D02*
X008315Y001368D01*
X008485Y001368D02*
X009315Y001368D01*
X009131Y001467D02*
X008669Y001467D01*
X008754Y001565D02*
X009046Y001565D01*
X009005Y001664D02*
X008795Y001664D01*
X008807Y001762D02*
X008993Y001762D01*
X008995Y001861D02*
X008805Y001861D01*
X008825Y001959D02*
X009036Y001959D01*
X009080Y002058D02*
X008924Y002058D01*
X009022Y002156D02*
X009080Y002156D01*
X008837Y002452D02*
X002380Y002452D01*
X002380Y002550D02*
X008880Y002550D01*
X008880Y002649D02*
X002368Y002649D01*
X002380Y002619D02*
X002269Y002888D01*
X002064Y003093D01*
X001795Y003204D01*
X001505Y003204D01*
X001236Y003093D01*
X001031Y002888D01*
X000920Y002619D01*
X000920Y002329D01*
X001031Y002061D01*
X001236Y001855D01*
X001505Y001744D01*
X001795Y001744D01*
X002064Y001855D01*
X002269Y002061D01*
X002380Y002329D01*
X002380Y002619D01*
X002327Y002747D02*
X008880Y002747D01*
X008880Y002846D02*
X002286Y002846D01*
X002212Y002944D02*
X008880Y002944D01*
X008880Y003043D02*
X002114Y003043D01*
X001947Y003141D02*
X008880Y003141D01*
X008880Y003240D02*
X000340Y003240D01*
X000340Y003338D02*
X008880Y003338D01*
X008880Y003437D02*
X000340Y003437D01*
X000340Y003535D02*
X008880Y003535D01*
X008880Y003634D02*
X000340Y003634D01*
X000340Y003732D02*
X005532Y003732D01*
X005569Y003717D02*
X005731Y003717D01*
X005881Y003779D01*
X005995Y003893D01*
X006057Y004043D01*
X006057Y004205D01*
X005995Y004355D01*
X005881Y004470D01*
X005731Y004532D01*
X005569Y004532D01*
X005419Y004470D01*
X005305Y004355D01*
X005243Y004205D01*
X005243Y004043D01*
X005305Y003893D01*
X005419Y003779D01*
X005569Y003717D01*
X005768Y003732D02*
X006532Y003732D01*
X006569Y003717D02*
X006731Y003717D01*
X006881Y003779D01*
X006995Y003893D01*
X007057Y004043D01*
X007057Y004205D01*
X006995Y004355D01*
X006881Y004470D01*
X006731Y004532D01*
X006569Y004532D01*
X006419Y004470D01*
X006305Y004355D01*
X006243Y004205D01*
X006243Y004043D01*
X006305Y003893D01*
X006419Y003779D01*
X006569Y003717D01*
X006768Y003732D02*
X007532Y003732D01*
X007569Y003717D02*
X007731Y003717D01*
X007881Y003779D01*
X007995Y003893D01*
X008057Y004043D01*
X008057Y004205D01*
X007995Y004355D01*
X007881Y004470D01*
X007731Y004532D01*
X007569Y004532D01*
X007419Y004470D01*
X007305Y004355D01*
X007243Y004205D01*
X007243Y004043D01*
X007305Y003893D01*
X007419Y003779D01*
X007569Y003717D01*
X007768Y003732D02*
X008532Y003732D01*
X008367Y003831D02*
X007933Y003831D01*
X008010Y003929D02*
X008290Y003929D01*
X008249Y004028D02*
X008051Y004028D01*
X008057Y004126D02*
X008243Y004126D01*
X008251Y004225D02*
X008049Y004225D01*
X008009Y004323D02*
X008291Y004323D01*
X008371Y004422D02*
X007929Y004422D01*
X007759Y004520D02*
X008541Y004520D01*
X008568Y004717D02*
X007732Y004717D01*
X007731Y004717D02*
X007881Y004779D01*
X007995Y004893D01*
X008057Y005043D01*
X008057Y005205D01*
X007995Y005355D01*
X007881Y005470D01*
X007731Y005532D01*
X007569Y005532D01*
X007419Y005470D01*
X007305Y005355D01*
X007243Y005205D01*
X007243Y005043D01*
X007305Y004893D01*
X007419Y004779D01*
X007569Y004717D01*
X007731Y004717D01*
X007568Y004717D02*
X006732Y004717D01*
X006731Y004717D02*
X006881Y004779D01*
X006995Y004893D01*
X007057Y005043D01*
X007057Y005205D01*
X006995Y005355D01*
X006881Y005470D01*
X006731Y005532D01*
X006569Y005532D01*
X006419Y005470D01*
X006305Y005355D01*
X006243Y005205D01*
X006243Y005043D01*
X006305Y004893D01*
X006419Y004779D01*
X006569Y004717D01*
X006731Y004717D01*
X006568Y004717D02*
X005732Y004717D01*
X005731Y004717D02*
X005881Y004779D01*
X005995Y004893D01*
X006057Y005043D01*
X006057Y005205D01*
X005995Y005355D01*
X005881Y005470D01*
X005731Y005532D01*
X005569Y005532D01*
X005419Y005470D01*
X005305Y005355D01*
X005243Y005205D01*
X005243Y005043D01*
X005305Y004893D01*
X005419Y004779D01*
X005569Y004717D01*
X005731Y004717D01*
X005568Y004717D02*
X003969Y004717D01*
X003995Y004743D02*
X004057Y004893D01*
X004057Y005055D01*
X003995Y005205D01*
X003881Y005320D01*
X003731Y005382D01*
X003569Y005382D01*
X003419Y005320D01*
X003305Y005205D01*
X003243Y005055D01*
X003243Y004893D01*
X003305Y004743D01*
X003419Y004629D01*
X003569Y004567D01*
X003731Y004567D01*
X003881Y004629D01*
X003995Y004743D01*
X004025Y004816D02*
X005382Y004816D01*
X005296Y004914D02*
X004057Y004914D01*
X004057Y005013D02*
X005255Y005013D01*
X005243Y005111D02*
X004034Y005111D01*
X003991Y005210D02*
X005244Y005210D01*
X005285Y005308D02*
X003892Y005308D01*
X003408Y005308D02*
X002892Y005308D01*
X002881Y005320D02*
X002731Y005382D01*
X002569Y005382D01*
X002419Y005320D01*
X002305Y005205D01*
X002243Y005055D01*
X002243Y004893D01*
X002305Y004743D01*
X002419Y004629D01*
X002569Y004567D01*
X002731Y004567D01*
X002881Y004629D01*
X002995Y004743D01*
X003057Y004893D01*
X003057Y005055D01*
X002995Y005205D01*
X002881Y005320D01*
X002991Y005210D02*
X003309Y005210D01*
X003266Y005111D02*
X003034Y005111D01*
X003057Y005013D02*
X003243Y005013D01*
X003243Y004914D02*
X003057Y004914D01*
X003025Y004816D02*
X003275Y004816D01*
X003331Y004717D02*
X002969Y004717D01*
X002857Y004619D02*
X003443Y004619D01*
X003857Y004619D02*
X008880Y004619D01*
X008880Y004717D02*
X008732Y004717D01*
X008759Y004520D02*
X008880Y004520D01*
X009420Y004520D02*
X009541Y004520D01*
X009759Y004520D02*
X010541Y004520D01*
X010371Y004422D02*
X009929Y004422D01*
X010009Y004323D02*
X010291Y004323D01*
X010251Y004225D02*
X010049Y004225D01*
X010057Y004126D02*
X010243Y004126D01*
X010249Y004028D02*
X010051Y004028D01*
X010010Y003929D02*
X010290Y003929D01*
X010367Y003831D02*
X009933Y003831D01*
X009768Y003732D02*
X010532Y003732D01*
X010768Y003732D02*
X011532Y003732D01*
X011367Y003831D02*
X010933Y003831D01*
X011010Y003929D02*
X011290Y003929D01*
X011249Y004028D02*
X011051Y004028D01*
X011057Y004126D02*
X011243Y004126D01*
X011251Y004225D02*
X011049Y004225D01*
X011009Y004323D02*
X011291Y004323D01*
X011371Y004422D02*
X010929Y004422D01*
X010918Y004816D02*
X011382Y004816D01*
X011296Y004914D02*
X011004Y004914D01*
X011045Y005013D02*
X011255Y005013D01*
X011243Y005111D02*
X011057Y005111D01*
X011056Y005210D02*
X011244Y005210D01*
X011285Y005308D02*
X011015Y005308D01*
X010944Y005407D02*
X011356Y005407D01*
X011944Y005407D02*
X012356Y005407D01*
X012285Y005308D02*
X012015Y005308D01*
X012056Y005210D02*
X012244Y005210D01*
X012243Y005111D02*
X012057Y005111D01*
X012045Y005013D02*
X012255Y005013D01*
X012296Y004914D02*
X012004Y004914D01*
X011918Y004816D02*
X012382Y004816D01*
X012371Y004422D02*
X011929Y004422D01*
X012009Y004323D02*
X012291Y004323D01*
X012251Y004225D02*
X012049Y004225D01*
X012057Y004126D02*
X012243Y004126D01*
X012249Y004028D02*
X012051Y004028D01*
X012010Y003929D02*
X012290Y003929D01*
X012367Y003831D02*
X011933Y003831D01*
X011768Y003732D02*
X012532Y003732D01*
X012768Y003732D02*
X013532Y003732D01*
X013367Y003831D02*
X012933Y003831D01*
X013010Y003929D02*
X013290Y003929D01*
X013249Y004028D02*
X013051Y004028D01*
X013057Y004126D02*
X013243Y004126D01*
X013251Y004225D02*
X013049Y004225D01*
X013009Y004323D02*
X013291Y004323D01*
X013371Y004422D02*
X012929Y004422D01*
X012918Y004816D02*
X013382Y004816D01*
X013296Y004914D02*
X013004Y004914D01*
X013045Y005013D02*
X013255Y005013D01*
X013243Y005111D02*
X013057Y005111D01*
X013056Y005210D02*
X013244Y005210D01*
X013285Y005308D02*
X013015Y005308D01*
X012944Y005407D02*
X013356Y005407D01*
X013944Y005407D02*
X014356Y005407D01*
X014285Y005308D02*
X014015Y005308D01*
X014056Y005210D02*
X014244Y005210D01*
X014243Y005111D02*
X014057Y005111D01*
X014045Y005013D02*
X014255Y005013D01*
X014296Y004914D02*
X014004Y004914D01*
X013918Y004816D02*
X014382Y004816D01*
X014371Y004422D02*
X013929Y004422D01*
X014009Y004323D02*
X014291Y004323D01*
X014251Y004225D02*
X014049Y004225D01*
X014057Y004126D02*
X014243Y004126D01*
X014249Y004028D02*
X014051Y004028D01*
X014010Y003929D02*
X014290Y003929D01*
X014367Y003831D02*
X013933Y003831D01*
X013768Y003732D02*
X014532Y003732D01*
X014918Y004816D02*
X021604Y004816D01*
X021505Y004914D02*
X015004Y004914D01*
X015045Y005013D02*
X021407Y005013D01*
X021308Y005111D02*
X015057Y005111D01*
X015056Y005210D02*
X021210Y005210D01*
X021111Y005308D02*
X015015Y005308D01*
X014944Y005407D02*
X021013Y005407D01*
X023569Y003732D02*
X027460Y003732D01*
X027460Y003634D02*
X023526Y003634D01*
X026447Y003141D02*
X027460Y003141D01*
X027460Y003043D02*
X026614Y003043D01*
X026712Y002944D02*
X027460Y002944D01*
X027460Y002846D02*
X026786Y002846D01*
X026827Y002747D02*
X027460Y002747D01*
X027460Y002649D02*
X026868Y002649D01*
X026880Y002550D02*
X027460Y002550D01*
X027504Y002452D02*
X026880Y002452D01*
X026880Y002353D02*
X027700Y002353D01*
X027700Y002255D02*
X026849Y002255D01*
X026808Y002156D02*
X027700Y002156D01*
X027700Y002058D02*
X026766Y002058D01*
X026667Y001959D02*
X027700Y001959D01*
X027700Y001861D02*
X026569Y001861D01*
X027700Y001171D02*
X000340Y001171D01*
X000340Y001467D02*
X007131Y001467D01*
X007046Y001565D02*
X000340Y001565D01*
X000340Y001664D02*
X007005Y001664D01*
X006993Y001762D02*
X001839Y001762D01*
X002069Y001861D02*
X006995Y001861D01*
X007036Y001959D02*
X002167Y001959D01*
X002266Y002058D02*
X007107Y002058D01*
X007257Y002156D02*
X002308Y002156D01*
X002349Y002255D02*
X008640Y002255D01*
X008739Y002353D02*
X002380Y002353D01*
X001461Y001762D02*
X000340Y001762D01*
X000340Y001861D02*
X001231Y001861D01*
X001133Y001959D02*
X000340Y001959D01*
X000340Y002058D02*
X001034Y002058D01*
X000992Y002156D02*
X000340Y002156D01*
X000340Y002255D02*
X000951Y002255D01*
X000920Y002353D02*
X000340Y002353D01*
X000340Y002452D02*
X000920Y002452D01*
X000920Y002550D02*
X000340Y002550D01*
X000340Y002649D02*
X000932Y002649D01*
X000973Y002747D02*
X000340Y002747D01*
X000340Y002846D02*
X001014Y002846D01*
X001088Y002944D02*
X000340Y002944D01*
X000340Y003043D02*
X001186Y003043D01*
X001353Y003141D02*
X000340Y003141D01*
X000340Y003831D02*
X005367Y003831D01*
X005290Y003929D02*
X000340Y003929D01*
X000340Y004028D02*
X005249Y004028D01*
X005243Y004126D02*
X000340Y004126D01*
X000340Y004225D02*
X005251Y004225D01*
X005291Y004323D02*
X000340Y004323D01*
X000340Y004422D02*
X005371Y004422D01*
X005541Y004520D02*
X000340Y004520D01*
X000340Y004619D02*
X002443Y004619D01*
X002331Y004717D02*
X000340Y004717D01*
X000340Y004816D02*
X002275Y004816D01*
X002243Y004914D02*
X000340Y004914D01*
X000340Y005013D02*
X002243Y005013D01*
X002266Y005111D02*
X000340Y005111D01*
X000340Y005210D02*
X002309Y005210D01*
X002408Y005308D02*
X000340Y005308D01*
X000340Y005407D02*
X005356Y005407D01*
X005505Y005505D02*
X000340Y005505D01*
X000340Y005604D02*
X008880Y005604D01*
X008880Y005702D02*
X000340Y005702D01*
X000340Y005801D02*
X008880Y005801D01*
X008880Y005899D02*
X000340Y005899D01*
X000340Y005998D02*
X008880Y005998D01*
X008880Y006096D02*
X000340Y006096D01*
X000340Y006195D02*
X008880Y006195D01*
X008880Y006293D02*
X000340Y006293D01*
X000340Y006392D02*
X008880Y006392D01*
X008880Y006490D02*
X000340Y006490D01*
X000340Y006589D02*
X002516Y006589D01*
X002569Y006567D02*
X002731Y006567D01*
X002881Y006629D01*
X002995Y006743D01*
X003057Y006893D01*
X003057Y007055D01*
X002995Y007205D01*
X002881Y007320D01*
X002731Y007382D01*
X002569Y007382D01*
X002419Y007320D01*
X002305Y007205D01*
X002243Y007055D01*
X002243Y006893D01*
X002305Y006743D01*
X002419Y006629D01*
X002569Y006567D01*
X002784Y006589D02*
X003516Y006589D01*
X003569Y006567D02*
X003731Y006567D01*
X003881Y006629D01*
X003995Y006743D01*
X004057Y006893D01*
X004057Y007055D01*
X003995Y007205D01*
X003881Y007320D01*
X003731Y007382D01*
X003569Y007382D01*
X003419Y007320D01*
X003305Y007205D01*
X003243Y007055D01*
X003243Y006893D01*
X003305Y006743D01*
X003419Y006629D01*
X003569Y006567D01*
X003784Y006589D02*
X008880Y006589D01*
X008880Y006687D02*
X003939Y006687D01*
X004013Y006786D02*
X008880Y006786D01*
X008880Y006884D02*
X004054Y006884D01*
X004057Y006983D02*
X008880Y006983D01*
X008880Y007081D02*
X004047Y007081D01*
X004006Y007180D02*
X008880Y007180D01*
X008880Y007278D02*
X003922Y007278D01*
X003743Y007377D02*
X008880Y007377D01*
X008880Y007475D02*
X000340Y007475D01*
X000340Y007377D02*
X002557Y007377D01*
X002743Y007377D02*
X003557Y007377D01*
X003378Y007278D02*
X002922Y007278D01*
X003006Y007180D02*
X003294Y007180D01*
X003253Y007081D02*
X003047Y007081D01*
X003057Y006983D02*
X003243Y006983D01*
X003246Y006884D02*
X003054Y006884D01*
X003013Y006786D02*
X003287Y006786D01*
X003361Y006687D02*
X002939Y006687D01*
X002361Y006687D02*
X000340Y006687D01*
X000340Y006786D02*
X002287Y006786D01*
X002246Y006884D02*
X000340Y006884D01*
X000340Y006983D02*
X002243Y006983D01*
X002253Y007081D02*
X000340Y007081D01*
X000340Y007180D02*
X002294Y007180D01*
X002378Y007278D02*
X000340Y007278D01*
X000340Y007574D02*
X008959Y007574D01*
X009058Y007672D02*
X000340Y007672D01*
X000340Y007771D02*
X009156Y007771D01*
X009170Y007869D02*
X000340Y007869D01*
X000340Y007968D02*
X009182Y007968D01*
X009225Y008066D02*
X000340Y008066D01*
X000340Y008165D02*
X009339Y008165D01*
X009661Y008165D02*
X011755Y008165D01*
X011656Y008263D02*
X000340Y008263D01*
X000340Y008362D02*
X011558Y008362D01*
X011459Y008460D02*
X000340Y008460D01*
X000340Y008559D02*
X011361Y008559D01*
X011262Y008657D02*
X000340Y008657D01*
X000340Y008756D02*
X011164Y008756D01*
X011065Y008854D02*
X000340Y008854D01*
X000340Y008953D02*
X010967Y008953D01*
X010868Y009051D02*
X000340Y009051D01*
X000340Y009150D02*
X010770Y009150D01*
X010671Y009248D02*
X000340Y009248D01*
X000340Y009347D02*
X010573Y009347D01*
X010474Y009445D02*
X000340Y009445D01*
X000340Y009544D02*
X010376Y009544D01*
X010277Y009642D02*
X000340Y009642D01*
X000340Y009741D02*
X010179Y009741D01*
X010080Y009839D02*
X000340Y009839D01*
X000340Y009938D02*
X009982Y009938D01*
X009883Y010036D02*
X000340Y010036D01*
X000340Y010135D02*
X009785Y010135D01*
X009686Y010233D02*
X000340Y010233D01*
X000340Y010332D02*
X009588Y010332D01*
X009489Y010430D02*
X000340Y010430D01*
X000340Y010529D02*
X009391Y010529D01*
X009292Y010627D02*
X000340Y010627D01*
X000340Y010726D02*
X009194Y010726D01*
X009095Y010824D02*
X000340Y010824D01*
X000340Y010923D02*
X008997Y010923D01*
X008898Y011021D02*
X006331Y011021D01*
X006387Y011044D02*
X006480Y011137D01*
X006530Y011258D01*
X006530Y011390D01*
X006480Y011511D01*
X006387Y011604D01*
X006266Y011654D01*
X006134Y011654D01*
X006127Y011651D01*
X005730Y012049D01*
X005625Y012154D01*
X005406Y012154D01*
X005495Y012243D01*
X005516Y012294D01*
X006275Y012294D01*
X006377Y012397D01*
X006384Y012394D01*
X006516Y012394D01*
X006637Y012444D01*
X006730Y012537D01*
X006780Y012658D01*
X006780Y012790D01*
X006730Y012911D01*
X006637Y013004D01*
X006516Y013054D01*
X006384Y013054D01*
X006263Y013004D01*
X006170Y012911D01*
X006120Y012790D01*
X006120Y012658D01*
X006122Y012654D01*
X005516Y012654D01*
X005495Y012705D01*
X005381Y012820D01*
X005231Y012882D01*
X005069Y012882D01*
X004919Y012820D01*
X004830Y012730D01*
X004830Y012900D01*
X004997Y013067D01*
X005481Y013067D01*
X005557Y013143D01*
X005557Y013805D01*
X005481Y013882D01*
X004819Y013882D01*
X004743Y013805D01*
X004743Y013321D01*
X004575Y013154D01*
X004406Y013154D01*
X004495Y013243D01*
X004557Y013393D01*
X004557Y013555D01*
X004495Y013705D01*
X004381Y013820D01*
X004231Y013882D01*
X004069Y013882D01*
X003919Y013820D01*
X003805Y013705D01*
X003743Y013555D01*
X003743Y013393D01*
X003805Y013243D01*
X003894Y013154D01*
X002933Y013154D01*
X002930Y013161D01*
X002837Y013254D01*
X002716Y013304D01*
X002584Y013304D01*
X002463Y013254D01*
X002370Y013161D01*
X002320Y013040D01*
X002320Y012908D01*
X002370Y012787D01*
X002463Y012694D01*
X002584Y012644D01*
X002716Y012644D01*
X002837Y012694D01*
X002930Y012787D01*
X002933Y012794D01*
X003894Y012794D01*
X003805Y012705D01*
X003743Y012555D01*
X003743Y012393D01*
X003805Y012243D01*
X003919Y012129D01*
X004069Y012067D01*
X004231Y012067D01*
X004381Y012129D01*
X004470Y012218D01*
X004470Y012200D01*
X004575Y012094D01*
X004875Y011794D01*
X005475Y011794D01*
X005873Y011397D01*
X005870Y011390D01*
X005870Y011258D01*
X005920Y011137D01*
X006013Y011044D01*
X006134Y010994D01*
X006266Y010994D01*
X006387Y011044D01*
X006462Y011120D02*
X008800Y011120D01*
X008701Y011218D02*
X006513Y011218D01*
X006530Y011317D02*
X008603Y011317D01*
X008292Y011415D02*
X006519Y011415D01*
X006477Y011514D02*
X008209Y011514D01*
X008170Y011612D02*
X006367Y011612D01*
X006068Y011711D02*
X008170Y011711D01*
X008199Y011809D02*
X005970Y011809D01*
X005871Y011908D02*
X008267Y011908D01*
X008515Y012105D02*
X005674Y012105D01*
X005773Y012006D02*
X008613Y012006D01*
X008801Y011809D02*
X008810Y011809D01*
X008830Y011711D02*
X008909Y011711D01*
X008830Y011612D02*
X009007Y011612D01*
X008915Y011514D02*
X009106Y011514D01*
X009014Y011415D02*
X010342Y011415D01*
X010480Y011317D02*
X009112Y011317D01*
X009250Y011624D02*
X007500Y013374D01*
X007622Y013681D02*
X008339Y013681D01*
X008240Y013779D02*
X005557Y013779D01*
X005557Y013681D02*
X007378Y013681D01*
X007241Y013582D02*
X005557Y013582D01*
X005557Y013484D02*
X007188Y013484D01*
X007170Y013385D02*
X005557Y013385D01*
X005557Y013287D02*
X007179Y013287D01*
X007220Y013188D02*
X005557Y013188D01*
X005504Y013090D02*
X007324Y013090D01*
X007628Y012991D02*
X006650Y012991D01*
X006737Y012893D02*
X007727Y012893D01*
X007825Y012794D02*
X006778Y012794D01*
X006780Y012696D02*
X007924Y012696D01*
X008022Y012597D02*
X006755Y012597D01*
X006691Y012499D02*
X008121Y012499D01*
X008219Y012400D02*
X006530Y012400D01*
X006282Y012302D02*
X008318Y012302D01*
X008416Y012203D02*
X005455Y012203D01*
X005550Y011974D02*
X004950Y011974D01*
X004650Y012274D01*
X004650Y012974D01*
X005150Y013474D01*
X004743Y013484D02*
X004557Y013484D01*
X004546Y013582D02*
X004743Y013582D01*
X004743Y013681D02*
X004506Y013681D01*
X004421Y013779D02*
X004743Y013779D01*
X004815Y013878D02*
X004241Y013878D01*
X004059Y013878D02*
X000340Y013878D01*
X000340Y013976D02*
X008043Y013976D01*
X007945Y014075D02*
X000340Y014075D01*
X000340Y014173D02*
X007846Y014173D01*
X007748Y014272D02*
X000340Y014272D01*
X000340Y014370D02*
X007649Y014370D01*
X007551Y014469D02*
X000340Y014469D01*
X000340Y014567D02*
X007452Y014567D01*
X007354Y014666D02*
X000340Y014666D01*
X000340Y014764D02*
X007255Y014764D01*
X007157Y014863D02*
X000340Y014863D01*
X000340Y014961D02*
X007058Y014961D01*
X006960Y015060D02*
X000340Y015060D01*
X000340Y015158D02*
X006861Y015158D01*
X006763Y015257D02*
X000340Y015257D01*
X000340Y015355D02*
X006664Y015355D01*
X006566Y015454D02*
X000340Y015454D01*
X000340Y015552D02*
X006467Y015552D01*
X006369Y015651D02*
X000340Y015651D01*
X000340Y015749D02*
X006270Y015749D01*
X006172Y015848D02*
X000340Y015848D01*
X000340Y015946D02*
X006073Y015946D01*
X005975Y016045D02*
X000340Y016045D01*
X000340Y016143D02*
X005876Y016143D01*
X005778Y016242D02*
X000340Y016242D01*
X000340Y016340D02*
X005679Y016340D01*
X005581Y016439D02*
X000340Y016439D01*
X000340Y016537D02*
X005482Y016537D01*
X005384Y016636D02*
X000340Y016636D01*
X000340Y016734D02*
X005285Y016734D01*
X005187Y016833D02*
X000340Y016833D01*
X000340Y016931D02*
X005088Y016931D01*
X004990Y017030D02*
X000340Y017030D01*
X000340Y017128D02*
X004891Y017128D01*
X004793Y017227D02*
X000340Y017227D01*
X000340Y017325D02*
X004694Y017325D01*
X004596Y017424D02*
X000340Y017424D01*
X000340Y017522D02*
X004497Y017522D01*
X004399Y017621D02*
X000340Y017621D01*
X000340Y017719D02*
X004300Y017719D01*
X004202Y017818D02*
X000340Y017818D01*
X000340Y017916D02*
X004103Y017916D01*
X004005Y018015D02*
X000340Y018015D01*
X000340Y018113D02*
X003906Y018113D01*
X003808Y018212D02*
X000340Y018212D01*
X000340Y018310D02*
X003447Y018310D01*
X003361Y018409D02*
X000340Y018409D01*
X000340Y018507D02*
X003321Y018507D01*
X003320Y018606D02*
X000340Y018606D01*
X000340Y018704D02*
X003347Y018704D01*
X003412Y018803D02*
X000340Y018803D01*
X000340Y018901D02*
X003577Y018901D01*
X003723Y018901D02*
X013778Y018901D01*
X013758Y018921D02*
X013921Y018757D01*
X014135Y018669D01*
X014365Y018669D01*
X014579Y018757D01*
X014742Y018921D01*
X014830Y019134D01*
X014830Y019365D01*
X014742Y019578D01*
X014579Y019741D01*
X014365Y019829D01*
X014135Y019829D01*
X013921Y019741D01*
X013758Y019578D01*
X013670Y019365D01*
X013670Y019134D01*
X013758Y018921D01*
X013726Y019000D02*
X000340Y019000D01*
X000340Y019098D02*
X013685Y019098D01*
X013670Y019197D02*
X000340Y019197D01*
X000340Y019295D02*
X002220Y019295D01*
X002270Y019274D02*
X002450Y019274D01*
X002615Y019343D01*
X002741Y019469D01*
X002810Y019635D01*
X002810Y020454D01*
X002741Y020619D01*
X002615Y020746D01*
X002450Y020814D01*
X002270Y020814D01*
X002105Y020746D01*
X001979Y020619D01*
X001910Y020454D01*
X001910Y019635D01*
X001979Y019469D01*
X002105Y019343D01*
X002270Y019274D01*
X002500Y019295D02*
X013670Y019295D01*
X013682Y019394D02*
X002666Y019394D01*
X002751Y019492D02*
X013723Y019492D01*
X013771Y019591D02*
X002792Y019591D01*
X002810Y019689D02*
X013870Y019689D01*
X014035Y019788D02*
X002810Y019788D01*
X002810Y019886D02*
X017071Y019886D01*
X017001Y019985D02*
X002810Y019985D01*
X002810Y020083D02*
X016970Y020083D01*
X016970Y020182D02*
X002810Y020182D01*
X002810Y020280D02*
X017007Y020280D01*
X017088Y020379D02*
X002810Y020379D01*
X002800Y020477D02*
X017120Y020477D01*
X017120Y020576D02*
X002759Y020576D01*
X002686Y020674D02*
X017120Y020674D01*
X017120Y020773D02*
X002550Y020773D01*
X002170Y020773D02*
X000340Y020773D01*
X000340Y020871D02*
X017120Y020871D01*
X017120Y020970D02*
X000340Y020970D01*
X000340Y021068D02*
X017120Y021068D01*
X017120Y021167D02*
X000340Y021167D01*
X000340Y021265D02*
X017120Y021265D01*
X017120Y021364D02*
X000340Y021364D01*
X000340Y021462D02*
X017120Y021462D01*
X017120Y021561D02*
X000340Y021561D01*
X000340Y021659D02*
X017120Y021659D01*
X017480Y021659D02*
X020819Y021659D01*
X020779Y021758D02*
X017480Y021758D01*
X017480Y021856D02*
X020770Y021856D01*
X020770Y021955D02*
X017480Y021955D01*
X017480Y022053D02*
X020805Y022053D01*
X020849Y022152D02*
X017480Y022152D01*
X017493Y022250D02*
X020947Y022250D01*
X020885Y021561D02*
X017480Y021561D01*
X017480Y021462D02*
X020990Y021462D01*
X020962Y021265D02*
X017480Y021265D01*
X017480Y021167D02*
X020864Y021167D01*
X020811Y021068D02*
X017480Y021068D01*
X017480Y020970D02*
X020441Y020970D01*
X020342Y020871D02*
X017480Y020871D01*
X017480Y020773D02*
X020244Y020773D01*
X020145Y020674D02*
X017480Y020674D01*
X017480Y020576D02*
X020047Y020576D01*
X019948Y020477D02*
X017480Y020477D01*
X017512Y020379D02*
X019850Y020379D01*
X019751Y020280D02*
X017593Y020280D01*
X017630Y020182D02*
X019653Y020182D01*
X019554Y020083D02*
X017630Y020083D01*
X017599Y019985D02*
X019456Y019985D01*
X019357Y019886D02*
X017529Y019886D01*
X017300Y020124D02*
X017300Y022524D01*
X017052Y022743D02*
X007545Y022743D01*
X007615Y022841D02*
X017203Y022841D01*
X017480Y021364D02*
X027460Y021364D01*
X027460Y020280D02*
X020261Y020280D01*
X020162Y020182D02*
X027460Y020182D01*
X027460Y020083D02*
X020064Y020083D01*
X019965Y019985D02*
X027460Y019985D01*
X027460Y019886D02*
X019867Y019886D01*
X019768Y019788D02*
X020035Y019788D01*
X020135Y019829D02*
X019921Y019741D01*
X019758Y019578D01*
X019670Y019365D01*
X019670Y019134D01*
X019758Y018921D01*
X019921Y018757D01*
X020135Y018669D01*
X020365Y018669D01*
X020579Y018757D01*
X020742Y018921D01*
X020830Y019134D01*
X020830Y019365D01*
X020742Y019578D01*
X020579Y019741D01*
X020365Y019829D01*
X020135Y019829D01*
X019870Y019689D02*
X019670Y019689D01*
X019571Y019591D02*
X019771Y019591D01*
X019723Y019492D02*
X019530Y019492D01*
X019530Y019394D02*
X019682Y019394D01*
X019670Y019295D02*
X019530Y019295D01*
X019530Y019197D02*
X019670Y019197D01*
X019685Y019098D02*
X019530Y019098D01*
X019530Y019000D02*
X019726Y019000D01*
X019778Y018901D02*
X019530Y018901D01*
X019530Y018803D02*
X019876Y018803D01*
X020050Y018704D02*
X019530Y018704D01*
X019530Y018606D02*
X027460Y018606D01*
X027460Y018704D02*
X020450Y018704D01*
X020624Y018803D02*
X027460Y018803D01*
X027460Y018901D02*
X020722Y018901D01*
X020774Y019000D02*
X027460Y019000D01*
X027460Y019098D02*
X020815Y019098D01*
X020830Y019197D02*
X027460Y019197D01*
X027460Y019295D02*
X020830Y019295D01*
X020818Y019394D02*
X027460Y019394D01*
X027460Y019492D02*
X020777Y019492D01*
X020729Y019591D02*
X027460Y019591D01*
X027460Y019689D02*
X020630Y019689D01*
X020465Y019788D02*
X027460Y019788D01*
X027460Y018507D02*
X019530Y018507D01*
X019530Y018409D02*
X027460Y018409D01*
X027460Y018310D02*
X019530Y018310D01*
X019530Y018212D02*
X024686Y018212D01*
X024719Y018245D02*
X024605Y018130D01*
X024543Y017980D01*
X024543Y017818D01*
X019530Y017818D01*
X019530Y017916D02*
X024543Y017916D01*
X024543Y017818D02*
X024605Y017668D01*
X024700Y017573D01*
X024700Y012041D01*
X024670Y012011D01*
X024620Y011890D01*
X024620Y011758D01*
X024670Y011637D01*
X024763Y011544D01*
X024884Y011494D01*
X025016Y011494D01*
X025137Y011544D01*
X025230Y011637D01*
X025280Y011758D01*
X025280Y011890D01*
X025230Y012011D01*
X025200Y012041D01*
X025200Y017573D01*
X025295Y017668D01*
X025357Y017818D01*
X025543Y017818D01*
X025605Y017668D01*
X025719Y017554D01*
X025869Y017492D01*
X026031Y017492D01*
X026181Y017554D01*
X026295Y017668D01*
X026357Y017818D01*
X027460Y017818D01*
X027460Y017916D02*
X026357Y017916D01*
X026357Y017980D02*
X026295Y018130D01*
X026181Y018245D01*
X026031Y018307D01*
X025869Y018307D01*
X025719Y018245D01*
X025605Y018130D01*
X025543Y017980D01*
X025543Y017818D01*
X025543Y017916D02*
X025357Y017916D01*
X025357Y017980D02*
X025295Y018130D01*
X025181Y018245D01*
X025031Y018307D01*
X024869Y018307D01*
X024719Y018245D01*
X024598Y018113D02*
X019530Y018113D01*
X019530Y018015D02*
X024557Y018015D01*
X024583Y017719D02*
X019530Y017719D01*
X019501Y017621D02*
X024652Y017621D01*
X024700Y017522D02*
X019403Y017522D01*
X019304Y017424D02*
X024700Y017424D01*
X024700Y017325D02*
X019206Y017325D01*
X019107Y017227D02*
X024700Y017227D01*
X024700Y017128D02*
X019009Y017128D01*
X018955Y017030D02*
X024700Y017030D01*
X024700Y016931D02*
X018980Y016931D01*
X018980Y016833D02*
X024700Y016833D01*
X024700Y016734D02*
X018962Y016734D01*
X018921Y016636D02*
X024700Y016636D01*
X024700Y016537D02*
X018842Y016537D01*
X018703Y016439D02*
X024700Y016439D01*
X024700Y016340D02*
X018630Y016340D01*
X018630Y016242D02*
X024700Y016242D01*
X024700Y016143D02*
X018630Y016143D01*
X018630Y016045D02*
X024700Y016045D01*
X024700Y015946D02*
X018630Y015946D01*
X018630Y015848D02*
X024700Y015848D01*
X024700Y015749D02*
X018630Y015749D01*
X018630Y015651D02*
X024700Y015651D01*
X024700Y015552D02*
X018630Y015552D01*
X018630Y015454D02*
X024700Y015454D01*
X024700Y015355D02*
X018630Y015355D01*
X018630Y015257D02*
X024700Y015257D01*
X024700Y015158D02*
X018630Y015158D01*
X018630Y015060D02*
X024700Y015060D01*
X024700Y014961D02*
X018630Y014961D01*
X018630Y014863D02*
X024700Y014863D01*
X024700Y014764D02*
X018630Y014764D01*
X018630Y014666D02*
X024700Y014666D01*
X024700Y014567D02*
X018630Y014567D01*
X018630Y014469D02*
X024700Y014469D01*
X024700Y014370D02*
X018630Y014370D01*
X018630Y014272D02*
X024700Y014272D01*
X024700Y014173D02*
X018630Y014173D01*
X018630Y014075D02*
X024700Y014075D01*
X024700Y013976D02*
X021194Y013976D01*
X021181Y013982D02*
X021019Y013982D01*
X020869Y013920D01*
X020755Y013805D01*
X020693Y013655D01*
X020693Y013493D01*
X020755Y013343D01*
X020869Y013229D01*
X021019Y013167D01*
X021181Y013167D01*
X021331Y013229D01*
X021445Y013343D01*
X021507Y013493D01*
X021507Y013655D01*
X021445Y013805D01*
X021331Y013920D01*
X021181Y013982D01*
X021006Y013976D02*
X018630Y013976D01*
X018630Y013878D02*
X020827Y013878D01*
X020744Y013779D02*
X018630Y013779D01*
X018630Y013681D02*
X020703Y013681D01*
X020693Y013582D02*
X018630Y013582D01*
X018630Y013484D02*
X020696Y013484D01*
X020737Y013385D02*
X018630Y013385D01*
X018630Y013287D02*
X020811Y013287D01*
X020967Y013188D02*
X018630Y013188D01*
X018630Y013090D02*
X024700Y013090D01*
X024700Y013188D02*
X021233Y013188D01*
X021389Y013287D02*
X024700Y013287D01*
X024700Y013385D02*
X021463Y013385D01*
X021504Y013484D02*
X024700Y013484D01*
X024700Y013582D02*
X021507Y013582D01*
X021497Y013681D02*
X024700Y013681D01*
X024700Y013779D02*
X021456Y013779D01*
X021373Y013878D02*
X024700Y013878D01*
X025200Y013878D02*
X027460Y013878D01*
X027460Y013976D02*
X025200Y013976D01*
X025200Y014075D02*
X027460Y014075D01*
X027460Y014173D02*
X025200Y014173D01*
X025200Y014272D02*
X027460Y014272D01*
X027460Y014370D02*
X025200Y014370D01*
X025200Y014469D02*
X027460Y014469D01*
X027460Y014567D02*
X025200Y014567D01*
X025200Y014666D02*
X027460Y014666D01*
X027460Y014764D02*
X025200Y014764D01*
X025200Y014863D02*
X027460Y014863D01*
X027460Y014961D02*
X025200Y014961D01*
X025200Y015060D02*
X027460Y015060D01*
X027460Y015158D02*
X025200Y015158D01*
X025200Y015257D02*
X027460Y015257D01*
X027460Y015355D02*
X025200Y015355D01*
X025200Y015454D02*
X027460Y015454D01*
X027460Y015552D02*
X025200Y015552D01*
X025200Y015651D02*
X027460Y015651D01*
X027460Y015749D02*
X025200Y015749D01*
X025200Y015848D02*
X027460Y015848D01*
X027460Y015946D02*
X025200Y015946D01*
X025200Y016045D02*
X027460Y016045D01*
X027460Y016143D02*
X025200Y016143D01*
X025200Y016242D02*
X027460Y016242D01*
X027460Y016340D02*
X025200Y016340D01*
X025200Y016439D02*
X027460Y016439D01*
X027460Y016537D02*
X025200Y016537D01*
X025200Y016636D02*
X027460Y016636D01*
X027460Y016734D02*
X025200Y016734D01*
X025200Y016833D02*
X027460Y016833D01*
X027460Y016931D02*
X025200Y016931D01*
X025200Y017030D02*
X027460Y017030D01*
X027460Y017128D02*
X025200Y017128D01*
X025200Y017227D02*
X027460Y017227D01*
X027460Y017325D02*
X025200Y017325D01*
X025200Y017424D02*
X027460Y017424D01*
X027460Y017522D02*
X026105Y017522D01*
X026248Y017621D02*
X027460Y017621D01*
X027460Y017719D02*
X026317Y017719D01*
X026357Y017818D02*
X026357Y017980D01*
X026343Y018015D02*
X027460Y018015D01*
X027460Y018113D02*
X026302Y018113D01*
X026214Y018212D02*
X027460Y018212D01*
X025795Y017522D02*
X025200Y017522D01*
X025248Y017621D02*
X025652Y017621D01*
X025583Y017719D02*
X025317Y017719D01*
X025357Y017818D02*
X025357Y017980D01*
X025343Y018015D02*
X025557Y018015D01*
X025598Y018113D02*
X025302Y018113D01*
X025214Y018212D02*
X025686Y018212D01*
X021250Y020874D02*
X020600Y020874D01*
X019259Y019788D02*
X014465Y019788D01*
X014630Y019689D02*
X019170Y019689D01*
X019170Y019591D02*
X014729Y019591D01*
X014777Y019492D02*
X019170Y019492D01*
X019170Y019394D02*
X014818Y019394D01*
X014830Y019295D02*
X015762Y019295D01*
X015728Y019281D02*
X015593Y019146D01*
X015520Y018970D01*
X015520Y018779D01*
X015593Y018602D01*
X015728Y018467D01*
X015905Y018394D01*
X016095Y018394D01*
X016272Y018467D01*
X016407Y018602D01*
X016480Y018779D01*
X016480Y018970D01*
X016407Y019146D01*
X016272Y019281D01*
X016095Y019354D01*
X015905Y019354D01*
X015728Y019281D01*
X015644Y019197D02*
X014830Y019197D01*
X014815Y019098D02*
X015573Y019098D01*
X015532Y019000D02*
X014774Y019000D01*
X014722Y018901D02*
X015520Y018901D01*
X015520Y018803D02*
X014624Y018803D01*
X014450Y018704D02*
X015551Y018704D01*
X015592Y018606D02*
X003980Y018606D01*
X003953Y018704D02*
X014050Y018704D01*
X013876Y018803D02*
X003888Y018803D01*
X003700Y018574D02*
X003650Y018574D01*
X003700Y018574D02*
X010200Y012074D01*
X010300Y012074D01*
X010012Y011908D02*
X009221Y011908D01*
X009123Y012006D02*
X009971Y012006D01*
X009915Y012105D02*
X009024Y012105D01*
X008926Y012203D02*
X009816Y012203D01*
X009718Y012302D02*
X008827Y012302D01*
X008729Y012400D02*
X009619Y012400D01*
X009521Y012499D02*
X008630Y012499D01*
X008532Y012597D02*
X009422Y012597D01*
X009324Y012696D02*
X008433Y012696D01*
X008335Y012794D02*
X009225Y012794D01*
X009127Y012893D02*
X008236Y012893D01*
X008138Y012991D02*
X009028Y012991D01*
X008930Y013090D02*
X008039Y013090D01*
X007941Y013188D02*
X008831Y013188D01*
X008733Y013287D02*
X007842Y013287D01*
X007830Y013385D02*
X008634Y013385D01*
X008536Y013484D02*
X007812Y013484D01*
X007759Y013582D02*
X008437Y013582D01*
X008651Y013878D02*
X008742Y013878D01*
X008750Y013779D02*
X008840Y013779D01*
X008848Y013681D02*
X008939Y013681D01*
X008947Y013582D02*
X009037Y013582D01*
X009045Y013484D02*
X009136Y013484D01*
X009144Y013385D02*
X009234Y013385D01*
X009242Y013287D02*
X009333Y013287D01*
X009341Y013188D02*
X009431Y013188D01*
X009439Y013090D02*
X009530Y013090D01*
X009538Y012991D02*
X009628Y012991D01*
X009636Y012893D02*
X009727Y012893D01*
X009735Y012794D02*
X009825Y012794D01*
X009833Y012696D02*
X009924Y012696D01*
X009932Y012597D02*
X010022Y012597D01*
X010030Y012499D02*
X010121Y012499D01*
X010129Y012400D02*
X010219Y012400D01*
X010433Y012696D02*
X010493Y012696D01*
X010553Y012794D02*
X010335Y012794D01*
X010236Y012893D02*
X010707Y012893D01*
X010893Y012893D02*
X011127Y012893D01*
X011047Y012794D02*
X011225Y012794D01*
X011324Y012696D02*
X011107Y012696D01*
X011182Y012597D02*
X011422Y012597D01*
X011521Y012499D02*
X011280Y012499D01*
X011379Y012400D02*
X011619Y012400D01*
X011718Y012302D02*
X011477Y012302D01*
X011576Y012203D02*
X011816Y012203D01*
X011915Y012105D02*
X011674Y012105D01*
X011773Y012006D02*
X012013Y012006D01*
X012112Y011908D02*
X011871Y011908D01*
X011970Y011809D02*
X012210Y011809D01*
X012309Y011711D02*
X012068Y011711D01*
X012167Y011612D02*
X012407Y011612D01*
X012550Y011724D02*
X011100Y013174D01*
X010400Y013174D01*
X008900Y014674D01*
X008772Y014370D02*
X008759Y014370D01*
X008857Y014272D02*
X009048Y014272D01*
X008956Y014173D02*
X009146Y014173D01*
X009054Y014075D02*
X009245Y014075D01*
X009153Y013976D02*
X009343Y013976D01*
X009251Y013878D02*
X009442Y013878D01*
X009350Y013779D02*
X009540Y013779D01*
X009448Y013681D02*
X009639Y013681D01*
X009547Y013582D02*
X009737Y013582D01*
X009645Y013484D02*
X009836Y013484D01*
X009744Y013385D02*
X009934Y013385D01*
X009842Y013287D02*
X010033Y013287D01*
X009941Y013188D02*
X010131Y013188D01*
X010039Y013090D02*
X010230Y013090D01*
X010138Y012991D02*
X011028Y012991D01*
X011350Y013524D02*
X010650Y013524D01*
X009500Y014674D01*
X009331Y014961D02*
X009069Y014961D01*
X009178Y014863D02*
X009222Y014863D01*
X008731Y014961D02*
X008630Y014961D01*
X008630Y015060D02*
X018270Y015060D01*
X018270Y015158D02*
X008630Y015158D01*
X008630Y015257D02*
X018270Y015257D01*
X018270Y015355D02*
X008630Y015355D01*
X008630Y015454D02*
X018270Y015454D01*
X018270Y015552D02*
X008630Y015552D01*
X008630Y015651D02*
X018270Y015651D01*
X018270Y015749D02*
X008630Y015749D01*
X008630Y015848D02*
X018270Y015848D01*
X018270Y015946D02*
X008630Y015946D01*
X008630Y016045D02*
X018270Y016045D01*
X018270Y016143D02*
X008634Y016143D01*
X008732Y016242D02*
X018270Y016242D01*
X018270Y016340D02*
X008772Y016340D01*
X008780Y016439D02*
X015797Y016439D01*
X015728Y016467D02*
X015905Y016394D01*
X016095Y016394D01*
X016272Y016467D01*
X016407Y016602D01*
X016480Y016779D01*
X016480Y016970D01*
X016407Y017146D01*
X016272Y017281D01*
X016095Y017354D01*
X015905Y017354D01*
X015728Y017281D01*
X015593Y017146D01*
X015520Y016970D01*
X015520Y016779D01*
X015593Y016602D01*
X015728Y016467D01*
X015658Y016537D02*
X008760Y016537D01*
X008705Y016636D02*
X015579Y016636D01*
X015538Y016734D02*
X008564Y016734D01*
X008336Y016734D02*
X005795Y016734D01*
X005893Y016636D02*
X008195Y016636D01*
X008140Y016537D02*
X005992Y016537D01*
X006090Y016439D02*
X008120Y016439D01*
X008128Y016340D02*
X006189Y016340D01*
X006287Y016242D02*
X008168Y016242D01*
X008266Y016143D02*
X006386Y016143D01*
X006484Y016045D02*
X008270Y016045D01*
X008270Y015946D02*
X006583Y015946D01*
X006681Y015848D02*
X008270Y015848D01*
X008270Y015749D02*
X006780Y015749D01*
X006878Y015651D02*
X008270Y015651D01*
X008270Y015552D02*
X006977Y015552D01*
X007075Y015454D02*
X008270Y015454D01*
X008270Y015355D02*
X007174Y015355D01*
X007272Y015257D02*
X008270Y015257D01*
X008270Y015158D02*
X007371Y015158D01*
X007469Y015060D02*
X008270Y015060D01*
X008270Y014961D02*
X007568Y014961D01*
X007666Y014863D02*
X008270Y014863D01*
X008270Y014764D02*
X007765Y014764D01*
X007863Y014666D02*
X008270Y014666D01*
X008270Y014567D02*
X007962Y014567D01*
X008060Y014469D02*
X008270Y014469D01*
X008270Y014370D02*
X008159Y014370D01*
X008257Y014272D02*
X008348Y014272D01*
X008356Y014173D02*
X008446Y014173D01*
X008454Y014075D02*
X008545Y014075D01*
X008553Y013976D02*
X008643Y013976D01*
X008450Y014424D02*
X008450Y016424D01*
X009669Y014961D02*
X009931Y014961D01*
X009822Y014863D02*
X009778Y014863D01*
X010100Y014674D02*
X010850Y013924D01*
X011650Y013924D01*
X011873Y013681D02*
X014777Y013681D01*
X014770Y013687D02*
X014863Y013594D01*
X014984Y013544D01*
X015116Y013544D01*
X015237Y013594D01*
X015330Y013687D01*
X015333Y013694D01*
X016220Y013694D01*
X016220Y013608D01*
X016270Y013487D01*
X016363Y013394D01*
X016484Y013344D01*
X016616Y013344D01*
X016737Y013394D01*
X016830Y013487D01*
X016880Y013608D01*
X016880Y013740D01*
X016830Y013861D01*
X016737Y013954D01*
X016616Y014004D01*
X016484Y014004D01*
X016477Y014001D01*
X016425Y014054D01*
X015333Y014054D01*
X015330Y014061D01*
X015237Y014154D01*
X015116Y014204D01*
X014984Y014204D01*
X014863Y014154D01*
X014770Y014061D01*
X014720Y013940D01*
X014720Y013808D01*
X014770Y013687D01*
X014732Y013779D02*
X011947Y013779D01*
X011980Y013878D02*
X014720Y013878D01*
X014735Y013976D02*
X011980Y013976D01*
X011945Y014075D02*
X014784Y014075D01*
X014910Y014173D02*
X011868Y014173D01*
X011432Y014173D02*
X010856Y014173D01*
X010757Y014272D02*
X018270Y014272D01*
X018270Y014370D02*
X010659Y014370D01*
X010560Y014469D02*
X018270Y014469D01*
X018270Y014567D02*
X010462Y014567D01*
X010430Y014666D02*
X018270Y014666D01*
X018270Y014764D02*
X010420Y014764D01*
X010378Y014863D02*
X018270Y014863D01*
X018270Y014961D02*
X010269Y014961D01*
X011547Y013582D02*
X014893Y013582D01*
X015207Y013582D02*
X016231Y013582D01*
X016220Y013681D02*
X015323Y013681D01*
X015050Y013874D02*
X016350Y013874D01*
X016550Y013674D01*
X016880Y013681D02*
X018270Y013681D01*
X018270Y013779D02*
X016864Y013779D01*
X016813Y013878D02*
X018270Y013878D01*
X018270Y013976D02*
X016683Y013976D01*
X016869Y013582D02*
X018270Y013582D01*
X018270Y013484D02*
X016826Y013484D01*
X016715Y013385D02*
X018270Y013385D01*
X018270Y013287D02*
X011842Y013287D01*
X011744Y013385D02*
X016385Y013385D01*
X016274Y013484D02*
X011645Y013484D01*
X011350Y013524D02*
X012700Y012174D01*
X014050Y012174D01*
X014354Y012302D02*
X018270Y012302D01*
X018270Y012400D02*
X014291Y012400D01*
X014129Y012499D02*
X018270Y012499D01*
X018270Y012597D02*
X012532Y012597D01*
X012630Y012499D02*
X013971Y012499D01*
X013809Y012400D02*
X012729Y012400D01*
X012433Y012696D02*
X018270Y012696D01*
X018270Y012794D02*
X012335Y012794D01*
X012236Y012893D02*
X018270Y012893D01*
X018270Y012991D02*
X012138Y012991D01*
X012039Y013090D02*
X018270Y013090D01*
X018270Y013188D02*
X011941Y013188D01*
X010950Y012574D02*
X012000Y011524D01*
X012180Y011514D02*
X012644Y011514D01*
X012784Y011415D02*
X012180Y011415D01*
X012180Y011317D02*
X018270Y011317D01*
X018270Y011415D02*
X013016Y011415D01*
X013156Y011514D02*
X018270Y011514D01*
X018270Y011612D02*
X013211Y011612D01*
X013230Y011711D02*
X018270Y011711D01*
X018270Y011809D02*
X013222Y011809D01*
X013181Y011908D02*
X013850Y011908D01*
X014250Y011908D02*
X018270Y011908D01*
X018270Y012006D02*
X014338Y012006D01*
X014378Y012105D02*
X018270Y012105D01*
X018270Y012203D02*
X014380Y012203D01*
X012900Y011724D02*
X012550Y011724D01*
X012180Y011218D02*
X018270Y011218D01*
X018270Y011120D02*
X012180Y011120D01*
X012180Y011021D02*
X018270Y011021D01*
X018270Y010923D02*
X012180Y010923D01*
X012180Y010824D02*
X018270Y010824D01*
X018270Y010726D02*
X012180Y010726D01*
X012180Y010627D02*
X018270Y010627D01*
X018270Y010529D02*
X012180Y010529D01*
X012180Y010430D02*
X018270Y010430D01*
X018270Y010332D02*
X012180Y010332D01*
X011130Y011317D02*
X010720Y011317D01*
X010858Y011415D02*
X010992Y011415D01*
X010939Y011514D02*
X010911Y011514D01*
X010600Y011624D02*
X009250Y011624D01*
X009320Y011809D02*
X010098Y011809D01*
X010800Y012574D02*
X010950Y012574D01*
X011250Y011624D02*
X008450Y014424D01*
X008142Y013878D02*
X005485Y013878D01*
X004743Y013385D02*
X004554Y013385D01*
X004513Y013287D02*
X004708Y013287D01*
X004609Y013188D02*
X004440Y013188D01*
X004650Y012974D02*
X002650Y012974D01*
X002341Y013090D02*
X000340Y013090D01*
X000340Y013188D02*
X002397Y013188D01*
X002542Y013287D02*
X000340Y013287D01*
X000340Y013385D02*
X003746Y013385D01*
X003743Y013484D02*
X000340Y013484D01*
X000340Y013582D02*
X003754Y013582D01*
X003794Y013681D02*
X000340Y013681D01*
X000340Y013779D02*
X003879Y013779D01*
X003787Y013287D02*
X002758Y013287D01*
X002903Y013188D02*
X003860Y013188D01*
X003801Y012696D02*
X002838Y012696D01*
X002462Y012696D02*
X000340Y012696D01*
X000340Y012794D02*
X002367Y012794D01*
X002327Y012893D02*
X000340Y012893D01*
X000340Y012991D02*
X002320Y012991D01*
X003760Y012597D02*
X000340Y012597D01*
X000340Y012499D02*
X003743Y012499D01*
X003743Y012400D02*
X000340Y012400D01*
X000340Y012302D02*
X003780Y012302D01*
X003845Y012203D02*
X000340Y012203D01*
X000340Y012105D02*
X003977Y012105D01*
X004069Y011882D02*
X003919Y011820D01*
X003805Y011705D01*
X003743Y011555D01*
X003743Y011393D01*
X003805Y011243D01*
X003919Y011129D01*
X004069Y011067D01*
X004231Y011067D01*
X004381Y011129D01*
X004495Y011243D01*
X004557Y011393D01*
X004557Y011555D01*
X004495Y011705D01*
X004381Y011820D01*
X004231Y011882D01*
X004069Y011882D01*
X003909Y011809D02*
X000340Y011809D01*
X000340Y011711D02*
X003810Y011711D01*
X003766Y011612D02*
X000340Y011612D01*
X000340Y011514D02*
X003743Y011514D01*
X003743Y011415D02*
X000340Y011415D01*
X000340Y011317D02*
X003774Y011317D01*
X003830Y011218D02*
X000340Y011218D01*
X000340Y011120D02*
X003941Y011120D01*
X004359Y011120D02*
X005938Y011120D01*
X005887Y011218D02*
X004470Y011218D01*
X004526Y011317D02*
X005870Y011317D01*
X005854Y011415D02*
X004557Y011415D01*
X004557Y011514D02*
X005756Y011514D01*
X005657Y011612D02*
X004534Y011612D01*
X004490Y011711D02*
X005559Y011711D01*
X005550Y011974D02*
X006200Y011324D01*
X006069Y011021D02*
X000340Y011021D01*
X000340Y011908D02*
X004762Y011908D01*
X004663Y012006D02*
X000340Y012006D01*
X004323Y012105D02*
X004565Y012105D01*
X004470Y012203D02*
X004455Y012203D01*
X004391Y011809D02*
X004860Y011809D01*
X005150Y012474D02*
X006200Y012474D01*
X006450Y012724D01*
X006120Y012696D02*
X005499Y012696D01*
X005406Y012794D02*
X006122Y012794D01*
X006163Y012893D02*
X004830Y012893D01*
X004830Y012794D02*
X004894Y012794D01*
X004922Y012991D02*
X006250Y012991D01*
X008500Y011674D02*
X013050Y007124D01*
X012937Y006983D02*
X009649Y006983D01*
X009747Y007081D02*
X012838Y007081D01*
X012740Y007180D02*
X010072Y007180D01*
X010147Y007278D02*
X012641Y007278D01*
X012543Y007377D02*
X010180Y007377D01*
X010180Y007475D02*
X012444Y007475D01*
X012346Y007574D02*
X010145Y007574D01*
X010069Y007672D02*
X012247Y007672D01*
X012149Y007771D02*
X009814Y007771D01*
X009830Y007869D02*
X012050Y007869D01*
X011952Y007968D02*
X009818Y007968D01*
X009775Y008066D02*
X011853Y008066D01*
X012757Y007672D02*
X027460Y007672D01*
X027460Y007574D02*
X012855Y007574D01*
X009505Y005505D02*
X009420Y005505D01*
X008880Y005505D02*
X008795Y005505D01*
X008505Y005505D02*
X007795Y005505D01*
X007944Y005407D02*
X008356Y005407D01*
X008285Y005308D02*
X008015Y005308D01*
X008056Y005210D02*
X008244Y005210D01*
X008243Y005111D02*
X008057Y005111D01*
X008045Y005013D02*
X008255Y005013D01*
X008296Y004914D02*
X008004Y004914D01*
X007918Y004816D02*
X008382Y004816D01*
X007541Y004520D02*
X006759Y004520D01*
X006929Y004422D02*
X007371Y004422D01*
X007291Y004323D02*
X007009Y004323D01*
X007049Y004225D02*
X007251Y004225D01*
X007243Y004126D02*
X007057Y004126D01*
X007051Y004028D02*
X007249Y004028D01*
X007290Y003929D02*
X007010Y003929D01*
X006933Y003831D02*
X007367Y003831D01*
X006541Y004520D02*
X005759Y004520D01*
X005929Y004422D02*
X006371Y004422D01*
X006291Y004323D02*
X006009Y004323D01*
X006049Y004225D02*
X006251Y004225D01*
X006243Y004126D02*
X006057Y004126D01*
X006051Y004028D02*
X006249Y004028D01*
X006290Y003929D02*
X006010Y003929D01*
X005933Y003831D02*
X006367Y003831D01*
X006382Y004816D02*
X005918Y004816D01*
X006004Y004914D02*
X006296Y004914D01*
X006255Y005013D02*
X006045Y005013D01*
X006057Y005111D02*
X006243Y005111D01*
X006244Y005210D02*
X006056Y005210D01*
X006015Y005308D02*
X006285Y005308D01*
X006356Y005407D02*
X005944Y005407D01*
X005795Y005505D02*
X006505Y005505D01*
X006795Y005505D02*
X007505Y005505D01*
X007356Y005407D02*
X006944Y005407D01*
X007015Y005308D02*
X007285Y005308D01*
X007244Y005210D02*
X007056Y005210D01*
X007057Y005111D02*
X007243Y005111D01*
X007255Y005013D02*
X007045Y005013D01*
X007004Y004914D02*
X007296Y004914D01*
X007382Y004816D02*
X006918Y004816D01*
X008768Y003732D02*
X008880Y003732D01*
X008257Y002156D02*
X007543Y002156D01*
X007693Y002058D02*
X008107Y002058D01*
X008036Y001959D02*
X007764Y001959D01*
X007805Y001861D02*
X007995Y001861D01*
X007993Y001762D02*
X007807Y001762D01*
X007795Y001664D02*
X008005Y001664D01*
X008046Y001565D02*
X007754Y001565D01*
X007669Y001467D02*
X008131Y001467D01*
X016523Y009248D02*
X018270Y009248D01*
X018270Y009150D02*
X016621Y009150D01*
X016720Y009051D02*
X018270Y009051D01*
X018270Y008953D02*
X016818Y008953D01*
X016424Y009347D02*
X018270Y009347D01*
X018630Y011120D02*
X027460Y011120D01*
X027460Y011218D02*
X021305Y011218D01*
X021331Y011229D02*
X021445Y011343D01*
X021507Y011493D01*
X021507Y011655D01*
X021445Y011805D01*
X021331Y011920D01*
X021181Y011982D01*
X021019Y011982D01*
X020869Y011920D01*
X020755Y011805D01*
X020693Y011655D01*
X020693Y011493D01*
X020755Y011343D01*
X020869Y011229D01*
X021019Y011167D01*
X021181Y011167D01*
X021331Y011229D01*
X021419Y011317D02*
X027460Y011317D01*
X027460Y011415D02*
X021475Y011415D01*
X021507Y011514D02*
X024837Y011514D01*
X024695Y011612D02*
X021507Y011612D01*
X021485Y011711D02*
X024640Y011711D01*
X024620Y011809D02*
X021441Y011809D01*
X021343Y011908D02*
X024627Y011908D01*
X024668Y012006D02*
X018630Y012006D01*
X018630Y011908D02*
X020857Y011908D01*
X020759Y011809D02*
X018630Y011809D01*
X018630Y011711D02*
X020715Y011711D01*
X020693Y011612D02*
X018630Y011612D01*
X018630Y011514D02*
X020693Y011514D01*
X020725Y011415D02*
X018630Y011415D01*
X018630Y011317D02*
X020781Y011317D01*
X020895Y011218D02*
X018630Y011218D01*
X018630Y012105D02*
X024700Y012105D01*
X024700Y012203D02*
X021269Y012203D01*
X021331Y012229D02*
X021445Y012343D01*
X021507Y012493D01*
X021507Y012655D01*
X021445Y012805D01*
X021331Y012920D01*
X021181Y012982D01*
X021019Y012982D01*
X020869Y012920D01*
X020755Y012805D01*
X020693Y012655D01*
X020693Y012493D01*
X020755Y012343D01*
X020869Y012229D01*
X021019Y012167D01*
X021181Y012167D01*
X021331Y012229D01*
X021404Y012302D02*
X024700Y012302D01*
X024700Y012400D02*
X021469Y012400D01*
X021507Y012499D02*
X024700Y012499D01*
X024700Y012597D02*
X021507Y012597D01*
X021491Y012696D02*
X024700Y012696D01*
X024700Y012794D02*
X021450Y012794D01*
X021358Y012893D02*
X024700Y012893D01*
X024700Y012991D02*
X018630Y012991D01*
X018630Y012893D02*
X020842Y012893D01*
X020750Y012794D02*
X018630Y012794D01*
X018630Y012696D02*
X020709Y012696D01*
X020693Y012597D02*
X018630Y012597D01*
X018630Y012499D02*
X020693Y012499D01*
X020731Y012400D02*
X018630Y012400D01*
X018630Y012302D02*
X020796Y012302D01*
X020931Y012203D02*
X018630Y012203D01*
X018270Y014075D02*
X015316Y014075D01*
X015190Y014173D02*
X018270Y014173D01*
X018270Y016439D02*
X016203Y016439D01*
X016342Y016537D02*
X018158Y016537D01*
X018079Y016636D02*
X016421Y016636D01*
X016462Y016734D02*
X018038Y016734D01*
X018020Y016833D02*
X016480Y016833D01*
X016480Y016931D02*
X018020Y016931D01*
X018045Y017030D02*
X016455Y017030D01*
X016414Y017128D02*
X018086Y017128D01*
X018174Y017227D02*
X016326Y017227D01*
X016165Y017325D02*
X018335Y017325D01*
X018665Y017325D02*
X018696Y017325D01*
X018795Y017424D02*
X005105Y017424D01*
X005007Y017522D02*
X018893Y017522D01*
X018992Y017621D02*
X004908Y017621D01*
X004810Y017719D02*
X019090Y017719D01*
X019170Y017818D02*
X004711Y017818D01*
X004613Y017916D02*
X019170Y017916D01*
X019170Y018015D02*
X004514Y018015D01*
X004416Y018113D02*
X019170Y018113D01*
X019170Y018212D02*
X004317Y018212D01*
X004219Y018310D02*
X019170Y018310D01*
X019170Y018409D02*
X018631Y018409D01*
X018595Y018394D02*
X018772Y018467D01*
X018907Y018602D01*
X018980Y018779D01*
X018980Y018970D01*
X018907Y019146D01*
X018772Y019281D01*
X018595Y019354D01*
X018405Y019354D01*
X018228Y019281D01*
X018093Y019146D01*
X018020Y018970D01*
X018020Y018779D01*
X018093Y018602D01*
X018228Y018467D01*
X018405Y018394D01*
X018595Y018394D01*
X018369Y018409D02*
X016131Y018409D01*
X016312Y018507D02*
X018188Y018507D01*
X018092Y018606D02*
X016408Y018606D01*
X016449Y018704D02*
X018051Y018704D01*
X018020Y018803D02*
X016480Y018803D01*
X016480Y018901D02*
X018020Y018901D01*
X018032Y019000D02*
X016468Y019000D01*
X016427Y019098D02*
X018073Y019098D01*
X018144Y019197D02*
X016356Y019197D01*
X016238Y019295D02*
X018262Y019295D01*
X018738Y019295D02*
X019170Y019295D01*
X019170Y019197D02*
X018856Y019197D01*
X018927Y019098D02*
X019170Y019098D01*
X019170Y019000D02*
X018968Y019000D01*
X018980Y018901D02*
X019170Y018901D01*
X019170Y018803D02*
X018980Y018803D01*
X018949Y018704D02*
X019170Y018704D01*
X019170Y018606D02*
X018908Y018606D01*
X018812Y018507D02*
X019170Y018507D01*
X015869Y018409D02*
X004120Y018409D01*
X004022Y018507D02*
X015688Y018507D01*
X015835Y017325D02*
X005204Y017325D01*
X005302Y017227D02*
X015674Y017227D01*
X015586Y017128D02*
X005401Y017128D01*
X005499Y017030D02*
X015545Y017030D01*
X015520Y016931D02*
X005598Y016931D01*
X005696Y016833D02*
X015520Y016833D01*
X014379Y023925D02*
X020121Y023925D01*
X019906Y024023D02*
X014594Y024023D01*
X014693Y024122D02*
X019807Y024122D01*
X019738Y024220D02*
X014762Y024220D01*
X014803Y024319D02*
X019697Y024319D01*
X019670Y024417D02*
X014830Y024417D01*
X014830Y024516D02*
X019670Y024516D01*
X019670Y024614D02*
X014830Y024614D01*
X014789Y024713D02*
X019711Y024713D01*
X019751Y024811D02*
X014749Y024811D01*
X014660Y024910D02*
X019840Y024910D01*
X019963Y025008D02*
X014537Y025008D01*
X013697Y024319D02*
X000340Y024319D01*
X000340Y024417D02*
X013670Y024417D01*
X013670Y024516D02*
X000340Y024516D01*
X000340Y024614D02*
X013670Y024614D01*
X013738Y024220D02*
X000340Y024220D01*
X000340Y024122D02*
X013807Y024122D01*
X013906Y024023D02*
X000340Y024023D01*
X000340Y023925D02*
X014121Y023925D01*
X002034Y020674D02*
X000340Y020674D01*
X000340Y020576D02*
X001961Y020576D01*
X001920Y020477D02*
X000340Y020477D01*
X000340Y020379D02*
X001910Y020379D01*
X001910Y020280D02*
X000340Y020280D01*
X000340Y020182D02*
X001910Y020182D01*
X001910Y020083D02*
X000340Y020083D01*
X000340Y019985D02*
X001910Y019985D01*
X001910Y019886D02*
X000340Y019886D01*
X000340Y019788D02*
X001910Y019788D01*
X001910Y019689D02*
X000340Y019689D01*
X000340Y019591D02*
X001928Y019591D01*
X001969Y019492D02*
X000340Y019492D01*
X000340Y019394D02*
X002054Y019394D01*
X025200Y013779D02*
X027460Y013779D01*
X027460Y013681D02*
X025200Y013681D01*
X025200Y013582D02*
X027460Y013582D01*
X027460Y013484D02*
X025200Y013484D01*
X025200Y013385D02*
X027460Y013385D01*
X027460Y013287D02*
X025200Y013287D01*
X025200Y013188D02*
X027460Y013188D01*
X027460Y013090D02*
X025200Y013090D01*
X025200Y012991D02*
X025447Y012991D01*
X025458Y013002D02*
X025338Y012882D01*
X025273Y012725D01*
X025273Y012555D01*
X025338Y012398D01*
X025458Y012278D01*
X025615Y012213D01*
X025785Y012213D01*
X025942Y012278D01*
X026062Y012398D01*
X026127Y012555D01*
X026127Y012725D01*
X026062Y012882D01*
X025942Y013002D01*
X025785Y013067D01*
X025615Y013067D01*
X025458Y013002D01*
X025349Y012893D02*
X025200Y012893D01*
X025200Y012794D02*
X025302Y012794D01*
X025273Y012696D02*
X025200Y012696D01*
X025200Y012597D02*
X025273Y012597D01*
X025296Y012499D02*
X025200Y012499D01*
X025200Y012400D02*
X025337Y012400D01*
X025434Y012302D02*
X025200Y012302D01*
X025200Y012203D02*
X027460Y012203D01*
X027460Y012105D02*
X025200Y012105D01*
X025232Y012006D02*
X027460Y012006D01*
X027460Y011908D02*
X025273Y011908D01*
X025280Y011809D02*
X027460Y011809D01*
X027460Y011711D02*
X025260Y011711D01*
X025205Y011612D02*
X027460Y011612D01*
X027460Y011514D02*
X025063Y011514D01*
X025966Y012302D02*
X027460Y012302D01*
X027460Y012400D02*
X026063Y012400D01*
X026104Y012499D02*
X027460Y012499D01*
X027460Y012597D02*
X026127Y012597D01*
X026127Y012696D02*
X027460Y012696D01*
X027460Y012794D02*
X026098Y012794D01*
X026051Y012893D02*
X027460Y012893D01*
X027460Y012991D02*
X025953Y012991D01*
D19*
X024950Y011824D03*
X021300Y008724D03*
X019350Y011424D03*
X019350Y013174D03*
X019350Y014974D03*
X021400Y015924D03*
X016550Y013674D03*
X015050Y013874D03*
X014050Y012174D03*
X012900Y011724D03*
X011250Y011624D03*
X010600Y011624D03*
X010300Y012074D03*
X010800Y012574D03*
X009550Y012124D03*
X008500Y011674D03*
X008200Y010824D03*
X006200Y011324D03*
X006450Y012724D03*
X007500Y013374D03*
X008900Y014674D03*
X009500Y014674D03*
X010100Y014674D03*
X011650Y013924D03*
X008450Y016424D03*
X007850Y015574D03*
X003650Y018574D03*
X002750Y018074D03*
X002650Y012974D03*
X000950Y009474D03*
X009500Y007874D03*
X009850Y007424D03*
X010150Y009474D03*
X011200Y010874D03*
X014500Y009224D03*
X015800Y008674D03*
X017050Y008024D03*
X023250Y003824D03*
X023850Y005724D03*
X020200Y002099D03*
X031650Y008849D03*
X017300Y020124D03*
X017300Y022524D03*
X011475Y021999D03*
D20*
X014500Y009224D02*
X016250Y009224D01*
X016750Y008724D01*
X018450Y008724D01*
X021300Y008724D01*
D21*
X024950Y011824D02*
X024950Y017899D01*
D22*
X009850Y007424D02*
X009250Y006824D01*
X009250Y001924D01*
X009400Y001774D01*
X009050Y002424D02*
X008400Y001774D01*
X009050Y002424D02*
X009050Y007424D01*
X009500Y007874D01*
D23*
X028252Y002374D02*
X028267Y001174D01*
X028289Y001174D01*
X028309Y001194D01*
X028400Y001194D01*
X028991Y001212D01*
X030163Y001354D01*
X031310Y001637D01*
X032414Y002056D01*
X033460Y002605D01*
X034432Y003275D01*
X035316Y004059D01*
X036099Y004943D01*
X036770Y005915D01*
X037318Y006960D01*
X037737Y008065D01*
X038020Y009211D01*
X038162Y010384D01*
X038162Y011565D01*
X038020Y012737D01*
X037737Y013884D01*
X037318Y014988D01*
X036770Y016034D01*
X036099Y017006D01*
X035316Y017890D01*
X034432Y018673D01*
X033460Y019344D01*
X032414Y019893D01*
X031310Y020311D01*
X030163Y020594D01*
X028991Y020736D01*
X028600Y020748D01*
X028600Y002491D01*
X028483Y002374D01*
X028252Y002374D01*
X028254Y002278D02*
X032837Y002278D01*
X033062Y002396D02*
X028505Y002396D01*
X028600Y002515D02*
X033288Y002515D01*
X033501Y002633D02*
X028600Y002633D01*
X028600Y002752D02*
X033673Y002752D01*
X033844Y002870D02*
X028600Y002870D01*
X028600Y002989D02*
X034016Y002989D01*
X034188Y003107D02*
X028600Y003107D01*
X028600Y003226D02*
X034359Y003226D01*
X034509Y003344D02*
X028600Y003344D01*
X028600Y003463D02*
X034643Y003463D01*
X034777Y003581D02*
X030080Y003581D01*
X030104Y003591D02*
X030221Y003708D01*
X030285Y003862D01*
X030285Y004028D01*
X030221Y004181D01*
X030104Y004299D01*
X029950Y004362D01*
X029784Y004362D01*
X029631Y004299D01*
X029513Y004181D01*
X029450Y004028D01*
X029450Y003862D01*
X029513Y003708D01*
X029631Y003591D01*
X029784Y003527D01*
X029950Y003527D01*
X030104Y003591D01*
X030212Y003700D02*
X034910Y003700D01*
X035044Y003818D02*
X031008Y003818D01*
X031265Y003887D02*
X031323Y003988D01*
X031149Y004636D01*
X031049Y004694D01*
X030401Y004520D01*
X030343Y004420D01*
X030517Y003771D01*
X030617Y003713D01*
X031265Y003887D01*
X031294Y003937D02*
X035178Y003937D01*
X035312Y004055D02*
X031305Y004055D01*
X031273Y004174D02*
X035417Y004174D01*
X035522Y004292D02*
X031241Y004292D01*
X031210Y004411D02*
X035627Y004411D01*
X035732Y004529D02*
X031178Y004529D01*
X031129Y004648D02*
X035837Y004648D01*
X035942Y004766D02*
X028600Y004766D01*
X028600Y004648D02*
X030877Y004648D01*
X030435Y004529D02*
X028600Y004529D01*
X028600Y004411D02*
X030345Y004411D01*
X030377Y004292D02*
X030110Y004292D01*
X030224Y004174D02*
X030409Y004174D01*
X030441Y004055D02*
X030273Y004055D01*
X030285Y003937D02*
X030472Y003937D01*
X030504Y003818D02*
X030266Y003818D01*
X029654Y003581D02*
X028600Y003581D01*
X028600Y003700D02*
X029522Y003700D01*
X029468Y003818D02*
X028600Y003818D01*
X028600Y003937D02*
X029450Y003937D01*
X029461Y004055D02*
X028600Y004055D01*
X028600Y004174D02*
X029510Y004174D01*
X029624Y004292D02*
X028600Y004292D01*
X028600Y004885D02*
X036047Y004885D01*
X036140Y005003D02*
X033624Y005003D01*
X033585Y004964D02*
X033703Y005082D01*
X033766Y005235D01*
X033766Y005401D01*
X033703Y005555D01*
X033585Y005672D01*
X033432Y005736D01*
X033266Y005736D01*
X033112Y005672D01*
X032995Y005555D01*
X032931Y005401D01*
X032931Y005235D01*
X032995Y005082D01*
X033112Y004964D01*
X033266Y004901D01*
X033432Y004901D01*
X033585Y004964D01*
X033719Y005122D02*
X036222Y005122D01*
X036304Y005240D02*
X033766Y005240D01*
X033766Y005359D02*
X036386Y005359D01*
X036468Y005477D02*
X033735Y005477D01*
X033662Y005596D02*
X033895Y005596D01*
X033998Y005493D02*
X034114Y005493D01*
X034588Y005967D01*
X034588Y006083D01*
X034114Y006558D01*
X033998Y006558D01*
X033524Y006083D01*
X033524Y005967D01*
X033998Y005493D01*
X034217Y005596D02*
X036549Y005596D01*
X036631Y005714D02*
X034335Y005714D01*
X034454Y005833D02*
X036713Y005833D01*
X036789Y005951D02*
X034572Y005951D01*
X034588Y006070D02*
X036851Y006070D01*
X036913Y006188D02*
X034484Y006188D01*
X034365Y006307D02*
X036975Y006307D01*
X037038Y006425D02*
X034246Y006425D01*
X034128Y006544D02*
X037100Y006544D01*
X037162Y006662D02*
X030572Y006662D01*
X030527Y006555D02*
X030640Y006827D01*
X030640Y007121D01*
X030527Y007393D01*
X030319Y007601D01*
X030047Y007714D01*
X029753Y007714D01*
X029481Y007601D01*
X029273Y007393D01*
X029160Y007121D01*
X029160Y006827D01*
X029273Y006555D01*
X029481Y006347D01*
X029753Y006234D01*
X030047Y006234D01*
X030319Y006347D01*
X030527Y006555D01*
X030516Y006544D02*
X033984Y006544D01*
X033866Y006425D02*
X030398Y006425D01*
X030222Y006307D02*
X033747Y006307D01*
X033629Y006188D02*
X028600Y006188D01*
X028600Y006070D02*
X033524Y006070D01*
X033540Y005951D02*
X028600Y005951D01*
X028600Y005833D02*
X033658Y005833D01*
X033777Y005714D02*
X033484Y005714D01*
X033214Y005714D02*
X028600Y005714D01*
X028600Y005596D02*
X033036Y005596D01*
X032963Y005477D02*
X028600Y005477D01*
X028600Y005359D02*
X032931Y005359D01*
X032931Y005240D02*
X028600Y005240D01*
X028600Y005122D02*
X032978Y005122D01*
X033073Y005003D02*
X028600Y005003D01*
X028600Y006307D02*
X029578Y006307D01*
X029402Y006425D02*
X028600Y006425D01*
X028600Y006544D02*
X029284Y006544D01*
X029228Y006662D02*
X028600Y006662D01*
X028600Y006781D02*
X029179Y006781D01*
X029160Y006899D02*
X028600Y006899D01*
X028600Y007018D02*
X029160Y007018D01*
X029166Y007136D02*
X028600Y007136D01*
X028600Y007255D02*
X029215Y007255D01*
X029264Y007373D02*
X028600Y007373D01*
X028600Y007492D02*
X029371Y007492D01*
X029502Y007610D02*
X028600Y007610D01*
X028600Y007729D02*
X037610Y007729D01*
X037655Y007847D02*
X028600Y007847D01*
X028600Y007966D02*
X037700Y007966D01*
X037742Y008084D02*
X028600Y008084D01*
X028600Y008203D02*
X034919Y008203D01*
X034934Y008187D02*
X035088Y008124D01*
X035254Y008124D01*
X035407Y008187D01*
X035525Y008305D01*
X035588Y008458D01*
X035588Y008624D01*
X035525Y008778D01*
X035407Y008895D01*
X035254Y008959D01*
X035088Y008959D01*
X034934Y008895D01*
X034817Y008778D01*
X034753Y008624D01*
X034753Y008458D01*
X034817Y008305D01*
X034934Y008187D01*
X034810Y008321D02*
X028600Y008321D01*
X028600Y008440D02*
X034761Y008440D01*
X034753Y008558D02*
X028600Y008558D01*
X028600Y008677D02*
X034775Y008677D01*
X034834Y008795D02*
X028600Y008795D01*
X028600Y008914D02*
X034979Y008914D01*
X034997Y009191D02*
X034939Y009291D01*
X035113Y009939D01*
X035213Y009997D01*
X035861Y009824D01*
X035919Y009723D01*
X035746Y009075D01*
X035645Y009017D01*
X034997Y009191D01*
X034952Y009269D02*
X028600Y009269D01*
X028600Y009151D02*
X035147Y009151D01*
X034965Y009388D02*
X028600Y009388D01*
X028600Y009506D02*
X034997Y009506D01*
X035029Y009625D02*
X030266Y009625D01*
X030261Y009620D02*
X030379Y009738D01*
X030442Y009891D01*
X030442Y010057D01*
X030379Y010211D01*
X030261Y010328D01*
X030108Y010392D01*
X029942Y010392D01*
X029789Y010328D01*
X029671Y010211D01*
X029608Y010057D01*
X029608Y009891D01*
X029671Y009738D01*
X029789Y009620D01*
X029942Y009557D01*
X030108Y009557D01*
X030261Y009620D01*
X030381Y009743D02*
X035060Y009743D01*
X035092Y009862D02*
X030430Y009862D01*
X030442Y009980D02*
X035184Y009980D01*
X035277Y009980D02*
X038113Y009980D01*
X038099Y009862D02*
X035719Y009862D01*
X035908Y009743D02*
X038084Y009743D01*
X038070Y009625D02*
X035893Y009625D01*
X035861Y009506D02*
X038056Y009506D01*
X038041Y009388D02*
X035830Y009388D01*
X035798Y009269D02*
X038027Y009269D01*
X038005Y009151D02*
X035766Y009151D01*
X035672Y009032D02*
X037976Y009032D01*
X037946Y008914D02*
X035362Y008914D01*
X035507Y008795D02*
X037917Y008795D01*
X037888Y008677D02*
X035566Y008677D01*
X035588Y008558D02*
X037859Y008558D01*
X037830Y008440D02*
X035580Y008440D01*
X035531Y008321D02*
X037800Y008321D01*
X037771Y008203D02*
X035422Y008203D01*
X035589Y009032D02*
X028600Y009032D01*
X028600Y009625D02*
X029784Y009625D01*
X029669Y009743D02*
X028600Y009743D01*
X028600Y009862D02*
X029620Y009862D01*
X029608Y009980D02*
X028600Y009980D01*
X028600Y010099D02*
X029625Y010099D01*
X029678Y010217D02*
X028600Y010217D01*
X028600Y010336D02*
X029807Y010336D01*
X029903Y010573D02*
X028600Y010573D01*
X028600Y010691D02*
X029718Y010691D01*
X029671Y010738D02*
X029789Y010620D01*
X029942Y010557D01*
X030108Y010557D01*
X030261Y010620D01*
X030379Y010738D01*
X030442Y010891D01*
X030442Y011057D01*
X030379Y011211D01*
X030261Y011328D01*
X030108Y011392D01*
X029942Y011392D01*
X029789Y011328D01*
X029671Y011211D01*
X029608Y011057D01*
X029608Y010891D01*
X029671Y010738D01*
X029641Y010810D02*
X028600Y010810D01*
X028600Y010928D02*
X029608Y010928D01*
X029608Y011047D02*
X028600Y011047D01*
X028600Y011165D02*
X029652Y011165D01*
X029744Y011284D02*
X028600Y011284D01*
X028600Y011402D02*
X034282Y011402D01*
X034273Y011393D02*
X034160Y011121D01*
X034160Y010827D01*
X034273Y010555D01*
X034481Y010347D01*
X034753Y010234D01*
X035047Y010234D01*
X035319Y010347D01*
X035527Y010555D01*
X035640Y010827D01*
X035640Y011121D01*
X035527Y011393D01*
X035319Y011601D01*
X035047Y011714D01*
X034753Y011714D01*
X034481Y011601D01*
X034273Y011393D01*
X034227Y011284D02*
X030306Y011284D01*
X030398Y011165D02*
X034178Y011165D01*
X034160Y011047D02*
X030442Y011047D01*
X030442Y010928D02*
X034160Y010928D01*
X034167Y010810D02*
X030409Y010810D01*
X030332Y010691D02*
X034216Y010691D01*
X034265Y010573D02*
X030147Y010573D01*
X030243Y010336D02*
X034508Y010336D01*
X034373Y010454D02*
X028600Y010454D01*
X028600Y011521D02*
X034400Y011521D01*
X034572Y011639D02*
X028600Y011639D01*
X028600Y011758D02*
X038139Y011758D01*
X038124Y011876D02*
X028600Y011876D01*
X028600Y011995D02*
X038110Y011995D01*
X038096Y012113D02*
X035692Y012113D01*
X035666Y012087D02*
X035783Y012205D01*
X035847Y012358D01*
X035847Y012524D01*
X035783Y012678D01*
X035666Y012795D01*
X035512Y012859D01*
X035346Y012859D01*
X035193Y012795D01*
X035075Y012678D01*
X035012Y012524D01*
X035012Y012358D01*
X035075Y012205D01*
X035193Y012087D01*
X035346Y012024D01*
X035512Y012024D01*
X035666Y012087D01*
X035795Y012232D02*
X038081Y012232D01*
X038067Y012350D02*
X035844Y012350D01*
X035847Y012469D02*
X038052Y012469D01*
X038038Y012587D02*
X035821Y012587D01*
X035755Y012706D02*
X038024Y012706D01*
X037998Y012824D02*
X035596Y012824D01*
X035493Y013061D02*
X037940Y013061D01*
X037969Y012943D02*
X035050Y012943D01*
X034955Y012917D02*
X034854Y012975D01*
X034681Y013623D01*
X034738Y013724D01*
X035387Y013897D01*
X035487Y013839D01*
X035661Y013191D01*
X035603Y013091D01*
X034955Y012917D01*
X034910Y012943D02*
X028600Y012943D01*
X028600Y013061D02*
X034831Y013061D01*
X034799Y013180D02*
X028600Y013180D01*
X028600Y013298D02*
X034768Y013298D01*
X034736Y013417D02*
X028600Y013417D01*
X028600Y013535D02*
X034704Y013535D01*
X034698Y013654D02*
X028600Y013654D01*
X028600Y013772D02*
X034920Y013772D01*
X035362Y013891D02*
X028600Y013891D01*
X028600Y014009D02*
X037690Y014009D01*
X037735Y013891D02*
X035398Y013891D01*
X035505Y013772D02*
X037765Y013772D01*
X037794Y013654D02*
X035537Y013654D01*
X035568Y013535D02*
X037823Y013535D01*
X037852Y013417D02*
X035600Y013417D01*
X035632Y013298D02*
X037881Y013298D01*
X037911Y013180D02*
X035654Y013180D01*
X035263Y012824D02*
X028600Y012824D01*
X028600Y012706D02*
X035103Y012706D01*
X035038Y012587D02*
X028600Y012587D01*
X028600Y012469D02*
X035012Y012469D01*
X035015Y012350D02*
X028600Y012350D01*
X028600Y012232D02*
X035064Y012232D01*
X035167Y012113D02*
X028600Y012113D01*
X028600Y014128D02*
X037645Y014128D01*
X037600Y014246D02*
X030076Y014246D01*
X030047Y014234D02*
X029753Y014234D01*
X029481Y014347D01*
X029273Y014555D01*
X029160Y014827D01*
X029160Y015121D01*
X029273Y015393D01*
X029481Y015601D01*
X029753Y015714D01*
X030047Y015714D01*
X030319Y015601D01*
X030527Y015393D01*
X030640Y015121D01*
X030640Y014827D01*
X030527Y014555D01*
X030319Y014347D01*
X030047Y014234D01*
X030337Y014365D02*
X037555Y014365D01*
X037510Y014483D02*
X030456Y014483D01*
X030547Y014602D02*
X037465Y014602D01*
X037420Y014720D02*
X030596Y014720D01*
X030640Y014839D02*
X037375Y014839D01*
X037330Y014957D02*
X030640Y014957D01*
X030640Y015076D02*
X037272Y015076D01*
X037210Y015194D02*
X030610Y015194D01*
X030561Y015313D02*
X037148Y015313D01*
X037086Y015431D02*
X030489Y015431D01*
X030371Y015550D02*
X033867Y015550D01*
X033820Y015569D02*
X033973Y015506D01*
X034139Y015506D01*
X034293Y015569D01*
X034410Y015687D01*
X034474Y015840D01*
X034474Y016006D01*
X034410Y016160D01*
X034293Y016277D01*
X034139Y016341D01*
X033973Y016341D01*
X033820Y016277D01*
X033702Y016160D01*
X033639Y016006D01*
X033639Y015840D01*
X033702Y015687D01*
X033820Y015569D01*
X033721Y015668D02*
X030158Y015668D01*
X029642Y015668D02*
X028600Y015668D01*
X028600Y015550D02*
X029429Y015550D01*
X029311Y015431D02*
X028600Y015431D01*
X028600Y015313D02*
X029239Y015313D01*
X029190Y015194D02*
X028600Y015194D01*
X028600Y015076D02*
X029160Y015076D01*
X029160Y014957D02*
X028600Y014957D01*
X028600Y014839D02*
X029160Y014839D01*
X029204Y014720D02*
X028600Y014720D01*
X028600Y014602D02*
X029253Y014602D01*
X029344Y014483D02*
X028600Y014483D01*
X028600Y014365D02*
X029463Y014365D01*
X029724Y014246D02*
X028600Y014246D01*
X028600Y015787D02*
X033661Y015787D01*
X033639Y015905D02*
X028600Y015905D01*
X028600Y016024D02*
X033646Y016024D01*
X033695Y016142D02*
X033451Y016142D01*
X033407Y016098D02*
X033291Y016098D01*
X032817Y016572D01*
X032817Y016688D01*
X033291Y017163D01*
X033407Y017163D01*
X033881Y016688D01*
X033881Y016572D01*
X033407Y016098D01*
X033247Y016142D02*
X028600Y016142D01*
X028600Y016261D02*
X033128Y016261D01*
X033010Y016379D02*
X028600Y016379D01*
X028600Y016498D02*
X032891Y016498D01*
X032817Y016616D02*
X028600Y016616D01*
X028600Y016735D02*
X032863Y016735D01*
X032982Y016853D02*
X028600Y016853D01*
X028600Y016972D02*
X033100Y016972D01*
X033219Y017090D02*
X028600Y017090D01*
X028600Y017209D02*
X035919Y017209D01*
X035814Y017327D02*
X028600Y017327D01*
X028600Y017446D02*
X030492Y017446D01*
X030546Y017391D02*
X030700Y017327D01*
X030866Y017327D01*
X031019Y017391D01*
X031137Y017508D01*
X031200Y017662D01*
X031200Y017828D01*
X031137Y017981D01*
X031019Y018099D01*
X030866Y018162D01*
X030700Y018162D01*
X030546Y018099D01*
X030429Y017981D01*
X030365Y017828D01*
X030365Y017662D01*
X030429Y017508D01*
X030546Y017391D01*
X030406Y017564D02*
X030121Y017564D01*
X030133Y017571D02*
X030033Y017513D01*
X029385Y017687D01*
X029327Y017788D01*
X029501Y018436D01*
X029601Y018494D01*
X030249Y018320D01*
X030307Y018220D01*
X030133Y017571D01*
X030163Y017683D02*
X030365Y017683D01*
X030365Y017801D02*
X030195Y017801D01*
X030227Y017920D02*
X030404Y017920D01*
X030486Y018038D02*
X030259Y018038D01*
X030290Y018157D02*
X030687Y018157D01*
X030879Y018157D02*
X035014Y018157D01*
X034880Y018275D02*
X030275Y018275D01*
X029974Y018394D02*
X034747Y018394D01*
X034613Y018512D02*
X028600Y018512D01*
X028600Y018394D02*
X029489Y018394D01*
X029458Y018275D02*
X028600Y018275D01*
X028600Y018157D02*
X029426Y018157D01*
X029394Y018038D02*
X028600Y018038D01*
X028600Y017920D02*
X029362Y017920D01*
X029331Y017801D02*
X028600Y017801D01*
X028600Y017683D02*
X029402Y017683D01*
X029844Y017564D02*
X028600Y017564D01*
X028600Y018631D02*
X034479Y018631D01*
X034321Y018749D02*
X028600Y018749D01*
X028600Y018868D02*
X034149Y018868D01*
X033977Y018986D02*
X028600Y018986D01*
X028600Y019105D02*
X033806Y019105D01*
X033634Y019223D02*
X028600Y019223D01*
X028600Y019342D02*
X033462Y019342D01*
X033238Y019460D02*
X028600Y019460D01*
X028600Y019579D02*
X033012Y019579D01*
X032786Y019697D02*
X028600Y019697D01*
X028600Y019816D02*
X032560Y019816D01*
X032304Y019934D02*
X028600Y019934D01*
X028600Y020053D02*
X031992Y020053D01*
X031679Y020171D02*
X028600Y020171D01*
X028600Y020290D02*
X031367Y020290D01*
X030917Y020408D02*
X028600Y020408D01*
X028600Y020527D02*
X030436Y020527D01*
X029741Y020645D02*
X028600Y020645D01*
X031080Y018038D02*
X035148Y018038D01*
X035282Y017920D02*
X031162Y017920D01*
X031200Y017801D02*
X035394Y017801D01*
X035499Y017683D02*
X031200Y017683D01*
X031160Y017564D02*
X035604Y017564D01*
X035709Y017446D02*
X031074Y017446D01*
X033479Y017090D02*
X036024Y017090D01*
X036122Y016972D02*
X033598Y016972D01*
X033716Y016853D02*
X036204Y016853D01*
X036286Y016735D02*
X033835Y016735D01*
X033881Y016616D02*
X036367Y016616D01*
X036449Y016498D02*
X033807Y016498D01*
X033688Y016379D02*
X036531Y016379D01*
X036613Y016261D02*
X034309Y016261D01*
X034417Y016142D02*
X036695Y016142D01*
X036775Y016024D02*
X034466Y016024D01*
X034474Y015905D02*
X036837Y015905D01*
X036899Y015787D02*
X034451Y015787D01*
X034392Y015668D02*
X036961Y015668D01*
X037024Y015550D02*
X034245Y015550D01*
X033803Y016261D02*
X033570Y016261D01*
X035228Y011639D02*
X038153Y011639D01*
X038162Y011521D02*
X035400Y011521D01*
X035518Y011402D02*
X038162Y011402D01*
X038162Y011284D02*
X035573Y011284D01*
X035622Y011165D02*
X038162Y011165D01*
X038162Y011047D02*
X035640Y011047D01*
X035640Y010928D02*
X038162Y010928D01*
X038162Y010810D02*
X035633Y010810D01*
X035584Y010691D02*
X038162Y010691D01*
X038162Y010573D02*
X035535Y010573D01*
X035427Y010454D02*
X038162Y010454D01*
X038156Y010336D02*
X035292Y010336D01*
X038128Y010099D02*
X030425Y010099D01*
X030372Y010217D02*
X038142Y010217D01*
X037565Y007610D02*
X030298Y007610D01*
X030429Y007492D02*
X037520Y007492D01*
X037475Y007373D02*
X030536Y007373D01*
X030585Y007255D02*
X037430Y007255D01*
X037385Y007136D02*
X030634Y007136D01*
X030640Y007018D02*
X037340Y007018D01*
X037286Y006899D02*
X030640Y006899D01*
X030621Y006781D02*
X037224Y006781D01*
X032611Y002159D02*
X028255Y002159D01*
X028256Y002041D02*
X032374Y002041D01*
X032062Y001922D02*
X028258Y001922D01*
X028259Y001804D02*
X031749Y001804D01*
X031437Y001685D02*
X028261Y001685D01*
X028262Y001567D02*
X031024Y001567D01*
X030543Y001448D02*
X028263Y001448D01*
X028265Y001330D02*
X029960Y001330D01*
X028963Y001211D02*
X028266Y001211D01*
M02*
