G75*
G70*
%OFA0B0*%
%FSLAX24Y24*%
%IPPOS*%
%LPD*%
%AMOC8*
5,1,8,0,0,1.08239X$1,22.5*
%
%ADD10C,0.0120*%
%ADD11C,0.0080*%
%ADD12R,0.0591X0.0160*%
%ADD13R,0.0160X0.0591*%
%ADD14R,0.0394X0.0315*%
%ADD15R,0.0555X0.0555*%
%ADD16C,0.0555*%
%ADD17R,0.0236X0.0276*%
%ADD18R,0.0276X0.0236*%
%ADD19R,0.0315X0.0394*%
%ADD20R,0.0555X0.0555*%
%ADD21R,0.0453X0.0591*%
%ADD22R,0.0689X0.0256*%
%ADD23R,0.2283X0.2441*%
%ADD24R,0.0630X0.1181*%
%ADD25R,0.0591X0.0453*%
%ADD26R,0.0283X0.0701*%
%ADD27R,0.1100X0.1500*%
%ADD28R,0.0945X0.0787*%
%ADD29C,0.1200*%
%ADD30C,0.0594*%
%ADD31R,0.0433X0.0551*%
%ADD32C,0.0900*%
%ADD33C,0.0700*%
%ADD34C,0.0640*%
%ADD35R,0.0866X0.0236*%
%ADD36C,0.0240*%
%ADD37C,0.0100*%
%ADD38C,0.0400*%
%ADD39C,0.0160*%
%ADD40C,0.0860*%
%ADD41C,0.1000*%
D10*
X005580Y015574D02*
X006655Y015574D01*
X006700Y015619D01*
X006700Y016529D01*
X006700Y017119D02*
X006700Y017699D01*
X006325Y018074D01*
X005580Y018074D01*
X024056Y020149D02*
X024155Y020248D01*
X024745Y020248D02*
X024844Y020149D01*
X028600Y020171D02*
X031679Y020171D01*
X031367Y020290D02*
X028600Y020290D01*
X028600Y020408D02*
X030917Y020408D01*
X031310Y020311D02*
X032414Y019893D01*
X033460Y019344D01*
X034432Y018673D01*
X035316Y017890D01*
X036099Y017006D01*
X036770Y016034D01*
X037318Y014988D01*
X037737Y013884D01*
X038020Y012737D01*
X038162Y011565D01*
X038162Y010384D01*
X038020Y009211D01*
X037737Y008065D01*
X037318Y006960D01*
X036770Y005915D01*
X036099Y004943D01*
X035316Y004059D01*
X034432Y003275D01*
X033460Y002605D01*
X032414Y002056D01*
X031310Y001637D01*
X030163Y001354D01*
X028991Y001212D01*
X028400Y001194D01*
X028363Y001194D01*
X028343Y002374D01*
X028483Y002374D01*
X028600Y002491D01*
X028600Y020748D01*
X028991Y020736D01*
X030163Y020594D01*
X031310Y020311D01*
X031992Y020053D02*
X028600Y020053D01*
X028600Y019934D02*
X032304Y019934D01*
X032560Y019816D02*
X028600Y019816D01*
X028600Y019697D02*
X032786Y019697D01*
X033012Y019579D02*
X028600Y019579D01*
X028600Y019460D02*
X033238Y019460D01*
X033462Y019342D02*
X028600Y019342D01*
X028600Y019223D02*
X033634Y019223D01*
X033806Y019105D02*
X028600Y019105D01*
X028600Y018986D02*
X033977Y018986D01*
X034149Y018868D02*
X028600Y018868D01*
X028600Y018749D02*
X034321Y018749D01*
X034479Y018631D02*
X033339Y018631D01*
X033377Y018615D02*
X033281Y018654D01*
X032567Y018654D01*
X032530Y018692D01*
X032020Y018692D01*
X031938Y018610D01*
X031938Y018179D01*
X032018Y018099D01*
X031938Y018019D01*
X031938Y018005D01*
X031113Y018005D01*
X031019Y018099D01*
X030866Y018162D01*
X030700Y018162D01*
X030546Y018099D01*
X030429Y017981D01*
X030365Y017828D01*
X030365Y017662D01*
X030429Y017508D01*
X030546Y017391D01*
X030700Y017327D01*
X030866Y017327D01*
X031019Y017391D01*
X031113Y017485D01*
X032268Y017485D01*
X032320Y017506D01*
X032530Y017506D01*
X032612Y017588D01*
X032612Y018019D01*
X032532Y018099D01*
X032567Y018134D01*
X033122Y018134D01*
X035185Y016071D01*
X035185Y015391D01*
X035150Y015356D01*
X035070Y015436D01*
X034886Y015436D01*
X034474Y015848D01*
X034474Y016006D01*
X034410Y016160D01*
X034293Y016277D01*
X034139Y016341D01*
X033973Y016341D01*
X033820Y016277D01*
X033702Y016160D01*
X033639Y016006D01*
X033639Y015840D01*
X033702Y015687D01*
X033820Y015569D01*
X033973Y015506D01*
X034081Y015506D01*
X034557Y015029D01*
X034557Y014844D01*
X034639Y014762D01*
X035070Y014762D01*
X035150Y014842D01*
X035230Y014762D01*
X035414Y014762D01*
X036310Y013866D01*
X036310Y011766D01*
X036275Y011731D01*
X036240Y011766D01*
X036240Y011943D01*
X036200Y012038D01*
X036127Y012111D01*
X035847Y012391D01*
X035847Y012524D01*
X035783Y012678D01*
X035666Y012795D01*
X035512Y012859D01*
X035346Y012859D01*
X035193Y012795D01*
X035075Y012678D01*
X035012Y012524D01*
X035012Y012358D01*
X035075Y012205D01*
X035193Y012087D01*
X035346Y012024D01*
X035479Y012024D01*
X035720Y011783D01*
X035720Y011766D01*
X035682Y011729D01*
X035682Y011219D01*
X035764Y011137D01*
X036195Y011137D01*
X036275Y011217D01*
X036310Y011182D01*
X036310Y007957D01*
X035789Y007436D01*
X035605Y007436D01*
X035525Y007356D01*
X035490Y007391D01*
X035490Y008270D01*
X035525Y008305D01*
X035588Y008458D01*
X035588Y008624D01*
X035525Y008778D01*
X035407Y008895D01*
X035254Y008959D01*
X035088Y008959D01*
X034934Y008895D01*
X034817Y008778D01*
X034753Y008624D01*
X034753Y008458D01*
X034817Y008305D01*
X034934Y008187D01*
X034970Y008172D01*
X034970Y007391D01*
X034932Y007354D01*
X034932Y006844D01*
X035014Y006762D01*
X035445Y006762D01*
X035525Y006842D01*
X035560Y006807D01*
X035560Y006377D01*
X035400Y006217D01*
X033679Y007938D01*
X033679Y009405D01*
X033696Y009423D01*
X033696Y009775D01*
X033614Y009857D01*
X033475Y009857D01*
X033470Y009859D01*
X033367Y009859D01*
X033362Y009857D01*
X033223Y009857D01*
X033141Y009775D01*
X033141Y009423D01*
X033159Y009405D01*
X033159Y007779D01*
X033198Y007683D01*
X033271Y007610D01*
X030298Y007610D01*
X030319Y007601D02*
X030047Y007714D01*
X029753Y007714D01*
X029481Y007601D01*
X029273Y007393D01*
X029160Y007121D01*
X029160Y006827D01*
X029273Y006555D01*
X029481Y006347D01*
X029753Y006234D01*
X030047Y006234D01*
X030319Y006347D01*
X030527Y006555D01*
X030640Y006827D01*
X030640Y007121D01*
X030527Y007393D01*
X030319Y007601D01*
X030429Y007492D02*
X033390Y007492D01*
X033271Y007610D02*
X035032Y005849D01*
X033497Y004314D01*
X032692Y004314D01*
X032657Y004349D01*
X032737Y004429D01*
X032737Y004614D01*
X033100Y004977D01*
X033112Y004964D01*
X033266Y004901D01*
X033432Y004901D01*
X033585Y004964D01*
X033703Y005082D01*
X033766Y005235D01*
X033766Y005401D01*
X033703Y005555D01*
X033585Y005672D01*
X033432Y005736D01*
X033266Y005736D01*
X033112Y005672D01*
X033016Y005576D01*
X032926Y005538D01*
X032330Y004942D01*
X032145Y004942D01*
X032063Y004860D01*
X032063Y004554D01*
X030950Y005667D01*
X030877Y005740D01*
X030781Y005779D01*
X030067Y005779D01*
X030030Y005817D01*
X029520Y005817D01*
X029438Y005735D01*
X029438Y005304D01*
X029518Y005224D01*
X029438Y005144D01*
X029438Y004713D01*
X029515Y004637D01*
X029515Y004183D01*
X029513Y004181D01*
X029450Y004028D01*
X029450Y003862D01*
X029513Y003708D01*
X029631Y003591D01*
X029784Y003527D01*
X029950Y003527D01*
X030104Y003591D01*
X030221Y003708D01*
X030285Y003862D01*
X030285Y004028D01*
X030221Y004181D01*
X030104Y004299D01*
X030035Y004327D01*
X030035Y004637D01*
X030112Y004713D01*
X030112Y005144D01*
X030032Y005224D01*
X030067Y005259D01*
X030622Y005259D01*
X032048Y003833D01*
X032082Y003819D01*
X032145Y003756D01*
X032655Y003756D01*
X032692Y003794D01*
X033656Y003794D01*
X033752Y003833D01*
X033825Y003907D01*
X035620Y005702D01*
X036041Y006122D01*
X036080Y006218D01*
X036080Y006807D01*
X036118Y006844D01*
X036118Y007029D01*
X036791Y007702D01*
X036830Y007797D01*
X036830Y011182D01*
X036868Y011219D01*
X036868Y011729D01*
X036830Y011766D01*
X036830Y014026D01*
X036791Y014121D01*
X036718Y014195D01*
X035743Y015169D01*
X035743Y015354D01*
X035705Y015391D01*
X035705Y016231D01*
X035666Y016326D01*
X035593Y016399D01*
X033377Y018615D01*
X033480Y018512D02*
X034613Y018512D01*
X034747Y018394D02*
X033598Y018394D01*
X033717Y018275D02*
X034880Y018275D01*
X035014Y018157D02*
X033835Y018157D01*
X033954Y018038D02*
X035148Y018038D01*
X035282Y017920D02*
X034072Y017920D01*
X034191Y017801D02*
X035394Y017801D01*
X035499Y017683D02*
X034309Y017683D01*
X034428Y017564D02*
X035604Y017564D01*
X035709Y017446D02*
X034546Y017446D01*
X034665Y017327D02*
X035814Y017327D01*
X035919Y017209D02*
X034783Y017209D01*
X034902Y017090D02*
X036024Y017090D01*
X036122Y016972D02*
X035020Y016972D01*
X035139Y016853D02*
X036204Y016853D01*
X036286Y016735D02*
X035257Y016735D01*
X035376Y016616D02*
X036367Y016616D01*
X036449Y016498D02*
X035494Y016498D01*
X035613Y016379D02*
X036531Y016379D01*
X036613Y016261D02*
X035693Y016261D01*
X035705Y016142D02*
X036695Y016142D01*
X036775Y016024D02*
X035705Y016024D01*
X035705Y015905D02*
X036837Y015905D01*
X036899Y015787D02*
X035705Y015787D01*
X035705Y015668D02*
X036961Y015668D01*
X037024Y015550D02*
X035705Y015550D01*
X035705Y015431D02*
X037086Y015431D01*
X037148Y015313D02*
X035743Y015313D01*
X035743Y015194D02*
X037210Y015194D01*
X037272Y015076D02*
X035836Y015076D01*
X035955Y014957D02*
X037330Y014957D01*
X037375Y014839D02*
X036073Y014839D01*
X036192Y014720D02*
X037420Y014720D01*
X037465Y014602D02*
X036310Y014602D01*
X036429Y014483D02*
X037510Y014483D01*
X037555Y014365D02*
X036547Y014365D01*
X036666Y014246D02*
X037600Y014246D01*
X037645Y014128D02*
X036784Y014128D01*
X036830Y014009D02*
X037690Y014009D01*
X037735Y013891D02*
X036830Y013891D01*
X036830Y013772D02*
X037765Y013772D01*
X037794Y013654D02*
X036830Y013654D01*
X036830Y013535D02*
X037823Y013535D01*
X037852Y013417D02*
X036830Y013417D01*
X036830Y013298D02*
X037881Y013298D01*
X037911Y013180D02*
X036830Y013180D01*
X036830Y013061D02*
X037940Y013061D01*
X037969Y012943D02*
X036830Y012943D01*
X036830Y012824D02*
X037998Y012824D01*
X038024Y012706D02*
X036830Y012706D01*
X036830Y012587D02*
X038038Y012587D01*
X038052Y012469D02*
X036830Y012469D01*
X036830Y012350D02*
X038067Y012350D01*
X038081Y012232D02*
X036830Y012232D01*
X036830Y012113D02*
X038096Y012113D01*
X038110Y011995D02*
X036830Y011995D01*
X036830Y011876D02*
X038124Y011876D01*
X038139Y011758D02*
X036839Y011758D01*
X036868Y011639D02*
X038153Y011639D01*
X038162Y011521D02*
X036868Y011521D01*
X036868Y011402D02*
X038162Y011402D01*
X038162Y011284D02*
X036868Y011284D01*
X036830Y011165D02*
X038162Y011165D01*
X038162Y011047D02*
X036830Y011047D01*
X036830Y010928D02*
X038162Y010928D01*
X038162Y010810D02*
X036830Y010810D01*
X036830Y010691D02*
X038162Y010691D01*
X038162Y010573D02*
X036830Y010573D01*
X036830Y010454D02*
X038162Y010454D01*
X038156Y010336D02*
X036830Y010336D01*
X036830Y010217D02*
X038142Y010217D01*
X038128Y010099D02*
X036830Y010099D01*
X036830Y009980D02*
X038113Y009980D01*
X038099Y009862D02*
X036830Y009862D01*
X036830Y009743D02*
X038084Y009743D01*
X038070Y009625D02*
X036830Y009625D01*
X036830Y009506D02*
X038056Y009506D01*
X038041Y009388D02*
X036830Y009388D01*
X036830Y009269D02*
X038027Y009269D01*
X038005Y009151D02*
X036830Y009151D01*
X036830Y009032D02*
X037976Y009032D01*
X037946Y008914D02*
X036830Y008914D01*
X036830Y008795D02*
X037917Y008795D01*
X037888Y008677D02*
X036830Y008677D01*
X036830Y008558D02*
X037859Y008558D01*
X037830Y008440D02*
X036830Y008440D01*
X036830Y008321D02*
X037800Y008321D01*
X037771Y008203D02*
X036830Y008203D01*
X036830Y008084D02*
X037742Y008084D01*
X037700Y007966D02*
X036830Y007966D01*
X036830Y007847D02*
X037655Y007847D01*
X037610Y007729D02*
X036802Y007729D01*
X036699Y007610D02*
X037565Y007610D01*
X037520Y007492D02*
X036580Y007492D01*
X036462Y007373D02*
X037475Y007373D01*
X037430Y007255D02*
X036343Y007255D01*
X036225Y007136D02*
X037385Y007136D01*
X037340Y007018D02*
X036118Y007018D01*
X036118Y006899D02*
X037286Y006899D01*
X037224Y006781D02*
X036080Y006781D01*
X036080Y006662D02*
X037162Y006662D01*
X037100Y006544D02*
X036080Y006544D01*
X036080Y006425D02*
X037038Y006425D01*
X036975Y006307D02*
X036080Y006307D01*
X036068Y006188D02*
X036913Y006188D01*
X036851Y006070D02*
X035988Y006070D01*
X035870Y005951D02*
X036789Y005951D01*
X036713Y005833D02*
X035751Y005833D01*
X035633Y005714D02*
X036631Y005714D01*
X036549Y005596D02*
X035514Y005596D01*
X035396Y005477D02*
X036468Y005477D01*
X036386Y005359D02*
X035277Y005359D01*
X035159Y005240D02*
X036304Y005240D01*
X036222Y005122D02*
X035040Y005122D01*
X034922Y005003D02*
X036140Y005003D01*
X036047Y004885D02*
X034803Y004885D01*
X034685Y004766D02*
X035942Y004766D01*
X035837Y004648D02*
X034566Y004648D01*
X034448Y004529D02*
X035732Y004529D01*
X035627Y004411D02*
X034329Y004411D01*
X034211Y004292D02*
X035522Y004292D01*
X035417Y004174D02*
X034092Y004174D01*
X033974Y004055D02*
X035312Y004055D01*
X035178Y003937D02*
X033855Y003937D01*
X033715Y003818D02*
X035044Y003818D01*
X034910Y003700D02*
X030212Y003700D01*
X030266Y003818D02*
X032083Y003818D01*
X031945Y003937D02*
X030285Y003937D01*
X030273Y004055D02*
X031826Y004055D01*
X031708Y004174D02*
X030224Y004174D01*
X030110Y004292D02*
X031589Y004292D01*
X031471Y004411D02*
X030035Y004411D01*
X030035Y004529D02*
X031352Y004529D01*
X031234Y004648D02*
X030046Y004648D01*
X030112Y004766D02*
X031115Y004766D01*
X030997Y004885D02*
X030112Y004885D01*
X030112Y005003D02*
X030878Y005003D01*
X030760Y005122D02*
X030112Y005122D01*
X030048Y005240D02*
X030641Y005240D01*
X031021Y005596D02*
X033036Y005596D01*
X032865Y005477D02*
X031140Y005477D01*
X031258Y005359D02*
X032747Y005359D01*
X032628Y005240D02*
X031377Y005240D01*
X031495Y005122D02*
X032510Y005122D01*
X032391Y005003D02*
X031614Y005003D01*
X031732Y004885D02*
X032088Y004885D01*
X032063Y004766D02*
X031851Y004766D01*
X031969Y004648D02*
X032063Y004648D01*
X032737Y004529D02*
X033712Y004529D01*
X033594Y004411D02*
X032719Y004411D01*
X032771Y004648D02*
X033831Y004648D01*
X033949Y004766D02*
X032889Y004766D01*
X033008Y004885D02*
X034068Y004885D01*
X034186Y005003D02*
X033624Y005003D01*
X033719Y005122D02*
X034305Y005122D01*
X034423Y005240D02*
X033766Y005240D01*
X033766Y005359D02*
X034542Y005359D01*
X034660Y005477D02*
X033735Y005477D01*
X033662Y005596D02*
X034779Y005596D01*
X034897Y005714D02*
X033484Y005714D01*
X033214Y005714D02*
X030903Y005714D01*
X030398Y006425D02*
X034456Y006425D01*
X034338Y006544D02*
X030516Y006544D01*
X030572Y006662D02*
X034219Y006662D01*
X034101Y006781D02*
X030621Y006781D01*
X030640Y006899D02*
X033982Y006899D01*
X033864Y007018D02*
X030640Y007018D01*
X030634Y007136D02*
X033745Y007136D01*
X033627Y007255D02*
X030585Y007255D01*
X030536Y007373D02*
X033508Y007373D01*
X033271Y007610D02*
X033271Y007610D01*
X033179Y007729D02*
X028600Y007729D01*
X028600Y007847D02*
X033159Y007847D01*
X033159Y007966D02*
X028600Y007966D01*
X028600Y008084D02*
X033159Y008084D01*
X033159Y008203D02*
X028600Y008203D01*
X028600Y008321D02*
X033159Y008321D01*
X033159Y008440D02*
X028600Y008440D01*
X028600Y008558D02*
X031464Y008558D01*
X031457Y008561D02*
X031582Y008509D01*
X031718Y008509D01*
X031843Y008561D01*
X031938Y008657D01*
X031990Y008782D01*
X031990Y008821D01*
X032134Y008965D01*
X032683Y008965D01*
X032688Y008967D01*
X032827Y008967D01*
X032909Y009049D01*
X032909Y009401D01*
X032827Y009483D01*
X032688Y009483D01*
X032683Y009485D01*
X031974Y009485D01*
X031879Y009446D01*
X031622Y009189D01*
X031582Y009189D01*
X031457Y009137D01*
X031362Y009042D01*
X031310Y008917D01*
X031310Y008782D01*
X031362Y008657D01*
X031457Y008561D01*
X031353Y008677D02*
X028600Y008677D01*
X028600Y008795D02*
X031310Y008795D01*
X031310Y008914D02*
X028600Y008914D01*
X028600Y009032D02*
X031358Y009032D01*
X031489Y009151D02*
X028600Y009151D01*
X028600Y009269D02*
X031702Y009269D01*
X031821Y009388D02*
X028600Y009388D01*
X028600Y009506D02*
X033141Y009506D01*
X033141Y009625D02*
X030266Y009625D01*
X030261Y009620D02*
X030355Y009714D01*
X030812Y009714D01*
X030889Y009637D01*
X031320Y009637D01*
X031400Y009717D01*
X031480Y009637D01*
X031911Y009637D01*
X031988Y009714D01*
X032682Y009714D01*
X032684Y009715D01*
X032827Y009715D01*
X032909Y009797D01*
X032909Y010149D01*
X032827Y010231D01*
X032689Y010231D01*
X032682Y010234D01*
X031988Y010234D01*
X031911Y010311D01*
X031480Y010311D01*
X031400Y010231D01*
X031320Y010311D01*
X030889Y010311D01*
X030812Y010234D01*
X030355Y010234D01*
X030261Y010328D01*
X030108Y010392D01*
X029942Y010392D01*
X029789Y010328D01*
X029671Y010211D01*
X029608Y010057D01*
X029608Y009891D01*
X029671Y009738D01*
X029789Y009620D01*
X029942Y009557D01*
X030108Y009557D01*
X030261Y009620D01*
X029784Y009625D02*
X028600Y009625D01*
X028600Y009743D02*
X029669Y009743D01*
X029620Y009862D02*
X028600Y009862D01*
X028600Y009980D02*
X029608Y009980D01*
X029625Y010099D02*
X028600Y010099D01*
X028600Y010217D02*
X029678Y010217D01*
X029807Y010336D02*
X028600Y010336D01*
X028600Y010454D02*
X034373Y010454D01*
X034273Y010555D02*
X034481Y010347D01*
X034753Y010234D01*
X035047Y010234D01*
X035319Y010347D01*
X035527Y010555D01*
X035640Y010827D01*
X035640Y011121D01*
X035527Y011393D01*
X035319Y011601D01*
X035047Y011714D01*
X034753Y011714D01*
X034481Y011601D01*
X034273Y011393D01*
X034160Y011121D01*
X034160Y010827D01*
X034273Y010555D01*
X034265Y010573D02*
X028600Y010573D01*
X028600Y010691D02*
X034216Y010691D01*
X034167Y010810D02*
X028600Y010810D01*
X028600Y010928D02*
X034160Y010928D01*
X034160Y011047D02*
X028600Y011047D01*
X028600Y011165D02*
X034178Y011165D01*
X034227Y011284D02*
X028600Y011284D01*
X028600Y011402D02*
X034282Y011402D01*
X034400Y011521D02*
X028600Y011521D01*
X028600Y011639D02*
X029770Y011639D01*
X029789Y011620D02*
X029671Y011738D01*
X029608Y011891D01*
X029608Y012057D01*
X029671Y012211D01*
X029789Y012328D01*
X029942Y012392D01*
X030108Y012392D01*
X030261Y012328D01*
X030379Y012211D01*
X030402Y012154D01*
X031108Y012154D01*
X031121Y012168D01*
X031121Y012789D01*
X031097Y012789D01*
X031015Y012871D01*
X031015Y013577D01*
X031097Y013659D01*
X031121Y013659D01*
X031121Y013789D01*
X031097Y013789D01*
X031015Y013871D01*
X031015Y014577D01*
X031097Y014659D01*
X031666Y014659D01*
X031748Y014577D01*
X031748Y013871D01*
X031666Y013789D01*
X031641Y013789D01*
X031641Y013659D01*
X031666Y013659D01*
X031748Y013577D01*
X031748Y012871D01*
X031666Y012789D01*
X031641Y012789D01*
X031641Y012192D01*
X031655Y012192D01*
X031692Y012154D01*
X031858Y012154D01*
X031895Y012192D01*
X032405Y012192D01*
X032442Y012154D01*
X032608Y012154D01*
X032645Y012192D01*
X033155Y012192D01*
X033192Y012154D01*
X033358Y012154D01*
X033395Y012192D01*
X033905Y012192D01*
X033987Y012110D01*
X033987Y011679D01*
X033905Y011597D01*
X033395Y011597D01*
X033358Y011634D01*
X033192Y011634D01*
X033155Y011597D01*
X032645Y011597D01*
X032608Y011634D01*
X032442Y011634D01*
X032405Y011597D01*
X031895Y011597D01*
X031858Y011634D01*
X031692Y011634D01*
X031655Y011597D01*
X031145Y011597D01*
X031108Y011634D01*
X030276Y011634D01*
X030261Y011620D01*
X030108Y011557D01*
X029942Y011557D01*
X029789Y011620D01*
X029663Y011758D02*
X028600Y011758D01*
X028600Y011876D02*
X029614Y011876D01*
X029608Y011995D02*
X028600Y011995D01*
X028600Y012113D02*
X029631Y012113D01*
X029692Y012232D02*
X028600Y012232D01*
X028600Y012350D02*
X029842Y012350D01*
X030208Y012350D02*
X031121Y012350D01*
X031121Y012232D02*
X030358Y012232D01*
X031121Y012469D02*
X028600Y012469D01*
X028600Y012587D02*
X031121Y012587D01*
X031121Y012706D02*
X028600Y012706D01*
X028600Y012824D02*
X031062Y012824D01*
X031015Y012943D02*
X028600Y012943D01*
X028600Y013061D02*
X031015Y013061D01*
X031015Y013180D02*
X028600Y013180D01*
X028600Y013298D02*
X031015Y013298D01*
X031015Y013417D02*
X028600Y013417D01*
X028600Y013535D02*
X031015Y013535D01*
X031091Y013654D02*
X028600Y013654D01*
X028600Y013772D02*
X031121Y013772D01*
X031015Y013891D02*
X028600Y013891D01*
X028600Y014009D02*
X031015Y014009D01*
X031015Y014128D02*
X028600Y014128D01*
X028600Y014246D02*
X029724Y014246D01*
X029753Y014234D02*
X029481Y014347D01*
X029273Y014555D01*
X029160Y014827D01*
X029160Y015121D01*
X029273Y015393D01*
X029481Y015601D01*
X029753Y015714D01*
X030047Y015714D01*
X030319Y015601D01*
X030527Y015393D01*
X030640Y015121D01*
X030640Y014827D01*
X030527Y014555D01*
X030319Y014347D01*
X030047Y014234D01*
X029753Y014234D01*
X029463Y014365D02*
X028600Y014365D01*
X028600Y014483D02*
X029344Y014483D01*
X029253Y014602D02*
X028600Y014602D01*
X028600Y014720D02*
X029204Y014720D01*
X029160Y014839D02*
X028600Y014839D01*
X028600Y014957D02*
X029160Y014957D01*
X029160Y015076D02*
X028600Y015076D01*
X028600Y015194D02*
X029190Y015194D01*
X029239Y015313D02*
X028600Y015313D01*
X028600Y015431D02*
X029311Y015431D01*
X029429Y015550D02*
X028600Y015550D01*
X028600Y015668D02*
X029642Y015668D01*
X030158Y015668D02*
X033721Y015668D01*
X033661Y015787D02*
X028600Y015787D01*
X028600Y015905D02*
X033639Y015905D01*
X033646Y016024D02*
X028600Y016024D01*
X028600Y016142D02*
X033695Y016142D01*
X033803Y016261D02*
X028600Y016261D01*
X028600Y016379D02*
X034877Y016379D01*
X034759Y016498D02*
X028600Y016498D01*
X028600Y016616D02*
X034640Y016616D01*
X034522Y016735D02*
X028600Y016735D01*
X028600Y016853D02*
X034403Y016853D01*
X034285Y016972D02*
X028600Y016972D01*
X028600Y017090D02*
X034166Y017090D01*
X034048Y017209D02*
X028600Y017209D01*
X028600Y017327D02*
X033929Y017327D01*
X033811Y017446D02*
X031074Y017446D01*
X030492Y017446D02*
X028600Y017446D01*
X028600Y017564D02*
X030406Y017564D01*
X030365Y017683D02*
X028600Y017683D01*
X028600Y017801D02*
X030365Y017801D01*
X030404Y017920D02*
X028600Y017920D01*
X028600Y018038D02*
X030486Y018038D01*
X030687Y018157D02*
X028600Y018157D01*
X028600Y018275D02*
X031938Y018275D01*
X031938Y018394D02*
X028600Y018394D01*
X028600Y018512D02*
X031938Y018512D01*
X031959Y018631D02*
X028600Y018631D01*
X028600Y020527D02*
X030436Y020527D01*
X029741Y020645D02*
X028600Y020645D01*
X030879Y018157D02*
X031960Y018157D01*
X031957Y018038D02*
X031080Y018038D01*
X032593Y018038D02*
X033218Y018038D01*
X033337Y017920D02*
X032612Y017920D01*
X032612Y017801D02*
X033455Y017801D01*
X033574Y017683D02*
X032612Y017683D01*
X032588Y017564D02*
X033692Y017564D01*
X034309Y016261D02*
X034996Y016261D01*
X035114Y016142D02*
X034417Y016142D01*
X034466Y016024D02*
X035185Y016024D01*
X035185Y015905D02*
X034474Y015905D01*
X034535Y015787D02*
X035185Y015787D01*
X035185Y015668D02*
X034653Y015668D01*
X034772Y015550D02*
X035185Y015550D01*
X035185Y015431D02*
X035075Y015431D01*
X035147Y014839D02*
X035153Y014839D01*
X035457Y014720D02*
X030596Y014720D01*
X030640Y014839D02*
X034563Y014839D01*
X034557Y014957D02*
X030640Y014957D01*
X030640Y015076D02*
X034510Y015076D01*
X034392Y015194D02*
X030610Y015194D01*
X030561Y015313D02*
X034273Y015313D01*
X034155Y015431D02*
X030489Y015431D01*
X030371Y015550D02*
X033867Y015550D01*
X035575Y014602D02*
X031723Y014602D01*
X031748Y014483D02*
X035694Y014483D01*
X035812Y014365D02*
X031748Y014365D01*
X031748Y014246D02*
X035931Y014246D01*
X036049Y014128D02*
X031748Y014128D01*
X031748Y014009D02*
X036168Y014009D01*
X036286Y013891D02*
X031748Y013891D01*
X031641Y013772D02*
X036310Y013772D01*
X036310Y013654D02*
X031671Y013654D01*
X031748Y013535D02*
X036310Y013535D01*
X036310Y013417D02*
X031748Y013417D01*
X031748Y013298D02*
X036310Y013298D01*
X036310Y013180D02*
X031748Y013180D01*
X031748Y013061D02*
X036310Y013061D01*
X036310Y012943D02*
X031748Y012943D01*
X031701Y012824D02*
X035263Y012824D01*
X035103Y012706D02*
X031641Y012706D01*
X031641Y012587D02*
X035038Y012587D01*
X035012Y012469D02*
X031641Y012469D01*
X031641Y012350D02*
X035015Y012350D01*
X035064Y012232D02*
X031641Y012232D01*
X031400Y011304D02*
X032150Y011304D01*
X032900Y011304D01*
X033650Y011304D01*
X033947Y011639D02*
X034572Y011639D01*
X033987Y011758D02*
X035711Y011758D01*
X035682Y011639D02*
X035228Y011639D01*
X035400Y011521D02*
X035682Y011521D01*
X035682Y011402D02*
X035518Y011402D01*
X035573Y011284D02*
X035682Y011284D01*
X035736Y011165D02*
X035622Y011165D01*
X035640Y011047D02*
X036310Y011047D01*
X036310Y011165D02*
X036223Y011165D01*
X036310Y010928D02*
X035640Y010928D01*
X035633Y010810D02*
X036310Y010810D01*
X036310Y010691D02*
X035584Y010691D01*
X035535Y010573D02*
X036310Y010573D01*
X036310Y010454D02*
X035427Y010454D01*
X035292Y010336D02*
X036310Y010336D01*
X036310Y010217D02*
X032841Y010217D01*
X032909Y010099D02*
X036310Y010099D01*
X036310Y009980D02*
X032909Y009980D01*
X032909Y009862D02*
X036310Y009862D01*
X036310Y009743D02*
X033696Y009743D01*
X033696Y009625D02*
X036310Y009625D01*
X036310Y009506D02*
X033696Y009506D01*
X033679Y009388D02*
X036310Y009388D01*
X036310Y009269D02*
X033679Y009269D01*
X033679Y009151D02*
X036310Y009151D01*
X036310Y009032D02*
X033679Y009032D01*
X033679Y008914D02*
X034979Y008914D01*
X034834Y008795D02*
X033679Y008795D01*
X033679Y008677D02*
X034775Y008677D01*
X034753Y008558D02*
X033679Y008558D01*
X033679Y008440D02*
X034761Y008440D01*
X034810Y008321D02*
X033679Y008321D01*
X033679Y008203D02*
X034919Y008203D01*
X034970Y008084D02*
X033679Y008084D01*
X033679Y007966D02*
X034970Y007966D01*
X034970Y007847D02*
X033770Y007847D01*
X033888Y007729D02*
X034970Y007729D01*
X034970Y007610D02*
X034007Y007610D01*
X034125Y007492D02*
X034970Y007492D01*
X034951Y007373D02*
X034244Y007373D01*
X034362Y007255D02*
X034932Y007255D01*
X034932Y007136D02*
X034481Y007136D01*
X034599Y007018D02*
X034932Y007018D01*
X034932Y006899D02*
X034718Y006899D01*
X034836Y006781D02*
X034996Y006781D01*
X034955Y006662D02*
X035560Y006662D01*
X035560Y006544D02*
X035073Y006544D01*
X035192Y006425D02*
X035560Y006425D01*
X035490Y006307D02*
X035310Y006307D01*
X035464Y006781D02*
X035560Y006781D01*
X035542Y007373D02*
X035508Y007373D01*
X035490Y007492D02*
X035845Y007492D01*
X035964Y007610D02*
X035490Y007610D01*
X035490Y007729D02*
X036082Y007729D01*
X036201Y007847D02*
X035490Y007847D01*
X035490Y007966D02*
X036310Y007966D01*
X036310Y008084D02*
X035490Y008084D01*
X035490Y008203D02*
X036310Y008203D01*
X036310Y008321D02*
X035531Y008321D01*
X035580Y008440D02*
X036310Y008440D01*
X036310Y008558D02*
X035588Y008558D01*
X035566Y008677D02*
X036310Y008677D01*
X036310Y008795D02*
X035507Y008795D01*
X035362Y008914D02*
X036310Y008914D01*
X034508Y010336D02*
X030243Y010336D01*
X028400Y000974D02*
X028883Y000986D01*
X029365Y001021D01*
X029845Y001079D01*
X030321Y001160D01*
X030793Y001265D01*
X031259Y001392D01*
X031719Y001541D01*
X032171Y001712D01*
X032614Y001905D01*
X033047Y002119D01*
X033470Y002354D01*
X033880Y002609D01*
X034278Y002884D01*
X034662Y003177D01*
X035031Y003489D01*
X035385Y003818D01*
X035723Y004164D01*
X036043Y004526D01*
X036346Y004902D01*
X036630Y005293D01*
X036895Y005698D01*
X037140Y006114D01*
X037364Y006542D01*
X037568Y006980D01*
X037750Y007428D01*
X037911Y007884D01*
X038049Y008347D01*
X038164Y008816D01*
X038257Y009290D01*
X038327Y009769D01*
X038374Y010250D01*
X038397Y010732D01*
X038397Y011216D01*
X038374Y011698D01*
X038327Y012179D01*
X038257Y012658D01*
X038164Y013132D01*
X038049Y013601D01*
X037911Y014064D01*
X037750Y014520D01*
X037568Y014968D01*
X037364Y015406D01*
X037140Y015834D01*
X036895Y016250D01*
X036630Y016655D01*
X036346Y017046D01*
X036043Y017422D01*
X035723Y017784D01*
X035385Y018130D01*
X035031Y018459D01*
X034662Y018771D01*
X034278Y019064D01*
X033880Y019339D01*
X033470Y019594D01*
X033047Y019829D01*
X032614Y020043D01*
X032171Y020236D01*
X031719Y020407D01*
X031259Y020556D01*
X030793Y020683D01*
X030321Y020788D01*
X029845Y020869D01*
X029365Y020927D01*
X028883Y020962D01*
X028400Y020974D01*
X030547Y014602D02*
X031039Y014602D01*
X031015Y014483D02*
X030456Y014483D01*
X030337Y014365D02*
X031015Y014365D01*
X031015Y014246D02*
X030076Y014246D01*
X033984Y012113D02*
X035167Y012113D01*
X035508Y011995D02*
X033987Y011995D01*
X033987Y011876D02*
X035627Y011876D01*
X036007Y012232D02*
X036310Y012232D01*
X036310Y012350D02*
X035888Y012350D01*
X035847Y012469D02*
X036310Y012469D01*
X036310Y012587D02*
X035821Y012587D01*
X035755Y012706D02*
X036310Y012706D01*
X036310Y012824D02*
X035596Y012824D01*
X036125Y012113D02*
X036310Y012113D01*
X036310Y011995D02*
X036218Y011995D01*
X036240Y011876D02*
X036310Y011876D01*
X036301Y011758D02*
X036249Y011758D01*
X033141Y009743D02*
X032855Y009743D01*
X032631Y009973D02*
X032630Y009974D01*
X032909Y009388D02*
X033159Y009388D01*
X033159Y009269D02*
X032909Y009269D01*
X032909Y009151D02*
X033159Y009151D01*
X033159Y009032D02*
X032892Y009032D01*
X033159Y008914D02*
X032082Y008914D01*
X031990Y008795D02*
X033159Y008795D01*
X033159Y008677D02*
X031947Y008677D01*
X031836Y008558D02*
X033159Y008558D01*
X034575Y006307D02*
X030222Y006307D01*
X029578Y006307D02*
X028600Y006307D01*
X028600Y006425D02*
X029402Y006425D01*
X029284Y006544D02*
X028600Y006544D01*
X028600Y006662D02*
X029228Y006662D01*
X029179Y006781D02*
X028600Y006781D01*
X028600Y006899D02*
X029160Y006899D01*
X029160Y007018D02*
X028600Y007018D01*
X028600Y007136D02*
X029166Y007136D01*
X029215Y007255D02*
X028600Y007255D01*
X028600Y007373D02*
X029264Y007373D01*
X029371Y007492D02*
X028600Y007492D01*
X028600Y007610D02*
X029502Y007610D01*
X028600Y006188D02*
X034693Y006188D01*
X034812Y006070D02*
X028600Y006070D01*
X028600Y005951D02*
X034930Y005951D01*
X035016Y005833D02*
X028600Y005833D01*
X028600Y005714D02*
X029438Y005714D01*
X029438Y005596D02*
X028600Y005596D01*
X028600Y005477D02*
X029438Y005477D01*
X029438Y005359D02*
X028600Y005359D01*
X028600Y005240D02*
X029502Y005240D01*
X029438Y005122D02*
X028600Y005122D01*
X028600Y005003D02*
X029438Y005003D01*
X029438Y004885D02*
X028600Y004885D01*
X028600Y004766D02*
X029438Y004766D01*
X029504Y004648D02*
X028600Y004648D01*
X028600Y004529D02*
X029515Y004529D01*
X029515Y004411D02*
X028600Y004411D01*
X028600Y004292D02*
X029515Y004292D01*
X029510Y004174D02*
X028600Y004174D01*
X028600Y004055D02*
X029461Y004055D01*
X029450Y003937D02*
X028600Y003937D01*
X028600Y003818D02*
X029468Y003818D01*
X029522Y003700D02*
X028600Y003700D01*
X028600Y003581D02*
X029654Y003581D01*
X030080Y003581D02*
X034777Y003581D01*
X034643Y003463D02*
X028600Y003463D01*
X028600Y003344D02*
X034509Y003344D01*
X034359Y003226D02*
X028600Y003226D01*
X028600Y003107D02*
X034188Y003107D01*
X034016Y002989D02*
X028600Y002989D01*
X028600Y002870D02*
X033844Y002870D01*
X033673Y002752D02*
X028600Y002752D01*
X028600Y002633D02*
X033501Y002633D01*
X033288Y002515D02*
X028600Y002515D01*
X028505Y002396D02*
X033062Y002396D01*
X032837Y002278D02*
X028345Y002278D01*
X028347Y002159D02*
X032611Y002159D01*
X032374Y002041D02*
X028349Y002041D01*
X028351Y001922D02*
X032062Y001922D01*
X031749Y001804D02*
X028353Y001804D01*
X028355Y001685D02*
X031437Y001685D01*
X031024Y001567D02*
X028357Y001567D01*
X028359Y001448D02*
X030543Y001448D01*
X029960Y001330D02*
X028361Y001330D01*
X028363Y001211D02*
X028963Y001211D01*
D11*
X028400Y000974D02*
X000150Y000974D01*
X000150Y028474D01*
X027650Y028474D01*
X027650Y002574D01*
X028400Y002574D01*
X028400Y020974D01*
X026100Y007174D02*
X025950Y007024D01*
X025798Y006974D01*
X007386Y011604D02*
X006670Y011604D01*
X006550Y011724D01*
X005600Y011724D01*
X005450Y011874D01*
X004550Y011874D01*
X004150Y011474D01*
X004575Y012049D02*
X004150Y012474D01*
X004575Y012049D02*
X005575Y012049D01*
X005705Y011919D01*
X007386Y011919D01*
X002650Y011679D02*
X002095Y011679D01*
X000900Y012874D01*
X000900Y019474D01*
X001500Y020074D01*
X002330Y020074D01*
X002360Y020044D01*
X002360Y022604D01*
X003445Y021519D01*
X005100Y021519D01*
X005100Y020929D02*
X005025Y020929D01*
X004140Y020044D01*
D12*
X007386Y012549D03*
X007386Y012234D03*
X007386Y011919D03*
X007386Y011604D03*
X007386Y011289D03*
X007386Y010974D03*
X007386Y010659D03*
X007386Y010344D03*
X007386Y010029D03*
X007386Y009714D03*
X007386Y009399D03*
X011914Y009399D03*
X011914Y009714D03*
X011914Y010029D03*
X011914Y010344D03*
X011914Y010659D03*
X011914Y010974D03*
X011914Y011289D03*
X011914Y011604D03*
X011914Y011919D03*
X011914Y012234D03*
X011914Y012549D03*
D13*
X011225Y013238D03*
X010910Y013238D03*
X010595Y013238D03*
X010280Y013238D03*
X009965Y013238D03*
X009650Y013238D03*
X009335Y013238D03*
X009020Y013238D03*
X008705Y013238D03*
X008390Y013238D03*
X008075Y013238D03*
X008075Y008710D03*
X008390Y008710D03*
X008705Y008710D03*
X009020Y008710D03*
X009335Y008710D03*
X009650Y008710D03*
X009965Y008710D03*
X010280Y008710D03*
X010595Y008710D03*
X010910Y008710D03*
X011225Y008710D03*
D14*
X013000Y010529D03*
X013000Y011119D03*
X015200Y010569D03*
X015200Y009979D03*
X016425Y008544D03*
X016425Y007954D03*
X014650Y006669D03*
X014650Y006079D03*
X013650Y006079D03*
X013650Y006669D03*
X012650Y006669D03*
X012650Y006079D03*
X011650Y006079D03*
X011650Y006669D03*
X010650Y006669D03*
X010650Y006079D03*
X009650Y006079D03*
X009650Y006669D03*
X008650Y006669D03*
X008650Y006079D03*
X007650Y006079D03*
X007650Y006669D03*
X006650Y006669D03*
X006650Y006079D03*
X005650Y006079D03*
X005650Y006669D03*
X001550Y008579D03*
X001550Y009169D03*
X001550Y009779D03*
X001550Y010369D03*
X002650Y011679D03*
X002650Y012269D03*
X006700Y016529D03*
X006700Y017119D03*
X005100Y020929D03*
X005100Y021519D03*
X010475Y023704D03*
X010475Y024294D03*
X020975Y016969D03*
X020975Y016379D03*
X021775Y016379D03*
X021775Y016969D03*
X016550Y012769D03*
X016550Y012179D03*
X020275Y004569D03*
X020275Y003979D03*
X020275Y003344D03*
X020275Y002754D03*
X029775Y004929D03*
X029775Y005519D03*
X032400Y004644D03*
X032400Y004054D03*
X032150Y011304D03*
X032150Y011894D03*
X031400Y011894D03*
X031400Y011304D03*
X032900Y011304D03*
X032900Y011894D03*
X033650Y011894D03*
X033650Y011304D03*
X032275Y017804D03*
X032275Y018394D03*
D15*
X005150Y013474D03*
D16*
X004150Y013474D03*
X004150Y012474D03*
X005150Y012474D03*
X005150Y011474D03*
X004150Y011474D03*
X003650Y006974D03*
X002650Y006974D03*
X001650Y006974D03*
X001650Y004974D03*
X002650Y004974D03*
X003650Y004974D03*
X005650Y005124D03*
X006650Y005124D03*
X006650Y004124D03*
X005650Y004124D03*
X005650Y003124D03*
X006650Y003124D03*
X007650Y003124D03*
X008650Y003124D03*
X009650Y003124D03*
X010650Y003124D03*
X011650Y003124D03*
X012650Y003124D03*
X013650Y003124D03*
X014650Y003124D03*
X014650Y004124D03*
X013650Y004124D03*
X012650Y004124D03*
X011650Y004124D03*
X010650Y004124D03*
X009650Y004124D03*
X008650Y004124D03*
X007650Y004124D03*
X007650Y005124D03*
X008650Y005124D03*
X009650Y005124D03*
X010650Y005124D03*
X011650Y005124D03*
X012650Y005124D03*
X013650Y005124D03*
X014650Y005124D03*
X010400Y001774D03*
X009400Y001774D03*
X008400Y001774D03*
X007400Y001774D03*
X021100Y010574D03*
X021100Y011574D03*
X021100Y012574D03*
X021100Y013574D03*
X023950Y017899D03*
X024950Y017899D03*
X025950Y017899D03*
X030783Y017745D03*
X034056Y015923D03*
X035429Y012441D03*
X035171Y008541D03*
X033349Y005318D03*
X029867Y003945D03*
X030025Y009974D03*
X030025Y010974D03*
X030025Y011974D03*
X007250Y023024D03*
X007250Y025024D03*
D17*
X010475Y022893D03*
X010101Y022105D03*
X010849Y022105D03*
D18*
X019356Y014324D03*
X020144Y013950D03*
X020144Y014698D03*
X020144Y012898D03*
X020144Y012150D03*
X019356Y012524D03*
X020144Y011148D03*
X020144Y010400D03*
X019356Y010774D03*
X032631Y009973D03*
X033419Y009599D03*
X032631Y009225D03*
D19*
X031695Y009974D03*
X031105Y009974D03*
X035230Y007099D03*
X035820Y007099D03*
X035980Y011474D03*
X036570Y011474D03*
X035445Y015099D03*
X034855Y015099D03*
X024745Y021024D03*
X024155Y021024D03*
X024155Y021774D03*
X024745Y021774D03*
X024745Y022524D03*
X024155Y022524D03*
X024155Y023274D03*
X024745Y023274D03*
X018745Y013924D03*
X018155Y013924D03*
X018155Y012124D03*
X018745Y012124D03*
X018745Y010374D03*
X018155Y010374D03*
X015895Y011874D03*
X015305Y011874D03*
X007245Y015574D03*
X006655Y015574D03*
X010180Y021499D03*
X010770Y021499D03*
X023255Y002824D03*
X023845Y002824D03*
D20*
G36*
X030494Y004399D02*
X031028Y004543D01*
X031172Y004009D01*
X030638Y003865D01*
X030494Y004399D01*
G37*
G36*
X033665Y006025D02*
X034056Y006416D01*
X034447Y006025D01*
X034056Y005634D01*
X033665Y006025D01*
G37*
G36*
X035090Y009312D02*
X035234Y009846D01*
X035768Y009702D01*
X035624Y009168D01*
X035090Y009312D01*
G37*
G36*
X034976Y013068D02*
X034832Y013602D01*
X035366Y013746D01*
X035510Y013212D01*
X034976Y013068D01*
G37*
G36*
X033349Y016239D02*
X032958Y016630D01*
X033349Y017021D01*
X033740Y016630D01*
X033349Y016239D01*
G37*
G36*
X030012Y017665D02*
X029478Y017809D01*
X029622Y018343D01*
X030156Y018199D01*
X030012Y017665D01*
G37*
D21*
X031381Y014224D03*
X032169Y014224D03*
X032169Y013224D03*
X031381Y013224D03*
X024844Y019149D03*
X024056Y019149D03*
X024056Y020149D03*
X024844Y020149D03*
X024506Y005724D03*
X025294Y005724D03*
D22*
X020127Y007499D03*
X020127Y007999D03*
X020127Y008499D03*
X020127Y008999D03*
X017923Y008999D03*
X017923Y008499D03*
X017923Y007999D03*
X017923Y007499D03*
D23*
X024950Y009524D03*
D24*
X024052Y007166D03*
X025848Y007166D03*
D25*
X022350Y007630D03*
X022350Y008418D03*
D26*
X022525Y004670D03*
X022025Y004670D03*
X021525Y004670D03*
X021025Y004670D03*
X021025Y002828D03*
X021525Y002828D03*
X022025Y002828D03*
X022525Y002828D03*
D27*
X019055Y002624D03*
X016245Y002624D03*
X016245Y005624D03*
X019055Y005624D03*
D28*
X002650Y008687D03*
X002650Y010262D03*
D29*
X001650Y002474D03*
X026150Y002474D03*
X029900Y006974D03*
X034900Y010974D03*
X029900Y014974D03*
X026150Y026974D03*
X001650Y026974D03*
D30*
X025700Y014608D03*
X025700Y012640D03*
D31*
X016565Y011165D03*
X015935Y011165D03*
X015935Y009984D03*
X016565Y009984D03*
D32*
X014250Y019249D03*
X014250Y024499D03*
X020250Y024499D03*
X020250Y019249D03*
D33*
X018500Y018874D03*
X018500Y016874D03*
X016000Y016874D03*
X016000Y018874D03*
X021250Y020874D03*
X021250Y021874D03*
X021250Y022874D03*
X018250Y025874D03*
X017250Y025874D03*
X016250Y025874D03*
D34*
X004140Y022924D02*
X004140Y022284D01*
X002360Y022284D02*
X002360Y022924D01*
X002360Y020364D02*
X002360Y019724D01*
X004140Y019724D02*
X004140Y020364D01*
D35*
X005580Y018574D03*
X005580Y018074D03*
X005580Y017574D03*
X005580Y017074D03*
X005580Y016574D03*
X005580Y016074D03*
X005580Y015574D03*
X005580Y015074D03*
X001810Y015074D03*
X001810Y015574D03*
X001810Y016074D03*
X001810Y016574D03*
X001810Y017074D03*
X001810Y017574D03*
X001810Y018074D03*
X001810Y018574D03*
D36*
X020025Y008749D02*
X020127Y008647D01*
X020127Y008499D01*
X022350Y008418D02*
X023456Y009524D01*
X024950Y009524D01*
X024950Y011824D01*
X025700Y012640D02*
X023311Y012640D01*
X021245Y010574D01*
X021100Y010574D01*
X022350Y007630D02*
X022815Y007166D01*
X024052Y007166D01*
X024052Y006178D01*
X024506Y005724D01*
X024056Y005730D01*
X023850Y005724D01*
X025294Y005724D02*
X025798Y006228D01*
X025798Y006974D01*
X025848Y007166D01*
X029775Y005519D02*
X030730Y005519D01*
X032195Y004054D01*
X032400Y004054D01*
X033605Y004054D01*
X035400Y005849D01*
X033419Y007830D01*
X033419Y009599D01*
X032631Y009225D02*
X032026Y009225D01*
X031650Y008849D01*
X031695Y009974D02*
X032630Y009974D01*
X031105Y009974D02*
X030025Y009974D01*
X030105Y011894D02*
X030025Y011974D01*
X030105Y011894D02*
X031400Y011894D01*
X031381Y011913D01*
X031381Y013224D01*
X031381Y014224D01*
X031400Y011894D02*
X032150Y011894D01*
X032900Y011894D01*
X033650Y011894D01*
X035429Y012441D02*
X035980Y011891D01*
X035980Y011474D01*
X036570Y011474D02*
X036570Y007849D01*
X035820Y007099D01*
X035820Y006269D01*
X035400Y005849D01*
X035230Y007099D02*
X035230Y008482D01*
X035171Y008541D01*
X036570Y011474D02*
X036570Y013974D01*
X035445Y015099D01*
X035445Y016179D01*
X033230Y018394D01*
X032275Y018394D01*
X032275Y017804D02*
X032216Y017745D01*
X030783Y017745D01*
X034056Y015923D02*
X034056Y015898D01*
X034855Y015099D01*
X024950Y017899D02*
X024950Y019043D01*
X024844Y019149D01*
X024844Y020149D01*
X024745Y020248D02*
X024745Y021024D01*
X024745Y021774D01*
X024745Y022524D01*
X024745Y023274D01*
X024155Y023274D02*
X024155Y022524D01*
X024155Y021774D01*
X024155Y021024D01*
X024155Y020248D01*
X024056Y020149D02*
X024056Y019149D01*
X023950Y019043D02*
X023950Y017899D01*
X033074Y005318D02*
X032400Y004644D01*
X033074Y005318D02*
X033349Y005318D01*
X029867Y003945D02*
X029775Y004037D01*
X029775Y004929D01*
D37*
X024475Y002149D02*
X023845Y002779D01*
X023845Y002824D01*
X024325Y002344D02*
X024325Y001999D01*
X023255Y002824D02*
X023255Y003819D01*
X023250Y003824D01*
X022625Y004349D02*
X020925Y004349D01*
X020925Y004999D01*
X022625Y004999D01*
X022625Y004349D01*
X022625Y004422D02*
X020925Y004422D01*
X020925Y004520D02*
X022625Y004520D01*
X022625Y004619D02*
X020925Y004619D01*
X020925Y004717D02*
X022625Y004717D01*
X022625Y004816D02*
X020925Y004816D01*
X020925Y004914D02*
X022625Y004914D01*
X022100Y004574D02*
X021028Y004574D01*
X020275Y004569D01*
X020275Y003979D02*
X020275Y003344D01*
X020925Y003149D02*
X022125Y003149D01*
X022125Y002499D01*
X020925Y002499D01*
X020925Y003149D01*
X020925Y003141D02*
X022125Y003141D01*
X022125Y003043D02*
X020925Y003043D01*
X020925Y002944D02*
X022125Y002944D01*
X022125Y002846D02*
X020925Y002846D01*
X020925Y002747D02*
X022125Y002747D01*
X022125Y002649D02*
X020925Y002649D01*
X020925Y002550D02*
X022125Y002550D01*
X022025Y002828D02*
X021546Y002828D01*
X021525Y002849D01*
X021525Y002828D02*
X021400Y002703D01*
X021400Y002624D01*
X021700Y002024D02*
X021750Y002024D01*
X022529Y002824D02*
X023255Y002824D01*
X022529Y002824D02*
X022525Y002828D01*
X022100Y004574D02*
X021800Y004874D01*
X021800Y004974D01*
X020425Y007399D02*
X019825Y007399D01*
X019825Y008099D01*
X020425Y008099D01*
X020425Y007399D01*
X020425Y007475D02*
X019825Y007475D01*
X019825Y007574D02*
X020425Y007574D01*
X020425Y007672D02*
X019825Y007672D01*
X019825Y007771D02*
X020425Y007771D01*
X020402Y007774D02*
X020127Y007499D01*
X020402Y007774D02*
X020650Y007774D01*
X020425Y007869D02*
X019825Y007869D01*
X019825Y007968D02*
X020425Y007968D01*
X020425Y008066D02*
X019825Y008066D01*
X019825Y008399D02*
X019825Y009099D01*
X020425Y009099D01*
X020425Y008399D01*
X019825Y008399D01*
X019825Y008460D02*
X020425Y008460D01*
X020425Y008559D02*
X019825Y008559D01*
X019825Y008657D02*
X020425Y008657D01*
X020425Y008756D02*
X019825Y008756D01*
X019825Y008854D02*
X020425Y008854D01*
X020425Y008953D02*
X019825Y008953D01*
X019825Y009051D02*
X020425Y009051D01*
X020509Y009984D02*
X016565Y009984D01*
X015935Y009984D02*
X015895Y009944D01*
X015235Y009944D01*
X015200Y009979D01*
X015200Y010569D02*
X014045Y011724D01*
X012900Y011724D01*
X013000Y011119D02*
X012847Y010974D01*
X011914Y010974D01*
X011300Y010974D01*
X011200Y010874D01*
X011535Y010659D02*
X011400Y010524D01*
X011000Y010524D01*
X010800Y010724D01*
X010800Y011289D01*
X011914Y011289D01*
X011914Y011604D02*
X011320Y011604D01*
X011250Y011624D01*
X011555Y011919D02*
X011500Y011974D01*
X010950Y011974D01*
X010600Y011624D01*
X010800Y011289D02*
X009650Y011289D01*
X009965Y011604D01*
X009965Y013238D01*
X010280Y013238D02*
X010280Y012744D01*
X010450Y012574D01*
X010800Y012574D01*
X010460Y012234D02*
X010300Y012074D01*
X010460Y012234D02*
X011914Y012234D01*
X011914Y012549D02*
X014375Y012549D01*
X017250Y015424D01*
X023475Y015424D01*
X025950Y017899D01*
X024056Y019149D02*
X023950Y019043D01*
X021775Y016969D02*
X020975Y016969D01*
X020975Y017199D01*
X019300Y018874D01*
X018500Y018874D01*
X018000Y018874D01*
X017100Y017974D01*
X015100Y017974D01*
X011225Y014099D01*
X011225Y013238D01*
X010910Y013238D02*
X010910Y014234D01*
X014950Y018274D01*
X017000Y018274D01*
X017300Y018574D01*
X017300Y020124D01*
X018050Y021874D02*
X021250Y021874D01*
X022200Y021674D02*
X021400Y020874D01*
X021250Y020874D01*
X022200Y021674D02*
X022200Y024474D01*
X020800Y025874D01*
X018250Y025874D01*
X017550Y026574D01*
X011295Y026574D01*
X009745Y025024D01*
X010475Y024294D01*
X010475Y023704D02*
X010475Y022893D01*
X007381Y022893D01*
X007250Y023024D01*
X007250Y025024D02*
X009745Y025024D01*
X010101Y022105D02*
X010101Y021676D01*
X010180Y021499D01*
X010770Y021499D02*
X010770Y017744D01*
X008075Y015049D01*
X008075Y013238D01*
X008390Y013238D02*
X008390Y014164D01*
X008900Y014674D01*
X009500Y014674D02*
X008705Y013879D01*
X008705Y013238D01*
X009020Y013238D02*
X009020Y013594D01*
X010100Y014674D01*
X010595Y014419D02*
X010595Y013238D01*
X009650Y013238D02*
X009650Y012224D01*
X009550Y012124D01*
X009335Y012509D02*
X008500Y011674D01*
X008050Y010974D02*
X008200Y010824D01*
X008050Y010974D02*
X007386Y010974D01*
X006800Y010974D01*
X006750Y010924D01*
X005700Y010924D01*
X005150Y011474D01*
X004150Y011474D02*
X002953Y011474D01*
X002650Y011679D01*
X002650Y012269D02*
X002650Y012974D01*
X002900Y013724D02*
X002900Y014674D01*
X002500Y015074D01*
X001810Y015074D01*
X001810Y015574D02*
X002450Y015574D01*
X003200Y014824D01*
X003200Y013824D01*
X004050Y012974D01*
X004350Y012974D01*
X004850Y012474D01*
X005150Y012474D01*
X005400Y012974D02*
X004750Y012974D01*
X004250Y013474D01*
X004150Y013474D01*
X004150Y017824D01*
X004900Y018574D01*
X005580Y018574D01*
X003650Y018574D02*
X001810Y018574D01*
X001810Y018074D02*
X002750Y018074D01*
X005000Y015574D02*
X004800Y015374D01*
X004800Y013824D01*
X005150Y013474D01*
X005400Y012974D02*
X006140Y012234D01*
X007386Y012234D01*
X007386Y012549D02*
X006625Y012549D01*
X006450Y012724D01*
X007500Y013374D02*
X007500Y013724D01*
X006150Y015074D01*
X005580Y015074D01*
X005580Y015574D02*
X005000Y015574D01*
X006700Y017119D02*
X007755Y017119D01*
X008450Y016424D01*
X007850Y015574D02*
X007245Y015574D01*
X009335Y013238D02*
X009335Y012509D01*
X009650Y011289D02*
X009650Y008710D01*
X009335Y008710D02*
X009335Y008209D01*
X008650Y007524D01*
X008650Y006669D01*
X008650Y006079D02*
X008650Y005124D01*
X007650Y005124D02*
X007650Y006079D01*
X007650Y006669D02*
X007650Y006874D01*
X009020Y008244D01*
X009020Y008710D01*
X008705Y008710D02*
X008705Y008279D01*
X007900Y007474D01*
X007455Y007474D01*
X006650Y006669D01*
X006650Y006079D02*
X006650Y005124D01*
X005650Y005124D02*
X005650Y006079D01*
X005650Y006669D02*
X006755Y007774D01*
X007850Y007774D01*
X008390Y008314D01*
X008390Y008710D01*
X008075Y008710D02*
X008075Y008349D01*
X007800Y008074D01*
X006100Y008074D01*
X005000Y006974D01*
X005000Y006324D01*
X003650Y004974D01*
X002650Y004974D02*
X007075Y009399D01*
X007386Y009399D01*
X007386Y009714D02*
X006390Y009714D01*
X003650Y006974D01*
X002650Y006974D02*
X005705Y010029D01*
X007386Y010029D01*
X007386Y010344D02*
X004307Y010344D01*
X002650Y008687D01*
X001741Y008687D01*
X001550Y008579D01*
X001550Y009169D02*
X001253Y009171D01*
X000950Y009474D01*
X001550Y009169D02*
X001550Y009779D01*
X001741Y010262D02*
X001550Y010369D01*
X001741Y010262D02*
X002650Y010262D01*
X003048Y010659D01*
X007386Y010659D01*
X007386Y011289D02*
X006235Y011289D01*
X006200Y011324D01*
X007386Y011289D02*
X009650Y011289D01*
X011535Y010659D02*
X011914Y010659D01*
X012868Y010659D01*
X013000Y010529D01*
X012580Y010344D02*
X014650Y008274D01*
X014650Y006669D01*
X014650Y006079D02*
X014650Y005124D01*
X013650Y005124D02*
X013650Y006079D01*
X013650Y006669D02*
X013650Y008874D01*
X012495Y010029D01*
X011914Y010029D01*
X011914Y009714D02*
X012410Y009714D01*
X012750Y009374D01*
X012750Y008674D01*
X012650Y008574D01*
X012650Y006669D01*
X012650Y006079D02*
X012650Y005124D01*
X011650Y005124D02*
X011650Y006079D01*
X011650Y006669D02*
X011650Y008024D01*
X012450Y008824D01*
X012450Y009274D01*
X012325Y009399D01*
X011914Y009399D01*
X011225Y008710D02*
X011225Y007244D01*
X010650Y006669D01*
X010595Y006626D01*
X010650Y006079D02*
X010650Y005124D01*
X009650Y005124D02*
X009650Y006079D01*
X009650Y006669D02*
X010910Y007929D01*
X010910Y008710D01*
X010595Y008710D02*
X010595Y008169D01*
X009850Y007424D01*
X009500Y007874D02*
X009800Y008174D01*
X010100Y008174D01*
X010280Y008354D01*
X010280Y008710D01*
X009965Y008710D02*
X009965Y009289D01*
X010150Y009474D01*
X011914Y010344D02*
X012580Y010344D01*
X011914Y011919D02*
X011555Y011919D01*
X011700Y013874D02*
X015050Y013874D01*
X016550Y013674D02*
X016550Y012769D01*
X017200Y012474D02*
X017550Y012124D01*
X018155Y012124D01*
X018745Y012124D02*
X020118Y012124D01*
X020144Y012150D01*
X020144Y012898D02*
X020776Y012898D01*
X021100Y012574D01*
X021100Y011574D02*
X020674Y011148D01*
X020144Y011148D01*
X020144Y010400D02*
X020118Y010374D01*
X018745Y010374D01*
X018155Y010374D02*
X017959Y010569D01*
X015200Y010569D01*
X015935Y011165D02*
X015935Y011834D01*
X015895Y011874D01*
X015305Y011874D02*
X015305Y012129D01*
X015650Y012474D01*
X017200Y012474D01*
X016550Y012179D02*
X016565Y011794D01*
X016565Y011165D01*
X015305Y011874D02*
X014350Y011874D01*
X014050Y012174D01*
X011700Y013874D02*
X011650Y013924D01*
X010595Y014419D02*
X018050Y021874D01*
X017300Y022524D02*
X017300Y025824D01*
X017250Y025874D01*
X011475Y021999D02*
X011369Y022105D01*
X010849Y022105D01*
X019350Y014974D02*
X019356Y014968D01*
X019356Y014324D01*
X018745Y013924D02*
X020118Y013924D01*
X020144Y013950D01*
X020144Y014698D02*
X021100Y013742D01*
X021100Y013574D01*
X019350Y013174D02*
X019356Y013068D01*
X019356Y012524D01*
X019350Y011424D02*
X019356Y011418D01*
X019356Y010774D01*
X020509Y009984D02*
X021100Y010574D01*
X017923Y008999D02*
X016880Y008999D01*
X016425Y008544D01*
X015930Y008544D01*
X015800Y008674D01*
X016425Y007954D02*
X016878Y007499D01*
X017923Y007499D01*
X017923Y007999D02*
X017075Y007999D01*
X017050Y008024D01*
X016550Y013674D02*
X016800Y013924D01*
X018155Y013924D01*
X020975Y016379D02*
X021775Y016379D01*
X021775Y016299D01*
X021400Y015924D01*
X004150Y012474D02*
X002900Y013724D01*
D38*
X002650Y012974D03*
X006200Y011324D03*
X006450Y012724D03*
X007500Y013374D03*
X008900Y014674D03*
X009500Y014674D03*
X010100Y014674D03*
X011650Y013924D03*
X010800Y012574D03*
X010300Y012074D03*
X010600Y011624D03*
X011250Y011624D03*
X011200Y010874D03*
X010150Y009474D03*
X009500Y007874D03*
X009850Y007424D03*
X008200Y010824D03*
X008500Y011674D03*
X009550Y012124D03*
X012900Y011724D03*
X014050Y012174D03*
X015050Y013874D03*
X016550Y013674D03*
X019350Y013174D03*
X019350Y011424D03*
X021300Y008724D03*
X023850Y005724D03*
X023250Y003824D03*
X020200Y002099D03*
X017050Y008024D03*
X015800Y008674D03*
X014500Y009224D03*
X019350Y014974D03*
X021400Y015924D03*
X017300Y020124D03*
X017300Y022524D03*
X011475Y021999D03*
X008450Y016424D03*
X007850Y015574D03*
X003650Y018574D03*
X002750Y018074D03*
X000950Y009474D03*
X024950Y011824D03*
X031650Y008849D03*
D39*
X022350Y008418D02*
X021606Y008418D01*
X021300Y008724D01*
X016425Y007954D02*
X015770Y007954D01*
X014500Y009224D01*
X013195Y010529D01*
X013000Y010529D01*
X020275Y002754D02*
X020275Y002174D01*
X020200Y002099D01*
X021150Y001474D02*
X021700Y002024D01*
X021150Y001474D02*
X014650Y001474D01*
X013750Y002374D01*
X008000Y002374D01*
X007400Y001774D01*
D40*
X019055Y005624D02*
X019055Y008404D01*
X019400Y008749D01*
X020025Y008749D01*
X020650Y007774D02*
X021800Y006624D01*
X021800Y004974D01*
X024900Y003674D02*
X024900Y002574D01*
X024475Y002149D01*
X024325Y001999D01*
X024000Y001674D01*
X022100Y001674D01*
X021750Y002024D01*
X021500Y002274D01*
X021500Y002574D01*
X024900Y003674D02*
X026950Y005724D01*
X026950Y007174D01*
X026950Y011390D01*
X025700Y012640D01*
X026100Y007174D02*
X026433Y007174D01*
X026442Y007166D01*
X026950Y007174D01*
D41*
X019055Y005624D02*
X019055Y002624D01*
X016245Y002624D02*
X016245Y004124D01*
X016245Y005624D01*
X016245Y004124D02*
X014650Y004124D01*
X013650Y004124D01*
X012650Y004124D01*
X011650Y004124D01*
X010650Y004124D01*
X009650Y004124D01*
X008650Y004124D01*
X007650Y004124D01*
X006650Y004124D01*
X005650Y004124D01*
M02*
