G75*
G70*
%OFA0B0*%
%FSLAX24Y24*%
%IPPOS*%
%LPD*%
%AMOC8*
5,1,8,0,0,1.08239X$1,22.5*
%
%ADD10C,0.0060*%
%ADD11C,0.0020*%
D10*
X002950Y020024D02*
X002950Y020124D01*
X002850Y020124D01*
X002950Y020024D02*
X003550Y020024D01*
X003550Y020124D01*
X003650Y020124D01*
X004450Y020474D02*
X004450Y020824D01*
X004450Y021824D01*
X004450Y022174D01*
X003650Y022524D02*
X003550Y022524D01*
X003550Y022624D01*
X002950Y022624D01*
X002950Y022524D01*
X002850Y022524D01*
X002050Y022174D02*
X002050Y021774D01*
X002050Y020824D01*
X002050Y020474D01*
X003150Y021324D02*
X003152Y021344D01*
X003158Y021362D01*
X003167Y021380D01*
X003179Y021395D01*
X003194Y021407D01*
X003212Y021416D01*
X003230Y021422D01*
X003250Y021424D01*
X003270Y021422D01*
X003288Y021416D01*
X003306Y021407D01*
X003321Y021395D01*
X003333Y021380D01*
X003342Y021362D01*
X003348Y021344D01*
X003350Y021324D01*
X003348Y021304D01*
X003342Y021286D01*
X003333Y021268D01*
X003321Y021253D01*
X003306Y021241D01*
X003288Y021232D01*
X003270Y021226D01*
X003250Y021224D01*
X003230Y021226D01*
X003212Y021232D01*
X003194Y021241D01*
X003179Y021253D01*
X003167Y021268D01*
X003158Y021286D01*
X003152Y021304D01*
X003150Y021324D01*
X002550Y021324D02*
X002552Y021376D01*
X002558Y021428D01*
X002568Y021480D01*
X002581Y021530D01*
X002598Y021580D01*
X002619Y021628D01*
X002644Y021674D01*
X002672Y021718D01*
X002703Y021760D01*
X002737Y021800D01*
X002774Y021837D01*
X002814Y021871D01*
X002856Y021902D01*
X002900Y021930D01*
X002946Y021955D01*
X002994Y021976D01*
X003044Y021993D01*
X003094Y022006D01*
X003146Y022016D01*
X003198Y022022D01*
X003250Y022024D01*
X003302Y022022D01*
X003354Y022016D01*
X003406Y022006D01*
X003456Y021993D01*
X003506Y021976D01*
X003554Y021955D01*
X003600Y021930D01*
X003644Y021902D01*
X003686Y021871D01*
X003726Y021837D01*
X003763Y021800D01*
X003797Y021760D01*
X003828Y021718D01*
X003856Y021674D01*
X003881Y021628D01*
X003902Y021580D01*
X003919Y021530D01*
X003932Y021480D01*
X003942Y021428D01*
X003948Y021376D01*
X003950Y021324D01*
X003948Y021272D01*
X003942Y021220D01*
X003932Y021168D01*
X003919Y021118D01*
X003902Y021068D01*
X003881Y021020D01*
X003856Y020974D01*
X003828Y020930D01*
X003797Y020888D01*
X003763Y020848D01*
X003726Y020811D01*
X003686Y020777D01*
X003644Y020746D01*
X003600Y020718D01*
X003554Y020693D01*
X003506Y020672D01*
X003456Y020655D01*
X003406Y020642D01*
X003354Y020632D01*
X003302Y020626D01*
X003250Y020624D01*
X003198Y020626D01*
X003146Y020632D01*
X003094Y020642D01*
X003044Y020655D01*
X002994Y020672D01*
X002946Y020693D01*
X002900Y020718D01*
X002856Y020746D01*
X002814Y020777D01*
X002774Y020811D01*
X002737Y020848D01*
X002703Y020888D01*
X002672Y020930D01*
X002644Y020974D01*
X002619Y021020D01*
X002598Y021068D01*
X002581Y021118D01*
X002568Y021168D01*
X002558Y021220D01*
X002552Y021272D01*
X002550Y021324D01*
D11*
X002150Y021774D02*
X002050Y021774D01*
X002150Y021774D02*
X002150Y020824D01*
X002050Y020824D01*
X004350Y020824D02*
X004350Y021824D01*
X004450Y021824D01*
X004450Y020824D02*
X004350Y020824D01*
M02*
