%
M48
M72
T01C0.0200
T02C0.0315
T03C0.0350
T04C0.0354
T05C0.0400
T06C0.0550
T07C0.0800
%
T01
X9500Y7874
X9850Y7424
X10150Y9474
X11200Y10874
X11250Y11624
X10600Y11624
X10300Y12074
X10800Y12574
X9550Y12124
X8500Y11674
X8200Y10824
X6200Y11324
X6450Y12724
X7500Y13374
X8900Y14674
X9500Y14674
X10100Y14674
X11650Y13924
X14050Y12174
X12900Y11724
X15050Y13874
X16550Y13674
X19350Y13174
X19350Y11424
X21300Y8724
X23850Y5724
X23250Y3824
X20200Y2099
X17050Y8024
X15800Y8674
X14500Y9224
X19350Y14974
X21400Y15924
X17300Y20124
X17300Y22524
X11475Y21999
X8450Y16424
X7850Y15574
X3650Y18574
X2750Y18074
X2650Y12974
X950Y9474
X24950Y11824
X31650Y8849
T02
X30025Y9974
X30025Y10974
X30025Y11974
X34056Y15923
X33349Y16630
X30783Y17745
X29817Y18004
X25950Y17899
X24950Y17899
X23950Y17899
X21100Y13574
X21100Y12574
X21100Y11574
X21100Y10574
X14650Y5124
X14650Y4124
X14650Y3124
X13650Y3124
X12650Y3124
X11650Y3124
X10650Y3124
X9650Y3124
X8650Y3124
X7650Y3124
X6650Y3124
X5650Y3124
X5650Y4124
X6650Y4124
X7650Y4124
X8650Y4124
X9650Y4124
X10650Y4124
X11650Y4124
X12650Y4124
X13650Y4124
X13650Y5124
X12650Y5124
X11650Y5124
X10650Y5124
X9650Y5124
X8650Y5124
X7650Y5124
X6650Y5124
X5650Y5124
X3650Y4974
X2650Y4974
X1650Y4974
X1650Y6974
X2650Y6974
X3650Y6974
X4150Y11474
X5150Y11474
X5150Y12474
X4150Y12474
X4150Y13474
X5150Y13474
X7250Y23024
X7250Y25024
X30833Y4204
X29867Y3945
X33349Y5318
X34056Y6025
X35171Y8541
X35429Y9507
X35429Y12441
X35171Y13407
X10400Y1774
X9400Y1774
X8400Y1774
X7400Y1774
T03
X21250Y20874
X21250Y21874
X21250Y22874
X18250Y25874
X17250Y25874
X16250Y25874
T04
X16000Y18874
X16000Y16874
X18500Y16874
X18500Y18874
X25700Y14608
X25700Y12640
T05
X4140Y20044
X2360Y20044
X2360Y22604
X4140Y22604
T06
X14250Y24499
X14250Y19249
X20250Y19249
X20250Y24499
T07
X1650Y2474
X26150Y2474
X29900Y6974
X34900Y10974
X29900Y14974
X26150Y26974
X1650Y26974
M30
