G75*
%MOIN*%
%OFA0B0*%
%FSLAX24Y24*%
%IPPOS*%
%LPD*%
%AMOC8*
5,1,8,0,0,1.08239X$1,22.5*
%
%ADD10C,0.0080*%
%ADD11R,0.0395X0.0474*%
%ADD12R,0.0474X0.0395*%
%ADD13R,0.0635X0.0635*%
%ADD14C,0.0635*%
%ADD15C,0.0520*%
%ADD16R,0.0635X0.0635*%
%ADD17R,0.0533X0.0671*%
%ADD18R,0.0867X0.1025*%
%ADD19C,0.0792*%
%ADD20C,0.1280*%
%ADD21R,0.0316X0.0430*%
%ADD22R,0.0430X0.0316*%
%ADD23R,0.0631X0.0190*%
%ADD24R,0.0245X0.0245*%
%ADD25R,0.0387X0.0474*%
%ADD26R,0.0946X0.0237*%
%ADD27R,0.0513X0.0631*%
%ADD28R,0.0671X0.0240*%
%ADD29R,0.0240X0.0671*%
%ADD30R,0.0474X0.0946*%
%ADD31C,0.0556*%
%ADD32R,0.0316X0.0513*%
%ADD33R,0.0671X0.0533*%
%ADD34C,0.0635*%
%ADD35R,0.1080X0.0580*%
%ADD36R,0.0710X0.0552*%
D10*
X005768Y008412D02*
X005768Y020148D01*
X005914Y020415D01*
X006066Y020678D01*
X006225Y020937D01*
X006390Y021192D01*
X006561Y021444D01*
X006739Y021691D01*
X006922Y021933D01*
X007111Y022171D01*
X007305Y022405D01*
X007506Y022633D01*
X007712Y022857D01*
X007923Y023075D01*
X008139Y023289D01*
X008361Y023497D01*
X008588Y023699D01*
X008819Y023896D01*
X009055Y024088D01*
X009296Y024273D01*
X009541Y024453D01*
X009791Y024626D01*
X010044Y024794D01*
X010302Y024955D01*
X010563Y025110D01*
X010829Y025259D01*
X011097Y025401D01*
X011369Y025536D01*
X011645Y025665D01*
X011923Y025787D01*
X012204Y025903D01*
X012488Y026011D01*
X012775Y026112D01*
X013064Y026207D01*
X013355Y026294D01*
X013648Y026375D01*
X013943Y026448D01*
X014240Y026514D01*
X014538Y026573D01*
X014837Y026624D01*
X015138Y026668D01*
X015440Y026705D01*
X015742Y026735D01*
X016046Y026757D01*
X016349Y026772D01*
X016653Y026779D01*
X016957Y026779D01*
X017261Y026772D01*
X017564Y026757D01*
X017868Y026735D01*
X018170Y026705D01*
X018472Y026668D01*
X018773Y026624D01*
X019072Y026573D01*
X019370Y026514D01*
X019667Y026448D01*
X019962Y026375D01*
X020255Y026294D01*
X020546Y026207D01*
X020835Y026112D01*
X021122Y026011D01*
X021406Y025903D01*
X021687Y025787D01*
X021965Y025665D01*
X022241Y025536D01*
X022513Y025401D01*
X022781Y025259D01*
X023047Y025110D01*
X023308Y024955D01*
X023566Y024794D01*
X023819Y024626D01*
X024069Y024453D01*
X024314Y024273D01*
X024555Y024088D01*
X024791Y023896D01*
X025022Y023699D01*
X025249Y023497D01*
X025471Y023289D01*
X025687Y023075D01*
X025898Y022857D01*
X026104Y022633D01*
X026305Y022405D01*
X026499Y022171D01*
X026688Y021933D01*
X026871Y021691D01*
X027049Y021444D01*
X027220Y021192D01*
X027385Y020937D01*
X027544Y020678D01*
X027696Y020415D01*
X027842Y020148D01*
X027841Y020148D02*
X027841Y019497D01*
X033635Y019497D01*
X033635Y022252D01*
X035144Y022252D01*
X032651Y015953D02*
X027841Y015953D01*
X027841Y008412D01*
X032651Y008867D02*
X033635Y008867D01*
X033635Y006111D01*
X035144Y006111D01*
X032651Y008867D02*
X032651Y015953D01*
X035143Y022253D02*
X035336Y022019D01*
X035523Y021781D01*
X035704Y021539D01*
X035879Y021292D01*
X036048Y021041D01*
X036211Y020786D01*
X036367Y020528D01*
X036518Y020265D01*
X036662Y019999D01*
X036799Y019730D01*
X036930Y019457D01*
X037055Y019181D01*
X037172Y018903D01*
X037283Y018621D01*
X037387Y018337D01*
X037484Y018050D01*
X037574Y017762D01*
X037658Y017471D01*
X037734Y017178D01*
X037803Y016883D01*
X037864Y016587D01*
X037919Y016290D01*
X037966Y015991D01*
X038007Y015691D01*
X038039Y015390D01*
X038065Y015089D01*
X038083Y014787D01*
X038094Y014485D01*
X038098Y014182D01*
X038094Y013879D01*
X038083Y013577D01*
X038065Y013275D01*
X038039Y012974D01*
X038007Y012673D01*
X037966Y012373D01*
X037919Y012074D01*
X037864Y011777D01*
X037803Y011481D01*
X037734Y011186D01*
X037658Y010893D01*
X037574Y010602D01*
X037484Y010314D01*
X037387Y010027D01*
X037283Y009743D01*
X037172Y009461D01*
X037055Y009183D01*
X036930Y008907D01*
X036799Y008634D01*
X036662Y008365D01*
X036518Y008099D01*
X036367Y007836D01*
X036211Y007578D01*
X036048Y007323D01*
X035879Y007072D01*
X035704Y006825D01*
X035523Y006583D01*
X035336Y006345D01*
X035143Y006111D01*
X027842Y008412D02*
X027696Y008145D01*
X027544Y007882D01*
X027385Y007623D01*
X027220Y007368D01*
X027049Y007116D01*
X026871Y006869D01*
X026688Y006627D01*
X026499Y006389D01*
X026305Y006155D01*
X026104Y005927D01*
X025898Y005703D01*
X025687Y005485D01*
X025471Y005271D01*
X025249Y005063D01*
X025022Y004861D01*
X024791Y004664D01*
X024555Y004472D01*
X024314Y004287D01*
X024069Y004107D01*
X023819Y003934D01*
X023566Y003766D01*
X023308Y003605D01*
X023047Y003450D01*
X022781Y003301D01*
X022513Y003159D01*
X022241Y003024D01*
X021965Y002895D01*
X021687Y002773D01*
X021406Y002657D01*
X021122Y002549D01*
X020835Y002448D01*
X020546Y002353D01*
X020255Y002266D01*
X019962Y002185D01*
X019667Y002112D01*
X019370Y002046D01*
X019072Y001987D01*
X018773Y001936D01*
X018472Y001892D01*
X018170Y001855D01*
X017868Y001825D01*
X017564Y001803D01*
X017261Y001788D01*
X016957Y001781D01*
X016653Y001781D01*
X016349Y001788D01*
X016046Y001803D01*
X015742Y001825D01*
X015440Y001855D01*
X015138Y001892D01*
X014837Y001936D01*
X014538Y001987D01*
X014240Y002046D01*
X013943Y002112D01*
X013648Y002185D01*
X013355Y002266D01*
X013064Y002353D01*
X012775Y002448D01*
X012488Y002549D01*
X012204Y002657D01*
X011923Y002773D01*
X011645Y002895D01*
X011369Y003024D01*
X011097Y003159D01*
X010829Y003301D01*
X010563Y003450D01*
X010302Y003605D01*
X010044Y003766D01*
X009791Y003934D01*
X009541Y004107D01*
X009296Y004287D01*
X009055Y004472D01*
X008819Y004664D01*
X008588Y004861D01*
X008361Y005063D01*
X008139Y005271D01*
X007923Y005485D01*
X007712Y005703D01*
X007506Y005927D01*
X007305Y006155D01*
X007111Y006389D01*
X006922Y006627D01*
X006739Y006869D01*
X006561Y007116D01*
X006390Y007368D01*
X006225Y007623D01*
X006066Y007882D01*
X005914Y008145D01*
X005768Y008412D01*
D11*
X011350Y012365D03*
X011940Y012365D03*
X011798Y015067D03*
X012388Y015067D03*
X012248Y016149D03*
X012838Y016149D03*
X012838Y016899D03*
X012248Y016899D03*
X012248Y017649D03*
X012838Y017649D03*
X012838Y018399D03*
X012248Y018399D03*
X012248Y019168D03*
X012838Y019168D03*
X009188Y017749D03*
X008598Y017749D03*
X008598Y016999D03*
X009188Y016999D03*
X009188Y016249D03*
X008598Y016249D03*
X014159Y023455D03*
X014750Y023455D03*
X017309Y023530D03*
X017900Y023530D03*
X018709Y023530D03*
X019300Y023530D03*
X019659Y025305D03*
X020250Y025305D03*
X020375Y021255D03*
X019784Y021255D03*
X013850Y025605D03*
X013259Y025605D03*
X022409Y013430D03*
X023000Y013430D03*
X022600Y012630D03*
X022009Y012630D03*
X022009Y011930D03*
X022600Y011930D03*
X022575Y011230D03*
X021984Y011230D03*
X022004Y010436D03*
X022695Y010442D03*
X023286Y010442D03*
X023311Y009693D03*
X022720Y009693D03*
X022004Y009687D03*
X021414Y009687D03*
X021414Y010436D03*
X021284Y008830D03*
X021875Y008830D03*
X024009Y009230D03*
X024600Y009230D03*
X025011Y011393D03*
X025602Y011393D03*
X020350Y005580D03*
X019759Y005580D03*
X019200Y005580D03*
X018609Y005580D03*
X017800Y005030D03*
X017209Y005030D03*
X016400Y005030D03*
X015809Y005030D03*
X015450Y003280D03*
X014859Y003280D03*
X012351Y007232D03*
X011760Y007232D03*
X015659Y007880D03*
X016250Y007880D03*
X033609Y010130D03*
X034200Y010130D03*
X036009Y013080D03*
X036600Y013080D03*
X035050Y015430D03*
X034459Y015430D03*
X036009Y018030D03*
X036600Y018030D03*
X034800Y018480D03*
X034209Y018480D03*
D12*
G36*
X007710Y007452D02*
X008044Y007786D01*
X008322Y007508D01*
X007988Y007174D01*
X007710Y007452D01*
G37*
G36*
X007292Y007870D02*
X007626Y008204D01*
X007904Y007926D01*
X007570Y007592D01*
X007292Y007870D01*
G37*
G36*
X007454Y009389D02*
X007788Y009055D01*
X007510Y008777D01*
X007176Y009111D01*
X007454Y009389D01*
G37*
G36*
X007871Y009807D02*
X008205Y009473D01*
X007927Y009195D01*
X007593Y009529D01*
X007871Y009807D01*
G37*
X007805Y010785D03*
X007805Y011375D03*
X009069Y013233D03*
X009069Y013824D03*
X009050Y014666D03*
X009050Y015256D03*
X010566Y015246D03*
X010566Y014655D03*
X012810Y013155D03*
X012810Y012564D03*
X012810Y011930D03*
X012810Y011339D03*
G36*
X009838Y008495D02*
X009504Y008161D01*
X009226Y008439D01*
X009560Y008773D01*
X009838Y008495D01*
G37*
G36*
X010255Y008077D02*
X009921Y007743D01*
X009643Y008021D01*
X009977Y008355D01*
X010255Y008077D01*
G37*
G36*
X010226Y007413D02*
X010560Y007747D01*
X010838Y007469D01*
X010504Y007135D01*
X010226Y007413D01*
G37*
G36*
X010643Y006995D02*
X010977Y007329D01*
X011255Y007051D01*
X010921Y006717D01*
X010643Y006995D01*
G37*
X012805Y005700D03*
X012805Y005110D03*
X013805Y006560D03*
X013805Y007150D03*
X015293Y006217D03*
X015293Y005627D03*
X019980Y003750D03*
X019980Y003160D03*
G36*
X023252Y004782D02*
X022918Y005116D01*
X023196Y005394D01*
X023530Y005060D01*
X023252Y004782D01*
G37*
G36*
X023670Y005200D02*
X023336Y005534D01*
X023614Y005812D01*
X023948Y005478D01*
X023670Y005200D01*
G37*
G36*
X022624Y007326D02*
X022958Y006992D01*
X022680Y006714D01*
X022346Y007048D01*
X022624Y007326D01*
G37*
G36*
X023041Y007744D02*
X023375Y007410D01*
X023097Y007132D01*
X022763Y007466D01*
X023041Y007744D01*
G37*
G36*
X023684Y007701D02*
X023350Y008035D01*
X023628Y008313D01*
X023962Y007979D01*
X023684Y007701D01*
G37*
G36*
X024101Y008118D02*
X023767Y008452D01*
X024045Y008730D01*
X024379Y008396D01*
X024101Y008118D01*
G37*
G36*
X021949Y006546D02*
X021615Y006880D01*
X021893Y007158D01*
X022227Y006824D01*
X021949Y006546D01*
G37*
G36*
X021531Y006128D02*
X021197Y006462D01*
X021475Y006740D01*
X021809Y006406D01*
X021531Y006128D01*
G37*
X026297Y012323D03*
X026297Y012913D03*
X024543Y013260D03*
X024543Y013850D03*
X024550Y014649D03*
X024550Y015240D03*
X024780Y017335D03*
X024780Y017925D03*
G36*
X025820Y018878D02*
X025486Y019212D01*
X025764Y019490D01*
X026098Y019156D01*
X025820Y018878D01*
G37*
G36*
X026237Y019296D02*
X025903Y019630D01*
X026181Y019908D01*
X026515Y019574D01*
X026237Y019296D01*
G37*
G36*
X026334Y020710D02*
X026000Y020376D01*
X025722Y020654D01*
X026056Y020988D01*
X026334Y020710D01*
G37*
G36*
X025916Y021128D02*
X025582Y020794D01*
X025304Y021072D01*
X025638Y021406D01*
X025916Y021128D01*
G37*
G36*
X023786Y020114D02*
X024120Y020448D01*
X024398Y020170D01*
X024064Y019836D01*
X023786Y020114D01*
G37*
G36*
X023369Y020531D02*
X023703Y020865D01*
X023981Y020587D01*
X023647Y020253D01*
X023369Y020531D01*
G37*
G36*
X023408Y021160D02*
X023074Y020826D01*
X022796Y021104D01*
X023130Y021438D01*
X023408Y021160D01*
G37*
G36*
X022991Y021577D02*
X022657Y021243D01*
X022379Y021521D01*
X022713Y021855D01*
X022991Y021577D01*
G37*
X021191Y023999D03*
X021191Y024590D03*
X016405Y023925D03*
X016405Y023335D03*
X012880Y023060D03*
X012880Y023650D03*
G36*
X012206Y023201D02*
X011872Y022867D01*
X011594Y023145D01*
X011928Y023479D01*
X012206Y023201D01*
G37*
G36*
X011789Y023618D02*
X011455Y023284D01*
X011177Y023562D01*
X011511Y023896D01*
X011789Y023618D01*
G37*
G36*
X010409Y023773D02*
X010743Y023439D01*
X010465Y023161D01*
X010131Y023495D01*
X010409Y023773D01*
G37*
G36*
X009991Y023355D02*
X010325Y023021D01*
X010047Y022743D01*
X009713Y023077D01*
X009991Y023355D01*
G37*
G36*
X010983Y021214D02*
X010649Y021548D01*
X010927Y021826D01*
X011261Y021492D01*
X010983Y021214D01*
G37*
G36*
X010565Y020796D02*
X010231Y021130D01*
X010509Y021408D01*
X010843Y021074D01*
X010565Y020796D01*
G37*
G36*
X009954Y020862D02*
X010288Y020528D01*
X010010Y020250D01*
X009676Y020584D01*
X009954Y020862D01*
G37*
G36*
X009537Y020444D02*
X009871Y020110D01*
X009593Y019832D01*
X009259Y020166D01*
X009537Y020444D01*
G37*
X009793Y018044D03*
X009793Y017453D03*
X011643Y017303D03*
X011643Y017894D03*
X016024Y017988D03*
X016024Y017398D03*
X018542Y016015D03*
X018542Y015424D03*
X019299Y015414D03*
X019299Y016005D03*
X029255Y017385D03*
X029255Y017975D03*
X033655Y015875D03*
X033655Y015285D03*
X034255Y012025D03*
X034255Y011435D03*
X006550Y015635D03*
X006550Y016225D03*
D13*
X008352Y013770D03*
X009801Y014740D03*
X008755Y010180D03*
X016305Y005780D03*
X017305Y004280D03*
X023792Y013776D03*
X025241Y014747D03*
X018805Y022780D03*
X017805Y024280D03*
X015805Y022780D03*
X014805Y024280D03*
D14*
X015805Y024280D03*
X014805Y022780D03*
X017805Y022780D03*
X018805Y024280D03*
X022512Y020662D03*
X024237Y020987D03*
X026805Y018030D03*
X026805Y017030D03*
X026805Y016030D03*
X025241Y013747D03*
X023792Y014776D03*
X023190Y008594D03*
X021373Y008011D03*
X020586Y008011D03*
X017605Y007030D03*
X016605Y007030D03*
X015605Y007030D03*
X017305Y005780D03*
X016305Y004280D03*
X012805Y004405D03*
X012805Y006405D03*
X011115Y007919D03*
X009404Y007581D03*
X009755Y010180D03*
X009755Y011180D03*
X008755Y011180D03*
X008755Y012180D03*
X009755Y012180D03*
X009801Y013740D03*
X008352Y014770D03*
X006805Y012530D03*
X006805Y011530D03*
X006805Y010530D03*
X010435Y019938D03*
X010086Y021710D03*
X023551Y006834D03*
D15*
X019840Y008392D03*
X020765Y012248D03*
X019730Y020588D03*
X019730Y021925D03*
D16*
G36*
X023219Y020403D02*
X023667Y019955D01*
X023219Y019507D01*
X022771Y019955D01*
X023219Y020403D01*
G37*
G36*
X023530Y021246D02*
X023082Y021694D01*
X023530Y022142D01*
X023978Y021694D01*
X023530Y021246D01*
G37*
G36*
X010694Y020645D02*
X011142Y021093D01*
X011590Y020645D01*
X011142Y020197D01*
X010694Y020645D01*
G37*
G36*
X009827Y021003D02*
X009379Y020555D01*
X008931Y021003D01*
X009379Y021451D01*
X009827Y021003D01*
G37*
G36*
X010408Y008178D02*
X009960Y008626D01*
X010408Y009074D01*
X010856Y008626D01*
X010408Y008178D01*
G37*
G36*
X010112Y007322D02*
X010560Y006874D01*
X010112Y006426D01*
X009664Y006874D01*
X010112Y007322D01*
G37*
G36*
X022931Y007887D02*
X022483Y007439D01*
X022035Y007887D01*
X022483Y008335D01*
X022931Y007887D01*
G37*
G36*
X023810Y007541D02*
X024258Y007989D01*
X024706Y007541D01*
X024258Y007093D01*
X023810Y007541D01*
G37*
D17*
X020123Y004680D03*
X019336Y004680D03*
X012023Y011505D03*
X011236Y011505D03*
D18*
X018717Y006655D03*
X020292Y006655D03*
D19*
X021305Y020680D03*
X021305Y021780D03*
X018221Y021780D03*
X018221Y020680D03*
X015388Y020680D03*
X015388Y021780D03*
X012305Y021780D03*
X012305Y020680D03*
D20*
X006805Y017530D03*
X026805Y011030D03*
X034620Y007784D03*
X034620Y020776D03*
D21*
X025554Y010430D03*
X024806Y010430D03*
X025180Y009580D03*
X020505Y014780D03*
X020879Y015630D03*
X020131Y015630D03*
X019955Y023855D03*
X020329Y024705D03*
X019581Y024705D03*
X013954Y024905D03*
X013206Y024905D03*
X013580Y024055D03*
X015155Y004705D03*
X015529Y003855D03*
X014781Y003855D03*
D22*
X014280Y005106D03*
X014280Y005854D03*
X013430Y005480D03*
X012080Y005656D03*
X012080Y006404D03*
X011230Y006030D03*
G36*
X008227Y007790D02*
X008530Y008093D01*
X008753Y007870D01*
X008450Y007567D01*
X008227Y007790D01*
G37*
G36*
X007698Y008319D02*
X008001Y008622D01*
X008224Y008399D01*
X007921Y008096D01*
X007698Y008319D01*
G37*
G36*
X008563Y008655D02*
X008866Y008958D01*
X009089Y008735D01*
X008786Y008432D01*
X008563Y008655D01*
G37*
X007159Y015550D03*
X008009Y015924D03*
X007159Y016298D03*
G36*
X011202Y022491D02*
X011505Y022188D01*
X011282Y021965D01*
X010979Y022268D01*
X011202Y022491D01*
G37*
G36*
X010865Y023356D02*
X011168Y023053D01*
X010945Y022830D01*
X010642Y023133D01*
X010865Y023356D01*
G37*
G36*
X010336Y022827D02*
X010639Y022524D01*
X010416Y022301D01*
X010113Y022604D01*
X010336Y022827D01*
G37*
G36*
X025059Y019916D02*
X024756Y019613D01*
X024533Y019836D01*
X024836Y020139D01*
X025059Y019916D01*
G37*
G36*
X025925Y020253D02*
X025622Y019950D01*
X025399Y020173D01*
X025702Y020476D01*
X025925Y020253D01*
G37*
G36*
X025396Y020781D02*
X025093Y020478D01*
X024870Y020701D01*
X025173Y021004D01*
X025396Y020781D01*
G37*
X033630Y014604D03*
X033630Y013856D03*
X034480Y014230D03*
X025674Y012993D03*
X024824Y012619D03*
X025674Y012245D03*
G36*
X022455Y006045D02*
X022152Y006348D01*
X022375Y006571D01*
X022678Y006268D01*
X022455Y006045D01*
G37*
G36*
X022792Y005179D02*
X022489Y005482D01*
X022712Y005705D01*
X023015Y005402D01*
X022792Y005179D01*
G37*
G36*
X023321Y005708D02*
X023018Y006011D01*
X023241Y006234D01*
X023544Y005931D01*
X023321Y005708D01*
G37*
X019330Y003804D03*
X019330Y003056D03*
X018480Y003430D03*
D23*
X011509Y016105D03*
X011509Y016302D03*
X011509Y016499D03*
X011509Y016695D03*
X011509Y016892D03*
X009777Y016892D03*
X009777Y016695D03*
X009777Y016499D03*
X009777Y016302D03*
X009777Y016105D03*
D24*
X010487Y017538D03*
X010743Y017538D03*
X010999Y017538D03*
X010999Y018259D03*
X010743Y018259D03*
X010487Y018259D03*
D25*
X010546Y017899D03*
X010940Y017899D03*
D26*
X021150Y017889D03*
X021150Y018145D03*
X021150Y018401D03*
X021150Y018657D03*
X021150Y018912D03*
X021150Y017633D03*
X021150Y017377D03*
X021150Y017121D03*
X021150Y016865D03*
X021150Y016609D03*
X021150Y016353D03*
X021150Y016098D03*
X023810Y016098D03*
X023810Y016353D03*
X023810Y016609D03*
X023810Y016865D03*
X023810Y017121D03*
X023810Y017377D03*
X023810Y017633D03*
X023810Y017889D03*
X023810Y018145D03*
X023810Y018401D03*
X023810Y018657D03*
X023810Y018912D03*
D27*
X024020Y012571D03*
X023390Y012571D03*
X023390Y011389D03*
X024020Y011389D03*
D28*
X019956Y011258D03*
X019956Y011573D03*
X019956Y011887D03*
X019956Y012202D03*
X019956Y012517D03*
X019956Y012832D03*
X019956Y013147D03*
X019956Y013462D03*
X019956Y013777D03*
X019956Y014092D03*
X019956Y010943D03*
X019956Y010628D03*
X019956Y010313D03*
X019956Y009998D03*
X019956Y009683D03*
X019956Y009368D03*
X013853Y009368D03*
X013853Y009683D03*
X013853Y009998D03*
X013853Y010313D03*
X013853Y010628D03*
X013853Y010943D03*
X013853Y011258D03*
X013853Y011573D03*
X013853Y011887D03*
X013853Y012202D03*
X013853Y012517D03*
X013853Y012832D03*
X013853Y013147D03*
X013853Y013462D03*
X013853Y013777D03*
X013853Y014092D03*
D29*
X014542Y014781D03*
X014857Y014781D03*
X015172Y014781D03*
X015487Y014781D03*
X015802Y014781D03*
X016117Y014781D03*
X016432Y014781D03*
X016747Y014781D03*
X017062Y014781D03*
X017377Y014781D03*
X017692Y014781D03*
X018007Y014781D03*
X018322Y014781D03*
X018637Y014781D03*
X018952Y014781D03*
X019267Y014781D03*
X019267Y008679D03*
X018952Y008679D03*
X018637Y008679D03*
X018322Y008679D03*
X018007Y008679D03*
X017692Y008679D03*
X017377Y008679D03*
X017062Y008679D03*
X016747Y008679D03*
X016432Y008679D03*
X016117Y008679D03*
X015802Y008679D03*
X015487Y008679D03*
X015172Y008679D03*
X014857Y008679D03*
X014542Y008679D03*
D30*
X030102Y016783D03*
X030889Y016783D03*
X031676Y016783D03*
X032464Y016783D03*
X032464Y018673D03*
X031676Y018673D03*
X030889Y018673D03*
X030102Y018673D03*
D31*
X035017Y017134D03*
X035017Y016426D03*
X036592Y016426D03*
X036592Y017134D03*
X036592Y012134D03*
X036592Y011426D03*
X035017Y011426D03*
X035017Y012134D03*
D32*
X011945Y013095D03*
X011197Y013095D03*
X011197Y014197D03*
X011571Y014197D03*
X011945Y014197D03*
D33*
X025630Y017236D03*
X025630Y018024D03*
D34*
X034205Y019280D02*
X034760Y019280D01*
X035405Y014280D02*
X035960Y014280D01*
X034760Y009280D02*
X034205Y009280D01*
D35*
X036205Y009280D03*
X037405Y014280D03*
X036205Y019280D03*
D36*
X014806Y018855D03*
X014806Y017871D03*
X013703Y017871D03*
X013703Y018855D03*
X013703Y019839D03*
X014806Y019839D03*
M02*
