G75*
%MOIN*%
%OFA0B0*%
%FSLAX24Y24*%
%IPPOS*%
%LPD*%
%AMOC8*
5,1,8,0,0,1.08239X$1,22.5*
%
%ADD10C,0.0080*%
D10*
X005768Y008412D02*
X005768Y020148D01*
X005914Y020415D01*
X006066Y020678D01*
X006225Y020937D01*
X006390Y021192D01*
X006561Y021444D01*
X006739Y021691D01*
X006922Y021933D01*
X007111Y022171D01*
X007305Y022405D01*
X007506Y022633D01*
X007712Y022857D01*
X007923Y023075D01*
X008139Y023289D01*
X008361Y023497D01*
X008588Y023699D01*
X008819Y023896D01*
X009055Y024088D01*
X009296Y024273D01*
X009541Y024453D01*
X009791Y024626D01*
X010044Y024794D01*
X010302Y024955D01*
X010563Y025110D01*
X010829Y025259D01*
X011097Y025401D01*
X011369Y025536D01*
X011645Y025665D01*
X011923Y025787D01*
X012204Y025903D01*
X012488Y026011D01*
X012775Y026112D01*
X013064Y026207D01*
X013355Y026294D01*
X013648Y026375D01*
X013943Y026448D01*
X014240Y026514D01*
X014538Y026573D01*
X014837Y026624D01*
X015138Y026668D01*
X015440Y026705D01*
X015742Y026735D01*
X016046Y026757D01*
X016349Y026772D01*
X016653Y026779D01*
X016957Y026779D01*
X017261Y026772D01*
X017564Y026757D01*
X017868Y026735D01*
X018170Y026705D01*
X018472Y026668D01*
X018773Y026624D01*
X019072Y026573D01*
X019370Y026514D01*
X019667Y026448D01*
X019962Y026375D01*
X020255Y026294D01*
X020546Y026207D01*
X020835Y026112D01*
X021122Y026011D01*
X021406Y025903D01*
X021687Y025787D01*
X021965Y025665D01*
X022241Y025536D01*
X022513Y025401D01*
X022781Y025259D01*
X023047Y025110D01*
X023308Y024955D01*
X023566Y024794D01*
X023819Y024626D01*
X024069Y024453D01*
X024314Y024273D01*
X024555Y024088D01*
X024791Y023896D01*
X025022Y023699D01*
X025249Y023497D01*
X025471Y023289D01*
X025687Y023075D01*
X025898Y022857D01*
X026104Y022633D01*
X026305Y022405D01*
X026499Y022171D01*
X026688Y021933D01*
X026871Y021691D01*
X027049Y021444D01*
X027220Y021192D01*
X027385Y020937D01*
X027544Y020678D01*
X027696Y020415D01*
X027842Y020148D01*
X027841Y020148D02*
X027841Y019497D01*
X033635Y019497D01*
X033635Y022252D01*
X035144Y022252D01*
X032651Y015953D02*
X027841Y015953D01*
X027841Y008412D01*
X032651Y008867D02*
X033635Y008867D01*
X033635Y006111D01*
X035144Y006111D01*
X032651Y008867D02*
X032651Y015953D01*
X035143Y022253D02*
X035336Y022019D01*
X035523Y021781D01*
X035704Y021539D01*
X035879Y021292D01*
X036048Y021041D01*
X036211Y020786D01*
X036367Y020528D01*
X036518Y020265D01*
X036662Y019999D01*
X036799Y019730D01*
X036930Y019457D01*
X037055Y019181D01*
X037172Y018903D01*
X037283Y018621D01*
X037387Y018337D01*
X037484Y018050D01*
X037574Y017762D01*
X037658Y017471D01*
X037734Y017178D01*
X037803Y016883D01*
X037864Y016587D01*
X037919Y016290D01*
X037966Y015991D01*
X038007Y015691D01*
X038039Y015390D01*
X038065Y015089D01*
X038083Y014787D01*
X038094Y014485D01*
X038098Y014182D01*
X038094Y013879D01*
X038083Y013577D01*
X038065Y013275D01*
X038039Y012974D01*
X038007Y012673D01*
X037966Y012373D01*
X037919Y012074D01*
X037864Y011777D01*
X037803Y011481D01*
X037734Y011186D01*
X037658Y010893D01*
X037574Y010602D01*
X037484Y010314D01*
X037387Y010027D01*
X037283Y009743D01*
X037172Y009461D01*
X037055Y009183D01*
X036930Y008907D01*
X036799Y008634D01*
X036662Y008365D01*
X036518Y008099D01*
X036367Y007836D01*
X036211Y007578D01*
X036048Y007323D01*
X035879Y007072D01*
X035704Y006825D01*
X035523Y006583D01*
X035336Y006345D01*
X035143Y006111D01*
X027842Y008412D02*
X027696Y008145D01*
X027544Y007882D01*
X027385Y007623D01*
X027220Y007368D01*
X027049Y007116D01*
X026871Y006869D01*
X026688Y006627D01*
X026499Y006389D01*
X026305Y006155D01*
X026104Y005927D01*
X025898Y005703D01*
X025687Y005485D01*
X025471Y005271D01*
X025249Y005063D01*
X025022Y004861D01*
X024791Y004664D01*
X024555Y004472D01*
X024314Y004287D01*
X024069Y004107D01*
X023819Y003934D01*
X023566Y003766D01*
X023308Y003605D01*
X023047Y003450D01*
X022781Y003301D01*
X022513Y003159D01*
X022241Y003024D01*
X021965Y002895D01*
X021687Y002773D01*
X021406Y002657D01*
X021122Y002549D01*
X020835Y002448D01*
X020546Y002353D01*
X020255Y002266D01*
X019962Y002185D01*
X019667Y002112D01*
X019370Y002046D01*
X019072Y001987D01*
X018773Y001936D01*
X018472Y001892D01*
X018170Y001855D01*
X017868Y001825D01*
X017564Y001803D01*
X017261Y001788D01*
X016957Y001781D01*
X016653Y001781D01*
X016349Y001788D01*
X016046Y001803D01*
X015742Y001825D01*
X015440Y001855D01*
X015138Y001892D01*
X014837Y001936D01*
X014538Y001987D01*
X014240Y002046D01*
X013943Y002112D01*
X013648Y002185D01*
X013355Y002266D01*
X013064Y002353D01*
X012775Y002448D01*
X012488Y002549D01*
X012204Y002657D01*
X011923Y002773D01*
X011645Y002895D01*
X011369Y003024D01*
X011097Y003159D01*
X010829Y003301D01*
X010563Y003450D01*
X010302Y003605D01*
X010044Y003766D01*
X009791Y003934D01*
X009541Y004107D01*
X009296Y004287D01*
X009055Y004472D01*
X008819Y004664D01*
X008588Y004861D01*
X008361Y005063D01*
X008139Y005271D01*
X007923Y005485D01*
X007712Y005703D01*
X007506Y005927D01*
X007305Y006155D01*
X007111Y006389D01*
X006922Y006627D01*
X006739Y006869D01*
X006561Y007116D01*
X006390Y007368D01*
X006225Y007623D01*
X006066Y007882D01*
X005914Y008145D01*
X005768Y008412D01*
M02*
