G75*
%MOIN*%
%OFA0B0*%
%FSLAX24Y24*%
%IPPOS*%
%LPD*%
%AMOC8*
5,1,8,0,0,1.08239X$1,22.5*
%
%ADD10C,0.0080*%
%ADD11R,0.0315X0.0394*%
%ADD12R,0.0394X0.0315*%
%ADD13R,0.0555X0.0555*%
%ADD14C,0.0555*%
%ADD15C,0.0440*%
%ADD16R,0.0555X0.0555*%
%ADD17R,0.0453X0.0591*%
%ADD18R,0.0787X0.0945*%
%ADD19C,0.0712*%
%ADD20C,0.1200*%
%ADD21R,0.0236X0.0350*%
%ADD22R,0.0350X0.0236*%
%ADD23R,0.0551X0.0110*%
%ADD24R,0.0165X0.0165*%
%ADD25R,0.0307X0.0394*%
%ADD26R,0.0866X0.0157*%
%ADD27R,0.0433X0.0551*%
%ADD28R,0.0591X0.0160*%
%ADD29R,0.0160X0.0591*%
%ADD30R,0.0394X0.0866*%
%ADD31C,0.0476*%
%ADD32R,0.0236X0.0433*%
%ADD33R,0.0591X0.0453*%
%ADD34C,0.0555*%
%ADD35R,0.1000X0.0500*%
%ADD36R,0.0630X0.0472*%
%ADD37C,0.0160*%
%ADD38C,0.0100*%
%ADD39C,0.0400*%
%ADD40C,0.0240*%
%ADD41C,0.0436*%
D10*
X005768Y008412D02*
X005768Y020148D01*
X009755Y012180D02*
X009255Y011680D01*
X008109Y011680D01*
X007805Y011375D01*
X007805Y010785D02*
X008150Y010785D01*
X008755Y010180D01*
X005768Y008412D02*
X005914Y008145D01*
X006066Y007882D01*
X006225Y007623D01*
X006390Y007368D01*
X006561Y007116D01*
X006739Y006869D01*
X006922Y006627D01*
X007111Y006389D01*
X007305Y006155D01*
X007506Y005927D01*
X007712Y005703D01*
X007923Y005485D01*
X008139Y005271D01*
X008361Y005063D01*
X008588Y004861D01*
X008819Y004664D01*
X009055Y004472D01*
X009296Y004287D01*
X009541Y004107D01*
X009791Y003934D01*
X010044Y003766D01*
X010302Y003605D01*
X010563Y003450D01*
X010829Y003301D01*
X011097Y003159D01*
X011369Y003024D01*
X011645Y002895D01*
X011923Y002773D01*
X012204Y002657D01*
X012488Y002549D01*
X012775Y002448D01*
X013064Y002353D01*
X013355Y002266D01*
X013648Y002185D01*
X013943Y002112D01*
X014240Y002046D01*
X014538Y001987D01*
X014837Y001936D01*
X015138Y001892D01*
X015440Y001855D01*
X015742Y001825D01*
X016046Y001803D01*
X016349Y001788D01*
X016653Y001781D01*
X016957Y001781D01*
X017261Y001788D01*
X017564Y001803D01*
X017868Y001825D01*
X018170Y001855D01*
X018472Y001892D01*
X018773Y001936D01*
X019072Y001987D01*
X019370Y002046D01*
X019667Y002112D01*
X019962Y002185D01*
X020255Y002266D01*
X020546Y002353D01*
X020835Y002448D01*
X021122Y002549D01*
X021406Y002657D01*
X021687Y002773D01*
X021965Y002895D01*
X022241Y003024D01*
X022513Y003159D01*
X022781Y003301D01*
X023047Y003450D01*
X023308Y003605D01*
X023566Y003766D01*
X023819Y003934D01*
X024069Y004107D01*
X024314Y004287D01*
X024555Y004472D01*
X024791Y004664D01*
X025022Y004861D01*
X025249Y005063D01*
X025471Y005271D01*
X025687Y005485D01*
X025898Y005703D01*
X026104Y005927D01*
X026305Y006155D01*
X026499Y006389D01*
X026688Y006627D01*
X026871Y006869D01*
X027049Y007116D01*
X027220Y007368D01*
X027385Y007623D01*
X027544Y007882D01*
X027696Y008145D01*
X027842Y008412D01*
X027841Y008412D02*
X027841Y015953D01*
X032651Y015953D01*
X032651Y008867D01*
X033635Y008867D01*
X033635Y006111D01*
X035144Y006111D01*
X035143Y006111D02*
X035336Y006345D01*
X035523Y006583D01*
X035704Y006825D01*
X035879Y007072D01*
X036048Y007323D01*
X036211Y007578D01*
X036367Y007836D01*
X036518Y008099D01*
X036662Y008365D01*
X036799Y008634D01*
X036930Y008907D01*
X037055Y009183D01*
X037172Y009461D01*
X037283Y009743D01*
X037387Y010027D01*
X037484Y010314D01*
X037574Y010602D01*
X037658Y010893D01*
X037734Y011186D01*
X037803Y011481D01*
X037864Y011777D01*
X037919Y012074D01*
X037966Y012373D01*
X038007Y012673D01*
X038039Y012974D01*
X038065Y013275D01*
X038083Y013577D01*
X038094Y013879D01*
X038098Y014182D01*
X038094Y014485D01*
X038083Y014787D01*
X038065Y015089D01*
X038039Y015390D01*
X038007Y015691D01*
X037966Y015991D01*
X037919Y016290D01*
X037864Y016587D01*
X037803Y016883D01*
X037734Y017178D01*
X037658Y017471D01*
X037574Y017762D01*
X037484Y018050D01*
X037387Y018337D01*
X037283Y018621D01*
X037172Y018903D01*
X037055Y019181D01*
X036930Y019457D01*
X036799Y019730D01*
X036662Y019999D01*
X036518Y020265D01*
X036367Y020528D01*
X036211Y020786D01*
X036048Y021041D01*
X035879Y021292D01*
X035704Y021539D01*
X035523Y021781D01*
X035336Y022019D01*
X035143Y022253D01*
X035144Y022252D02*
X033635Y022252D01*
X033635Y019497D01*
X027841Y019497D01*
X027841Y020148D01*
X027842Y020148D02*
X027696Y020415D01*
X027544Y020678D01*
X027385Y020937D01*
X027220Y021192D01*
X027049Y021444D01*
X026871Y021691D01*
X026688Y021933D01*
X026499Y022171D01*
X026305Y022405D01*
X026104Y022633D01*
X025898Y022857D01*
X025687Y023075D01*
X025471Y023289D01*
X025249Y023497D01*
X025022Y023699D01*
X024791Y023896D01*
X024555Y024088D01*
X024314Y024273D01*
X024069Y024453D01*
X023819Y024626D01*
X023566Y024794D01*
X023308Y024955D01*
X023047Y025110D01*
X022781Y025259D01*
X022513Y025401D01*
X022241Y025536D01*
X021965Y025665D01*
X021687Y025787D01*
X021406Y025903D01*
X021122Y026011D01*
X020835Y026112D01*
X020546Y026207D01*
X020255Y026294D01*
X019962Y026375D01*
X019667Y026448D01*
X019370Y026514D01*
X019072Y026573D01*
X018773Y026624D01*
X018472Y026668D01*
X018170Y026705D01*
X017868Y026735D01*
X017564Y026757D01*
X017261Y026772D01*
X016957Y026779D01*
X016653Y026779D01*
X016349Y026772D01*
X016046Y026757D01*
X015742Y026735D01*
X015440Y026705D01*
X015138Y026668D01*
X014837Y026624D01*
X014538Y026573D01*
X014240Y026514D01*
X013943Y026448D01*
X013648Y026375D01*
X013355Y026294D01*
X013064Y026207D01*
X012775Y026112D01*
X012488Y026011D01*
X012204Y025903D01*
X011923Y025787D01*
X011645Y025665D01*
X011369Y025536D01*
X011097Y025401D01*
X010829Y025259D01*
X010563Y025110D01*
X010302Y024955D01*
X010044Y024794D01*
X009791Y024626D01*
X009541Y024453D01*
X009296Y024273D01*
X009055Y024088D01*
X008819Y023896D01*
X008588Y023699D01*
X008361Y023497D01*
X008139Y023289D01*
X007923Y023075D01*
X007712Y022857D01*
X007506Y022633D01*
X007305Y022405D01*
X007111Y022171D01*
X006922Y021933D01*
X006739Y021691D01*
X006561Y021444D01*
X006390Y021192D01*
X006225Y020937D01*
X006066Y020678D01*
X005914Y020415D01*
X005768Y020148D01*
D11*
X008598Y017749D03*
X009188Y017749D03*
X009188Y016999D03*
X008598Y016999D03*
X008598Y016249D03*
X009188Y016249D03*
X011798Y015067D03*
X012388Y015067D03*
X012248Y016149D03*
X012838Y016149D03*
X012838Y016899D03*
X012248Y016899D03*
X012248Y017649D03*
X012838Y017649D03*
X012838Y018399D03*
X012248Y018399D03*
X012248Y019168D03*
X012838Y019168D03*
X014159Y023455D03*
X014750Y023455D03*
X017309Y023530D03*
X017900Y023530D03*
X018709Y023530D03*
X019300Y023530D03*
X019659Y025305D03*
X020250Y025305D03*
X020375Y021255D03*
X019784Y021255D03*
X013850Y025605D03*
X013259Y025605D03*
X022409Y013430D03*
X023000Y013430D03*
X022600Y012630D03*
X022009Y012630D03*
X022009Y011930D03*
X022600Y011930D03*
X022575Y011230D03*
X021984Y011230D03*
X022004Y010436D03*
X022695Y010442D03*
X023286Y010442D03*
X023311Y009693D03*
X022720Y009693D03*
X022004Y009687D03*
X021414Y009687D03*
X021414Y010436D03*
X021284Y008830D03*
X021875Y008830D03*
X024009Y009230D03*
X024600Y009230D03*
X025011Y011393D03*
X025602Y011393D03*
X020350Y005580D03*
X019759Y005580D03*
X019200Y005580D03*
X018609Y005580D03*
X017800Y005030D03*
X017209Y005030D03*
X016400Y005030D03*
X015809Y005030D03*
X015450Y003280D03*
X014859Y003280D03*
X012351Y007232D03*
X011760Y007232D03*
X015659Y007880D03*
X016250Y007880D03*
X011940Y012365D03*
X011350Y012365D03*
X033609Y010130D03*
X034200Y010130D03*
X036009Y013080D03*
X036600Y013080D03*
X035050Y015430D03*
X034459Y015430D03*
X036009Y018030D03*
X036600Y018030D03*
X034800Y018480D03*
X034209Y018480D03*
D12*
X033655Y015875D03*
X033655Y015285D03*
X034255Y012025D03*
X034255Y011435D03*
X026297Y012323D03*
X026297Y012913D03*
X024543Y013260D03*
X024543Y013850D03*
X024550Y014649D03*
X024550Y015240D03*
X024780Y017335D03*
X024780Y017925D03*
G36*
X025820Y018934D02*
X025542Y019212D01*
X025764Y019434D01*
X026042Y019156D01*
X025820Y018934D01*
G37*
G36*
X026237Y019352D02*
X025959Y019630D01*
X026181Y019852D01*
X026459Y019574D01*
X026237Y019352D01*
G37*
G36*
X026278Y020710D02*
X026000Y020432D01*
X025778Y020654D01*
X026056Y020932D01*
X026278Y020710D01*
G37*
G36*
X025860Y021128D02*
X025582Y020850D01*
X025360Y021072D01*
X025638Y021350D01*
X025860Y021128D01*
G37*
G36*
X023842Y020114D02*
X024120Y020392D01*
X024342Y020170D01*
X024064Y019892D01*
X023842Y020114D01*
G37*
G36*
X023425Y020531D02*
X023703Y020809D01*
X023925Y020587D01*
X023647Y020309D01*
X023425Y020531D01*
G37*
G36*
X023352Y021160D02*
X023074Y020882D01*
X022852Y021104D01*
X023130Y021382D01*
X023352Y021160D01*
G37*
G36*
X022935Y021577D02*
X022657Y021299D01*
X022435Y021521D01*
X022713Y021799D01*
X022935Y021577D01*
G37*
X021191Y023999D03*
X021191Y024590D03*
X016405Y023925D03*
X016405Y023335D03*
X012880Y023060D03*
X012880Y023650D03*
G36*
X012150Y023201D02*
X011872Y022923D01*
X011650Y023145D01*
X011928Y023423D01*
X012150Y023201D01*
G37*
G36*
X011733Y023618D02*
X011455Y023340D01*
X011233Y023562D01*
X011511Y023840D01*
X011733Y023618D01*
G37*
G36*
X010409Y023717D02*
X010687Y023439D01*
X010465Y023217D01*
X010187Y023495D01*
X010409Y023717D01*
G37*
G36*
X009991Y023299D02*
X010269Y023021D01*
X010047Y022799D01*
X009769Y023077D01*
X009991Y023299D01*
G37*
G36*
X010983Y021270D02*
X010705Y021548D01*
X010927Y021770D01*
X011205Y021492D01*
X010983Y021270D01*
G37*
G36*
X010565Y020852D02*
X010287Y021130D01*
X010509Y021352D01*
X010787Y021074D01*
X010565Y020852D01*
G37*
G36*
X009954Y020806D02*
X010232Y020528D01*
X010010Y020306D01*
X009732Y020584D01*
X009954Y020806D01*
G37*
G36*
X009537Y020388D02*
X009815Y020110D01*
X009593Y019888D01*
X009315Y020166D01*
X009537Y020388D01*
G37*
X009793Y018044D03*
X009793Y017453D03*
X011643Y017303D03*
X011643Y017894D03*
X010566Y015246D03*
X010566Y014655D03*
X009050Y014666D03*
X009050Y015256D03*
X009069Y013824D03*
X009069Y013233D03*
X007805Y011375D03*
X007805Y010785D03*
G36*
X007871Y009751D02*
X008149Y009473D01*
X007927Y009251D01*
X007649Y009529D01*
X007871Y009751D01*
G37*
G36*
X007454Y009333D02*
X007732Y009055D01*
X007510Y008833D01*
X007232Y009111D01*
X007454Y009333D01*
G37*
G36*
X007348Y007870D02*
X007626Y008148D01*
X007848Y007926D01*
X007570Y007648D01*
X007348Y007870D01*
G37*
G36*
X007766Y007452D02*
X008044Y007730D01*
X008266Y007508D01*
X007988Y007230D01*
X007766Y007452D01*
G37*
G36*
X009782Y008495D02*
X009504Y008217D01*
X009282Y008439D01*
X009560Y008717D01*
X009782Y008495D01*
G37*
G36*
X010199Y008077D02*
X009921Y007799D01*
X009699Y008021D01*
X009977Y008299D01*
X010199Y008077D01*
G37*
G36*
X010282Y007413D02*
X010560Y007691D01*
X010782Y007469D01*
X010504Y007191D01*
X010282Y007413D01*
G37*
G36*
X010699Y006995D02*
X010977Y007273D01*
X011199Y007051D01*
X010921Y006773D01*
X010699Y006995D01*
G37*
X012805Y005700D03*
X012805Y005110D03*
X013805Y006560D03*
X013805Y007150D03*
X015293Y006217D03*
X015293Y005627D03*
X019980Y003750D03*
X019980Y003160D03*
G36*
X023252Y004838D02*
X022974Y005116D01*
X023196Y005338D01*
X023474Y005060D01*
X023252Y004838D01*
G37*
G36*
X023670Y005256D02*
X023392Y005534D01*
X023614Y005756D01*
X023892Y005478D01*
X023670Y005256D01*
G37*
G36*
X022624Y007270D02*
X022902Y006992D01*
X022680Y006770D01*
X022402Y007048D01*
X022624Y007270D01*
G37*
G36*
X023041Y007688D02*
X023319Y007410D01*
X023097Y007188D01*
X022819Y007466D01*
X023041Y007688D01*
G37*
G36*
X023684Y007757D02*
X023406Y008035D01*
X023628Y008257D01*
X023906Y007979D01*
X023684Y007757D01*
G37*
G36*
X024101Y008174D02*
X023823Y008452D01*
X024045Y008674D01*
X024323Y008396D01*
X024101Y008174D01*
G37*
G36*
X021949Y006602D02*
X021671Y006880D01*
X021893Y007102D01*
X022171Y006824D01*
X021949Y006602D01*
G37*
G36*
X021531Y006184D02*
X021253Y006462D01*
X021475Y006684D01*
X021753Y006406D01*
X021531Y006184D01*
G37*
X012810Y011339D03*
X012810Y011930D03*
X012810Y012564D03*
X012810Y013155D03*
X016024Y017398D03*
X016024Y017988D03*
X018542Y016015D03*
X018542Y015424D03*
X019299Y015414D03*
X019299Y016005D03*
X029255Y017385D03*
X029255Y017975D03*
X006550Y016225D03*
X006550Y015635D03*
D13*
X008352Y013770D03*
X009801Y014740D03*
X008755Y010180D03*
X016305Y005780D03*
X017305Y004280D03*
X023792Y013776D03*
X025241Y014747D03*
X018805Y022780D03*
X017805Y024280D03*
X015805Y022780D03*
X014805Y024280D03*
D14*
X015805Y024280D03*
X014805Y022780D03*
X017805Y022780D03*
X018805Y024280D03*
X022512Y020662D03*
X024237Y020987D03*
X026805Y018030D03*
X026805Y017030D03*
X026805Y016030D03*
X025241Y013747D03*
X023792Y014776D03*
X023190Y008594D03*
X021373Y008011D03*
X020586Y008011D03*
X017605Y007030D03*
X016605Y007030D03*
X015605Y007030D03*
X017305Y005780D03*
X016305Y004280D03*
X012805Y004405D03*
X012805Y006405D03*
X011115Y007919D03*
X009404Y007581D03*
X009755Y010180D03*
X009755Y011180D03*
X008755Y011180D03*
X008755Y012180D03*
X009755Y012180D03*
X009801Y013740D03*
X008352Y014770D03*
X006805Y012530D03*
X006805Y011530D03*
X006805Y010530D03*
X010435Y019938D03*
X010086Y021710D03*
X023551Y006834D03*
D15*
X019840Y008392D03*
X020765Y012248D03*
X019730Y020588D03*
X019730Y021925D03*
D16*
G36*
X023219Y020346D02*
X023610Y019955D01*
X023219Y019564D01*
X022828Y019955D01*
X023219Y020346D01*
G37*
G36*
X023530Y021303D02*
X023139Y021694D01*
X023530Y022085D01*
X023921Y021694D01*
X023530Y021303D01*
G37*
G36*
X010751Y020645D02*
X011142Y021036D01*
X011533Y020645D01*
X011142Y020254D01*
X010751Y020645D01*
G37*
G36*
X009770Y021003D02*
X009379Y020612D01*
X008988Y021003D01*
X009379Y021394D01*
X009770Y021003D01*
G37*
G36*
X010408Y008235D02*
X010017Y008626D01*
X010408Y009017D01*
X010799Y008626D01*
X010408Y008235D01*
G37*
G36*
X010112Y007265D02*
X010503Y006874D01*
X010112Y006483D01*
X009721Y006874D01*
X010112Y007265D01*
G37*
G36*
X022874Y007887D02*
X022483Y007496D01*
X022092Y007887D01*
X022483Y008278D01*
X022874Y007887D01*
G37*
G36*
X023867Y007541D02*
X024258Y007932D01*
X024649Y007541D01*
X024258Y007150D01*
X023867Y007541D01*
G37*
D17*
X020123Y004680D03*
X019336Y004680D03*
X012023Y011505D03*
X011236Y011505D03*
D18*
X018717Y006655D03*
X020292Y006655D03*
D19*
X021305Y020680D03*
X021305Y021780D03*
X018221Y021780D03*
X018221Y020680D03*
X015388Y020680D03*
X015388Y021780D03*
X012305Y021780D03*
X012305Y020680D03*
D20*
X006805Y017530D03*
X026805Y011030D03*
X034620Y007784D03*
X034620Y020776D03*
D21*
X025554Y010430D03*
X024806Y010430D03*
X025180Y009580D03*
X020505Y014780D03*
X020879Y015630D03*
X020131Y015630D03*
X019955Y023855D03*
X020329Y024705D03*
X019581Y024705D03*
X013954Y024905D03*
X013206Y024905D03*
X013580Y024055D03*
X015155Y004705D03*
X015529Y003855D03*
X014781Y003855D03*
D22*
X014280Y005106D03*
X014280Y005854D03*
X013430Y005480D03*
X012080Y005656D03*
X012080Y006404D03*
X011230Y006030D03*
G36*
X008283Y007790D02*
X008530Y008037D01*
X008697Y007870D01*
X008450Y007623D01*
X008283Y007790D01*
G37*
G36*
X007754Y008319D02*
X008001Y008566D01*
X008168Y008399D01*
X007921Y008152D01*
X007754Y008319D01*
G37*
G36*
X008619Y008655D02*
X008866Y008902D01*
X009033Y008735D01*
X008786Y008488D01*
X008619Y008655D01*
G37*
X007159Y015550D03*
X008009Y015924D03*
X007159Y016298D03*
G36*
X011202Y022435D02*
X011449Y022188D01*
X011282Y022021D01*
X011035Y022268D01*
X011202Y022435D01*
G37*
G36*
X010865Y023300D02*
X011112Y023053D01*
X010945Y022886D01*
X010698Y023133D01*
X010865Y023300D01*
G37*
G36*
X010336Y022771D02*
X010583Y022524D01*
X010416Y022357D01*
X010169Y022604D01*
X010336Y022771D01*
G37*
G36*
X025003Y019916D02*
X024756Y019669D01*
X024589Y019836D01*
X024836Y020083D01*
X025003Y019916D01*
G37*
G36*
X025869Y020253D02*
X025622Y020006D01*
X025455Y020173D01*
X025702Y020420D01*
X025869Y020253D01*
G37*
G36*
X025340Y020781D02*
X025093Y020534D01*
X024926Y020701D01*
X025173Y020948D01*
X025340Y020781D01*
G37*
X033630Y014604D03*
X033630Y013856D03*
X034480Y014230D03*
X025674Y012993D03*
X024824Y012619D03*
X025674Y012245D03*
G36*
X022455Y006101D02*
X022208Y006348D01*
X022375Y006515D01*
X022622Y006268D01*
X022455Y006101D01*
G37*
G36*
X022792Y005235D02*
X022545Y005482D01*
X022712Y005649D01*
X022959Y005402D01*
X022792Y005235D01*
G37*
G36*
X023321Y005764D02*
X023074Y006011D01*
X023241Y006178D01*
X023488Y005931D01*
X023321Y005764D01*
G37*
X019330Y003804D03*
X019330Y003056D03*
X018480Y003430D03*
D23*
X011509Y016105D03*
X011509Y016302D03*
X011509Y016499D03*
X011509Y016695D03*
X011509Y016892D03*
X009777Y016892D03*
X009777Y016695D03*
X009777Y016499D03*
X009777Y016302D03*
X009777Y016105D03*
D24*
X010487Y017538D03*
X010743Y017538D03*
X010999Y017538D03*
X010999Y018259D03*
X010743Y018259D03*
X010487Y018259D03*
D25*
X010546Y017899D03*
X010940Y017899D03*
D26*
X021150Y017889D03*
X021150Y018145D03*
X021150Y018401D03*
X021150Y018657D03*
X021150Y018912D03*
X021150Y017633D03*
X021150Y017377D03*
X021150Y017121D03*
X021150Y016865D03*
X021150Y016609D03*
X021150Y016353D03*
X021150Y016098D03*
X023810Y016098D03*
X023810Y016353D03*
X023810Y016609D03*
X023810Y016865D03*
X023810Y017121D03*
X023810Y017377D03*
X023810Y017633D03*
X023810Y017889D03*
X023810Y018145D03*
X023810Y018401D03*
X023810Y018657D03*
X023810Y018912D03*
D27*
X024020Y012571D03*
X023390Y012571D03*
X023390Y011389D03*
X024020Y011389D03*
D28*
X019956Y011258D03*
X019956Y011573D03*
X019956Y011887D03*
X019956Y012202D03*
X019956Y012517D03*
X019956Y012832D03*
X019956Y013147D03*
X019956Y013462D03*
X019956Y013777D03*
X019956Y014092D03*
X019956Y010943D03*
X019956Y010628D03*
X019956Y010313D03*
X019956Y009998D03*
X019956Y009683D03*
X019956Y009368D03*
X013853Y009368D03*
X013853Y009683D03*
X013853Y009998D03*
X013853Y010313D03*
X013853Y010628D03*
X013853Y010943D03*
X013853Y011258D03*
X013853Y011573D03*
X013853Y011887D03*
X013853Y012202D03*
X013853Y012517D03*
X013853Y012832D03*
X013853Y013147D03*
X013853Y013462D03*
X013853Y013777D03*
X013853Y014092D03*
D29*
X014542Y014781D03*
X014857Y014781D03*
X015172Y014781D03*
X015487Y014781D03*
X015802Y014781D03*
X016117Y014781D03*
X016432Y014781D03*
X016747Y014781D03*
X017062Y014781D03*
X017377Y014781D03*
X017692Y014781D03*
X018007Y014781D03*
X018322Y014781D03*
X018637Y014781D03*
X018952Y014781D03*
X019267Y014781D03*
X019267Y008679D03*
X018952Y008679D03*
X018637Y008679D03*
X018322Y008679D03*
X018007Y008679D03*
X017692Y008679D03*
X017377Y008679D03*
X017062Y008679D03*
X016747Y008679D03*
X016432Y008679D03*
X016117Y008679D03*
X015802Y008679D03*
X015487Y008679D03*
X015172Y008679D03*
X014857Y008679D03*
X014542Y008679D03*
D30*
X030102Y016783D03*
X030889Y016783D03*
X031676Y016783D03*
X032464Y016783D03*
X032464Y018673D03*
X031676Y018673D03*
X030889Y018673D03*
X030102Y018673D03*
D31*
X035017Y017134D03*
X035017Y016426D03*
X036592Y016426D03*
X036592Y017134D03*
X036592Y012134D03*
X036592Y011426D03*
X035017Y011426D03*
X035017Y012134D03*
D32*
X011945Y013095D03*
X011197Y013095D03*
X011197Y014197D03*
X011571Y014197D03*
X011945Y014197D03*
D33*
X025630Y017236D03*
X025630Y018024D03*
D34*
X034205Y019280D02*
X034760Y019280D01*
X035405Y014280D02*
X035960Y014280D01*
X034760Y009280D02*
X034205Y009280D01*
D35*
X036205Y009280D03*
X037405Y014280D03*
X036205Y019280D03*
D36*
X014806Y018855D03*
X014806Y017871D03*
X013703Y017871D03*
X013703Y018855D03*
X013703Y019839D03*
X014806Y019839D03*
D37*
X015555Y018755D02*
X016024Y018286D01*
X016024Y017988D01*
X016024Y017398D02*
X015556Y016930D01*
X014830Y016930D01*
X018405Y017030D02*
X018805Y016630D01*
X019705Y016630D01*
X020105Y016230D01*
X020805Y016230D01*
X020928Y016353D01*
X021150Y016353D01*
X021014Y016730D02*
X020355Y016730D01*
X020755Y017230D02*
X019555Y017230D01*
X019355Y017030D01*
X019955Y017780D02*
X020855Y017780D01*
X020963Y017889D01*
X021150Y017889D01*
X021150Y018145D02*
X021014Y018280D01*
X020355Y018280D01*
X019955Y017780D02*
X019805Y017930D01*
X020755Y017230D02*
X020863Y017121D01*
X021150Y017121D01*
X021150Y016865D02*
X021014Y016730D01*
X022755Y017280D02*
X022852Y017377D01*
X023810Y017377D01*
X024737Y017377D01*
X024780Y017335D01*
X025531Y017335D01*
X025630Y017236D01*
X025531Y017925D02*
X024780Y017925D01*
X024780Y018505D01*
X024372Y018912D01*
X023810Y018912D01*
X023810Y017889D02*
X024743Y017889D01*
X024780Y017925D01*
X025531Y017925D02*
X025630Y018024D01*
X023810Y016353D02*
X023805Y016349D01*
X023805Y015680D01*
X020905Y018780D02*
X021037Y018912D01*
X021150Y018912D01*
X020905Y018780D02*
X019430Y018780D01*
X019380Y018830D01*
X015805Y022780D02*
X015805Y023055D01*
X015030Y023830D01*
X014405Y023830D01*
X014305Y023930D01*
X014305Y025150D01*
X013850Y025605D01*
X013259Y025605D02*
X013206Y025376D01*
X013206Y024905D01*
X013181Y024930D02*
X012655Y024930D01*
X013580Y024055D02*
X014159Y023507D01*
X014750Y023455D02*
X014805Y023477D01*
X014805Y022780D01*
X010743Y019099D02*
X010543Y019299D01*
X010093Y019299D01*
X009843Y019049D01*
X009843Y018399D01*
X010093Y018399D01*
X010193Y018299D01*
X010193Y017649D01*
X010303Y017538D01*
X010487Y017538D01*
X010999Y017538D02*
X010999Y017839D01*
X010940Y017899D01*
X010999Y018259D02*
X010999Y018657D01*
X011192Y018850D01*
X010743Y019099D02*
X010743Y018259D01*
X010487Y018259D02*
X010487Y018654D01*
X010293Y018849D01*
X009843Y018399D02*
X009143Y018399D01*
X008596Y017852D01*
X008598Y017749D01*
X008643Y017695D02*
X008643Y017649D01*
X009090Y017202D01*
X009188Y016999D01*
X009196Y016892D01*
X009777Y016892D01*
X010999Y016954D02*
X010999Y017538D01*
X010487Y018008D02*
X010487Y018259D01*
X009050Y014666D02*
X008352Y013770D01*
X011760Y007232D02*
X011330Y006801D01*
X011330Y006130D01*
X011230Y006030D01*
X011005Y005805D01*
X011005Y005430D01*
X012080Y006404D02*
X012804Y006404D01*
X012805Y006405D01*
X020586Y008011D02*
X020586Y008911D01*
X020905Y009230D01*
X024009Y009230D01*
X024600Y009230D02*
X024830Y009230D01*
X025180Y009580D01*
X024806Y010430D02*
X024305Y010430D01*
X024255Y010480D01*
X022405Y008830D02*
X021875Y008830D01*
X021284Y008830D02*
X021284Y008100D01*
X021373Y008011D01*
D38*
X009030Y006480D02*
X008029Y007480D01*
X008016Y007480D01*
X008029Y007480D02*
X008140Y007480D01*
X008490Y007830D01*
X008604Y008381D02*
X007961Y008359D01*
X007598Y007996D01*
X007598Y007898D01*
X007735Y008830D02*
X008692Y008830D01*
X008826Y008695D01*
X009325Y008673D01*
X009532Y008467D01*
X009949Y008049D02*
X009906Y007060D01*
X010112Y006874D01*
X010879Y006907D02*
X010949Y007023D01*
X011655Y006555D02*
X012055Y006955D01*
X012055Y008480D01*
X012505Y008930D01*
X012755Y009330D02*
X012105Y009330D01*
X011782Y009683D02*
X011330Y009230D01*
X010305Y009230D01*
X010155Y009080D01*
X008320Y009080D01*
X007899Y009501D01*
X008405Y009530D02*
X010555Y009530D01*
X010705Y009680D01*
X011330Y009980D02*
X011397Y009998D01*
X013853Y009998D01*
X013853Y009683D02*
X011782Y009683D01*
X012755Y009330D02*
X013080Y009005D01*
X013080Y007875D01*
X013805Y007150D01*
X013853Y007707D02*
X013853Y009368D01*
X014542Y008679D02*
X014542Y007692D01*
X014555Y007655D01*
X014980Y008030D02*
X015130Y008180D01*
X015380Y008180D01*
X015487Y008288D01*
X015487Y008679D01*
X015487Y009147D01*
X015055Y009580D01*
X015605Y009430D02*
X015802Y009232D01*
X015802Y008679D01*
X015802Y008023D01*
X015659Y007880D01*
X016117Y008013D02*
X016250Y007880D01*
X016117Y008013D02*
X016117Y008679D01*
X016117Y009592D01*
X016080Y009655D01*
X015605Y009430D02*
X015605Y010055D01*
X015130Y010555D02*
X014980Y010705D01*
X014330Y010705D01*
X014252Y010628D01*
X013853Y010628D01*
X009307Y010628D01*
X008755Y011180D01*
X009755Y011180D02*
X009992Y010943D01*
X013853Y010943D01*
X015417Y010943D01*
X015630Y010730D01*
X015577Y011258D02*
X016255Y010580D01*
X015577Y011258D02*
X013853Y011258D01*
X013305Y011430D02*
X013214Y011339D01*
X012810Y011339D01*
X013305Y011430D02*
X013305Y012055D01*
X013452Y012202D01*
X013853Y012202D01*
X013853Y012517D02*
X014367Y012517D01*
X014530Y012355D01*
X014530Y011780D01*
X014655Y011655D01*
X015305Y011930D02*
X014402Y012832D01*
X013853Y012832D01*
X013853Y013147D02*
X013347Y013147D01*
X013230Y013265D01*
X013230Y013555D01*
X013105Y013680D01*
X012980Y013680D01*
X012817Y014092D02*
X012580Y014330D01*
X012817Y014092D02*
X013853Y014092D01*
X013853Y013777D02*
X014782Y013777D01*
X015855Y012705D01*
X016180Y012705D01*
X016505Y012380D01*
X016005Y012105D02*
X014647Y013462D01*
X013853Y013462D01*
X012810Y013155D02*
X012355Y013610D01*
X012355Y013630D01*
X011955Y013830D02*
X011955Y014187D01*
X011945Y014197D01*
X011197Y014197D02*
X011197Y013838D01*
X011305Y013730D01*
X011855Y013730D01*
X011955Y013830D01*
X010566Y013792D02*
X010566Y014655D01*
X010566Y015246D02*
X009149Y015246D01*
X009073Y015321D01*
X008573Y015328D01*
X008009Y015924D01*
X007555Y015934D02*
X007159Y016298D01*
X006623Y016298D01*
X006550Y016225D01*
X006550Y015635D02*
X006635Y015550D01*
X007159Y015550D01*
X007191Y015166D01*
X006755Y014730D01*
X007555Y015567D02*
X007555Y015934D01*
X007555Y015567D02*
X008352Y014770D01*
X009054Y015251D02*
X009050Y015256D01*
X009054Y015251D02*
X009073Y015321D01*
X008862Y015780D02*
X009612Y015780D01*
X009743Y015649D01*
X009777Y015682D01*
X009777Y016105D01*
X009777Y016302D02*
X010440Y016302D01*
X011162Y015580D01*
X013405Y015580D01*
X013655Y015830D01*
X015205Y015830D01*
X015802Y015232D01*
X015802Y014781D01*
X015487Y014781D02*
X015487Y015222D01*
X015105Y015605D01*
X013930Y015605D01*
X013605Y015280D01*
X013605Y014755D01*
X014130Y015205D02*
X014205Y015280D01*
X014530Y015280D01*
X014542Y015267D01*
X014542Y014781D01*
X014857Y014781D02*
X014857Y014427D01*
X015255Y014030D01*
X015172Y014781D02*
X015172Y015212D01*
X015105Y015280D01*
X014530Y015280D01*
X015305Y016055D02*
X013555Y016055D01*
X013280Y015780D01*
X011262Y015780D01*
X011093Y015949D01*
X011093Y016249D01*
X011146Y016302D01*
X011509Y016302D01*
X011509Y016499D02*
X011846Y016499D01*
X012248Y016899D01*
X011743Y016924D02*
X011743Y016699D01*
X011268Y016699D01*
X011268Y016924D01*
X011743Y016924D01*
X011743Y016851D02*
X011268Y016851D01*
X011268Y016752D02*
X011743Y016752D01*
X011509Y016695D02*
X011509Y016892D01*
X011643Y017303D02*
X011888Y017299D01*
X012248Y017649D01*
X011743Y017824D02*
X011643Y017894D01*
X011643Y018299D01*
X011743Y018399D01*
X012248Y018399D01*
X012248Y019168D01*
X012838Y019168D02*
X012838Y018399D01*
X012838Y017649D01*
X012838Y016899D01*
X012838Y016149D01*
X013073Y016149D01*
X013380Y016455D01*
X014005Y016455D02*
X013230Y017230D01*
X013230Y019505D01*
X012880Y019855D01*
X012880Y023060D01*
X012880Y023650D02*
X012884Y024010D01*
X013748Y024874D01*
X013954Y024905D01*
X013206Y024905D02*
X013181Y024930D01*
X012030Y023905D02*
X012030Y023302D01*
X011900Y023173D01*
X011483Y023590D02*
X011483Y022469D01*
X011242Y022228D01*
X010955Y021985D01*
X010955Y021520D01*
X010537Y021102D02*
X009478Y021102D01*
X009379Y021003D01*
X010086Y021710D02*
X010927Y022551D01*
X010905Y023093D01*
X010532Y023467D01*
X010437Y023467D01*
X010019Y023049D02*
X010019Y022921D01*
X010376Y022564D01*
X010167Y022355D01*
X009080Y022355D01*
X014159Y023455D02*
X014159Y023507D01*
X015805Y023780D02*
X016155Y023430D01*
X016401Y023430D01*
X016405Y023335D01*
X017655Y022085D01*
X017655Y020305D01*
X017855Y020105D01*
X017855Y018455D01*
X017305Y017905D01*
X017305Y016805D01*
X017062Y016562D01*
X017062Y014781D01*
X016747Y014781D02*
X016747Y016623D01*
X017055Y016930D01*
X017055Y018255D01*
X017455Y018655D01*
X016805Y018630D02*
X016805Y017055D01*
X016432Y016683D01*
X016432Y014781D01*
X016117Y014781D02*
X016117Y015242D01*
X015305Y016055D01*
X015955Y016180D02*
X015955Y016505D01*
X016555Y017105D01*
X016555Y018280D01*
X016380Y018455D01*
X016380Y019055D01*
X016805Y019480D01*
X016805Y020580D01*
X018221Y020680D02*
X018221Y021780D01*
X019280Y021255D02*
X019784Y021255D01*
X020276Y021135D02*
X019730Y020588D01*
X019722Y020580D01*
X018980Y020580D01*
X018130Y019730D01*
X018130Y018355D01*
X017580Y017805D01*
X017580Y016680D01*
X017377Y016477D01*
X017377Y014781D01*
X017692Y014781D02*
X017692Y014792D01*
X017705Y014805D01*
X017705Y015830D01*
X018255Y016380D01*
X019580Y016380D01*
X020131Y015829D01*
X020131Y015630D01*
X020765Y016070D02*
X020765Y016385D01*
X021540Y016382D01*
X021540Y016070D01*
X020765Y016070D01*
X020765Y016161D02*
X021540Y016161D01*
X021540Y016260D02*
X020765Y016260D01*
X020765Y016358D02*
X021540Y016358D01*
X021540Y016580D02*
X021540Y016892D01*
X020765Y016895D01*
X020765Y016580D01*
X021540Y016580D01*
X021540Y016654D02*
X020765Y016654D01*
X020765Y016752D02*
X021540Y016752D01*
X021540Y016851D02*
X020765Y016851D01*
X020765Y017090D02*
X020765Y017405D01*
X021540Y017402D01*
X021540Y017090D01*
X020765Y017090D01*
X020765Y017146D02*
X021540Y017146D01*
X021540Y017245D02*
X020765Y017245D01*
X020765Y017343D02*
X021540Y017343D01*
X021540Y017605D02*
X021540Y017917D01*
X020765Y017920D01*
X020765Y017605D01*
X021540Y017605D01*
X021540Y017639D02*
X020765Y017639D01*
X020765Y017737D02*
X021540Y017737D01*
X021540Y017836D02*
X020765Y017836D01*
X020765Y018115D02*
X020765Y018430D01*
X021540Y018427D01*
X020765Y018427D01*
X020765Y018328D02*
X021540Y018328D01*
X021540Y018230D02*
X020765Y018230D01*
X020765Y018131D02*
X021540Y018131D01*
X021540Y018115D02*
X021540Y018427D01*
X021540Y018630D02*
X021540Y018942D01*
X020765Y018945D01*
X020765Y018630D01*
X021540Y018630D01*
X021540Y018722D02*
X020765Y018722D01*
X020765Y018821D02*
X021540Y018821D01*
X021540Y018919D02*
X020765Y018919D01*
X020765Y018115D02*
X021540Y018115D01*
X021755Y018380D02*
X022255Y018880D01*
X023005Y018880D01*
X023228Y018657D01*
X023810Y018657D01*
X023810Y018401D02*
X023184Y018401D01*
X022905Y018680D01*
X022355Y018680D01*
X021955Y018280D01*
X021955Y016880D01*
X022130Y016705D01*
X022130Y015255D01*
X020967Y014092D01*
X019956Y014092D01*
X019956Y013777D02*
X020952Y013777D01*
X022330Y015155D01*
X022330Y016805D01*
X022155Y016980D01*
X022155Y018180D01*
X022455Y018480D01*
X022805Y018480D01*
X023140Y018145D01*
X023810Y018145D01*
X023810Y017889D02*
X022813Y017889D01*
X022605Y018080D01*
X022555Y017680D02*
X022355Y017480D01*
X022355Y017080D01*
X022530Y016905D01*
X022530Y015055D01*
X020937Y013462D01*
X019956Y013462D01*
X019956Y013147D02*
X020922Y013147D01*
X022730Y014955D01*
X022730Y016705D01*
X023146Y017121D01*
X023810Y017121D01*
X023810Y016865D02*
X023190Y016865D01*
X022930Y016605D01*
X022930Y014855D01*
X020907Y012832D01*
X019956Y012832D01*
X019956Y012517D02*
X020495Y012517D01*
X020765Y012248D01*
X021305Y011980D02*
X021305Y012930D01*
X021805Y013430D01*
X022409Y013430D01*
X023000Y013430D02*
X023305Y013430D01*
X024020Y012715D01*
X024020Y012571D01*
X023390Y012571D02*
X023330Y012630D01*
X022600Y012630D01*
X022009Y012630D02*
X021505Y012125D01*
X021505Y011880D01*
X020567Y010943D01*
X019956Y010943D01*
X019956Y011258D02*
X020582Y011258D01*
X021305Y011980D01*
X021805Y011880D02*
X022009Y011930D01*
X021805Y011880D02*
X020552Y010628D01*
X019956Y010628D01*
X019956Y010313D02*
X020587Y010313D01*
X021505Y011230D01*
X021984Y011230D01*
X022575Y011230D02*
X022655Y011230D01*
X023005Y010880D01*
X025104Y010880D01*
X025554Y010430D01*
X025602Y011393D02*
X025305Y011690D01*
X025305Y012139D01*
X024824Y012619D01*
X024856Y012947D01*
X024543Y013260D01*
X024543Y013850D02*
X025246Y014538D01*
X025241Y014747D01*
X025241Y013747D02*
X025241Y012647D01*
X025674Y012245D01*
X026220Y012245D01*
X026297Y012323D01*
X026297Y012913D02*
X026217Y012993D01*
X026217Y013468D01*
X026630Y013880D01*
X026217Y012993D02*
X025674Y012993D01*
X024530Y011955D02*
X024530Y011875D01*
X025011Y011393D01*
X024020Y011389D02*
X024020Y011665D01*
X023705Y011980D01*
X023390Y011389D02*
X022899Y011880D01*
X022600Y011930D01*
X022695Y010442D02*
X022689Y010436D01*
X022004Y010436D01*
X021414Y010436D02*
X021408Y010430D01*
X021055Y010430D01*
X020622Y009998D01*
X019956Y009998D01*
X019956Y009683D02*
X021410Y009683D01*
X021414Y009687D01*
X022004Y009687D02*
X022714Y009687D01*
X022720Y009693D01*
X023286Y009718D02*
X023311Y009693D01*
X023842Y009693D01*
X024005Y009855D01*
X023286Y009718D02*
X023286Y010442D01*
X019956Y009368D02*
X019956Y008508D01*
X019840Y008392D01*
X020030Y007980D02*
X018430Y007980D01*
X018322Y008088D01*
X018322Y008679D01*
X018007Y008679D02*
X018007Y009257D01*
X018105Y009355D01*
X017692Y009568D02*
X017692Y008679D01*
X017377Y008679D02*
X017377Y008158D01*
X017480Y008055D01*
X018005Y008055D01*
X018455Y007605D01*
X019905Y007605D01*
X019930Y007580D01*
X019592Y007380D02*
X020292Y006655D01*
X020350Y006622D01*
X020350Y005580D01*
X019759Y005580D02*
X019200Y005580D01*
X019201Y005877D01*
X019505Y006180D01*
X019505Y006530D01*
X018717Y006655D02*
X017767Y007580D01*
X017105Y007580D01*
X016432Y008252D01*
X016432Y008679D01*
X016747Y008679D02*
X016747Y008337D01*
X017255Y007830D01*
X017905Y007830D01*
X018355Y007380D01*
X019592Y007380D01*
X020030Y007980D02*
X020855Y007155D01*
X020855Y006480D01*
X021305Y006030D01*
X021305Y004780D01*
X020275Y003750D01*
X019980Y003750D01*
X019980Y003160D02*
X019876Y003056D01*
X019330Y003056D01*
X019330Y004674D02*
X019336Y004680D01*
X020105Y004730D02*
X020123Y004711D01*
X020123Y004680D01*
X020105Y004730D02*
X020655Y004730D01*
X020955Y005030D01*
X020955Y005730D01*
X021503Y006434D02*
X021255Y006683D01*
X021255Y007180D01*
X021921Y006852D02*
X021921Y006802D01*
X022415Y006308D01*
X022652Y006500D01*
X022652Y007020D01*
X023069Y007438D02*
X024155Y007438D01*
X024258Y007541D01*
X023551Y006834D02*
X022729Y006013D01*
X022752Y005442D01*
X023106Y005088D01*
X023224Y005088D01*
X023642Y005506D02*
X023642Y005667D01*
X023613Y005639D01*
X023642Y005610D01*
X023613Y005639D02*
X023281Y005971D01*
X023642Y005667D02*
X024530Y006580D01*
X018717Y006655D02*
X018609Y006572D01*
X018609Y005580D01*
X017305Y004280D02*
X017051Y004280D01*
X016400Y005030D01*
X015809Y005030D02*
X015511Y005030D01*
X015293Y005248D01*
X015293Y005627D01*
X014655Y005530D02*
X014331Y005854D01*
X014280Y005854D01*
X013834Y005520D02*
X014280Y005106D01*
X013834Y005520D02*
X013805Y005550D01*
X013805Y006560D01*
X012809Y006405D02*
X012805Y006405D01*
X012809Y006405D02*
X012805Y005700D01*
X013430Y005480D02*
X013430Y005030D01*
X012805Y004405D01*
X012809Y004405D01*
X012805Y005110D01*
X012080Y005656D02*
X011655Y006081D01*
X011655Y006555D01*
X012351Y007232D02*
X012374Y007255D01*
X012955Y007255D01*
X013853Y007707D02*
X015293Y006217D01*
X015511Y005030D02*
X015155Y004705D01*
X015174Y004280D02*
X014781Y003855D01*
X014781Y003359D01*
X014859Y003280D01*
X015450Y003280D02*
X015455Y002780D01*
X015450Y003280D02*
X015529Y003359D01*
X015529Y003855D01*
X015174Y004280D02*
X016305Y004280D01*
X015809Y005030D02*
X015805Y005030D01*
X017062Y008679D02*
X017087Y009073D01*
X016805Y009355D01*
X017655Y009605D02*
X017692Y009568D01*
X018337Y011573D02*
X016705Y013205D01*
X018005Y013630D02*
X018007Y013632D01*
X018007Y014781D01*
X018322Y014781D02*
X018322Y015204D01*
X018542Y015424D01*
X019267Y015382D02*
X019299Y015414D01*
X019267Y015382D02*
X019267Y014781D01*
X018952Y014781D02*
X018952Y014358D01*
X019255Y014055D01*
X018655Y014055D02*
X018322Y014388D01*
X018322Y014781D01*
X018542Y016015D02*
X019289Y016015D01*
X019299Y016005D01*
X020005Y015055D02*
X020280Y014780D01*
X020505Y014780D01*
X020879Y015156D02*
X021080Y014955D01*
X020879Y015156D02*
X020879Y015630D01*
X021705Y015530D02*
X021930Y015755D01*
X021930Y016605D01*
X021755Y016780D01*
X021755Y018380D01*
X022555Y017680D02*
X022955Y017680D01*
X023002Y017633D01*
X023810Y017633D01*
X023810Y016609D02*
X023234Y016609D01*
X023130Y016505D01*
X023130Y014405D01*
X023005Y014280D01*
X023415Y016065D02*
X023415Y016380D01*
X024195Y016382D01*
X024195Y016070D01*
X023415Y016065D01*
X023415Y016161D02*
X024195Y016161D01*
X024195Y016260D02*
X023415Y016260D01*
X023415Y016358D02*
X024195Y016358D01*
X024725Y019184D02*
X024530Y019380D01*
X024725Y019184D02*
X025792Y019184D01*
X026209Y019602D02*
X026081Y019730D01*
X024942Y019730D01*
X024796Y019876D01*
X024575Y020142D01*
X024092Y020142D01*
X023675Y020559D02*
X023744Y021480D01*
X023530Y021694D01*
X024237Y020987D02*
X025034Y020190D01*
X025662Y020213D01*
X026028Y020578D01*
X026028Y020682D01*
X025610Y021100D02*
X025610Y021124D01*
X024730Y022030D01*
X025491Y021100D02*
X025610Y021100D01*
X025491Y021100D02*
X025133Y020741D01*
X023855Y019405D02*
X023755Y019305D01*
X023130Y019305D01*
X021955Y020480D01*
X021955Y023236D01*
X021191Y023999D01*
X021191Y024590D02*
X020865Y024590D01*
X020130Y023855D01*
X019955Y023855D01*
X019656Y023886D01*
X019300Y023530D01*
X018709Y023530D02*
X018058Y024280D01*
X017805Y024280D01*
X017305Y023630D02*
X017405Y023530D01*
X017309Y023530D01*
X016405Y023925D02*
X016405Y024130D01*
X016655Y024380D01*
X015805Y024280D02*
X015805Y023780D01*
X018805Y024280D02*
X019935Y024280D01*
X020329Y024705D01*
X020250Y024752D01*
X020250Y025305D01*
X019659Y025305D02*
X019659Y024752D01*
X019581Y024705D01*
X019659Y025305D02*
X018980Y025305D01*
X018530Y025755D01*
X021305Y021780D02*
X021305Y020680D01*
X020420Y021112D02*
X020375Y021255D01*
X020276Y021135D01*
X022685Y021549D02*
X022724Y021593D01*
X029255Y018680D02*
X029255Y017975D01*
X029255Y017385D02*
X029255Y016780D01*
X029258Y016783D01*
X030102Y016783D01*
X030889Y016783D02*
X030889Y017196D01*
X030255Y017830D01*
X030889Y017846D02*
X031105Y017630D01*
X030889Y017846D02*
X030889Y018673D01*
X030102Y018673D02*
X029262Y018673D01*
X029255Y018680D01*
X031676Y018673D02*
X031676Y018108D01*
X031805Y017980D01*
X033709Y017980D01*
X034209Y018480D01*
X034209Y019275D01*
X034205Y019280D01*
X036205Y019280D01*
X035355Y018480D02*
X034800Y018480D01*
X034405Y017680D02*
X031905Y017680D01*
X031655Y017430D01*
X031655Y016805D01*
X031676Y016783D01*
X032464Y016783D02*
X032464Y016989D01*
X032805Y017330D01*
X034113Y017330D01*
X035017Y016426D01*
X035059Y016384D01*
X035050Y015430D01*
X034459Y015430D02*
X034455Y015435D01*
X034455Y015980D01*
X033655Y015875D02*
X033655Y016380D01*
X033055Y016880D02*
X033055Y011980D01*
X034200Y010835D01*
X034200Y010130D01*
X034200Y009285D01*
X034205Y009280D01*
X036205Y009280D01*
X033609Y010130D02*
X033605Y010135D01*
X033605Y010730D01*
X034255Y011435D02*
X035008Y011435D01*
X035017Y011426D01*
X034255Y012025D02*
X034255Y014005D01*
X034480Y014230D01*
X035130Y014880D01*
X035305Y014880D01*
X036009Y015585D01*
X036009Y018030D01*
X036600Y018030D02*
X036600Y017142D01*
X036592Y017134D01*
X033655Y015285D02*
X033655Y014629D01*
X033630Y014604D01*
X033630Y013856D02*
X033605Y013431D01*
X033605Y013130D01*
X035455Y013080D02*
X036009Y013080D01*
X036600Y013080D02*
X037405Y013080D01*
X036600Y013080D02*
X036600Y012142D01*
X036592Y012134D01*
X037405Y014280D02*
X035405Y014280D01*
X019956Y012202D02*
X019532Y012202D01*
X019280Y012455D01*
X019956Y011887D02*
X018597Y011887D01*
X018080Y012405D01*
X018337Y011573D02*
X019956Y011573D01*
X014530Y010305D02*
X014472Y010313D01*
X013853Y010313D01*
X009887Y010313D01*
X009755Y010180D01*
X008405Y009530D02*
X007405Y010530D01*
X006805Y010530D01*
X007482Y009083D02*
X007735Y008830D01*
X008604Y008381D02*
X009404Y007581D01*
X012810Y011930D02*
X012810Y012564D01*
X010566Y013792D02*
X010555Y013780D01*
X008862Y015780D02*
X008596Y016045D01*
X008598Y016249D01*
X008598Y016999D01*
X009188Y016999D02*
X009188Y016249D01*
X009543Y016699D02*
X009543Y016924D01*
X009814Y016924D01*
X009819Y016919D01*
X010013Y016919D01*
X010013Y016699D01*
X009543Y016699D01*
X009543Y016752D02*
X010013Y016752D01*
X010013Y016851D02*
X009543Y016851D01*
X009777Y016892D02*
X009777Y016695D01*
X009821Y016849D02*
X009777Y016892D01*
X009893Y017099D02*
X009793Y017199D01*
X009793Y017453D01*
X009893Y017099D02*
X010143Y017099D01*
X010193Y017049D01*
X010193Y016549D01*
X010143Y016499D01*
X009777Y016499D01*
X011509Y016105D02*
X012190Y016105D01*
X012248Y016149D01*
X010546Y017899D02*
X010487Y018008D01*
X009793Y018044D02*
X009485Y018044D01*
X009188Y017749D01*
X008643Y017695D02*
X008598Y017749D01*
X008596Y017745D01*
D39*
X010293Y018849D03*
X011192Y018850D03*
X011743Y018399D03*
X011305Y019630D03*
X013755Y017280D03*
X014005Y016455D03*
X013380Y016455D03*
X012905Y015080D03*
X013605Y014755D03*
X014130Y015205D03*
X015255Y014030D03*
X016705Y013205D03*
X016505Y012380D03*
X016005Y012105D03*
X015305Y011930D03*
X014655Y011655D03*
X015630Y010730D03*
X015130Y010555D03*
X015605Y010055D03*
X016080Y009655D03*
X016805Y009355D03*
X017655Y009605D03*
X018105Y009355D03*
X016255Y010580D03*
X015055Y009580D03*
X014530Y010305D03*
X012505Y008930D03*
X012105Y009330D03*
X011330Y009980D03*
X010705Y009680D03*
X012955Y007255D03*
X014555Y007655D03*
X014980Y008030D03*
X014655Y005530D03*
X015455Y002780D03*
X018605Y004680D03*
X020955Y005730D03*
X019505Y006530D03*
X019905Y007605D03*
X021255Y007180D03*
X022405Y008830D03*
X024005Y009855D03*
X024255Y010480D03*
X024530Y011955D03*
X023705Y011980D03*
X023005Y014280D03*
X021705Y015530D03*
X021080Y014955D03*
X020005Y015055D03*
X019255Y014055D03*
X018655Y014055D03*
X018005Y013630D03*
X018080Y012405D03*
X019280Y012455D03*
X023805Y015680D03*
X022755Y017280D03*
X022605Y018080D03*
X023855Y019405D03*
X024530Y019380D03*
X024730Y022030D03*
X029255Y018680D03*
X030255Y017830D03*
X031105Y017630D03*
X029255Y016780D03*
X026630Y013880D03*
X033055Y016880D03*
X033655Y016380D03*
X034455Y015980D03*
X034405Y017680D03*
X035355Y018480D03*
X035455Y013080D03*
X033605Y013130D03*
X033605Y010730D03*
X037405Y013080D03*
X024530Y006580D03*
X012980Y013680D03*
X012355Y013630D03*
X012580Y014330D03*
X011255Y015080D03*
X009743Y015649D03*
X010743Y016699D03*
X010555Y013780D03*
X010455Y012980D03*
X006755Y014730D03*
X006205Y013930D03*
X014830Y016930D03*
X015955Y016180D03*
X018405Y017030D03*
X019355Y017030D03*
X020355Y016730D03*
X019805Y017930D03*
X020355Y018280D03*
X019380Y018830D03*
X017455Y018655D03*
X016805Y018630D03*
X015555Y018755D03*
X016805Y020580D03*
X012030Y023905D03*
X012655Y024930D03*
X009080Y022355D03*
X018530Y025755D03*
X009030Y006480D03*
X011005Y005430D03*
D40*
X010879Y006505D02*
X009605Y005230D01*
X010879Y006505D02*
X010879Y006907D01*
X010532Y007441D02*
X011010Y007919D01*
X011115Y007919D01*
X011236Y011505D02*
X011350Y011619D01*
X011350Y012365D01*
X011070Y012365D01*
X010455Y012980D01*
X009801Y013740D02*
X009717Y013824D01*
X009069Y013824D01*
X009069Y013233D02*
X008865Y013030D01*
X007755Y013030D01*
X006855Y013930D01*
X006205Y013930D01*
X010743Y016699D02*
X010999Y016954D01*
X011061Y016892D01*
X011509Y016892D01*
X011509Y017168D01*
X011643Y017303D01*
X013703Y017331D02*
X013755Y017280D01*
X013703Y017331D02*
X013703Y017871D01*
X014806Y017871D01*
X014806Y018855D02*
X013703Y018855D01*
X014255Y018855D01*
X014255Y021555D01*
X011305Y019630D02*
X011200Y019555D01*
X010743Y019099D01*
X010435Y019938D02*
X010435Y020102D01*
X009982Y020556D01*
X009565Y020138D02*
X008955Y020138D01*
X007755Y018938D01*
X007755Y018905D01*
X011255Y015080D02*
X011197Y015022D01*
X011197Y014197D01*
X011571Y014197D02*
X011571Y014546D01*
X011655Y014630D01*
X012255Y014630D01*
X012388Y014764D01*
X012388Y015067D01*
X012892Y015067D01*
X012905Y015080D01*
X011798Y015067D02*
X011267Y015067D01*
X011255Y015080D01*
X012355Y013630D02*
X011945Y013220D01*
X011945Y013095D01*
X011940Y013090D01*
X011940Y012365D01*
X011940Y011588D01*
X012023Y011505D01*
X017305Y005780D02*
X017209Y005685D01*
X017209Y005030D01*
X017800Y005030D02*
X018055Y004775D01*
X018055Y003430D01*
X018480Y003430D01*
X018055Y003430D02*
X018055Y002380D01*
X019330Y003804D02*
X019330Y004674D01*
X019336Y004680D02*
X018605Y004680D01*
X023190Y008472D02*
X023190Y008594D01*
X023190Y008472D02*
X023656Y008007D01*
X024073Y008424D02*
X024510Y008424D01*
X026055Y006880D01*
X024550Y014649D02*
X023919Y014649D01*
X023792Y014776D01*
X024550Y015240D02*
X024790Y015480D01*
X025605Y015480D01*
X026005Y015080D01*
X026805Y015080D01*
X022512Y020662D02*
X023033Y021183D01*
X023102Y021132D01*
X022724Y021593D02*
X022724Y022300D01*
X023930Y023505D01*
X017900Y023530D02*
X017805Y023530D01*
X017805Y022780D01*
X017309Y023530D02*
X017309Y025835D01*
X017355Y025880D01*
D41*
X017355Y025880D03*
X016655Y024380D03*
X014255Y021555D03*
X019280Y021255D03*
X023930Y023505D03*
X026805Y015080D03*
X026055Y006880D03*
X018055Y002380D03*
X009605Y005230D03*
X007755Y018905D03*
M02*
