G75*
%MOIN*%
%OFA0B0*%
%FSLAX24Y24*%
%IPPOS*%
%LPD*%
%AMOC8*
5,1,8,0,0,1.08239X$1,22.5*
%
%ADD10C,0.0160*%
%ADD11C,0.0030*%
%ADD12C,0.0050*%
%ADD13C,0.0040*%
D10*
X017424Y020555D02*
X017426Y020575D01*
X017432Y020594D01*
X017441Y020612D01*
X017453Y020628D01*
X017469Y020641D01*
X017486Y020651D01*
X017505Y020658D01*
X017525Y020661D01*
X017545Y020660D01*
X017565Y020655D01*
X017583Y020647D01*
X017599Y020635D01*
X017613Y020621D01*
X017624Y020604D01*
X017632Y020585D01*
X017636Y020565D01*
X017636Y020545D01*
X017632Y020525D01*
X017624Y020506D01*
X017613Y020489D01*
X017599Y020475D01*
X017583Y020463D01*
X017565Y020455D01*
X017545Y020450D01*
X017525Y020449D01*
X017505Y020452D01*
X017486Y020459D01*
X017469Y020469D01*
X017453Y020482D01*
X017441Y020498D01*
X017432Y020516D01*
X017426Y020535D01*
X017424Y020555D01*
X033027Y018855D02*
X033029Y018875D01*
X033035Y018894D01*
X033044Y018912D01*
X033057Y018928D01*
X033073Y018941D01*
X033091Y018950D01*
X033110Y018956D01*
X033130Y018958D01*
X033150Y018956D01*
X033169Y018950D01*
X033187Y018941D01*
X033203Y018928D01*
X033216Y018912D01*
X033225Y018894D01*
X033231Y018875D01*
X033233Y018855D01*
X033231Y018835D01*
X033225Y018816D01*
X033216Y018798D01*
X033203Y018782D01*
X033187Y018769D01*
X033169Y018760D01*
X033150Y018754D01*
X033130Y018752D01*
X033110Y018754D01*
X033091Y018760D01*
X033073Y018769D01*
X033057Y018782D01*
X033044Y018798D01*
X033035Y018816D01*
X033029Y018835D01*
X033027Y018855D01*
D11*
X015915Y025145D02*
X015729Y025145D01*
X015668Y025207D01*
X015668Y025454D01*
X015729Y025515D01*
X015915Y025515D01*
X015915Y025145D01*
X015546Y025145D02*
X015423Y025145D01*
X015485Y025145D02*
X015485Y025515D01*
X015546Y025515D02*
X015423Y025515D01*
X015301Y025454D02*
X015301Y025392D01*
X015239Y025330D01*
X015116Y025330D01*
X015054Y025268D01*
X015054Y025207D01*
X015116Y025145D01*
X015239Y025145D01*
X015301Y025207D01*
X015301Y025454D02*
X015239Y025515D01*
X015116Y025515D01*
X015054Y025454D01*
X014932Y025515D02*
X014686Y025515D01*
X014809Y025515D02*
X014809Y025145D01*
D12*
X015105Y006530D02*
X018105Y006530D01*
X018105Y007530D01*
X015105Y007530D01*
X015105Y006530D01*
X019995Y008405D02*
X021964Y008405D01*
X021964Y013129D01*
X019995Y013129D01*
X019995Y008405D01*
X019561Y017993D02*
X019561Y019567D01*
X014049Y019567D02*
X014049Y017993D01*
X035273Y017280D02*
X035273Y016111D01*
X036336Y016111D01*
X036336Y017449D01*
X035455Y017449D01*
X035273Y017280D01*
X035273Y012449D02*
X035273Y011111D01*
X036155Y011111D01*
X036336Y011280D01*
X036336Y012449D01*
X035273Y012449D01*
D13*
X023308Y013590D02*
X023155Y013437D01*
X023001Y013590D01*
X023001Y013897D01*
X022848Y013897D02*
X022694Y013897D01*
X022771Y013897D02*
X022771Y013437D01*
X022848Y013437D02*
X022694Y013437D01*
X022541Y013437D02*
X022311Y013437D01*
X022234Y013514D01*
X022234Y013590D01*
X022311Y013667D01*
X022541Y013667D01*
X022541Y013437D02*
X022541Y013897D01*
X022311Y013897D01*
X022234Y013820D01*
X022234Y013744D01*
X022311Y013667D01*
X022080Y013437D02*
X022080Y013897D01*
X021927Y013744D01*
X021774Y013897D01*
X021774Y013437D01*
X021620Y013514D02*
X021543Y013437D01*
X021390Y013437D01*
X021313Y013514D01*
X021313Y013820D01*
X021390Y013897D01*
X021543Y013897D01*
X021620Y013820D01*
X021620Y013514D01*
X021160Y013897D02*
X020853Y013897D01*
X021006Y013897D02*
X021006Y013437D01*
X020699Y013514D02*
X020699Y013820D01*
X020623Y013897D01*
X020469Y013897D01*
X020392Y013820D01*
X020392Y013514D01*
X020469Y013437D01*
X020623Y013437D01*
X020699Y013514D01*
X020239Y013590D02*
X020009Y013590D01*
X019932Y013667D01*
X019932Y013820D01*
X020009Y013897D01*
X020239Y013897D01*
X020239Y013437D01*
X020085Y013590D02*
X019932Y013437D01*
X023308Y013590D02*
X023308Y013897D01*
X020699Y007598D02*
X020546Y007445D01*
X020392Y007598D01*
X020392Y007138D01*
X020239Y007138D02*
X019932Y007138D01*
X020085Y007138D02*
X020085Y007598D01*
X020239Y007445D01*
X020699Y007598D02*
X020699Y007138D01*
M02*
