%
M48
M72
T01C0.0200
T02C0.0236
T03C0.0315
T04C0.0472
T05C0.0800
%
T01
X9030Y6480
X11005Y5430
X12955Y7255
X14555Y7655
X14980Y8030
X15055Y9580
X15605Y10055
X15130Y10555
X15630Y10730
X16255Y10580
X16080Y9655
X16805Y9355
X17655Y9605
X18105Y9355
X19840Y8392
X19905Y7605
X19505Y6530
X20955Y5730
X21255Y7180
X22405Y8830
X24005Y9855
X24255Y10480
X24530Y11955
X23705Y11980
X23005Y14280
X21705Y15530
X21080Y14955
X20005Y15055
X19255Y14055
X18655Y14055
X18005Y13630
X9080Y22355
X12030Y23905
X12655Y24930
X16805Y20580
X16805Y18630
X17455Y18655
X15555Y18755
X13755Y17280
X14005Y16455
X13380Y16455
X12905Y15080
X13605Y14755
X14130Y15205
X15255Y14030
X29255Y16780
X30255Y17830
X31105Y17630
X33055Y16880
X33655Y16380
X34455Y15980
X34405Y17680
X35355Y18480
X29255Y18680
X24530Y19380
X23855Y19405
X22605Y18080
X22755Y17280
X23805Y15680
X33605Y10730
X33605Y13130
X35455Y13080
X37405Y13080
X26630Y13880
X20765Y12248
X19280Y12455
X18080Y12405
X16705Y13205
X16505Y12380
X16005Y12105
X15305Y11930
X14655Y11655
X14530Y10305
X12505Y8930
X12105Y9330
X11330Y9980
X10705Y9680
X10455Y12980
X10555Y13780
X11255Y15080
X12580Y14330
X12355Y13630
X12980Y13680
X9743Y15649
X10743Y16699
X11743Y18399
X11192Y18850
X11305Y19630
X10293Y18849
X14830Y16930
X15955Y16180
X18405Y17030
X19355Y17030
X20355Y16730
X19805Y17930
X20355Y18280
X19380Y18830
X19730Y20588
X19730Y21925
X18530Y25755
X24730Y22030
X6755Y14730
X6205Y13930
X14655Y5530
X15455Y2780
X18605Y4680
X24530Y6580
T02
X26055Y6880
X26805Y15080
X35017Y16426
X35017Y17134
X36592Y17134
X36592Y16426
X23930Y23505
X19280Y21255
X16655Y24380
X17355Y25880
X14255Y21555
X7755Y18905
X35017Y12134
X35017Y11426
X36592Y11426
X36592Y12134
X18055Y2380
X9605Y5230
T03
X26805Y16030
X26805Y17030
X26805Y18030
X24237Y20987
X23530Y21694
X22512Y20662
X23219Y19955
X18805Y22780
X17805Y22780
X17805Y24280
X18805Y24280
X15805Y24280
X14805Y24280
X14805Y22780
X15805Y22780
X11142Y20645
X10435Y19938
X9379Y21003
X10086Y21710
X8352Y14770
X8352Y13770
X9801Y13740
X9801Y14740
X6805Y12530
X6805Y11530
X6805Y10530
X8755Y10180
X9755Y10180
X9755Y11180
X8755Y11180
X8755Y12180
X9755Y12180
X10408Y8626
X11115Y7919
X10112Y6874
X9404Y7581
X12805Y6405
X12805Y4405
X16305Y4280
X17305Y4280
X17305Y5780
X16305Y5780
X16605Y7030
X17605Y7030
X15605Y7030
X20586Y8011
X21373Y8011
X22483Y7887
X23190Y8594
X24258Y7541
X23551Y6834
X23792Y13776
X23792Y14776
X25241Y14747
X35405Y14280
X34205Y9280
X25241Y13747
X34205Y19280
T04
X21305Y20680
X21305Y21780
X18221Y21780
X18221Y20680
X15388Y20680
X15388Y21780
X12305Y21780
X12305Y20680
T05
X6805Y17530
X34620Y20776
X26805Y11030
X34620Y7784
M30
