G75*
%MOIN*%
%OFA0B0*%
%FSLAX24Y24*%
%IPPOS*%
%LPD*%
%AMOC8*
5,1,8,0,0,1.08239X$1,22.5*
%
%ADD10C,0.0030*%
%ADD11C,0.0050*%
D10*
X010344Y010770D02*
X010715Y010770D01*
X010591Y010770D02*
X010344Y011017D01*
X010344Y011138D02*
X010715Y011138D01*
X010715Y011385D01*
X010529Y011262D02*
X010529Y011138D01*
X010344Y011138D02*
X010344Y011385D01*
X010344Y011507D02*
X010406Y011507D01*
X010529Y011630D01*
X010715Y011630D01*
X010529Y011630D02*
X010406Y011754D01*
X010344Y011754D01*
X010715Y011017D02*
X010529Y010832D01*
X007890Y011945D02*
X007890Y012192D01*
X007890Y012313D02*
X007519Y012313D01*
X007890Y012560D01*
X007519Y012560D01*
X007581Y012682D02*
X007828Y012682D01*
X007890Y012743D01*
X007890Y012867D01*
X007828Y012929D01*
X007890Y013050D02*
X007643Y013050D01*
X007519Y013173D01*
X007643Y013297D01*
X007890Y013297D01*
X007704Y013297D02*
X007704Y013050D01*
X007581Y012929D02*
X007519Y012867D01*
X007519Y012743D01*
X007581Y012682D01*
X007519Y012192D02*
X007519Y011945D01*
X007890Y011945D01*
X007704Y011945D02*
X007704Y012068D01*
X015319Y017957D02*
X015381Y017895D01*
X015628Y017895D01*
X015690Y017957D01*
X015690Y018080D01*
X015628Y018142D01*
X015381Y018142D01*
X015319Y018080D01*
X015319Y017957D01*
X015319Y018263D02*
X015690Y018510D01*
X015319Y018510D01*
X015319Y018263D02*
X015690Y018263D01*
X015653Y018970D02*
X015406Y018970D01*
X015344Y019032D01*
X015344Y019155D01*
X015406Y019217D01*
X015653Y019217D01*
X015715Y019155D01*
X015715Y019032D01*
X015653Y018970D01*
X015715Y019338D02*
X015344Y019338D01*
X015344Y019585D01*
X015344Y019707D02*
X015344Y019954D01*
X015529Y019830D02*
X015529Y019707D01*
X015344Y019707D02*
X015715Y019707D01*
X015529Y019462D02*
X015529Y019338D01*
X016045Y019307D02*
X016106Y019245D01*
X016230Y019245D01*
X016291Y019307D01*
X016291Y019368D01*
X016230Y019430D01*
X016106Y019430D01*
X016045Y019492D01*
X016045Y019554D01*
X016106Y019615D01*
X016230Y019615D01*
X016291Y019554D01*
X016413Y019492D02*
X016413Y019307D01*
X016475Y019245D01*
X016536Y019307D01*
X016598Y019245D01*
X016660Y019307D01*
X016660Y019492D01*
X016843Y019492D02*
X016966Y019492D01*
X017028Y019430D01*
X017028Y019245D01*
X016843Y019245D01*
X016781Y019307D01*
X016843Y019368D01*
X017028Y019368D01*
X017150Y019368D02*
X017273Y019492D01*
X017335Y019492D01*
X017456Y019492D02*
X017456Y019245D01*
X017580Y019245D02*
X017580Y019430D01*
X017642Y019492D01*
X017703Y019430D01*
X017703Y019245D01*
X017825Y019245D02*
X017825Y019615D01*
X018010Y019615D01*
X018072Y019554D01*
X018072Y019492D01*
X018010Y019430D01*
X017825Y019430D01*
X018010Y019430D02*
X018072Y019368D01*
X018072Y019307D01*
X018010Y019245D01*
X017825Y019245D01*
X017580Y019430D02*
X017518Y019492D01*
X017456Y019492D01*
X017150Y019492D02*
X017150Y019245D01*
X016905Y018365D02*
X016966Y018304D01*
X016966Y018242D01*
X016905Y018180D01*
X016966Y018118D01*
X016966Y018057D01*
X016905Y017995D01*
X016781Y017995D01*
X016720Y018057D01*
X016843Y018180D02*
X016905Y018180D01*
X017088Y018180D02*
X017335Y018180D01*
X017456Y018242D02*
X017580Y018365D01*
X017580Y017995D01*
X017703Y017995D02*
X017456Y017995D01*
X017825Y017995D02*
X017825Y018057D01*
X018071Y018304D01*
X018071Y018365D01*
X017825Y018365D01*
X018193Y018180D02*
X018440Y018180D01*
X018561Y018242D02*
X018685Y018365D01*
X018685Y017995D01*
X018808Y017995D02*
X018561Y017995D01*
X018929Y018180D02*
X019115Y018365D01*
X019115Y017995D01*
X019176Y018180D02*
X018929Y018180D01*
X018096Y017479D02*
X018035Y017540D01*
X017911Y017540D01*
X017850Y017479D01*
X017850Y017232D01*
X017911Y017170D01*
X018035Y017170D01*
X018096Y017232D01*
X017728Y017170D02*
X017605Y017293D01*
X017666Y017293D02*
X017481Y017293D01*
X017481Y017170D02*
X017481Y017540D01*
X017666Y017540D01*
X017728Y017479D01*
X017728Y017355D01*
X017666Y017293D01*
X017360Y017355D02*
X017298Y017293D01*
X017113Y017293D01*
X017113Y017170D02*
X017113Y017540D01*
X017298Y017540D01*
X017360Y017479D01*
X017360Y017355D01*
X016991Y017232D02*
X016930Y017170D01*
X016806Y017170D01*
X016745Y017232D01*
X016745Y017479D01*
X016806Y017540D01*
X016930Y017540D01*
X016991Y017479D01*
X016720Y018304D02*
X016781Y018365D01*
X016905Y018365D01*
X018193Y019307D02*
X018255Y019245D01*
X018378Y019245D01*
X018440Y019307D01*
X018440Y019430D01*
X018378Y019492D01*
X018255Y019492D01*
X018193Y019430D01*
X018193Y019307D01*
X018561Y019307D02*
X018623Y019368D01*
X018808Y019368D01*
X018808Y019430D02*
X018808Y019245D01*
X018623Y019245D01*
X018561Y019307D01*
X018623Y019492D02*
X018747Y019492D01*
X018808Y019430D01*
X018930Y019368D02*
X019053Y019492D01*
X019115Y019492D01*
X019237Y019430D02*
X019298Y019492D01*
X019484Y019492D01*
X019484Y019615D02*
X019484Y019245D01*
X019298Y019245D01*
X019237Y019307D01*
X019237Y019430D01*
X018930Y019492D02*
X018930Y019245D01*
X019973Y019368D02*
X020097Y019245D01*
X020220Y019368D01*
X020220Y019615D01*
X020342Y019554D02*
X020403Y019615D01*
X020527Y019615D01*
X020588Y019554D01*
X020588Y019492D01*
X020527Y019430D01*
X020588Y019368D01*
X020588Y019307D01*
X020527Y019245D01*
X020403Y019245D01*
X020342Y019307D01*
X020465Y019430D02*
X020527Y019430D01*
X019973Y019368D02*
X019973Y019615D01*
X021819Y020945D02*
X021819Y021192D01*
X021819Y021313D02*
X022190Y021560D01*
X022128Y021682D02*
X022190Y021743D01*
X022190Y021867D01*
X022128Y021929D01*
X021881Y021929D01*
X021819Y021867D01*
X021819Y021743D01*
X021881Y021682D01*
X022128Y021682D01*
X021819Y021560D02*
X022190Y021313D01*
X022190Y021068D02*
X021819Y021068D01*
X017690Y021110D02*
X017566Y020986D01*
X017566Y021048D02*
X017566Y020863D01*
X017690Y020863D02*
X017319Y020863D01*
X017319Y021048D01*
X017381Y021110D01*
X017504Y021110D01*
X017566Y021048D01*
X017690Y021231D02*
X017319Y021478D01*
X017319Y021599D02*
X017319Y021723D01*
X017319Y021661D02*
X017690Y021661D01*
X017690Y021599D02*
X017690Y021723D01*
X017690Y021478D02*
X017319Y021231D01*
X014840Y021188D02*
X014716Y021312D01*
X014840Y021435D01*
X014469Y021435D01*
X014469Y021557D02*
X014469Y021742D01*
X014531Y021804D01*
X014654Y021804D01*
X014716Y021742D01*
X014716Y021557D01*
X014716Y021680D02*
X014840Y021804D01*
X014840Y021557D02*
X014469Y021557D01*
X014469Y021188D02*
X014840Y021188D01*
X014716Y021005D02*
X014716Y020820D01*
X014840Y020820D02*
X014469Y020820D01*
X014469Y021005D01*
X014531Y021067D01*
X014654Y021067D01*
X014716Y021005D01*
X011840Y021057D02*
X011840Y021180D01*
X011778Y021242D01*
X011654Y021242D01*
X011654Y021118D01*
X011531Y020995D02*
X011778Y020995D01*
X011840Y021057D01*
X011840Y021363D02*
X011469Y021363D01*
X011840Y021610D01*
X011469Y021610D01*
X011469Y021732D02*
X011469Y021917D01*
X011531Y021979D01*
X011778Y021979D01*
X011840Y021917D01*
X011840Y021732D01*
X011469Y021732D01*
X011531Y021242D02*
X011469Y021180D01*
X011469Y021057D01*
X011531Y020995D01*
X011588Y018922D02*
X011464Y018922D01*
X011403Y018860D01*
X011403Y018798D01*
X011464Y018737D01*
X011588Y018737D01*
X011649Y018675D01*
X011649Y018613D01*
X011588Y018551D01*
X011464Y018551D01*
X011403Y018613D01*
X011281Y018613D02*
X011281Y018922D01*
X011034Y018922D02*
X011034Y018613D01*
X011096Y018551D01*
X011219Y018551D01*
X011281Y018613D01*
X011588Y018922D02*
X011649Y018860D01*
X010913Y018922D02*
X010666Y018922D01*
X010789Y018922D02*
X010789Y018551D01*
X010544Y018551D02*
X010544Y018798D01*
X010421Y018922D01*
X010298Y018798D01*
X010298Y018551D01*
X010298Y018737D02*
X010544Y018737D01*
X010176Y018922D02*
X009929Y018922D01*
X010053Y018922D02*
X010053Y018551D01*
X009808Y018613D02*
X009746Y018551D01*
X009623Y018551D01*
X009561Y018613D01*
X009440Y018613D02*
X009440Y018737D01*
X009316Y018737D01*
X009193Y018860D02*
X009193Y018613D01*
X009254Y018551D01*
X009378Y018551D01*
X009440Y018613D01*
X009623Y018737D02*
X009746Y018737D01*
X009808Y018675D01*
X009808Y018613D01*
X009623Y018737D02*
X009561Y018798D01*
X009561Y018860D01*
X009623Y018922D01*
X009746Y018922D01*
X009808Y018860D01*
X009440Y018860D02*
X009378Y018922D01*
X009254Y018922D01*
X009193Y018860D01*
X009071Y018922D02*
X009071Y018551D01*
X009071Y018737D02*
X008824Y018737D01*
X008703Y018860D02*
X008641Y018922D01*
X008518Y018922D01*
X008456Y018860D01*
X008456Y018613D01*
X008518Y018551D01*
X008641Y018551D01*
X008703Y018613D01*
X008824Y018551D02*
X008824Y018922D01*
X016020Y006415D02*
X016205Y006415D01*
X016266Y006354D01*
X016266Y006230D01*
X016205Y006168D01*
X016020Y006168D01*
X016020Y006045D02*
X016020Y006415D01*
X016143Y006168D02*
X016266Y006045D01*
X016388Y006045D02*
X016635Y006415D01*
X016756Y006415D02*
X016880Y006415D01*
X016818Y006415D02*
X016818Y006045D01*
X016756Y006045D02*
X016880Y006045D01*
X016635Y006045D02*
X016388Y006415D01*
X017195Y006440D02*
X017441Y006440D01*
X017563Y006440D02*
X017810Y006070D01*
X017931Y006132D02*
X017993Y006070D01*
X018116Y006070D01*
X018178Y006132D01*
X018178Y006379D01*
X018116Y006440D01*
X017993Y006440D01*
X017931Y006379D01*
X017931Y006132D01*
X017810Y006440D02*
X017563Y006070D01*
X017318Y006070D02*
X017318Y006440D01*
X025669Y015295D02*
X026040Y015295D01*
X026040Y015542D01*
X026040Y015663D02*
X025669Y015663D01*
X026040Y015910D01*
X025669Y015910D01*
X025731Y016032D02*
X025978Y016032D01*
X026040Y016093D01*
X026040Y016217D01*
X025978Y016279D01*
X026040Y016400D02*
X026040Y016585D01*
X025978Y016647D01*
X025916Y016647D01*
X025854Y016585D01*
X025854Y016400D01*
X025731Y016279D02*
X025669Y016217D01*
X025669Y016093D01*
X025731Y016032D01*
X025669Y016400D02*
X025669Y016585D01*
X025731Y016647D01*
X025793Y016647D01*
X025854Y016585D01*
X025669Y016400D02*
X026040Y016400D01*
X025669Y015542D02*
X025669Y015295D01*
X025854Y015295D02*
X025854Y015418D01*
D11*
X007987Y007127D02*
X007245Y007870D01*
X007626Y008251D01*
X008369Y007509D01*
X007987Y007127D01*
X008748Y007671D02*
X009250Y008172D01*
X008971Y008451D01*
X009179Y008438D02*
X009560Y008820D01*
X010303Y008078D01*
X009921Y007696D01*
X009179Y008438D01*
X008581Y008840D02*
X008303Y009119D01*
X007802Y008618D01*
X007510Y008730D02*
X007128Y009111D01*
X007871Y009854D01*
X008253Y009472D01*
X007510Y008730D01*
X008164Y008256D02*
X008387Y008033D01*
X008255Y009680D02*
X010255Y009680D01*
X010255Y010180D01*
X010755Y010180D01*
X010755Y012180D01*
X010255Y012180D01*
X010255Y010180D01*
X010905Y011123D02*
X010905Y011887D01*
X012354Y011887D01*
X012354Y011123D01*
X010905Y011123D01*
X011120Y012095D02*
X011120Y012635D01*
X012170Y012635D01*
X012170Y012095D01*
X011120Y012095D01*
X010255Y012180D02*
X010255Y012680D01*
X008255Y012680D01*
X008255Y009680D01*
X008075Y010555D02*
X007535Y010555D01*
X007535Y011605D01*
X008075Y011605D01*
X008075Y010555D01*
X007305Y010030D02*
X006305Y010030D01*
X006305Y013030D01*
X007305Y013030D01*
X007305Y010030D01*
X010178Y007412D02*
X010560Y007794D01*
X011303Y007051D01*
X010921Y006670D01*
X010178Y007412D01*
X011300Y006699D02*
X011300Y006306D01*
X011300Y006699D02*
X012009Y006699D01*
X012009Y006187D02*
X012009Y005873D01*
X012009Y005361D02*
X011300Y005361D01*
X011300Y005754D01*
X012535Y005930D02*
X012535Y004880D01*
X013075Y004880D01*
X013075Y005930D01*
X012535Y005930D01*
X013500Y005756D02*
X013500Y006149D01*
X014209Y006149D01*
X014075Y006330D02*
X013535Y006330D01*
X013535Y007380D01*
X014075Y007380D01*
X014075Y006330D01*
X014209Y005637D02*
X014209Y005323D01*
X013500Y005204D02*
X013500Y004811D01*
X014209Y004811D01*
X014485Y004634D02*
X014879Y004634D01*
X014485Y004634D02*
X014485Y003926D01*
X014630Y003550D02*
X015680Y003550D01*
X015680Y003010D01*
X014630Y003010D01*
X014630Y003550D01*
X014997Y003926D02*
X015312Y003926D01*
X015824Y003926D02*
X015824Y004634D01*
X015430Y004634D01*
X015580Y004760D02*
X015580Y005300D01*
X016630Y005300D01*
X016630Y004760D01*
X015580Y004760D01*
X015563Y005397D02*
X015023Y005397D01*
X015023Y006447D01*
X015563Y006447D01*
X015563Y005397D01*
X016980Y005300D02*
X016980Y004760D01*
X018030Y004760D01*
X018030Y005300D01*
X016980Y005300D01*
X018380Y005310D02*
X018380Y005850D01*
X019430Y005850D01*
X019430Y005310D01*
X018380Y005310D01*
X019005Y005062D02*
X020454Y005062D01*
X020454Y004298D01*
X019005Y004298D01*
X019005Y005062D01*
X019530Y005310D02*
X019530Y005850D01*
X020580Y005850D01*
X020580Y005310D01*
X019530Y005310D01*
X020489Y006025D02*
X018520Y006025D01*
X018520Y007285D02*
X020489Y007285D01*
X021150Y006463D02*
X021892Y007205D01*
X022274Y006824D01*
X021532Y006081D01*
X021150Y006463D01*
X021992Y005785D02*
X022270Y006063D01*
X021992Y005785D02*
X022493Y005284D01*
X022871Y005117D02*
X023613Y005859D01*
X023995Y005477D01*
X023253Y004735D01*
X022871Y005117D01*
X022855Y005645D02*
X023077Y005868D01*
X023439Y006230D02*
X022938Y006731D01*
X022660Y006453D01*
X022680Y006667D02*
X022298Y007049D01*
X023041Y007791D01*
X023423Y007409D01*
X022680Y006667D01*
X023684Y007653D02*
X023302Y008035D01*
X024045Y008778D01*
X024427Y008396D01*
X023684Y007653D01*
X022105Y008560D02*
X021055Y008560D01*
X021055Y009100D01*
X022105Y009100D01*
X022105Y008560D01*
X022234Y009417D02*
X021184Y009417D01*
X021184Y009957D01*
X022234Y009957D01*
X022234Y009417D01*
X022490Y009423D02*
X022490Y009963D01*
X023540Y009963D01*
X023540Y009423D01*
X022490Y009423D01*
X022446Y010075D02*
X022448Y010085D01*
X022453Y010094D01*
X022461Y010101D01*
X022471Y010105D01*
X022481Y010105D01*
X022491Y010101D01*
X022499Y010094D01*
X022504Y010085D01*
X022506Y010075D01*
X022504Y010065D01*
X022499Y010056D01*
X022491Y010049D01*
X022481Y010045D01*
X022471Y010045D01*
X022461Y010049D01*
X022453Y010056D01*
X022448Y010065D01*
X022446Y010075D01*
X022465Y010172D02*
X022465Y010712D01*
X023515Y010712D01*
X023515Y010172D01*
X022465Y010172D01*
X022234Y010166D02*
X021184Y010166D01*
X021184Y010706D01*
X022234Y010706D01*
X022234Y010166D01*
X022421Y010824D02*
X022423Y010834D01*
X022428Y010843D01*
X022436Y010850D01*
X022446Y010854D01*
X022456Y010854D01*
X022466Y010850D01*
X022474Y010843D01*
X022479Y010834D01*
X022481Y010824D01*
X022479Y010814D01*
X022474Y010805D01*
X022466Y010798D01*
X022456Y010794D01*
X022446Y010794D01*
X022436Y010798D01*
X022428Y010805D01*
X022423Y010814D01*
X022421Y010824D01*
X022805Y010960D02*
X021755Y010960D01*
X021755Y011500D01*
X022805Y011500D01*
X022805Y010960D01*
X022831Y011149D02*
X022833Y011168D01*
X022838Y011187D01*
X022848Y011203D01*
X022860Y011218D01*
X022875Y011230D01*
X022891Y011240D01*
X022910Y011245D01*
X022929Y011247D01*
X022948Y011245D01*
X022967Y011240D01*
X022983Y011230D01*
X022998Y011218D01*
X023010Y011203D01*
X023020Y011187D01*
X023025Y011168D01*
X023027Y011149D01*
X023025Y011130D01*
X023020Y011111D01*
X023010Y011095D01*
X022998Y011080D01*
X022983Y011068D01*
X022967Y011058D01*
X022948Y011053D01*
X022929Y011051D01*
X022910Y011053D01*
X022891Y011058D01*
X022875Y011068D01*
X022860Y011080D01*
X022848Y011095D01*
X022838Y011111D01*
X022833Y011130D01*
X022831Y011149D01*
X023095Y011350D02*
X023095Y012610D01*
X022830Y012360D02*
X021780Y012360D01*
X021780Y012900D01*
X022830Y012900D01*
X022830Y012360D01*
X022830Y012200D02*
X022830Y011660D01*
X021780Y011660D01*
X021780Y012200D01*
X022830Y012200D01*
X023230Y013160D02*
X022180Y013160D01*
X022180Y013700D01*
X023230Y013700D01*
X023230Y013160D01*
X024273Y013030D02*
X024813Y013030D01*
X024813Y014080D01*
X024273Y014080D01*
X024273Y013030D01*
X024315Y012610D02*
X024315Y011350D01*
X024782Y011123D02*
X024782Y011663D01*
X025832Y011663D01*
X025832Y011123D01*
X024782Y011123D01*
X025022Y010359D02*
X025337Y010359D01*
X025849Y010359D02*
X025849Y009651D01*
X025455Y009651D01*
X024904Y009651D02*
X024510Y009651D01*
X024510Y010359D01*
X024830Y009500D02*
X023780Y009500D01*
X023780Y008960D01*
X024830Y008960D01*
X024830Y009500D01*
X024895Y011950D02*
X024895Y012344D01*
X024895Y011950D02*
X025604Y011950D01*
X026027Y012093D02*
X026027Y013143D01*
X026567Y013143D01*
X026567Y012093D01*
X026027Y012093D01*
X025604Y012462D02*
X025604Y012777D01*
X025604Y013289D02*
X024895Y013289D01*
X024895Y012895D01*
X024820Y014419D02*
X024280Y014419D01*
X024280Y015469D01*
X024820Y015469D01*
X024820Y014419D01*
X026305Y015530D02*
X027305Y015530D01*
X027305Y018530D01*
X026305Y018530D01*
X026305Y015530D01*
X026011Y016906D02*
X025248Y016906D01*
X025248Y018354D01*
X026011Y018354D01*
X026011Y016906D01*
X025050Y017105D02*
X024510Y017105D01*
X024510Y018155D01*
X025050Y018155D01*
X025050Y017105D01*
X025820Y018831D02*
X025438Y019213D01*
X026181Y019955D01*
X026563Y019574D01*
X025820Y018831D01*
X025320Y019453D02*
X025041Y019731D01*
X025320Y019453D02*
X025821Y019954D01*
X025999Y020329D02*
X025257Y021071D01*
X025639Y021453D01*
X026381Y020711D01*
X025999Y020329D01*
X025459Y020316D02*
X025236Y020538D01*
X024874Y020900D02*
X024373Y020399D01*
X024651Y020121D01*
X024446Y020170D02*
X024064Y019788D01*
X023321Y020531D01*
X023703Y020913D01*
X024446Y020170D01*
X023456Y021160D02*
X023074Y020778D01*
X022332Y021521D01*
X022713Y021903D01*
X023456Y021160D01*
X023523Y019119D02*
X021436Y019119D01*
X021633Y019040D02*
X021635Y019058D01*
X021641Y019074D01*
X021650Y019089D01*
X021663Y019102D01*
X021678Y019111D01*
X021694Y019117D01*
X021712Y019119D01*
X021730Y019117D01*
X021746Y019111D01*
X021761Y019102D01*
X021774Y019089D01*
X021783Y019074D01*
X021789Y019058D01*
X021791Y019040D01*
X021789Y019022D01*
X021783Y019006D01*
X021774Y018991D01*
X021761Y018978D01*
X021746Y018969D01*
X021730Y018963D01*
X021712Y018961D01*
X021694Y018963D01*
X021678Y018969D01*
X021663Y018978D01*
X021650Y018991D01*
X021641Y019006D01*
X021635Y019022D01*
X021633Y019040D01*
X020605Y020985D02*
X019555Y020985D01*
X019555Y021525D01*
X020605Y021525D01*
X020605Y020985D01*
X018880Y021255D02*
X018882Y021313D01*
X018888Y021371D01*
X018898Y021428D01*
X018912Y021484D01*
X018929Y021540D01*
X018950Y021594D01*
X018975Y021646D01*
X019004Y021697D01*
X019036Y021745D01*
X019071Y021791D01*
X019109Y021835D01*
X019150Y021876D01*
X019194Y021914D01*
X019240Y021949D01*
X019288Y021981D01*
X019339Y022010D01*
X019391Y022035D01*
X019445Y022056D01*
X019501Y022073D01*
X019557Y022087D01*
X019614Y022097D01*
X019672Y022103D01*
X019730Y022105D01*
X019788Y022103D01*
X019846Y022097D01*
X019903Y022087D01*
X019959Y022073D01*
X020015Y022056D01*
X020069Y022035D01*
X020121Y022010D01*
X020172Y021981D01*
X020220Y021949D01*
X020266Y021914D01*
X020310Y021876D01*
X020351Y021835D01*
X020389Y021791D01*
X020424Y021745D01*
X020456Y021697D01*
X020485Y021646D01*
X020510Y021594D01*
X020531Y021540D01*
X020548Y021484D01*
X020562Y021428D01*
X020572Y021371D01*
X020578Y021313D01*
X020580Y021255D01*
X020578Y021197D01*
X020572Y021139D01*
X020562Y021082D01*
X020548Y021026D01*
X020531Y020970D01*
X020510Y020916D01*
X020485Y020864D01*
X020456Y020813D01*
X020424Y020765D01*
X020389Y020719D01*
X020351Y020675D01*
X020310Y020634D01*
X020266Y020596D01*
X020220Y020561D01*
X020172Y020529D01*
X020121Y020500D01*
X020069Y020475D01*
X020015Y020454D01*
X019959Y020437D01*
X019903Y020423D01*
X019846Y020413D01*
X019788Y020407D01*
X019730Y020405D01*
X019672Y020407D01*
X019614Y020413D01*
X019557Y020423D01*
X019501Y020437D01*
X019445Y020454D01*
X019391Y020475D01*
X019339Y020500D01*
X019288Y020529D01*
X019240Y020561D01*
X019194Y020596D01*
X019150Y020634D01*
X019109Y020675D01*
X019071Y020719D01*
X019036Y020765D01*
X019004Y020813D01*
X018975Y020864D01*
X018950Y020916D01*
X018929Y020970D01*
X018912Y021026D01*
X018898Y021082D01*
X018888Y021139D01*
X018882Y021197D01*
X018880Y021255D01*
X018480Y023260D02*
X018480Y023800D01*
X019530Y023800D01*
X019530Y023260D01*
X018480Y023260D01*
X018130Y023260D02*
X017080Y023260D01*
X017080Y023800D01*
X018130Y023800D01*
X018130Y023260D01*
X019285Y023926D02*
X019679Y023926D01*
X019285Y023926D02*
X019285Y024634D01*
X019430Y025035D02*
X019430Y025575D01*
X020480Y025575D01*
X020480Y025035D01*
X019430Y025035D01*
X019797Y024634D02*
X020112Y024634D01*
X020624Y024634D02*
X020624Y023926D01*
X020230Y023926D01*
X020921Y023770D02*
X020921Y024820D01*
X021461Y024820D01*
X021461Y023770D01*
X020921Y023770D01*
X016675Y024155D02*
X016675Y023105D01*
X016135Y023105D01*
X016135Y024155D01*
X016675Y024155D01*
X014980Y023725D02*
X014980Y023185D01*
X013930Y023185D01*
X013930Y023725D01*
X014980Y023725D01*
X014249Y024126D02*
X013855Y024126D01*
X014249Y024126D02*
X014249Y024834D01*
X013737Y024834D02*
X013422Y024834D01*
X012910Y024834D02*
X012910Y024126D01*
X013304Y024126D01*
X013150Y023880D02*
X013150Y022830D01*
X012610Y022830D01*
X012610Y023880D01*
X013150Y023880D01*
X012254Y023201D02*
X011872Y022819D01*
X011129Y023562D01*
X011511Y023944D01*
X012254Y023201D01*
X011665Y022751D02*
X011387Y022473D01*
X011665Y022751D02*
X011164Y023252D01*
X010790Y023438D02*
X010048Y022696D01*
X009666Y023078D01*
X010408Y023820D01*
X010790Y023438D01*
X010802Y022890D02*
X010579Y022668D01*
X010217Y022306D02*
X010719Y021805D01*
X010997Y022083D01*
X010927Y021873D02*
X011308Y021491D01*
X010566Y020749D01*
X010184Y021130D01*
X010927Y021873D01*
X009954Y020909D02*
X010336Y020527D01*
X009593Y019785D01*
X009211Y020167D01*
X009954Y020909D01*
X012018Y019438D02*
X012018Y018898D01*
X013068Y018898D01*
X013068Y019438D01*
X012018Y019438D01*
X012018Y018669D02*
X013068Y018669D01*
X013068Y018129D01*
X012018Y018129D01*
X012018Y018669D01*
X011913Y018124D02*
X011373Y018124D01*
X011373Y017074D01*
X011913Y017074D01*
X011913Y018124D01*
X012018Y017919D02*
X012018Y017379D01*
X013068Y017379D01*
X013068Y017919D01*
X012018Y017919D01*
X012018Y017169D02*
X013068Y017169D01*
X013068Y016629D01*
X012018Y016629D01*
X012018Y017169D01*
X012018Y016419D02*
X013068Y016419D01*
X013068Y015879D01*
X012018Y015879D01*
X012018Y016419D01*
X011135Y016006D02*
X010151Y016006D01*
X010151Y016991D01*
X011135Y016991D01*
X011135Y016006D01*
X010836Y015475D02*
X010296Y015475D01*
X010296Y014425D01*
X010836Y014425D01*
X010836Y015475D01*
X011568Y015337D02*
X011568Y014797D01*
X012618Y014797D01*
X012618Y015337D01*
X011568Y015337D01*
X010980Y013921D02*
X010980Y013370D01*
X011413Y013331D02*
X011728Y013331D01*
X012161Y013370D02*
X012161Y013921D01*
X012540Y013385D02*
X013080Y013385D01*
X013080Y012335D01*
X012540Y012335D01*
X012540Y013385D01*
X012398Y012320D02*
X012400Y012330D01*
X012405Y012339D01*
X012413Y012346D01*
X012423Y012350D01*
X012433Y012350D01*
X012443Y012346D01*
X012451Y012339D01*
X012456Y012330D01*
X012458Y012320D01*
X012456Y012310D01*
X012451Y012301D01*
X012443Y012294D01*
X012433Y012290D01*
X012423Y012290D01*
X012413Y012294D01*
X012405Y012301D01*
X012400Y012310D01*
X012398Y012320D01*
X012540Y012160D02*
X013080Y012160D01*
X013080Y011110D01*
X012540Y011110D01*
X012540Y012160D01*
X014543Y013935D02*
X014545Y013960D01*
X014551Y013984D01*
X014560Y014006D01*
X014573Y014027D01*
X014589Y014046D01*
X014608Y014062D01*
X014629Y014075D01*
X014651Y014084D01*
X014675Y014090D01*
X014700Y014092D01*
X014725Y014090D01*
X014749Y014084D01*
X014771Y014075D01*
X014792Y014062D01*
X014811Y014046D01*
X014827Y014027D01*
X014840Y014006D01*
X014849Y013984D01*
X014855Y013960D01*
X014857Y013935D01*
X014855Y013910D01*
X014849Y013886D01*
X014840Y013864D01*
X014827Y013843D01*
X014811Y013824D01*
X014792Y013808D01*
X014771Y013795D01*
X014749Y013786D01*
X014725Y013780D01*
X014700Y013778D01*
X014675Y013780D01*
X014651Y013786D01*
X014629Y013795D01*
X014608Y013808D01*
X014589Y013824D01*
X014573Y013843D01*
X014560Y013864D01*
X014551Y013886D01*
X014545Y013910D01*
X014543Y013935D01*
X013912Y014407D02*
X013912Y014722D01*
X014227Y014722D01*
X013566Y017182D02*
X014944Y017182D01*
X015754Y017168D02*
X015754Y018218D01*
X016294Y018218D01*
X016294Y017168D01*
X015754Y017168D01*
X018272Y016244D02*
X018272Y015194D01*
X018812Y015194D01*
X018812Y016244D01*
X018272Y016244D01*
X018894Y016259D02*
X018896Y016269D01*
X018901Y016278D01*
X018909Y016285D01*
X018919Y016289D01*
X018929Y016289D01*
X018939Y016285D01*
X018947Y016278D01*
X018952Y016269D01*
X018954Y016259D01*
X018952Y016249D01*
X018947Y016240D01*
X018939Y016233D01*
X018929Y016229D01*
X018919Y016229D01*
X018909Y016233D01*
X018901Y016240D01*
X018896Y016249D01*
X018894Y016259D01*
X019029Y016235D02*
X019569Y016235D01*
X019569Y015185D01*
X019029Y015185D01*
X019029Y016235D01*
X019835Y015559D02*
X019835Y014851D01*
X020229Y014851D01*
X019897Y014722D02*
X019582Y014722D01*
X019897Y014722D02*
X019897Y014407D01*
X020780Y014851D02*
X021174Y014851D01*
X021174Y015559D01*
X021436Y015891D02*
X023523Y015891D01*
X020662Y015559D02*
X020347Y015559D01*
X014944Y020528D02*
X013566Y020528D01*
X011163Y018292D02*
X011163Y017505D01*
X010323Y017505D02*
X010323Y018292D01*
X010063Y018274D02*
X010063Y017224D01*
X009523Y017224D01*
X009523Y018274D01*
X010063Y018274D01*
X009418Y018019D02*
X009418Y017479D01*
X008368Y017479D01*
X008368Y018019D01*
X009418Y018019D01*
X009403Y017367D02*
X009405Y017377D01*
X009410Y017386D01*
X009418Y017393D01*
X009428Y017397D01*
X009438Y017397D01*
X009448Y017393D01*
X009456Y017386D01*
X009461Y017377D01*
X009463Y017367D01*
X009461Y017357D01*
X009456Y017348D01*
X009448Y017341D01*
X009438Y017337D01*
X009428Y017337D01*
X009418Y017341D01*
X009410Y017348D01*
X009405Y017357D01*
X009403Y017367D01*
X009418Y017269D02*
X009418Y016729D01*
X008368Y016729D01*
X008368Y017269D01*
X009418Y017269D01*
X009418Y016519D02*
X009418Y015979D01*
X008368Y015979D01*
X008368Y016519D01*
X009418Y016519D01*
X010265Y016833D02*
X010267Y016846D01*
X010273Y016858D01*
X010282Y016867D01*
X010293Y016874D01*
X010306Y016877D01*
X010319Y016876D01*
X010331Y016871D01*
X010341Y016863D01*
X010349Y016852D01*
X010353Y016840D01*
X010353Y016826D01*
X010349Y016814D01*
X010341Y016803D01*
X010331Y016795D01*
X010319Y016790D01*
X010306Y016789D01*
X010293Y016792D01*
X010282Y016799D01*
X010273Y016808D01*
X010267Y016820D01*
X010265Y016833D01*
X010172Y017336D02*
X010174Y017351D01*
X010179Y017364D01*
X010188Y017376D01*
X010199Y017386D01*
X010213Y017392D01*
X010227Y017395D01*
X010242Y017394D01*
X010256Y017389D01*
X010269Y017381D01*
X010279Y017371D01*
X010286Y017358D01*
X010290Y017343D01*
X010290Y017329D01*
X010286Y017314D01*
X010279Y017301D01*
X010269Y017291D01*
X010256Y017283D01*
X010242Y017278D01*
X010227Y017277D01*
X010213Y017280D01*
X010199Y017286D01*
X010188Y017296D01*
X010179Y017308D01*
X010174Y017321D01*
X010172Y017336D01*
X009320Y015486D02*
X008780Y015486D01*
X008780Y014436D01*
X009320Y014436D01*
X009320Y015486D01*
X007939Y015648D02*
X007939Y015254D01*
X007230Y015254D01*
X006820Y015405D02*
X006280Y015405D01*
X006280Y016455D01*
X006820Y016455D01*
X006820Y015405D01*
X007230Y015766D02*
X007230Y016081D01*
X007230Y016593D02*
X007939Y016593D01*
X007939Y016199D01*
X008799Y014054D02*
X009339Y014054D01*
X009339Y013004D01*
X008799Y013004D01*
X008799Y014054D01*
X013912Y009053D02*
X013912Y008738D01*
X014227Y008738D01*
X015430Y008150D02*
X015430Y007610D01*
X016480Y007610D01*
X016480Y008150D01*
X015430Y008150D01*
X012580Y007502D02*
X012580Y006962D01*
X011530Y006962D01*
X011530Y007502D01*
X012580Y007502D01*
X018550Y004099D02*
X018550Y003706D01*
X018550Y004099D02*
X019259Y004099D01*
X019259Y003587D02*
X019259Y003273D01*
X018550Y003154D02*
X018550Y002761D01*
X019259Y002761D01*
X019710Y002930D02*
X019710Y003980D01*
X020250Y003980D01*
X020250Y002930D01*
X019710Y002930D01*
X019582Y008738D02*
X019897Y008738D01*
X019897Y009053D01*
X029708Y016940D02*
X029708Y018515D01*
X032858Y018515D01*
X032858Y016940D01*
X029708Y016940D01*
X029525Y017155D02*
X028985Y017155D01*
X028985Y018205D01*
X029525Y018205D01*
X029525Y017155D01*
X033385Y016105D02*
X033385Y015055D01*
X033925Y015055D01*
X033925Y016105D01*
X033385Y016105D01*
X034230Y015700D02*
X034230Y015160D01*
X035280Y015160D01*
X035280Y015700D01*
X034230Y015700D01*
X034409Y014899D02*
X033700Y014899D01*
X033700Y014387D02*
X033700Y014073D01*
X033700Y013561D02*
X034409Y013561D01*
X034409Y013954D01*
X034409Y014506D02*
X034409Y014899D01*
X035780Y013350D02*
X035780Y012810D01*
X036830Y012810D01*
X036830Y013350D01*
X035780Y013350D01*
X034525Y012255D02*
X033985Y012255D01*
X033985Y011205D01*
X034525Y011205D01*
X034525Y012255D01*
X034430Y010400D02*
X033380Y010400D01*
X033380Y009860D01*
X034430Y009860D01*
X034430Y010400D01*
X035780Y017760D02*
X035780Y018300D01*
X036830Y018300D01*
X036830Y017760D01*
X035780Y017760D01*
X035030Y018210D02*
X035030Y018750D01*
X033980Y018750D01*
X033980Y018210D01*
X035030Y018210D01*
X014080Y025335D02*
X014080Y025875D01*
X013030Y025875D01*
X013030Y025335D01*
X014080Y025335D01*
M02*
