G75*
%MOIN*%
%OFA0B0*%
%FSLAX24Y24*%
%IPPOS*%
%LPD*%
%AMOC8*
5,1,8,0,0,1.08239X$1,22.5*
%
%ADD10C,0.0080*%
%ADD11R,0.0555X0.0555*%
%ADD12C,0.0555*%
%ADD13C,0.0440*%
%ADD14R,0.0555X0.0555*%
%ADD15C,0.0712*%
%ADD16C,0.1200*%
%ADD17R,0.0394X0.0866*%
%ADD18C,0.0476*%
%ADD19C,0.0555*%
%ADD20C,0.0400*%
%ADD21C,0.0436*%
%ADD22C,0.0160*%
%ADD23C,0.0240*%
%ADD24C,0.0100*%
D10*
X005768Y008412D02*
X005768Y020148D01*
X005914Y020415D01*
X006066Y020678D01*
X006225Y020937D01*
X006390Y021192D01*
X006561Y021444D01*
X006739Y021691D01*
X006922Y021933D01*
X007111Y022171D01*
X007305Y022405D01*
X007506Y022633D01*
X007712Y022857D01*
X007923Y023075D01*
X008139Y023289D01*
X008361Y023497D01*
X008588Y023699D01*
X008819Y023896D01*
X009055Y024088D01*
X009296Y024273D01*
X009541Y024453D01*
X009791Y024626D01*
X010044Y024794D01*
X010302Y024955D01*
X010563Y025110D01*
X010829Y025259D01*
X011097Y025401D01*
X011369Y025536D01*
X011645Y025665D01*
X011923Y025787D01*
X012204Y025903D01*
X012488Y026011D01*
X012775Y026112D01*
X013064Y026207D01*
X013355Y026294D01*
X013648Y026375D01*
X013943Y026448D01*
X014240Y026514D01*
X014538Y026573D01*
X014837Y026624D01*
X015138Y026668D01*
X015440Y026705D01*
X015742Y026735D01*
X016046Y026757D01*
X016349Y026772D01*
X016653Y026779D01*
X016957Y026779D01*
X017261Y026772D01*
X017564Y026757D01*
X017868Y026735D01*
X018170Y026705D01*
X018472Y026668D01*
X018773Y026624D01*
X019072Y026573D01*
X019370Y026514D01*
X019667Y026448D01*
X019962Y026375D01*
X020255Y026294D01*
X020546Y026207D01*
X020835Y026112D01*
X021122Y026011D01*
X021406Y025903D01*
X021687Y025787D01*
X021965Y025665D01*
X022241Y025536D01*
X022513Y025401D01*
X022781Y025259D01*
X023047Y025110D01*
X023308Y024955D01*
X023566Y024794D01*
X023819Y024626D01*
X024069Y024453D01*
X024314Y024273D01*
X024555Y024088D01*
X024791Y023896D01*
X025022Y023699D01*
X025249Y023497D01*
X025471Y023289D01*
X025687Y023075D01*
X025898Y022857D01*
X026104Y022633D01*
X026305Y022405D01*
X026499Y022171D01*
X026688Y021933D01*
X026871Y021691D01*
X027049Y021444D01*
X027220Y021192D01*
X027385Y020937D01*
X027544Y020678D01*
X027696Y020415D01*
X027842Y020148D01*
X027841Y020148D02*
X027841Y019497D01*
X033635Y019497D01*
X033635Y022252D01*
X035144Y022252D01*
X028714Y018709D02*
X027841Y018709D01*
X027841Y008412D01*
X032651Y008867D02*
X033635Y008867D01*
X033635Y006111D01*
X035144Y006111D01*
X032651Y008867D02*
X032651Y015953D01*
X028714Y015953D01*
X028714Y018709D01*
X035143Y022253D02*
X035336Y022019D01*
X035523Y021781D01*
X035704Y021539D01*
X035879Y021292D01*
X036048Y021041D01*
X036211Y020786D01*
X036367Y020528D01*
X036518Y020265D01*
X036662Y019999D01*
X036799Y019730D01*
X036930Y019457D01*
X037055Y019181D01*
X037172Y018903D01*
X037283Y018621D01*
X037387Y018337D01*
X037484Y018050D01*
X037574Y017762D01*
X037658Y017471D01*
X037734Y017178D01*
X037803Y016883D01*
X037864Y016587D01*
X037919Y016290D01*
X037966Y015991D01*
X038007Y015691D01*
X038039Y015390D01*
X038065Y015089D01*
X038083Y014787D01*
X038094Y014485D01*
X038098Y014182D01*
X038094Y013879D01*
X038083Y013577D01*
X038065Y013275D01*
X038039Y012974D01*
X038007Y012673D01*
X037966Y012373D01*
X037919Y012074D01*
X037864Y011777D01*
X037803Y011481D01*
X037734Y011186D01*
X037658Y010893D01*
X037574Y010602D01*
X037484Y010314D01*
X037387Y010027D01*
X037283Y009743D01*
X037172Y009461D01*
X037055Y009183D01*
X036930Y008907D01*
X036799Y008634D01*
X036662Y008365D01*
X036518Y008099D01*
X036367Y007836D01*
X036211Y007578D01*
X036048Y007323D01*
X035879Y007072D01*
X035704Y006825D01*
X035523Y006583D01*
X035336Y006345D01*
X035143Y006111D01*
X027842Y008412D02*
X027696Y008145D01*
X027544Y007882D01*
X027385Y007623D01*
X027220Y007368D01*
X027049Y007116D01*
X026871Y006869D01*
X026688Y006627D01*
X026499Y006389D01*
X026305Y006155D01*
X026104Y005927D01*
X025898Y005703D01*
X025687Y005485D01*
X025471Y005271D01*
X025249Y005063D01*
X025022Y004861D01*
X024791Y004664D01*
X024555Y004472D01*
X024314Y004287D01*
X024069Y004107D01*
X023819Y003934D01*
X023566Y003766D01*
X023308Y003605D01*
X023047Y003450D01*
X022781Y003301D01*
X022513Y003159D01*
X022241Y003024D01*
X021965Y002895D01*
X021687Y002773D01*
X021406Y002657D01*
X021122Y002549D01*
X020835Y002448D01*
X020546Y002353D01*
X020255Y002266D01*
X019962Y002185D01*
X019667Y002112D01*
X019370Y002046D01*
X019072Y001987D01*
X018773Y001936D01*
X018472Y001892D01*
X018170Y001855D01*
X017868Y001825D01*
X017564Y001803D01*
X017261Y001788D01*
X016957Y001781D01*
X016653Y001781D01*
X016349Y001788D01*
X016046Y001803D01*
X015742Y001825D01*
X015440Y001855D01*
X015138Y001892D01*
X014837Y001936D01*
X014538Y001987D01*
X014240Y002046D01*
X013943Y002112D01*
X013648Y002185D01*
X013355Y002266D01*
X013064Y002353D01*
X012775Y002448D01*
X012488Y002549D01*
X012204Y002657D01*
X011923Y002773D01*
X011645Y002895D01*
X011369Y003024D01*
X011097Y003159D01*
X010829Y003301D01*
X010563Y003450D01*
X010302Y003605D01*
X010044Y003766D01*
X009791Y003934D01*
X009541Y004107D01*
X009296Y004287D01*
X009055Y004472D01*
X008819Y004664D01*
X008588Y004861D01*
X008361Y005063D01*
X008139Y005271D01*
X007923Y005485D01*
X007712Y005703D01*
X007506Y005927D01*
X007305Y006155D01*
X007111Y006389D01*
X006922Y006627D01*
X006739Y006869D01*
X006561Y007116D01*
X006390Y007368D01*
X006225Y007623D01*
X006066Y007882D01*
X005914Y008145D01*
X005768Y008412D01*
D11*
X008755Y010180D03*
X008352Y013770D03*
X009801Y014740D03*
X015805Y022780D03*
X014805Y024280D03*
X017805Y024280D03*
X018805Y022780D03*
X025241Y014747D03*
X023792Y013776D03*
X016305Y005780D03*
X017305Y004280D03*
D12*
X016305Y004280D03*
X017305Y005780D03*
X017605Y007030D03*
X016605Y007030D03*
X015605Y007030D03*
X012805Y006405D03*
X011115Y007919D03*
X009404Y007581D03*
X009755Y010180D03*
X009755Y011180D03*
X008755Y011180D03*
X008755Y012180D03*
X009755Y012180D03*
X009801Y013740D03*
X008352Y014770D03*
X006805Y012530D03*
X006805Y011530D03*
X006805Y010530D03*
X012805Y004405D03*
X020586Y008011D03*
X021373Y008011D03*
X023190Y008594D03*
X023551Y006834D03*
X025241Y013747D03*
X023792Y014776D03*
X026805Y016030D03*
X026805Y017030D03*
X026805Y018030D03*
X024237Y020987D03*
X022512Y020662D03*
X017805Y022780D03*
X018805Y024280D03*
X015805Y024280D03*
X014805Y022780D03*
X010435Y019938D03*
X010086Y021710D03*
D13*
X019730Y021925D03*
X019730Y020588D03*
X020765Y012248D03*
X019840Y008392D03*
D14*
G36*
X022874Y007887D02*
X022483Y007496D01*
X022092Y007887D01*
X022483Y008278D01*
X022874Y007887D01*
G37*
G36*
X023867Y007541D02*
X024258Y007932D01*
X024649Y007541D01*
X024258Y007150D01*
X023867Y007541D01*
G37*
G36*
X010408Y008235D02*
X010017Y008626D01*
X010408Y009017D01*
X010799Y008626D01*
X010408Y008235D01*
G37*
G36*
X010112Y007265D02*
X010503Y006874D01*
X010112Y006483D01*
X009721Y006874D01*
X010112Y007265D01*
G37*
G36*
X023219Y020346D02*
X023610Y019955D01*
X023219Y019564D01*
X022828Y019955D01*
X023219Y020346D01*
G37*
G36*
X023530Y021303D02*
X023139Y021694D01*
X023530Y022085D01*
X023921Y021694D01*
X023530Y021303D01*
G37*
G36*
X010751Y020645D02*
X011142Y021036D01*
X011533Y020645D01*
X011142Y020254D01*
X010751Y020645D01*
G37*
G36*
X009770Y021003D02*
X009379Y020612D01*
X008988Y021003D01*
X009379Y021394D01*
X009770Y021003D01*
G37*
D15*
X012305Y020680D03*
X012305Y021780D03*
X015388Y021780D03*
X015388Y020680D03*
X018221Y020680D03*
X018221Y021780D03*
X021305Y021780D03*
X021305Y020680D03*
D16*
X026805Y011030D03*
X034620Y007784D03*
X034620Y020776D03*
X006805Y017530D03*
D17*
X014442Y017835D03*
X015230Y017835D03*
X016017Y017835D03*
X016805Y017835D03*
X017592Y017835D03*
X018379Y017835D03*
X019167Y017835D03*
X019167Y019725D03*
X018379Y019725D03*
X017592Y019725D03*
X016805Y019725D03*
X016017Y019725D03*
X015230Y019725D03*
X014442Y019725D03*
D18*
X035017Y017134D03*
X035017Y016426D03*
X036592Y016426D03*
X036592Y017134D03*
X036592Y012134D03*
X036592Y011426D03*
X035017Y011426D03*
X035017Y012134D03*
D19*
X035405Y014280D02*
X035960Y014280D01*
X034760Y009280D02*
X034205Y009280D01*
X034205Y019280D02*
X034760Y019280D01*
D20*
X009030Y006480D03*
X011005Y005430D03*
X012955Y007255D03*
X014555Y007655D03*
X014980Y008030D03*
X015055Y009580D03*
X015605Y010055D03*
X015130Y010555D03*
X015630Y010730D03*
X016255Y010580D03*
X016080Y009655D03*
X016805Y009355D03*
X017655Y009605D03*
X018105Y009355D03*
X019905Y007605D03*
X019505Y006530D03*
X020955Y005730D03*
X021255Y007180D03*
X022405Y008830D03*
X024005Y009855D03*
X024255Y010480D03*
X024530Y011955D03*
X023705Y011980D03*
X023005Y014280D03*
X021705Y015530D03*
X021080Y014955D03*
X020005Y015055D03*
X019255Y014055D03*
X018655Y014055D03*
X018005Y013630D03*
X016705Y013205D03*
X016505Y012380D03*
X016005Y012105D03*
X015305Y011930D03*
X014655Y011655D03*
X014530Y010305D03*
X012505Y008930D03*
X012105Y009330D03*
X011330Y009980D03*
X010705Y009680D03*
X010455Y012980D03*
X010555Y013780D03*
X011255Y015080D03*
X012580Y014330D03*
X012355Y013630D03*
X012980Y013680D03*
X013605Y014755D03*
X014130Y015205D03*
X012905Y015080D03*
X013380Y016455D03*
X014005Y016455D03*
X014830Y016930D03*
X013755Y017280D03*
X011743Y018399D03*
X011192Y018850D03*
X011305Y019630D03*
X010293Y018849D03*
X010743Y016699D03*
X009743Y015649D03*
X006755Y014730D03*
X006205Y013930D03*
X015255Y014030D03*
X015955Y016180D03*
X018405Y017030D03*
X019355Y017030D03*
X020355Y016730D03*
X019805Y017930D03*
X020355Y018280D03*
X019380Y018830D03*
X017455Y018655D03*
X016805Y018630D03*
X015555Y018755D03*
X016805Y020580D03*
X012030Y023905D03*
X012655Y024930D03*
X009080Y022355D03*
X018530Y025755D03*
X024730Y022030D03*
X024530Y019380D03*
X023855Y019405D03*
X022605Y018080D03*
X022755Y017280D03*
X023805Y015680D03*
X026630Y013880D03*
X029255Y016780D03*
X030255Y017830D03*
X031105Y017630D03*
X033055Y016880D03*
X033655Y016380D03*
X034455Y015980D03*
X034405Y017680D03*
X035355Y018480D03*
X029255Y018680D03*
X033605Y013130D03*
X035455Y013080D03*
X037405Y013080D03*
X033605Y010730D03*
X024530Y006580D03*
X018605Y004680D03*
X015455Y002780D03*
X014655Y005530D03*
X018080Y012405D03*
X019280Y012455D03*
D21*
X026805Y015080D03*
X019280Y021255D03*
X016655Y024380D03*
X017355Y025880D03*
X014255Y021555D03*
X007755Y018905D03*
X023930Y023505D03*
X026055Y006880D03*
X018055Y002380D03*
X009605Y005230D03*
D22*
X014830Y016930D02*
X014830Y018930D01*
X014630Y018930D01*
X014442Y019117D01*
X014442Y019725D01*
X015230Y019725D02*
X015230Y019255D01*
X014930Y018930D01*
X014830Y018930D01*
X015230Y018430D02*
X015555Y018755D01*
X015230Y018430D02*
X015230Y017835D01*
X014455Y017823D02*
X014455Y017530D01*
X014455Y017823D02*
X014442Y017835D01*
X018379Y017835D02*
X018405Y017810D01*
X018405Y017030D01*
X019167Y017218D02*
X019355Y017030D01*
X019167Y017218D02*
X019167Y017835D01*
X019805Y017930D02*
X019805Y019087D01*
X019167Y019725D01*
X018379Y019725D02*
X018379Y019205D01*
X018755Y018830D01*
X019380Y018830D01*
X018379Y019725D02*
X018355Y019700D01*
D23*
X014455Y017530D02*
X014205Y017280D01*
X013755Y017280D01*
X012248Y017649D02*
X011298Y016699D01*
X010743Y016699D01*
X012248Y017649D02*
X012248Y019616D01*
X014187Y021555D01*
X014255Y021555D01*
D24*
X016017Y019725D02*
X016017Y018718D01*
X015630Y018330D01*
X015630Y017330D01*
X017280Y015680D01*
X017280Y013205D01*
X018080Y012405D01*
X018605Y012455D02*
X017530Y013530D01*
X017530Y015730D01*
X016017Y017242D01*
X016017Y017835D01*
X016805Y017835D02*
X016805Y018630D01*
X017455Y018655D02*
X017592Y018517D01*
X017592Y017835D01*
X016455Y016180D02*
X015955Y016180D01*
X016455Y016180D02*
X017030Y015605D01*
X017030Y013530D01*
X016705Y013205D01*
X016705Y012805D02*
X017555Y011955D01*
X019530Y011955D01*
X019780Y012205D01*
X019780Y013530D01*
X019255Y014055D01*
X019255Y014430D01*
X020530Y015155D02*
X021055Y015680D01*
X021055Y019830D01*
X020780Y020105D01*
X019630Y020105D01*
X019055Y020680D01*
X018221Y020680D01*
X016805Y020580D02*
X016805Y019725D01*
X014005Y016455D02*
X014630Y015830D01*
X014630Y014155D01*
X015980Y012805D01*
X016705Y012805D01*
X016730Y012380D02*
X016505Y012380D01*
X016730Y012380D02*
X017405Y011705D01*
X019605Y011705D01*
X020630Y012730D01*
X020530Y012830D01*
X020530Y015155D01*
X021255Y015405D02*
X021480Y015180D01*
X021480Y012280D01*
X020680Y011480D01*
X017305Y011480D01*
X016805Y011980D01*
X016130Y011980D01*
X016005Y012105D01*
X015505Y011730D02*
X016705Y011730D01*
X017205Y011230D01*
X020805Y011230D01*
X021705Y012130D01*
X021705Y015530D01*
X021255Y015405D02*
X021255Y020630D01*
X021305Y020680D01*
X023855Y019405D02*
X024305Y018955D01*
X024305Y013380D01*
X023780Y012855D01*
X023155Y012855D01*
X021030Y010730D01*
X017030Y010730D01*
X016505Y011255D01*
X015555Y011255D01*
X015130Y010830D01*
X015130Y010555D01*
X015630Y010730D02*
X015905Y011005D01*
X016405Y011005D01*
X016930Y010480D01*
X021130Y010480D01*
X023280Y012630D01*
X023880Y012630D01*
X024530Y013280D01*
X024530Y019380D01*
X026805Y018030D02*
X027355Y017480D01*
X027355Y012880D01*
X025930Y011455D01*
X025930Y010405D01*
X022830Y007305D01*
X022030Y007305D01*
X021780Y007555D01*
X019955Y007555D01*
X019905Y007605D01*
X019230Y008805D02*
X018055Y009980D01*
X016880Y009980D01*
X015755Y008855D01*
X014830Y008855D01*
X014505Y008530D01*
X012030Y008530D01*
X011680Y008880D01*
X011680Y009730D01*
X011880Y009930D01*
X011880Y013005D01*
X011255Y013630D01*
X011255Y015080D01*
X011655Y015605D02*
X012555Y014705D01*
X012930Y014705D01*
X013805Y013830D01*
X013805Y010730D01*
X014230Y010305D01*
X014530Y010305D01*
X014830Y011480D02*
X014655Y011655D01*
X014830Y011480D02*
X016630Y011480D01*
X017130Y010980D01*
X020930Y010980D01*
X023005Y013055D01*
X023005Y014280D01*
X023380Y012405D02*
X023955Y012405D01*
X024405Y011955D01*
X024530Y011955D01*
X023705Y011980D02*
X023705Y010655D01*
X021780Y008805D01*
X019230Y008805D01*
X018105Y009355D02*
X018105Y007530D01*
X017605Y007030D01*
X017655Y006330D02*
X015255Y006330D01*
X014555Y007030D01*
X014555Y007655D01*
X014980Y008030D02*
X011830Y008030D01*
X010280Y009580D01*
X010280Y011655D01*
X009755Y012180D01*
X010905Y013180D02*
X010555Y013530D01*
X010555Y013780D01*
X010905Y013180D02*
X010905Y010405D01*
X011330Y009980D01*
X010705Y009680D02*
X010705Y009505D01*
X011930Y008280D01*
X014580Y008280D01*
X014905Y008605D01*
X016080Y008605D01*
X016205Y008730D01*
X016805Y009355D01*
X017655Y009605D02*
X017655Y008080D01*
X016605Y007030D01*
X017655Y006330D02*
X017955Y006030D01*
X020555Y006030D01*
X021255Y006580D01*
X021255Y007180D01*
X021205Y010230D02*
X023380Y012405D01*
X021205Y010230D02*
X016605Y010230D01*
X016255Y010580D01*
X015505Y011730D02*
X015305Y011930D01*
X012980Y013680D02*
X012505Y013205D01*
X012530Y008955D01*
X012505Y008930D01*
X012105Y009330D02*
X012105Y013105D01*
X011880Y013330D01*
X011880Y013980D01*
X012230Y014330D01*
X012580Y014330D01*
X013605Y014755D02*
X013605Y015230D01*
X012780Y016055D01*
X010630Y016055D01*
X010330Y016355D01*
X010330Y017010D01*
X011743Y018399D01*
X009855Y020305D02*
X009855Y016430D01*
X010680Y015605D01*
X011655Y015605D01*
X009855Y020305D02*
X010880Y021330D01*
X010880Y022755D01*
X012030Y023905D01*
X018605Y012455D02*
X019280Y012455D01*
X030255Y017130D02*
X030255Y017830D01*
X030255Y017130D02*
X031005Y016380D01*
X033655Y016380D01*
X033055Y016880D02*
X031805Y016880D01*
X031105Y017630D01*
X034405Y017680D02*
X035405Y017680D01*
X035805Y017280D01*
X035805Y015530D01*
X036555Y014780D01*
X036555Y013930D01*
X037405Y013080D01*
M02*
