%
M48
M72
T01C0.0200
T02C0.0236
T03C0.0315
T04C0.0800
%
T01
X10060Y10380
X11397Y10380
X13380Y12330
X14680Y13980
X15880Y13880
X17280Y15230
X17880Y14680
X18980Y16380
X20030Y17280
X19780Y20430
X19780Y21530
X21030Y20380
X18080Y20830
X15880Y20480
X15730Y18030
X16080Y16380
X15730Y15930
X14730Y16380
X12880Y17380
X11880Y17230
X10730Y17180
X9380Y17630
X7830Y16580
X7830Y15680
X7831Y14781
X7430Y14230
X6230Y12680
X7405Y12505
X9380Y14680
X7480Y17880
X5730Y15230
X4580Y16980
X13480Y6680
X17280Y10380
X15030Y11030
X20930Y13930
T02
X22156Y15672
X20680Y15780
X21480Y11780
X17130Y9180
X16180Y6980
X12630Y7630
X12080Y8530
X12730Y10030
X13880Y11130
X14280Y10730
X13480Y11580
X14230Y13180
X14830Y12880
X15430Y12380
X16580Y11530
X14030Y15480
X13530Y15980
X13080Y15480
X11930Y14080
X11380Y14430
X10880Y12980
X11130Y12130
X10280Y12230
X10730Y9930
X6980Y10430
X4780Y12330
X10230Y18880
X9430Y19180
X7180Y19830
X9430Y21980
X10430Y22280
X13280Y24380
X16830Y22180
X17330Y21780
X17730Y24480
X14630Y17230
X8980Y25280
X6230Y22230
X21030Y6480
X10630Y4330
T03
X5080Y8847
X4580Y9713
X5820Y10463
X6320Y9597
X12930Y5780
X13930Y5780
X13930Y4280
X12930Y4280
X16330Y5630
X18330Y5630
X21780Y8847
X22280Y9713
X21040Y10463
X20540Y9597
X19330Y9980
X19330Y10980
X19330Y11980
X18330Y11980
X18330Y10980
X18330Y9980
X19380Y13330
X19380Y14330
X19380Y15330
X21066Y18102
X20566Y18968
X21817Y19701
X22317Y18835
X18380Y21780
X15430Y22780
X14430Y22780
X13430Y21780
X12430Y22780
X11430Y22780
X11430Y24280
X12430Y24280
X14430Y24280
X15430Y24280
X15399Y19674
X15399Y18886
X14611Y18886
X13824Y18886
X13824Y19674
X14611Y19674
X13036Y19674
X12249Y19674
X11461Y19674
X11461Y18886
X12249Y18886
X13036Y18886
X8430Y21780
X6320Y18963
X5820Y18097
X4580Y18847
X5080Y19713
T04
X3430Y14280
X23430Y14280
M30
