%
M48
M72
T01C0.0200
T02C0.0236
T03C0.0315
T04C0.0800
%
T01
X9560Y10380
X10897Y10380
X13380Y12330
X14680Y13980
X15030Y11030
X17280Y10380
X20680Y13730
T02
X4030Y7680
X3480Y8580
X4930Y12080
X6980Y10430
X7330Y12580
X9280Y12730
X10180Y12230
X11130Y12130
X11930Y14080
X11380Y14430
X9830Y15280
X8730Y14580
X6530Y15880
X7980Y17480
X8580Y17230
X9480Y18780
X9080Y19230
X7080Y19830
X6030Y21630
X8780Y25130
X10430Y22280
X9730Y21730
X13280Y24380
X15880Y24730
X17430Y24380
X18930Y24730
X20630Y23630
X22430Y21230
X23380Y19230
X22556Y16722
X19830Y15380
X19380Y16830
X17230Y17480
X17130Y18630
X15980Y17080
X15980Y16430
X16030Y15680
X14280Y15430
X13880Y15980
X13480Y15430
X13230Y16930
X14630Y17530
X15880Y13880
X14830Y12880
X15430Y12380
X16580Y11530
X14280Y10730
X13880Y11130
X13480Y11580
X14230Y13180
X12730Y10030
X12080Y8530
X12630Y7630
X10230Y9930
X10930Y4330
X13380Y3780
X14580Y3780
X16780Y6480
X17130Y9180
X20430Y11180
X23380Y10380
X23380Y9280
X21180Y6980
X16830Y21330
X17330Y21780
X4730Y17730
T03
X4580Y18847
X5080Y19713
X6320Y18963
X5820Y18097
X8430Y21780
X11430Y22780
X12430Y22780
X13430Y21780
X14430Y22780
X15430Y22780
X15430Y24280
X14430Y24280
X12430Y24280
X11430Y24280
X11461Y19674
X11461Y18886
X12249Y18886
X13036Y18886
X13036Y19674
X12249Y19674
X13824Y19674
X14611Y19674
X15399Y19674
X15399Y18886
X14611Y18886
X13824Y18886
X18380Y21780
X20566Y18968
X21066Y18102
X22317Y18835
X21817Y19701
X18830Y15330
X18830Y14330
X18830Y13330
X18330Y12030
X18330Y11030
X18330Y10030
X19330Y10030
X19330Y11030
X19330Y12030
X21040Y10463
X20540Y9597
X21780Y8847
X22280Y9713
X18780Y5630
X16780Y5630
X13930Y5780
X12930Y5780
X12930Y4280
X13930Y4280
X6320Y9597
X5820Y10463
X4580Y9713
X5080Y8847
T04
X3430Y14280
X23430Y14280
M30
