G75*
G70*
%OFA0B0*%
%FSLAX24Y24*%
%IPPOS*%
%LPD*%
%AMOC8*
5,1,8,0,0,1.08239X$1,22.5*
%
%ADD10R,0.0555X0.0555*%
%ADD11C,0.0555*%
%ADD12C,0.0440*%
%ADD13R,0.0555X0.0555*%
%ADD14C,0.1200*%
%ADD15C,0.0120*%
%ADD16C,0.0100*%
%ADD17C,0.0436*%
%ADD18C,0.0160*%
%ADD19C,0.0400*%
D10*
X012930Y005780D03*
X013930Y004280D03*
X018330Y010030D03*
X015430Y022780D03*
X014430Y024280D03*
X012430Y022780D03*
X011430Y024280D03*
D11*
X012430Y024280D03*
X011430Y022780D03*
X013430Y021780D03*
X014430Y022780D03*
X015430Y024280D03*
X018380Y021780D03*
X020566Y018968D03*
X022317Y018835D03*
X018830Y015330D03*
X018830Y014330D03*
X018830Y013330D03*
X018330Y012030D03*
X018330Y011030D03*
X019330Y011030D03*
X019330Y012030D03*
X021040Y010463D03*
X019330Y010030D03*
X021780Y008847D03*
X018780Y005630D03*
X016780Y005630D03*
X013930Y005780D03*
X012930Y004280D03*
X006320Y009597D03*
X004580Y009713D03*
X005820Y018097D03*
X005080Y019713D03*
X008430Y021780D03*
X011461Y019674D03*
X011461Y018886D03*
X012249Y018886D03*
X013036Y018886D03*
X013036Y019674D03*
X012249Y019674D03*
X013824Y019674D03*
X014611Y019674D03*
X015399Y019674D03*
X015399Y018886D03*
X014611Y018886D03*
X013824Y018886D03*
D12*
X010897Y010380D03*
X009560Y010380D03*
D13*
G36*
X005719Y010085D02*
X005442Y010564D01*
X005921Y010841D01*
X006198Y010362D01*
X005719Y010085D01*
G37*
G36*
X005181Y009225D02*
X005458Y008746D01*
X004979Y008469D01*
X004702Y008948D01*
X005181Y009225D01*
G37*
G36*
X004958Y018948D02*
X004681Y018469D01*
X004202Y018746D01*
X004479Y019225D01*
X004958Y018948D01*
G37*
G36*
X005942Y018862D02*
X006219Y019341D01*
X006698Y019064D01*
X006421Y018585D01*
X005942Y018862D01*
G37*
G36*
X020918Y009698D02*
X020641Y009219D01*
X020162Y009496D01*
X020439Y009975D01*
X020918Y009698D01*
G37*
G36*
X021902Y009612D02*
X022179Y010091D01*
X022658Y009814D01*
X022381Y009335D01*
X021902Y009612D01*
G37*
G36*
X021167Y018480D02*
X021444Y018001D01*
X020965Y017724D01*
X020688Y018203D01*
X021167Y018480D01*
G37*
G36*
X021716Y019323D02*
X021439Y019802D01*
X021918Y020079D01*
X022195Y019600D01*
X021716Y019323D01*
G37*
D14*
X023430Y014280D03*
X003430Y014280D03*
D15*
X004430Y013730D02*
X004430Y014830D01*
X003080Y016180D01*
X003080Y017380D01*
X004547Y018847D01*
X004430Y013730D02*
X003080Y012380D01*
X003080Y008130D01*
X003205Y007955D01*
X005080Y008847D01*
X003205Y007955D02*
X007780Y003380D01*
X013930Y003380D01*
X013930Y004280D01*
X013930Y003380D02*
X019180Y003430D01*
X023780Y008030D01*
X023780Y009680D01*
X022280Y009713D01*
X023780Y009680D02*
X023780Y012480D01*
X022480Y013780D01*
X022480Y014780D01*
X023780Y016080D01*
X023780Y019730D01*
X023780Y020530D01*
X020630Y023630D01*
X019130Y025130D01*
X015280Y025130D01*
X012280Y025130D01*
X011430Y024280D01*
X012430Y022780D02*
X012249Y022599D01*
X012249Y021299D01*
X011230Y020280D01*
X011980Y020280D01*
X012249Y020011D01*
X012249Y019674D01*
X021817Y019701D02*
X023780Y019730D01*
D16*
X023380Y019230D02*
X023380Y015980D01*
X022280Y014880D01*
X022280Y013680D01*
X023380Y012580D01*
X023380Y010380D01*
X023380Y009280D02*
X023380Y007980D01*
X019180Y003780D01*
X014580Y003780D01*
X013380Y003780D02*
X013280Y003680D01*
X008030Y003680D01*
X004030Y007680D01*
X003480Y008580D02*
X003480Y012430D01*
X004680Y013630D01*
X004680Y014930D01*
X003330Y016280D01*
X003330Y017230D01*
X003830Y017730D01*
X004730Y017730D01*
X004580Y018847D02*
X004547Y018847D01*
X007080Y019830D02*
X007080Y017480D01*
X010180Y014330D01*
X010180Y012230D01*
X011130Y012130D02*
X009560Y010560D01*
X009560Y010380D01*
X009560Y008050D01*
X010780Y006830D01*
X015580Y006830D01*
X016780Y005630D01*
X017130Y009180D02*
X013030Y009180D01*
X012330Y009880D01*
X012330Y010230D01*
X012380Y010280D01*
X012380Y013630D01*
X011930Y014080D01*
X011380Y013980D02*
X011380Y014430D01*
X011380Y013980D02*
X012130Y013230D01*
X012130Y010380D01*
X012080Y010330D01*
X012080Y008530D01*
X012730Y010030D02*
X012630Y010130D01*
X012630Y015330D01*
X013780Y016480D01*
X013780Y017580D01*
X014630Y018430D01*
X015630Y018430D01*
X015880Y018680D01*
X015880Y019930D01*
X015680Y020130D01*
X014280Y020130D01*
X013824Y019674D01*
X016380Y017480D02*
X015980Y017080D01*
X016380Y017480D02*
X017230Y017480D01*
X015980Y016430D02*
X015480Y015930D01*
X015480Y015030D01*
X015880Y014630D01*
X015880Y013880D01*
X016180Y013180D02*
X015080Y013180D01*
X015030Y013230D01*
X014630Y013230D01*
X014580Y013180D01*
X014230Y013180D01*
X014280Y012580D02*
X013330Y013530D01*
X013330Y014430D01*
X014280Y015380D01*
X014280Y015430D01*
X013880Y015280D02*
X013880Y015980D01*
X013480Y015430D02*
X012930Y014880D01*
X012930Y013330D01*
X013780Y012480D01*
X013780Y011880D01*
X013480Y011580D01*
X013880Y011130D02*
X014030Y011280D01*
X014030Y012530D01*
X013130Y013430D01*
X013130Y014530D01*
X013880Y015280D01*
X013230Y016930D02*
X013230Y016980D01*
X016830Y020580D02*
X018130Y019280D01*
X018130Y016180D01*
X017430Y015480D01*
X017430Y014430D01*
X016180Y013180D01*
X016180Y012880D02*
X017630Y014330D01*
X017630Y015380D01*
X018380Y016130D01*
X018380Y019330D01*
X017330Y020380D01*
X017330Y021780D01*
X016830Y021330D02*
X016830Y020580D01*
X014430Y024280D02*
X015280Y025130D01*
X015880Y024730D02*
X018930Y024730D01*
X022430Y021230D01*
X019830Y015380D02*
X019580Y015130D01*
X019580Y012880D01*
X019380Y012680D01*
X017880Y012680D01*
X017580Y012380D01*
X015430Y012380D01*
X014830Y012880D02*
X016180Y012880D01*
X016580Y011530D02*
X020080Y011530D01*
X020430Y011180D01*
X018330Y011030D02*
X017930Y011030D01*
X017280Y010380D01*
X014280Y010730D02*
X014280Y012580D01*
X009280Y012730D02*
X006980Y010430D01*
X007330Y012580D02*
X007330Y013180D01*
X008730Y014580D01*
X004930Y012130D02*
X004930Y012080D01*
X009480Y018780D02*
X009480Y020980D01*
X010080Y021580D01*
X010080Y021930D01*
X010430Y022280D01*
X009730Y021730D02*
X009080Y021080D01*
X009080Y019230D01*
D17*
X009080Y019230D03*
X009480Y018780D03*
X008580Y017230D03*
X007980Y017480D03*
X006530Y015880D03*
X004730Y017730D03*
X007080Y019830D03*
X006030Y021630D03*
X008780Y025130D03*
X010430Y022280D03*
X009730Y021730D03*
X013280Y024380D03*
X015880Y024730D03*
X017430Y024380D03*
X018930Y024730D03*
X020630Y023630D03*
X022430Y021230D03*
X023380Y019230D03*
X022556Y016722D03*
X019830Y015380D03*
X019380Y016830D03*
X017230Y017480D03*
X017130Y018630D03*
X015980Y017080D03*
X015980Y016430D03*
X016030Y015680D03*
X014280Y015430D03*
X013880Y015980D03*
X013480Y015430D03*
X013230Y016930D03*
X014630Y017530D03*
X011930Y014080D03*
X011380Y014430D03*
X009830Y015280D03*
X008730Y014580D03*
X009280Y012730D03*
X010180Y012230D03*
X011130Y012130D03*
X010230Y009930D03*
X012080Y008530D03*
X012630Y007630D03*
X012730Y010030D03*
X013880Y011130D03*
X014280Y010730D03*
X013480Y011580D03*
X014230Y013180D03*
X014830Y012880D03*
X015430Y012380D03*
X016580Y011530D03*
X015880Y013880D03*
X017130Y009180D03*
X016780Y006480D03*
X014580Y003780D03*
X013380Y003780D03*
X010930Y004330D03*
X006980Y010430D03*
X007330Y012580D03*
X004930Y012080D03*
X003480Y008580D03*
X004030Y007680D03*
X016830Y021330D03*
X017330Y021780D03*
X020430Y011180D03*
X023380Y010380D03*
X023380Y009280D03*
X021180Y006980D03*
D18*
X012453Y006060D02*
X006004Y006060D01*
X005846Y006218D02*
X012530Y006218D01*
X012570Y006257D02*
X012453Y006140D01*
X012453Y005420D01*
X012570Y005303D01*
X013290Y005303D01*
X013407Y005420D01*
X013407Y006140D01*
X013290Y006257D01*
X012570Y006257D01*
X012453Y005901D02*
X006163Y005901D01*
X006321Y005743D02*
X012453Y005743D01*
X012453Y005584D02*
X006480Y005584D01*
X006638Y005426D02*
X012453Y005426D01*
X012660Y004685D02*
X012525Y004550D01*
X012453Y004375D01*
X012453Y004185D01*
X012525Y004010D01*
X012605Y003930D01*
X008134Y003930D01*
X004448Y007615D01*
X004448Y007763D01*
X004384Y007917D01*
X004267Y008034D01*
X004113Y008098D01*
X004111Y008098D01*
X004778Y008415D01*
X004847Y008296D01*
X005007Y008253D01*
X005631Y008614D01*
X005674Y008774D01*
X005313Y009398D01*
X005153Y009441D01*
X004529Y009080D01*
X004486Y008920D01*
X004517Y008867D01*
X003898Y008573D01*
X003898Y008663D01*
X003834Y008817D01*
X003730Y008921D01*
X003730Y012326D01*
X004822Y013418D01*
X004892Y013488D01*
X004930Y013580D01*
X004930Y014980D01*
X004892Y015072D01*
X004822Y015142D01*
X004822Y015142D01*
X003580Y016384D01*
X003580Y017126D01*
X003934Y017480D01*
X004389Y017480D01*
X004493Y017376D01*
X004647Y017312D01*
X004813Y017312D01*
X004967Y017376D01*
X005084Y017493D01*
X005148Y017647D01*
X005148Y017813D01*
X005084Y017967D01*
X004967Y018084D01*
X004813Y018148D01*
X004647Y018148D01*
X004493Y018084D01*
X004389Y017980D01*
X004048Y017980D01*
X004443Y018375D01*
X004653Y018253D01*
X004813Y018296D01*
X005174Y018920D01*
X005131Y019080D01*
X004507Y019441D01*
X004347Y019398D01*
X003986Y018774D01*
X004012Y018679D01*
X002880Y017548D01*
X002880Y020493D01*
X003355Y021266D01*
X004185Y022332D01*
X005127Y023300D01*
X006169Y024159D01*
X007300Y024897D01*
X008505Y025507D01*
X009770Y025981D01*
X011080Y026313D01*
X012418Y026498D01*
X013768Y026535D01*
X015114Y026424D01*
X016440Y026165D01*
X017729Y025762D01*
X018576Y025390D01*
X012228Y025390D01*
X012133Y025350D01*
X012060Y025277D01*
X011540Y024757D01*
X011070Y024757D01*
X010953Y024640D01*
X010953Y023920D01*
X011070Y023803D01*
X011790Y023803D01*
X011907Y023920D01*
X011907Y024390D01*
X011995Y024477D01*
X011953Y024375D01*
X011953Y024185D01*
X012025Y024010D01*
X012160Y023875D01*
X012335Y023803D01*
X012525Y023803D01*
X012700Y023875D01*
X012835Y024010D01*
X012907Y024185D01*
X012907Y024375D01*
X012835Y024550D01*
X012700Y024685D01*
X012525Y024757D01*
X012335Y024757D01*
X012233Y024715D01*
X012388Y024870D01*
X014666Y024870D01*
X014554Y024757D01*
X014070Y024757D01*
X013953Y024640D01*
X013953Y023920D01*
X014070Y023803D01*
X014790Y023803D01*
X014907Y023920D01*
X014907Y024404D01*
X015005Y024501D01*
X014953Y024375D01*
X014953Y024185D01*
X015025Y024010D01*
X015160Y023875D01*
X015335Y023803D01*
X015525Y023803D01*
X015700Y023875D01*
X015835Y024010D01*
X015907Y024185D01*
X015907Y024312D01*
X015963Y024312D01*
X016117Y024376D01*
X016221Y024480D01*
X018589Y024480D01*
X018693Y024376D01*
X018847Y024312D01*
X018995Y024312D01*
X022012Y021295D01*
X022012Y021147D01*
X022076Y020993D01*
X022193Y020876D01*
X022347Y020812D01*
X022513Y020812D01*
X022667Y020876D01*
X022784Y020993D01*
X022829Y021101D01*
X023520Y020421D01*
X023520Y019986D01*
X022215Y019967D01*
X022050Y020252D01*
X021890Y020295D01*
X021266Y019935D01*
X021223Y019775D01*
X021584Y019151D01*
X021744Y019108D01*
X022335Y019449D01*
X023022Y019459D01*
X022962Y019313D01*
X022962Y019147D01*
X023026Y018993D01*
X023130Y018889D01*
X023130Y016084D01*
X022138Y015092D01*
X022068Y015022D01*
X022030Y014930D01*
X022030Y013630D01*
X022068Y013538D01*
X023130Y012476D01*
X023130Y010721D01*
X023026Y010617D01*
X022962Y010463D01*
X022962Y010297D01*
X023026Y010143D01*
X023143Y010026D01*
X023297Y009962D01*
X023463Y009962D01*
X023520Y009985D01*
X023520Y009946D01*
X022805Y009962D01*
X022207Y010307D01*
X022047Y010264D01*
X021686Y009640D01*
X021729Y009480D01*
X022353Y009119D01*
X022513Y009162D01*
X022676Y009444D01*
X022993Y009437D01*
X022962Y009363D01*
X022962Y009197D01*
X023026Y009043D01*
X023130Y008939D01*
X023130Y008084D01*
X019076Y004030D01*
X014921Y004030D01*
X014817Y004134D01*
X014663Y004198D01*
X014497Y004198D01*
X014407Y004161D01*
X014407Y004640D01*
X014290Y004757D01*
X013570Y004757D01*
X013453Y004640D01*
X013453Y004198D01*
X013407Y004198D01*
X013407Y004375D01*
X013335Y004550D01*
X013200Y004685D01*
X013025Y004757D01*
X012835Y004757D01*
X012660Y004685D01*
X012608Y004633D02*
X007431Y004633D01*
X007589Y004475D02*
X012494Y004475D01*
X012453Y004316D02*
X007748Y004316D01*
X007906Y004158D02*
X012464Y004158D01*
X012536Y003999D02*
X008065Y003999D01*
X007272Y004792D02*
X019838Y004792D01*
X019996Y004950D02*
X007114Y004950D01*
X006955Y005109D02*
X020155Y005109D01*
X020313Y005267D02*
X019092Y005267D01*
X019050Y005225D02*
X019185Y005360D01*
X019257Y005535D01*
X019257Y005725D01*
X019185Y005900D01*
X019050Y006035D01*
X018875Y006107D01*
X018685Y006107D01*
X018510Y006035D01*
X018375Y005900D01*
X018303Y005725D01*
X018303Y005535D01*
X018375Y005360D01*
X018510Y005225D01*
X018685Y005153D01*
X018875Y005153D01*
X019050Y005225D01*
X019212Y005426D02*
X020472Y005426D01*
X020630Y005584D02*
X019257Y005584D01*
X019250Y005743D02*
X020789Y005743D01*
X020947Y005901D02*
X019184Y005901D01*
X018991Y006060D02*
X021106Y006060D01*
X021264Y006218D02*
X016546Y006218D01*
X016665Y006099D02*
X015792Y006972D01*
X015722Y007042D01*
X015630Y007080D01*
X010884Y007080D01*
X009810Y008154D01*
X009810Y010036D01*
X009916Y010142D01*
X009980Y010296D01*
X009980Y010464D01*
X009932Y010579D01*
X011065Y011712D01*
X011213Y011712D01*
X011367Y011776D01*
X011484Y011893D01*
X011548Y012047D01*
X011548Y012213D01*
X011484Y012367D01*
X011367Y012484D01*
X011213Y012548D01*
X011047Y012548D01*
X010893Y012484D01*
X010776Y012367D01*
X010712Y012213D01*
X010712Y012065D01*
X009425Y010779D01*
X009322Y010736D01*
X009204Y010618D01*
X009140Y010464D01*
X009140Y010296D01*
X009204Y010142D01*
X009310Y010036D01*
X009310Y008000D01*
X009348Y007908D01*
X009418Y007838D01*
X010638Y006618D01*
X010730Y006580D01*
X015476Y006580D01*
X016311Y005745D01*
X016303Y005725D01*
X016303Y005535D01*
X016375Y005360D01*
X016510Y005225D01*
X016685Y005153D01*
X016875Y005153D01*
X017050Y005225D01*
X017185Y005360D01*
X017257Y005535D01*
X017257Y005725D01*
X017185Y005900D01*
X017050Y006035D01*
X016875Y006107D01*
X016685Y006107D01*
X016665Y006099D01*
X016991Y006060D02*
X018569Y006060D01*
X018376Y005901D02*
X017184Y005901D01*
X017250Y005743D02*
X018310Y005743D01*
X018303Y005584D02*
X017257Y005584D01*
X017212Y005426D02*
X018348Y005426D01*
X018468Y005267D02*
X017092Y005267D01*
X016468Y005267D02*
X006797Y005267D01*
X005687Y006377D02*
X015680Y006377D01*
X015521Y006535D02*
X005529Y006535D01*
X005370Y006694D02*
X010563Y006694D01*
X010404Y006852D02*
X005212Y006852D01*
X005053Y007011D02*
X010246Y007011D01*
X010087Y007169D02*
X004895Y007169D01*
X004736Y007328D02*
X009929Y007328D01*
X009770Y007486D02*
X004578Y007486D01*
X004448Y007645D02*
X009612Y007645D01*
X009453Y007803D02*
X004432Y007803D01*
X004340Y007962D02*
X009326Y007962D01*
X009310Y008120D02*
X004157Y008120D01*
X004490Y008279D02*
X004913Y008279D01*
X005050Y008279D02*
X009310Y008279D01*
X009310Y008437D02*
X005325Y008437D01*
X005599Y008596D02*
X009310Y008596D01*
X009310Y008754D02*
X005668Y008754D01*
X005594Y008913D02*
X009310Y008913D01*
X009310Y009071D02*
X005502Y009071D01*
X005410Y009230D02*
X006012Y009230D01*
X006050Y009192D02*
X005915Y009327D01*
X005843Y009502D01*
X005843Y009692D01*
X005915Y009867D01*
X006050Y010002D01*
X006225Y010074D01*
X006415Y010074D01*
X006590Y010002D01*
X006725Y009867D01*
X006797Y009692D01*
X006797Y009502D01*
X006725Y009327D01*
X006590Y009192D01*
X006415Y009120D01*
X006225Y009120D01*
X006050Y009192D01*
X005890Y009388D02*
X005319Y009388D01*
X005062Y009388D02*
X004930Y009388D01*
X004985Y009443D02*
X004850Y009308D01*
X004675Y009236D01*
X004485Y009236D01*
X004310Y009308D01*
X004175Y009443D01*
X004103Y009618D01*
X004103Y009808D01*
X004175Y009983D01*
X004310Y010118D01*
X004485Y010190D01*
X004675Y010190D01*
X004850Y010118D01*
X004985Y009983D01*
X005057Y009808D01*
X005057Y009618D01*
X004985Y009443D01*
X005028Y009547D02*
X005843Y009547D01*
X005848Y009705D02*
X005057Y009705D01*
X005034Y009864D02*
X005914Y009864D01*
X005747Y009869D02*
X005587Y009912D01*
X005226Y010536D01*
X005269Y010696D01*
X005893Y011057D01*
X006053Y011014D01*
X006414Y010390D01*
X006371Y010230D01*
X005747Y009869D01*
X005523Y010022D02*
X004946Y010022D01*
X004699Y010181D02*
X005432Y010181D01*
X005340Y010339D02*
X003730Y010339D01*
X003730Y010181D02*
X004461Y010181D01*
X004214Y010022D02*
X003730Y010022D01*
X003730Y009864D02*
X004126Y009864D01*
X004103Y009705D02*
X003730Y009705D01*
X003730Y009547D02*
X004132Y009547D01*
X004230Y009388D02*
X003730Y009388D01*
X003730Y009230D02*
X004788Y009230D01*
X004527Y009071D02*
X003730Y009071D01*
X003739Y008913D02*
X004491Y008913D01*
X004279Y008754D02*
X003860Y008754D01*
X003898Y008596D02*
X003946Y008596D01*
X003730Y010498D02*
X005249Y010498D01*
X005258Y010656D02*
X003730Y010656D01*
X003730Y010815D02*
X005474Y010815D01*
X005748Y010973D02*
X003730Y010973D01*
X003730Y011132D02*
X007328Y011132D01*
X007486Y011290D02*
X003730Y011290D01*
X003730Y011449D02*
X007645Y011449D01*
X007803Y011607D02*
X003730Y011607D01*
X003730Y011766D02*
X007962Y011766D01*
X008120Y011924D02*
X003730Y011924D01*
X003730Y012083D02*
X008279Y012083D01*
X008437Y012241D02*
X007582Y012241D01*
X007567Y012226D02*
X007684Y012343D01*
X007748Y012497D01*
X007748Y012663D01*
X007684Y012817D01*
X007580Y012921D01*
X007580Y013076D01*
X008665Y014162D01*
X008813Y014162D01*
X008967Y014226D01*
X009084Y014343D01*
X009148Y014497D01*
X009148Y014663D01*
X009084Y014817D01*
X008967Y014934D01*
X008813Y014998D01*
X008647Y014998D01*
X008493Y014934D01*
X008376Y014817D01*
X008312Y014663D01*
X008312Y014515D01*
X007188Y013392D01*
X007118Y013322D01*
X007080Y013230D01*
X007080Y012921D01*
X006976Y012817D01*
X006912Y012663D01*
X006912Y012497D01*
X006976Y012343D01*
X007093Y012226D01*
X007247Y012162D01*
X007413Y012162D01*
X007567Y012226D01*
X007708Y012400D02*
X008596Y012400D01*
X008754Y012558D02*
X007748Y012558D01*
X007726Y012717D02*
X008862Y012717D01*
X008862Y012665D02*
X007045Y010848D01*
X006897Y010848D01*
X006743Y010784D01*
X006626Y010667D01*
X006562Y010513D01*
X006562Y010347D01*
X006626Y010193D01*
X006743Y010076D01*
X006897Y010012D01*
X007063Y010012D01*
X007217Y010076D01*
X007334Y010193D01*
X007398Y010347D01*
X007398Y010495D01*
X009215Y012312D01*
X009363Y012312D01*
X009517Y012376D01*
X009634Y012493D01*
X009698Y012647D01*
X009698Y012813D01*
X009634Y012967D01*
X009517Y013084D01*
X009363Y013148D01*
X009197Y013148D01*
X009043Y013084D01*
X008926Y012967D01*
X008862Y012813D01*
X008862Y012665D01*
X008888Y012875D02*
X007626Y012875D01*
X007580Y013034D02*
X008992Y013034D01*
X009568Y013034D02*
X009930Y013034D01*
X009930Y013192D02*
X007696Y013192D01*
X007854Y013351D02*
X009930Y013351D01*
X009930Y013509D02*
X008013Y013509D01*
X008171Y013668D02*
X009930Y013668D01*
X009930Y013826D02*
X008330Y013826D01*
X008488Y013985D02*
X009930Y013985D01*
X009930Y014143D02*
X008647Y014143D01*
X009043Y014302D02*
X009857Y014302D01*
X009930Y014228D02*
X009930Y012571D01*
X009826Y012467D01*
X009762Y012313D01*
X009762Y012147D01*
X009826Y011993D01*
X009943Y011876D01*
X010097Y011812D01*
X010263Y011812D01*
X010417Y011876D01*
X010534Y011993D01*
X010598Y012147D01*
X010598Y012313D01*
X010534Y012467D01*
X010430Y012571D01*
X010430Y014329D01*
X010430Y014378D01*
X010430Y014379D01*
X010430Y014380D01*
X010411Y014425D01*
X010393Y014470D01*
X010392Y014471D01*
X010392Y014472D01*
X010357Y014506D01*
X009980Y014890D01*
X010067Y014926D01*
X010184Y015043D01*
X010248Y015197D01*
X010248Y015363D01*
X010184Y015517D01*
X010067Y015634D01*
X009913Y015698D01*
X009808Y015698D01*
X008299Y017207D01*
X008334Y017243D01*
X008398Y017397D01*
X008398Y017502D01*
X008796Y017900D01*
X010786Y017900D01*
X010889Y017943D01*
X010967Y018021D01*
X011167Y018221D01*
X011210Y018324D01*
X011210Y019261D01*
X011367Y019196D01*
X011556Y019196D01*
X011732Y019269D01*
X011855Y019392D01*
X011967Y019280D01*
X011844Y019157D01*
X011771Y018981D01*
X011771Y018791D01*
X011844Y018616D01*
X011978Y018482D01*
X012154Y018409D01*
X012344Y018409D01*
X012519Y018482D01*
X012643Y018605D01*
X012766Y018482D01*
X012941Y018409D01*
X013131Y018409D01*
X013307Y018482D01*
X013430Y018605D01*
X013553Y018482D01*
X013729Y018409D01*
X013919Y018409D01*
X014094Y018482D01*
X014217Y018605D01*
X014334Y018488D01*
X013568Y017722D01*
X013530Y017630D01*
X008526Y017630D01*
X008398Y017472D02*
X013530Y017472D01*
X013530Y017630D02*
X013530Y016584D01*
X012418Y015472D01*
X012380Y015380D01*
X012380Y013984D01*
X012348Y014015D01*
X012348Y014163D01*
X012284Y014317D01*
X012167Y014434D01*
X012013Y014498D01*
X011847Y014498D01*
X011798Y014478D01*
X011798Y014513D01*
X011734Y014667D01*
X011617Y014784D01*
X011463Y014848D01*
X011297Y014848D01*
X011143Y014784D01*
X011026Y014667D01*
X010962Y014513D01*
X010962Y014347D01*
X011026Y014193D01*
X011130Y014089D01*
X011130Y013930D01*
X011168Y013838D01*
X011238Y013768D01*
X011880Y013126D01*
X011880Y010484D01*
X011868Y010472D01*
X011830Y010380D01*
X011830Y008871D01*
X011726Y008767D01*
X011662Y008613D01*
X011662Y008447D01*
X011726Y008293D01*
X011843Y008176D01*
X011997Y008112D01*
X012163Y008112D01*
X012317Y008176D01*
X012434Y008293D01*
X012498Y008447D01*
X012498Y008613D01*
X012434Y008767D01*
X012330Y008871D01*
X012330Y009526D01*
X012818Y009038D01*
X012888Y008968D01*
X012980Y008930D01*
X016789Y008930D01*
X016893Y008826D01*
X017047Y008762D01*
X017213Y008762D01*
X017367Y008826D01*
X017484Y008943D01*
X017548Y009097D01*
X017548Y009263D01*
X017484Y009417D01*
X017367Y009534D01*
X017213Y009598D01*
X017047Y009598D01*
X016893Y009534D01*
X016789Y009430D01*
X013134Y009430D01*
X012911Y009652D01*
X012967Y009676D01*
X013084Y009793D01*
X013148Y009947D01*
X013148Y010113D01*
X013084Y010267D01*
X012967Y010384D01*
X012880Y010420D01*
X012880Y013026D01*
X013530Y012376D01*
X013530Y011998D01*
X013397Y011998D01*
X013243Y011934D01*
X013126Y011817D01*
X013062Y011663D01*
X013062Y011497D01*
X013126Y011343D01*
X013243Y011226D01*
X013397Y011162D01*
X013462Y011162D01*
X013462Y011047D01*
X013526Y010893D01*
X013643Y010776D01*
X013797Y010712D01*
X013862Y010712D01*
X013862Y010647D01*
X013926Y010493D01*
X014043Y010376D01*
X014197Y010312D01*
X014363Y010312D01*
X014517Y010376D01*
X014634Y010493D01*
X014698Y010647D01*
X014698Y010813D01*
X014634Y010967D01*
X014530Y011071D01*
X014530Y012589D01*
X014593Y012526D01*
X014747Y012462D01*
X014913Y012462D01*
X015032Y012511D01*
X015012Y012463D01*
X015012Y012297D01*
X015076Y012143D01*
X015193Y012026D01*
X015347Y011962D01*
X015513Y011962D01*
X015667Y012026D01*
X015771Y012130D01*
X017630Y012130D01*
X017722Y012168D01*
X017984Y012430D01*
X019055Y012430D01*
X018925Y012300D01*
X018853Y012125D01*
X018853Y011935D01*
X018917Y011780D01*
X016921Y011780D01*
X016817Y011884D01*
X016663Y011948D01*
X016497Y011948D01*
X016343Y011884D01*
X016226Y011767D01*
X016162Y011613D01*
X016162Y011447D01*
X016226Y011293D01*
X016343Y011176D01*
X016497Y011112D01*
X016663Y011112D01*
X016817Y011176D01*
X016921Y011280D01*
X017917Y011280D01*
X017917Y011280D01*
X017880Y011280D01*
X017788Y011242D01*
X017718Y011172D01*
X017326Y010780D01*
X017200Y010780D01*
X017053Y010719D01*
X016941Y010607D01*
X016880Y010460D01*
X016880Y010300D01*
X016941Y010153D01*
X017053Y010041D01*
X017200Y009980D01*
X017360Y009980D01*
X017507Y010041D01*
X017619Y010153D01*
X017680Y010300D01*
X017680Y010426D01*
X017969Y010716D01*
X018060Y010625D01*
X018235Y010553D01*
X018425Y010553D01*
X018600Y010625D01*
X018735Y010760D01*
X018807Y010935D01*
X018807Y011125D01*
X018743Y011280D01*
X018917Y011280D01*
X018853Y011125D01*
X018853Y010935D01*
X018925Y010760D01*
X019060Y010625D01*
X019235Y010553D01*
X019425Y010553D01*
X019600Y010625D01*
X019735Y010760D01*
X019807Y010935D01*
X019807Y011125D01*
X019743Y011280D01*
X019976Y011280D01*
X020012Y011245D01*
X020012Y011097D01*
X020076Y010943D01*
X020193Y010826D01*
X020347Y010762D01*
X020513Y010762D01*
X020667Y010826D01*
X020784Y010943D01*
X020848Y011097D01*
X020848Y011263D01*
X020784Y011417D01*
X020667Y011534D01*
X020513Y011598D01*
X020365Y011598D01*
X020292Y011672D01*
X020222Y011742D01*
X020130Y011780D01*
X019743Y011780D01*
X019807Y011935D01*
X019807Y012125D01*
X019735Y012300D01*
X019600Y012435D01*
X019521Y012468D01*
X019522Y012468D01*
X019722Y012668D01*
X019792Y012738D01*
X019830Y012830D01*
X019830Y014962D01*
X019913Y014962D01*
X020067Y015026D01*
X020184Y015143D01*
X020248Y015297D01*
X020248Y015463D01*
X020184Y015617D01*
X020067Y015734D01*
X019913Y015798D01*
X019747Y015798D01*
X019593Y015734D01*
X019476Y015617D01*
X019412Y015463D01*
X019412Y015315D01*
X019368Y015272D01*
X019330Y015180D01*
X019330Y012984D01*
X019276Y012930D01*
X017830Y012930D01*
X017738Y012892D01*
X017668Y012822D01*
X017476Y012630D01*
X015771Y012630D01*
X016230Y012630D01*
X016322Y012668D01*
X017842Y014188D01*
X017880Y014280D01*
X017880Y015276D01*
X018592Y015988D01*
X018630Y016080D01*
X018630Y019380D01*
X018592Y019472D01*
X018522Y019542D01*
X017580Y020484D01*
X017580Y021439D01*
X017684Y021543D01*
X017748Y021697D01*
X017748Y021863D01*
X017684Y022017D01*
X017567Y022134D01*
X017413Y022198D01*
X017247Y022198D01*
X017093Y022134D01*
X016976Y022017D01*
X016912Y021863D01*
X016912Y021748D01*
X016747Y021748D01*
X016593Y021684D01*
X016476Y021567D01*
X016412Y021413D01*
X016412Y021247D01*
X016476Y021093D01*
X016580Y020989D01*
X016580Y020530D01*
X016618Y020438D01*
X017880Y019176D01*
X017880Y016284D01*
X017288Y015692D01*
X017218Y015622D01*
X017180Y015530D01*
X017180Y014534D01*
X016076Y013430D01*
X015184Y013430D01*
X015172Y013442D01*
X015080Y013480D01*
X014580Y013480D01*
X014539Y013463D01*
X014467Y013534D01*
X014313Y013598D01*
X014147Y013598D01*
X013993Y013534D01*
X013876Y013417D01*
X013852Y013361D01*
X013580Y013634D01*
X013580Y014326D01*
X014265Y015012D01*
X014363Y015012D01*
X014517Y015076D01*
X014634Y015193D01*
X014698Y015347D01*
X014698Y015513D01*
X014634Y015667D01*
X014517Y015784D01*
X014363Y015848D01*
X014278Y015848D01*
X014298Y015897D01*
X014298Y016063D01*
X014234Y016217D01*
X014117Y016334D01*
X014009Y016379D01*
X014030Y016430D01*
X014030Y017476D01*
X014734Y018180D01*
X015680Y018180D01*
X015772Y018218D01*
X016022Y018468D01*
X016092Y018538D01*
X016130Y018630D01*
X016130Y019980D01*
X016092Y020072D01*
X016022Y020142D01*
X016022Y020142D01*
X015892Y020272D01*
X015822Y020342D01*
X015730Y020380D01*
X014230Y020380D01*
X014138Y020342D01*
X013939Y020143D01*
X013919Y020151D01*
X013729Y020151D01*
X013553Y020078D01*
X013419Y019944D01*
X013346Y019769D01*
X013346Y019579D01*
X013419Y019403D01*
X013542Y019280D01*
X013430Y019168D01*
X013307Y019291D01*
X013131Y019364D01*
X012941Y019364D01*
X012766Y019291D01*
X012643Y019168D01*
X012530Y019280D01*
X012654Y019403D01*
X012726Y019579D01*
X012726Y019769D01*
X012654Y019944D01*
X012519Y020078D01*
X012499Y020087D01*
X012469Y020158D01*
X012200Y020427D01*
X012127Y020500D01*
X012032Y020540D01*
X011858Y020540D01*
X012469Y021152D01*
X012509Y021247D01*
X012509Y022303D01*
X012790Y022303D01*
X012907Y022420D01*
X012907Y023140D01*
X012790Y023257D01*
X012070Y023257D01*
X011953Y023140D01*
X011953Y022420D01*
X011989Y022383D01*
X011989Y021407D01*
X011120Y020537D01*
X011071Y020517D01*
X010771Y020217D01*
X010693Y020139D01*
X010650Y020036D01*
X010650Y018496D01*
X010614Y018460D01*
X009751Y018460D01*
X009834Y018543D01*
X009898Y018697D01*
X009898Y018863D01*
X009834Y019017D01*
X009730Y019121D01*
X009730Y020876D01*
X010222Y021368D01*
X010292Y021438D01*
X010330Y021530D01*
X010330Y021826D01*
X010365Y021862D01*
X010513Y021862D01*
X010667Y021926D01*
X010784Y022043D01*
X010848Y022197D01*
X010848Y022363D01*
X010784Y022517D01*
X010667Y022634D01*
X010513Y022698D01*
X010347Y022698D01*
X010193Y022634D01*
X010076Y022517D01*
X010012Y022363D01*
X010012Y022215D01*
X009906Y022110D01*
X009813Y022148D01*
X009647Y022148D01*
X009493Y022084D01*
X009376Y021967D01*
X009312Y021813D01*
X009312Y021665D01*
X008868Y021222D01*
X008830Y021130D01*
X008830Y019571D01*
X008726Y019467D01*
X008662Y019313D01*
X008662Y019147D01*
X008726Y018993D01*
X008843Y018876D01*
X008997Y018812D01*
X009062Y018812D01*
X009062Y018697D01*
X009126Y018543D01*
X009209Y018460D01*
X008624Y018460D01*
X008521Y018417D01*
X008002Y017898D01*
X007897Y017898D01*
X007743Y017834D01*
X007626Y017717D01*
X007562Y017563D01*
X007562Y017397D01*
X007598Y017310D01*
X007330Y017582D01*
X007330Y019489D01*
X007434Y019593D01*
X007498Y019747D01*
X007498Y019913D01*
X007434Y020067D01*
X007317Y020184D01*
X007163Y020248D01*
X006997Y020248D01*
X006843Y020184D01*
X006726Y020067D01*
X006662Y019913D01*
X006662Y019747D01*
X006726Y019593D01*
X006830Y019489D01*
X006830Y019220D01*
X006247Y019557D01*
X006087Y019514D01*
X005726Y018890D01*
X005769Y018730D01*
X006393Y018369D01*
X006553Y018412D01*
X006830Y018891D01*
X006830Y017481D01*
X006830Y017432D01*
X006830Y017431D01*
X006830Y017430D01*
X006849Y017385D01*
X006867Y017340D01*
X006868Y017339D01*
X006868Y017338D01*
X006903Y017304D01*
X009930Y014228D01*
X009701Y014460D02*
X009133Y014460D01*
X009148Y014619D02*
X009545Y014619D01*
X009389Y014777D02*
X009101Y014777D01*
X009233Y014936D02*
X008964Y014936D01*
X009077Y015094D02*
X004870Y015094D01*
X004930Y014936D02*
X008496Y014936D01*
X008359Y014777D02*
X004930Y014777D01*
X004930Y014619D02*
X008312Y014619D01*
X008256Y014460D02*
X004930Y014460D01*
X004930Y014302D02*
X008098Y014302D01*
X007939Y014143D02*
X004930Y014143D01*
X004930Y013985D02*
X007781Y013985D01*
X007622Y013826D02*
X004930Y013826D01*
X004930Y013668D02*
X007464Y013668D01*
X007305Y013509D02*
X004900Y013509D01*
X004754Y013351D02*
X007147Y013351D01*
X007080Y013192D02*
X004596Y013192D01*
X004437Y013034D02*
X007080Y013034D01*
X007034Y012875D02*
X004279Y012875D01*
X004120Y012717D02*
X006934Y012717D01*
X006912Y012558D02*
X003962Y012558D01*
X003803Y012400D02*
X006952Y012400D01*
X007078Y012241D02*
X003730Y012241D01*
X006011Y010022D02*
X006098Y010022D01*
X006286Y010181D02*
X006638Y010181D01*
X006565Y010339D02*
X006400Y010339D01*
X006351Y010498D02*
X006562Y010498D01*
X006621Y010656D02*
X006260Y010656D01*
X006168Y010815D02*
X006816Y010815D01*
X007169Y010973D02*
X006077Y010973D01*
X006542Y010022D02*
X006872Y010022D01*
X006726Y009864D02*
X009310Y009864D01*
X009310Y010022D02*
X007088Y010022D01*
X007322Y010181D02*
X009188Y010181D01*
X009140Y010339D02*
X007395Y010339D01*
X007401Y010498D02*
X009154Y010498D01*
X009242Y010656D02*
X007560Y010656D01*
X007718Y010815D02*
X009461Y010815D01*
X009619Y010973D02*
X007877Y010973D01*
X008035Y011132D02*
X009778Y011132D01*
X009936Y011290D02*
X008194Y011290D01*
X008352Y011449D02*
X010095Y011449D01*
X010253Y011607D02*
X008511Y011607D01*
X008669Y011766D02*
X010412Y011766D01*
X010465Y011924D02*
X010570Y011924D01*
X010571Y012083D02*
X010712Y012083D01*
X010723Y012241D02*
X010598Y012241D01*
X010562Y012400D02*
X010808Y012400D01*
X010443Y012558D02*
X011880Y012558D01*
X011880Y012400D02*
X011452Y012400D01*
X011537Y012241D02*
X011880Y012241D01*
X011880Y012083D02*
X011548Y012083D01*
X011497Y011924D02*
X011880Y011924D01*
X011880Y011766D02*
X011343Y011766D01*
X010961Y011607D02*
X011880Y011607D01*
X011880Y011449D02*
X010802Y011449D01*
X010644Y011290D02*
X011880Y011290D01*
X011880Y011132D02*
X010485Y011132D01*
X010327Y010973D02*
X011880Y010973D01*
X011880Y010815D02*
X010168Y010815D01*
X010010Y010656D02*
X010579Y010656D01*
X010541Y010618D02*
X010477Y010464D01*
X010477Y010296D01*
X010541Y010142D01*
X010659Y010024D01*
X010813Y009960D01*
X010981Y009960D01*
X011135Y010024D01*
X011253Y010142D01*
X011317Y010296D01*
X011317Y010464D01*
X011253Y010618D01*
X011135Y010736D01*
X010981Y010800D01*
X010813Y010800D01*
X010659Y010736D01*
X010541Y010618D01*
X010491Y010498D02*
X009966Y010498D01*
X009980Y010339D02*
X010477Y010339D01*
X010525Y010181D02*
X009932Y010181D01*
X009810Y010022D02*
X010664Y010022D01*
X011130Y010022D02*
X011830Y010022D01*
X011830Y009864D02*
X009810Y009864D01*
X009810Y009705D02*
X011830Y009705D01*
X011830Y009547D02*
X009810Y009547D01*
X009810Y009388D02*
X011830Y009388D01*
X011830Y009230D02*
X009810Y009230D01*
X009810Y009071D02*
X011830Y009071D01*
X011830Y008913D02*
X009810Y008913D01*
X009810Y008754D02*
X011720Y008754D01*
X011662Y008596D02*
X009810Y008596D01*
X009810Y008437D02*
X011666Y008437D01*
X011740Y008279D02*
X009810Y008279D01*
X009844Y008120D02*
X011977Y008120D01*
X012183Y008120D02*
X023130Y008120D01*
X023130Y008279D02*
X012420Y008279D01*
X012494Y008437D02*
X021522Y008437D01*
X021510Y008442D02*
X021685Y008370D01*
X021875Y008370D01*
X022050Y008442D01*
X022185Y008577D01*
X022257Y008752D01*
X022257Y008942D01*
X022185Y009117D01*
X022050Y009252D01*
X021875Y009324D01*
X021685Y009324D01*
X021510Y009252D01*
X021375Y009117D01*
X021303Y008942D01*
X021303Y008752D01*
X021375Y008577D01*
X021510Y008442D01*
X021367Y008596D02*
X012498Y008596D01*
X012440Y008754D02*
X021303Y008754D01*
X021303Y008913D02*
X017454Y008913D01*
X017537Y009071D02*
X020496Y009071D01*
X020613Y009003D02*
X020773Y009046D01*
X021134Y009670D01*
X021091Y009830D01*
X020467Y010191D01*
X020307Y010148D01*
X019946Y009524D01*
X019989Y009364D01*
X020613Y009003D01*
X020788Y009071D02*
X021356Y009071D01*
X021487Y009230D02*
X020879Y009230D01*
X020971Y009388D02*
X021888Y009388D01*
X021711Y009547D02*
X021062Y009547D01*
X021124Y009705D02*
X021724Y009705D01*
X021816Y009864D02*
X021033Y009864D01*
X020945Y009986D02*
X021135Y009986D01*
X021310Y010058D01*
X021445Y010193D01*
X021517Y010368D01*
X021517Y010558D01*
X021445Y010733D01*
X021310Y010868D01*
X021135Y010940D01*
X020945Y010940D01*
X020770Y010868D01*
X020635Y010733D01*
X020563Y010558D01*
X020563Y010368D01*
X020635Y010193D01*
X020770Y010058D01*
X020945Y009986D01*
X020857Y010022D02*
X020759Y010022D01*
X020647Y010181D02*
X020484Y010181D01*
X020429Y010181D02*
X019784Y010181D01*
X019807Y010125D02*
X019735Y010300D01*
X019600Y010435D01*
X019425Y010507D01*
X019235Y010507D01*
X019060Y010435D01*
X018925Y010300D01*
X018853Y010125D01*
X018853Y009935D01*
X018925Y009760D01*
X019060Y009625D01*
X019235Y009553D01*
X019425Y009553D01*
X019600Y009625D01*
X019735Y009760D01*
X019807Y009935D01*
X019807Y010125D01*
X019807Y010022D02*
X020234Y010022D01*
X020143Y009864D02*
X019778Y009864D01*
X019680Y009705D02*
X020051Y009705D01*
X019960Y009547D02*
X017338Y009547D01*
X017496Y009388D02*
X019983Y009388D01*
X020222Y009230D02*
X017548Y009230D01*
X017970Y009553D02*
X018690Y009553D01*
X018807Y009670D01*
X018807Y010390D01*
X018690Y010507D01*
X017970Y010507D01*
X017853Y010390D01*
X017853Y009670D01*
X017970Y009553D01*
X017853Y009705D02*
X012996Y009705D01*
X013017Y009547D02*
X016922Y009547D01*
X017099Y010022D02*
X013148Y010022D01*
X013120Y010181D02*
X016930Y010181D01*
X016880Y010339D02*
X014429Y010339D01*
X014636Y010498D02*
X016896Y010498D01*
X016990Y010656D02*
X014698Y010656D01*
X014698Y010815D02*
X017361Y010815D01*
X017519Y010973D02*
X014628Y010973D01*
X014530Y011132D02*
X016449Y011132D01*
X016711Y011132D02*
X017678Y011132D01*
X017910Y010656D02*
X018029Y010656D01*
X017960Y010498D02*
X017751Y010498D01*
X017680Y010339D02*
X017853Y010339D01*
X017853Y010181D02*
X017630Y010181D01*
X017461Y010022D02*
X017853Y010022D01*
X017853Y009864D02*
X013114Y009864D01*
X013012Y010339D02*
X014131Y010339D01*
X013924Y010498D02*
X012880Y010498D01*
X012880Y010656D02*
X013862Y010656D01*
X013604Y010815D02*
X012880Y010815D01*
X012880Y010973D02*
X013492Y010973D01*
X013462Y011132D02*
X012880Y011132D01*
X012880Y011290D02*
X013179Y011290D01*
X013082Y011449D02*
X012880Y011449D01*
X012880Y011607D02*
X013062Y011607D01*
X013104Y011766D02*
X012880Y011766D01*
X012880Y011924D02*
X013233Y011924D01*
X013530Y012083D02*
X012880Y012083D01*
X012880Y012241D02*
X013530Y012241D01*
X013507Y012400D02*
X012880Y012400D01*
X012880Y012558D02*
X013348Y012558D01*
X013190Y012717D02*
X012880Y012717D01*
X012880Y012875D02*
X013031Y012875D01*
X013705Y013509D02*
X013968Y013509D01*
X013580Y013668D02*
X015515Y013668D01*
X015526Y013643D02*
X015643Y013526D01*
X015797Y013462D01*
X015963Y013462D01*
X016117Y013526D01*
X016234Y013643D01*
X016298Y013797D01*
X016298Y013963D01*
X016234Y014117D01*
X016130Y014221D01*
X016130Y014680D01*
X016092Y014772D01*
X015730Y015134D01*
X015730Y015826D01*
X015915Y016012D01*
X016063Y016012D01*
X016217Y016076D01*
X016334Y016193D01*
X016398Y016347D01*
X016398Y016513D01*
X016334Y016667D01*
X016246Y016755D01*
X016334Y016843D01*
X016398Y016997D01*
X016398Y017145D01*
X016484Y017230D01*
X016889Y017230D01*
X016993Y017126D01*
X017147Y017062D01*
X017313Y017062D01*
X017467Y017126D01*
X017584Y017243D01*
X017648Y017397D01*
X017648Y017563D01*
X017584Y017717D01*
X017467Y017834D01*
X017313Y017898D01*
X017147Y017898D01*
X016993Y017834D01*
X016889Y017730D01*
X016330Y017730D01*
X016238Y017692D01*
X016045Y017498D01*
X015897Y017498D01*
X015743Y017434D01*
X015626Y017317D01*
X015562Y017163D01*
X015562Y016997D01*
X015626Y016843D01*
X015714Y016755D01*
X015626Y016667D01*
X015562Y016513D01*
X015562Y016365D01*
X015268Y016072D01*
X015230Y015980D01*
X015230Y014980D01*
X015268Y014888D01*
X015630Y014526D01*
X015630Y014221D01*
X015526Y014117D01*
X015462Y013963D01*
X015462Y013797D01*
X015526Y013643D01*
X015462Y013826D02*
X013580Y013826D01*
X013580Y013985D02*
X015471Y013985D01*
X015552Y014143D02*
X013580Y014143D01*
X013580Y014302D02*
X015630Y014302D01*
X015630Y014460D02*
X013714Y014460D01*
X013872Y014619D02*
X015538Y014619D01*
X015379Y014777D02*
X014031Y014777D01*
X014189Y014936D02*
X015249Y014936D01*
X015230Y015094D02*
X014535Y015094D01*
X014659Y015253D02*
X015230Y015253D01*
X015230Y015411D02*
X014698Y015411D01*
X014675Y015570D02*
X015230Y015570D01*
X015230Y015728D02*
X014573Y015728D01*
X014294Y015887D02*
X015230Y015887D01*
X015257Y016045D02*
X014298Y016045D01*
X014240Y016204D02*
X015400Y016204D01*
X015558Y016362D02*
X014050Y016362D01*
X014030Y016521D02*
X015565Y016521D01*
X015638Y016679D02*
X014030Y016679D01*
X014030Y016838D02*
X015631Y016838D01*
X015562Y016996D02*
X014030Y016996D01*
X014030Y017155D02*
X015562Y017155D01*
X015624Y017313D02*
X014030Y017313D01*
X014030Y017472D02*
X015833Y017472D01*
X016176Y017630D02*
X014184Y017630D01*
X014342Y017789D02*
X016947Y017789D01*
X017513Y017789D02*
X017880Y017789D01*
X017880Y017947D02*
X014501Y017947D01*
X014659Y018106D02*
X017880Y018106D01*
X017880Y018264D02*
X015818Y018264D01*
X015976Y018423D02*
X017880Y018423D01*
X017880Y018581D02*
X016110Y018581D01*
X016022Y018468D02*
X016022Y018468D01*
X016130Y018740D02*
X017880Y018740D01*
X017880Y018898D02*
X016130Y018898D01*
X016130Y019057D02*
X017880Y019057D01*
X017841Y019215D02*
X016130Y019215D01*
X016130Y019374D02*
X017683Y019374D01*
X017524Y019532D02*
X016130Y019532D01*
X016130Y019691D02*
X017366Y019691D01*
X017207Y019849D02*
X016130Y019849D01*
X016118Y020008D02*
X017049Y020008D01*
X016890Y020166D02*
X015998Y020166D01*
X015892Y020272D02*
X015892Y020272D01*
X015839Y020325D02*
X016732Y020325D01*
X016600Y020483D02*
X012145Y020483D01*
X012303Y020325D02*
X014121Y020325D01*
X013962Y020166D02*
X012462Y020166D01*
X012590Y020008D02*
X013482Y020008D01*
X013380Y019849D02*
X012693Y019849D01*
X012726Y019691D02*
X013346Y019691D01*
X013366Y019532D02*
X012707Y019532D01*
X012624Y019374D02*
X013449Y019374D01*
X013477Y019215D02*
X013383Y019215D01*
X013406Y018581D02*
X013454Y018581D01*
X013696Y018423D02*
X013164Y018423D01*
X012908Y018423D02*
X012377Y018423D01*
X012121Y018423D02*
X011210Y018423D01*
X011210Y018581D02*
X011879Y018581D01*
X011793Y018740D02*
X011210Y018740D01*
X011210Y018898D02*
X011771Y018898D01*
X011803Y019057D02*
X011210Y019057D01*
X011210Y019215D02*
X011321Y019215D01*
X011602Y019215D02*
X011902Y019215D01*
X011874Y019374D02*
X011837Y019374D01*
X012595Y019215D02*
X012690Y019215D01*
X012666Y018581D02*
X012619Y018581D01*
X013635Y017789D02*
X008685Y017789D01*
X008680Y018180D02*
X007980Y017480D01*
X007980Y017130D01*
X009830Y015280D01*
X010132Y015570D02*
X012516Y015570D01*
X012393Y015411D02*
X010228Y015411D01*
X010248Y015253D02*
X012380Y015253D01*
X012380Y015094D02*
X010206Y015094D01*
X010077Y014936D02*
X012380Y014936D01*
X012380Y014777D02*
X011624Y014777D01*
X011754Y014619D02*
X012380Y014619D01*
X012380Y014460D02*
X012105Y014460D01*
X012291Y014302D02*
X012380Y014302D01*
X012380Y014143D02*
X012348Y014143D01*
X012379Y013985D02*
X012380Y013985D01*
X011814Y013192D02*
X010430Y013192D01*
X010430Y013034D02*
X011880Y013034D01*
X011880Y012875D02*
X010430Y012875D01*
X010430Y012717D02*
X011880Y012717D01*
X011656Y013351D02*
X010430Y013351D01*
X010430Y013509D02*
X011497Y013509D01*
X011339Y013668D02*
X010430Y013668D01*
X010430Y013826D02*
X011180Y013826D01*
X011130Y013985D02*
X010430Y013985D01*
X010430Y014143D02*
X011076Y014143D01*
X010981Y014302D02*
X010430Y014302D01*
X010397Y014460D02*
X010962Y014460D01*
X011006Y014619D02*
X010247Y014619D01*
X010091Y014777D02*
X011136Y014777D01*
X009778Y015728D02*
X012674Y015728D01*
X012833Y015887D02*
X009619Y015887D01*
X009461Y016045D02*
X012991Y016045D01*
X013150Y016204D02*
X009302Y016204D01*
X009144Y016362D02*
X013308Y016362D01*
X013467Y016521D02*
X008985Y016521D01*
X008827Y016679D02*
X013530Y016679D01*
X013530Y016838D02*
X008668Y016838D01*
X008510Y016996D02*
X013530Y016996D01*
X013530Y017155D02*
X008351Y017155D01*
X008363Y017313D02*
X013530Y017313D01*
X013793Y017947D02*
X010893Y017947D01*
X011052Y018106D02*
X013952Y018106D01*
X014110Y018264D02*
X011185Y018264D01*
X010930Y018380D02*
X010730Y018180D01*
X008680Y018180D01*
X008534Y018423D02*
X007330Y018423D01*
X007330Y018581D02*
X009110Y018581D01*
X009062Y018740D02*
X007330Y018740D01*
X007330Y018898D02*
X008821Y018898D01*
X008699Y019057D02*
X007330Y019057D01*
X007330Y019215D02*
X008662Y019215D01*
X008687Y019374D02*
X007330Y019374D01*
X007373Y019532D02*
X008791Y019532D01*
X008830Y019691D02*
X007475Y019691D01*
X007498Y019849D02*
X008830Y019849D01*
X008830Y020008D02*
X007459Y020008D01*
X007335Y020166D02*
X008830Y020166D01*
X008830Y020325D02*
X002880Y020325D01*
X002880Y020483D02*
X008830Y020483D01*
X008830Y020642D02*
X002971Y020642D01*
X003069Y020800D02*
X008830Y020800D01*
X008830Y020959D02*
X003166Y020959D01*
X003264Y021117D02*
X008830Y021117D01*
X008922Y021276D02*
X003363Y021276D01*
X003486Y021434D02*
X009080Y021434D01*
X009239Y021593D02*
X003609Y021593D01*
X003733Y021751D02*
X009312Y021751D01*
X009352Y021910D02*
X003856Y021910D01*
X003979Y022068D02*
X009477Y022068D01*
X010012Y022227D02*
X004103Y022227D01*
X004236Y022385D02*
X010021Y022385D01*
X010102Y022544D02*
X004391Y022544D01*
X004545Y022702D02*
X010953Y022702D01*
X010953Y022685D02*
X011025Y022510D01*
X011160Y022375D01*
X011335Y022303D01*
X011525Y022303D01*
X011700Y022375D01*
X011835Y022510D01*
X011907Y022685D01*
X011907Y022875D01*
X011835Y023050D01*
X011700Y023185D01*
X011525Y023257D01*
X011335Y023257D01*
X011160Y023185D01*
X011025Y023050D01*
X010953Y022875D01*
X010953Y022685D01*
X011011Y022544D02*
X010758Y022544D01*
X010839Y022385D02*
X011150Y022385D01*
X010848Y022227D02*
X011989Y022227D01*
X011987Y022385D02*
X011710Y022385D01*
X011849Y022544D02*
X011953Y022544D01*
X011953Y022702D02*
X011907Y022702D01*
X011907Y022861D02*
X011953Y022861D01*
X011953Y023019D02*
X011848Y023019D01*
X011708Y023178D02*
X011990Y023178D01*
X011799Y023812D02*
X012313Y023812D01*
X012547Y023812D02*
X014061Y023812D01*
X013953Y023970D02*
X012795Y023970D01*
X012884Y024129D02*
X013953Y024129D01*
X013953Y024287D02*
X012907Y024287D01*
X012878Y024446D02*
X013953Y024446D01*
X013953Y024604D02*
X012781Y024604D01*
X012280Y024763D02*
X014559Y024763D01*
X014949Y024446D02*
X014982Y024446D01*
X014953Y024287D02*
X014907Y024287D01*
X014907Y024129D02*
X014976Y024129D01*
X014907Y023970D02*
X015065Y023970D01*
X015313Y023812D02*
X014799Y023812D01*
X015070Y023257D02*
X014953Y023140D01*
X014953Y022420D01*
X015070Y022303D01*
X015790Y022303D01*
X015907Y022420D01*
X015907Y023140D01*
X015790Y023257D01*
X015070Y023257D01*
X014990Y023178D02*
X014708Y023178D01*
X014700Y023185D02*
X014525Y023257D01*
X014335Y023257D01*
X014160Y023185D01*
X014025Y023050D01*
X013953Y022875D01*
X013953Y022685D01*
X014025Y022510D01*
X014160Y022375D01*
X014335Y022303D01*
X014525Y022303D01*
X014700Y022375D01*
X014835Y022510D01*
X014907Y022685D01*
X014907Y022875D01*
X014835Y023050D01*
X014700Y023185D01*
X014848Y023019D02*
X014953Y023019D01*
X014953Y022861D02*
X014907Y022861D01*
X014907Y022702D02*
X014953Y022702D01*
X014953Y022544D02*
X014849Y022544D01*
X014987Y022385D02*
X014710Y022385D01*
X014150Y022385D02*
X012873Y022385D01*
X012907Y022544D02*
X014011Y022544D01*
X013953Y022702D02*
X012907Y022702D01*
X012907Y022861D02*
X013953Y022861D01*
X014012Y023019D02*
X012907Y023019D01*
X012870Y023178D02*
X014152Y023178D01*
X013700Y022185D02*
X013525Y022257D01*
X013335Y022257D01*
X013160Y022185D01*
X013025Y022050D01*
X012953Y021875D01*
X012953Y021685D01*
X013025Y021510D01*
X013160Y021375D01*
X013335Y021303D01*
X013525Y021303D01*
X013700Y021375D01*
X013835Y021510D01*
X013907Y021685D01*
X013907Y021875D01*
X013835Y022050D01*
X013700Y022185D01*
X013600Y022227D02*
X018210Y022227D01*
X018285Y022257D02*
X018110Y022185D01*
X017975Y022050D01*
X017903Y021875D01*
X017903Y021685D01*
X017975Y021510D01*
X018110Y021375D01*
X018285Y021303D01*
X018475Y021303D01*
X018650Y021375D01*
X018785Y021510D01*
X018857Y021685D01*
X018857Y021875D01*
X018785Y022050D01*
X018650Y022185D01*
X018475Y022257D01*
X018285Y022257D01*
X018550Y022227D02*
X021080Y022227D01*
X020921Y022385D02*
X015873Y022385D01*
X015907Y022544D02*
X020763Y022544D01*
X020604Y022702D02*
X015907Y022702D01*
X015907Y022861D02*
X020446Y022861D01*
X020287Y023019D02*
X015907Y023019D01*
X015870Y023178D02*
X020129Y023178D01*
X019970Y023336D02*
X005170Y023336D01*
X005007Y023178D02*
X011152Y023178D01*
X011012Y023019D02*
X004853Y023019D01*
X004699Y022861D02*
X010953Y022861D01*
X010795Y022068D02*
X011989Y022068D01*
X011989Y021910D02*
X010628Y021910D01*
X010330Y021751D02*
X011989Y021751D01*
X011989Y021593D02*
X010330Y021593D01*
X010288Y021434D02*
X011989Y021434D01*
X011858Y021276D02*
X010129Y021276D01*
X009971Y021117D02*
X011699Y021117D01*
X011541Y020959D02*
X009812Y020959D01*
X009730Y020800D02*
X011382Y020800D01*
X011224Y020642D02*
X009730Y020642D01*
X009730Y020483D02*
X011037Y020483D01*
X010879Y020325D02*
X009730Y020325D01*
X009730Y020166D02*
X010720Y020166D01*
X010650Y020008D02*
X009730Y020008D01*
X009730Y019849D02*
X010650Y019849D01*
X010650Y019691D02*
X009730Y019691D01*
X009730Y019532D02*
X010650Y019532D01*
X010650Y019374D02*
X009730Y019374D01*
X009730Y019215D02*
X010650Y019215D01*
X010650Y019057D02*
X009795Y019057D01*
X009884Y018898D02*
X010650Y018898D01*
X010650Y018740D02*
X009898Y018740D01*
X009850Y018581D02*
X010650Y018581D01*
X010930Y018380D02*
X010930Y019980D01*
X011230Y020280D01*
X011959Y020642D02*
X016580Y020642D01*
X016580Y020800D02*
X012118Y020800D01*
X012276Y020959D02*
X016580Y020959D01*
X016466Y021117D02*
X012435Y021117D01*
X012509Y021276D02*
X016412Y021276D01*
X016421Y021434D02*
X013759Y021434D01*
X013869Y021593D02*
X016501Y021593D01*
X016912Y021751D02*
X013907Y021751D01*
X013893Y021910D02*
X016931Y021910D01*
X017027Y022068D02*
X013817Y022068D01*
X013260Y022227D02*
X012509Y022227D01*
X012509Y022068D02*
X013043Y022068D01*
X012967Y021910D02*
X012509Y021910D01*
X012509Y021751D02*
X012953Y021751D01*
X012991Y021593D02*
X012509Y021593D01*
X012509Y021434D02*
X013101Y021434D01*
X011061Y023812D02*
X005748Y023812D01*
X005940Y023970D02*
X010953Y023970D01*
X010953Y024129D02*
X006133Y024129D01*
X006169Y024159D02*
X006169Y024159D01*
X006366Y024287D02*
X010953Y024287D01*
X010953Y024446D02*
X006608Y024446D01*
X006851Y024604D02*
X010953Y024604D01*
X011545Y024763D02*
X007093Y024763D01*
X007347Y024921D02*
X011703Y024921D01*
X011862Y025080D02*
X007660Y025080D01*
X007973Y025238D02*
X012020Y025238D01*
X011982Y024446D02*
X011963Y024446D01*
X011953Y024287D02*
X011907Y024287D01*
X011907Y024129D02*
X011976Y024129D01*
X011907Y023970D02*
X012065Y023970D01*
X011332Y026348D02*
X015504Y026348D01*
X016316Y026189D02*
X010592Y026189D01*
X009966Y026031D02*
X016869Y026031D01*
X017376Y025872D02*
X009479Y025872D01*
X009056Y025714D02*
X017838Y025714D01*
X018200Y025555D02*
X008632Y025555D01*
X008286Y025397D02*
X018561Y025397D01*
X018623Y024446D02*
X016187Y024446D01*
X015907Y024287D02*
X019019Y024287D01*
X019178Y024129D02*
X015884Y024129D01*
X015795Y023970D02*
X019336Y023970D01*
X019495Y023812D02*
X015547Y023812D01*
X017633Y022068D02*
X017993Y022068D01*
X017917Y021910D02*
X017729Y021910D01*
X017748Y021751D02*
X017903Y021751D01*
X017941Y021593D02*
X017705Y021593D01*
X017580Y021434D02*
X018051Y021434D01*
X017580Y021276D02*
X022012Y021276D01*
X022024Y021117D02*
X017580Y021117D01*
X017580Y020959D02*
X022110Y020959D01*
X021872Y021434D02*
X018709Y021434D01*
X018819Y021593D02*
X021714Y021593D01*
X021555Y021751D02*
X018857Y021751D01*
X018843Y021910D02*
X021397Y021910D01*
X021238Y022068D02*
X018767Y022068D01*
X017580Y020800D02*
X023135Y020800D01*
X023296Y020642D02*
X017580Y020642D01*
X017581Y020483D02*
X023457Y020483D01*
X023520Y020325D02*
X017739Y020325D01*
X017898Y020166D02*
X021667Y020166D01*
X021392Y020008D02*
X018056Y020008D01*
X018215Y019849D02*
X021243Y019849D01*
X021272Y019691D02*
X018373Y019691D01*
X018532Y019532D02*
X021363Y019532D01*
X021455Y019374D02*
X020834Y019374D01*
X020837Y019372D02*
X020661Y019445D01*
X020471Y019445D01*
X020296Y019372D01*
X020161Y019238D01*
X020089Y019063D01*
X020089Y018873D01*
X020161Y018697D01*
X020296Y018563D01*
X020471Y018490D01*
X020661Y018490D01*
X020837Y018563D01*
X020971Y018697D01*
X021044Y018873D01*
X021044Y019063D01*
X020971Y019238D01*
X020837Y019372D01*
X020981Y019215D02*
X021546Y019215D01*
X021892Y019057D02*
X021044Y019057D01*
X021044Y018898D02*
X021840Y018898D01*
X021840Y018930D02*
X021840Y018740D01*
X020989Y018740D01*
X021140Y018695D02*
X021300Y018652D01*
X021660Y018028D01*
X021617Y017868D01*
X020993Y017508D01*
X020833Y017551D01*
X020473Y018175D01*
X020515Y018335D01*
X021140Y018695D01*
X020942Y018581D02*
X020855Y018581D01*
X020667Y018423D02*
X018630Y018423D01*
X018630Y018581D02*
X020278Y018581D01*
X020144Y018740D02*
X018630Y018740D01*
X018630Y018898D02*
X020089Y018898D01*
X020089Y019057D02*
X018630Y019057D01*
X018630Y019215D02*
X020152Y019215D01*
X020298Y019374D02*
X018630Y019374D01*
X018630Y018264D02*
X020496Y018264D01*
X020513Y018106D02*
X018630Y018106D01*
X018630Y017947D02*
X020604Y017947D01*
X020696Y017789D02*
X018630Y017789D01*
X018630Y017630D02*
X020787Y017630D01*
X021204Y017630D02*
X023130Y017630D01*
X023130Y017472D02*
X018630Y017472D01*
X018630Y017313D02*
X023130Y017313D01*
X023130Y017155D02*
X018630Y017155D01*
X018630Y016996D02*
X023130Y016996D01*
X023130Y016838D02*
X018630Y016838D01*
X018630Y016679D02*
X023130Y016679D01*
X023130Y016521D02*
X018630Y016521D01*
X018630Y016362D02*
X023130Y016362D01*
X023130Y016204D02*
X018630Y016204D01*
X018615Y016045D02*
X023091Y016045D01*
X022933Y015887D02*
X018490Y015887D01*
X018560Y015735D02*
X018425Y015600D01*
X018353Y015425D01*
X018353Y015235D01*
X018425Y015060D01*
X018560Y014925D01*
X018735Y014853D01*
X018925Y014853D01*
X019100Y014925D01*
X019235Y015060D01*
X019307Y015235D01*
X019307Y015425D01*
X019235Y015600D01*
X019100Y015735D01*
X018925Y015807D01*
X018735Y015807D01*
X018560Y015735D01*
X018553Y015728D02*
X018332Y015728D01*
X018412Y015570D02*
X018173Y015570D01*
X018015Y015411D02*
X018353Y015411D01*
X018353Y015253D02*
X017880Y015253D01*
X017880Y015094D02*
X018411Y015094D01*
X018549Y014936D02*
X017880Y014936D01*
X017880Y014777D02*
X018661Y014777D01*
X018735Y014807D02*
X018560Y014735D01*
X018425Y014600D01*
X018353Y014425D01*
X018353Y014235D01*
X018425Y014060D01*
X018560Y013925D01*
X018735Y013853D01*
X018925Y013853D01*
X019100Y013925D01*
X019235Y014060D01*
X019307Y014235D01*
X019307Y014425D01*
X019235Y014600D01*
X019100Y014735D01*
X018925Y014807D01*
X018735Y014807D01*
X018999Y014777D02*
X019330Y014777D01*
X019330Y014619D02*
X019217Y014619D01*
X019293Y014460D02*
X019330Y014460D01*
X019330Y014302D02*
X019307Y014302D01*
X019330Y014143D02*
X019269Y014143D01*
X019330Y013985D02*
X019160Y013985D01*
X019330Y013826D02*
X017480Y013826D01*
X017638Y013985D02*
X018500Y013985D01*
X018391Y014143D02*
X017797Y014143D01*
X017880Y014302D02*
X018353Y014302D01*
X018367Y014460D02*
X017880Y014460D01*
X017880Y014619D02*
X018443Y014619D01*
X019111Y014936D02*
X019330Y014936D01*
X019330Y015094D02*
X019249Y015094D01*
X019307Y015253D02*
X019360Y015253D01*
X019307Y015411D02*
X019412Y015411D01*
X019456Y015570D02*
X019248Y015570D01*
X019107Y015728D02*
X019587Y015728D01*
X020073Y015728D02*
X022774Y015728D01*
X022616Y015570D02*
X020204Y015570D01*
X020248Y015411D02*
X022457Y015411D01*
X022299Y015253D02*
X020230Y015253D01*
X020135Y015094D02*
X022140Y015094D01*
X022032Y014936D02*
X019830Y014936D01*
X019830Y014777D02*
X022030Y014777D01*
X022030Y014619D02*
X019830Y014619D01*
X019830Y014460D02*
X022030Y014460D01*
X022030Y014302D02*
X019830Y014302D01*
X019830Y014143D02*
X022030Y014143D01*
X022030Y013985D02*
X019830Y013985D01*
X019830Y013826D02*
X022030Y013826D01*
X022030Y013668D02*
X019830Y013668D01*
X019830Y013509D02*
X022097Y013509D01*
X022256Y013351D02*
X019830Y013351D01*
X019830Y013192D02*
X022414Y013192D01*
X022573Y013034D02*
X019830Y013034D01*
X019830Y012875D02*
X022731Y012875D01*
X022890Y012717D02*
X019770Y012717D01*
X019612Y012558D02*
X023048Y012558D01*
X023130Y012400D02*
X019636Y012400D01*
X019759Y012241D02*
X023130Y012241D01*
X023130Y012083D02*
X019807Y012083D01*
X019803Y011924D02*
X023130Y011924D01*
X023130Y011766D02*
X020165Y011766D01*
X020357Y011607D02*
X023130Y011607D01*
X023130Y011449D02*
X020753Y011449D01*
X020837Y011290D02*
X023130Y011290D01*
X023130Y011132D02*
X020848Y011132D01*
X020797Y010973D02*
X023130Y010973D01*
X023130Y010815D02*
X021364Y010815D01*
X021477Y010656D02*
X023065Y010656D01*
X022976Y010498D02*
X021517Y010498D01*
X021505Y010339D02*
X022962Y010339D01*
X023010Y010181D02*
X022425Y010181D01*
X022700Y010022D02*
X023152Y010022D01*
X022972Y009388D02*
X022644Y009388D01*
X022552Y009230D02*
X022962Y009230D01*
X023014Y009071D02*
X022204Y009071D01*
X022162Y009230D02*
X022073Y009230D01*
X022257Y008913D02*
X023130Y008913D01*
X023130Y008754D02*
X022257Y008754D01*
X022193Y008596D02*
X023130Y008596D01*
X023130Y008437D02*
X022038Y008437D01*
X022691Y007645D02*
X010319Y007645D01*
X010161Y007803D02*
X022849Y007803D01*
X023008Y007962D02*
X010002Y007962D01*
X010478Y007486D02*
X022532Y007486D01*
X022374Y007328D02*
X010636Y007328D01*
X010795Y007169D02*
X022215Y007169D01*
X022057Y007011D02*
X015753Y007011D01*
X015912Y006852D02*
X021898Y006852D01*
X021740Y006694D02*
X016070Y006694D01*
X016229Y006535D02*
X021581Y006535D01*
X021423Y006377D02*
X016387Y006377D01*
X015997Y006060D02*
X014326Y006060D01*
X014335Y006050D02*
X014200Y006185D01*
X014025Y006257D01*
X013835Y006257D01*
X013660Y006185D01*
X013525Y006050D01*
X013453Y005875D01*
X013453Y005685D01*
X013525Y005510D01*
X013660Y005375D01*
X013835Y005303D01*
X014025Y005303D01*
X014200Y005375D01*
X014335Y005510D01*
X014407Y005685D01*
X014407Y005875D01*
X014335Y006050D01*
X014397Y005901D02*
X016155Y005901D01*
X016310Y005743D02*
X014407Y005743D01*
X014366Y005584D02*
X016303Y005584D01*
X016348Y005426D02*
X014251Y005426D01*
X013609Y005426D02*
X013407Y005426D01*
X013407Y005584D02*
X013494Y005584D01*
X013453Y005743D02*
X013407Y005743D01*
X013407Y005901D02*
X013463Y005901D01*
X013407Y006060D02*
X013534Y006060D01*
X013330Y006218D02*
X013740Y006218D01*
X014120Y006218D02*
X015838Y006218D01*
X014407Y004633D02*
X019679Y004633D01*
X019521Y004475D02*
X014407Y004475D01*
X014407Y004316D02*
X019362Y004316D01*
X019204Y004158D02*
X014761Y004158D01*
X013453Y004316D02*
X013407Y004316D01*
X013366Y004475D02*
X013453Y004475D01*
X013453Y004633D02*
X013252Y004633D01*
X012330Y008913D02*
X016806Y008913D01*
X018631Y010656D02*
X019029Y010656D01*
X018902Y010815D02*
X018758Y010815D01*
X018807Y010973D02*
X018853Y010973D01*
X018855Y011132D02*
X018805Y011132D01*
X018700Y010498D02*
X019211Y010498D01*
X019449Y010498D02*
X020563Y010498D01*
X020575Y010339D02*
X019696Y010339D01*
X019631Y010656D02*
X020603Y010656D01*
X020640Y010815D02*
X020716Y010815D01*
X020220Y010815D02*
X019758Y010815D01*
X019807Y010973D02*
X020063Y010973D01*
X020012Y011132D02*
X019805Y011132D01*
X018964Y010339D02*
X018807Y010339D01*
X018807Y010181D02*
X018876Y010181D01*
X018853Y010022D02*
X018807Y010022D01*
X018807Y009864D02*
X018882Y009864D01*
X018807Y009705D02*
X018980Y009705D01*
X018857Y011924D02*
X016721Y011924D01*
X016439Y011924D02*
X014530Y011924D01*
X014530Y011766D02*
X016225Y011766D01*
X016162Y011607D02*
X014530Y011607D01*
X014530Y011449D02*
X016162Y011449D01*
X016229Y011290D02*
X014530Y011290D01*
X014530Y012083D02*
X015136Y012083D01*
X015035Y012241D02*
X014530Y012241D01*
X014530Y012400D02*
X015012Y012400D01*
X014561Y012558D02*
X014530Y012558D01*
X014492Y013509D02*
X015683Y013509D01*
X016077Y013509D02*
X016155Y013509D01*
X016245Y013668D02*
X016314Y013668D01*
X016298Y013826D02*
X016472Y013826D01*
X016631Y013985D02*
X016289Y013985D01*
X016208Y014143D02*
X016789Y014143D01*
X016948Y014302D02*
X016130Y014302D01*
X016130Y014460D02*
X017106Y014460D01*
X017180Y014619D02*
X016130Y014619D01*
X016087Y014777D02*
X017180Y014777D01*
X017180Y014936D02*
X015928Y014936D01*
X015770Y015094D02*
X017180Y015094D01*
X017180Y015253D02*
X015730Y015253D01*
X015730Y015411D02*
X017180Y015411D01*
X017196Y015570D02*
X015730Y015570D01*
X015730Y015728D02*
X017324Y015728D01*
X017483Y015887D02*
X015790Y015887D01*
X016143Y016045D02*
X017641Y016045D01*
X017800Y016204D02*
X016339Y016204D01*
X016398Y016362D02*
X017880Y016362D01*
X017880Y016521D02*
X016395Y016521D01*
X016322Y016679D02*
X017880Y016679D01*
X017880Y016838D02*
X016329Y016838D01*
X016398Y016996D02*
X017880Y016996D01*
X017880Y017155D02*
X017496Y017155D01*
X017613Y017313D02*
X017880Y017313D01*
X017880Y017472D02*
X017648Y017472D01*
X017620Y017630D02*
X017880Y017630D01*
X016964Y017155D02*
X016408Y017155D01*
X014269Y018423D02*
X013952Y018423D01*
X014194Y018581D02*
X014241Y018581D01*
X017321Y013668D02*
X019330Y013668D01*
X019330Y013509D02*
X017163Y013509D01*
X017004Y013351D02*
X019330Y013351D01*
X019330Y013192D02*
X016846Y013192D01*
X016687Y013034D02*
X019330Y013034D01*
X019024Y012400D02*
X017953Y012400D01*
X017795Y012241D02*
X018901Y012241D01*
X018853Y012083D02*
X015724Y012083D01*
X015771Y012630D02*
X015771Y012630D01*
X016370Y012717D02*
X017563Y012717D01*
X017721Y012875D02*
X016529Y012875D01*
X012785Y009071D02*
X012330Y009071D01*
X012330Y009230D02*
X012627Y009230D01*
X012468Y009388D02*
X012330Y009388D01*
X011830Y010181D02*
X011269Y010181D01*
X011317Y010339D02*
X011830Y010339D01*
X011880Y010498D02*
X011303Y010498D01*
X011215Y010656D02*
X011880Y010656D01*
X009895Y011924D02*
X008828Y011924D01*
X008986Y012083D02*
X009789Y012083D01*
X009762Y012241D02*
X009145Y012241D01*
X009541Y012400D02*
X009798Y012400D01*
X009917Y012558D02*
X009661Y012558D01*
X009698Y012717D02*
X009930Y012717D01*
X009930Y012875D02*
X009672Y012875D01*
X008921Y015253D02*
X004711Y015253D01*
X004553Y015411D02*
X008765Y015411D01*
X008609Y015570D02*
X004394Y015570D01*
X004236Y015728D02*
X008453Y015728D01*
X008297Y015887D02*
X004077Y015887D01*
X003919Y016045D02*
X008141Y016045D01*
X007985Y016204D02*
X003760Y016204D01*
X003602Y016362D02*
X007829Y016362D01*
X007673Y016521D02*
X003580Y016521D01*
X003580Y016679D02*
X007518Y016679D01*
X007362Y016838D02*
X003580Y016838D01*
X003580Y016996D02*
X007206Y016996D01*
X007050Y017155D02*
X003608Y017155D01*
X003767Y017313D02*
X004644Y017313D01*
X004816Y017313D02*
X006893Y017313D01*
X006830Y017472D02*
X005063Y017472D01*
X005141Y017630D02*
X005700Y017630D01*
X005725Y017620D02*
X005915Y017620D01*
X006090Y017692D01*
X006225Y017827D01*
X006297Y018002D01*
X006297Y018192D01*
X006225Y018367D01*
X006090Y018502D01*
X005915Y018574D01*
X005725Y018574D01*
X005550Y018502D01*
X005415Y018367D01*
X005343Y018192D01*
X005343Y018002D01*
X005415Y017827D01*
X005550Y017692D01*
X005725Y017620D01*
X005940Y017630D02*
X006830Y017630D01*
X006830Y017789D02*
X006187Y017789D01*
X006275Y017947D02*
X006830Y017947D01*
X006830Y018106D02*
X006297Y018106D01*
X006268Y018264D02*
X006830Y018264D01*
X006830Y018423D02*
X006559Y018423D01*
X006651Y018581D02*
X006830Y018581D01*
X006830Y018740D02*
X006742Y018740D01*
X006301Y018423D02*
X006170Y018423D01*
X006027Y018581D02*
X004978Y018581D01*
X005069Y018740D02*
X005767Y018740D01*
X005731Y018898D02*
X005161Y018898D01*
X005137Y019057D02*
X005823Y019057D01*
X005914Y019215D02*
X004897Y019215D01*
X004985Y019236D02*
X004810Y019308D01*
X004675Y019443D01*
X004603Y019618D01*
X004603Y019808D01*
X004675Y019983D01*
X004810Y020118D01*
X004985Y020190D01*
X005175Y020190D01*
X005350Y020118D01*
X005485Y019983D01*
X005557Y019808D01*
X005557Y019618D01*
X005485Y019443D01*
X005350Y019308D01*
X005175Y019236D01*
X004985Y019236D01*
X004744Y019374D02*
X004623Y019374D01*
X004638Y019532D02*
X002880Y019532D01*
X002880Y019374D02*
X004333Y019374D01*
X004241Y019215D02*
X002880Y019215D01*
X002880Y019057D02*
X004150Y019057D01*
X004058Y018898D02*
X002880Y018898D01*
X002880Y018740D02*
X003995Y018740D01*
X003913Y018581D02*
X002880Y018581D01*
X002880Y018423D02*
X003755Y018423D01*
X003596Y018264D02*
X002880Y018264D01*
X002880Y018106D02*
X003438Y018106D01*
X003279Y017947D02*
X002880Y017947D01*
X002880Y017789D02*
X003121Y017789D01*
X002962Y017630D02*
X002880Y017630D01*
X003925Y017472D02*
X004397Y017472D01*
X004544Y018106D02*
X004173Y018106D01*
X004332Y018264D02*
X004635Y018264D01*
X004693Y018264D02*
X005372Y018264D01*
X005343Y018106D02*
X004916Y018106D01*
X005093Y017947D02*
X005365Y017947D01*
X005453Y017789D02*
X005148Y017789D01*
X004886Y018423D02*
X005470Y018423D01*
X005416Y019374D02*
X006006Y019374D01*
X006155Y019532D02*
X005522Y019532D01*
X005557Y019691D02*
X006685Y019691D01*
X006662Y019849D02*
X005540Y019849D01*
X005461Y020008D02*
X006701Y020008D01*
X006825Y020166D02*
X005234Y020166D01*
X004926Y020166D02*
X002880Y020166D01*
X002880Y020008D02*
X004699Y020008D01*
X004620Y019849D02*
X002880Y019849D01*
X002880Y019691D02*
X004603Y019691D01*
X006289Y019532D02*
X006787Y019532D01*
X006830Y019374D02*
X006564Y019374D01*
X007330Y018264D02*
X008368Y018264D01*
X008210Y018106D02*
X007330Y018106D01*
X007330Y017947D02*
X008051Y017947D01*
X007697Y017789D02*
X007330Y017789D01*
X007330Y017630D02*
X007590Y017630D01*
X007562Y017472D02*
X007439Y017472D01*
X007595Y017313D02*
X007597Y017313D01*
X005363Y023495D02*
X019812Y023495D01*
X019653Y023653D02*
X005555Y023653D01*
X012705Y026506D02*
X014121Y026506D01*
X021341Y018581D02*
X021905Y018581D01*
X021912Y018565D02*
X022047Y018431D01*
X022222Y018358D01*
X022412Y018358D01*
X022587Y018431D01*
X022722Y018565D01*
X022794Y018740D01*
X023130Y018740D01*
X023121Y018898D02*
X022794Y018898D01*
X022794Y018930D02*
X022722Y019106D01*
X022587Y019240D01*
X022412Y019313D01*
X022222Y019313D01*
X022047Y019240D01*
X021912Y019106D01*
X021840Y018930D01*
X021840Y018740D02*
X021912Y018565D01*
X022066Y018423D02*
X021432Y018423D01*
X021524Y018264D02*
X023130Y018264D01*
X023130Y018106D02*
X021615Y018106D01*
X021638Y017947D02*
X023130Y017947D01*
X023130Y017789D02*
X021479Y017789D01*
X022568Y018423D02*
X023130Y018423D01*
X023130Y018581D02*
X022728Y018581D01*
X022794Y018740D02*
X022794Y018930D01*
X022742Y019057D02*
X022999Y019057D01*
X022962Y019215D02*
X022613Y019215D01*
X022987Y019374D02*
X022204Y019374D01*
X022021Y019215D02*
X021930Y019215D01*
X022192Y020008D02*
X023520Y020008D01*
X023520Y020166D02*
X022100Y020166D01*
X022750Y020959D02*
X022974Y020959D01*
X021999Y010181D02*
X021433Y010181D01*
X021223Y010022D02*
X021907Y010022D01*
X009310Y009705D02*
X006792Y009705D01*
X006797Y009547D02*
X009310Y009547D01*
X009310Y009388D02*
X006750Y009388D01*
X006628Y009230D02*
X009310Y009230D01*
D19*
X013380Y012330D03*
X014680Y013980D03*
X015030Y011030D03*
X017280Y010380D03*
X020680Y013730D03*
M02*
