G75*
G70*
%OFA0B0*%
%FSLAX24Y24*%
%IPPOS*%
%LPD*%
%AMOC8*
5,1,8,0,0,1.08239X$1,22.5*
%
%ADD10C,0.0080*%
%ADD11C,0.0100*%
%ADD12R,0.0591X0.0160*%
%ADD13R,0.0160X0.0591*%
%ADD14R,0.0413X0.0256*%
%ADD15R,0.0236X0.0354*%
%ADD16R,0.0453X0.0591*%
%ADD17R,0.0354X0.0236*%
%ADD18R,0.0433X0.0236*%
%ADD19R,0.0555X0.0555*%
%ADD20C,0.0555*%
%ADD21C,0.0440*%
%ADD22R,0.0236X0.0276*%
%ADD23R,0.0555X0.0555*%
%ADD24R,0.0394X0.0138*%
%ADD25R,0.0945X0.0787*%
%ADD26C,0.1200*%
%ADD27R,0.0276X0.0236*%
%ADD28C,0.0120*%
%ADD29C,0.0436*%
%ADD30C,0.0160*%
%ADD31C,0.0400*%
D10*
X000930Y014280D02*
X000945Y014893D01*
X000990Y015505D01*
X001065Y016114D01*
X001170Y016719D01*
X001305Y017317D01*
X001468Y017909D01*
X001661Y018491D01*
X001882Y019064D01*
X002130Y019624D01*
X002406Y020172D01*
X002708Y020706D01*
X003037Y021225D01*
X003390Y021726D01*
X003767Y022210D01*
X004168Y022674D01*
X004591Y023119D01*
X005036Y023542D01*
X005500Y023943D01*
X005984Y024320D01*
X006485Y024673D01*
X007004Y025002D01*
X007538Y025304D01*
X008086Y025580D01*
X008646Y025828D01*
X009219Y026049D01*
X009801Y026242D01*
X010393Y026405D01*
X010991Y026540D01*
X011596Y026645D01*
X012205Y026720D01*
X012817Y026765D01*
X013430Y026780D01*
X014043Y026765D01*
X014655Y026720D01*
X015264Y026645D01*
X015869Y026540D01*
X016467Y026405D01*
X017059Y026242D01*
X017641Y026049D01*
X018214Y025828D01*
X018774Y025580D01*
X019322Y025304D01*
X019856Y025002D01*
X020375Y024673D01*
X020876Y024320D01*
X021360Y023943D01*
X021824Y023542D01*
X022269Y023119D01*
X022692Y022674D01*
X023093Y022210D01*
X023470Y021726D01*
X023823Y021225D01*
X024152Y020706D01*
X024454Y020172D01*
X024730Y019624D01*
X024978Y019064D01*
X025199Y018491D01*
X025392Y017909D01*
X025555Y017317D01*
X025690Y016719D01*
X025795Y016114D01*
X025870Y015505D01*
X025915Y014893D01*
X025930Y014280D01*
X025915Y013667D01*
X025870Y013055D01*
X025795Y012446D01*
X025690Y011841D01*
X025555Y011243D01*
X025392Y010651D01*
X025199Y010069D01*
X024978Y009496D01*
X024730Y008936D01*
X024454Y008388D01*
X024152Y007854D01*
X023823Y007335D01*
X023470Y006834D01*
X023093Y006350D01*
X022692Y005886D01*
X022269Y005441D01*
X021824Y005018D01*
X021360Y004617D01*
X020876Y004240D01*
X020375Y003887D01*
X019856Y003558D01*
X019322Y003256D01*
X018774Y002980D01*
X018214Y002732D01*
X017641Y002511D01*
X017059Y002318D01*
X016467Y002155D01*
X015869Y002020D01*
X015264Y001915D01*
X014655Y001840D01*
X014043Y001795D01*
X013430Y001780D01*
X012817Y001795D01*
X012205Y001840D01*
X011596Y001915D01*
X010991Y002020D01*
X010393Y002155D01*
X009801Y002318D01*
X009219Y002511D01*
X008646Y002732D01*
X008086Y002980D01*
X007538Y003256D01*
X007004Y003558D01*
X006485Y003887D01*
X005984Y004240D01*
X005500Y004617D01*
X005036Y005018D01*
X004591Y005441D01*
X004168Y005886D01*
X003767Y006350D01*
X003390Y006834D01*
X003037Y007335D01*
X002708Y007854D01*
X002406Y008388D01*
X002130Y008936D01*
X001882Y009496D01*
X001661Y010069D01*
X001468Y010651D01*
X001305Y011243D01*
X001170Y011841D01*
X001065Y012446D01*
X000990Y013055D01*
X000945Y013667D01*
X000930Y014280D01*
X017294Y011700D02*
X018010Y011700D01*
X018080Y011630D01*
X018930Y011630D01*
X019330Y012030D01*
X018930Y011430D02*
X019330Y011030D01*
X018930Y011430D02*
X018080Y011430D01*
X018035Y011385D01*
X017294Y011385D01*
X017294Y010755D02*
X017280Y010741D01*
D11*
X017280Y010380D01*
X017294Y011070D02*
X017640Y011070D01*
X018180Y010530D01*
X018830Y010530D01*
X019330Y010030D01*
X020540Y009597D02*
X021178Y009200D01*
X022180Y009530D01*
X022280Y009713D01*
X021682Y010060D02*
X021040Y010463D01*
X020430Y011180D02*
X020430Y011783D01*
X020430Y012177D02*
X019477Y012177D01*
X019330Y012030D01*
X020132Y012645D02*
X020430Y012943D01*
X020430Y013083D01*
X021480Y013083D01*
X021480Y013477D02*
X021233Y013477D01*
X020980Y013730D01*
X020680Y013730D01*
X020430Y014427D02*
X020430Y014517D01*
X019743Y013830D01*
X018630Y013830D01*
X017760Y012960D01*
X017294Y012960D01*
X017294Y013275D02*
X017775Y013275D01*
X018830Y014330D01*
X018330Y014130D02*
X018330Y014830D01*
X018830Y015330D01*
X019780Y016280D01*
X019780Y018630D01*
X018380Y020030D01*
X018380Y021780D01*
X017580Y022030D02*
X017580Y022533D01*
X017580Y022927D02*
X017580Y023130D01*
X017886Y023436D01*
X018406Y023436D01*
X018974Y023436D02*
X018030Y024380D01*
X017430Y024380D01*
X017430Y024100D01*
X016986Y023656D01*
X016709Y023933D01*
X016430Y023933D01*
X016383Y024280D02*
X015430Y024280D01*
X015880Y024730D02*
X014080Y024730D01*
X013930Y024580D01*
X013930Y023630D01*
X014030Y023530D01*
X014033Y023530D01*
X014427Y023530D02*
X014430Y023530D01*
X014430Y022780D01*
X015430Y022780D02*
X015430Y023530D01*
X015433Y023530D01*
X014683Y024280D01*
X014430Y024280D01*
X013280Y024380D02*
X013030Y024130D01*
X013030Y023827D01*
X013030Y023433D02*
X013030Y022530D01*
X012780Y022280D01*
X010430Y022280D01*
X009730Y021730D02*
X009730Y023077D01*
X009727Y023080D01*
X009333Y023080D02*
X009333Y023533D01*
X010224Y024424D01*
X010354Y024424D01*
X009606Y024424D02*
X009606Y025110D01*
X009586Y025130D01*
X009980Y023636D02*
X010136Y023480D01*
X011033Y023480D01*
X011427Y023480D02*
X011430Y023477D01*
X011430Y022780D01*
X012430Y023780D02*
X012780Y023430D01*
X013027Y023430D01*
X013030Y023433D01*
X012430Y023780D02*
X012430Y024280D01*
X015827Y023530D02*
X016027Y023330D01*
X016680Y023330D01*
X016680Y021480D01*
X016830Y021330D01*
X017330Y021780D02*
X017580Y022030D01*
X018686Y022730D02*
X019154Y023198D01*
X019154Y023436D01*
X018974Y023436D01*
X019474Y022730D02*
X019730Y022730D01*
X020630Y023630D01*
X018930Y024730D02*
X018780Y024580D01*
X018780Y024224D01*
X017774Y024030D02*
X017774Y023924D01*
X017180Y023330D01*
X016680Y023330D01*
X016383Y024280D02*
X016430Y024327D01*
X016507Y024404D01*
X016986Y024404D01*
X016480Y020230D02*
X015167Y020230D01*
X014611Y019674D01*
X015399Y019674D02*
X015405Y019680D01*
X016730Y019680D01*
X018040Y018370D01*
X018841Y018370D01*
X018841Y018626D02*
X018084Y018626D01*
X016480Y020230D01*
X015399Y018886D02*
X015915Y018370D01*
X016538Y018370D01*
X016538Y018626D02*
X016638Y018622D01*
X017130Y018630D01*
X016538Y018114D02*
X015384Y018114D01*
X014611Y018886D01*
X013824Y018886D02*
X013824Y018489D01*
X014233Y018080D01*
X014280Y018033D01*
X014280Y015430D01*
X014580Y015080D02*
X014400Y014900D01*
X014400Y014594D01*
X014085Y014594D02*
X014085Y013975D01*
X014830Y013230D01*
X014830Y012880D01*
X015430Y012380D02*
X014130Y012380D01*
X013455Y013055D01*
X013455Y014594D01*
X013770Y014594D02*
X013770Y013640D01*
X014230Y013180D01*
X013730Y012480D02*
X014180Y012030D01*
X014680Y012030D01*
X015030Y012030D01*
X015030Y012015D01*
X015880Y012015D01*
X015880Y013880D01*
X015030Y013880D01*
X015030Y014594D01*
X014715Y014594D02*
X014715Y014015D01*
X014680Y013980D01*
X015345Y014594D02*
X015345Y016695D01*
X015580Y016930D01*
X015580Y017380D01*
X015802Y017602D01*
X016538Y017602D01*
X016538Y017346D02*
X016814Y017346D01*
X017080Y017080D01*
X017080Y015780D01*
X016290Y014990D01*
X016290Y014594D01*
X016605Y014594D02*
X016605Y015005D01*
X018230Y016630D01*
X018230Y017080D01*
X018496Y017346D01*
X018841Y017346D01*
X018841Y017090D02*
X018831Y017080D01*
X018530Y017080D01*
X018430Y016980D01*
X018430Y015830D01*
X017880Y015280D01*
X017880Y014130D01*
X017655Y013905D01*
X017294Y013905D01*
X017294Y013590D02*
X017790Y013590D01*
X018330Y014130D01*
X017294Y012645D02*
X020132Y012645D01*
X021480Y013477D02*
X021480Y014033D01*
X021480Y014427D02*
X020430Y014427D01*
X020610Y015380D02*
X019830Y015380D01*
X020610Y015380D02*
X022083Y016853D01*
X022264Y017527D01*
X021909Y018142D01*
X021712Y018483D02*
X021969Y019439D01*
X021817Y019701D01*
X021209Y019354D02*
X021204Y019336D01*
X020566Y018968D01*
X021012Y019695D02*
X021012Y019812D01*
X022430Y021230D01*
X023380Y020280D01*
X023380Y019230D01*
X022722Y018727D02*
X022924Y018377D01*
X023210Y017883D01*
X022952Y016923D01*
X022556Y016722D02*
X022416Y016964D01*
X022578Y017570D01*
X022691Y017993D01*
X022583Y018181D01*
X022722Y018727D02*
X022317Y018835D01*
X021712Y018483D02*
X021069Y018111D01*
X021066Y018102D01*
X019380Y017333D02*
X019380Y016830D01*
X019376Y016834D01*
X018841Y016834D01*
X018841Y017602D02*
X017352Y017602D01*
X017230Y017480D01*
X016770Y017090D02*
X016538Y017090D01*
X016770Y017090D02*
X016880Y016980D01*
X016880Y015880D01*
X015975Y014975D01*
X015975Y014594D01*
X015660Y014594D02*
X015660Y015350D01*
X015560Y015450D01*
X015560Y016610D01*
X015980Y017030D01*
X015980Y017080D01*
X016480Y016817D02*
X016480Y016427D01*
X016477Y016430D01*
X015980Y016430D01*
X016480Y016817D02*
X016493Y016830D01*
X016538Y016834D01*
X016480Y016033D02*
X016127Y015680D01*
X016030Y015680D01*
X015130Y015230D02*
X014980Y015080D01*
X014580Y015080D01*
X015130Y015230D02*
X015130Y016780D01*
X015380Y017030D01*
X015380Y017480D01*
X015758Y017858D01*
X016538Y017858D01*
X018841Y017858D01*
X014630Y018077D02*
X014630Y017530D01*
X014630Y018077D02*
X014627Y018080D01*
X013877Y018046D02*
X013877Y017480D01*
X013880Y017477D01*
X013880Y015980D01*
X013480Y016130D02*
X012483Y017127D01*
X012483Y017480D01*
X012483Y018652D01*
X012249Y018886D01*
X013036Y018886D02*
X013877Y018046D01*
X013483Y017480D02*
X013483Y017183D01*
X013230Y016930D01*
X013483Y017480D02*
X012877Y017480D01*
X013480Y016130D02*
X013480Y015430D01*
X012766Y013905D02*
X012105Y013905D01*
X011930Y014080D01*
X011770Y013590D02*
X011380Y013980D01*
X011380Y014430D01*
X011770Y013590D02*
X012766Y013590D01*
X012766Y013275D02*
X010925Y013275D01*
X009835Y013285D01*
X009735Y013175D01*
X009280Y012730D01*
X008930Y013380D02*
X010630Y015080D01*
X010630Y015730D01*
X009630Y016730D01*
X009630Y017630D01*
X009480Y017780D01*
X009480Y018780D01*
X009080Y019230D02*
X009080Y017830D01*
X009380Y017530D01*
X009380Y016630D01*
X010430Y015580D01*
X010430Y015230D01*
X008680Y013480D01*
X008680Y011930D01*
X009225Y011385D01*
X012766Y011385D01*
X012766Y011070D02*
X010373Y011070D01*
X010230Y010927D01*
X010350Y010927D01*
X010897Y010380D01*
X010230Y010533D02*
X010230Y009930D01*
X009560Y010380D02*
X008277Y011663D01*
X008277Y013130D01*
X008277Y013377D01*
X009230Y014330D01*
X009230Y014803D01*
X008627Y015406D01*
X008230Y014927D02*
X008230Y014577D01*
X008233Y014580D01*
X008730Y014580D01*
X008233Y014180D02*
X008230Y014183D01*
X008227Y014180D01*
X007577Y014180D01*
X007580Y014183D01*
X007577Y014180D02*
X006931Y014180D01*
X006931Y013806D02*
X006931Y013132D01*
X006933Y013130D01*
X006933Y011377D01*
X009080Y009230D01*
X015080Y009230D01*
X015345Y009495D01*
X015345Y010066D01*
X015030Y010066D02*
X015030Y011030D01*
X014680Y010530D02*
X014680Y012030D01*
X013730Y012180D02*
X013530Y011980D01*
X013280Y011980D01*
X013245Y012015D01*
X012766Y012015D01*
X012766Y011700D02*
X009260Y011700D01*
X008930Y012030D01*
X008930Y013380D01*
X007883Y013130D02*
X007327Y013130D01*
X007330Y012580D02*
X007330Y011280D01*
X009180Y009430D01*
X014130Y009430D01*
X014400Y009700D01*
X014400Y010066D01*
X014085Y010066D02*
X014085Y010535D01*
X014280Y010730D01*
X014680Y010530D02*
X014715Y010495D01*
X014715Y010066D01*
X013770Y010066D02*
X013770Y011020D01*
X013880Y011130D01*
X013455Y011555D02*
X013480Y011580D01*
X013455Y011555D02*
X013455Y010066D01*
X012766Y010066D02*
X012766Y010755D01*
X012766Y010066D02*
X012730Y010030D01*
X012080Y008530D02*
X012080Y005380D01*
X011080Y005380D01*
X010586Y004886D01*
X010586Y004680D01*
X010930Y004610D02*
X010930Y004330D01*
X010930Y004610D02*
X011374Y005054D01*
X011553Y005054D01*
X011930Y004677D01*
X011903Y004704D01*
X011930Y004283D02*
X011397Y004283D01*
X011374Y004306D01*
X011930Y004283D02*
X011933Y004280D01*
X012930Y004280D01*
X013380Y003780D02*
X014580Y003780D01*
X014380Y004977D01*
X014327Y005030D01*
X013933Y005030D02*
X013930Y005780D01*
X012930Y005780D02*
X012927Y005030D01*
X013677Y004280D01*
X013930Y004280D01*
X012533Y005030D02*
X012430Y005030D01*
X012080Y005380D01*
X012730Y007530D02*
X012630Y007630D01*
X012730Y007530D02*
X013233Y007530D01*
X013233Y008180D01*
X013627Y008180D02*
X014233Y008180D01*
X014627Y008180D02*
X015630Y008180D01*
X015975Y008525D01*
X015975Y010066D01*
X016290Y010066D02*
X016290Y008390D01*
X015430Y007530D01*
X014627Y007530D01*
X014233Y007530D02*
X013627Y007530D01*
X015180Y009030D02*
X015660Y009510D01*
X015660Y010066D01*
X016605Y010066D02*
X016605Y008558D01*
X017583Y007580D01*
X017977Y007580D02*
X018154Y007403D01*
X018154Y006974D01*
X017780Y006186D02*
X017780Y005627D01*
X017783Y005630D01*
X018780Y005630D01*
X017780Y005233D02*
X017177Y005233D01*
X016780Y005630D01*
X016780Y006480D02*
X017274Y006974D01*
X017406Y006974D01*
X018580Y007730D02*
X020330Y007730D01*
X020683Y006889D01*
X021180Y006980D02*
X020753Y007758D01*
X020960Y008178D01*
X021300Y007982D02*
X021401Y007384D01*
X021300Y007982D02*
X021780Y008847D01*
X020982Y008860D02*
X020330Y007730D01*
X018580Y007730D02*
X017130Y009180D01*
X015180Y009030D02*
X008980Y009030D01*
X005833Y012177D01*
X005833Y012430D01*
X005180Y013083D01*
X005180Y013477D02*
X005180Y013905D01*
X005829Y014554D01*
X005833Y014558D01*
X005829Y013806D02*
X005829Y013134D01*
X005833Y013130D01*
X006227Y013130D02*
X006227Y012430D01*
X005583Y011827D02*
X005371Y011827D01*
X005371Y010840D01*
X004982Y010450D01*
X005178Y010110D02*
X004930Y009080D01*
X005080Y008847D01*
X005682Y009200D02*
X006320Y009597D01*
X005878Y008860D02*
X005830Y008680D01*
X004030Y007680D01*
X003480Y008580D01*
X002630Y008000D02*
X002630Y020530D01*
X004580Y018847D02*
X005682Y019360D01*
X006320Y018963D01*
X005878Y019700D02*
X005928Y019778D01*
X006830Y020680D01*
X007080Y020430D01*
X007080Y019830D01*
X006830Y020680D02*
X006830Y021318D01*
X006527Y021621D01*
X006030Y021630D02*
X006457Y020752D01*
X005900Y020382D01*
X005560Y020578D02*
X005809Y021126D01*
X005560Y020578D02*
X005080Y019713D01*
X005178Y018450D02*
X005820Y018097D01*
X004982Y018110D02*
X004730Y017730D01*
X007183Y016577D02*
X007183Y015780D01*
X007577Y015780D02*
X007583Y015774D01*
X007583Y015180D02*
X007580Y015177D01*
X007977Y015180D02*
X008230Y014927D01*
X007580Y014577D02*
X007557Y014554D01*
X007183Y016577D02*
X007186Y016580D01*
X010910Y012960D02*
X010180Y012230D01*
X011130Y012130D02*
X011677Y012677D01*
X012030Y012677D01*
X012062Y012645D01*
X012766Y012645D01*
X013245Y012645D01*
X013280Y012680D01*
X013530Y012680D01*
X013730Y012480D01*
X013730Y012180D01*
X013380Y012330D02*
X012766Y012330D01*
X012077Y012330D01*
X012030Y012283D01*
X012766Y012960D02*
X010910Y012960D01*
X006980Y010430D02*
X005583Y011827D01*
X004930Y012080D02*
X004876Y011109D01*
X004450Y010828D01*
X004110Y010632D02*
X004030Y010780D01*
X004502Y011757D01*
X004110Y010632D02*
X004580Y009713D01*
X005178Y010110D02*
X005820Y010463D01*
X015880Y012015D02*
X016580Y012015D01*
X016580Y011530D01*
X016580Y012015D02*
X017294Y012015D01*
X017294Y012330D02*
X018030Y012330D01*
X018330Y012030D01*
X021878Y010400D02*
X023380Y010380D01*
X023380Y009280D01*
X024230Y008000D02*
X024230Y020530D01*
D12*
X017294Y013905D03*
X017294Y013590D03*
X017294Y013275D03*
X017294Y012960D03*
X017294Y012645D03*
X017294Y012330D03*
X017294Y012015D03*
X017294Y011700D03*
X017294Y011385D03*
X017294Y011070D03*
X017294Y010755D03*
X012766Y010755D03*
X012766Y011070D03*
X012766Y011385D03*
X012766Y011700D03*
X012766Y012015D03*
X012766Y012330D03*
X012766Y012645D03*
X012766Y012960D03*
X012766Y013275D03*
X012766Y013590D03*
X012766Y013905D03*
D13*
X013455Y014594D03*
X013770Y014594D03*
X014085Y014594D03*
X014400Y014594D03*
X014715Y014594D03*
X015030Y014594D03*
X015345Y014594D03*
X015660Y014594D03*
X015975Y014594D03*
X016290Y014594D03*
X016605Y014594D03*
X016605Y010066D03*
X016290Y010066D03*
X015975Y010066D03*
X015660Y010066D03*
X015345Y010066D03*
X015030Y010066D03*
X014715Y010066D03*
X014400Y010066D03*
X014085Y010066D03*
X013770Y010066D03*
X013455Y010066D03*
D14*
X008627Y015406D03*
X008627Y016154D03*
X009533Y015780D03*
D15*
X007977Y015180D03*
X007583Y015180D03*
X007577Y015780D03*
X007183Y015780D03*
X006227Y015230D03*
X005833Y015230D03*
X005833Y013130D03*
X006227Y013130D03*
X006227Y012430D03*
X005833Y012430D03*
X006933Y013130D03*
X007327Y013130D03*
X007883Y013130D03*
X008277Y013130D03*
X012483Y017480D03*
X012877Y017480D03*
X013483Y017480D03*
X013877Y017480D03*
X014233Y018080D03*
X014627Y018080D03*
X009727Y023080D03*
X009333Y023080D03*
X011033Y023480D03*
X011427Y023480D03*
X014033Y023530D03*
X014427Y023530D03*
X015433Y023530D03*
X015827Y023530D03*
X014627Y008180D03*
X014233Y008180D03*
X013627Y008180D03*
X013233Y008180D03*
X013233Y007530D03*
X013627Y007530D03*
X014233Y007530D03*
X014627Y007530D03*
X014327Y005030D03*
X013933Y005030D03*
X012927Y005030D03*
X012533Y005030D03*
X017583Y007580D03*
X017977Y007580D03*
D16*
X007974Y016580D03*
X007186Y016580D03*
X009586Y025130D03*
X010374Y025130D03*
X018686Y022730D03*
X019474Y022730D03*
D17*
X017580Y022533D03*
X017580Y022927D03*
X016430Y023933D03*
X016430Y024327D03*
X013030Y023827D03*
X013030Y023433D03*
X019380Y017727D03*
X019380Y017333D03*
G36*
X021421Y019341D02*
X021115Y019164D01*
X020997Y019367D01*
X021303Y019544D01*
X021421Y019341D01*
G37*
G36*
X021224Y019682D02*
X020918Y019505D01*
X020800Y019708D01*
X021106Y019885D01*
X021224Y019682D01*
G37*
G36*
X021500Y018496D02*
X021806Y018673D01*
X021924Y018470D01*
X021618Y018293D01*
X021500Y018496D01*
G37*
G36*
X021697Y018155D02*
X022003Y018332D01*
X022121Y018129D01*
X021815Y017952D01*
X021697Y018155D01*
G37*
G36*
X022596Y018393D02*
X022773Y018087D01*
X022570Y017969D01*
X022393Y018275D01*
X022596Y018393D01*
G37*
G36*
X022937Y018589D02*
X023114Y018283D01*
X022911Y018165D01*
X022734Y018471D01*
X022937Y018589D01*
G37*
X021480Y014427D03*
X021480Y014033D03*
X021480Y013477D03*
X021480Y013083D03*
X020430Y012177D03*
X020430Y011783D03*
G36*
X021972Y010210D02*
X021666Y010387D01*
X021784Y010590D01*
X022090Y010413D01*
X021972Y010210D01*
G37*
G36*
X021776Y009870D02*
X021470Y010047D01*
X021588Y010250D01*
X021894Y010073D01*
X021776Y009870D01*
G37*
G36*
X021084Y009390D02*
X021390Y009213D01*
X021272Y009010D01*
X020966Y009187D01*
X021084Y009390D01*
G37*
G36*
X020888Y009050D02*
X021194Y008873D01*
X021076Y008670D01*
X020770Y008847D01*
X020888Y009050D01*
G37*
G36*
X021150Y008272D02*
X020973Y007966D01*
X020770Y008084D01*
X020947Y008390D01*
X021150Y008272D01*
G37*
G36*
X021490Y008076D02*
X021313Y007770D01*
X021110Y007888D01*
X021287Y008194D01*
X021490Y008076D01*
G37*
X017780Y005627D03*
X017780Y005233D03*
X011930Y004677D03*
X011930Y004283D03*
X010230Y010533D03*
X010230Y010927D03*
X012030Y012283D03*
X012030Y012677D03*
X008230Y014183D03*
X008230Y014577D03*
X007580Y014577D03*
X007580Y014183D03*
X005180Y013477D03*
X005180Y013083D03*
G36*
X004437Y010616D02*
X004260Y010922D01*
X004463Y011040D01*
X004640Y010734D01*
X004437Y010616D01*
G37*
G36*
X004097Y010420D02*
X003920Y010726D01*
X004123Y010844D01*
X004300Y010538D01*
X004097Y010420D01*
G37*
G36*
X005194Y010437D02*
X004888Y010260D01*
X004770Y010463D01*
X005076Y010640D01*
X005194Y010437D01*
G37*
G36*
X005390Y010097D02*
X005084Y009920D01*
X004966Y010123D01*
X005272Y010300D01*
X005390Y010097D01*
G37*
G36*
X005470Y009213D02*
X005776Y009390D01*
X005894Y009187D01*
X005588Y009010D01*
X005470Y009213D01*
G37*
G36*
X005666Y008873D02*
X005972Y009050D01*
X006090Y008847D01*
X005784Y008670D01*
X005666Y008873D01*
G37*
G36*
X004888Y018300D02*
X005194Y018123D01*
X005076Y017920D01*
X004770Y018097D01*
X004888Y018300D01*
G37*
G36*
X005084Y018640D02*
X005390Y018463D01*
X005272Y018260D01*
X004966Y018437D01*
X005084Y018640D01*
G37*
G36*
X005776Y019170D02*
X005470Y019347D01*
X005588Y019550D01*
X005894Y019373D01*
X005776Y019170D01*
G37*
G36*
X005972Y019510D02*
X005666Y019687D01*
X005784Y019890D01*
X006090Y019713D01*
X005972Y019510D01*
G37*
G36*
X005710Y020288D02*
X005887Y020594D01*
X006090Y020476D01*
X005913Y020170D01*
X005710Y020288D01*
G37*
G36*
X005370Y020484D02*
X005547Y020790D01*
X005750Y020672D01*
X005573Y020366D01*
X005370Y020484D01*
G37*
X016480Y016427D03*
X016480Y016033D03*
D18*
X006931Y014554D03*
X006931Y014180D03*
X006931Y013806D03*
X005829Y013806D03*
X005829Y014554D03*
D19*
X012430Y022780D03*
X011430Y024280D03*
X014430Y024280D03*
X015430Y022780D03*
X018330Y010030D03*
X012930Y005780D03*
X013930Y004280D03*
D20*
X012930Y004280D03*
X013930Y005780D03*
X016780Y005630D03*
X018780Y005630D03*
X021780Y008847D03*
X021040Y010463D03*
X019330Y010030D03*
X019330Y011030D03*
X019330Y012030D03*
X018330Y012030D03*
X018330Y011030D03*
X018830Y013330D03*
X018830Y014330D03*
X018830Y015330D03*
X020566Y018968D03*
X022317Y018835D03*
X018380Y021780D03*
X015399Y019674D03*
X015399Y018886D03*
X014611Y018886D03*
X013824Y018886D03*
X013824Y019674D03*
X014611Y019674D03*
X013036Y019674D03*
X012249Y019674D03*
X011461Y019674D03*
X011461Y018886D03*
X012249Y018886D03*
X013036Y018886D03*
X013430Y021780D03*
X014430Y022780D03*
X015430Y024280D03*
X012430Y024280D03*
X011430Y022780D03*
X008430Y021780D03*
X005080Y019713D03*
X005820Y018097D03*
X004580Y009713D03*
X006320Y009597D03*
D21*
X009560Y010380D03*
X010897Y010380D03*
D22*
X017406Y006974D03*
X017780Y006186D03*
X018154Y006974D03*
X018406Y023436D03*
X019154Y023436D03*
X018780Y024224D03*
X010354Y024424D03*
X009606Y024424D03*
X009980Y023636D03*
D23*
G36*
X005942Y018862D02*
X006219Y019341D01*
X006698Y019064D01*
X006421Y018585D01*
X005942Y018862D01*
G37*
G36*
X004958Y018948D02*
X004681Y018469D01*
X004202Y018746D01*
X004479Y019225D01*
X004958Y018948D01*
G37*
G36*
X005719Y010085D02*
X005442Y010564D01*
X005921Y010841D01*
X006198Y010362D01*
X005719Y010085D01*
G37*
G36*
X005181Y009225D02*
X005458Y008746D01*
X004979Y008469D01*
X004702Y008948D01*
X005181Y009225D01*
G37*
G36*
X020918Y009698D02*
X020641Y009219D01*
X020162Y009496D01*
X020439Y009975D01*
X020918Y009698D01*
G37*
G36*
X021902Y009612D02*
X022179Y010091D01*
X022658Y009814D01*
X022381Y009335D01*
X021902Y009612D01*
G37*
G36*
X021167Y018480D02*
X021444Y018001D01*
X020965Y017724D01*
X020688Y018203D01*
X021167Y018480D01*
G37*
G36*
X021716Y019323D02*
X021439Y019802D01*
X021918Y020079D01*
X022195Y019600D01*
X021716Y019323D01*
G37*
D24*
X018841Y018626D03*
X018841Y018370D03*
X018841Y018114D03*
X018841Y017858D03*
X018841Y017602D03*
X018841Y017346D03*
X018841Y017090D03*
X018841Y016834D03*
X016538Y016834D03*
X016538Y017090D03*
X016538Y017346D03*
X016538Y017602D03*
X016538Y017858D03*
X016538Y018114D03*
X016538Y018370D03*
X016538Y018626D03*
D25*
X020430Y014517D03*
X020430Y012943D03*
D26*
X023430Y014280D03*
X003430Y014280D03*
D27*
G36*
X005193Y011860D02*
X005431Y011998D01*
X005549Y011794D01*
X005311Y011656D01*
X005193Y011860D01*
G37*
G36*
X004324Y011790D02*
X004562Y011928D01*
X004680Y011724D01*
X004442Y011586D01*
X004324Y011790D01*
G37*
G36*
X004698Y011142D02*
X004936Y011280D01*
X005054Y011076D01*
X004816Y010938D01*
X004698Y011142D01*
G37*
X010586Y004680D03*
X011374Y004306D03*
X011374Y005054D03*
G36*
X020854Y006949D02*
X020716Y006711D01*
X020512Y006829D01*
X020650Y007067D01*
X020854Y006949D01*
G37*
G36*
X021572Y007444D02*
X021434Y007206D01*
X021230Y007324D01*
X021368Y007562D01*
X021572Y007444D01*
G37*
G36*
X020924Y007818D02*
X020786Y007580D01*
X020582Y007698D01*
X020720Y007936D01*
X020924Y007818D01*
G37*
G36*
X022261Y016820D02*
X022023Y016682D01*
X021905Y016886D01*
X022143Y017024D01*
X022261Y016820D01*
G37*
G36*
X023130Y016890D02*
X022892Y016752D01*
X022774Y016956D01*
X023012Y017094D01*
X023130Y016890D01*
G37*
G36*
X022756Y017537D02*
X022518Y017399D01*
X022400Y017603D01*
X022638Y017741D01*
X022756Y017537D01*
G37*
X016986Y023656D03*
X016986Y024404D03*
X017774Y024030D03*
G36*
X006356Y021561D02*
X006494Y021799D01*
X006698Y021681D01*
X006560Y021443D01*
X006356Y021561D01*
G37*
G36*
X005638Y021066D02*
X005776Y021304D01*
X005980Y021186D01*
X005842Y020948D01*
X005638Y021066D01*
G37*
G36*
X006286Y020692D02*
X006424Y020930D01*
X006628Y020812D01*
X006490Y020574D01*
X006286Y020692D01*
G37*
D28*
X010374Y025130D02*
X010580Y025130D01*
X011430Y024280D01*
X011430Y024130D01*
X012430Y023130D01*
X012430Y022780D01*
D29*
X004030Y007680D03*
X003480Y008580D03*
X004930Y012080D03*
X006980Y010430D03*
X007330Y012580D03*
X009280Y012730D03*
X010180Y012230D03*
X011130Y012130D03*
X011930Y014080D03*
X011380Y014430D03*
X009830Y015280D03*
X008730Y014580D03*
X006530Y015880D03*
X007980Y017480D03*
X008580Y017230D03*
X009480Y018780D03*
X009080Y019230D03*
X007080Y019830D03*
X006030Y021630D03*
X008780Y025130D03*
X010430Y022280D03*
X009730Y021730D03*
X013280Y024380D03*
X015880Y024730D03*
X017430Y024380D03*
X018930Y024730D03*
X020630Y023630D03*
X022430Y021230D03*
X023380Y019230D03*
X022556Y016722D03*
X019830Y015380D03*
X019380Y016830D03*
X017230Y017480D03*
X017130Y018630D03*
X015980Y017080D03*
X015980Y016430D03*
X016030Y015680D03*
X014280Y015430D03*
X013880Y015980D03*
X013480Y015430D03*
X013230Y016930D03*
X014630Y017530D03*
X015880Y013880D03*
X014830Y012880D03*
X015430Y012380D03*
X016580Y011530D03*
X014280Y010730D03*
X013880Y011130D03*
X013480Y011580D03*
X014230Y013180D03*
X012730Y010030D03*
X012080Y008530D03*
X012630Y007630D03*
X010230Y009930D03*
X010930Y004330D03*
X013380Y003780D03*
X014580Y003780D03*
X016780Y006480D03*
X017130Y009180D03*
X020430Y011180D03*
X023380Y010380D03*
X023380Y009280D03*
X021180Y006980D03*
X016830Y021330D03*
X017330Y021780D03*
X004730Y017730D03*
D30*
X005833Y017233D02*
X010380Y021780D01*
X013430Y021780D01*
X014630Y021130D02*
X011930Y021130D01*
X011461Y020661D01*
X011461Y019674D01*
X008974Y019674D01*
X008580Y019280D01*
X008580Y017880D01*
X009080Y017380D01*
X009080Y015780D01*
X007577Y015780D01*
X007583Y015774D02*
X007583Y015180D01*
X007580Y015177D02*
X007580Y014577D01*
X007557Y014554D02*
X006931Y014554D01*
X006931Y014180D02*
X006380Y014180D01*
X006380Y013283D01*
X006227Y013130D01*
X006380Y014180D02*
X006377Y014830D01*
X006377Y015080D01*
X006227Y015230D01*
X006227Y015577D01*
X006530Y015880D01*
X006530Y015924D01*
X007186Y016580D01*
X007974Y016580D02*
X007974Y017474D01*
X007980Y017480D01*
X008580Y017230D02*
X008627Y017183D01*
X008627Y016154D01*
X009080Y015780D02*
X009533Y015780D01*
X009830Y015280D02*
X008753Y015280D01*
X008627Y015406D01*
X005833Y015230D02*
X005833Y014558D01*
X005833Y015230D02*
X005833Y017233D01*
X008780Y025130D02*
X009586Y025130D01*
X014630Y021130D02*
X015180Y020580D01*
X016630Y020580D01*
X018130Y019080D01*
X018980Y019080D01*
X019380Y018680D01*
X019380Y018130D01*
X019364Y018114D01*
X018841Y018114D01*
X019380Y018130D02*
X019380Y017727D01*
D31*
X020680Y013730D03*
X017280Y010380D03*
X015030Y011030D03*
X013380Y012330D03*
X014680Y013980D03*
M02*
