G75*
G70*
%OFA0B0*%
%FSLAX24Y24*%
%IPPOS*%
%LPD*%
%AMOC8*
5,1,8,0,0,1.08239X$1,22.5*
%
%ADD10R,0.0671X0.0240*%
%ADD11R,0.0240X0.0671*%
%ADD12R,0.0493X0.0336*%
%ADD13R,0.0316X0.0434*%
%ADD14R,0.0533X0.0671*%
%ADD15R,0.0434X0.0316*%
%ADD16R,0.0513X0.0316*%
%ADD17R,0.0635X0.0635*%
%ADD18C,0.0635*%
%ADD19C,0.0520*%
%ADD20R,0.0316X0.0356*%
%ADD21R,0.0635X0.0635*%
%ADD22R,0.0474X0.0218*%
%ADD23R,0.1025X0.0867*%
%ADD24C,0.1280*%
%ADD25R,0.0356X0.0316*%
D10*
X012766Y010755D03*
X012766Y011070D03*
X012766Y011385D03*
X012766Y011700D03*
X012766Y012015D03*
X012766Y012330D03*
X012766Y012645D03*
X012766Y012960D03*
X012766Y013275D03*
X012766Y013590D03*
X012766Y013905D03*
X017294Y013905D03*
X017294Y013590D03*
X017294Y013275D03*
X017294Y012960D03*
X017294Y012645D03*
X017294Y012330D03*
X017294Y012015D03*
X017294Y011700D03*
X017294Y011385D03*
X017294Y011070D03*
X017294Y010755D03*
D11*
X016605Y010066D03*
X016290Y010066D03*
X015975Y010066D03*
X015660Y010066D03*
X015345Y010066D03*
X015030Y010066D03*
X014715Y010066D03*
X014400Y010066D03*
X014085Y010066D03*
X013770Y010066D03*
X013455Y010066D03*
X013455Y014594D03*
X013770Y014594D03*
X014085Y014594D03*
X014400Y014594D03*
X014715Y014594D03*
X015030Y014594D03*
X015345Y014594D03*
X015660Y014594D03*
X015975Y014594D03*
X016290Y014594D03*
X016605Y014594D03*
D12*
X009533Y015780D03*
X008627Y015406D03*
X008627Y016154D03*
D13*
X007977Y015180D03*
X007583Y015180D03*
X007577Y015780D03*
X007183Y015780D03*
X006227Y015230D03*
X005833Y015230D03*
X005833Y013130D03*
X006227Y013130D03*
X006227Y012430D03*
X005833Y012430D03*
X006933Y013130D03*
X007327Y013130D03*
X007883Y013130D03*
X008277Y013130D03*
X012483Y017480D03*
X012877Y017480D03*
X013483Y017480D03*
X013877Y017480D03*
X014233Y018080D03*
X014627Y018080D03*
X009727Y023080D03*
X009333Y023080D03*
X011033Y023480D03*
X011427Y023480D03*
X014033Y023530D03*
X014427Y023530D03*
X015433Y023530D03*
X015827Y023530D03*
X014627Y008180D03*
X014233Y008180D03*
X013627Y008180D03*
X013233Y008180D03*
X013233Y007530D03*
X013627Y007530D03*
X014233Y007530D03*
X014627Y007530D03*
X014327Y005030D03*
X013933Y005030D03*
X012927Y005030D03*
X012533Y005030D03*
X017583Y007580D03*
X017977Y007580D03*
D14*
X007974Y016580D03*
X007186Y016580D03*
X009586Y025130D03*
X010374Y025130D03*
X018686Y022730D03*
X019474Y022730D03*
D15*
X017580Y022533D03*
X017580Y022927D03*
X016430Y023933D03*
X016430Y024327D03*
X013030Y023827D03*
X013030Y023433D03*
X019380Y017727D03*
X019380Y017333D03*
G36*
X021475Y019326D02*
X021101Y019109D01*
X020943Y019382D01*
X021317Y019599D01*
X021475Y019326D01*
G37*
G36*
X021278Y019667D02*
X020904Y019450D01*
X020746Y019723D01*
X021120Y019940D01*
X021278Y019667D01*
G37*
G36*
X021446Y018511D02*
X021820Y018728D01*
X021978Y018455D01*
X021604Y018238D01*
X021446Y018511D01*
G37*
G36*
X021643Y018170D02*
X022017Y018387D01*
X022175Y018114D01*
X021801Y017897D01*
X021643Y018170D01*
G37*
G36*
X022611Y018447D02*
X022828Y018073D01*
X022555Y017915D01*
X022338Y018289D01*
X022611Y018447D01*
G37*
G36*
X022952Y018643D02*
X023169Y018269D01*
X022896Y018111D01*
X022679Y018485D01*
X022952Y018643D01*
G37*
X021480Y014427D03*
X021480Y014033D03*
X021480Y013477D03*
X021480Y013083D03*
X020430Y012177D03*
X020430Y011783D03*
G36*
X021986Y010155D02*
X021612Y010372D01*
X021770Y010645D01*
X022144Y010428D01*
X021986Y010155D01*
G37*
G36*
X021790Y009815D02*
X021416Y010032D01*
X021574Y010305D01*
X021948Y010088D01*
X021790Y009815D01*
G37*
G36*
X021070Y009445D02*
X021444Y009228D01*
X021286Y008955D01*
X020912Y009172D01*
X021070Y009445D01*
G37*
G36*
X020874Y009105D02*
X021248Y008888D01*
X021090Y008615D01*
X020716Y008832D01*
X020874Y009105D01*
G37*
G36*
X021205Y008286D02*
X020988Y007912D01*
X020715Y008070D01*
X020932Y008444D01*
X021205Y008286D01*
G37*
G36*
X021545Y008090D02*
X021328Y007716D01*
X021055Y007874D01*
X021272Y008248D01*
X021545Y008090D01*
G37*
X017780Y005627D03*
X017780Y005233D03*
X011930Y004677D03*
X011930Y004283D03*
X010230Y010533D03*
X010230Y010927D03*
X012030Y012283D03*
X012030Y012677D03*
X008230Y014183D03*
X008230Y014577D03*
X007580Y014577D03*
X007580Y014183D03*
X005180Y013477D03*
X005180Y013083D03*
G36*
X004422Y010562D02*
X004205Y010936D01*
X004478Y011094D01*
X004695Y010720D01*
X004422Y010562D01*
G37*
G36*
X004082Y010366D02*
X003865Y010740D01*
X004138Y010898D01*
X004355Y010524D01*
X004082Y010366D01*
G37*
G36*
X005248Y010422D02*
X004874Y010205D01*
X004716Y010478D01*
X005090Y010695D01*
X005248Y010422D01*
G37*
G36*
X005444Y010082D02*
X005070Y009865D01*
X004912Y010138D01*
X005286Y010355D01*
X005444Y010082D01*
G37*
G36*
X005416Y009228D02*
X005790Y009445D01*
X005948Y009172D01*
X005574Y008955D01*
X005416Y009228D01*
G37*
G36*
X005612Y008888D02*
X005986Y009105D01*
X006144Y008832D01*
X005770Y008615D01*
X005612Y008888D01*
G37*
G36*
X004874Y018355D02*
X005248Y018138D01*
X005090Y017865D01*
X004716Y018082D01*
X004874Y018355D01*
G37*
G36*
X005070Y018695D02*
X005444Y018478D01*
X005286Y018205D01*
X004912Y018422D01*
X005070Y018695D01*
G37*
G36*
X005790Y019115D02*
X005416Y019332D01*
X005574Y019605D01*
X005948Y019388D01*
X005790Y019115D01*
G37*
G36*
X005986Y019455D02*
X005612Y019672D01*
X005770Y019945D01*
X006144Y019728D01*
X005986Y019455D01*
G37*
G36*
X005655Y020274D02*
X005872Y020648D01*
X006145Y020490D01*
X005928Y020116D01*
X005655Y020274D01*
G37*
G36*
X005315Y020470D02*
X005532Y020844D01*
X005805Y020686D01*
X005588Y020312D01*
X005315Y020470D01*
G37*
X016480Y016427D03*
X016480Y016033D03*
D16*
X006931Y014554D03*
X006931Y014180D03*
X006931Y013806D03*
X005829Y013806D03*
X005829Y014554D03*
D17*
X012430Y022780D03*
X011430Y024280D03*
X014430Y024280D03*
X015430Y022780D03*
X018330Y010030D03*
X012930Y005780D03*
X013930Y004280D03*
D18*
X012930Y004280D03*
X013930Y005780D03*
X016780Y005630D03*
X018780Y005630D03*
X021780Y008847D03*
X021040Y010463D03*
X019330Y010030D03*
X019330Y011030D03*
X019330Y012030D03*
X018330Y012030D03*
X018330Y011030D03*
X018830Y013330D03*
X018830Y014330D03*
X018830Y015330D03*
X020566Y018968D03*
X022317Y018835D03*
X018380Y021780D03*
X015399Y019674D03*
X015399Y018886D03*
X014611Y018886D03*
X013824Y018886D03*
X013824Y019674D03*
X014611Y019674D03*
X013036Y019674D03*
X012249Y019674D03*
X011461Y019674D03*
X011461Y018886D03*
X012249Y018886D03*
X013036Y018886D03*
X013430Y021780D03*
X014430Y022780D03*
X015430Y024280D03*
X012430Y024280D03*
X011430Y022780D03*
X008430Y021780D03*
X005080Y019713D03*
X005820Y018097D03*
X004580Y009713D03*
X006320Y009597D03*
D19*
X009560Y010380D03*
X010897Y010380D03*
D20*
X017406Y006974D03*
X017780Y006186D03*
X018154Y006974D03*
X018406Y023436D03*
X019154Y023436D03*
X018780Y024224D03*
X010354Y024424D03*
X009606Y024424D03*
X009980Y023636D03*
D21*
G36*
X005196Y009280D02*
X005513Y008731D01*
X004964Y008414D01*
X004647Y008963D01*
X005196Y009280D01*
G37*
G36*
X005704Y010030D02*
X005387Y010579D01*
X005936Y010896D01*
X006253Y010347D01*
X005704Y010030D01*
G37*
G36*
X005013Y018963D02*
X004696Y018414D01*
X004147Y018731D01*
X004464Y019280D01*
X005013Y018963D01*
G37*
G36*
X005887Y018847D02*
X006204Y019396D01*
X006753Y019079D01*
X006436Y018530D01*
X005887Y018847D01*
G37*
G36*
X020973Y009713D02*
X020656Y009164D01*
X020107Y009481D01*
X020424Y010030D01*
X020973Y009713D01*
G37*
G36*
X021847Y009597D02*
X022164Y010146D01*
X022713Y009829D01*
X022396Y009280D01*
X021847Y009597D01*
G37*
G36*
X021182Y018535D02*
X021499Y017986D01*
X020950Y017669D01*
X020633Y018218D01*
X021182Y018535D01*
G37*
G36*
X021701Y019268D02*
X021384Y019817D01*
X021933Y020134D01*
X022250Y019585D01*
X021701Y019268D01*
G37*
D22*
X018841Y018626D03*
X018841Y018370D03*
X018841Y018114D03*
X018841Y017858D03*
X018841Y017602D03*
X018841Y017346D03*
X018841Y017090D03*
X018841Y016834D03*
X016538Y016834D03*
X016538Y017090D03*
X016538Y017346D03*
X016538Y017602D03*
X016538Y017858D03*
X016538Y018114D03*
X016538Y018370D03*
X016538Y018626D03*
D23*
X020430Y014517D03*
X020430Y012943D03*
D24*
X023430Y014280D03*
X003430Y014280D03*
D25*
G36*
X005138Y011874D02*
X005446Y012052D01*
X005604Y011780D01*
X005296Y011602D01*
X005138Y011874D01*
G37*
G36*
X004269Y011804D02*
X004577Y011982D01*
X004735Y011710D01*
X004427Y011532D01*
X004269Y011804D01*
G37*
G36*
X004643Y011156D02*
X004951Y011334D01*
X005109Y011062D01*
X004801Y010884D01*
X004643Y011156D01*
G37*
X010586Y004680D03*
X011374Y004306D03*
X011374Y005054D03*
G36*
X020908Y006964D02*
X020730Y006656D01*
X020458Y006814D01*
X020636Y007122D01*
X020908Y006964D01*
G37*
G36*
X021626Y007459D02*
X021448Y007151D01*
X021176Y007309D01*
X021354Y007617D01*
X021626Y007459D01*
G37*
G36*
X020978Y007833D02*
X020800Y007525D01*
X020528Y007683D01*
X020706Y007991D01*
X020978Y007833D01*
G37*
G36*
X022316Y016806D02*
X022008Y016628D01*
X021850Y016900D01*
X022158Y017078D01*
X022316Y016806D01*
G37*
G36*
X023185Y016876D02*
X022877Y016698D01*
X022719Y016970D01*
X023027Y017148D01*
X023185Y016876D01*
G37*
G36*
X022811Y017523D02*
X022503Y017345D01*
X022345Y017617D01*
X022653Y017795D01*
X022811Y017523D01*
G37*
X016986Y023656D03*
X016986Y024404D03*
X017774Y024030D03*
G36*
X006302Y021546D02*
X006480Y021854D01*
X006752Y021696D01*
X006574Y021388D01*
X006302Y021546D01*
G37*
G36*
X005584Y021051D02*
X005762Y021359D01*
X006034Y021201D01*
X005856Y020893D01*
X005584Y021051D01*
G37*
G36*
X006232Y020677D02*
X006410Y020985D01*
X006682Y020827D01*
X006504Y020519D01*
X006232Y020677D01*
G37*
M02*
