G75*
G70*
%OFA0B0*%
%FSLAX24Y24*%
%IPPOS*%
%LPD*%
%AMOC8*
5,1,8,0,0,1.08239X$1,22.5*
%
%ADD10R,0.0591X0.0160*%
%ADD11R,0.0160X0.0591*%
%ADD12R,0.0413X0.0256*%
%ADD13R,0.0236X0.0354*%
%ADD14R,0.0453X0.0591*%
%ADD15R,0.0354X0.0236*%
%ADD16R,0.0433X0.0236*%
%ADD17R,0.0236X0.0276*%
%ADD18R,0.0394X0.0138*%
%ADD19R,0.0945X0.0787*%
%ADD20R,0.0276X0.0236*%
D10*
X012766Y010755D03*
X012766Y011070D03*
X012766Y011385D03*
X012766Y011700D03*
X012766Y012015D03*
X012766Y012330D03*
X012766Y012645D03*
X012766Y012960D03*
X012766Y013275D03*
X012766Y013590D03*
X012766Y013905D03*
X017294Y013905D03*
X017294Y013590D03*
X017294Y013275D03*
X017294Y012960D03*
X017294Y012645D03*
X017294Y012330D03*
X017294Y012015D03*
X017294Y011700D03*
X017294Y011385D03*
X017294Y011070D03*
X017294Y010755D03*
D11*
X016605Y010066D03*
X016290Y010066D03*
X015975Y010066D03*
X015660Y010066D03*
X015345Y010066D03*
X015030Y010066D03*
X014715Y010066D03*
X014400Y010066D03*
X014085Y010066D03*
X013770Y010066D03*
X013455Y010066D03*
X013455Y014594D03*
X013770Y014594D03*
X014085Y014594D03*
X014400Y014594D03*
X014715Y014594D03*
X015030Y014594D03*
X015345Y014594D03*
X015660Y014594D03*
X015975Y014594D03*
X016290Y014594D03*
X016605Y014594D03*
D12*
X009533Y015780D03*
X008627Y015406D03*
X008627Y016154D03*
D13*
X007977Y015180D03*
X007583Y015180D03*
X007577Y015780D03*
X007183Y015780D03*
X006227Y015230D03*
X005833Y015230D03*
X005833Y013130D03*
X006227Y013130D03*
X006227Y012430D03*
X005833Y012430D03*
X006933Y013130D03*
X007327Y013130D03*
X007883Y013130D03*
X008277Y013130D03*
X012483Y017480D03*
X012877Y017480D03*
X013483Y017480D03*
X013877Y017480D03*
X014233Y018080D03*
X014627Y018080D03*
X009727Y023080D03*
X009333Y023080D03*
X011033Y023480D03*
X011427Y023480D03*
X014033Y023530D03*
X014427Y023530D03*
X015433Y023530D03*
X015827Y023530D03*
X014627Y008180D03*
X014233Y008180D03*
X013627Y008180D03*
X013233Y008180D03*
X013233Y007530D03*
X013627Y007530D03*
X014233Y007530D03*
X014627Y007530D03*
X014327Y005030D03*
X013933Y005030D03*
X012927Y005030D03*
X012533Y005030D03*
X017583Y007580D03*
X017977Y007580D03*
D14*
X007974Y016580D03*
X007186Y016580D03*
X009586Y025130D03*
X010374Y025130D03*
X018686Y022730D03*
X019474Y022730D03*
D15*
G36*
X005666Y008873D02*
X005972Y009050D01*
X006090Y008847D01*
X005784Y008670D01*
X005666Y008873D01*
G37*
G36*
X005470Y009213D02*
X005776Y009390D01*
X005894Y009187D01*
X005588Y009010D01*
X005470Y009213D01*
G37*
G36*
X005390Y010097D02*
X005084Y009920D01*
X004966Y010123D01*
X005272Y010300D01*
X005390Y010097D01*
G37*
G36*
X005194Y010437D02*
X004888Y010260D01*
X004770Y010463D01*
X005076Y010640D01*
X005194Y010437D01*
G37*
G36*
X004437Y010616D02*
X004260Y010922D01*
X004463Y011040D01*
X004640Y010734D01*
X004437Y010616D01*
G37*
G36*
X004097Y010420D02*
X003920Y010726D01*
X004123Y010844D01*
X004300Y010538D01*
X004097Y010420D01*
G37*
X005180Y013083D03*
X005180Y013477D03*
X007580Y014183D03*
X007580Y014577D03*
X008230Y014577D03*
X008230Y014183D03*
X010230Y010927D03*
X010230Y010533D03*
X012030Y012283D03*
X012030Y012677D03*
X016480Y016033D03*
X016480Y016427D03*
X019380Y017333D03*
X019380Y017727D03*
G36*
X021421Y019341D02*
X021115Y019164D01*
X020997Y019367D01*
X021303Y019544D01*
X021421Y019341D01*
G37*
G36*
X021224Y019682D02*
X020918Y019505D01*
X020800Y019708D01*
X021106Y019885D01*
X021224Y019682D01*
G37*
G36*
X021500Y018496D02*
X021806Y018673D01*
X021924Y018470D01*
X021618Y018293D01*
X021500Y018496D01*
G37*
G36*
X021697Y018155D02*
X022003Y018332D01*
X022121Y018129D01*
X021815Y017952D01*
X021697Y018155D01*
G37*
G36*
X022596Y018393D02*
X022773Y018087D01*
X022570Y017969D01*
X022393Y018275D01*
X022596Y018393D01*
G37*
G36*
X022937Y018589D02*
X023114Y018283D01*
X022911Y018165D01*
X022734Y018471D01*
X022937Y018589D01*
G37*
X021480Y014427D03*
X021480Y014033D03*
X021480Y013477D03*
X021480Y013083D03*
X020430Y012177D03*
X020430Y011783D03*
G36*
X021972Y010210D02*
X021666Y010387D01*
X021784Y010590D01*
X022090Y010413D01*
X021972Y010210D01*
G37*
G36*
X021776Y009870D02*
X021470Y010047D01*
X021588Y010250D01*
X021894Y010073D01*
X021776Y009870D01*
G37*
G36*
X021084Y009390D02*
X021390Y009213D01*
X021272Y009010D01*
X020966Y009187D01*
X021084Y009390D01*
G37*
G36*
X020888Y009050D02*
X021194Y008873D01*
X021076Y008670D01*
X020770Y008847D01*
X020888Y009050D01*
G37*
G36*
X021150Y008272D02*
X020973Y007966D01*
X020770Y008084D01*
X020947Y008390D01*
X021150Y008272D01*
G37*
G36*
X021490Y008076D02*
X021313Y007770D01*
X021110Y007888D01*
X021287Y008194D01*
X021490Y008076D01*
G37*
X017780Y005627D03*
X017780Y005233D03*
X011930Y004677D03*
X011930Y004283D03*
G36*
X004888Y018300D02*
X005194Y018123D01*
X005076Y017920D01*
X004770Y018097D01*
X004888Y018300D01*
G37*
G36*
X005084Y018640D02*
X005390Y018463D01*
X005272Y018260D01*
X004966Y018437D01*
X005084Y018640D01*
G37*
G36*
X005776Y019170D02*
X005470Y019347D01*
X005588Y019550D01*
X005894Y019373D01*
X005776Y019170D01*
G37*
G36*
X005972Y019510D02*
X005666Y019687D01*
X005784Y019890D01*
X006090Y019713D01*
X005972Y019510D01*
G37*
G36*
X005710Y020288D02*
X005887Y020594D01*
X006090Y020476D01*
X005913Y020170D01*
X005710Y020288D01*
G37*
G36*
X005370Y020484D02*
X005547Y020790D01*
X005750Y020672D01*
X005573Y020366D01*
X005370Y020484D01*
G37*
X013030Y023433D03*
X013030Y023827D03*
X016430Y023933D03*
X016430Y024327D03*
X017580Y022927D03*
X017580Y022533D03*
D16*
X006931Y014554D03*
X006931Y014180D03*
X006931Y013806D03*
X005829Y013806D03*
X005829Y014554D03*
D17*
X009980Y023636D03*
X009606Y024424D03*
X010354Y024424D03*
X018406Y023436D03*
X019154Y023436D03*
X018780Y024224D03*
X018154Y006974D03*
X017780Y006186D03*
X017406Y006974D03*
D18*
X016538Y016834D03*
X016538Y017090D03*
X016538Y017346D03*
X016538Y017602D03*
X016538Y017858D03*
X016538Y018114D03*
X016538Y018370D03*
X016538Y018626D03*
X018841Y018626D03*
X018841Y018370D03*
X018841Y018114D03*
X018841Y017858D03*
X018841Y017602D03*
X018841Y017346D03*
X018841Y017090D03*
X018841Y016834D03*
D19*
X020430Y014517D03*
X020430Y012943D03*
D20*
G36*
X022261Y016820D02*
X022023Y016682D01*
X021905Y016886D01*
X022143Y017024D01*
X022261Y016820D01*
G37*
G36*
X023130Y016890D02*
X022892Y016752D01*
X022774Y016956D01*
X023012Y017094D01*
X023130Y016890D01*
G37*
G36*
X022756Y017537D02*
X022518Y017399D01*
X022400Y017603D01*
X022638Y017741D01*
X022756Y017537D01*
G37*
X016986Y023656D03*
X016986Y024404D03*
X017774Y024030D03*
G36*
X006356Y021561D02*
X006494Y021799D01*
X006698Y021681D01*
X006560Y021443D01*
X006356Y021561D01*
G37*
G36*
X005638Y021066D02*
X005776Y021304D01*
X005980Y021186D01*
X005842Y020948D01*
X005638Y021066D01*
G37*
G36*
X006286Y020692D02*
X006424Y020930D01*
X006628Y020812D01*
X006490Y020574D01*
X006286Y020692D01*
G37*
G36*
X005193Y011860D02*
X005431Y011998D01*
X005549Y011794D01*
X005311Y011656D01*
X005193Y011860D01*
G37*
G36*
X004324Y011790D02*
X004562Y011928D01*
X004680Y011724D01*
X004442Y011586D01*
X004324Y011790D01*
G37*
G36*
X004698Y011142D02*
X004936Y011280D01*
X005054Y011076D01*
X004816Y010938D01*
X004698Y011142D01*
G37*
X010586Y004680D03*
X011374Y004306D03*
X011374Y005054D03*
G36*
X020854Y006949D02*
X020716Y006711D01*
X020512Y006829D01*
X020650Y007067D01*
X020854Y006949D01*
G37*
G36*
X021572Y007444D02*
X021434Y007206D01*
X021230Y007324D01*
X021368Y007562D01*
X021572Y007444D01*
G37*
G36*
X020924Y007818D02*
X020786Y007580D01*
X020582Y007698D01*
X020720Y007936D01*
X020924Y007818D01*
G37*
M02*
