G75*
G70*
%OFA0B0*%
%FSLAX24Y24*%
%IPPOS*%
%LPD*%
%AMOC8*
5,1,8,0,0,1.08239X$1,22.5*
%
%ADD10R,0.0555X0.0555*%
%ADD11C,0.0555*%
%ADD12C,0.0440*%
%ADD13R,0.0555X0.0555*%
%ADD14C,0.1200*%
%ADD15C,0.0120*%
%ADD16C,0.0100*%
%ADD17C,0.0436*%
%ADD18C,0.0160*%
%ADD19C,0.0400*%
D10*
X012930Y005780D03*
X013930Y004280D03*
X018330Y009980D03*
X015430Y022780D03*
X014430Y024280D03*
X012430Y022780D03*
X011430Y024280D03*
D11*
X012430Y024280D03*
X011430Y022780D03*
X013430Y021780D03*
X014430Y022780D03*
X015430Y024280D03*
X018380Y021780D03*
X020566Y018968D03*
X022317Y018835D03*
X019380Y015330D03*
X019380Y014330D03*
X019380Y013330D03*
X019330Y011980D03*
X019330Y010980D03*
X019330Y009980D03*
X018330Y010980D03*
X018330Y011980D03*
X021040Y010463D03*
X021780Y008847D03*
X018330Y005630D03*
X016330Y005630D03*
X013930Y005780D03*
X012930Y004280D03*
X006320Y009597D03*
X004580Y009713D03*
X005820Y018097D03*
X005080Y019713D03*
X008430Y021780D03*
X011461Y019674D03*
X011461Y018886D03*
X012249Y018886D03*
X013036Y018886D03*
X013036Y019674D03*
X012249Y019674D03*
X013824Y019674D03*
X014611Y019674D03*
X015399Y019674D03*
X015399Y018886D03*
X014611Y018886D03*
X013824Y018886D03*
D12*
X011397Y010380D03*
X010060Y010380D03*
D13*
G36*
X005719Y010085D02*
X005442Y010564D01*
X005921Y010841D01*
X006198Y010362D01*
X005719Y010085D01*
G37*
G36*
X005181Y009225D02*
X005458Y008746D01*
X004979Y008469D01*
X004702Y008948D01*
X005181Y009225D01*
G37*
G36*
X004958Y018948D02*
X004681Y018469D01*
X004202Y018746D01*
X004479Y019225D01*
X004958Y018948D01*
G37*
G36*
X005942Y018862D02*
X006219Y019341D01*
X006698Y019064D01*
X006421Y018585D01*
X005942Y018862D01*
G37*
G36*
X020918Y009698D02*
X020641Y009219D01*
X020162Y009496D01*
X020439Y009975D01*
X020918Y009698D01*
G37*
G36*
X021902Y009612D02*
X022179Y010091D01*
X022658Y009814D01*
X022381Y009335D01*
X021902Y009612D01*
G37*
G36*
X021167Y018480D02*
X021444Y018001D01*
X020965Y017724D01*
X020688Y018203D01*
X021167Y018480D01*
G37*
G36*
X021716Y019323D02*
X021439Y019802D01*
X021918Y020079D01*
X022195Y019600D01*
X021716Y019323D01*
G37*
D14*
X023430Y014280D03*
X003430Y014280D03*
D15*
X004430Y013730D02*
X004430Y014830D01*
X003080Y016180D01*
X003080Y017380D01*
X004547Y018847D01*
X004430Y013730D02*
X003080Y012380D01*
X003080Y008130D01*
X003205Y007955D01*
X005080Y008847D01*
X003205Y007955D02*
X007780Y003380D01*
X013930Y003380D01*
X013930Y004280D01*
X013930Y003380D02*
X019180Y003430D01*
X023780Y008030D01*
X023780Y009680D01*
X022280Y009713D01*
X023780Y009680D02*
X023780Y012480D01*
X022480Y013780D01*
X022480Y014780D01*
X023780Y016080D01*
X023780Y019730D01*
X023780Y020530D01*
X021283Y022983D01*
X020781Y023482D01*
X020630Y023630D01*
X019130Y025130D01*
X015280Y025130D01*
X012280Y025130D01*
X011430Y024280D01*
X021817Y019701D02*
X023780Y019730D01*
D16*
X021830Y018430D02*
X021830Y017780D01*
X019380Y015330D01*
X020030Y015130D02*
X020680Y015780D01*
X020030Y015130D02*
X020030Y013130D01*
X019630Y012730D01*
X017930Y012730D01*
X017580Y012380D01*
X015430Y012380D01*
X014830Y012880D02*
X017230Y012880D01*
X018630Y014280D01*
X018630Y015830D01*
X018380Y016080D01*
X018380Y019330D01*
X017330Y020380D01*
X017330Y021780D01*
X017080Y021380D02*
X016830Y021630D01*
X016830Y022180D01*
X017080Y021380D02*
X017080Y020330D01*
X018130Y019280D01*
X018130Y015980D01*
X018380Y015730D01*
X018380Y014380D01*
X017180Y013180D01*
X015080Y013180D01*
X015030Y013230D01*
X014630Y013230D01*
X014580Y013180D01*
X014230Y013180D01*
X014280Y012580D02*
X013330Y013530D01*
X013330Y014630D01*
X014030Y015330D01*
X014030Y015480D01*
X013530Y015330D02*
X013530Y015980D01*
X013530Y015330D02*
X013130Y014930D01*
X013130Y013430D01*
X014030Y012530D01*
X014030Y011280D01*
X013880Y011130D01*
X014280Y010730D02*
X014280Y012580D01*
X013780Y012480D02*
X013780Y011880D01*
X013480Y011580D01*
X013780Y012480D02*
X012930Y013330D01*
X012930Y015330D01*
X013080Y015480D01*
X012630Y016430D02*
X014630Y018430D01*
X015630Y018430D01*
X015880Y018680D01*
X015880Y020480D01*
X015730Y018030D02*
X015630Y018030D01*
X016080Y016380D02*
X014730Y016380D01*
X015730Y015930D02*
X016380Y015930D01*
X017080Y015230D01*
X017280Y015230D01*
X017880Y014680D02*
X017880Y014180D01*
X017580Y013880D01*
X015880Y013880D01*
X016580Y011530D02*
X021230Y011530D01*
X021480Y011780D01*
X018330Y010980D02*
X017880Y010980D01*
X017280Y010380D01*
X017130Y009180D02*
X013030Y009180D01*
X012330Y009880D01*
X012330Y010230D01*
X012380Y010280D01*
X012380Y013630D01*
X011930Y014080D01*
X011380Y013980D02*
X011380Y014430D01*
X011380Y013980D02*
X012130Y013230D01*
X012130Y010380D01*
X012080Y010330D01*
X012080Y008530D01*
X012730Y010030D02*
X012630Y010130D01*
X012630Y016430D01*
X012880Y017380D02*
X012930Y017380D01*
X010230Y018880D02*
X010280Y022130D01*
X010430Y022280D01*
X009430Y021980D02*
X009430Y019180D01*
X009380Y017630D02*
X007180Y019830D01*
X004580Y018847D02*
X004547Y018847D01*
X007430Y014230D02*
X006230Y013030D01*
X006230Y012680D01*
X006980Y010430D02*
X008480Y010430D01*
X010280Y012230D01*
X011130Y012130D02*
X010060Y011060D01*
X010060Y010380D01*
X010060Y007550D01*
X010930Y006680D01*
X013480Y006680D01*
X010880Y012980D02*
X010730Y012980D01*
X009380Y014330D01*
X009380Y014680D01*
X014430Y024280D02*
X015280Y025130D01*
X019780Y021530D02*
X021233Y022983D01*
X021283Y022983D01*
X021030Y020380D02*
X021030Y019230D01*
X021830Y018430D01*
D17*
X020680Y015780D03*
X022156Y015672D03*
X021480Y011780D03*
X017130Y009180D03*
X016180Y006980D03*
X012630Y007630D03*
X012080Y008530D03*
X012730Y010030D03*
X013880Y011130D03*
X014280Y010730D03*
X013480Y011580D03*
X014230Y013180D03*
X014830Y012880D03*
X015430Y012380D03*
X016580Y011530D03*
X014030Y015480D03*
X013530Y015980D03*
X013080Y015480D03*
X011930Y014080D03*
X011380Y014430D03*
X010880Y012980D03*
X011130Y012130D03*
X010280Y012230D03*
X010730Y009930D03*
X006980Y010430D03*
X004780Y012330D03*
X010230Y018880D03*
X009430Y019180D03*
X007180Y019830D03*
X009430Y021980D03*
X010430Y022280D03*
X013280Y024380D03*
X016830Y022180D03*
X017330Y021780D03*
X017730Y024480D03*
X014630Y017230D03*
X008980Y025280D03*
X006230Y022230D03*
X021030Y006480D03*
X010630Y004330D03*
D18*
X012453Y005743D02*
X005785Y005743D01*
X005627Y005901D02*
X012453Y005901D01*
X012453Y006060D02*
X005468Y006060D01*
X005310Y006218D02*
X012530Y006218D01*
X012570Y006257D02*
X012453Y006140D01*
X012453Y005420D01*
X012570Y005303D01*
X013290Y005303D01*
X013407Y005420D01*
X013407Y006140D01*
X013290Y006257D01*
X012570Y006257D01*
X013164Y006430D02*
X013253Y006341D01*
X013400Y006280D01*
X013560Y006280D01*
X013707Y006341D01*
X013819Y006453D01*
X013880Y006600D01*
X013880Y006760D01*
X013819Y006907D01*
X013707Y007019D01*
X013560Y007080D01*
X013400Y007080D01*
X013253Y007019D01*
X013164Y006930D01*
X011034Y006930D01*
X010310Y007654D01*
X010310Y010036D01*
X010416Y010142D01*
X010480Y010296D01*
X010480Y010464D01*
X010416Y010618D01*
X010310Y010724D01*
X010310Y010956D01*
X011065Y011712D01*
X011213Y011712D01*
X011367Y011776D01*
X011484Y011893D01*
X011548Y012047D01*
X011548Y012213D01*
X011484Y012367D01*
X011367Y012484D01*
X011213Y012548D01*
X011047Y012548D01*
X010893Y012484D01*
X010776Y012367D01*
X010712Y012213D01*
X010712Y012065D01*
X009918Y011272D01*
X009848Y011202D01*
X009810Y011110D01*
X009810Y010724D01*
X009704Y010618D01*
X009640Y010464D01*
X009640Y010296D01*
X009704Y010142D01*
X009810Y010036D01*
X009810Y007500D01*
X009848Y007408D01*
X009918Y007338D01*
X009918Y007338D01*
X010718Y006538D01*
X010788Y006468D01*
X010880Y006430D01*
X013164Y006430D01*
X013218Y006377D02*
X005151Y006377D01*
X004993Y006535D02*
X010721Y006535D01*
X010718Y006538D02*
X010718Y006538D01*
X010563Y006694D02*
X004834Y006694D01*
X004676Y006852D02*
X010404Y006852D01*
X010246Y007011D02*
X004517Y007011D01*
X004359Y007169D02*
X010087Y007169D01*
X009929Y007328D02*
X004200Y007328D01*
X004042Y007486D02*
X009816Y007486D01*
X009810Y007645D02*
X003883Y007645D01*
X003725Y007803D02*
X009810Y007803D01*
X009810Y007962D02*
X003824Y007962D01*
X003649Y007878D02*
X004778Y008415D01*
X004847Y008296D01*
X005007Y008253D01*
X005631Y008614D01*
X005674Y008774D01*
X005313Y009398D01*
X005153Y009441D01*
X004529Y009080D01*
X004486Y008920D01*
X004517Y008867D01*
X003340Y008307D01*
X003340Y012272D01*
X004577Y013510D01*
X004650Y013583D01*
X004690Y013678D01*
X004690Y014882D01*
X004650Y014977D01*
X003340Y016288D01*
X003340Y017272D01*
X004443Y018375D01*
X004653Y018253D01*
X004813Y018296D01*
X005174Y018920D01*
X005131Y019080D01*
X004507Y019441D01*
X004347Y019398D01*
X003986Y018774D01*
X004012Y018679D01*
X002880Y017548D01*
X002880Y020493D01*
X003355Y021266D01*
X004185Y022332D01*
X005127Y023300D01*
X006169Y024159D01*
X007300Y024897D01*
X008505Y025507D01*
X009770Y025981D01*
X011080Y026313D01*
X012418Y026498D01*
X013768Y026535D01*
X015114Y026424D01*
X016440Y026165D01*
X017729Y025762D01*
X018576Y025390D01*
X012228Y025390D01*
X012133Y025350D01*
X012060Y025277D01*
X011540Y024757D01*
X011070Y024757D01*
X010953Y024640D01*
X010953Y023920D01*
X011070Y023803D01*
X011790Y023803D01*
X011907Y023920D01*
X011907Y024390D01*
X011995Y024477D01*
X011953Y024375D01*
X011953Y024185D01*
X012025Y024010D01*
X012160Y023875D01*
X012335Y023803D01*
X012525Y023803D01*
X012700Y023875D01*
X012835Y024010D01*
X012907Y024185D01*
X012907Y024375D01*
X012835Y024550D01*
X012700Y024685D01*
X012525Y024757D01*
X012335Y024757D01*
X012233Y024715D01*
X012388Y024870D01*
X014666Y024870D01*
X014554Y024757D01*
X014070Y024757D01*
X013953Y024640D01*
X013953Y023920D01*
X014070Y023803D01*
X014790Y023803D01*
X014907Y023920D01*
X014907Y024404D01*
X015005Y024501D01*
X014953Y024375D01*
X014953Y024185D01*
X015025Y024010D01*
X015160Y023875D01*
X015335Y023803D01*
X015525Y023803D01*
X015700Y023875D01*
X015835Y024010D01*
X015907Y024185D01*
X015907Y024375D01*
X015835Y024550D01*
X015700Y024685D01*
X015525Y024757D01*
X015335Y024757D01*
X015209Y024705D01*
X015374Y024870D01*
X019022Y024870D01*
X020410Y023482D01*
X020411Y023481D01*
X020447Y023445D01*
X020483Y023410D01*
X020484Y023409D01*
X020598Y023297D01*
X020897Y023000D01*
X019826Y021930D01*
X019700Y021930D01*
X019553Y021869D01*
X019441Y021757D01*
X019380Y021610D01*
X019380Y021450D01*
X019441Y021303D01*
X019553Y021191D01*
X019700Y021130D01*
X019860Y021130D01*
X020007Y021191D01*
X020119Y021303D01*
X020180Y021450D01*
X020180Y021576D01*
X021252Y022649D01*
X023520Y020421D01*
X023520Y019986D01*
X022215Y019967D01*
X022050Y020252D01*
X021890Y020295D01*
X021280Y019943D01*
X021280Y020064D01*
X021369Y020153D01*
X021430Y020300D01*
X021430Y020460D01*
X021369Y020607D01*
X021257Y020719D01*
X021110Y020780D01*
X020950Y020780D01*
X020803Y020719D01*
X020691Y020607D01*
X020630Y020460D01*
X020630Y020300D01*
X020691Y020153D01*
X020780Y020064D01*
X020780Y019396D01*
X020661Y019445D01*
X020471Y019445D01*
X020296Y019372D01*
X020161Y019238D01*
X020089Y019063D01*
X020089Y018873D01*
X020161Y018697D01*
X020296Y018563D01*
X020471Y018490D01*
X020661Y018490D01*
X020837Y018563D01*
X020971Y018697D01*
X021041Y018866D01*
X021237Y018669D01*
X021140Y018695D01*
X020515Y018335D01*
X020473Y018175D01*
X020833Y017551D01*
X020993Y017508D01*
X021493Y017797D01*
X019495Y015799D01*
X019475Y015807D01*
X019285Y015807D01*
X019110Y015735D01*
X018975Y015600D01*
X018903Y015425D01*
X018903Y015235D01*
X018975Y015060D01*
X019110Y014925D01*
X019285Y014853D01*
X019475Y014853D01*
X019650Y014925D01*
X019780Y015055D01*
X019780Y014605D01*
X019650Y014735D01*
X019475Y014807D01*
X019285Y014807D01*
X019110Y014735D01*
X018975Y014600D01*
X018903Y014425D01*
X018903Y014235D01*
X018975Y014060D01*
X019110Y013925D01*
X019285Y013853D01*
X019475Y013853D01*
X019650Y013925D01*
X019780Y014055D01*
X019780Y013234D01*
X019526Y012980D01*
X017880Y012980D01*
X017788Y012942D01*
X017718Y012872D01*
X017476Y012630D01*
X015771Y012630D01*
X017280Y012630D01*
X017372Y012668D01*
X018842Y014138D01*
X018880Y014230D01*
X018880Y015880D01*
X018842Y015972D01*
X018786Y016027D01*
X018900Y015980D01*
X019060Y015980D01*
X019207Y016041D01*
X019319Y016153D01*
X019380Y016300D01*
X019380Y016460D01*
X019319Y016607D01*
X019207Y016719D01*
X019060Y016780D01*
X018976Y016780D01*
X018910Y016846D01*
X018910Y019164D01*
X019776Y020030D01*
X019860Y020030D01*
X020007Y020091D01*
X020119Y020203D01*
X020180Y020350D01*
X020180Y020510D01*
X020119Y020657D01*
X020007Y020769D01*
X019860Y020830D01*
X019700Y020830D01*
X019553Y020769D01*
X019441Y020657D01*
X019380Y020510D01*
X019380Y020426D01*
X018509Y019555D01*
X017580Y020484D01*
X017580Y021439D01*
X017684Y021543D01*
X017748Y021697D01*
X017748Y021863D01*
X017684Y022017D01*
X017567Y022134D01*
X017413Y022198D01*
X017248Y022198D01*
X017248Y022263D01*
X017184Y022417D01*
X017067Y022534D01*
X016913Y022598D01*
X016747Y022598D01*
X016593Y022534D01*
X016476Y022417D01*
X016412Y022263D01*
X016412Y022097D01*
X016476Y021943D01*
X016580Y021839D01*
X016580Y021580D01*
X016618Y021488D01*
X016688Y021418D01*
X016688Y021418D01*
X016830Y021276D01*
X016830Y020280D01*
X016868Y020188D01*
X016938Y020118D01*
X016938Y020118D01*
X017880Y019176D01*
X017880Y015930D01*
X017918Y015838D01*
X018130Y015626D01*
X018130Y014996D01*
X018107Y015019D01*
X017960Y015080D01*
X017800Y015080D01*
X017653Y015019D01*
X017541Y014907D01*
X017480Y014760D01*
X017480Y014600D01*
X017541Y014453D01*
X017630Y014364D01*
X017630Y014284D01*
X017476Y014130D01*
X016196Y014130D01*
X016107Y014219D01*
X015960Y014280D01*
X015800Y014280D01*
X015653Y014219D01*
X015541Y014107D01*
X015480Y013960D01*
X015480Y013800D01*
X015541Y013653D01*
X015653Y013541D01*
X015800Y013480D01*
X015960Y013480D01*
X016107Y013541D01*
X016196Y013630D01*
X017276Y013630D01*
X017076Y013430D01*
X015184Y013430D01*
X015172Y013442D01*
X015080Y013480D01*
X014580Y013480D01*
X014539Y013463D01*
X014467Y013534D01*
X014313Y013598D01*
X014147Y013598D01*
X013993Y013534D01*
X013876Y013417D01*
X013852Y013361D01*
X013580Y013634D01*
X013580Y014526D01*
X014117Y015064D01*
X014267Y015126D01*
X014384Y015243D01*
X014448Y015397D01*
X014448Y015563D01*
X014384Y015717D01*
X014267Y015834D01*
X014113Y015898D01*
X013948Y015898D01*
X013948Y016063D01*
X013884Y016217D01*
X013767Y016334D01*
X013613Y016398D01*
X013447Y016398D01*
X013293Y016334D01*
X013176Y016217D01*
X013112Y016063D01*
X013112Y015898D01*
X012997Y015898D01*
X012880Y015850D01*
X012880Y016326D01*
X014734Y018180D01*
X015680Y018180D01*
X015772Y018218D01*
X016092Y018538D01*
X016130Y018630D01*
X016130Y020164D01*
X016219Y020253D01*
X016280Y020400D01*
X016280Y020560D01*
X016219Y020707D01*
X016107Y020819D01*
X015960Y020880D01*
X015800Y020880D01*
X015653Y020819D01*
X015541Y020707D01*
X015480Y020560D01*
X015480Y020400D01*
X015541Y020253D01*
X015630Y020164D01*
X015630Y020095D01*
X015493Y020151D01*
X015304Y020151D01*
X015128Y020078D01*
X015005Y019955D01*
X014882Y020078D01*
X014706Y020151D01*
X014516Y020151D01*
X014341Y020078D01*
X014217Y019955D01*
X014094Y020078D01*
X013919Y020151D01*
X013729Y020151D01*
X013553Y020078D01*
X013419Y019944D01*
X013346Y019769D01*
X013346Y019579D01*
X013419Y019403D01*
X013542Y019280D01*
X013430Y019168D01*
X013307Y019291D01*
X013131Y019364D01*
X012941Y019364D01*
X012766Y019291D01*
X012643Y019168D01*
X012530Y019280D01*
X012654Y019403D01*
X012726Y019579D01*
X012726Y019769D01*
X012654Y019944D01*
X012527Y020070D01*
X012486Y020170D01*
X012217Y020439D01*
X012139Y020517D01*
X012036Y020560D01*
X011906Y020560D01*
X012486Y021140D01*
X012529Y021243D01*
X012529Y022303D01*
X012790Y022303D01*
X012907Y022420D01*
X012907Y023140D01*
X012790Y023257D01*
X012070Y023257D01*
X011953Y023140D01*
X011953Y022420D01*
X011969Y022403D01*
X011969Y021415D01*
X010993Y020439D01*
X010771Y020217D01*
X010693Y020139D01*
X010650Y020036D01*
X010650Y017580D01*
X010503Y017519D01*
X010391Y017407D01*
X010330Y017260D01*
X010330Y017100D01*
X010391Y016953D01*
X010503Y016841D01*
X010650Y016780D01*
X010810Y016780D01*
X010957Y016841D01*
X011069Y016953D01*
X011130Y017100D01*
X011130Y017184D01*
X011167Y017221D01*
X011210Y017324D01*
X011210Y019261D01*
X011367Y019196D01*
X011556Y019196D01*
X011732Y019269D01*
X011855Y019392D01*
X011967Y019280D01*
X011844Y019157D01*
X011771Y018981D01*
X011771Y018791D01*
X011844Y018616D01*
X011978Y018482D01*
X012154Y018409D01*
X012344Y018409D01*
X012519Y018482D01*
X012643Y018605D01*
X012766Y018482D01*
X012941Y018409D01*
X013131Y018409D01*
X013307Y018482D01*
X013430Y018605D01*
X013553Y018482D01*
X013729Y018409D01*
X013919Y018409D01*
X014094Y018482D01*
X014217Y018605D01*
X014334Y018488D01*
X012418Y016572D01*
X012380Y016480D01*
X012380Y013984D01*
X012348Y014015D01*
X012348Y014163D01*
X012284Y014317D01*
X012167Y014434D01*
X012013Y014498D01*
X011847Y014498D01*
X011798Y014478D01*
X011798Y014513D01*
X011734Y014667D01*
X011617Y014784D01*
X011463Y014848D01*
X011297Y014848D01*
X011143Y014784D01*
X011026Y014667D01*
X010962Y014513D01*
X010962Y014347D01*
X011026Y014193D01*
X011130Y014089D01*
X011130Y013930D01*
X011168Y013838D01*
X011238Y013768D01*
X011880Y013126D01*
X011880Y010484D01*
X011868Y010472D01*
X011830Y010380D01*
X011830Y008871D01*
X011726Y008767D01*
X011662Y008613D01*
X011662Y008447D01*
X011726Y008293D01*
X011843Y008176D01*
X011997Y008112D01*
X012163Y008112D01*
X012317Y008176D01*
X012434Y008293D01*
X012498Y008447D01*
X012498Y008613D01*
X012434Y008767D01*
X012330Y008871D01*
X012330Y009526D01*
X012818Y009038D01*
X012888Y008968D01*
X012980Y008930D01*
X016789Y008930D01*
X016893Y008826D01*
X017047Y008762D01*
X017213Y008762D01*
X017367Y008826D01*
X017484Y008943D01*
X017548Y009097D01*
X017548Y009263D01*
X017484Y009417D01*
X017367Y009534D01*
X017213Y009598D01*
X017047Y009598D01*
X016893Y009534D01*
X016789Y009430D01*
X013134Y009430D01*
X012911Y009652D01*
X012967Y009676D01*
X013084Y009793D01*
X013148Y009947D01*
X013148Y010113D01*
X013084Y010267D01*
X012967Y010384D01*
X012880Y010420D01*
X012880Y013026D01*
X013530Y012376D01*
X013530Y011998D01*
X013397Y011998D01*
X013243Y011934D01*
X013126Y011817D01*
X013062Y011663D01*
X013062Y011497D01*
X013126Y011343D01*
X013243Y011226D01*
X013397Y011162D01*
X013462Y011162D01*
X013462Y011047D01*
X013526Y010893D01*
X013643Y010776D01*
X013797Y010712D01*
X013862Y010712D01*
X013862Y010647D01*
X013926Y010493D01*
X014043Y010376D01*
X014197Y010312D01*
X014363Y010312D01*
X014517Y010376D01*
X014634Y010493D01*
X014698Y010647D01*
X014698Y010813D01*
X014634Y010967D01*
X014530Y011071D01*
X014530Y012589D01*
X014593Y012526D01*
X014747Y012462D01*
X014913Y012462D01*
X015032Y012511D01*
X015012Y012463D01*
X015012Y012297D01*
X015076Y012143D01*
X015193Y012026D01*
X015347Y011962D01*
X015513Y011962D01*
X015667Y012026D01*
X015771Y012130D01*
X017630Y012130D01*
X017722Y012168D01*
X018034Y012480D01*
X019680Y012480D01*
X019772Y012518D01*
X020172Y012918D01*
X020242Y012988D01*
X020280Y013080D01*
X020280Y015026D01*
X020615Y015362D01*
X020763Y015362D01*
X020917Y015426D01*
X021034Y015543D01*
X021098Y015697D01*
X021098Y015863D01*
X021034Y016017D01*
X020917Y016134D01*
X020763Y016198D01*
X020602Y016198D01*
X021972Y017568D01*
X022042Y017638D01*
X022080Y017730D01*
X022080Y018417D01*
X022222Y018358D01*
X022412Y018358D01*
X022587Y018431D01*
X022722Y018565D01*
X022794Y018740D01*
X023520Y018740D01*
X023520Y018898D02*
X022794Y018898D01*
X022794Y018930D02*
X022722Y019106D01*
X022587Y019240D01*
X022412Y019313D01*
X022222Y019313D01*
X022047Y019240D01*
X021912Y019106D01*
X021840Y018930D01*
X021840Y018774D01*
X021280Y019334D01*
X021280Y019676D01*
X021584Y019151D01*
X021744Y019108D01*
X022335Y019449D01*
X023520Y019466D01*
X023520Y016188D01*
X022333Y015000D01*
X022260Y014927D01*
X022220Y014832D01*
X022220Y013728D01*
X022260Y013633D01*
X023520Y012372D01*
X023520Y009946D01*
X022805Y009962D01*
X022207Y010307D01*
X022047Y010264D01*
X021686Y009640D01*
X021729Y009480D01*
X022353Y009119D01*
X022513Y009162D01*
X022676Y009444D01*
X023520Y009426D01*
X023520Y008138D01*
X019071Y003689D01*
X014190Y003642D01*
X014190Y003803D01*
X014290Y003803D01*
X014407Y003920D01*
X014407Y004640D01*
X014290Y004757D01*
X013570Y004757D01*
X013453Y004640D01*
X013453Y003920D01*
X013570Y003803D01*
X013670Y003803D01*
X013670Y003640D01*
X007888Y003640D01*
X003649Y007878D01*
X003613Y008437D02*
X003340Y008437D01*
X003340Y008596D02*
X003946Y008596D01*
X004279Y008754D02*
X003340Y008754D01*
X003340Y008913D02*
X004491Y008913D01*
X004527Y009071D02*
X003340Y009071D01*
X003340Y009230D02*
X004788Y009230D01*
X004850Y009308D02*
X004675Y009236D01*
X004485Y009236D01*
X004310Y009308D01*
X004175Y009443D01*
X004103Y009618D01*
X004103Y009808D01*
X004175Y009983D01*
X004310Y010118D01*
X004485Y010190D01*
X004675Y010190D01*
X004850Y010118D01*
X004985Y009983D01*
X005057Y009808D01*
X005057Y009618D01*
X004985Y009443D01*
X004850Y009308D01*
X004930Y009388D02*
X005062Y009388D01*
X005028Y009547D02*
X005843Y009547D01*
X005843Y009502D02*
X005843Y009692D01*
X005915Y009867D01*
X006050Y010002D01*
X006225Y010074D01*
X006415Y010074D01*
X006590Y010002D01*
X006725Y009867D01*
X006797Y009692D01*
X006797Y009502D01*
X006725Y009327D01*
X006590Y009192D01*
X006415Y009120D01*
X006225Y009120D01*
X006050Y009192D01*
X005915Y009327D01*
X005843Y009502D01*
X005890Y009388D02*
X005319Y009388D01*
X005410Y009230D02*
X006012Y009230D01*
X005594Y008913D02*
X009810Y008913D01*
X009810Y009071D02*
X005502Y009071D01*
X005668Y008754D02*
X009810Y008754D01*
X009810Y008596D02*
X005599Y008596D01*
X005325Y008437D02*
X009810Y008437D01*
X009810Y008279D02*
X005050Y008279D01*
X004913Y008279D02*
X004490Y008279D01*
X004157Y008120D02*
X009810Y008120D01*
X010310Y008120D02*
X011977Y008120D01*
X012183Y008120D02*
X023502Y008120D01*
X023520Y008279D02*
X012420Y008279D01*
X012494Y008437D02*
X021522Y008437D01*
X021510Y008442D02*
X021685Y008370D01*
X021875Y008370D01*
X022050Y008442D01*
X022185Y008577D01*
X022257Y008752D01*
X022257Y008942D01*
X022185Y009117D01*
X022050Y009252D01*
X021875Y009324D01*
X021685Y009324D01*
X021510Y009252D01*
X021375Y009117D01*
X021303Y008942D01*
X021303Y008752D01*
X021375Y008577D01*
X021510Y008442D01*
X021367Y008596D02*
X012498Y008596D01*
X012440Y008754D02*
X021303Y008754D01*
X021303Y008913D02*
X017454Y008913D01*
X017537Y009071D02*
X020496Y009071D01*
X020613Y009003D02*
X020773Y009046D01*
X021134Y009670D01*
X021091Y009830D01*
X020467Y010191D01*
X020307Y010148D01*
X019946Y009524D01*
X019989Y009364D01*
X020613Y009003D01*
X020788Y009071D02*
X021356Y009071D01*
X021487Y009230D02*
X020879Y009230D01*
X020971Y009388D02*
X021888Y009388D01*
X021711Y009547D02*
X021062Y009547D01*
X021124Y009705D02*
X021724Y009705D01*
X021816Y009864D02*
X021033Y009864D01*
X020945Y009986D02*
X021135Y009986D01*
X021310Y010058D01*
X021445Y010193D01*
X021517Y010368D01*
X021517Y010558D01*
X021445Y010733D01*
X021310Y010868D01*
X021135Y010940D01*
X020945Y010940D01*
X020770Y010868D01*
X020635Y010733D01*
X020563Y010558D01*
X020563Y010368D01*
X020635Y010193D01*
X020770Y010058D01*
X020945Y009986D01*
X020857Y010022D02*
X020759Y010022D01*
X020647Y010181D02*
X020484Y010181D01*
X020429Y010181D02*
X019764Y010181D01*
X019735Y010250D02*
X019600Y010385D01*
X019425Y010457D01*
X019235Y010457D01*
X019060Y010385D01*
X018925Y010250D01*
X018853Y010075D01*
X018853Y009885D01*
X018925Y009710D01*
X019060Y009575D01*
X019235Y009503D01*
X019425Y009503D01*
X019600Y009575D01*
X019735Y009710D01*
X019807Y009885D01*
X019807Y010075D01*
X019735Y010250D01*
X019646Y010339D02*
X020575Y010339D01*
X020563Y010498D02*
X017751Y010498D01*
X017680Y010426D02*
X017944Y010691D01*
X018060Y010575D01*
X018235Y010503D01*
X018425Y010503D01*
X018600Y010575D01*
X018735Y010710D01*
X018807Y010885D01*
X018807Y011075D01*
X018735Y011250D01*
X018705Y011280D01*
X018955Y011280D01*
X018925Y011250D01*
X018853Y011075D01*
X018853Y010885D01*
X018925Y010710D01*
X019060Y010575D01*
X019235Y010503D01*
X019425Y010503D01*
X019600Y010575D01*
X019735Y010710D01*
X019807Y010885D01*
X019807Y011075D01*
X019735Y011250D01*
X019705Y011280D01*
X021280Y011280D01*
X021372Y011318D01*
X021415Y011362D01*
X021563Y011362D01*
X021717Y011426D01*
X021834Y011543D01*
X021898Y011697D01*
X021898Y011863D01*
X021834Y012017D01*
X021717Y012134D01*
X021563Y012198D01*
X021397Y012198D01*
X021243Y012134D01*
X021126Y012017D01*
X021062Y011863D01*
X021062Y011780D01*
X019764Y011780D01*
X019807Y011885D01*
X019807Y012075D01*
X019735Y012250D01*
X019600Y012385D01*
X019425Y012457D01*
X019235Y012457D01*
X019060Y012385D01*
X018925Y012250D01*
X018853Y012075D01*
X018853Y011885D01*
X018896Y011780D01*
X016921Y011780D01*
X016817Y011884D01*
X016663Y011948D01*
X016497Y011948D01*
X016343Y011884D01*
X016226Y011767D01*
X016162Y011613D01*
X016162Y011447D01*
X016226Y011293D01*
X016343Y011176D01*
X016497Y011112D01*
X016663Y011112D01*
X016817Y011176D01*
X016921Y011280D01*
X017955Y011280D01*
X017925Y011250D01*
X017917Y011230D01*
X017830Y011230D01*
X017738Y011192D01*
X017668Y011122D01*
X017668Y011122D01*
X017326Y010780D01*
X017200Y010780D01*
X017053Y010719D01*
X016941Y010607D01*
X016880Y010460D01*
X016880Y010300D01*
X016941Y010153D01*
X017053Y010041D01*
X017200Y009980D01*
X017360Y009980D01*
X017507Y010041D01*
X017619Y010153D01*
X017680Y010300D01*
X017680Y010426D01*
X017680Y010339D02*
X017853Y010339D01*
X017853Y010340D02*
X017853Y009620D01*
X017970Y009503D01*
X018690Y009503D01*
X018807Y009620D01*
X018807Y010340D01*
X018690Y010457D01*
X017970Y010457D01*
X017853Y010340D01*
X017853Y010181D02*
X017630Y010181D01*
X017461Y010022D02*
X017853Y010022D01*
X017853Y009864D02*
X013114Y009864D01*
X013148Y010022D02*
X017099Y010022D01*
X016930Y010181D02*
X013120Y010181D01*
X013012Y010339D02*
X014131Y010339D01*
X013924Y010498D02*
X012880Y010498D01*
X012880Y010656D02*
X013862Y010656D01*
X013604Y010815D02*
X012880Y010815D01*
X012880Y010973D02*
X013492Y010973D01*
X013462Y011132D02*
X012880Y011132D01*
X012880Y011290D02*
X013179Y011290D01*
X013082Y011449D02*
X012880Y011449D01*
X012880Y011607D02*
X013062Y011607D01*
X013104Y011766D02*
X012880Y011766D01*
X012880Y011924D02*
X013233Y011924D01*
X013530Y012083D02*
X012880Y012083D01*
X012880Y012241D02*
X013530Y012241D01*
X013507Y012400D02*
X012880Y012400D01*
X012880Y012558D02*
X013348Y012558D01*
X013190Y012717D02*
X012880Y012717D01*
X012880Y012875D02*
X013031Y012875D01*
X013705Y013509D02*
X013968Y013509D01*
X013580Y013668D02*
X015535Y013668D01*
X015480Y013826D02*
X013580Y013826D01*
X013580Y013985D02*
X015490Y013985D01*
X015577Y014143D02*
X013580Y014143D01*
X013580Y014302D02*
X017630Y014302D01*
X017538Y014460D02*
X013580Y014460D01*
X013672Y014619D02*
X017480Y014619D01*
X017487Y014777D02*
X013831Y014777D01*
X013989Y014936D02*
X017009Y014936D01*
X017053Y014891D02*
X017200Y014830D01*
X017360Y014830D01*
X017507Y014891D01*
X017619Y015003D01*
X017680Y015150D01*
X017680Y015310D01*
X017619Y015457D01*
X017507Y015569D01*
X017360Y015630D01*
X017200Y015630D01*
X017082Y015581D01*
X016592Y016072D01*
X016522Y016142D01*
X016430Y016180D01*
X016480Y016300D01*
X016480Y016460D01*
X016419Y016607D01*
X016307Y016719D01*
X016160Y016780D01*
X016000Y016780D01*
X015853Y016719D01*
X015764Y016630D01*
X015046Y016630D01*
X014957Y016719D01*
X014810Y016780D01*
X014650Y016780D01*
X014503Y016719D01*
X014391Y016607D01*
X014330Y016460D01*
X014330Y016300D01*
X014391Y016153D01*
X014503Y016041D01*
X014650Y015980D01*
X014810Y015980D01*
X014957Y016041D01*
X015046Y016130D01*
X015380Y016130D01*
X015330Y016010D01*
X015330Y015850D01*
X015391Y015703D01*
X015503Y015591D01*
X015650Y015530D01*
X015810Y015530D01*
X015957Y015591D01*
X016046Y015680D01*
X016276Y015680D01*
X016932Y015024D01*
X016941Y015003D01*
X017053Y014891D01*
X016862Y015094D02*
X014191Y015094D01*
X014388Y015253D02*
X016704Y015253D01*
X016545Y015411D02*
X014448Y015411D01*
X014445Y015570D02*
X015555Y015570D01*
X015381Y015728D02*
X014373Y015728D01*
X014141Y015887D02*
X015330Y015887D01*
X015345Y016045D02*
X014961Y016045D01*
X014499Y016045D02*
X013948Y016045D01*
X013890Y016204D02*
X014370Y016204D01*
X014330Y016362D02*
X013700Y016362D01*
X013360Y016362D02*
X012916Y016362D01*
X012880Y016204D02*
X013170Y016204D01*
X013112Y016045D02*
X012880Y016045D01*
X012880Y015887D02*
X012969Y015887D01*
X012380Y015887D02*
X008177Y015887D01*
X008169Y015907D02*
X008110Y015966D01*
X008110Y016294D01*
X008169Y016353D01*
X008230Y016500D01*
X008230Y016660D01*
X008169Y016807D01*
X008057Y016919D01*
X007910Y016980D01*
X007750Y016980D01*
X007603Y016919D01*
X007491Y016807D01*
X007430Y016660D01*
X007430Y016500D01*
X007491Y016353D01*
X007550Y016294D01*
X007550Y015966D01*
X007491Y015907D01*
X007430Y015760D01*
X007430Y015600D01*
X007491Y015453D01*
X007551Y015393D01*
X007551Y015328D01*
X007551Y015067D01*
X007492Y015008D01*
X007431Y014861D01*
X007431Y014702D01*
X007461Y014630D01*
X007350Y014630D01*
X007203Y014569D01*
X007091Y014457D01*
X007030Y014310D01*
X007030Y014184D01*
X006018Y013172D01*
X005980Y013080D01*
X005980Y012996D01*
X005891Y012907D01*
X005830Y012760D01*
X005830Y012600D01*
X005891Y012453D01*
X006003Y012341D01*
X006150Y012280D01*
X006310Y012280D01*
X006457Y012341D01*
X006569Y012453D01*
X006630Y012600D01*
X006630Y012760D01*
X006569Y012907D01*
X006515Y012961D01*
X007384Y013830D01*
X007510Y013830D01*
X007657Y013891D01*
X007769Y014003D01*
X007830Y014150D01*
X007830Y014310D01*
X007800Y014381D01*
X007911Y014381D01*
X008058Y014442D01*
X008170Y014555D01*
X008231Y014702D01*
X008231Y014861D01*
X008170Y015008D01*
X008111Y015067D01*
X008111Y015273D01*
X008112Y015274D01*
X008111Y015329D01*
X008111Y015384D01*
X008111Y015385D01*
X008111Y015395D01*
X008169Y015453D01*
X008230Y015600D01*
X008230Y015760D01*
X008169Y015907D01*
X008110Y016045D02*
X012380Y016045D01*
X012380Y016204D02*
X008110Y016204D01*
X008173Y016362D02*
X012380Y016362D01*
X012397Y016521D02*
X008230Y016521D01*
X008222Y016679D02*
X012525Y016679D01*
X012684Y016838D02*
X010948Y016838D01*
X011087Y016996D02*
X012842Y016996D01*
X013001Y017155D02*
X011130Y017155D01*
X011205Y017313D02*
X013159Y017313D01*
X013318Y017472D02*
X011210Y017472D01*
X011210Y017630D02*
X013476Y017630D01*
X013635Y017789D02*
X011210Y017789D01*
X011210Y017947D02*
X013793Y017947D01*
X013952Y018106D02*
X011210Y018106D01*
X011210Y018264D02*
X014110Y018264D01*
X013952Y018423D02*
X014269Y018423D01*
X014241Y018581D02*
X014194Y018581D01*
X013696Y018423D02*
X013164Y018423D01*
X012908Y018423D02*
X012377Y018423D01*
X012121Y018423D02*
X011210Y018423D01*
X011210Y018581D02*
X011879Y018581D01*
X011793Y018740D02*
X011210Y018740D01*
X011210Y018898D02*
X011771Y018898D01*
X011803Y019057D02*
X011210Y019057D01*
X011210Y019215D02*
X011321Y019215D01*
X011602Y019215D02*
X011902Y019215D01*
X011874Y019374D02*
X011837Y019374D01*
X012249Y019674D02*
X012249Y020011D01*
X011980Y020280D01*
X011230Y020280D01*
X012249Y021299D01*
X012249Y022599D01*
X012430Y022780D01*
X012870Y023178D02*
X014152Y023178D01*
X014160Y023185D02*
X014025Y023050D01*
X013953Y022875D01*
X013953Y022685D01*
X014025Y022510D01*
X014160Y022375D01*
X014335Y022303D01*
X014525Y022303D01*
X014700Y022375D01*
X014835Y022510D01*
X014907Y022685D01*
X014907Y022875D01*
X014835Y023050D01*
X014700Y023185D01*
X014525Y023257D01*
X014335Y023257D01*
X014160Y023185D01*
X014012Y023019D02*
X012907Y023019D01*
X012907Y022861D02*
X013953Y022861D01*
X013953Y022702D02*
X012907Y022702D01*
X012907Y022544D02*
X014011Y022544D01*
X014150Y022385D02*
X012873Y022385D01*
X013160Y022185D02*
X013025Y022050D01*
X012953Y021875D01*
X012953Y021685D01*
X013025Y021510D01*
X013160Y021375D01*
X013335Y021303D01*
X013525Y021303D01*
X013700Y021375D01*
X013835Y021510D01*
X013907Y021685D01*
X013907Y021875D01*
X013835Y022050D01*
X013700Y022185D01*
X013525Y022257D01*
X013335Y022257D01*
X013160Y022185D01*
X013260Y022227D02*
X012529Y022227D01*
X012529Y022068D02*
X013043Y022068D01*
X012967Y021910D02*
X012529Y021910D01*
X012529Y021751D02*
X012953Y021751D01*
X012991Y021593D02*
X012529Y021593D01*
X012529Y021434D02*
X013101Y021434D01*
X012529Y021276D02*
X016830Y021276D01*
X016830Y021117D02*
X012463Y021117D01*
X012305Y020959D02*
X016830Y020959D01*
X016830Y020800D02*
X016126Y020800D01*
X016246Y020642D02*
X016830Y020642D01*
X016830Y020483D02*
X016280Y020483D01*
X016249Y020325D02*
X016830Y020325D01*
X016890Y020166D02*
X016132Y020166D01*
X016130Y020008D02*
X017049Y020008D01*
X017207Y019849D02*
X016130Y019849D01*
X016130Y019691D02*
X017366Y019691D01*
X017524Y019532D02*
X016130Y019532D01*
X016130Y019374D02*
X017683Y019374D01*
X017841Y019215D02*
X016130Y019215D01*
X016130Y019057D02*
X017880Y019057D01*
X017880Y018898D02*
X016130Y018898D01*
X016130Y018740D02*
X017880Y018740D01*
X017880Y018581D02*
X016110Y018581D01*
X015976Y018423D02*
X017880Y018423D01*
X017880Y018264D02*
X015818Y018264D01*
X014659Y018106D02*
X017880Y018106D01*
X017880Y017947D02*
X014501Y017947D01*
X014342Y017789D02*
X017880Y017789D01*
X017880Y017630D02*
X014184Y017630D01*
X014025Y017472D02*
X017880Y017472D01*
X017880Y017313D02*
X013867Y017313D01*
X013708Y017155D02*
X017880Y017155D01*
X017880Y016996D02*
X013550Y016996D01*
X013391Y016838D02*
X017880Y016838D01*
X017880Y016679D02*
X016347Y016679D01*
X016455Y016521D02*
X017880Y016521D01*
X017880Y016362D02*
X016480Y016362D01*
X016440Y016204D02*
X017880Y016204D01*
X017880Y016045D02*
X016619Y016045D01*
X016592Y016072D02*
X016592Y016072D01*
X016777Y015887D02*
X017898Y015887D01*
X018028Y015728D02*
X016936Y015728D01*
X016387Y015570D02*
X015905Y015570D01*
X015813Y016679D02*
X014997Y016679D01*
X014463Y016679D02*
X013233Y016679D01*
X013074Y016521D02*
X014355Y016521D01*
X012380Y015728D02*
X008230Y015728D01*
X008217Y015570D02*
X012380Y015570D01*
X012380Y015411D02*
X008127Y015411D01*
X008111Y015253D02*
X012380Y015253D01*
X012380Y015094D02*
X008111Y015094D01*
X008200Y014936D02*
X009070Y014936D01*
X009041Y014907D02*
X009153Y015019D01*
X009300Y015080D01*
X009460Y015080D01*
X009607Y015019D01*
X009719Y014907D01*
X009780Y014760D01*
X009780Y014600D01*
X009719Y014453D01*
X009665Y014399D01*
X010704Y013360D01*
X010797Y013398D01*
X010963Y013398D01*
X011117Y013334D01*
X011234Y013217D01*
X011298Y013063D01*
X011298Y012897D01*
X011234Y012743D01*
X011117Y012626D01*
X010963Y012562D01*
X010797Y012562D01*
X010643Y012626D01*
X010526Y012743D01*
X010463Y012893D01*
X009168Y014188D01*
X009130Y014280D01*
X009130Y014364D01*
X009041Y014453D01*
X008980Y014600D01*
X008980Y014760D01*
X009041Y014907D01*
X008987Y014777D02*
X008231Y014777D01*
X008197Y014619D02*
X008980Y014619D01*
X009038Y014460D02*
X008076Y014460D01*
X007830Y014302D02*
X009130Y014302D01*
X009213Y014143D02*
X007827Y014143D01*
X007750Y013985D02*
X009372Y013985D01*
X009530Y013826D02*
X007380Y013826D01*
X007221Y013668D02*
X009689Y013668D01*
X009847Y013509D02*
X007063Y013509D01*
X006904Y013351D02*
X010006Y013351D01*
X010164Y013192D02*
X006746Y013192D01*
X006587Y013034D02*
X010323Y013034D01*
X010471Y012875D02*
X006582Y012875D01*
X006630Y012717D02*
X010552Y012717D01*
X010517Y012584D02*
X010363Y012648D01*
X010197Y012648D01*
X010043Y012584D01*
X009926Y012467D01*
X009862Y012313D01*
X009862Y012165D01*
X008376Y010680D01*
X007321Y010680D01*
X007217Y010784D01*
X007063Y010848D01*
X006897Y010848D01*
X006743Y010784D01*
X006626Y010667D01*
X006562Y010513D01*
X006562Y010347D01*
X006626Y010193D01*
X006743Y010076D01*
X006897Y010012D01*
X007063Y010012D01*
X007217Y010076D01*
X007321Y010180D01*
X008530Y010180D01*
X008622Y010218D01*
X008692Y010288D01*
X010215Y011812D01*
X010363Y011812D01*
X010517Y011876D01*
X010634Y011993D01*
X010698Y012147D01*
X010698Y012313D01*
X010634Y012467D01*
X010517Y012584D01*
X010543Y012558D02*
X011880Y012558D01*
X011880Y012400D02*
X011452Y012400D01*
X011537Y012241D02*
X011880Y012241D01*
X011880Y012083D02*
X011548Y012083D01*
X011497Y011924D02*
X011880Y011924D01*
X011880Y011766D02*
X011343Y011766D01*
X010961Y011607D02*
X011880Y011607D01*
X011880Y011449D02*
X010802Y011449D01*
X010644Y011290D02*
X011880Y011290D01*
X011880Y011132D02*
X010485Y011132D01*
X010327Y010973D02*
X011880Y010973D01*
X011880Y010815D02*
X010310Y010815D01*
X010378Y010656D02*
X011079Y010656D01*
X011041Y010618D02*
X010977Y010464D01*
X010977Y010296D01*
X011041Y010142D01*
X011159Y010024D01*
X011313Y009960D01*
X011481Y009960D01*
X011635Y010024D01*
X011753Y010142D01*
X011817Y010296D01*
X011817Y010464D01*
X011753Y010618D01*
X011635Y010736D01*
X011481Y010800D01*
X011313Y010800D01*
X011159Y010736D01*
X011041Y010618D01*
X010991Y010498D02*
X010466Y010498D01*
X010480Y010339D02*
X010977Y010339D01*
X011025Y010181D02*
X010432Y010181D01*
X010310Y010022D02*
X011164Y010022D01*
X011630Y010022D02*
X011830Y010022D01*
X011830Y009864D02*
X010310Y009864D01*
X010310Y009705D02*
X011830Y009705D01*
X011830Y009547D02*
X010310Y009547D01*
X010310Y009388D02*
X011830Y009388D01*
X011830Y009230D02*
X010310Y009230D01*
X010310Y009071D02*
X011830Y009071D01*
X011830Y008913D02*
X010310Y008913D01*
X010310Y008754D02*
X011720Y008754D01*
X011662Y008596D02*
X010310Y008596D01*
X010310Y008437D02*
X011666Y008437D01*
X011740Y008279D02*
X010310Y008279D01*
X010310Y007962D02*
X023344Y007962D01*
X023185Y007803D02*
X010310Y007803D01*
X010319Y007645D02*
X023027Y007645D01*
X022868Y007486D02*
X010478Y007486D01*
X010636Y007328D02*
X022710Y007328D01*
X022551Y007169D02*
X010795Y007169D01*
X010953Y007011D02*
X013245Y007011D01*
X013715Y007011D02*
X022393Y007011D01*
X022234Y006852D02*
X013842Y006852D01*
X013880Y006694D02*
X022076Y006694D01*
X021917Y006535D02*
X013853Y006535D01*
X013742Y006377D02*
X021759Y006377D01*
X021600Y006218D02*
X014120Y006218D01*
X014200Y006185D02*
X014025Y006257D01*
X013835Y006257D01*
X013660Y006185D01*
X013525Y006050D01*
X013453Y005875D01*
X013453Y005685D01*
X013525Y005510D01*
X013660Y005375D01*
X013835Y005303D01*
X014025Y005303D01*
X014200Y005375D01*
X014335Y005510D01*
X014407Y005685D01*
X014407Y005875D01*
X014335Y006050D01*
X014200Y006185D01*
X014326Y006060D02*
X016119Y006060D01*
X016060Y006035D02*
X015925Y005900D01*
X015853Y005725D01*
X015853Y005535D01*
X015925Y005360D01*
X016060Y005225D01*
X016235Y005153D01*
X016425Y005153D01*
X016600Y005225D01*
X016735Y005360D01*
X016807Y005535D01*
X016807Y005725D01*
X016735Y005900D01*
X016600Y006035D01*
X016425Y006107D01*
X016235Y006107D01*
X016060Y006035D01*
X015926Y005901D02*
X014397Y005901D01*
X014407Y005743D02*
X015860Y005743D01*
X015853Y005584D02*
X014366Y005584D01*
X014251Y005426D02*
X015898Y005426D01*
X016018Y005267D02*
X006261Y005267D01*
X006419Y005109D02*
X020491Y005109D01*
X020649Y005267D02*
X018642Y005267D01*
X018600Y005225D02*
X018735Y005360D01*
X018807Y005535D01*
X018807Y005725D01*
X018735Y005900D01*
X018600Y006035D01*
X018425Y006107D01*
X018235Y006107D01*
X018060Y006035D01*
X017925Y005900D01*
X017853Y005725D01*
X017853Y005535D01*
X017925Y005360D01*
X018060Y005225D01*
X018235Y005153D01*
X018425Y005153D01*
X018600Y005225D01*
X018762Y005426D02*
X020808Y005426D01*
X020966Y005584D02*
X018807Y005584D01*
X018800Y005743D02*
X021125Y005743D01*
X021283Y005901D02*
X018734Y005901D01*
X018541Y006060D02*
X021442Y006060D01*
X020332Y004950D02*
X006578Y004950D01*
X006736Y004792D02*
X020174Y004792D01*
X020015Y004633D02*
X014407Y004633D01*
X014407Y004475D02*
X019857Y004475D01*
X019698Y004316D02*
X014407Y004316D01*
X014407Y004158D02*
X019540Y004158D01*
X019381Y003999D02*
X014407Y003999D01*
X014328Y003841D02*
X019223Y003841D01*
X018339Y003682D02*
X014190Y003682D01*
X013670Y003682D02*
X007846Y003682D01*
X007687Y003841D02*
X012743Y003841D01*
X012660Y003875D02*
X012835Y003803D01*
X013025Y003803D01*
X013200Y003875D01*
X013335Y004010D01*
X013407Y004185D01*
X013407Y004375D01*
X013335Y004550D01*
X013200Y004685D01*
X013025Y004757D01*
X012835Y004757D01*
X012660Y004685D01*
X012525Y004550D01*
X012453Y004375D01*
X012453Y004185D01*
X012525Y004010D01*
X012660Y003875D01*
X012536Y003999D02*
X007529Y003999D01*
X007370Y004158D02*
X012464Y004158D01*
X012453Y004316D02*
X007212Y004316D01*
X007053Y004475D02*
X012494Y004475D01*
X012608Y004633D02*
X006895Y004633D01*
X006102Y005426D02*
X012453Y005426D01*
X012453Y005584D02*
X005944Y005584D01*
X006628Y009230D02*
X009810Y009230D01*
X009810Y009388D02*
X006750Y009388D01*
X006797Y009547D02*
X009810Y009547D01*
X009810Y009705D02*
X006792Y009705D01*
X006726Y009864D02*
X009810Y009864D01*
X009810Y010022D02*
X007088Y010022D01*
X006872Y010022D02*
X006542Y010022D01*
X006638Y010181D02*
X006286Y010181D01*
X006371Y010230D02*
X006414Y010390D01*
X006053Y011014D01*
X005893Y011057D01*
X005269Y010696D01*
X005226Y010536D01*
X005587Y009912D01*
X005747Y009869D01*
X006371Y010230D01*
X006400Y010339D02*
X006565Y010339D01*
X006562Y010498D02*
X006351Y010498D01*
X006260Y010656D02*
X006621Y010656D01*
X006816Y010815D02*
X006168Y010815D01*
X006077Y010973D02*
X008669Y010973D01*
X008511Y010815D02*
X007144Y010815D01*
X006098Y010022D02*
X006011Y010022D01*
X005914Y009864D02*
X005034Y009864D01*
X005057Y009705D02*
X005848Y009705D01*
X005523Y010022D02*
X004946Y010022D01*
X004699Y010181D02*
X005432Y010181D01*
X005340Y010339D02*
X003340Y010339D01*
X003340Y010181D02*
X004461Y010181D01*
X004214Y010022D02*
X003340Y010022D01*
X003340Y009864D02*
X004126Y009864D01*
X004103Y009705D02*
X003340Y009705D01*
X003340Y009547D02*
X004132Y009547D01*
X004230Y009388D02*
X003340Y009388D01*
X003340Y010498D02*
X005249Y010498D01*
X005258Y010656D02*
X003340Y010656D01*
X003340Y010815D02*
X005474Y010815D01*
X005748Y010973D02*
X003340Y010973D01*
X003340Y011132D02*
X008828Y011132D01*
X008986Y011290D02*
X003340Y011290D01*
X003340Y011449D02*
X009145Y011449D01*
X009303Y011607D02*
X003340Y011607D01*
X003340Y011766D02*
X009462Y011766D01*
X009620Y011924D02*
X003340Y011924D01*
X003340Y012083D02*
X009779Y012083D01*
X009862Y012241D02*
X003340Y012241D01*
X003467Y012400D02*
X005945Y012400D01*
X005848Y012558D02*
X003626Y012558D01*
X003784Y012717D02*
X005830Y012717D01*
X005878Y012875D02*
X003943Y012875D01*
X004101Y013034D02*
X005980Y013034D01*
X006038Y013192D02*
X004260Y013192D01*
X004418Y013351D02*
X006197Y013351D01*
X006355Y013509D02*
X004577Y013509D01*
X004686Y013668D02*
X006514Y013668D01*
X006672Y013826D02*
X004690Y013826D01*
X004690Y013985D02*
X006831Y013985D01*
X006989Y014143D02*
X004690Y014143D01*
X004690Y014302D02*
X007030Y014302D01*
X007094Y014460D02*
X004690Y014460D01*
X004690Y014619D02*
X007323Y014619D01*
X007431Y014777D02*
X004690Y014777D01*
X004668Y014936D02*
X005459Y014936D01*
X005503Y014891D02*
X005391Y015003D01*
X005330Y015150D01*
X005330Y015310D01*
X005391Y015457D01*
X005450Y015516D01*
X005450Y016186D01*
X005493Y016289D01*
X007080Y017876D01*
X007080Y017960D01*
X007141Y018107D01*
X007253Y018219D01*
X007400Y018280D01*
X007560Y018280D01*
X007707Y018219D01*
X007819Y018107D01*
X007880Y017960D01*
X007880Y017800D01*
X007819Y017653D01*
X007707Y017541D01*
X007560Y017480D01*
X007476Y017480D01*
X006010Y016014D01*
X006010Y015516D01*
X006069Y015457D01*
X006130Y015310D01*
X006130Y015150D01*
X006069Y015003D01*
X005957Y014891D01*
X005810Y014830D01*
X005650Y014830D01*
X005503Y014891D01*
X005353Y015094D02*
X004534Y015094D01*
X004375Y015253D02*
X005330Y015253D01*
X005372Y015411D02*
X004217Y015411D01*
X004058Y015570D02*
X005450Y015570D01*
X005450Y015728D02*
X003900Y015728D01*
X003741Y015887D02*
X005450Y015887D01*
X005450Y016045D02*
X003583Y016045D01*
X003424Y016204D02*
X005457Y016204D01*
X005566Y016362D02*
X003340Y016362D01*
X003340Y016521D02*
X005725Y016521D01*
X005883Y016679D02*
X003340Y016679D01*
X003340Y016838D02*
X006042Y016838D01*
X006200Y016996D02*
X003340Y016996D01*
X003340Y017155D02*
X006359Y017155D01*
X006517Y017313D02*
X003381Y017313D01*
X003539Y017472D02*
X006676Y017472D01*
X006834Y017630D02*
X005940Y017630D01*
X005915Y017620D02*
X006090Y017692D01*
X006225Y017827D01*
X006297Y018002D01*
X006297Y018192D01*
X006225Y018367D01*
X006090Y018502D01*
X005915Y018574D01*
X005725Y018574D01*
X005550Y018502D01*
X005415Y018367D01*
X005343Y018192D01*
X005343Y018002D01*
X005415Y017827D01*
X005550Y017692D01*
X005725Y017620D01*
X005915Y017620D01*
X005700Y017630D02*
X003698Y017630D01*
X003856Y017789D02*
X005453Y017789D01*
X005365Y017947D02*
X004015Y017947D01*
X004173Y018106D02*
X005343Y018106D01*
X005372Y018264D02*
X004693Y018264D01*
X004635Y018264D02*
X004332Y018264D01*
X003913Y018581D02*
X002880Y018581D01*
X002880Y018423D02*
X003755Y018423D01*
X003596Y018264D02*
X002880Y018264D01*
X002880Y018106D02*
X003438Y018106D01*
X003279Y017947D02*
X002880Y017947D01*
X002880Y017789D02*
X003121Y017789D01*
X002962Y017630D02*
X002880Y017630D01*
X002880Y018740D02*
X003995Y018740D01*
X004058Y018898D02*
X002880Y018898D01*
X002880Y019057D02*
X004150Y019057D01*
X004241Y019215D02*
X002880Y019215D01*
X002880Y019374D02*
X004333Y019374D01*
X004623Y019374D02*
X004744Y019374D01*
X004810Y019308D02*
X004675Y019443D01*
X004603Y019618D01*
X004603Y019808D01*
X004675Y019983D01*
X004810Y020118D01*
X004985Y020190D01*
X005175Y020190D01*
X005350Y020118D01*
X005485Y019983D01*
X005557Y019808D01*
X005557Y019618D01*
X005485Y019443D01*
X005350Y019308D01*
X005175Y019236D01*
X004985Y019236D01*
X004810Y019308D01*
X004897Y019215D02*
X005914Y019215D01*
X005823Y019057D02*
X005137Y019057D01*
X005161Y018898D02*
X005731Y018898D01*
X005726Y018890D02*
X005769Y018730D01*
X006393Y018369D01*
X006553Y018412D01*
X006914Y019036D01*
X006871Y019196D01*
X006247Y019557D01*
X006087Y019514D01*
X005726Y018890D01*
X005767Y018740D02*
X005069Y018740D01*
X004978Y018581D02*
X006027Y018581D01*
X006170Y018423D02*
X006301Y018423D01*
X006268Y018264D02*
X007362Y018264D01*
X007598Y018264D02*
X008392Y018264D01*
X008234Y018423D02*
X006559Y018423D01*
X006651Y018581D02*
X008075Y018581D01*
X007917Y018740D02*
X006742Y018740D01*
X006834Y018898D02*
X007758Y018898D01*
X007600Y019057D02*
X006908Y019057D01*
X006838Y019215D02*
X007441Y019215D01*
X007283Y019374D02*
X006564Y019374D01*
X006289Y019532D02*
X006887Y019532D01*
X006943Y019476D02*
X007097Y019412D01*
X007245Y019412D01*
X008980Y017676D01*
X008980Y017550D01*
X009041Y017403D01*
X009153Y017291D01*
X009300Y017230D01*
X009460Y017230D01*
X009607Y017291D01*
X009719Y017403D01*
X009780Y017550D01*
X009780Y017710D01*
X009719Y017857D01*
X009607Y017969D01*
X009460Y018030D01*
X009334Y018030D01*
X007598Y019765D01*
X007598Y019913D01*
X007534Y020067D01*
X007417Y020184D01*
X007263Y020248D01*
X007097Y020248D01*
X006943Y020184D01*
X006826Y020067D01*
X006762Y019913D01*
X006762Y019747D01*
X006826Y019593D01*
X006943Y019476D01*
X006785Y019691D02*
X005557Y019691D01*
X005540Y019849D02*
X006762Y019849D01*
X006801Y020008D02*
X005461Y020008D01*
X005234Y020166D02*
X006925Y020166D01*
X007435Y020166D02*
X009180Y020166D01*
X009180Y020008D02*
X007559Y020008D01*
X007598Y019849D02*
X009180Y019849D01*
X009180Y019691D02*
X007673Y019691D01*
X007832Y019532D02*
X009180Y019532D01*
X009180Y019521D02*
X009076Y019417D01*
X009012Y019263D01*
X009012Y019097D01*
X009076Y018943D01*
X009193Y018826D01*
X009347Y018762D01*
X009513Y018762D01*
X009667Y018826D01*
X009784Y018943D01*
X009848Y019097D01*
X009848Y019263D01*
X009784Y019417D01*
X009680Y019521D01*
X009680Y021639D01*
X009784Y021743D01*
X009848Y021897D01*
X009848Y022063D01*
X009784Y022217D01*
X009667Y022334D01*
X009513Y022398D01*
X009347Y022398D01*
X009193Y022334D01*
X009076Y022217D01*
X009012Y022063D01*
X009012Y021897D01*
X009076Y021743D01*
X009180Y021639D01*
X009180Y019521D01*
X009058Y019374D02*
X007990Y019374D01*
X008149Y019215D02*
X009012Y019215D01*
X009029Y019057D02*
X008307Y019057D01*
X008466Y018898D02*
X009121Y018898D01*
X008783Y018581D02*
X009938Y018581D01*
X009993Y018526D02*
X010147Y018462D01*
X010313Y018462D01*
X010467Y018526D01*
X010584Y018643D01*
X010648Y018797D01*
X010648Y018963D01*
X010584Y019117D01*
X010485Y019216D01*
X010526Y021867D01*
X010667Y021926D01*
X010784Y022043D01*
X010848Y022197D01*
X010848Y022363D01*
X010784Y022517D01*
X010667Y022634D01*
X010513Y022698D01*
X010347Y022698D01*
X010193Y022634D01*
X010076Y022517D01*
X010012Y022363D01*
X010012Y022197D01*
X010030Y022153D01*
X010030Y022132D01*
X009985Y019227D01*
X009876Y019117D01*
X009812Y018963D01*
X009812Y018797D01*
X009876Y018643D01*
X009993Y018526D01*
X009836Y018740D02*
X008624Y018740D01*
X008941Y018423D02*
X010650Y018423D01*
X010650Y018581D02*
X010522Y018581D01*
X010624Y018740D02*
X010650Y018740D01*
X010648Y018898D02*
X010650Y018898D01*
X010650Y019057D02*
X010609Y019057D01*
X010650Y019215D02*
X010486Y019215D01*
X010488Y019374D02*
X010650Y019374D01*
X010650Y019532D02*
X010490Y019532D01*
X010492Y019691D02*
X010650Y019691D01*
X010650Y019849D02*
X010495Y019849D01*
X010497Y020008D02*
X010650Y020008D01*
X010720Y020166D02*
X010500Y020166D01*
X010502Y020325D02*
X010879Y020325D01*
X010771Y020217D02*
X010771Y020217D01*
X010930Y019980D02*
X010930Y017380D01*
X010730Y017180D01*
X010456Y017472D02*
X009747Y017472D01*
X009780Y017630D02*
X010650Y017630D01*
X010650Y017789D02*
X009747Y017789D01*
X009629Y017947D02*
X010650Y017947D01*
X010650Y018106D02*
X009258Y018106D01*
X009100Y018264D02*
X010650Y018264D01*
X009812Y018898D02*
X009739Y018898D01*
X009831Y019057D02*
X009851Y019057D01*
X009848Y019215D02*
X009974Y019215D01*
X009988Y019374D02*
X009802Y019374D01*
X009680Y019532D02*
X009990Y019532D01*
X009992Y019691D02*
X009680Y019691D01*
X009680Y019849D02*
X009995Y019849D01*
X009997Y020008D02*
X009680Y020008D01*
X009680Y020166D02*
X010000Y020166D01*
X010002Y020325D02*
X009680Y020325D01*
X009680Y020483D02*
X010005Y020483D01*
X010007Y020642D02*
X009680Y020642D01*
X009680Y020800D02*
X010010Y020800D01*
X010012Y020959D02*
X009680Y020959D01*
X009680Y021117D02*
X010014Y021117D01*
X010017Y021276D02*
X009680Y021276D01*
X009680Y021434D02*
X010019Y021434D01*
X010022Y021593D02*
X009680Y021593D01*
X009788Y021751D02*
X010024Y021751D01*
X010027Y021910D02*
X009848Y021910D01*
X009846Y022068D02*
X010029Y022068D01*
X010012Y022227D02*
X009775Y022227D01*
X009545Y022385D02*
X010021Y022385D01*
X010102Y022544D02*
X004391Y022544D01*
X004545Y022702D02*
X010953Y022702D01*
X010953Y022685D02*
X011025Y022510D01*
X011160Y022375D01*
X011335Y022303D01*
X011525Y022303D01*
X011700Y022375D01*
X011835Y022510D01*
X011907Y022685D01*
X011907Y022875D01*
X011835Y023050D01*
X011700Y023185D01*
X011525Y023257D01*
X011335Y023257D01*
X011160Y023185D01*
X011025Y023050D01*
X010953Y022875D01*
X010953Y022685D01*
X011011Y022544D02*
X010758Y022544D01*
X010839Y022385D02*
X011150Y022385D01*
X010848Y022227D02*
X011969Y022227D01*
X011969Y022385D02*
X011710Y022385D01*
X011849Y022544D02*
X011953Y022544D01*
X011953Y022702D02*
X011907Y022702D01*
X011907Y022861D02*
X011953Y022861D01*
X011953Y023019D02*
X011848Y023019D01*
X011708Y023178D02*
X011990Y023178D01*
X011799Y023812D02*
X012313Y023812D01*
X012547Y023812D02*
X014061Y023812D01*
X013953Y023970D02*
X012795Y023970D01*
X012884Y024129D02*
X013953Y024129D01*
X013953Y024287D02*
X012907Y024287D01*
X012878Y024446D02*
X013953Y024446D01*
X013953Y024604D02*
X012781Y024604D01*
X012280Y024763D02*
X014559Y024763D01*
X014949Y024446D02*
X014982Y024446D01*
X014953Y024287D02*
X014907Y024287D01*
X014907Y024129D02*
X014976Y024129D01*
X014907Y023970D02*
X015065Y023970D01*
X015313Y023812D02*
X014799Y023812D01*
X015070Y023257D02*
X014953Y023140D01*
X014953Y022420D01*
X015070Y022303D01*
X015790Y022303D01*
X015907Y022420D01*
X015907Y023140D01*
X015790Y023257D01*
X015070Y023257D01*
X014990Y023178D02*
X014708Y023178D01*
X014848Y023019D02*
X014953Y023019D01*
X014953Y022861D02*
X014907Y022861D01*
X014907Y022702D02*
X014953Y022702D01*
X014953Y022544D02*
X014849Y022544D01*
X014987Y022385D02*
X014710Y022385D01*
X013893Y021910D02*
X016509Y021910D01*
X016580Y021751D02*
X013907Y021751D01*
X013869Y021593D02*
X016580Y021593D01*
X016672Y021434D02*
X013759Y021434D01*
X013817Y022068D02*
X016424Y022068D01*
X016412Y022227D02*
X013600Y022227D01*
X012146Y020800D02*
X015634Y020800D01*
X015514Y020642D02*
X011988Y020642D01*
X012173Y020483D02*
X015480Y020483D01*
X015511Y020325D02*
X012331Y020325D01*
X012488Y020166D02*
X015628Y020166D01*
X015057Y020008D02*
X014953Y020008D01*
X014270Y020008D02*
X014165Y020008D01*
X013482Y020008D02*
X012590Y020008D01*
X012693Y019849D02*
X013380Y019849D01*
X013346Y019691D02*
X012726Y019691D01*
X012707Y019532D02*
X013366Y019532D01*
X013449Y019374D02*
X012624Y019374D01*
X012595Y019215D02*
X012690Y019215D01*
X012666Y018581D02*
X012619Y018581D01*
X013406Y018581D02*
X013454Y018581D01*
X013477Y019215D02*
X013383Y019215D01*
X011513Y020959D02*
X010512Y020959D01*
X010514Y021117D02*
X011671Y021117D01*
X011830Y021276D02*
X010517Y021276D01*
X010519Y021434D02*
X011969Y021434D01*
X011969Y021593D02*
X010522Y021593D01*
X010524Y021751D02*
X011969Y021751D01*
X011969Y021910D02*
X010628Y021910D01*
X010795Y022068D02*
X011969Y022068D01*
X010953Y022861D02*
X004699Y022861D01*
X004853Y023019D02*
X011012Y023019D01*
X011152Y023178D02*
X005007Y023178D01*
X005170Y023336D02*
X020558Y023336D01*
X020718Y023178D02*
X015870Y023178D01*
X015907Y023019D02*
X020877Y023019D01*
X020757Y022861D02*
X015907Y022861D01*
X015907Y022702D02*
X020598Y022702D01*
X020440Y022544D02*
X017045Y022544D01*
X017198Y022385D02*
X020281Y022385D01*
X020123Y022227D02*
X018550Y022227D01*
X018475Y022257D02*
X018285Y022257D01*
X018110Y022185D01*
X017975Y022050D01*
X017903Y021875D01*
X017903Y021685D01*
X017975Y021510D01*
X018110Y021375D01*
X018285Y021303D01*
X018475Y021303D01*
X018650Y021375D01*
X018785Y021510D01*
X018857Y021685D01*
X018857Y021875D01*
X018785Y022050D01*
X018650Y022185D01*
X018475Y022257D01*
X018210Y022227D02*
X017248Y022227D01*
X017633Y022068D02*
X017993Y022068D01*
X017917Y021910D02*
X017729Y021910D01*
X017748Y021751D02*
X017903Y021751D01*
X017941Y021593D02*
X017705Y021593D01*
X017580Y021434D02*
X018051Y021434D01*
X017580Y021276D02*
X019469Y021276D01*
X019387Y021434D02*
X018709Y021434D01*
X018819Y021593D02*
X019380Y021593D01*
X019439Y021751D02*
X018857Y021751D01*
X018843Y021910D02*
X019651Y021910D01*
X019964Y022068D02*
X018767Y022068D01*
X017580Y021117D02*
X022811Y021117D01*
X022650Y021276D02*
X020091Y021276D01*
X020173Y021434D02*
X022489Y021434D01*
X022327Y021593D02*
X020196Y021593D01*
X020355Y021751D02*
X022166Y021751D01*
X022004Y021910D02*
X020513Y021910D01*
X020672Y022068D02*
X021843Y022068D01*
X021682Y022227D02*
X020830Y022227D01*
X020989Y022385D02*
X021520Y022385D01*
X021359Y022544D02*
X021147Y022544D01*
X020398Y023495D02*
X005363Y023495D01*
X005555Y023653D02*
X020239Y023653D01*
X020081Y023812D02*
X015547Y023812D01*
X015795Y023970D02*
X019922Y023970D01*
X019764Y024129D02*
X015884Y024129D01*
X015907Y024287D02*
X019605Y024287D01*
X019447Y024446D02*
X015878Y024446D01*
X015781Y024604D02*
X019288Y024604D01*
X019130Y024763D02*
X015266Y024763D01*
X015504Y026348D02*
X011332Y026348D01*
X010592Y026189D02*
X016316Y026189D01*
X016869Y026031D02*
X009966Y026031D01*
X009479Y025872D02*
X017376Y025872D01*
X017838Y025714D02*
X009056Y025714D01*
X008632Y025555D02*
X018200Y025555D01*
X018561Y025397D02*
X008286Y025397D01*
X007973Y025238D02*
X012020Y025238D01*
X011862Y025080D02*
X007660Y025080D01*
X007347Y024921D02*
X011703Y024921D01*
X011545Y024763D02*
X007093Y024763D01*
X006851Y024604D02*
X010953Y024604D01*
X010953Y024446D02*
X006608Y024446D01*
X006366Y024287D02*
X010953Y024287D01*
X010953Y024129D02*
X006133Y024129D01*
X006169Y024159D02*
X006169Y024159D01*
X005940Y023970D02*
X010953Y023970D01*
X011061Y023812D02*
X005748Y023812D01*
X004236Y022385D02*
X009315Y022385D01*
X009085Y022227D02*
X004103Y022227D01*
X003979Y022068D02*
X009014Y022068D01*
X009012Y021910D02*
X003856Y021910D01*
X003733Y021751D02*
X009072Y021751D01*
X009180Y021593D02*
X003609Y021593D01*
X003486Y021434D02*
X009180Y021434D01*
X009180Y021276D02*
X003363Y021276D01*
X003264Y021117D02*
X009180Y021117D01*
X009180Y020959D02*
X003166Y020959D01*
X003069Y020800D02*
X009180Y020800D01*
X009180Y020642D02*
X002971Y020642D01*
X002880Y020483D02*
X009180Y020483D01*
X009180Y020325D02*
X002880Y020325D01*
X002880Y020166D02*
X004926Y020166D01*
X004699Y020008D02*
X002880Y020008D01*
X002880Y019849D02*
X004620Y019849D01*
X004603Y019691D02*
X002880Y019691D01*
X002880Y019532D02*
X004638Y019532D01*
X005416Y019374D02*
X006006Y019374D01*
X006155Y019532D02*
X005522Y019532D01*
X005470Y018423D02*
X004886Y018423D01*
X006297Y018106D02*
X007140Y018106D01*
X007080Y017947D02*
X006275Y017947D01*
X006187Y017789D02*
X006993Y017789D01*
X007480Y017880D02*
X005730Y016130D01*
X005730Y015230D01*
X006001Y014936D02*
X007462Y014936D01*
X007551Y015094D02*
X006107Y015094D01*
X006130Y015253D02*
X007551Y015253D01*
X007533Y015411D02*
X006088Y015411D01*
X006010Y015570D02*
X007443Y015570D01*
X007430Y015728D02*
X006010Y015728D01*
X006010Y015887D02*
X007483Y015887D01*
X007550Y016045D02*
X006041Y016045D01*
X006200Y016204D02*
X007550Y016204D01*
X007487Y016362D02*
X006358Y016362D01*
X006517Y016521D02*
X007430Y016521D01*
X007438Y016679D02*
X006675Y016679D01*
X006834Y016838D02*
X007522Y016838D01*
X007830Y016580D02*
X007830Y015680D01*
X007831Y015329D01*
X007831Y014781D01*
X009690Y014936D02*
X012380Y014936D01*
X012380Y014777D02*
X011624Y014777D01*
X011754Y014619D02*
X012380Y014619D01*
X012380Y014460D02*
X012105Y014460D01*
X012291Y014302D02*
X012380Y014302D01*
X012380Y014143D02*
X012348Y014143D01*
X012379Y013985D02*
X012380Y013985D01*
X011814Y013192D02*
X011245Y013192D01*
X011298Y013034D02*
X011880Y013034D01*
X011880Y012875D02*
X011289Y012875D01*
X011208Y012717D02*
X011880Y012717D01*
X011656Y013351D02*
X011078Y013351D01*
X011339Y013668D02*
X010396Y013668D01*
X010238Y013826D02*
X011180Y013826D01*
X011130Y013985D02*
X010079Y013985D01*
X009921Y014143D02*
X011076Y014143D01*
X010981Y014302D02*
X009762Y014302D01*
X009722Y014460D02*
X010962Y014460D01*
X011006Y014619D02*
X009780Y014619D01*
X009773Y014777D02*
X011136Y014777D01*
X011497Y013509D02*
X010555Y013509D01*
X010017Y012558D02*
X006612Y012558D01*
X006515Y012400D02*
X009898Y012400D01*
X010662Y012400D02*
X010808Y012400D01*
X010723Y012241D02*
X010698Y012241D01*
X010712Y012083D02*
X010671Y012083D01*
X010570Y011924D02*
X010565Y011924D01*
X010412Y011766D02*
X010169Y011766D01*
X010253Y011607D02*
X010011Y011607D01*
X010095Y011449D02*
X009852Y011449D01*
X009936Y011290D02*
X009694Y011290D01*
X009819Y011132D02*
X009535Y011132D01*
X009377Y010973D02*
X009810Y010973D01*
X009810Y010815D02*
X009218Y010815D01*
X009060Y010656D02*
X009742Y010656D01*
X009654Y010498D02*
X008901Y010498D01*
X008743Y010339D02*
X009640Y010339D01*
X009688Y010181D02*
X008531Y010181D01*
X011715Y010656D02*
X011880Y010656D01*
X011880Y010498D02*
X011803Y010498D01*
X011817Y010339D02*
X011830Y010339D01*
X011830Y010181D02*
X011769Y010181D01*
X012330Y009388D02*
X012468Y009388D01*
X012330Y009230D02*
X012627Y009230D01*
X012785Y009071D02*
X012330Y009071D01*
X012330Y008913D02*
X016806Y008913D01*
X017496Y009388D02*
X019983Y009388D01*
X019960Y009547D02*
X019531Y009547D01*
X019730Y009705D02*
X020051Y009705D01*
X020143Y009864D02*
X019799Y009864D01*
X019807Y010022D02*
X020234Y010022D01*
X020603Y010656D02*
X019681Y010656D01*
X019778Y010815D02*
X020716Y010815D01*
X021364Y010815D02*
X023520Y010815D01*
X023520Y010973D02*
X019807Y010973D01*
X019784Y011132D02*
X023520Y011132D01*
X023520Y011290D02*
X021304Y011290D01*
X021740Y011449D02*
X023520Y011449D01*
X023520Y011607D02*
X021861Y011607D01*
X021898Y011766D02*
X023520Y011766D01*
X023520Y011924D02*
X021873Y011924D01*
X021769Y012083D02*
X023520Y012083D01*
X023520Y012241D02*
X019739Y012241D01*
X019804Y012083D02*
X021191Y012083D01*
X021087Y011924D02*
X019807Y011924D01*
X019565Y012400D02*
X023493Y012400D01*
X023334Y012558D02*
X019812Y012558D01*
X019970Y012717D02*
X023176Y012717D01*
X023017Y012875D02*
X020129Y012875D01*
X020261Y013034D02*
X022859Y013034D01*
X022700Y013192D02*
X020280Y013192D01*
X020280Y013351D02*
X022542Y013351D01*
X022383Y013509D02*
X020280Y013509D01*
X020280Y013668D02*
X022245Y013668D01*
X022220Y013826D02*
X020280Y013826D01*
X020280Y013985D02*
X022220Y013985D01*
X022220Y014143D02*
X020280Y014143D01*
X020280Y014302D02*
X022220Y014302D01*
X022220Y014460D02*
X020280Y014460D01*
X020280Y014619D02*
X022220Y014619D01*
X022220Y014777D02*
X020280Y014777D01*
X020280Y014936D02*
X022268Y014936D01*
X022426Y015094D02*
X020348Y015094D01*
X020506Y015253D02*
X022585Y015253D01*
X022743Y015411D02*
X020882Y015411D01*
X021045Y015570D02*
X022902Y015570D01*
X023060Y015728D02*
X021098Y015728D01*
X021088Y015887D02*
X023219Y015887D01*
X023377Y016045D02*
X021006Y016045D01*
X020766Y016362D02*
X023520Y016362D01*
X023520Y016204D02*
X020607Y016204D01*
X020924Y016521D02*
X023520Y016521D01*
X023520Y016679D02*
X021083Y016679D01*
X021241Y016838D02*
X023520Y016838D01*
X023520Y016996D02*
X021400Y016996D01*
X021558Y017155D02*
X023520Y017155D01*
X023520Y017313D02*
X021717Y017313D01*
X021875Y017472D02*
X023520Y017472D01*
X023520Y017630D02*
X022034Y017630D01*
X022080Y017789D02*
X023520Y017789D01*
X023520Y017947D02*
X022080Y017947D01*
X022080Y018106D02*
X023520Y018106D01*
X023520Y018264D02*
X022080Y018264D01*
X022568Y018423D02*
X023520Y018423D01*
X023520Y018581D02*
X022728Y018581D01*
X022794Y018740D02*
X022794Y018930D01*
X022742Y019057D02*
X023520Y019057D01*
X023520Y019215D02*
X022613Y019215D01*
X022204Y019374D02*
X023520Y019374D01*
X023520Y020008D02*
X022192Y020008D01*
X022100Y020166D02*
X023520Y020166D01*
X023520Y020325D02*
X021430Y020325D01*
X021420Y020483D02*
X023457Y020483D01*
X023295Y020642D02*
X021334Y020642D01*
X021374Y020166D02*
X021667Y020166D01*
X021392Y020008D02*
X021280Y020008D01*
X021280Y019532D02*
X021363Y019532D01*
X021280Y019374D02*
X021455Y019374D01*
X021399Y019215D02*
X021546Y019215D01*
X021557Y019057D02*
X021892Y019057D01*
X021930Y019215D02*
X022021Y019215D01*
X021840Y018898D02*
X021716Y018898D01*
X021167Y018740D02*
X020989Y018740D01*
X020942Y018581D02*
X020855Y018581D01*
X020667Y018423D02*
X018910Y018423D01*
X018910Y018581D02*
X020278Y018581D01*
X020144Y018740D02*
X018910Y018740D01*
X018910Y018898D02*
X020089Y018898D01*
X020089Y019057D02*
X018910Y019057D01*
X018961Y019215D02*
X020152Y019215D01*
X020298Y019374D02*
X019120Y019374D01*
X019278Y019532D02*
X020780Y019532D01*
X020780Y019691D02*
X019437Y019691D01*
X019595Y019849D02*
X020780Y019849D01*
X020780Y020008D02*
X019754Y020008D01*
X020082Y020166D02*
X020686Y020166D01*
X020630Y020325D02*
X020169Y020325D01*
X020180Y020483D02*
X020640Y020483D01*
X020726Y020642D02*
X020125Y020642D01*
X019932Y020800D02*
X023134Y020800D01*
X022973Y020959D02*
X017580Y020959D01*
X017580Y020800D02*
X019628Y020800D01*
X019435Y020642D02*
X017580Y020642D01*
X017581Y020483D02*
X019380Y020483D01*
X019279Y020325D02*
X017739Y020325D01*
X017898Y020166D02*
X019120Y020166D01*
X018962Y020008D02*
X018056Y020008D01*
X018215Y019849D02*
X018803Y019849D01*
X018645Y019691D02*
X018373Y019691D01*
X018630Y019280D02*
X018630Y016730D01*
X018980Y016380D01*
X019355Y016521D02*
X020217Y016521D01*
X020375Y016679D02*
X019247Y016679D01*
X019380Y016362D02*
X020058Y016362D01*
X019900Y016204D02*
X019340Y016204D01*
X019211Y016045D02*
X019741Y016045D01*
X019583Y015887D02*
X018877Y015887D01*
X018880Y015728D02*
X019103Y015728D01*
X018962Y015570D02*
X018880Y015570D01*
X018880Y015411D02*
X018903Y015411D01*
X018903Y015253D02*
X018880Y015253D01*
X018880Y015094D02*
X018961Y015094D01*
X018880Y014936D02*
X019099Y014936D01*
X019211Y014777D02*
X018880Y014777D01*
X018880Y014619D02*
X018993Y014619D01*
X018917Y014460D02*
X018880Y014460D01*
X018880Y014302D02*
X018903Y014302D01*
X018941Y014143D02*
X018844Y014143D01*
X018688Y013985D02*
X019050Y013985D01*
X018530Y013826D02*
X019780Y013826D01*
X019780Y013668D02*
X018371Y013668D01*
X018213Y013509D02*
X019780Y013509D01*
X019780Y013351D02*
X018054Y013351D01*
X017896Y013192D02*
X019738Y013192D01*
X019580Y013034D02*
X017737Y013034D01*
X017721Y012875D02*
X017579Y012875D01*
X017563Y012717D02*
X017420Y012717D01*
X017795Y012241D02*
X018921Y012241D01*
X018856Y012083D02*
X015724Y012083D01*
X015771Y012630D02*
X015771Y012630D01*
X015136Y012083D02*
X014530Y012083D01*
X014530Y012241D02*
X015035Y012241D01*
X015012Y012400D02*
X014530Y012400D01*
X014530Y012558D02*
X014561Y012558D01*
X014530Y011924D02*
X016439Y011924D01*
X016225Y011766D02*
X014530Y011766D01*
X014530Y011607D02*
X016162Y011607D01*
X016162Y011449D02*
X014530Y011449D01*
X014530Y011290D02*
X016229Y011290D01*
X016449Y011132D02*
X014530Y011132D01*
X014628Y010973D02*
X017519Y010973D01*
X017361Y010815D02*
X014698Y010815D01*
X014698Y010656D02*
X016990Y010656D01*
X016896Y010498D02*
X014636Y010498D01*
X014429Y010339D02*
X016880Y010339D01*
X016922Y009547D02*
X013017Y009547D01*
X012996Y009705D02*
X017853Y009705D01*
X017926Y009547D02*
X017338Y009547D01*
X017548Y009230D02*
X020222Y009230D01*
X019129Y009547D02*
X018734Y009547D01*
X018807Y009705D02*
X018930Y009705D01*
X018861Y009864D02*
X018807Y009864D01*
X018807Y010022D02*
X018853Y010022D01*
X018896Y010181D02*
X018807Y010181D01*
X018807Y010339D02*
X019014Y010339D01*
X018979Y010656D02*
X018681Y010656D01*
X018778Y010815D02*
X018882Y010815D01*
X018853Y010973D02*
X018807Y010973D01*
X018784Y011132D02*
X018876Y011132D01*
X018853Y011924D02*
X016721Y011924D01*
X016711Y011132D02*
X017678Y011132D01*
X017910Y010656D02*
X017979Y010656D01*
X017953Y012400D02*
X019095Y012400D01*
X019710Y013985D02*
X019780Y013985D01*
X019767Y014619D02*
X019780Y014619D01*
X019780Y014777D02*
X019549Y014777D01*
X019661Y014936D02*
X019780Y014936D01*
X018130Y015094D02*
X017657Y015094D01*
X017680Y015253D02*
X018130Y015253D01*
X018130Y015411D02*
X017638Y015411D01*
X017506Y015570D02*
X018130Y015570D01*
X017570Y014936D02*
X017551Y014936D01*
X017489Y014143D02*
X016183Y014143D01*
X016030Y013509D02*
X017155Y013509D01*
X015730Y013509D02*
X014492Y013509D01*
X010512Y016838D02*
X008138Y016838D01*
X007796Y017630D02*
X008980Y017630D01*
X009013Y017472D02*
X007468Y017472D01*
X007309Y017313D02*
X009131Y017313D01*
X009629Y017313D02*
X010352Y017313D01*
X010330Y017155D02*
X007151Y017155D01*
X006992Y016996D02*
X010373Y016996D01*
X008868Y017789D02*
X007875Y017789D01*
X007880Y017947D02*
X008709Y017947D01*
X008551Y018106D02*
X007820Y018106D01*
X010505Y020483D02*
X011037Y020483D01*
X011196Y020642D02*
X010507Y020642D01*
X010510Y020800D02*
X011354Y020800D01*
X011230Y020280D02*
X010930Y019980D01*
X011907Y023970D02*
X012065Y023970D01*
X011976Y024129D02*
X011907Y024129D01*
X011907Y024287D02*
X011953Y024287D01*
X011963Y024446D02*
X011982Y024446D01*
X012705Y026506D02*
X014121Y026506D01*
X015907Y022544D02*
X016615Y022544D01*
X016462Y022385D02*
X015873Y022385D01*
X018630Y019280D02*
X019780Y020430D01*
X020496Y018264D02*
X018910Y018264D01*
X018910Y018106D02*
X020513Y018106D01*
X020604Y017947D02*
X018910Y017947D01*
X018910Y017789D02*
X020696Y017789D01*
X020787Y017630D02*
X018910Y017630D01*
X018910Y017472D02*
X021168Y017472D01*
X021204Y017630D02*
X021326Y017630D01*
X021479Y017789D02*
X021485Y017789D01*
X021009Y017313D02*
X018910Y017313D01*
X018910Y017155D02*
X020851Y017155D01*
X020692Y016996D02*
X018910Y016996D01*
X018918Y016838D02*
X020534Y016838D01*
X021477Y010656D02*
X023520Y010656D01*
X023520Y010498D02*
X021517Y010498D01*
X021505Y010339D02*
X023520Y010339D01*
X023520Y010181D02*
X022425Y010181D01*
X022700Y010022D02*
X023520Y010022D01*
X023520Y009388D02*
X022644Y009388D01*
X022552Y009230D02*
X023520Y009230D01*
X023520Y009071D02*
X022204Y009071D01*
X022162Y009230D02*
X022073Y009230D01*
X022257Y008913D02*
X023520Y008913D01*
X023520Y008754D02*
X022257Y008754D01*
X022193Y008596D02*
X023520Y008596D01*
X023520Y008437D02*
X022038Y008437D01*
X021907Y010022D02*
X021223Y010022D01*
X021433Y010181D02*
X021999Y010181D01*
X018119Y006060D02*
X016541Y006060D01*
X016734Y005901D02*
X017926Y005901D01*
X017860Y005743D02*
X016800Y005743D01*
X016807Y005584D02*
X017853Y005584D01*
X017898Y005426D02*
X016762Y005426D01*
X016642Y005267D02*
X018018Y005267D01*
X013740Y006218D02*
X013330Y006218D01*
X013407Y006060D02*
X013534Y006060D01*
X013463Y005901D02*
X013407Y005901D01*
X013407Y005743D02*
X013453Y005743D01*
X013494Y005584D02*
X013407Y005584D01*
X013407Y005426D02*
X013609Y005426D01*
X013453Y004633D02*
X013252Y004633D01*
X013366Y004475D02*
X013453Y004475D01*
X013453Y004316D02*
X013407Y004316D01*
X013396Y004158D02*
X013453Y004158D01*
X013453Y003999D02*
X013324Y003999D01*
X013117Y003841D02*
X013532Y003841D01*
D19*
X013480Y006680D03*
X017280Y010380D03*
X015030Y011030D03*
X013380Y012330D03*
X014680Y013980D03*
X015880Y013880D03*
X017280Y015230D03*
X017880Y014680D03*
X018980Y016380D03*
X020030Y017280D03*
X019780Y020430D03*
X019780Y021530D03*
X021030Y020380D03*
X018080Y020830D03*
X015880Y020480D03*
X015730Y018030D03*
X016080Y016380D03*
X015730Y015930D03*
X014730Y016380D03*
X012880Y017380D03*
X011880Y017230D03*
X010730Y017180D03*
X009380Y017630D03*
X007830Y016580D03*
X007830Y015680D03*
X007831Y014781D03*
X007430Y014230D03*
X006230Y012680D03*
X007405Y012505D03*
X009380Y014680D03*
X007480Y017880D03*
X005730Y015230D03*
X004580Y016980D03*
X020930Y013930D03*
M02*
