%
M48
M72
T01C0.0200
T02C0.0236
T03C0.0315
T04C0.0350
T05C0.0354
T06C0.0400
T07C0.0433
T08C0.0550
T09C0.0800
%
T01
X23275Y6724
X21800Y7974
X19875Y9687
X18838Y11662
X17400Y12287
X16713Y12287
X17150Y14287
X17963Y14349
X18525Y14349
X17338Y15162
X16775Y16037
X15463Y16849
X14588Y17412
X14275Y17974
X15463Y19099
X16650Y18787
X14025Y21849
X12838Y21787
X11713Y20099
X12025Y19474
X11525Y19099
X12400Y18287
X12838Y17912
X12838Y16787
X13900Y14974
X14400Y13412
X12650Y13537
X8963Y11349
X14650Y9099
X15900Y8724
X15938Y7974
X17175Y8024
X16125Y9962
X14650Y7349
X14838Y6724
X15213Y6224
X11900Y3974
X20275Y2224
X21088Y12662
X21525Y12224
X23150Y14412
X23150Y15412
X22775Y16537
X24338Y15599
X25838Y16799
X24588Y18099
X21088Y15474
X20963Y18599
X16463Y23099
X14775Y24787
X14025Y24287
X12775Y24224
X11088Y26662
X8213Y26537
X5588Y25912
X15900Y26662
X31900Y8849
T02
X6650Y4224
X6650Y5224
X6650Y6224
X6650Y7224
X6650Y8224
X6650Y9224
X6650Y10224
X6650Y11224
X6650Y12224
X6650Y13224
X6650Y14224
X6650Y15224
X6650Y16224
X6650Y17224
X6650Y18224
X6650Y19224
T03
X29867Y3945
X30833Y4204
X33349Y5318
X34056Y6025
X35171Y8541
X35429Y9507
X35429Y12441
X35171Y13407
X34056Y15923
X33349Y16630
X30783Y17745
X29817Y18004
X1450Y4224
X2450Y4224
X3450Y4224
X4450Y4224
X4450Y5224
X3450Y5224
X2450Y5224
X1450Y5224
X1450Y6224
X2450Y6224
X3450Y6224
X4450Y6224
X4450Y7224
X3450Y7224
X2450Y7224
X1450Y7224
X1450Y8224
X2450Y8224
X3450Y8224
X4450Y8224
X4450Y9224
X3450Y9224
X2450Y9224
X1450Y9224
X1450Y10224
X2450Y10224
X3450Y10224
X4450Y10224
X4450Y11224
X3450Y11224
X2450Y11224
X1450Y11224
X1450Y12224
X2450Y12224
X3450Y12224
X4450Y12224
X4450Y13224
X3450Y13224
X2450Y13224
X1450Y13224
X1450Y14224
X2450Y14224
X3450Y14224
X4450Y14224
X4450Y15224
X3450Y15224
X2450Y15224
X1450Y15224
X1450Y16224
X2450Y16224
X3450Y16224
X4450Y16224
X4450Y17224
X3450Y17224
X2450Y17224
X1450Y17224
X1450Y18224
X2450Y18224
X3450Y18224
X4450Y18224
X4450Y19224
X3450Y19224
X2450Y19224
X1450Y19224
X2450Y20224
X3450Y20224
X4450Y20224
X4375Y23712
X4375Y25712
X13213Y21037
X14213Y21037
X15213Y21037
X15213Y20037
X14213Y20037
X13213Y20037
X13400Y7599
X12400Y7599
X11400Y7599
X10725Y5699
X10725Y4699
X10725Y3699
X10725Y2699
X14350Y2724
X14350Y3724
X14350Y4724
X14350Y5724
X30025Y11974
X30025Y10974
X30025Y9974
T04
X25688Y21749
X25688Y22749
X25688Y23749
X22688Y26749
X21688Y26749
X20688Y26749
T05
X20438Y17749
X20438Y19749
X22938Y19749
X22938Y17749
X25700Y14608
X25700Y12640
T06
X7783Y23609
X7783Y25389
X10343Y25389
X10343Y23609
T07
X3525Y2724
X17650Y2599
T08
X18688Y20124
X24688Y20124
X24688Y25374
X18688Y25374
T09
X26150Y2474
X29900Y6974
X1650Y2474
X29900Y14974
X34900Y10974
X26150Y26974
X1650Y26974
M30
