G75*
%MOIN*%
%OFA0B0*%
%FSLAX24Y24*%
%IPPOS*%
%LPD*%
%AMOC8*
5,1,8,0,0,1.08239X$1,22.5*
%
%ADD10C,0.0030*%
%ADD11C,0.0060*%
%ADD12C,0.0040*%
%ADD13C,0.0050*%
%ADD14C,0.0080*%
%ADD15C,0.0020*%
D10*
X007145Y004026D02*
X007268Y004088D01*
X007392Y004211D01*
X007207Y004211D01*
X007145Y004273D01*
X007145Y004335D01*
X007207Y004397D01*
X007330Y004397D01*
X007392Y004335D01*
X007392Y004211D01*
X007513Y004397D02*
X007760Y004397D01*
X007637Y004397D02*
X007637Y004026D01*
X007760Y004150D01*
X009983Y001885D02*
X010045Y001823D01*
X010168Y001823D01*
X010230Y001761D01*
X010168Y001700D01*
X009983Y001700D01*
X009983Y001885D02*
X010045Y001947D01*
X010230Y001947D01*
X010351Y001885D02*
X010351Y001638D01*
X010413Y001576D01*
X010598Y001576D01*
X010598Y001947D01*
X010413Y001947D01*
X010351Y001885D01*
X010720Y001947D02*
X010967Y001947D01*
X010967Y001576D01*
X010720Y001576D01*
X010843Y001761D02*
X010967Y001761D01*
X011088Y001947D02*
X011335Y001947D01*
X011335Y001576D01*
X013899Y001676D02*
X013961Y001614D01*
X014084Y001614D01*
X014146Y001676D01*
X014146Y001922D01*
X014084Y001984D01*
X013961Y001984D01*
X013899Y001922D01*
X014268Y001984D02*
X014514Y001984D01*
X014268Y001737D01*
X014268Y001676D01*
X014329Y001614D01*
X014453Y001614D01*
X014514Y001676D01*
X014637Y001614D02*
X014760Y001614D01*
X014698Y001614D02*
X014698Y001984D01*
X014637Y001984D02*
X014760Y001984D01*
X010560Y007376D02*
X010560Y007685D01*
X010498Y007747D01*
X010375Y007747D01*
X010313Y007685D01*
X010313Y007376D01*
X010192Y007500D02*
X010192Y007747D01*
X010192Y007561D02*
X009945Y007561D01*
X009945Y007500D02*
X009945Y007747D01*
X009823Y007747D02*
X009823Y007376D01*
X009638Y007376D01*
X009576Y007438D01*
X009576Y007561D01*
X009638Y007623D01*
X009823Y007623D01*
X009700Y007623D02*
X009576Y007747D01*
X009332Y007747D02*
X009332Y007376D01*
X009455Y007376D02*
X009208Y007376D01*
X009945Y007500D02*
X010068Y007376D01*
X010192Y007500D01*
X009847Y008889D02*
X009909Y008951D01*
X009909Y009197D01*
X009847Y009259D01*
X009724Y009259D01*
X009662Y009197D01*
X009541Y009259D02*
X009417Y009259D01*
X009479Y009259D02*
X009479Y008889D01*
X009541Y008889D01*
X009662Y008951D02*
X009724Y008889D01*
X009847Y008889D01*
X009295Y009012D02*
X009295Y009197D01*
X009233Y009259D01*
X009048Y009259D01*
X009048Y009012D01*
X008927Y009012D02*
X008742Y009012D01*
X008680Y009074D01*
X008680Y009197D01*
X008742Y009259D01*
X008927Y009259D01*
X008927Y008889D01*
X010275Y009861D02*
X010337Y009800D01*
X010460Y009800D01*
X010522Y009861D01*
X010522Y009985D01*
X010460Y010047D01*
X010337Y010047D01*
X010275Y009985D01*
X010275Y009861D01*
X010644Y010047D02*
X010767Y010047D01*
X010706Y010047D02*
X010706Y009800D01*
X010767Y009800D01*
X010706Y009676D02*
X010706Y009615D01*
X010951Y009676D02*
X010951Y010047D01*
X010890Y010047D02*
X011013Y010047D01*
X011134Y009923D02*
X011381Y009923D01*
X011381Y009861D02*
X011320Y009800D01*
X011196Y009800D01*
X011134Y009861D01*
X011134Y009923D01*
X011196Y010047D02*
X011320Y010047D01*
X011381Y009985D01*
X011381Y009861D01*
X011503Y009861D02*
X011503Y010047D01*
X011626Y010047D02*
X011626Y009861D01*
X011564Y009800D01*
X011503Y009861D01*
X011626Y009861D02*
X011688Y009800D01*
X011750Y009800D01*
X011750Y010047D01*
X011871Y010047D02*
X011871Y009800D01*
X011995Y009676D01*
X012118Y009800D01*
X012118Y010047D01*
X012118Y009861D02*
X011871Y009861D01*
X012240Y009738D02*
X012302Y009800D01*
X012240Y009738D02*
X012240Y009615D01*
X012424Y009738D02*
X012424Y009985D01*
X012485Y010047D01*
X012670Y010047D01*
X012670Y009676D01*
X012485Y009676D01*
X012424Y009738D01*
X012425Y009259D02*
X012363Y009197D01*
X012363Y009074D01*
X012425Y009012D01*
X012548Y009012D01*
X012610Y009074D01*
X012610Y009197D01*
X012548Y009259D01*
X012425Y009259D01*
X012242Y009259D02*
X012242Y008889D01*
X012242Y009012D02*
X012056Y009012D01*
X011995Y009074D01*
X011995Y009197D01*
X012056Y009259D01*
X012242Y009259D01*
X011873Y009197D02*
X011812Y009259D01*
X011688Y009259D01*
X011626Y009197D01*
X011626Y009074D01*
X011688Y009012D01*
X011812Y009012D01*
X011873Y009074D01*
X011873Y009197D01*
X011505Y009012D02*
X011382Y009012D01*
X011443Y008951D02*
X011443Y009197D01*
X011382Y009259D01*
X011259Y009259D02*
X011136Y009259D01*
X011198Y009259D02*
X011198Y009012D01*
X011259Y009012D01*
X011198Y008889D02*
X011198Y008827D01*
X010952Y009012D02*
X011014Y009074D01*
X011014Y009197D01*
X010952Y009259D01*
X010767Y009259D01*
X010646Y009259D02*
X010460Y009259D01*
X010399Y009197D01*
X010460Y009136D01*
X010584Y009136D01*
X010646Y009074D01*
X010584Y009012D01*
X010399Y009012D01*
X010767Y009012D02*
X010952Y009012D01*
X010951Y009676D02*
X011013Y009676D01*
X011712Y008647D02*
X011836Y008647D01*
X011774Y008647D02*
X011774Y008276D01*
X011836Y008276D02*
X011712Y008276D01*
X011957Y008276D02*
X012204Y008647D01*
X012326Y008647D02*
X012449Y008523D01*
X012387Y008523D02*
X012573Y008523D01*
X012573Y008647D02*
X012573Y008276D01*
X012387Y008276D01*
X012326Y008338D01*
X012326Y008461D01*
X012387Y008523D01*
X012204Y008276D02*
X011957Y008647D01*
X012731Y008951D02*
X012793Y008889D01*
X012978Y008889D01*
X012978Y009259D01*
X012978Y009136D02*
X012793Y009136D01*
X012731Y009074D01*
X012731Y008951D01*
X012855Y009136D02*
X012731Y009259D01*
X013468Y009259D02*
X013653Y009259D01*
X013715Y009197D01*
X013715Y009012D01*
X013899Y008889D02*
X013899Y009259D01*
X013960Y009259D02*
X013837Y009259D01*
X014082Y009197D02*
X014082Y009074D01*
X014144Y009012D01*
X014267Y009012D01*
X014329Y009074D01*
X014329Y009197D01*
X014267Y009259D01*
X014144Y009259D01*
X014082Y009197D01*
X013960Y008889D02*
X013899Y008889D01*
X013949Y008647D02*
X013949Y008276D01*
X013826Y008276D02*
X014073Y008276D01*
X013704Y008276D02*
X013457Y008647D01*
X013336Y008585D02*
X013274Y008647D01*
X013151Y008647D01*
X013089Y008585D01*
X013089Y008338D01*
X013151Y008276D01*
X013274Y008276D01*
X013336Y008338D01*
X013336Y008585D01*
X013457Y008276D02*
X013704Y008647D01*
X013468Y009012D02*
X013468Y009321D01*
X013530Y009383D01*
X013591Y009383D01*
X013590Y009800D02*
X013528Y009861D01*
X013528Y009923D01*
X013775Y009923D01*
X013775Y009861D02*
X013714Y009800D01*
X013590Y009800D01*
X013407Y009800D02*
X013407Y009985D01*
X013345Y010047D01*
X013160Y010047D01*
X013160Y010108D02*
X013222Y010170D01*
X013284Y010170D01*
X013160Y010108D02*
X013160Y009800D01*
X013590Y010047D02*
X013714Y010047D01*
X013775Y009985D01*
X013775Y009861D01*
X013897Y009800D02*
X013959Y009800D01*
X014082Y009923D01*
X014082Y009800D02*
X014082Y010047D01*
X014266Y010047D02*
X014266Y009738D01*
X014204Y009676D01*
X014204Y009861D02*
X014328Y009861D01*
X014450Y009861D02*
X014573Y009861D01*
X014695Y009861D02*
X014695Y009923D01*
X014942Y009923D01*
X014942Y009861D02*
X014880Y009800D01*
X014757Y009800D01*
X014695Y009861D01*
X014757Y010047D02*
X014880Y010047D01*
X014942Y009985D01*
X014942Y009861D01*
X015063Y009676D02*
X015187Y009676D01*
X015125Y009676D02*
X015125Y009985D01*
X015187Y010047D01*
X015248Y010047D01*
X015310Y009985D01*
X015086Y010476D02*
X014962Y010476D01*
X014901Y010538D01*
X014901Y010600D01*
X014962Y010661D01*
X014901Y010723D01*
X014901Y010785D01*
X014962Y010847D01*
X015086Y010847D01*
X015148Y010785D01*
X015024Y010661D02*
X014962Y010661D01*
X015148Y010538D02*
X015086Y010476D01*
X014779Y010847D02*
X014532Y010476D01*
X014411Y010600D02*
X014287Y010476D01*
X014287Y010847D01*
X014164Y010847D02*
X014411Y010847D01*
X014043Y010785D02*
X013981Y010847D01*
X013857Y010847D01*
X013796Y010785D01*
X013796Y010538D01*
X013857Y010476D01*
X013981Y010476D01*
X014043Y010538D01*
X014043Y010600D01*
X013981Y010661D01*
X013796Y010661D01*
X013674Y010847D02*
X013427Y010476D01*
X013306Y010600D02*
X013182Y010476D01*
X013182Y010847D01*
X013059Y010847D02*
X013306Y010847D01*
X012938Y010661D02*
X012752Y010476D01*
X012752Y010847D01*
X012691Y010661D02*
X012938Y010661D01*
X014512Y010047D02*
X014512Y009738D01*
X014450Y009676D01*
X014697Y009259D02*
X014697Y008889D01*
X014512Y008889D01*
X014450Y008951D01*
X014450Y009074D01*
X014512Y009136D01*
X014697Y009136D01*
X015187Y009259D02*
X015311Y009259D01*
X015249Y009259D02*
X015249Y008889D01*
X015311Y008889D01*
X015494Y009012D02*
X015432Y009074D01*
X015432Y009259D01*
X015617Y009259D01*
X015679Y009197D01*
X015617Y009136D01*
X015432Y009136D01*
X015494Y009012D02*
X015617Y009012D01*
X015801Y008951D02*
X015862Y008889D01*
X015986Y008889D01*
X016048Y008951D01*
X016048Y009197D01*
X015986Y009259D01*
X015862Y009259D01*
X015801Y009197D01*
X014635Y019106D02*
X014635Y019397D01*
X014635Y019300D02*
X014442Y019106D01*
X014340Y019106D02*
X014340Y019397D01*
X014147Y019397D01*
X014244Y019252D02*
X014340Y019252D01*
X014340Y019106D02*
X014147Y019106D01*
X014046Y019106D02*
X014046Y019155D01*
X013949Y019252D01*
X013949Y019397D01*
X013949Y019252D02*
X013852Y019155D01*
X013852Y019106D01*
X014442Y019397D02*
X014587Y019252D01*
X007385Y019150D02*
X007262Y019026D01*
X007262Y019397D01*
X007385Y019397D02*
X007138Y019397D01*
X004573Y020964D02*
X004449Y020964D01*
X004511Y020964D02*
X004511Y021334D01*
X004573Y021334D02*
X004449Y021334D01*
X004327Y021334D02*
X004327Y020964D01*
X004142Y020964D01*
X004080Y021026D01*
X004080Y021149D01*
X004142Y021211D01*
X004327Y021211D01*
X004204Y021211D02*
X004080Y021334D01*
X003835Y021334D02*
X003835Y020964D01*
X003712Y020964D02*
X003959Y020964D01*
X003590Y020964D02*
X003343Y021334D01*
X003590Y021334D02*
X003343Y020964D01*
D11*
X007763Y024199D02*
X007763Y024799D01*
X007863Y024799D01*
X007863Y024899D01*
X007863Y024199D02*
X007863Y024099D01*
X007863Y024199D02*
X007763Y024199D01*
X008213Y023299D02*
X008563Y023299D01*
X009563Y023299D01*
X009913Y023299D01*
X010263Y024099D02*
X010263Y024199D01*
X010363Y024199D01*
X010363Y024799D01*
X010263Y024799D01*
X010263Y024899D01*
X009913Y025699D02*
X009563Y025699D01*
X008613Y025699D01*
X008213Y025699D01*
X008963Y024499D02*
X008965Y024519D01*
X008971Y024537D01*
X008980Y024555D01*
X008992Y024570D01*
X009007Y024582D01*
X009025Y024591D01*
X009043Y024597D01*
X009063Y024599D01*
X009083Y024597D01*
X009101Y024591D01*
X009119Y024582D01*
X009134Y024570D01*
X009146Y024555D01*
X009155Y024537D01*
X009161Y024519D01*
X009163Y024499D01*
X009161Y024479D01*
X009155Y024461D01*
X009146Y024443D01*
X009134Y024428D01*
X009119Y024416D01*
X009101Y024407D01*
X009083Y024401D01*
X009063Y024399D01*
X009043Y024401D01*
X009025Y024407D01*
X009007Y024416D01*
X008992Y024428D01*
X008980Y024443D01*
X008971Y024461D01*
X008965Y024479D01*
X008963Y024499D01*
X008363Y024499D02*
X008365Y024551D01*
X008371Y024603D01*
X008381Y024655D01*
X008394Y024705D01*
X008411Y024755D01*
X008432Y024803D01*
X008457Y024849D01*
X008485Y024893D01*
X008516Y024935D01*
X008550Y024975D01*
X008587Y025012D01*
X008627Y025046D01*
X008669Y025077D01*
X008713Y025105D01*
X008759Y025130D01*
X008807Y025151D01*
X008857Y025168D01*
X008907Y025181D01*
X008959Y025191D01*
X009011Y025197D01*
X009063Y025199D01*
X009115Y025197D01*
X009167Y025191D01*
X009219Y025181D01*
X009269Y025168D01*
X009319Y025151D01*
X009367Y025130D01*
X009413Y025105D01*
X009457Y025077D01*
X009499Y025046D01*
X009539Y025012D01*
X009576Y024975D01*
X009610Y024935D01*
X009641Y024893D01*
X009669Y024849D01*
X009694Y024803D01*
X009715Y024755D01*
X009732Y024705D01*
X009745Y024655D01*
X009755Y024603D01*
X009761Y024551D01*
X009763Y024499D01*
X009761Y024447D01*
X009755Y024395D01*
X009745Y024343D01*
X009732Y024293D01*
X009715Y024243D01*
X009694Y024195D01*
X009669Y024149D01*
X009641Y024105D01*
X009610Y024063D01*
X009576Y024023D01*
X009539Y023986D01*
X009499Y023952D01*
X009457Y023921D01*
X009413Y023893D01*
X009367Y023868D01*
X009319Y023847D01*
X009269Y023830D01*
X009219Y023817D01*
X009167Y023807D01*
X009115Y023801D01*
X009063Y023799D01*
X009011Y023801D01*
X008959Y023807D01*
X008907Y023817D01*
X008857Y023830D01*
X008807Y023847D01*
X008759Y023868D01*
X008713Y023893D01*
X008669Y023921D01*
X008627Y023952D01*
X008587Y023986D01*
X008550Y024023D01*
X008516Y024063D01*
X008485Y024105D01*
X008457Y024149D01*
X008432Y024195D01*
X008411Y024243D01*
X008394Y024293D01*
X008381Y024343D01*
X008371Y024395D01*
X008365Y024447D01*
X008363Y024499D01*
X026800Y016531D02*
X026800Y016104D01*
X026899Y010988D02*
X026899Y010561D01*
X026685Y010774D02*
X027112Y010774D01*
D12*
X028970Y010974D02*
X029277Y010974D01*
X029123Y011128D02*
X029123Y010821D01*
X029023Y010091D02*
X029023Y009860D01*
X029100Y009784D01*
X029177Y009860D01*
X029177Y010014D01*
X029253Y010091D01*
X029330Y010014D01*
X029330Y009784D01*
X029100Y011784D02*
X029100Y012091D01*
D13*
X004950Y003724D02*
X000950Y003724D01*
X000950Y004724D01*
X004950Y004724D01*
X004950Y003724D01*
X005275Y003954D02*
X005275Y004494D01*
X006325Y004494D01*
X006325Y003954D01*
X005275Y003954D01*
X004950Y004724D02*
X000950Y004724D01*
X000950Y005724D01*
X004950Y005724D01*
X004950Y004724D01*
X005275Y004954D02*
X005275Y005494D01*
X006325Y005494D01*
X006325Y004954D01*
X005275Y004954D01*
X004950Y005724D02*
X000950Y005724D01*
X000950Y006724D01*
X004950Y006724D01*
X004950Y005724D01*
X005275Y005954D02*
X005275Y006494D01*
X006325Y006494D01*
X006325Y005954D01*
X005275Y005954D01*
X004950Y006724D02*
X000950Y006724D01*
X000950Y007724D01*
X004950Y007724D01*
X004950Y006724D01*
X005275Y006954D02*
X005275Y007494D01*
X006325Y007494D01*
X006325Y006954D01*
X005275Y006954D01*
X004950Y007724D02*
X000950Y007724D01*
X000950Y008724D01*
X004950Y008724D01*
X004950Y007724D01*
X005275Y007954D02*
X005275Y008494D01*
X006325Y008494D01*
X006325Y007954D01*
X005275Y007954D01*
X004950Y008724D02*
X000950Y008724D01*
X000950Y009724D01*
X004950Y009724D01*
X004950Y008724D01*
X005275Y008954D02*
X005275Y009494D01*
X006325Y009494D01*
X006325Y008954D01*
X005275Y008954D01*
X004950Y009724D02*
X000950Y009724D01*
X000950Y010724D01*
X004950Y010724D01*
X004950Y009724D01*
X005275Y009954D02*
X005275Y010494D01*
X006325Y010494D01*
X006325Y009954D01*
X005275Y009954D01*
X004950Y010724D02*
X000950Y010724D01*
X000950Y011724D01*
X004950Y011724D01*
X004950Y010724D01*
X005275Y010954D02*
X005275Y011494D01*
X006325Y011494D01*
X006325Y010954D01*
X005275Y010954D01*
X004950Y011724D02*
X000950Y011724D01*
X000950Y012724D01*
X004950Y012724D01*
X004950Y011724D01*
X005275Y011954D02*
X005275Y012494D01*
X006325Y012494D01*
X006325Y011954D01*
X005275Y011954D01*
X004950Y012724D02*
X000950Y012724D01*
X000950Y013724D01*
X004950Y013724D01*
X004950Y012724D01*
X005275Y012954D02*
X005275Y013494D01*
X006325Y013494D01*
X006325Y012954D01*
X005275Y012954D01*
X004950Y013724D02*
X000950Y013724D01*
X000950Y014724D01*
X004950Y014724D01*
X004950Y013724D01*
X005275Y013954D02*
X005275Y014494D01*
X006325Y014494D01*
X006325Y013954D01*
X005275Y013954D01*
X004950Y014724D02*
X000950Y014724D01*
X000950Y015724D01*
X004950Y015724D01*
X004950Y014724D01*
X005275Y014954D02*
X005275Y015494D01*
X006325Y015494D01*
X006325Y014954D01*
X005275Y014954D01*
X004950Y015724D02*
X000950Y015724D01*
X000950Y016724D01*
X004950Y016724D01*
X004950Y015724D01*
X005275Y015954D02*
X005275Y016494D01*
X006325Y016494D01*
X006325Y015954D01*
X005275Y015954D01*
X004950Y016724D02*
X000950Y016724D01*
X000950Y017724D01*
X004950Y017724D01*
X004950Y016724D01*
X005275Y016954D02*
X005275Y017494D01*
X006325Y017494D01*
X006325Y016954D01*
X005275Y016954D01*
X004950Y017724D02*
X000950Y017724D01*
X000950Y018724D01*
X004950Y018724D01*
X004950Y017724D01*
X005275Y017954D02*
X005275Y018494D01*
X006325Y018494D01*
X006325Y017954D01*
X005275Y017954D01*
X004950Y018724D02*
X000950Y018724D01*
X000950Y019724D01*
X004950Y019724D01*
X004950Y018724D01*
X005275Y018954D02*
X005275Y019494D01*
X006325Y019494D01*
X006325Y018954D01*
X005275Y018954D01*
X004950Y019724D02*
X004950Y020724D01*
X001950Y020724D01*
X001950Y019724D01*
X004950Y019724D01*
X005963Y020542D02*
X005963Y021082D01*
X007013Y021082D01*
X007013Y020542D01*
X005963Y020542D01*
X005988Y021292D02*
X005988Y021832D01*
X007038Y021832D01*
X007038Y021292D01*
X005988Y021292D01*
X005975Y022042D02*
X005975Y022582D01*
X007025Y022582D01*
X007025Y022042D01*
X005975Y022042D01*
X007009Y021930D02*
X007011Y021940D01*
X007016Y021949D01*
X007024Y021956D01*
X007034Y021960D01*
X007044Y021960D01*
X007054Y021956D01*
X007062Y021949D01*
X007067Y021940D01*
X007069Y021930D01*
X007067Y021920D01*
X007062Y021911D01*
X007054Y021904D01*
X007044Y021900D01*
X007034Y021900D01*
X007024Y021904D01*
X007016Y021911D01*
X007011Y021920D01*
X007009Y021930D01*
X007238Y022054D02*
X007238Y022594D01*
X008288Y022594D01*
X008288Y022054D01*
X007238Y022054D01*
X007263Y021844D02*
X007263Y021304D01*
X008313Y021304D01*
X008313Y021844D01*
X007263Y021844D01*
X007022Y021180D02*
X007024Y021190D01*
X007029Y021199D01*
X007037Y021206D01*
X007047Y021210D01*
X007057Y021210D01*
X007067Y021206D01*
X007075Y021199D01*
X007080Y021190D01*
X007082Y021180D01*
X007080Y021170D01*
X007075Y021161D01*
X007067Y021154D01*
X007057Y021150D01*
X007047Y021150D01*
X007037Y021154D01*
X007029Y021161D01*
X007024Y021170D01*
X007022Y021180D01*
X007213Y021094D02*
X007213Y020554D01*
X008263Y020554D01*
X008263Y021094D01*
X007213Y021094D01*
X006997Y020430D02*
X006999Y020440D01*
X007004Y020449D01*
X007012Y020456D01*
X007022Y020460D01*
X007032Y020460D01*
X007042Y020456D01*
X007050Y020449D01*
X007055Y020440D01*
X007057Y020430D01*
X007055Y020420D01*
X007050Y020411D01*
X007042Y020404D01*
X007032Y020400D01*
X007022Y020400D01*
X007012Y020404D01*
X007004Y020411D01*
X006999Y020420D01*
X006997Y020430D01*
X008500Y017807D02*
X009550Y017807D01*
X009550Y017267D01*
X008500Y017267D01*
X008500Y017807D01*
X008536Y016856D02*
X011489Y016856D01*
X008683Y016574D02*
X008685Y016600D01*
X008691Y016626D01*
X008700Y016650D01*
X008713Y016673D01*
X008729Y016694D01*
X008748Y016712D01*
X008769Y016728D01*
X008793Y016740D01*
X008817Y016748D01*
X008843Y016753D01*
X008870Y016754D01*
X008896Y016751D01*
X008921Y016744D01*
X008945Y016734D01*
X008968Y016720D01*
X008988Y016704D01*
X009005Y016684D01*
X009020Y016662D01*
X009031Y016638D01*
X009039Y016613D01*
X009043Y016587D01*
X009043Y016561D01*
X009039Y016535D01*
X009031Y016510D01*
X009020Y016486D01*
X009005Y016464D01*
X008988Y016444D01*
X008968Y016428D01*
X008945Y016414D01*
X008921Y016404D01*
X008896Y016397D01*
X008870Y016394D01*
X008843Y016395D01*
X008817Y016400D01*
X008793Y016408D01*
X008769Y016420D01*
X008748Y016436D01*
X008729Y016454D01*
X008713Y016475D01*
X008700Y016498D01*
X008691Y016522D01*
X008685Y016548D01*
X008683Y016574D01*
X012713Y019537D02*
X012713Y021537D01*
X015713Y021537D01*
X015713Y019537D01*
X015213Y019537D01*
X015213Y019037D01*
X013213Y019037D01*
X013213Y019537D01*
X012713Y019537D01*
X013213Y019537D02*
X015213Y019537D01*
X012483Y020824D02*
X011943Y020824D01*
X011943Y021874D01*
X012483Y021874D01*
X012483Y020824D01*
X015730Y024087D02*
X015730Y025137D01*
X016270Y025137D01*
X016270Y024087D01*
X015730Y024087D01*
X014980Y025699D02*
X014982Y025724D01*
X014988Y025748D01*
X014997Y025771D01*
X015010Y025792D01*
X015026Y025811D01*
X015045Y025827D01*
X015066Y025840D01*
X015089Y025849D01*
X015113Y025855D01*
X015138Y025857D01*
X015163Y025855D01*
X015187Y025849D01*
X015210Y025840D01*
X015231Y025827D01*
X015250Y025811D01*
X015266Y025792D01*
X015279Y025771D01*
X015288Y025748D01*
X015294Y025724D01*
X015296Y025699D01*
X015294Y025674D01*
X015288Y025650D01*
X015279Y025627D01*
X015266Y025606D01*
X015250Y025587D01*
X015231Y025571D01*
X015210Y025558D01*
X015187Y025549D01*
X015163Y025543D01*
X015138Y025541D01*
X015113Y025543D01*
X015089Y025549D01*
X015066Y025558D01*
X015045Y025571D01*
X015026Y025587D01*
X015010Y025606D01*
X014997Y025627D01*
X014988Y025650D01*
X014982Y025674D01*
X014980Y025699D01*
X014075Y027129D02*
X014075Y027669D01*
X013025Y027669D01*
X013025Y027129D01*
X014075Y027129D01*
X009613Y026794D02*
X009613Y026254D01*
X008563Y026254D01*
X008563Y026794D01*
X009613Y026794D01*
X007500Y026854D02*
X007500Y027394D01*
X006450Y027394D01*
X006450Y026854D01*
X007500Y026854D01*
X005867Y025368D02*
X005158Y025368D01*
X005158Y024975D01*
X005867Y024857D02*
X005867Y024542D01*
X005158Y024424D02*
X005158Y024030D01*
X005867Y024030D01*
X003808Y024224D02*
X003268Y024224D01*
X003268Y025274D01*
X003808Y025274D01*
X003808Y024224D01*
X002475Y024169D02*
X002475Y023629D01*
X001425Y023629D01*
X001425Y024169D01*
X002475Y024169D01*
X002475Y024379D02*
X002475Y024919D01*
X001425Y024919D01*
X001425Y024379D01*
X002475Y024379D01*
X002475Y025129D02*
X002475Y025669D01*
X001425Y025669D01*
X001425Y025129D01*
X002475Y025129D01*
X002475Y023419D02*
X001425Y023419D01*
X001425Y022879D01*
X002475Y022879D01*
X002475Y023419D01*
X002674Y022656D02*
X002674Y021892D01*
X001226Y021892D01*
X001226Y022656D01*
X002674Y022656D01*
X002674Y021656D02*
X001226Y021656D01*
X001226Y020892D01*
X002674Y020892D01*
X002674Y021656D01*
X013120Y014383D02*
X013120Y012415D01*
X014380Y012415D02*
X014380Y014383D01*
X014668Y014549D02*
X015208Y014549D01*
X015208Y013499D01*
X014668Y013499D01*
X014668Y014549D01*
X014655Y013274D02*
X015195Y013274D01*
X015195Y012224D01*
X014655Y012224D01*
X014655Y013274D01*
X016120Y010984D02*
X016120Y010670D01*
X016435Y010670D01*
X018275Y009249D02*
X019775Y009249D01*
X020780Y009249D02*
X020780Y008199D01*
X021320Y008199D01*
X021320Y009249D01*
X020780Y009249D01*
X022250Y009054D02*
X022250Y009594D01*
X023300Y009594D01*
X023300Y009054D01*
X022250Y009054D01*
X022593Y008624D02*
X023357Y008624D01*
X023357Y007175D01*
X022593Y007175D01*
X022593Y008624D01*
X022206Y009706D02*
X022208Y009716D01*
X022213Y009725D01*
X022221Y009732D01*
X022231Y009736D01*
X022241Y009736D01*
X022251Y009732D01*
X022259Y009725D01*
X022264Y009716D01*
X022266Y009706D01*
X022264Y009696D01*
X022259Y009687D01*
X022251Y009680D01*
X022241Y009676D01*
X022231Y009676D01*
X022221Y009680D01*
X022213Y009687D01*
X022208Y009696D01*
X022206Y009706D01*
X022225Y009929D02*
X022225Y010469D01*
X023275Y010469D01*
X023275Y009929D01*
X022225Y009929D01*
X022105Y010670D02*
X021790Y010670D01*
X022105Y010670D02*
X022105Y010984D01*
X022893Y011899D02*
X023433Y011899D01*
X023433Y012949D01*
X022893Y012949D01*
X022893Y011899D01*
X024425Y011182D02*
X024425Y010642D01*
X025475Y010642D01*
X025475Y011182D01*
X024425Y011182D01*
X024425Y010382D02*
X025475Y010382D01*
X025475Y009842D01*
X024425Y009842D01*
X024425Y010382D01*
X025459Y009730D02*
X025461Y009740D01*
X025466Y009749D01*
X025474Y009756D01*
X025484Y009760D01*
X025494Y009760D01*
X025504Y009756D01*
X025512Y009749D01*
X025517Y009740D01*
X025519Y009730D01*
X025517Y009720D01*
X025512Y009711D01*
X025504Y009704D01*
X025494Y009700D01*
X025484Y009700D01*
X025474Y009704D01*
X025466Y009711D01*
X025461Y009720D01*
X025459Y009730D01*
X023079Y006668D02*
X022371Y006668D01*
X022371Y006157D02*
X022371Y005842D01*
X022371Y005330D02*
X023079Y005330D01*
X023079Y005724D01*
X023079Y006275D02*
X023079Y006668D01*
X023676Y004856D02*
X025124Y004856D01*
X025124Y004092D01*
X023676Y004092D01*
X023676Y004856D01*
X022775Y004249D02*
X022775Y003249D01*
X023025Y003094D02*
X023025Y002554D01*
X024075Y002554D01*
X024075Y003094D01*
X023025Y003094D01*
X020939Y003474D02*
X020941Y003492D01*
X020947Y003510D01*
X020956Y003526D01*
X020968Y003539D01*
X020983Y003550D01*
X021000Y003558D01*
X021018Y003562D01*
X021036Y003562D01*
X021054Y003558D01*
X021071Y003550D01*
X021086Y003539D01*
X021098Y003526D01*
X021107Y003510D01*
X021113Y003492D01*
X021115Y003474D01*
X021113Y003456D01*
X021107Y003438D01*
X021098Y003422D01*
X021086Y003409D01*
X021071Y003398D01*
X021054Y003390D01*
X021036Y003386D01*
X021018Y003386D01*
X021000Y003390D01*
X020983Y003398D01*
X020968Y003409D01*
X020956Y003422D01*
X020947Y003438D01*
X020941Y003456D01*
X020939Y003474D01*
X020775Y003249D02*
X020775Y004249D01*
X020545Y003749D02*
X020005Y003749D01*
X020005Y004799D01*
X020545Y004799D01*
X020545Y003749D01*
X020545Y003574D02*
X020005Y003574D01*
X020005Y002524D01*
X020545Y002524D01*
X020545Y003574D01*
X019863Y003735D02*
X019865Y003745D01*
X019870Y003754D01*
X019878Y003761D01*
X019888Y003765D01*
X019898Y003765D01*
X019908Y003761D01*
X019916Y003754D01*
X019921Y003745D01*
X019923Y003735D01*
X019921Y003725D01*
X019916Y003716D01*
X019908Y003709D01*
X019898Y003705D01*
X019888Y003705D01*
X019878Y003709D01*
X019870Y003716D01*
X019865Y003725D01*
X019863Y003735D01*
X018900Y003874D02*
X016400Y003874D01*
X016400Y004374D02*
X018900Y004374D01*
X017150Y004624D02*
X017150Y006624D01*
X016400Y006874D02*
X018900Y006874D01*
X018275Y007249D02*
X019775Y007249D01*
X019449Y007501D02*
X019451Y007519D01*
X019457Y007537D01*
X019466Y007553D01*
X019478Y007566D01*
X019493Y007577D01*
X019510Y007585D01*
X019528Y007589D01*
X019546Y007589D01*
X019564Y007585D01*
X019581Y007577D01*
X019596Y007566D01*
X019608Y007553D01*
X019617Y007537D01*
X019623Y007519D01*
X019625Y007501D01*
X019623Y007483D01*
X019617Y007465D01*
X019608Y007449D01*
X019596Y007436D01*
X019581Y007425D01*
X019564Y007417D01*
X019546Y007413D01*
X019528Y007413D01*
X019510Y007417D01*
X019493Y007425D01*
X019478Y007436D01*
X019466Y007449D01*
X019457Y007465D01*
X019451Y007483D01*
X019449Y007501D01*
X016820Y007724D02*
X016280Y007724D01*
X016280Y008774D01*
X016820Y008774D01*
X016820Y007724D01*
X014850Y006224D02*
X014850Y002224D01*
X013850Y002224D01*
X013850Y006224D01*
X014850Y006224D01*
X013900Y007099D02*
X010900Y007099D01*
X010900Y008099D01*
X013900Y008099D01*
X013900Y007099D01*
X013570Y006637D02*
X013030Y006637D01*
X013030Y005587D01*
X013570Y005587D01*
X013570Y006637D01*
X012679Y006818D02*
X011971Y006818D01*
X011971Y006425D01*
X011971Y005874D02*
X011971Y005480D01*
X012679Y005480D01*
X012679Y005293D02*
X011971Y005293D01*
X011971Y004900D01*
X011971Y004349D02*
X011971Y003955D01*
X012679Y003955D01*
X012679Y003718D02*
X011971Y003718D01*
X011971Y003325D01*
X011971Y002774D02*
X011971Y002380D01*
X012679Y002380D01*
X013030Y002524D02*
X013030Y003574D01*
X013570Y003574D01*
X013570Y002524D01*
X013030Y002524D01*
X012679Y002892D02*
X012679Y003207D01*
X013018Y004024D02*
X013018Y005074D01*
X013558Y005074D01*
X013558Y004024D01*
X013018Y004024D01*
X012679Y004467D02*
X012679Y004782D01*
X012679Y005992D02*
X012679Y006307D01*
X011225Y006199D02*
X010225Y006199D01*
X010225Y002199D01*
X011225Y002199D01*
X011225Y006199D01*
X009975Y005969D02*
X009975Y005429D01*
X008925Y005429D01*
X008925Y005969D01*
X009975Y005969D01*
X009925Y004969D02*
X008875Y004969D01*
X008875Y004429D01*
X009925Y004429D01*
X009925Y004969D01*
X009975Y003944D02*
X008925Y003944D01*
X008925Y003404D01*
X009975Y003404D01*
X009975Y003944D01*
X008430Y003684D02*
X007170Y003684D01*
X007170Y002464D02*
X008430Y002464D01*
X008533Y002299D02*
X008535Y002318D01*
X008540Y002337D01*
X008550Y002353D01*
X008562Y002368D01*
X008577Y002380D01*
X008593Y002390D01*
X008612Y002395D01*
X008631Y002397D01*
X008650Y002395D01*
X008669Y002390D01*
X008685Y002380D01*
X008700Y002368D01*
X008712Y002353D01*
X008722Y002337D01*
X008727Y002318D01*
X008729Y002299D01*
X008727Y002280D01*
X008722Y002261D01*
X008712Y002245D01*
X008700Y002230D01*
X008685Y002218D01*
X008669Y002208D01*
X008650Y002203D01*
X008631Y002201D01*
X008612Y002203D01*
X008593Y002208D01*
X008577Y002218D01*
X008562Y002230D01*
X008550Y002245D01*
X008540Y002261D01*
X008535Y002280D01*
X008533Y002299D01*
X016400Y001374D02*
X018900Y001374D01*
X017150Y001624D02*
X017150Y003624D01*
X009438Y009704D02*
X009438Y010244D01*
X008388Y010244D01*
X008388Y009704D01*
X009438Y009704D01*
X008536Y010793D02*
X011489Y010793D01*
X016120Y016339D02*
X016120Y016654D01*
X016435Y016654D01*
X021160Y015866D02*
X021162Y015891D01*
X021168Y015915D01*
X021177Y015937D01*
X021190Y015958D01*
X021206Y015977D01*
X021225Y015993D01*
X021246Y016006D01*
X021268Y016015D01*
X021292Y016021D01*
X021317Y016023D01*
X021342Y016021D01*
X021366Y016015D01*
X021388Y016006D01*
X021409Y015993D01*
X021428Y015977D01*
X021444Y015958D01*
X021457Y015937D01*
X021466Y015915D01*
X021472Y015891D01*
X021474Y015866D01*
X021472Y015841D01*
X021466Y015817D01*
X021457Y015795D01*
X021444Y015774D01*
X021428Y015755D01*
X021409Y015739D01*
X021388Y015726D01*
X021366Y015717D01*
X021342Y015711D01*
X021317Y015709D01*
X021292Y015711D01*
X021268Y015717D01*
X021246Y015726D01*
X021225Y015739D01*
X021206Y015755D01*
X021190Y015774D01*
X021177Y015795D01*
X021168Y015817D01*
X021162Y015841D01*
X021160Y015866D01*
X022105Y016339D02*
X022105Y016654D01*
X021790Y016654D01*
X025143Y017024D02*
X025143Y018074D01*
X025683Y018074D01*
X025683Y017024D01*
X025143Y017024D01*
X025943Y017024D02*
X026483Y017024D01*
X026483Y018074D01*
X025943Y018074D01*
X025943Y017024D01*
X029525Y012474D02*
X030525Y012474D01*
X030525Y009474D01*
X029525Y009474D01*
X029525Y012474D01*
X031268Y012199D02*
X032032Y012199D01*
X032032Y010750D01*
X031268Y010750D01*
X031268Y012199D01*
X031301Y012467D02*
X031301Y013231D01*
X032749Y013231D01*
X032749Y012467D01*
X031301Y012467D01*
X032255Y012124D02*
X032795Y012124D01*
X032795Y011074D01*
X032255Y011074D01*
X032255Y012124D01*
X033005Y012124D02*
X033545Y012124D01*
X033545Y011074D01*
X033005Y011074D01*
X033005Y012124D01*
X032425Y013454D02*
X031375Y013454D01*
X031375Y013994D01*
X032425Y013994D01*
X032425Y013454D01*
X032425Y014204D02*
X031375Y014204D01*
X031375Y014744D01*
X032425Y014744D01*
X032425Y014204D01*
X034625Y014829D02*
X034625Y015369D01*
X035675Y015369D01*
X035675Y014829D01*
X034625Y014829D01*
X035750Y011744D02*
X036800Y011744D01*
X036800Y011204D01*
X035750Y011204D01*
X035750Y011744D01*
X033454Y010268D02*
X033454Y009875D01*
X033454Y010268D02*
X032746Y010268D01*
X032746Y009757D02*
X032746Y009442D01*
X032746Y008930D02*
X033454Y008930D01*
X033454Y009324D01*
X031925Y009704D02*
X030875Y009704D01*
X030875Y010244D01*
X031925Y010244D01*
X031925Y009704D01*
X035000Y007369D02*
X036050Y007369D01*
X036050Y006829D01*
X035000Y006829D01*
X035000Y007369D01*
X032670Y004874D02*
X032130Y004874D01*
X032130Y003824D01*
X032670Y003824D01*
X032670Y004874D01*
X030045Y004699D02*
X029505Y004699D01*
X029505Y005749D01*
X030045Y005749D01*
X030045Y004699D01*
X032005Y017574D02*
X032005Y018624D01*
X032545Y018624D01*
X032545Y017574D01*
X032005Y017574D01*
D14*
X026138Y020849D02*
X026138Y024649D01*
X024688Y024649D01*
X024688Y026249D02*
X023588Y026249D01*
X023588Y027249D01*
X019788Y027249D01*
X019788Y026249D01*
X018688Y026249D01*
X018688Y024349D02*
X017938Y024349D01*
X017938Y021149D01*
X018688Y021149D01*
X019488Y019999D02*
X019488Y017249D01*
X023888Y017249D01*
X023888Y019999D01*
X024688Y020849D02*
X026138Y020849D01*
X021438Y022749D02*
X021440Y022780D01*
X021446Y022811D01*
X021456Y022841D01*
X021469Y022869D01*
X021486Y022896D01*
X021506Y022920D01*
X021529Y022942D01*
X021554Y022960D01*
X021582Y022975D01*
X021611Y022987D01*
X021641Y022995D01*
X021672Y022999D01*
X021704Y022999D01*
X021735Y022995D01*
X021765Y022987D01*
X021794Y022975D01*
X021822Y022960D01*
X021847Y022942D01*
X021870Y022920D01*
X021890Y022896D01*
X021907Y022869D01*
X021920Y022841D01*
X021930Y022811D01*
X021936Y022780D01*
X021938Y022749D01*
X021936Y022718D01*
X021930Y022687D01*
X021920Y022657D01*
X021907Y022629D01*
X021890Y022602D01*
X021870Y022578D01*
X021847Y022556D01*
X021822Y022538D01*
X021794Y022523D01*
X021765Y022511D01*
X021735Y022503D01*
X021704Y022499D01*
X021672Y022499D01*
X021641Y022503D01*
X021611Y022511D01*
X021582Y022523D01*
X021554Y022538D01*
X021529Y022556D01*
X021506Y022578D01*
X021486Y022602D01*
X021469Y022629D01*
X021456Y022657D01*
X021446Y022687D01*
X021440Y022718D01*
X021438Y022749D01*
X015511Y023192D02*
X015511Y025742D01*
X015511Y026106D01*
X011464Y026106D02*
X011464Y025742D01*
X011464Y023192D01*
D15*
X009563Y023299D02*
X009563Y023399D01*
X008563Y023399D01*
X008563Y023299D01*
X008613Y025599D02*
X008613Y025699D01*
X008613Y025599D02*
X009563Y025599D01*
X009563Y025699D01*
M02*
