G75*
%MOIN*%
%OFA0B0*%
%FSLAX24Y24*%
%IPPOS*%
%LPD*%
%AMOC8*
5,1,8,0,0,1.08239X$1,22.5*
%
%ADD10C,0.0120*%
%ADD11C,0.0080*%
%ADD12R,0.0635X0.0635*%
%ADD13C,0.0635*%
%ADD14R,0.0635X0.0635*%
%ADD15C,0.1280*%
%ADD16C,0.0674*%
%ADD17C,0.0980*%
%ADD18C,0.0780*%
%ADD19C,0.0720*%
%ADD20C,0.0520*%
%ADD21C,0.0730*%
D10*
X028400Y000974D02*
X028644Y000977D01*
X028887Y000986D01*
X029130Y001001D01*
X029373Y001021D01*
X029615Y001048D01*
X029856Y001081D01*
X030096Y001119D01*
X030336Y001163D01*
X030574Y001213D01*
X030811Y001269D01*
X031047Y001331D01*
X031281Y001398D01*
X031513Y001471D01*
X031744Y001550D01*
X031972Y001634D01*
X032199Y001724D01*
X032423Y001819D01*
X032645Y001920D01*
X032864Y002026D01*
X033080Y002137D01*
X033294Y002254D01*
X033505Y002375D01*
X033713Y002502D01*
X033918Y002634D01*
X034119Y002771D01*
X034317Y002913D01*
X034512Y003059D01*
X034703Y003210D01*
X034890Y003366D01*
X035073Y003526D01*
X035253Y003691D01*
X035428Y003860D01*
X035599Y004033D01*
X035766Y004211D01*
X035928Y004392D01*
X036086Y004577D01*
X036240Y004766D01*
X036389Y004959D01*
X036533Y005155D01*
X036672Y005355D01*
X036807Y005558D01*
X036936Y005765D01*
X037060Y005974D01*
X037179Y006186D01*
X037293Y006402D01*
X037402Y006619D01*
X037505Y006840D01*
X037603Y007063D01*
X037696Y007288D01*
X037783Y007516D01*
X037864Y007745D01*
X037940Y007977D01*
X038010Y008210D01*
X038075Y008445D01*
X038134Y008681D01*
X038187Y008919D01*
X038234Y009158D01*
X038275Y009398D01*
X038310Y009639D01*
X038340Y009880D01*
X038364Y010123D01*
X038381Y010366D01*
X038393Y010609D01*
X038399Y010852D01*
X038399Y011096D01*
X038393Y011339D01*
X038381Y011582D01*
X038364Y011825D01*
X038340Y012068D01*
X038310Y012309D01*
X038275Y012550D01*
X038234Y012790D01*
X038187Y013029D01*
X038134Y013267D01*
X038075Y013503D01*
X038010Y013738D01*
X037940Y013971D01*
X037864Y014203D01*
X037783Y014432D01*
X037696Y014660D01*
X037603Y014885D01*
X037505Y015108D01*
X037402Y015329D01*
X037293Y015546D01*
X037179Y015762D01*
X037060Y015974D01*
X036936Y016183D01*
X036807Y016390D01*
X036672Y016593D01*
X036533Y016793D01*
X036389Y016989D01*
X036240Y017182D01*
X036086Y017371D01*
X035928Y017556D01*
X035766Y017737D01*
X035599Y017915D01*
X035428Y018088D01*
X035253Y018257D01*
X035073Y018422D01*
X034890Y018582D01*
X034703Y018738D01*
X034512Y018889D01*
X034317Y019035D01*
X034119Y019177D01*
X033918Y019314D01*
X033713Y019446D01*
X033505Y019573D01*
X033294Y019694D01*
X033080Y019811D01*
X032864Y019922D01*
X032645Y020028D01*
X032423Y020129D01*
X032199Y020224D01*
X031972Y020314D01*
X031744Y020398D01*
X031513Y020477D01*
X031281Y020550D01*
X031047Y020617D01*
X030811Y020679D01*
X030574Y020735D01*
X030336Y020785D01*
X030096Y020829D01*
X029856Y020867D01*
X029615Y020900D01*
X029373Y020927D01*
X029130Y020947D01*
X028887Y020962D01*
X028644Y020971D01*
X028400Y020974D01*
D11*
X028400Y000974D02*
X000150Y000974D01*
X000150Y028474D01*
X027650Y028474D01*
X027650Y002574D01*
X028400Y002574D01*
X028400Y020974D01*
D12*
X013213Y021037D03*
D13*
X014213Y021037D03*
X015213Y021037D03*
X015213Y020037D03*
X014213Y020037D03*
X013213Y020037D03*
X004450Y020224D03*
X004450Y019224D03*
X004450Y018224D03*
X003450Y018224D03*
X002450Y018224D03*
X001450Y018224D03*
X001450Y019224D03*
X002450Y019224D03*
X003450Y019224D03*
X003450Y020224D03*
X002450Y020224D03*
X002450Y017224D03*
X003450Y017224D03*
X003450Y016224D03*
X002450Y016224D03*
X002450Y015224D03*
X003450Y015224D03*
X003450Y014224D03*
X002450Y014224D03*
X002450Y013224D03*
X003450Y013224D03*
X003450Y012224D03*
X002450Y012224D03*
X002450Y011224D03*
X003450Y011224D03*
X003450Y010224D03*
X002450Y010224D03*
X002450Y009224D03*
X003450Y009224D03*
X003450Y008224D03*
X002450Y008224D03*
X002450Y007224D03*
X003450Y007224D03*
X003450Y006224D03*
X002450Y006224D03*
X002450Y005224D03*
X003450Y005224D03*
X003450Y004224D03*
X002450Y004224D03*
X001450Y004224D03*
X001450Y005224D03*
X001450Y006224D03*
X001450Y007224D03*
X001450Y008224D03*
X001450Y009224D03*
X001450Y010224D03*
X001450Y011224D03*
X001450Y012224D03*
X001450Y013224D03*
X001450Y014224D03*
X001450Y015224D03*
X001450Y016224D03*
X001450Y017224D03*
X004450Y017224D03*
X004450Y016224D03*
X004450Y015224D03*
X004450Y014224D03*
X004450Y013224D03*
X004450Y012224D03*
X004450Y011224D03*
X004450Y010224D03*
X004450Y009224D03*
X004450Y008224D03*
X004450Y007224D03*
X004450Y006224D03*
X004450Y005224D03*
X004450Y004224D03*
X010725Y004699D03*
X010725Y003699D03*
X010725Y002699D03*
X010725Y005699D03*
X011400Y007599D03*
X012400Y007599D03*
X013400Y007599D03*
X014350Y005724D03*
X014350Y004724D03*
X014350Y003724D03*
X014350Y002724D03*
X029867Y003945D03*
X033349Y005318D03*
X035171Y008541D03*
X035429Y012441D03*
X034056Y015923D03*
X030783Y017745D03*
X030025Y011974D03*
X030025Y010974D03*
X030025Y009974D03*
X004375Y023712D03*
X004375Y025712D03*
D14*
G36*
X030041Y017616D02*
X029429Y017780D01*
X029593Y018392D01*
X030205Y018228D01*
X030041Y017616D01*
G37*
G36*
X033349Y016182D02*
X032901Y016630D01*
X033349Y017078D01*
X033797Y016630D01*
X033349Y016182D01*
G37*
G36*
X034947Y013019D02*
X034783Y013631D01*
X035395Y013795D01*
X035559Y013183D01*
X034947Y013019D01*
G37*
G36*
X035041Y009283D02*
X035205Y009895D01*
X035817Y009731D01*
X035653Y009119D01*
X035041Y009283D01*
G37*
G36*
X033608Y006025D02*
X034056Y006473D01*
X034504Y006025D01*
X034056Y005577D01*
X033608Y006025D01*
G37*
G36*
X030445Y004428D02*
X031057Y004592D01*
X031221Y003980D01*
X030609Y003816D01*
X030445Y004428D01*
G37*
D15*
X029900Y006974D03*
X034900Y010974D03*
X029900Y014974D03*
X026150Y026974D03*
X001650Y026974D03*
X001650Y002474D03*
X026150Y002474D03*
D16*
X025700Y012640D03*
X025700Y014608D03*
D17*
X024688Y020124D03*
X018688Y020124D03*
X018688Y025374D03*
X024688Y025374D03*
D18*
X025688Y023749D03*
X025688Y022749D03*
X025688Y021749D03*
X022938Y019749D03*
X022938Y017749D03*
X020438Y017749D03*
X020438Y019749D03*
X020688Y026749D03*
X021688Y026749D03*
X022688Y026749D03*
D19*
X010663Y025389D02*
X010023Y025389D01*
X010023Y023609D02*
X010663Y023609D01*
X008103Y023609D02*
X007463Y023609D01*
X007463Y025389D02*
X008103Y025389D01*
D20*
X016125Y009962D03*
X019875Y009687D03*
D21*
X017650Y002599D03*
X003525Y002724D03*
M02*
