G75*
%MOIN*%
%OFA0B0*%
%FSLAX24Y24*%
%IPPOS*%
%LPD*%
%AMOC8*
5,1,8,0,0,1.08239X$1,22.5*
%
%ADD10C,0.0120*%
%ADD11C,0.0080*%
%ADD12R,0.0394X0.0315*%
%ADD13R,0.0315X0.0394*%
%ADD14R,0.0591X0.0453*%
%ADD15R,0.0689X0.0256*%
%ADD16R,0.0453X0.0591*%
%ADD17R,0.0283X0.0701*%
%ADD18R,0.1100X0.1500*%
%ADD19R,0.0551X0.0433*%
%ADD20R,0.0236X0.0866*%
%ADD21R,0.0350X0.0236*%
%ADD22R,0.2283X0.2441*%
%ADD23R,0.0630X0.1181*%
%ADD24R,0.0160X0.0591*%
%ADD25R,0.0591X0.0160*%
%ADD26R,0.0945X0.0787*%
%ADD27R,0.0768X0.0217*%
D10*
X028400Y000974D02*
X028644Y000977D01*
X028887Y000986D01*
X029130Y001001D01*
X029373Y001021D01*
X029615Y001048D01*
X029856Y001081D01*
X030096Y001119D01*
X030336Y001163D01*
X030574Y001213D01*
X030811Y001269D01*
X031047Y001331D01*
X031281Y001398D01*
X031513Y001471D01*
X031744Y001550D01*
X031972Y001634D01*
X032199Y001724D01*
X032423Y001819D01*
X032645Y001920D01*
X032864Y002026D01*
X033080Y002137D01*
X033294Y002254D01*
X033505Y002375D01*
X033713Y002502D01*
X033918Y002634D01*
X034119Y002771D01*
X034317Y002913D01*
X034512Y003059D01*
X034703Y003210D01*
X034890Y003366D01*
X035073Y003526D01*
X035253Y003691D01*
X035428Y003860D01*
X035599Y004033D01*
X035766Y004211D01*
X035928Y004392D01*
X036086Y004577D01*
X036240Y004766D01*
X036389Y004959D01*
X036533Y005155D01*
X036672Y005355D01*
X036807Y005558D01*
X036936Y005765D01*
X037060Y005974D01*
X037179Y006186D01*
X037293Y006402D01*
X037402Y006619D01*
X037505Y006840D01*
X037603Y007063D01*
X037696Y007288D01*
X037783Y007516D01*
X037864Y007745D01*
X037940Y007977D01*
X038010Y008210D01*
X038075Y008445D01*
X038134Y008681D01*
X038187Y008919D01*
X038234Y009158D01*
X038275Y009398D01*
X038310Y009639D01*
X038340Y009880D01*
X038364Y010123D01*
X038381Y010366D01*
X038393Y010609D01*
X038399Y010852D01*
X038399Y011096D01*
X038393Y011339D01*
X038381Y011582D01*
X038364Y011825D01*
X038340Y012068D01*
X038310Y012309D01*
X038275Y012550D01*
X038234Y012790D01*
X038187Y013029D01*
X038134Y013267D01*
X038075Y013503D01*
X038010Y013738D01*
X037940Y013971D01*
X037864Y014203D01*
X037783Y014432D01*
X037696Y014660D01*
X037603Y014885D01*
X037505Y015108D01*
X037402Y015329D01*
X037293Y015546D01*
X037179Y015762D01*
X037060Y015974D01*
X036936Y016183D01*
X036807Y016390D01*
X036672Y016593D01*
X036533Y016793D01*
X036389Y016989D01*
X036240Y017182D01*
X036086Y017371D01*
X035928Y017556D01*
X035766Y017737D01*
X035599Y017915D01*
X035428Y018088D01*
X035253Y018257D01*
X035073Y018422D01*
X034890Y018582D01*
X034703Y018738D01*
X034512Y018889D01*
X034317Y019035D01*
X034119Y019177D01*
X033918Y019314D01*
X033713Y019446D01*
X033505Y019573D01*
X033294Y019694D01*
X033080Y019811D01*
X032864Y019922D01*
X032645Y020028D01*
X032423Y020129D01*
X032199Y020224D01*
X031972Y020314D01*
X031744Y020398D01*
X031513Y020477D01*
X031281Y020550D01*
X031047Y020617D01*
X030811Y020679D01*
X030574Y020735D01*
X030336Y020785D01*
X030096Y020829D01*
X029856Y020867D01*
X029615Y020900D01*
X029373Y020927D01*
X029130Y020947D01*
X028887Y020962D01*
X028644Y020971D01*
X028400Y020974D01*
D11*
X028400Y000974D02*
X000150Y000974D01*
X000150Y028474D01*
X027650Y028474D01*
X027650Y002574D01*
X028400Y002574D01*
X028400Y020974D01*
D12*
X026213Y017844D03*
X026213Y017254D03*
X025413Y017254D03*
X025413Y017844D03*
X023163Y012719D03*
X023163Y012129D03*
X021050Y009019D03*
X021050Y008429D03*
X020275Y004569D03*
X020275Y003979D03*
X020275Y003344D03*
X020275Y002754D03*
X016550Y007954D03*
X016550Y008544D03*
X013300Y006407D03*
X013300Y005816D03*
X013288Y004844D03*
X013288Y004254D03*
X013300Y003344D03*
X013300Y002754D03*
X014925Y012454D03*
X014925Y013044D03*
X014938Y013729D03*
X014938Y014319D03*
X012213Y021054D03*
X012213Y021644D03*
X016000Y024316D03*
X016000Y024907D03*
X003538Y025044D03*
X003538Y024454D03*
X029775Y005519D03*
X029775Y004929D03*
X032400Y004644D03*
X032400Y004054D03*
X032525Y011304D03*
X032525Y011894D03*
X033275Y011894D03*
X033275Y011304D03*
X032275Y017804D03*
X032275Y018394D03*
D13*
X034855Y015099D03*
X035445Y015099D03*
X032195Y014474D03*
X031605Y014474D03*
X031605Y013724D03*
X032195Y013724D03*
X035980Y011474D03*
X036570Y011474D03*
X035820Y007099D03*
X035230Y007099D03*
X031695Y009974D03*
X031105Y009974D03*
X025245Y010112D03*
X024655Y010112D03*
X024655Y010912D03*
X025245Y010912D03*
X023045Y010199D03*
X022455Y010199D03*
X022480Y009324D03*
X023070Y009324D03*
X023255Y002824D03*
X023845Y002824D03*
X009745Y003674D03*
X009155Y003674D03*
X009105Y004699D03*
X009695Y004699D03*
X009745Y005699D03*
X009155Y005699D03*
X006095Y005224D03*
X005505Y005224D03*
X005505Y004224D03*
X006095Y004224D03*
X006095Y006224D03*
X005505Y006224D03*
X005505Y007224D03*
X006095Y007224D03*
X006095Y008224D03*
X005505Y008224D03*
X005505Y009224D03*
X006095Y009224D03*
X006095Y010224D03*
X005505Y010224D03*
X005505Y011224D03*
X006095Y011224D03*
X006095Y012224D03*
X005505Y012224D03*
X005505Y013224D03*
X006095Y013224D03*
X006095Y014224D03*
X005505Y014224D03*
X005505Y015224D03*
X006095Y015224D03*
X006095Y016224D03*
X005505Y016224D03*
X005505Y017224D03*
X006095Y017224D03*
X006095Y018224D03*
X005505Y018224D03*
X005505Y019224D03*
X006095Y019224D03*
X006192Y020812D03*
X006783Y020812D03*
X007442Y020824D03*
X008033Y020824D03*
X008083Y021574D03*
X007492Y021574D03*
X006808Y021562D03*
X006217Y021562D03*
X006205Y022312D03*
X006795Y022312D03*
X007467Y022324D03*
X008058Y022324D03*
X008792Y026524D03*
X009383Y026524D03*
X007270Y027124D03*
X006680Y027124D03*
X002245Y025399D03*
X001655Y025399D03*
X001655Y024649D03*
X002245Y024649D03*
X002245Y023899D03*
X001655Y023899D03*
X001655Y023149D03*
X002245Y023149D03*
X008730Y017537D03*
X009320Y017537D03*
X009208Y009974D03*
X008617Y009974D03*
X013255Y027399D03*
X013845Y027399D03*
D14*
X031650Y011868D03*
X031650Y011080D03*
X022975Y008293D03*
X022975Y007505D03*
D15*
X020127Y007499D03*
X020127Y007999D03*
X020127Y008499D03*
X020127Y008999D03*
X017923Y008999D03*
X017923Y008499D03*
X017923Y007999D03*
X017923Y007499D03*
D16*
X024006Y004474D03*
X024794Y004474D03*
X031631Y012849D03*
X032419Y012849D03*
X002344Y021274D03*
X001556Y021274D03*
X001556Y022274D03*
X002344Y022274D03*
D17*
X021025Y004670D03*
X021525Y004670D03*
X022025Y004670D03*
X022525Y004670D03*
X022525Y002828D03*
X022025Y002828D03*
X021525Y002828D03*
X021025Y002828D03*
D18*
X019055Y002624D03*
X016245Y002624D03*
X016245Y005624D03*
X019055Y005624D03*
D19*
X008391Y003389D03*
X008391Y002759D03*
X007209Y002759D03*
X007209Y003389D03*
D20*
X011738Y022759D03*
X012238Y022759D03*
X012738Y022759D03*
X013238Y022759D03*
X013738Y022759D03*
X014238Y022759D03*
X014738Y022759D03*
X015238Y022759D03*
X015238Y026529D03*
X014738Y026529D03*
X014238Y026529D03*
X013738Y026529D03*
X013238Y026529D03*
X012738Y026529D03*
X012238Y026529D03*
X011738Y026529D03*
D21*
X005938Y025073D03*
X005938Y024325D03*
X005088Y024699D03*
X012750Y006523D03*
X012750Y005775D03*
X012750Y004998D03*
X011900Y004624D03*
X012750Y004250D03*
X012750Y003423D03*
X012750Y002675D03*
X011900Y003049D03*
X011900Y006149D03*
X022300Y006373D03*
X023150Y005999D03*
X022300Y005625D03*
X032675Y009225D03*
X033525Y009599D03*
X032675Y009973D03*
D22*
X025000Y006499D03*
D23*
X024102Y008857D03*
X025898Y008857D03*
D24*
X021475Y010610D03*
X021160Y010610D03*
X020845Y010610D03*
X020530Y010610D03*
X020215Y010610D03*
X019900Y010610D03*
X019585Y010610D03*
X019270Y010610D03*
X018955Y010610D03*
X018640Y010610D03*
X018325Y010610D03*
X018010Y010610D03*
X017695Y010610D03*
X017380Y010610D03*
X017065Y010610D03*
X016750Y010610D03*
X016750Y016713D03*
X017065Y016713D03*
X017380Y016713D03*
X017695Y016713D03*
X018010Y016713D03*
X018325Y016713D03*
X018640Y016713D03*
X018955Y016713D03*
X019270Y016713D03*
X019585Y016713D03*
X019900Y016713D03*
X020215Y016713D03*
X020530Y016713D03*
X020845Y016713D03*
X021160Y016713D03*
X021475Y016713D03*
D25*
X022164Y016024D03*
X022164Y015709D03*
X022164Y015394D03*
X022164Y015079D03*
X022164Y014764D03*
X022164Y014449D03*
X022164Y014134D03*
X022164Y013819D03*
X022164Y013504D03*
X022164Y013189D03*
X022164Y012874D03*
X022164Y012559D03*
X022164Y012244D03*
X022164Y011929D03*
X022164Y011614D03*
X022164Y011299D03*
X016061Y011299D03*
X016061Y011614D03*
X016061Y011929D03*
X016061Y012244D03*
X016061Y012559D03*
X016061Y012874D03*
X016061Y013189D03*
X016061Y013504D03*
X016061Y013819D03*
X016061Y014134D03*
X016061Y014449D03*
X016061Y014764D03*
X016061Y015079D03*
X016061Y015394D03*
X016061Y015709D03*
X016061Y016024D03*
D26*
X013750Y014187D03*
X013750Y012612D03*
D27*
X011863Y012574D03*
X011863Y012074D03*
X011863Y011574D03*
X011863Y011074D03*
X011863Y013074D03*
X011863Y013574D03*
X011863Y014074D03*
X011863Y014574D03*
X011863Y015074D03*
X011863Y015574D03*
X011863Y016074D03*
X011863Y016574D03*
X008162Y016574D03*
X008162Y016074D03*
X008162Y015574D03*
X008162Y015074D03*
X008162Y014574D03*
X008162Y014074D03*
X008162Y013574D03*
X008162Y013074D03*
X008162Y012574D03*
X008162Y012074D03*
X008162Y011574D03*
X008162Y011074D03*
M02*
